<svg xmlns="http://www.w3.org/2000/svg" version="1.1" xmlns:xlink="http://www.w3.org/1999/xlink" xmlns:svgjs="http://svgjs.com/svgjs" width="1920" height="1080" preserveAspectRatio="none" viewBox="0 0 1920 1080"><g mask="url(&quot;#SvgjsMask3236&quot;)" fill="none"><rect width="1920" height="1080" x="0" y="0" fill="url(#SvgjsLinearGradient3237)"></rect><path d="M23.53 173.01L48.65 187.51L48.65 216.51L23.53 231.01L-1.59 216.51L-1.59 187.51zM48.65 303.51L73.76 318.01L73.76 347.01L48.65 361.51L23.53 347.01L23.53 318.01zM23.53 521.01L48.65 535.51L48.65 564.51L23.53 579.01L-1.59 564.51L-1.59 535.51zM48.65 564.51L73.76 579.01L73.76 608.01L48.65 622.51L23.53 608.01L23.53 579.01zM23.53 608.01L48.65 622.51L48.65 651.51L23.53 666.01L-1.59 651.51L-1.59 622.51zM48.65 651.51L73.76 666.01L73.76 695.01L48.65 709.51L23.53 695.01L23.53 666.01zM48.65 825.51L73.76 840.01L73.76 869.01L48.65 883.51L23.53 869.01L23.53 840.01zM48.65 999.51L73.76 1014.01L73.76 1043.01L48.65 1057.51L23.53 1043.01L23.53 1014.01zM98.88 42.51L123.99 57.01L123.99 86.01L98.88 100.51L73.76 86.01L73.76 57.01zM73.76 86.01L98.88 100.51L98.88 129.51L73.76 144.01L48.65 129.51L48.65 100.51zM73.76 434.01L98.88 448.51L98.88 477.51L73.76 492.01L48.65 477.51L48.65 448.51zM98.88 477.51L123.99 492.01L123.99 521.01L98.88 535.51L73.76 521.01L73.76 492.01zM123.99 -0.99L149.11 13.51L149.11 42.51L123.99 57.01L98.88 42.51L98.88 13.51zM149.11 42.51L174.22 57.01L174.22 86.01L149.11 100.51L123.99 86.01L123.99 57.01zM149.11 390.51L174.22 405.01L174.22 434.01L149.11 448.51L123.99 434.01L123.99 405.01zM123.99 608.01L149.11 622.51L149.11 651.51L123.99 666.01L98.88 651.51L98.88 622.51zM149.11 738.51L174.22 753.01L174.22 782.01L149.11 796.51L123.99 782.01L123.99 753.01zM123.99 782.01L149.11 796.51L149.11 825.51L123.99 840.01L98.88 825.51L98.88 796.51zM123.99 869.01L149.11 883.51L149.11 912.51L123.99 927.01L98.88 912.51L98.88 883.51zM149.11 1086.51L174.22 1101.01L174.22 1130.01L149.11 1144.51L123.99 1130.01L123.99 1101.01zM174.22 521.01L199.34 535.51L199.34 564.51L174.22 579.01L149.11 564.51L149.11 535.51zM199.34 564.51L224.45 579.01L224.45 608.01L199.34 622.51L174.22 608.01L174.22 579.01zM174.22 869.01L199.34 883.51L199.34 912.51L174.22 927.01L149.11 912.51L149.11 883.51zM174.22 956.01L199.34 970.51L199.34 999.51L174.22 1014.01L149.11 999.51L149.11 970.51zM174.22 1043.01L199.34 1057.51L199.34 1086.51L174.22 1101.01L149.11 1086.51L149.11 1057.51zM199.34 1086.51L224.45 1101.01L224.45 1130.01L199.34 1144.51L174.22 1130.01L174.22 1101.01zM224.45 86.01L249.57 100.51L249.57 129.51L224.45 144.01L199.34 129.51L199.34 100.51zM224.45 173.01L249.57 187.51L249.57 216.51L224.45 231.01L199.34 216.51L199.34 187.51zM224.45 260.01L249.57 274.51L249.57 303.51L224.45 318.01L199.34 303.51L199.34 274.51zM224.45 695.01L249.57 709.51L249.57 738.51L224.45 753.01L199.34 738.51L199.34 709.51zM224.45 956.01L249.57 970.51L249.57 999.51L224.45 1014.01L199.34 999.51L199.34 970.51zM274.68 86.01L299.8 100.51L299.8 129.51L274.68 144.01L249.57 129.51L249.57 100.51zM274.68 260.01L299.8 274.51L299.8 303.51L274.68 318.01L249.57 303.51L249.57 274.51zM299.8 390.51L324.92 405.01L324.92 434.01L299.8 448.51L274.68 434.01L274.68 405.01zM299.8 477.51L324.92 492.01L324.92 521.01L299.8 535.51L274.68 521.01L274.68 492.01zM299.8 564.51L324.92 579.01L324.92 608.01L299.8 622.51L274.68 608.01L274.68 579.01zM274.68 608.01L299.8 622.51L299.8 651.51L274.68 666.01L249.57 651.51L249.57 622.51zM274.68 695.01L299.8 709.51L299.8 738.51L274.68 753.01L249.57 738.51L249.57 709.51zM299.8 825.51L324.92 840.01L324.92 869.01L299.8 883.51L274.68 869.01L274.68 840.01zM274.68 1043.01L299.8 1057.51L299.8 1086.51L274.68 1101.01L249.57 1086.51L249.57 1057.51zM350.03 42.51L375.15 57.01L375.15 86.01L350.03 100.51L324.92 86.01L324.92 57.01zM324.92 260.01L350.03 274.51L350.03 303.51L324.92 318.01L299.8 303.51L299.8 274.51zM324.92 695.01L350.03 709.51L350.03 738.51L324.92 753.01L299.8 738.51L299.8 709.51zM350.03 912.51L375.15 927.01L375.15 956.01L350.03 970.51L324.92 956.01L324.92 927.01zM324.92 1043.01L350.03 1057.51L350.03 1086.51L324.92 1101.01L299.8 1086.51L299.8 1057.51zM350.03 1086.51L375.15 1101.01L375.15 1130.01L350.03 1144.51L324.92 1130.01L324.92 1101.01zM375.15 86.01L400.26 100.51L400.26 129.51L375.15 144.01L350.03 129.51L350.03 100.51zM375.15 608.01L400.26 622.51L400.26 651.51L375.15 666.01L350.03 651.51L350.03 622.51zM400.26 651.51L425.38 666.01L425.38 695.01L400.26 709.51L375.15 695.01L375.15 666.01zM375.15 869.01L400.26 883.51L400.26 912.51L375.15 927.01L350.03 912.51L350.03 883.51zM375.15 956.01L400.26 970.51L400.26 999.51L375.15 1014.01L350.03 999.51L350.03 970.51zM450.49 42.51L475.61 57.01L475.61 86.01L450.49 100.51L425.38 86.01L425.38 57.01zM425.38 86.01L450.49 100.51L450.49 129.51L425.38 144.01L400.26 129.51L400.26 100.51zM425.38 695.01L450.49 709.51L450.49 738.51L425.38 753.01L400.26 738.51L400.26 709.51zM425.38 1043.01L450.49 1057.51L450.49 1086.51L425.38 1101.01L400.26 1086.51L400.26 1057.51zM500.72 129.51L525.84 144.01L525.84 173.01L500.72 187.51L475.61 173.01L475.61 144.01zM475.61 173.01L500.72 187.51L500.72 216.51L475.61 231.01L450.49 216.51L450.49 187.51zM475.61 260.01L500.72 274.51L500.72 303.51L475.61 318.01L450.49 303.51L450.49 274.51zM500.72 303.51L525.84 318.01L525.84 347.01L500.72 361.51L475.61 347.01L475.61 318.01zM500.72 477.51L525.84 492.01L525.84 521.01L500.72 535.51L475.61 521.01L475.61 492.01zM500.72 564.51L525.84 579.01L525.84 608.01L500.72 622.51L475.61 608.01L475.61 579.01zM550.95 303.51L576.07 318.01L576.07 347.01L550.95 361.51L525.84 347.01L525.84 318.01zM525.84 347.01L550.95 361.51L550.95 390.51L525.84 405.01L500.72 390.51L500.72 361.51zM550.95 564.51L576.07 579.01L576.07 608.01L550.95 622.51L525.84 608.01L525.84 579.01zM525.84 695.01L550.95 709.51L550.95 738.51L525.84 753.01L500.72 738.51L500.72 709.51zM576.07 -0.99L601.19 13.51L601.19 42.51L576.07 57.01L550.95 42.51L550.95 13.51zM601.19 477.51L626.3 492.01L626.3 521.01L601.19 535.51L576.07 521.01L576.07 492.01zM576.07 521.01L601.19 535.51L601.19 564.51L576.07 579.01L550.95 564.51L550.95 535.51zM601.19 651.51L626.3 666.01L626.3 695.01L601.19 709.51L576.07 695.01L576.07 666.01zM576.07 1043.01L601.19 1057.51L601.19 1086.51L576.07 1101.01L550.95 1086.51L550.95 1057.51zM651.42 42.51L676.53 57.01L676.53 86.01L651.42 100.51L626.3 86.01L626.3 57.01zM651.42 129.51L676.53 144.01L676.53 173.01L651.42 187.51L626.3 173.01L626.3 144.01zM626.3 173.01L651.42 187.51L651.42 216.51L626.3 231.01L601.19 216.51L601.19 187.51zM626.3 347.01L651.42 361.51L651.42 390.51L626.3 405.01L601.19 390.51L601.19 361.51zM651.42 477.51L676.53 492.01L676.53 521.01L651.42 535.51L626.3 521.01L626.3 492.01zM626.3 521.01L651.42 535.51L651.42 564.51L626.3 579.01L601.19 564.51L601.19 535.51zM651.42 825.51L676.53 840.01L676.53 869.01L651.42 883.51L626.3 869.01L626.3 840.01zM651.42 912.51L676.53 927.01L676.53 956.01L651.42 970.51L626.3 956.01L626.3 927.01zM651.42 999.51L676.53 1014.01L676.53 1043.01L651.42 1057.51L626.3 1043.01L626.3 1014.01zM651.42 1086.51L676.53 1101.01L676.53 1130.01L651.42 1144.51L626.3 1130.01L626.3 1101.01zM676.53 260.01L701.65 274.51L701.65 303.51L676.53 318.01L651.42 303.51L651.42 274.51zM701.65 303.51L726.76 318.01L726.76 347.01L701.65 361.51L676.53 347.01L676.53 318.01zM701.65 477.51L726.76 492.01L726.76 521.01L701.65 535.51L676.53 521.01L676.53 492.01zM701.65 564.51L726.76 579.01L726.76 608.01L701.65 622.51L676.53 608.01L676.53 579.01zM676.53 695.01L701.65 709.51L701.65 738.51L676.53 753.01L651.42 738.51L651.42 709.51zM751.88 129.51L776.99 144.01L776.99 173.01L751.88 187.51L726.76 173.01L726.76 144.01zM726.76 347.01L751.88 361.51L751.88 390.51L726.76 405.01L701.65 390.51L701.65 361.51zM751.88 477.51L776.99 492.01L776.99 521.01L751.88 535.51L726.76 521.01L726.76 492.01zM726.76 521.01L751.88 535.51L751.88 564.51L726.76 579.01L701.65 564.51L701.65 535.51zM726.76 608.01L751.88 622.51L751.88 651.51L726.76 666.01L701.65 651.51L701.65 622.51zM802.11 42.51L827.22 57.01L827.22 86.01L802.11 100.51L776.99 86.01L776.99 57.01zM776.99 608.01L802.11 622.51L802.11 651.51L776.99 666.01L751.88 651.51L751.88 622.51zM852.34 42.51L877.46 57.01L877.46 86.01L852.34 100.51L827.22 86.01L827.22 57.01zM827.22 86.01L852.34 100.51L852.34 129.51L827.22 144.01L802.11 129.51L802.11 100.51zM852.34 390.51L877.46 405.01L877.46 434.01L852.34 448.51L827.22 434.01L827.22 405.01zM827.22 521.01L852.34 535.51L852.34 564.51L827.22 579.01L802.11 564.51L802.11 535.51zM827.22 608.01L852.34 622.51L852.34 651.51L827.22 666.01L802.11 651.51L802.11 622.51zM827.22 782.01L852.34 796.51L852.34 825.51L827.22 840.01L802.11 825.51L802.11 796.51zM852.34 1086.51L877.46 1101.01L877.46 1130.01L852.34 1144.51L827.22 1130.01L827.22 1101.01zM877.46 86.01L902.57 100.51L902.57 129.51L877.46 144.01L852.34 129.51L852.34 100.51zM902.57 390.51L927.69 405.01L927.69 434.01L902.57 448.51L877.46 434.01L877.46 405.01zM902.57 477.51L927.69 492.01L927.69 521.01L902.57 535.51L877.46 521.01L877.46 492.01zM877.46 869.01L902.57 883.51L902.57 912.51L877.46 927.01L852.34 912.51L852.34 883.51zM902.57 912.51L927.69 927.01L927.69 956.01L902.57 970.51L877.46 956.01L877.46 927.01zM877.46 956.01L902.57 970.51L902.57 999.51L877.46 1014.01L852.34 999.51L852.34 970.51zM902.57 1086.51L927.69 1101.01L927.69 1130.01L902.57 1144.51L877.46 1130.01L877.46 1101.01zM927.69 -0.99L952.8 13.51L952.8 42.51L927.69 57.01L902.57 42.51L902.57 13.51zM927.69 86.01L952.8 100.51L952.8 129.51L927.69 144.01L902.57 129.51L902.57 100.51zM927.69 173.01L952.8 187.51L952.8 216.51L927.69 231.01L902.57 216.51L902.57 187.51zM952.8 216.51L977.92 231.01L977.92 260.01L952.8 274.51L927.69 260.01L927.69 231.01zM1003.03 390.51L1028.15 405.01L1028.15 434.01L1003.03 448.51L977.92 434.01L977.92 405.01zM977.92 521.01L1003.03 535.51L1003.03 564.51L977.92 579.01L952.8 564.51L952.8 535.51zM1003.03 564.51L1028.15 579.01L1028.15 608.01L1003.03 622.51L977.92 608.01L977.92 579.01zM977.92 608.01L1003.03 622.51L1003.03 651.51L977.92 666.01L952.8 651.51L952.8 622.51zM977.92 869.01L1003.03 883.51L1003.03 912.51L977.92 927.01L952.8 912.51L952.8 883.51zM1053.26 129.51L1078.38 144.01L1078.38 173.01L1053.26 187.51L1028.15 173.01L1028.15 144.01zM1053.26 303.51L1078.38 318.01L1078.38 347.01L1053.26 361.51L1028.15 347.01L1028.15 318.01zM1053.26 564.51L1078.38 579.01L1078.38 608.01L1053.26 622.51L1028.15 608.01L1028.15 579.01zM1028.15 782.01L1053.26 796.51L1053.26 825.51L1028.15 840.01L1003.03 825.51L1003.03 796.51zM1028.15 956.01L1053.26 970.51L1053.26 999.51L1028.15 1014.01L1003.03 999.51L1003.03 970.51zM1078.38 608.01L1103.49 622.51L1103.49 651.51L1078.38 666.01L1053.26 651.51L1053.26 622.51zM1103.49 651.51L1128.61 666.01L1128.61 695.01L1103.49 709.51L1078.38 695.01L1078.38 666.01zM1103.49 738.51L1128.61 753.01L1128.61 782.01L1103.49 796.51L1078.38 782.01L1078.38 753.01zM1103.49 999.51L1128.61 1014.01L1128.61 1043.01L1103.49 1057.51L1078.38 1043.01L1078.38 1014.01zM1103.49 1086.51L1128.61 1101.01L1128.61 1130.01L1103.49 1144.51L1078.38 1130.01L1078.38 1101.01zM1128.61 173.01L1153.73 187.51L1153.73 216.51L1128.61 231.01L1103.49 216.51L1103.49 187.51zM1153.73 303.51L1178.84 318.01L1178.84 347.01L1153.73 361.51L1128.61 347.01L1128.61 318.01zM1128.61 347.01L1153.73 361.51L1153.73 390.51L1128.61 405.01L1103.49 390.51L1103.49 361.51zM1128.61 782.01L1153.73 796.51L1153.73 825.51L1128.61 840.01L1103.49 825.51L1103.49 796.51zM1128.61 1043.01L1153.73 1057.51L1153.73 1086.51L1128.61 1101.01L1103.49 1086.51L1103.49 1057.51zM1178.84 86.01L1203.96 100.51L1203.96 129.51L1178.84 144.01L1153.73 129.51L1153.73 100.51zM1203.96 303.51L1229.07 318.01L1229.07 347.01L1203.96 361.51L1178.84 347.01L1178.84 318.01zM1178.84 956.01L1203.96 970.51L1203.96 999.51L1178.84 1014.01L1153.73 999.51L1153.73 970.51zM1178.84 1043.01L1203.96 1057.51L1203.96 1086.51L1178.84 1101.01L1153.73 1086.51L1153.73 1057.51zM1229.07 -0.99L1254.19 13.51L1254.19 42.51L1229.07 57.01L1203.96 42.51L1203.96 13.51zM1254.19 129.51L1279.3 144.01L1279.3 173.01L1254.19 187.51L1229.07 173.01L1229.07 144.01zM1254.19 303.51L1279.3 318.01L1279.3 347.01L1254.19 361.51L1229.07 347.01L1229.07 318.01zM1229.07 782.01L1254.19 796.51L1254.19 825.51L1229.07 840.01L1203.96 825.51L1203.96 796.51zM1254.19 825.51L1279.3 840.01L1279.3 869.01L1254.19 883.51L1229.07 869.01L1229.07 840.01zM1229.07 956.01L1254.19 970.51L1254.19 999.51L1229.07 1014.01L1203.96 999.51L1203.96 970.51zM1279.3 347.01L1304.42 361.51L1304.42 390.51L1279.3 405.01L1254.19 390.51L1254.19 361.51zM1304.42 477.51L1329.53 492.01L1329.53 521.01L1304.42 535.51L1279.3 521.01L1279.3 492.01zM1279.3 521.01L1304.42 535.51L1304.42 564.51L1279.3 579.01L1254.19 564.51L1254.19 535.51zM1279.3 608.01L1304.42 622.51L1304.42 651.51L1279.3 666.01L1254.19 651.51L1254.19 622.51zM1354.65 216.51L1379.76 231.01L1379.76 260.01L1354.65 274.51L1329.53 260.01L1329.53 231.01zM1329.53 434.01L1354.65 448.51L1354.65 477.51L1329.53 492.01L1304.42 477.51L1304.42 448.51zM1354.65 912.51L1379.76 927.01L1379.76 956.01L1354.65 970.51L1329.53 956.01L1329.53 927.01zM1379.76 695.01L1404.88 709.51L1404.88 738.51L1379.76 753.01L1354.65 738.51L1354.65 709.51zM1404.88 912.51L1430 927.01L1430 956.01L1404.88 970.51L1379.76 956.01L1379.76 927.01zM1404.88 1086.51L1430 1101.01L1430 1130.01L1404.88 1144.51L1379.76 1130.01L1379.76 1101.01zM1455.11 303.51L1480.23 318.01L1480.23 347.01L1455.11 361.51L1430 347.01L1430 318.01zM1455.11 390.51L1480.23 405.01L1480.23 434.01L1455.11 448.51L1430 434.01L1430 405.01zM1430 608.01L1455.11 622.51L1455.11 651.51L1430 666.01L1404.88 651.51L1404.88 622.51zM1430 782.01L1455.11 796.51L1455.11 825.51L1430 840.01L1404.88 825.51L1404.88 796.51zM1455.11 912.51L1480.23 927.01L1480.23 956.01L1455.11 970.51L1430 956.01L1430 927.01zM1505.34 42.51L1530.46 57.01L1530.46 86.01L1505.34 100.51L1480.23 86.01L1480.23 57.01zM1505.34 216.51L1530.46 231.01L1530.46 260.01L1505.34 274.51L1480.23 260.01L1480.23 231.01zM1505.34 651.51L1530.46 666.01L1530.46 695.01L1505.34 709.51L1480.23 695.01L1480.23 666.01zM1480.23 695.01L1505.34 709.51L1505.34 738.51L1480.23 753.01L1455.11 738.51L1455.11 709.51zM1480.23 1043.01L1505.34 1057.51L1505.34 1086.51L1480.23 1101.01L1455.11 1086.51L1455.11 1057.51zM1530.46 86.01L1555.57 100.51L1555.57 129.51L1530.46 144.01L1505.34 129.51L1505.34 100.51zM1530.46 260.01L1555.57 274.51L1555.57 303.51L1530.46 318.01L1505.34 303.51L1505.34 274.51zM1555.57 303.51L1580.69 318.01L1580.69 347.01L1555.57 361.51L1530.46 347.01L1530.46 318.01zM1530.46 521.01L1555.57 535.51L1555.57 564.51L1530.46 579.01L1505.34 564.51L1505.34 535.51zM1555.57 912.51L1580.69 927.01L1580.69 956.01L1555.57 970.51L1530.46 956.01L1530.46 927.01zM1580.69 -0.99L1605.8 13.51L1605.8 42.51L1580.69 57.01L1555.57 42.51L1555.57 13.51zM1580.69 86.01L1605.8 100.51L1605.8 129.51L1580.69 144.01L1555.57 129.51L1555.57 100.51zM1580.69 173.01L1605.8 187.51L1605.8 216.51L1580.69 231.01L1555.57 216.51L1555.57 187.51zM1580.69 347.01L1605.8 361.51L1605.8 390.51L1580.69 405.01L1555.57 390.51L1555.57 361.51zM1605.8 651.51L1630.92 666.01L1630.92 695.01L1605.8 709.51L1580.69 695.01L1580.69 666.01zM1656.03 129.51L1681.15 144.01L1681.15 173.01L1656.03 187.51L1630.92 173.01L1630.92 144.01zM1630.92 173.01L1656.03 187.51L1656.03 216.51L1630.92 231.01L1605.8 216.51L1605.8 187.51zM1656.03 999.51L1681.15 1014.01L1681.15 1043.01L1656.03 1057.51L1630.92 1043.01L1630.92 1014.01zM1656.03 1086.51L1681.15 1101.01L1681.15 1130.01L1656.03 1144.51L1630.92 1130.01L1630.92 1101.01zM1681.15 -0.99L1706.27 13.51L1706.27 42.51L1681.15 57.01L1656.03 42.51L1656.03 13.51zM1681.15 260.01L1706.27 274.51L1706.27 303.51L1681.15 318.01L1656.03 303.51L1656.03 274.51zM1706.27 477.51L1731.38 492.01L1731.38 521.01L1706.27 535.51L1681.15 521.01L1681.15 492.01zM1681.15 521.01L1706.27 535.51L1706.27 564.51L1681.15 579.01L1656.03 564.51L1656.03 535.51zM1706.27 912.51L1731.38 927.01L1731.38 956.01L1706.27 970.51L1681.15 956.01L1681.15 927.01zM1756.5 216.51L1781.61 231.01L1781.61 260.01L1756.5 274.51L1731.38 260.01L1731.38 231.01zM1756.5 303.51L1781.61 318.01L1781.61 347.01L1756.5 361.51L1731.38 347.01L1731.38 318.01zM1756.5 564.51L1781.61 579.01L1781.61 608.01L1756.5 622.51L1731.38 608.01L1731.38 579.01zM1756.5 651.51L1781.61 666.01L1781.61 695.01L1756.5 709.51L1731.38 695.01L1731.38 666.01zM1731.38 956.01L1756.5 970.51L1756.5 999.51L1731.38 1014.01L1706.27 999.51L1706.27 970.51zM1781.61 86.01L1806.73 100.51L1806.73 129.51L1781.61 144.01L1756.5 129.51L1756.5 100.51zM1806.73 303.51L1831.84 318.01L1831.84 347.01L1806.73 361.51L1781.61 347.01L1781.61 318.01zM1806.73 390.51L1831.84 405.01L1831.84 434.01L1806.73 448.51L1781.61 434.01L1781.61 405.01zM1781.61 434.01L1806.73 448.51L1806.73 477.51L1781.61 492.01L1756.5 477.51L1756.5 448.51zM1781.61 521.01L1806.73 535.51L1806.73 564.51L1781.61 579.01L1756.5 564.51L1756.5 535.51zM1781.61 695.01L1806.73 709.51L1806.73 738.51L1781.61 753.01L1756.5 738.51L1756.5 709.51zM1831.84 173.01L1856.96 187.51L1856.96 216.51L1831.84 231.01L1806.73 216.51L1806.73 187.51zM1856.96 303.51L1882.07 318.01L1882.07 347.01L1856.96 361.51L1831.84 347.01L1831.84 318.01zM1831.84 434.01L1856.96 448.51L1856.96 477.51L1831.84 492.01L1806.73 477.51L1806.73 448.51zM1856.96 738.51L1882.07 753.01L1882.07 782.01L1856.96 796.51L1831.84 782.01L1831.84 753.01zM1831.84 956.01L1856.96 970.51L1856.96 999.51L1831.84 1014.01L1806.73 999.51L1806.73 970.51zM1856.96 999.51L1882.07 1014.01L1882.07 1043.01L1856.96 1057.51L1831.84 1043.01L1831.84 1014.01zM1882.07 173.01L1907.19 187.51L1907.19 216.51L1882.07 231.01L1856.96 216.51L1856.96 187.51zM1882.07 347.01L1907.19 361.51L1907.19 390.51L1882.07 405.01L1856.96 390.51L1856.96 361.51zM1907.19 390.51L1932.3 405.01L1932.3 434.01L1907.19 448.51L1882.07 434.01L1882.07 405.01zM1882.07 695.01L1907.19 709.51L1907.19 738.51L1882.07 753.01L1856.96 738.51L1856.96 709.51zM1882.07 782.01L1907.19 796.51L1907.19 825.51L1882.07 840.01L1856.96 825.51L1856.96 796.51zM1882.07 869.01L1907.19 883.51L1907.19 912.51L1882.07 927.01L1856.96 912.51L1856.96 883.51zM1882.07 956.01L1907.19 970.51L1907.19 999.51L1882.07 1014.01L1856.96 999.51L1856.96 970.51zM1907.19 999.51L1932.3 1014.01L1932.3 1043.01L1907.19 1057.51L1882.07 1043.01L1882.07 1014.01zM1882.07 1043.01L1907.19 1057.51L1907.19 1086.51L1882.07 1101.01L1856.96 1086.51L1856.96 1057.51zM1957.42 42.51L1982.54 57.01L1982.54 86.01L1957.42 100.51L1932.3 86.01L1932.3 57.01zM1932.3 695.01L1957.42 709.51L1957.42 738.51L1932.3 753.01L1907.19 738.51L1907.19 709.51zM1957.42 738.51L1982.54 753.01L1982.54 782.01L1957.42 796.51L1932.3 782.01L1932.3 753.01z" stroke="#03305d" stroke-width="2"></path><path d="M20.53 173.01 a3 3 0 1 0 6 0 a3 3 0 1 0 -6 0zM45.65 187.51 a3 3 0 1 0 6 0 a3 3 0 1 0 -6 0zM45.65 216.51 a3 3 0 1 0 6 0 a3 3 0 1 0 -6 0zM20.53 231.01 a3 3 0 1 0 6 0 a3 3 0 1 0 -6 0zM-4.59 216.51 a3 3 0 1 0 6 0 a3 3 0 1 0 -6 0zM-4.59 187.51 a3 3 0 1 0 6 0 a3 3 0 1 0 -6 0zM45.65 303.51 a3 3 0 1 0 6 0 a3 3 0 1 0 -6 0zM70.76 318.01 a3 3 0 1 0 6 0 a3 3 0 1 0 -6 0zM70.76 347.01 a3 3 0 1 0 6 0 a3 3 0 1 0 -6 0zM45.65 361.51 a3 3 0 1 0 6 0 a3 3 0 1 0 -6 0zM20.53 347.01 a3 3 0 1 0 6 0 a3 3 0 1 0 -6 0zM20.53 318.01 a3 3 0 1 0 6 0 a3 3 0 1 0 -6 0zM20.53 521.01 a3 3 0 1 0 6 0 a3 3 0 1 0 -6 0zM45.65 535.51 a3 3 0 1 0 6 0 a3 3 0 1 0 -6 0zM45.65 564.51 a3 3 0 1 0 6 0 a3 3 0 1 0 -6 0zM20.53 579.01 a3 3 0 1 0 6 0 a3 3 0 1 0 -6 0zM-4.59 564.51 a3 3 0 1 0 6 0 a3 3 0 1 0 -6 0zM-4.59 535.51 a3 3 0 1 0 6 0 a3 3 0 1 0 -6 0zM70.76 579.01 a3 3 0 1 0 6 0 a3 3 0 1 0 -6 0zM70.76 608.01 a3 3 0 1 0 6 0 a3 3 0 1 0 -6 0zM45.65 622.51 a3 3 0 1 0 6 0 a3 3 0 1 0 -6 0zM20.53 608.01 a3 3 0 1 0 6 0 a3 3 0 1 0 -6 0zM45.65 651.51 a3 3 0 1 0 6 0 a3 3 0 1 0 -6 0zM20.53 666.01 a3 3 0 1 0 6 0 a3 3 0 1 0 -6 0zM-4.59 651.51 a3 3 0 1 0 6 0 a3 3 0 1 0 -6 0zM-4.59 622.51 a3 3 0 1 0 6 0 a3 3 0 1 0 -6 0zM70.76 666.01 a3 3 0 1 0 6 0 a3 3 0 1 0 -6 0zM70.76 695.01 a3 3 0 1 0 6 0 a3 3 0 1 0 -6 0zM45.65 709.51 a3 3 0 1 0 6 0 a3 3 0 1 0 -6 0zM20.53 695.01 a3 3 0 1 0 6 0 a3 3 0 1 0 -6 0zM45.65 825.51 a3 3 0 1 0 6 0 a3 3 0 1 0 -6 0zM70.76 840.01 a3 3 0 1 0 6 0 a3 3 0 1 0 -6 0zM70.76 869.01 a3 3 0 1 0 6 0 a3 3 0 1 0 -6 0zM45.65 883.51 a3 3 0 1 0 6 0 a3 3 0 1 0 -6 0zM20.53 869.01 a3 3 0 1 0 6 0 a3 3 0 1 0 -6 0zM20.53 840.01 a3 3 0 1 0 6 0 a3 3 0 1 0 -6 0zM45.65 999.51 a3 3 0 1 0 6 0 a3 3 0 1 0 -6 0zM70.76 1014.01 a3 3 0 1 0 6 0 a3 3 0 1 0 -6 0zM70.76 1043.01 a3 3 0 1 0 6 0 a3 3 0 1 0 -6 0zM45.65 1057.51 a3 3 0 1 0 6 0 a3 3 0 1 0 -6 0zM20.53 1043.01 a3 3 0 1 0 6 0 a3 3 0 1 0 -6 0zM20.53 1014.01 a3 3 0 1 0 6 0 a3 3 0 1 0 -6 0zM95.88 42.51 a3 3 0 1 0 6 0 a3 3 0 1 0 -6 0zM120.99 57.01 a3 3 0 1 0 6 0 a3 3 0 1 0 -6 0zM120.99 86.01 a3 3 0 1 0 6 0 a3 3 0 1 0 -6 0zM95.88 100.51 a3 3 0 1 0 6 0 a3 3 0 1 0 -6 0zM70.76 86.01 a3 3 0 1 0 6 0 a3 3 0 1 0 -6 0zM70.76 57.01 a3 3 0 1 0 6 0 a3 3 0 1 0 -6 0zM95.88 129.51 a3 3 0 1 0 6 0 a3 3 0 1 0 -6 0zM70.76 144.01 a3 3 0 1 0 6 0 a3 3 0 1 0 -6 0zM45.65 129.51 a3 3 0 1 0 6 0 a3 3 0 1 0 -6 0zM45.65 100.51 a3 3 0 1 0 6 0 a3 3 0 1 0 -6 0zM70.76 434.01 a3 3 0 1 0 6 0 a3 3 0 1 0 -6 0zM95.88 448.51 a3 3 0 1 0 6 0 a3 3 0 1 0 -6 0zM95.88 477.51 a3 3 0 1 0 6 0 a3 3 0 1 0 -6 0zM70.76 492.01 a3 3 0 1 0 6 0 a3 3 0 1 0 -6 0zM45.65 477.51 a3 3 0 1 0 6 0 a3 3 0 1 0 -6 0zM45.65 448.51 a3 3 0 1 0 6 0 a3 3 0 1 0 -6 0zM120.99 492.01 a3 3 0 1 0 6 0 a3 3 0 1 0 -6 0zM120.99 521.01 a3 3 0 1 0 6 0 a3 3 0 1 0 -6 0zM95.88 535.51 a3 3 0 1 0 6 0 a3 3 0 1 0 -6 0zM70.76 521.01 a3 3 0 1 0 6 0 a3 3 0 1 0 -6 0zM120.99 -0.99 a3 3 0 1 0 6 0 a3 3 0 1 0 -6 0zM146.11 13.51 a3 3 0 1 0 6 0 a3 3 0 1 0 -6 0zM146.11 42.51 a3 3 0 1 0 6 0 a3 3 0 1 0 -6 0zM95.88 13.51 a3 3 0 1 0 6 0 a3 3 0 1 0 -6 0zM171.22 57.01 a3 3 0 1 0 6 0 a3 3 0 1 0 -6 0zM171.22 86.01 a3 3 0 1 0 6 0 a3 3 0 1 0 -6 0zM146.11 100.51 a3 3 0 1 0 6 0 a3 3 0 1 0 -6 0zM146.11 390.51 a3 3 0 1 0 6 0 a3 3 0 1 0 -6 0zM171.22 405.01 a3 3 0 1 0 6 0 a3 3 0 1 0 -6 0zM171.22 434.01 a3 3 0 1 0 6 0 a3 3 0 1 0 -6 0zM146.11 448.51 a3 3 0 1 0 6 0 a3 3 0 1 0 -6 0zM120.99 434.01 a3 3 0 1 0 6 0 a3 3 0 1 0 -6 0zM120.99 405.01 a3 3 0 1 0 6 0 a3 3 0 1 0 -6 0zM120.99 608.01 a3 3 0 1 0 6 0 a3 3 0 1 0 -6 0zM146.11 622.51 a3 3 0 1 0 6 0 a3 3 0 1 0 -6 0zM146.11 651.51 a3 3 0 1 0 6 0 a3 3 0 1 0 -6 0zM120.99 666.01 a3 3 0 1 0 6 0 a3 3 0 1 0 -6 0zM95.88 651.51 a3 3 0 1 0 6 0 a3 3 0 1 0 -6 0zM95.88 622.51 a3 3 0 1 0 6 0 a3 3 0 1 0 -6 0zM146.11 738.51 a3 3 0 1 0 6 0 a3 3 0 1 0 -6 0zM171.22 753.01 a3 3 0 1 0 6 0 a3 3 0 1 0 -6 0zM171.22 782.01 a3 3 0 1 0 6 0 a3 3 0 1 0 -6 0zM146.11 796.51 a3 3 0 1 0 6 0 a3 3 0 1 0 -6 0zM120.99 782.01 a3 3 0 1 0 6 0 a3 3 0 1 0 -6 0zM120.99 753.01 a3 3 0 1 0 6 0 a3 3 0 1 0 -6 0zM146.11 825.51 a3 3 0 1 0 6 0 a3 3 0 1 0 -6 0zM120.99 840.01 a3 3 0 1 0 6 0 a3 3 0 1 0 -6 0zM95.88 825.51 a3 3 0 1 0 6 0 a3 3 0 1 0 -6 0zM95.88 796.51 a3 3 0 1 0 6 0 a3 3 0 1 0 -6 0zM120.99 869.01 a3 3 0 1 0 6 0 a3 3 0 1 0 -6 0zM146.11 883.51 a3 3 0 1 0 6 0 a3 3 0 1 0 -6 0zM146.11 912.51 a3 3 0 1 0 6 0 a3 3 0 1 0 -6 0zM120.99 927.01 a3 3 0 1 0 6 0 a3 3 0 1 0 -6 0zM95.88 912.51 a3 3 0 1 0 6 0 a3 3 0 1 0 -6 0zM95.88 883.51 a3 3 0 1 0 6 0 a3 3 0 1 0 -6 0zM146.11 1086.51 a3 3 0 1 0 6 0 a3 3 0 1 0 -6 0zM171.22 1101.01 a3 3 0 1 0 6 0 a3 3 0 1 0 -6 0zM171.22 1130.01 a3 3 0 1 0 6 0 a3 3 0 1 0 -6 0zM146.11 1144.51 a3 3 0 1 0 6 0 a3 3 0 1 0 -6 0zM120.99 1130.01 a3 3 0 1 0 6 0 a3 3 0 1 0 -6 0zM120.99 1101.01 a3 3 0 1 0 6 0 a3 3 0 1 0 -6 0zM171.22 521.01 a3 3 0 1 0 6 0 a3 3 0 1 0 -6 0zM196.34 535.51 a3 3 0 1 0 6 0 a3 3 0 1 0 -6 0zM196.34 564.51 a3 3 0 1 0 6 0 a3 3 0 1 0 -6 0zM171.22 579.01 a3 3 0 1 0 6 0 a3 3 0 1 0 -6 0zM146.11 564.51 a3 3 0 1 0 6 0 a3 3 0 1 0 -6 0zM146.11 535.51 a3 3 0 1 0 6 0 a3 3 0 1 0 -6 0zM221.45 579.01 a3 3 0 1 0 6 0 a3 3 0 1 0 -6 0zM221.45 608.01 a3 3 0 1 0 6 0 a3 3 0 1 0 -6 0zM196.34 622.51 a3 3 0 1 0 6 0 a3 3 0 1 0 -6 0zM171.22 608.01 a3 3 0 1 0 6 0 a3 3 0 1 0 -6 0zM171.22 869.01 a3 3 0 1 0 6 0 a3 3 0 1 0 -6 0zM196.34 883.51 a3 3 0 1 0 6 0 a3 3 0 1 0 -6 0zM196.34 912.51 a3 3 0 1 0 6 0 a3 3 0 1 0 -6 0zM171.22 927.01 a3 3 0 1 0 6 0 a3 3 0 1 0 -6 0zM171.22 956.01 a3 3 0 1 0 6 0 a3 3 0 1 0 -6 0zM196.34 970.51 a3 3 0 1 0 6 0 a3 3 0 1 0 -6 0zM196.34 999.51 a3 3 0 1 0 6 0 a3 3 0 1 0 -6 0zM171.22 1014.01 a3 3 0 1 0 6 0 a3 3 0 1 0 -6 0zM146.11 999.51 a3 3 0 1 0 6 0 a3 3 0 1 0 -6 0zM146.11 970.51 a3 3 0 1 0 6 0 a3 3 0 1 0 -6 0zM171.22 1043.01 a3 3 0 1 0 6 0 a3 3 0 1 0 -6 0zM196.34 1057.51 a3 3 0 1 0 6 0 a3 3 0 1 0 -6 0zM196.34 1086.51 a3 3 0 1 0 6 0 a3 3 0 1 0 -6 0zM146.11 1057.51 a3 3 0 1 0 6 0 a3 3 0 1 0 -6 0zM221.45 1101.01 a3 3 0 1 0 6 0 a3 3 0 1 0 -6 0zM221.45 1130.01 a3 3 0 1 0 6 0 a3 3 0 1 0 -6 0zM196.34 1144.51 a3 3 0 1 0 6 0 a3 3 0 1 0 -6 0zM221.45 86.01 a3 3 0 1 0 6 0 a3 3 0 1 0 -6 0zM246.57 100.51 a3 3 0 1 0 6 0 a3 3 0 1 0 -6 0zM246.57 129.51 a3 3 0 1 0 6 0 a3 3 0 1 0 -6 0zM221.45 144.01 a3 3 0 1 0 6 0 a3 3 0 1 0 -6 0zM196.34 129.51 a3 3 0 1 0 6 0 a3 3 0 1 0 -6 0zM196.34 100.51 a3 3 0 1 0 6 0 a3 3 0 1 0 -6 0zM221.45 173.01 a3 3 0 1 0 6 0 a3 3 0 1 0 -6 0zM246.57 187.51 a3 3 0 1 0 6 0 a3 3 0 1 0 -6 0zM246.57 216.51 a3 3 0 1 0 6 0 a3 3 0 1 0 -6 0zM221.45 231.01 a3 3 0 1 0 6 0 a3 3 0 1 0 -6 0zM196.34 216.51 a3 3 0 1 0 6 0 a3 3 0 1 0 -6 0zM196.34 187.51 a3 3 0 1 0 6 0 a3 3 0 1 0 -6 0zM221.45 260.01 a3 3 0 1 0 6 0 a3 3 0 1 0 -6 0zM246.57 274.51 a3 3 0 1 0 6 0 a3 3 0 1 0 -6 0zM246.57 303.51 a3 3 0 1 0 6 0 a3 3 0 1 0 -6 0zM221.45 318.01 a3 3 0 1 0 6 0 a3 3 0 1 0 -6 0zM196.34 303.51 a3 3 0 1 0 6 0 a3 3 0 1 0 -6 0zM196.34 274.51 a3 3 0 1 0 6 0 a3 3 0 1 0 -6 0zM221.45 695.01 a3 3 0 1 0 6 0 a3 3 0 1 0 -6 0zM246.57 709.51 a3 3 0 1 0 6 0 a3 3 0 1 0 -6 0zM246.57 738.51 a3 3 0 1 0 6 0 a3 3 0 1 0 -6 0zM221.45 753.01 a3 3 0 1 0 6 0 a3 3 0 1 0 -6 0zM196.34 738.51 a3 3 0 1 0 6 0 a3 3 0 1 0 -6 0zM196.34 709.51 a3 3 0 1 0 6 0 a3 3 0 1 0 -6 0zM221.45 956.01 a3 3 0 1 0 6 0 a3 3 0 1 0 -6 0zM246.57 970.51 a3 3 0 1 0 6 0 a3 3 0 1 0 -6 0zM246.57 999.51 a3 3 0 1 0 6 0 a3 3 0 1 0 -6 0zM221.45 1014.01 a3 3 0 1 0 6 0 a3 3 0 1 0 -6 0zM271.68 86.01 a3 3 0 1 0 6 0 a3 3 0 1 0 -6 0zM296.8 100.51 a3 3 0 1 0 6 0 a3 3 0 1 0 -6 0zM296.8 129.51 a3 3 0 1 0 6 0 a3 3 0 1 0 -6 0zM271.68 144.01 a3 3 0 1 0 6 0 a3 3 0 1 0 -6 0zM271.68 260.01 a3 3 0 1 0 6 0 a3 3 0 1 0 -6 0zM296.8 274.51 a3 3 0 1 0 6 0 a3 3 0 1 0 -6 0zM296.8 303.51 a3 3 0 1 0 6 0 a3 3 0 1 0 -6 0zM271.68 318.01 a3 3 0 1 0 6 0 a3 3 0 1 0 -6 0zM296.8 390.51 a3 3 0 1 0 6 0 a3 3 0 1 0 -6 0zM321.92 405.01 a3 3 0 1 0 6 0 a3 3 0 1 0 -6 0zM321.92 434.01 a3 3 0 1 0 6 0 a3 3 0 1 0 -6 0zM296.8 448.51 a3 3 0 1 0 6 0 a3 3 0 1 0 -6 0zM271.68 434.01 a3 3 0 1 0 6 0 a3 3 0 1 0 -6 0zM271.68 405.01 a3 3 0 1 0 6 0 a3 3 0 1 0 -6 0zM296.8 477.51 a3 3 0 1 0 6 0 a3 3 0 1 0 -6 0zM321.92 492.01 a3 3 0 1 0 6 0 a3 3 0 1 0 -6 0zM321.92 521.01 a3 3 0 1 0 6 0 a3 3 0 1 0 -6 0zM296.8 535.51 a3 3 0 1 0 6 0 a3 3 0 1 0 -6 0zM271.68 521.01 a3 3 0 1 0 6 0 a3 3 0 1 0 -6 0zM271.68 492.01 a3 3 0 1 0 6 0 a3 3 0 1 0 -6 0zM296.8 564.51 a3 3 0 1 0 6 0 a3 3 0 1 0 -6 0zM321.92 579.01 a3 3 0 1 0 6 0 a3 3 0 1 0 -6 0zM321.92 608.01 a3 3 0 1 0 6 0 a3 3 0 1 0 -6 0zM296.8 622.51 a3 3 0 1 0 6 0 a3 3 0 1 0 -6 0zM271.68 608.01 a3 3 0 1 0 6 0 a3 3 0 1 0 -6 0zM271.68 579.01 a3 3 0 1 0 6 0 a3 3 0 1 0 -6 0zM296.8 651.51 a3 3 0 1 0 6 0 a3 3 0 1 0 -6 0zM271.68 666.01 a3 3 0 1 0 6 0 a3 3 0 1 0 -6 0zM246.57 651.51 a3 3 0 1 0 6 0 a3 3 0 1 0 -6 0zM246.57 622.51 a3 3 0 1 0 6 0 a3 3 0 1 0 -6 0zM271.68 695.01 a3 3 0 1 0 6 0 a3 3 0 1 0 -6 0zM296.8 709.51 a3 3 0 1 0 6 0 a3 3 0 1 0 -6 0zM296.8 738.51 a3 3 0 1 0 6 0 a3 3 0 1 0 -6 0zM271.68 753.01 a3 3 0 1 0 6 0 a3 3 0 1 0 -6 0zM296.8 825.51 a3 3 0 1 0 6 0 a3 3 0 1 0 -6 0zM321.92 840.01 a3 3 0 1 0 6 0 a3 3 0 1 0 -6 0zM321.92 869.01 a3 3 0 1 0 6 0 a3 3 0 1 0 -6 0zM296.8 883.51 a3 3 0 1 0 6 0 a3 3 0 1 0 -6 0zM271.68 869.01 a3 3 0 1 0 6 0 a3 3 0 1 0 -6 0zM271.68 840.01 a3 3 0 1 0 6 0 a3 3 0 1 0 -6 0zM271.68 1043.01 a3 3 0 1 0 6 0 a3 3 0 1 0 -6 0zM296.8 1057.51 a3 3 0 1 0 6 0 a3 3 0 1 0 -6 0zM296.8 1086.51 a3 3 0 1 0 6 0 a3 3 0 1 0 -6 0zM271.68 1101.01 a3 3 0 1 0 6 0 a3 3 0 1 0 -6 0zM246.57 1086.51 a3 3 0 1 0 6 0 a3 3 0 1 0 -6 0zM246.57 1057.51 a3 3 0 1 0 6 0 a3 3 0 1 0 -6 0zM347.03 42.51 a3 3 0 1 0 6 0 a3 3 0 1 0 -6 0zM372.15 57.01 a3 3 0 1 0 6 0 a3 3 0 1 0 -6 0zM372.15 86.01 a3 3 0 1 0 6 0 a3 3 0 1 0 -6 0zM347.03 100.51 a3 3 0 1 0 6 0 a3 3 0 1 0 -6 0zM321.92 86.01 a3 3 0 1 0 6 0 a3 3 0 1 0 -6 0zM321.92 57.01 a3 3 0 1 0 6 0 a3 3 0 1 0 -6 0zM321.92 260.01 a3 3 0 1 0 6 0 a3 3 0 1 0 -6 0zM347.03 274.51 a3 3 0 1 0 6 0 a3 3 0 1 0 -6 0zM347.03 303.51 a3 3 0 1 0 6 0 a3 3 0 1 0 -6 0zM321.92 318.01 a3 3 0 1 0 6 0 a3 3 0 1 0 -6 0zM321.92 695.01 a3 3 0 1 0 6 0 a3 3 0 1 0 -6 0zM347.03 709.51 a3 3 0 1 0 6 0 a3 3 0 1 0 -6 0zM347.03 738.51 a3 3 0 1 0 6 0 a3 3 0 1 0 -6 0zM321.92 753.01 a3 3 0 1 0 6 0 a3 3 0 1 0 -6 0zM347.03 912.51 a3 3 0 1 0 6 0 a3 3 0 1 0 -6 0zM372.15 927.01 a3 3 0 1 0 6 0 a3 3 0 1 0 -6 0zM372.15 956.01 a3 3 0 1 0 6 0 a3 3 0 1 0 -6 0zM347.03 970.51 a3 3 0 1 0 6 0 a3 3 0 1 0 -6 0zM321.92 956.01 a3 3 0 1 0 6 0 a3 3 0 1 0 -6 0zM321.92 927.01 a3 3 0 1 0 6 0 a3 3 0 1 0 -6 0zM321.92 1043.01 a3 3 0 1 0 6 0 a3 3 0 1 0 -6 0zM347.03 1057.51 a3 3 0 1 0 6 0 a3 3 0 1 0 -6 0zM347.03 1086.51 a3 3 0 1 0 6 0 a3 3 0 1 0 -6 0zM321.92 1101.01 a3 3 0 1 0 6 0 a3 3 0 1 0 -6 0zM372.15 1101.01 a3 3 0 1 0 6 0 a3 3 0 1 0 -6 0zM372.15 1130.01 a3 3 0 1 0 6 0 a3 3 0 1 0 -6 0zM347.03 1144.51 a3 3 0 1 0 6 0 a3 3 0 1 0 -6 0zM321.92 1130.01 a3 3 0 1 0 6 0 a3 3 0 1 0 -6 0zM397.26 100.51 a3 3 0 1 0 6 0 a3 3 0 1 0 -6 0zM397.26 129.51 a3 3 0 1 0 6 0 a3 3 0 1 0 -6 0zM372.15 144.01 a3 3 0 1 0 6 0 a3 3 0 1 0 -6 0zM347.03 129.51 a3 3 0 1 0 6 0 a3 3 0 1 0 -6 0zM372.15 608.01 a3 3 0 1 0 6 0 a3 3 0 1 0 -6 0zM397.26 622.51 a3 3 0 1 0 6 0 a3 3 0 1 0 -6 0zM397.26 651.51 a3 3 0 1 0 6 0 a3 3 0 1 0 -6 0zM372.15 666.01 a3 3 0 1 0 6 0 a3 3 0 1 0 -6 0zM347.03 651.51 a3 3 0 1 0 6 0 a3 3 0 1 0 -6 0zM347.03 622.51 a3 3 0 1 0 6 0 a3 3 0 1 0 -6 0zM422.38 666.01 a3 3 0 1 0 6 0 a3 3 0 1 0 -6 0zM422.38 695.01 a3 3 0 1 0 6 0 a3 3 0 1 0 -6 0zM397.26 709.51 a3 3 0 1 0 6 0 a3 3 0 1 0 -6 0zM372.15 695.01 a3 3 0 1 0 6 0 a3 3 0 1 0 -6 0zM372.15 869.01 a3 3 0 1 0 6 0 a3 3 0 1 0 -6 0zM397.26 883.51 a3 3 0 1 0 6 0 a3 3 0 1 0 -6 0zM397.26 912.51 a3 3 0 1 0 6 0 a3 3 0 1 0 -6 0zM347.03 883.51 a3 3 0 1 0 6 0 a3 3 0 1 0 -6 0zM397.26 970.51 a3 3 0 1 0 6 0 a3 3 0 1 0 -6 0zM397.26 999.51 a3 3 0 1 0 6 0 a3 3 0 1 0 -6 0zM372.15 1014.01 a3 3 0 1 0 6 0 a3 3 0 1 0 -6 0zM347.03 999.51 a3 3 0 1 0 6 0 a3 3 0 1 0 -6 0zM447.49 42.51 a3 3 0 1 0 6 0 a3 3 0 1 0 -6 0zM472.61 57.01 a3 3 0 1 0 6 0 a3 3 0 1 0 -6 0zM472.61 86.01 a3 3 0 1 0 6 0 a3 3 0 1 0 -6 0zM447.49 100.51 a3 3 0 1 0 6 0 a3 3 0 1 0 -6 0zM422.38 86.01 a3 3 0 1 0 6 0 a3 3 0 1 0 -6 0zM422.38 57.01 a3 3 0 1 0 6 0 a3 3 0 1 0 -6 0zM447.49 129.51 a3 3 0 1 0 6 0 a3 3 0 1 0 -6 0zM422.38 144.01 a3 3 0 1 0 6 0 a3 3 0 1 0 -6 0zM447.49 709.51 a3 3 0 1 0 6 0 a3 3 0 1 0 -6 0zM447.49 738.51 a3 3 0 1 0 6 0 a3 3 0 1 0 -6 0zM422.38 753.01 a3 3 0 1 0 6 0 a3 3 0 1 0 -6 0zM397.26 738.51 a3 3 0 1 0 6 0 a3 3 0 1 0 -6 0zM422.38 1043.01 a3 3 0 1 0 6 0 a3 3 0 1 0 -6 0zM447.49 1057.51 a3 3 0 1 0 6 0 a3 3 0 1 0 -6 0zM447.49 1086.51 a3 3 0 1 0 6 0 a3 3 0 1 0 -6 0zM422.38 1101.01 a3 3 0 1 0 6 0 a3 3 0 1 0 -6 0zM397.26 1086.51 a3 3 0 1 0 6 0 a3 3 0 1 0 -6 0zM397.26 1057.51 a3 3 0 1 0 6 0 a3 3 0 1 0 -6 0zM497.72 129.51 a3 3 0 1 0 6 0 a3 3 0 1 0 -6 0zM522.84 144.01 a3 3 0 1 0 6 0 a3 3 0 1 0 -6 0zM522.84 173.01 a3 3 0 1 0 6 0 a3 3 0 1 0 -6 0zM497.72 187.51 a3 3 0 1 0 6 0 a3 3 0 1 0 -6 0zM472.61 173.01 a3 3 0 1 0 6 0 a3 3 0 1 0 -6 0zM472.61 144.01 a3 3 0 1 0 6 0 a3 3 0 1 0 -6 0zM497.72 216.51 a3 3 0 1 0 6 0 a3 3 0 1 0 -6 0zM472.61 231.01 a3 3 0 1 0 6 0 a3 3 0 1 0 -6 0zM447.49 216.51 a3 3 0 1 0 6 0 a3 3 0 1 0 -6 0zM447.49 187.51 a3 3 0 1 0 6 0 a3 3 0 1 0 -6 0zM472.61 260.01 a3 3 0 1 0 6 0 a3 3 0 1 0 -6 0zM497.72 274.51 a3 3 0 1 0 6 0 a3 3 0 1 0 -6 0zM497.72 303.51 a3 3 0 1 0 6 0 a3 3 0 1 0 -6 0zM472.61 318.01 a3 3 0 1 0 6 0 a3 3 0 1 0 -6 0zM447.49 303.51 a3 3 0 1 0 6 0 a3 3 0 1 0 -6 0zM447.49 274.51 a3 3 0 1 0 6 0 a3 3 0 1 0 -6 0zM522.84 318.01 a3 3 0 1 0 6 0 a3 3 0 1 0 -6 0zM522.84 347.01 a3 3 0 1 0 6 0 a3 3 0 1 0 -6 0zM497.72 361.51 a3 3 0 1 0 6 0 a3 3 0 1 0 -6 0zM472.61 347.01 a3 3 0 1 0 6 0 a3 3 0 1 0 -6 0zM497.72 477.51 a3 3 0 1 0 6 0 a3 3 0 1 0 -6 0zM522.84 492.01 a3 3 0 1 0 6 0 a3 3 0 1 0 -6 0zM522.84 521.01 a3 3 0 1 0 6 0 a3 3 0 1 0 -6 0zM497.72 535.51 a3 3 0 1 0 6 0 a3 3 0 1 0 -6 0zM472.61 521.01 a3 3 0 1 0 6 0 a3 3 0 1 0 -6 0zM472.61 492.01 a3 3 0 1 0 6 0 a3 3 0 1 0 -6 0zM497.72 564.51 a3 3 0 1 0 6 0 a3 3 0 1 0 -6 0zM522.84 579.01 a3 3 0 1 0 6 0 a3 3 0 1 0 -6 0zM522.84 608.01 a3 3 0 1 0 6 0 a3 3 0 1 0 -6 0zM497.72 622.51 a3 3 0 1 0 6 0 a3 3 0 1 0 -6 0zM472.61 608.01 a3 3 0 1 0 6 0 a3 3 0 1 0 -6 0zM472.61 579.01 a3 3 0 1 0 6 0 a3 3 0 1 0 -6 0zM547.95 303.51 a3 3 0 1 0 6 0 a3 3 0 1 0 -6 0zM573.07 318.01 a3 3 0 1 0 6 0 a3 3 0 1 0 -6 0zM573.07 347.01 a3 3 0 1 0 6 0 a3 3 0 1 0 -6 0zM547.95 361.51 a3 3 0 1 0 6 0 a3 3 0 1 0 -6 0zM547.95 390.51 a3 3 0 1 0 6 0 a3 3 0 1 0 -6 0zM522.84 405.01 a3 3 0 1 0 6 0 a3 3 0 1 0 -6 0zM497.72 390.51 a3 3 0 1 0 6 0 a3 3 0 1 0 -6 0zM547.95 564.51 a3 3 0 1 0 6 0 a3 3 0 1 0 -6 0zM573.07 579.01 a3 3 0 1 0 6 0 a3 3 0 1 0 -6 0zM573.07 608.01 a3 3 0 1 0 6 0 a3 3 0 1 0 -6 0zM547.95 622.51 a3 3 0 1 0 6 0 a3 3 0 1 0 -6 0zM522.84 695.01 a3 3 0 1 0 6 0 a3 3 0 1 0 -6 0zM547.95 709.51 a3 3 0 1 0 6 0 a3 3 0 1 0 -6 0zM547.95 738.51 a3 3 0 1 0 6 0 a3 3 0 1 0 -6 0zM522.84 753.01 a3 3 0 1 0 6 0 a3 3 0 1 0 -6 0zM497.72 738.51 a3 3 0 1 0 6 0 a3 3 0 1 0 -6 0zM497.72 709.51 a3 3 0 1 0 6 0 a3 3 0 1 0 -6 0zM573.07 -0.99 a3 3 0 1 0 6 0 a3 3 0 1 0 -6 0zM598.19 13.51 a3 3 0 1 0 6 0 a3 3 0 1 0 -6 0zM598.19 42.51 a3 3 0 1 0 6 0 a3 3 0 1 0 -6 0zM573.07 57.01 a3 3 0 1 0 6 0 a3 3 0 1 0 -6 0zM547.95 42.51 a3 3 0 1 0 6 0 a3 3 0 1 0 -6 0zM547.95 13.51 a3 3 0 1 0 6 0 a3 3 0 1 0 -6 0zM598.19 477.51 a3 3 0 1 0 6 0 a3 3 0 1 0 -6 0zM623.3 492.01 a3 3 0 1 0 6 0 a3 3 0 1 0 -6 0zM623.3 521.01 a3 3 0 1 0 6 0 a3 3 0 1 0 -6 0zM598.19 535.51 a3 3 0 1 0 6 0 a3 3 0 1 0 -6 0zM573.07 521.01 a3 3 0 1 0 6 0 a3 3 0 1 0 -6 0zM573.07 492.01 a3 3 0 1 0 6 0 a3 3 0 1 0 -6 0zM598.19 564.51 a3 3 0 1 0 6 0 a3 3 0 1 0 -6 0zM547.95 535.51 a3 3 0 1 0 6 0 a3 3 0 1 0 -6 0zM598.19 651.51 a3 3 0 1 0 6 0 a3 3 0 1 0 -6 0zM623.3 666.01 a3 3 0 1 0 6 0 a3 3 0 1 0 -6 0zM623.3 695.01 a3 3 0 1 0 6 0 a3 3 0 1 0 -6 0zM598.19 709.51 a3 3 0 1 0 6 0 a3 3 0 1 0 -6 0zM573.07 695.01 a3 3 0 1 0 6 0 a3 3 0 1 0 -6 0zM573.07 666.01 a3 3 0 1 0 6 0 a3 3 0 1 0 -6 0zM573.07 1043.01 a3 3 0 1 0 6 0 a3 3 0 1 0 -6 0zM598.19 1057.51 a3 3 0 1 0 6 0 a3 3 0 1 0 -6 0zM598.19 1086.51 a3 3 0 1 0 6 0 a3 3 0 1 0 -6 0zM573.07 1101.01 a3 3 0 1 0 6 0 a3 3 0 1 0 -6 0zM547.95 1086.51 a3 3 0 1 0 6 0 a3 3 0 1 0 -6 0zM547.95 1057.51 a3 3 0 1 0 6 0 a3 3 0 1 0 -6 0zM648.42 42.51 a3 3 0 1 0 6 0 a3 3 0 1 0 -6 0zM673.53 57.01 a3 3 0 1 0 6 0 a3 3 0 1 0 -6 0zM673.53 86.01 a3 3 0 1 0 6 0 a3 3 0 1 0 -6 0zM648.42 100.51 a3 3 0 1 0 6 0 a3 3 0 1 0 -6 0zM623.3 86.01 a3 3 0 1 0 6 0 a3 3 0 1 0 -6 0zM623.3 57.01 a3 3 0 1 0 6 0 a3 3 0 1 0 -6 0zM648.42 129.51 a3 3 0 1 0 6 0 a3 3 0 1 0 -6 0zM673.53 144.01 a3 3 0 1 0 6 0 a3 3 0 1 0 -6 0zM673.53 173.01 a3 3 0 1 0 6 0 a3 3 0 1 0 -6 0zM648.42 187.51 a3 3 0 1 0 6 0 a3 3 0 1 0 -6 0zM623.3 173.01 a3 3 0 1 0 6 0 a3 3 0 1 0 -6 0zM623.3 144.01 a3 3 0 1 0 6 0 a3 3 0 1 0 -6 0zM648.42 216.51 a3 3 0 1 0 6 0 a3 3 0 1 0 -6 0zM623.3 231.01 a3 3 0 1 0 6 0 a3 3 0 1 0 -6 0zM598.19 216.51 a3 3 0 1 0 6 0 a3 3 0 1 0 -6 0zM598.19 187.51 a3 3 0 1 0 6 0 a3 3 0 1 0 -6 0zM623.3 347.01 a3 3 0 1 0 6 0 a3 3 0 1 0 -6 0zM648.42 361.51 a3 3 0 1 0 6 0 a3 3 0 1 0 -6 0zM648.42 390.51 a3 3 0 1 0 6 0 a3 3 0 1 0 -6 0zM623.3 405.01 a3 3 0 1 0 6 0 a3 3 0 1 0 -6 0zM598.19 390.51 a3 3 0 1 0 6 0 a3 3 0 1 0 -6 0zM598.19 361.51 a3 3 0 1 0 6 0 a3 3 0 1 0 -6 0zM648.42 477.51 a3 3 0 1 0 6 0 a3 3 0 1 0 -6 0zM673.53 492.01 a3 3 0 1 0 6 0 a3 3 0 1 0 -6 0zM673.53 521.01 a3 3 0 1 0 6 0 a3 3 0 1 0 -6 0zM648.42 535.51 a3 3 0 1 0 6 0 a3 3 0 1 0 -6 0zM648.42 564.51 a3 3 0 1 0 6 0 a3 3 0 1 0 -6 0zM623.3 579.01 a3 3 0 1 0 6 0 a3 3 0 1 0 -6 0zM648.42 825.51 a3 3 0 1 0 6 0 a3 3 0 1 0 -6 0zM673.53 840.01 a3 3 0 1 0 6 0 a3 3 0 1 0 -6 0zM673.53 869.01 a3 3 0 1 0 6 0 a3 3 0 1 0 -6 0zM648.42 883.51 a3 3 0 1 0 6 0 a3 3 0 1 0 -6 0zM623.3 869.01 a3 3 0 1 0 6 0 a3 3 0 1 0 -6 0zM623.3 840.01 a3 3 0 1 0 6 0 a3 3 0 1 0 -6 0zM648.42 912.51 a3 3 0 1 0 6 0 a3 3 0 1 0 -6 0zM673.53 927.01 a3 3 0 1 0 6 0 a3 3 0 1 0 -6 0zM673.53 956.01 a3 3 0 1 0 6 0 a3 3 0 1 0 -6 0zM648.42 970.51 a3 3 0 1 0 6 0 a3 3 0 1 0 -6 0zM623.3 956.01 a3 3 0 1 0 6 0 a3 3 0 1 0 -6 0zM623.3 927.01 a3 3 0 1 0 6 0 a3 3 0 1 0 -6 0zM648.42 999.51 a3 3 0 1 0 6 0 a3 3 0 1 0 -6 0zM673.53 1014.01 a3 3 0 1 0 6 0 a3 3 0 1 0 -6 0zM673.53 1043.01 a3 3 0 1 0 6 0 a3 3 0 1 0 -6 0zM648.42 1057.51 a3 3 0 1 0 6 0 a3 3 0 1 0 -6 0zM623.3 1043.01 a3 3 0 1 0 6 0 a3 3 0 1 0 -6 0zM623.3 1014.01 a3 3 0 1 0 6 0 a3 3 0 1 0 -6 0zM648.42 1086.51 a3 3 0 1 0 6 0 a3 3 0 1 0 -6 0zM673.53 1101.01 a3 3 0 1 0 6 0 a3 3 0 1 0 -6 0zM673.53 1130.01 a3 3 0 1 0 6 0 a3 3 0 1 0 -6 0zM648.42 1144.51 a3 3 0 1 0 6 0 a3 3 0 1 0 -6 0zM623.3 1130.01 a3 3 0 1 0 6 0 a3 3 0 1 0 -6 0zM623.3 1101.01 a3 3 0 1 0 6 0 a3 3 0 1 0 -6 0zM673.53 260.01 a3 3 0 1 0 6 0 a3 3 0 1 0 -6 0zM698.65 274.51 a3 3 0 1 0 6 0 a3 3 0 1 0 -6 0zM698.65 303.51 a3 3 0 1 0 6 0 a3 3 0 1 0 -6 0zM673.53 318.01 a3 3 0 1 0 6 0 a3 3 0 1 0 -6 0zM648.42 303.51 a3 3 0 1 0 6 0 a3 3 0 1 0 -6 0zM648.42 274.51 a3 3 0 1 0 6 0 a3 3 0 1 0 -6 0zM723.76 318.01 a3 3 0 1 0 6 0 a3 3 0 1 0 -6 0zM723.76 347.01 a3 3 0 1 0 6 0 a3 3 0 1 0 -6 0zM698.65 361.51 a3 3 0 1 0 6 0 a3 3 0 1 0 -6 0zM673.53 347.01 a3 3 0 1 0 6 0 a3 3 0 1 0 -6 0zM698.65 477.51 a3 3 0 1 0 6 0 a3 3 0 1 0 -6 0zM723.76 492.01 a3 3 0 1 0 6 0 a3 3 0 1 0 -6 0zM723.76 521.01 a3 3 0 1 0 6 0 a3 3 0 1 0 -6 0zM698.65 535.51 a3 3 0 1 0 6 0 a3 3 0 1 0 -6 0zM698.65 564.51 a3 3 0 1 0 6 0 a3 3 0 1 0 -6 0zM723.76 579.01 a3 3 0 1 0 6 0 a3 3 0 1 0 -6 0zM723.76 608.01 a3 3 0 1 0 6 0 a3 3 0 1 0 -6 0zM698.65 622.51 a3 3 0 1 0 6 0 a3 3 0 1 0 -6 0zM673.53 608.01 a3 3 0 1 0 6 0 a3 3 0 1 0 -6 0zM673.53 579.01 a3 3 0 1 0 6 0 a3 3 0 1 0 -6 0zM673.53 695.01 a3 3 0 1 0 6 0 a3 3 0 1 0 -6 0zM698.65 709.51 a3 3 0 1 0 6 0 a3 3 0 1 0 -6 0zM698.65 738.51 a3 3 0 1 0 6 0 a3 3 0 1 0 -6 0zM673.53 753.01 a3 3 0 1 0 6 0 a3 3 0 1 0 -6 0zM648.42 738.51 a3 3 0 1 0 6 0 a3 3 0 1 0 -6 0zM648.42 709.51 a3 3 0 1 0 6 0 a3 3 0 1 0 -6 0zM748.88 129.51 a3 3 0 1 0 6 0 a3 3 0 1 0 -6 0zM773.99 144.01 a3 3 0 1 0 6 0 a3 3 0 1 0 -6 0zM773.99 173.01 a3 3 0 1 0 6 0 a3 3 0 1 0 -6 0zM748.88 187.51 a3 3 0 1 0 6 0 a3 3 0 1 0 -6 0zM723.76 173.01 a3 3 0 1 0 6 0 a3 3 0 1 0 -6 0zM723.76 144.01 a3 3 0 1 0 6 0 a3 3 0 1 0 -6 0zM748.88 361.51 a3 3 0 1 0 6 0 a3 3 0 1 0 -6 0zM748.88 390.51 a3 3 0 1 0 6 0 a3 3 0 1 0 -6 0zM723.76 405.01 a3 3 0 1 0 6 0 a3 3 0 1 0 -6 0zM698.65 390.51 a3 3 0 1 0 6 0 a3 3 0 1 0 -6 0zM748.88 477.51 a3 3 0 1 0 6 0 a3 3 0 1 0 -6 0zM773.99 492.01 a3 3 0 1 0 6 0 a3 3 0 1 0 -6 0zM773.99 521.01 a3 3 0 1 0 6 0 a3 3 0 1 0 -6 0zM748.88 535.51 a3 3 0 1 0 6 0 a3 3 0 1 0 -6 0zM748.88 564.51 a3 3 0 1 0 6 0 a3 3 0 1 0 -6 0zM748.88 622.51 a3 3 0 1 0 6 0 a3 3 0 1 0 -6 0zM748.88 651.51 a3 3 0 1 0 6 0 a3 3 0 1 0 -6 0zM723.76 666.01 a3 3 0 1 0 6 0 a3 3 0 1 0 -6 0zM698.65 651.51 a3 3 0 1 0 6 0 a3 3 0 1 0 -6 0zM799.11 42.51 a3 3 0 1 0 6 0 a3 3 0 1 0 -6 0zM824.22 57.01 a3 3 0 1 0 6 0 a3 3 0 1 0 -6 0zM824.22 86.01 a3 3 0 1 0 6 0 a3 3 0 1 0 -6 0zM799.11 100.51 a3 3 0 1 0 6 0 a3 3 0 1 0 -6 0zM773.99 86.01 a3 3 0 1 0 6 0 a3 3 0 1 0 -6 0zM773.99 57.01 a3 3 0 1 0 6 0 a3 3 0 1 0 -6 0zM773.99 608.01 a3 3 0 1 0 6 0 a3 3 0 1 0 -6 0zM799.11 622.51 a3 3 0 1 0 6 0 a3 3 0 1 0 -6 0zM799.11 651.51 a3 3 0 1 0 6 0 a3 3 0 1 0 -6 0zM773.99 666.01 a3 3 0 1 0 6 0 a3 3 0 1 0 -6 0zM849.34 42.51 a3 3 0 1 0 6 0 a3 3 0 1 0 -6 0zM874.46 57.01 a3 3 0 1 0 6 0 a3 3 0 1 0 -6 0zM874.46 86.01 a3 3 0 1 0 6 0 a3 3 0 1 0 -6 0zM849.34 100.51 a3 3 0 1 0 6 0 a3 3 0 1 0 -6 0zM849.34 129.51 a3 3 0 1 0 6 0 a3 3 0 1 0 -6 0zM824.22 144.01 a3 3 0 1 0 6 0 a3 3 0 1 0 -6 0zM799.11 129.51 a3 3 0 1 0 6 0 a3 3 0 1 0 -6 0zM849.34 390.51 a3 3 0 1 0 6 0 a3 3 0 1 0 -6 0zM874.46 405.01 a3 3 0 1 0 6 0 a3 3 0 1 0 -6 0zM874.46 434.01 a3 3 0 1 0 6 0 a3 3 0 1 0 -6 0zM849.34 448.51 a3 3 0 1 0 6 0 a3 3 0 1 0 -6 0zM824.22 434.01 a3 3 0 1 0 6 0 a3 3 0 1 0 -6 0zM824.22 405.01 a3 3 0 1 0 6 0 a3 3 0 1 0 -6 0zM824.22 521.01 a3 3 0 1 0 6 0 a3 3 0 1 0 -6 0zM849.34 535.51 a3 3 0 1 0 6 0 a3 3 0 1 0 -6 0zM849.34 564.51 a3 3 0 1 0 6 0 a3 3 0 1 0 -6 0zM824.22 579.01 a3 3 0 1 0 6 0 a3 3 0 1 0 -6 0zM799.11 564.51 a3 3 0 1 0 6 0 a3 3 0 1 0 -6 0zM799.11 535.51 a3 3 0 1 0 6 0 a3 3 0 1 0 -6 0zM824.22 608.01 a3 3 0 1 0 6 0 a3 3 0 1 0 -6 0zM849.34 622.51 a3 3 0 1 0 6 0 a3 3 0 1 0 -6 0zM849.34 651.51 a3 3 0 1 0 6 0 a3 3 0 1 0 -6 0zM824.22 666.01 a3 3 0 1 0 6 0 a3 3 0 1 0 -6 0zM824.22 782.01 a3 3 0 1 0 6 0 a3 3 0 1 0 -6 0zM849.34 796.51 a3 3 0 1 0 6 0 a3 3 0 1 0 -6 0zM849.34 825.51 a3 3 0 1 0 6 0 a3 3 0 1 0 -6 0zM824.22 840.01 a3 3 0 1 0 6 0 a3 3 0 1 0 -6 0zM799.11 825.51 a3 3 0 1 0 6 0 a3 3 0 1 0 -6 0zM799.11 796.51 a3 3 0 1 0 6 0 a3 3 0 1 0 -6 0zM849.34 1086.51 a3 3 0 1 0 6 0 a3 3 0 1 0 -6 0zM874.46 1101.01 a3 3 0 1 0 6 0 a3 3 0 1 0 -6 0zM874.46 1130.01 a3 3 0 1 0 6 0 a3 3 0 1 0 -6 0zM849.34 1144.51 a3 3 0 1 0 6 0 a3 3 0 1 0 -6 0zM824.22 1130.01 a3 3 0 1 0 6 0 a3 3 0 1 0 -6 0zM824.22 1101.01 a3 3 0 1 0 6 0 a3 3 0 1 0 -6 0zM899.57 100.51 a3 3 0 1 0 6 0 a3 3 0 1 0 -6 0zM899.57 129.51 a3 3 0 1 0 6 0 a3 3 0 1 0 -6 0zM874.46 144.01 a3 3 0 1 0 6 0 a3 3 0 1 0 -6 0zM899.57 390.51 a3 3 0 1 0 6 0 a3 3 0 1 0 -6 0zM924.69 405.01 a3 3 0 1 0 6 0 a3 3 0 1 0 -6 0zM924.69 434.01 a3 3 0 1 0 6 0 a3 3 0 1 0 -6 0zM899.57 448.51 a3 3 0 1 0 6 0 a3 3 0 1 0 -6 0zM899.57 477.51 a3 3 0 1 0 6 0 a3 3 0 1 0 -6 0zM924.69 492.01 a3 3 0 1 0 6 0 a3 3 0 1 0 -6 0zM924.69 521.01 a3 3 0 1 0 6 0 a3 3 0 1 0 -6 0zM899.57 535.51 a3 3 0 1 0 6 0 a3 3 0 1 0 -6 0zM874.46 521.01 a3 3 0 1 0 6 0 a3 3 0 1 0 -6 0zM874.46 492.01 a3 3 0 1 0 6 0 a3 3 0 1 0 -6 0zM874.46 869.01 a3 3 0 1 0 6 0 a3 3 0 1 0 -6 0zM899.57 883.51 a3 3 0 1 0 6 0 a3 3 0 1 0 -6 0zM899.57 912.51 a3 3 0 1 0 6 0 a3 3 0 1 0 -6 0zM874.46 927.01 a3 3 0 1 0 6 0 a3 3 0 1 0 -6 0zM849.34 912.51 a3 3 0 1 0 6 0 a3 3 0 1 0 -6 0zM849.34 883.51 a3 3 0 1 0 6 0 a3 3 0 1 0 -6 0zM924.69 927.01 a3 3 0 1 0 6 0 a3 3 0 1 0 -6 0zM924.69 956.01 a3 3 0 1 0 6 0 a3 3 0 1 0 -6 0zM899.57 970.51 a3 3 0 1 0 6 0 a3 3 0 1 0 -6 0zM874.46 956.01 a3 3 0 1 0 6 0 a3 3 0 1 0 -6 0zM899.57 999.51 a3 3 0 1 0 6 0 a3 3 0 1 0 -6 0zM874.46 1014.01 a3 3 0 1 0 6 0 a3 3 0 1 0 -6 0zM849.34 999.51 a3 3 0 1 0 6 0 a3 3 0 1 0 -6 0zM849.34 970.51 a3 3 0 1 0 6 0 a3 3 0 1 0 -6 0zM899.57 1086.51 a3 3 0 1 0 6 0 a3 3 0 1 0 -6 0zM924.69 1101.01 a3 3 0 1 0 6 0 a3 3 0 1 0 -6 0zM924.69 1130.01 a3 3 0 1 0 6 0 a3 3 0 1 0 -6 0zM899.57 1144.51 a3 3 0 1 0 6 0 a3 3 0 1 0 -6 0zM924.69 -0.99 a3 3 0 1 0 6 0 a3 3 0 1 0 -6 0zM949.8 13.51 a3 3 0 1 0 6 0 a3 3 0 1 0 -6 0zM949.8 42.51 a3 3 0 1 0 6 0 a3 3 0 1 0 -6 0zM924.69 57.01 a3 3 0 1 0 6 0 a3 3 0 1 0 -6 0zM899.57 42.51 a3 3 0 1 0 6 0 a3 3 0 1 0 -6 0zM899.57 13.51 a3 3 0 1 0 6 0 a3 3 0 1 0 -6 0zM924.69 86.01 a3 3 0 1 0 6 0 a3 3 0 1 0 -6 0zM949.8 100.51 a3 3 0 1 0 6 0 a3 3 0 1 0 -6 0zM949.8 129.51 a3 3 0 1 0 6 0 a3 3 0 1 0 -6 0zM924.69 144.01 a3 3 0 1 0 6 0 a3 3 0 1 0 -6 0zM924.69 173.01 a3 3 0 1 0 6 0 a3 3 0 1 0 -6 0zM949.8 187.51 a3 3 0 1 0 6 0 a3 3 0 1 0 -6 0zM949.8 216.51 a3 3 0 1 0 6 0 a3 3 0 1 0 -6 0zM924.69 231.01 a3 3 0 1 0 6 0 a3 3 0 1 0 -6 0zM899.57 216.51 a3 3 0 1 0 6 0 a3 3 0 1 0 -6 0zM899.57 187.51 a3 3 0 1 0 6 0 a3 3 0 1 0 -6 0zM974.92 231.01 a3 3 0 1 0 6 0 a3 3 0 1 0 -6 0zM974.92 260.01 a3 3 0 1 0 6 0 a3 3 0 1 0 -6 0zM949.8 274.51 a3 3 0 1 0 6 0 a3 3 0 1 0 -6 0zM924.69 260.01 a3 3 0 1 0 6 0 a3 3 0 1 0 -6 0zM1000.03 390.51 a3 3 0 1 0 6 0 a3 3 0 1 0 -6 0zM1025.15 405.01 a3 3 0 1 0 6 0 a3 3 0 1 0 -6 0zM1025.15 434.01 a3 3 0 1 0 6 0 a3 3 0 1 0 -6 0zM1000.03 448.51 a3 3 0 1 0 6 0 a3 3 0 1 0 -6 0zM974.92 434.01 a3 3 0 1 0 6 0 a3 3 0 1 0 -6 0zM974.92 405.01 a3 3 0 1 0 6 0 a3 3 0 1 0 -6 0zM974.92 521.01 a3 3 0 1 0 6 0 a3 3 0 1 0 -6 0zM1000.03 535.51 a3 3 0 1 0 6 0 a3 3 0 1 0 -6 0zM1000.03 564.51 a3 3 0 1 0 6 0 a3 3 0 1 0 -6 0zM974.92 579.01 a3 3 0 1 0 6 0 a3 3 0 1 0 -6 0zM949.8 564.51 a3 3 0 1 0 6 0 a3 3 0 1 0 -6 0zM949.8 535.51 a3 3 0 1 0 6 0 a3 3 0 1 0 -6 0zM1025.15 579.01 a3 3 0 1 0 6 0 a3 3 0 1 0 -6 0zM1025.15 608.01 a3 3 0 1 0 6 0 a3 3 0 1 0 -6 0zM1000.03 622.51 a3 3 0 1 0 6 0 a3 3 0 1 0 -6 0zM974.92 608.01 a3 3 0 1 0 6 0 a3 3 0 1 0 -6 0zM1000.03 651.51 a3 3 0 1 0 6 0 a3 3 0 1 0 -6 0zM974.92 666.01 a3 3 0 1 0 6 0 a3 3 0 1 0 -6 0zM949.8 651.51 a3 3 0 1 0 6 0 a3 3 0 1 0 -6 0zM949.8 622.51 a3 3 0 1 0 6 0 a3 3 0 1 0 -6 0zM974.92 869.01 a3 3 0 1 0 6 0 a3 3 0 1 0 -6 0zM1000.03 883.51 a3 3 0 1 0 6 0 a3 3 0 1 0 -6 0zM1000.03 912.51 a3 3 0 1 0 6 0 a3 3 0 1 0 -6 0zM974.92 927.01 a3 3 0 1 0 6 0 a3 3 0 1 0 -6 0zM949.8 912.51 a3 3 0 1 0 6 0 a3 3 0 1 0 -6 0zM949.8 883.51 a3 3 0 1 0 6 0 a3 3 0 1 0 -6 0zM1050.26 129.51 a3 3 0 1 0 6 0 a3 3 0 1 0 -6 0zM1075.38 144.01 a3 3 0 1 0 6 0 a3 3 0 1 0 -6 0zM1075.38 173.01 a3 3 0 1 0 6 0 a3 3 0 1 0 -6 0zM1050.26 187.51 a3 3 0 1 0 6 0 a3 3 0 1 0 -6 0zM1025.15 173.01 a3 3 0 1 0 6 0 a3 3 0 1 0 -6 0zM1025.15 144.01 a3 3 0 1 0 6 0 a3 3 0 1 0 -6 0zM1050.26 303.51 a3 3 0 1 0 6 0 a3 3 0 1 0 -6 0zM1075.38 318.01 a3 3 0 1 0 6 0 a3 3 0 1 0 -6 0zM1075.38 347.01 a3 3 0 1 0 6 0 a3 3 0 1 0 -6 0zM1050.26 361.51 a3 3 0 1 0 6 0 a3 3 0 1 0 -6 0zM1025.15 347.01 a3 3 0 1 0 6 0 a3 3 0 1 0 -6 0zM1025.15 318.01 a3 3 0 1 0 6 0 a3 3 0 1 0 -6 0zM1050.26 564.51 a3 3 0 1 0 6 0 a3 3 0 1 0 -6 0zM1075.38 579.01 a3 3 0 1 0 6 0 a3 3 0 1 0 -6 0zM1075.38 608.01 a3 3 0 1 0 6 0 a3 3 0 1 0 -6 0zM1050.26 622.51 a3 3 0 1 0 6 0 a3 3 0 1 0 -6 0zM1025.15 782.01 a3 3 0 1 0 6 0 a3 3 0 1 0 -6 0zM1050.26 796.51 a3 3 0 1 0 6 0 a3 3 0 1 0 -6 0zM1050.26 825.51 a3 3 0 1 0 6 0 a3 3 0 1 0 -6 0zM1025.15 840.01 a3 3 0 1 0 6 0 a3 3 0 1 0 -6 0zM1000.03 825.51 a3 3 0 1 0 6 0 a3 3 0 1 0 -6 0zM1000.03 796.51 a3 3 0 1 0 6 0 a3 3 0 1 0 -6 0zM1025.15 956.01 a3 3 0 1 0 6 0 a3 3 0 1 0 -6 0zM1050.26 970.51 a3 3 0 1 0 6 0 a3 3 0 1 0 -6 0zM1050.26 999.51 a3 3 0 1 0 6 0 a3 3 0 1 0 -6 0zM1025.15 1014.01 a3 3 0 1 0 6 0 a3 3 0 1 0 -6 0zM1000.03 999.51 a3 3 0 1 0 6 0 a3 3 0 1 0 -6 0zM1000.03 970.51 a3 3 0 1 0 6 0 a3 3 0 1 0 -6 0zM1100.49 622.51 a3 3 0 1 0 6 0 a3 3 0 1 0 -6 0zM1100.49 651.51 a3 3 0 1 0 6 0 a3 3 0 1 0 -6 0zM1075.38 666.01 a3 3 0 1 0 6 0 a3 3 0 1 0 -6 0zM1050.26 651.51 a3 3 0 1 0 6 0 a3 3 0 1 0 -6 0zM1125.61 666.01 a3 3 0 1 0 6 0 a3 3 0 1 0 -6 0zM1125.61 695.01 a3 3 0 1 0 6 0 a3 3 0 1 0 -6 0zM1100.49 709.51 a3 3 0 1 0 6 0 a3 3 0 1 0 -6 0zM1075.38 695.01 a3 3 0 1 0 6 0 a3 3 0 1 0 -6 0zM1100.49 738.51 a3 3 0 1 0 6 0 a3 3 0 1 0 -6 0zM1125.61 753.01 a3 3 0 1 0 6 0 a3 3 0 1 0 -6 0zM1125.61 782.01 a3 3 0 1 0 6 0 a3 3 0 1 0 -6 0zM1100.49 796.51 a3 3 0 1 0 6 0 a3 3 0 1 0 -6 0zM1075.38 782.01 a3 3 0 1 0 6 0 a3 3 0 1 0 -6 0zM1075.38 753.01 a3 3 0 1 0 6 0 a3 3 0 1 0 -6 0zM1100.49 999.51 a3 3 0 1 0 6 0 a3 3 0 1 0 -6 0zM1125.61 1014.01 a3 3 0 1 0 6 0 a3 3 0 1 0 -6 0zM1125.61 1043.01 a3 3 0 1 0 6 0 a3 3 0 1 0 -6 0zM1100.49 1057.51 a3 3 0 1 0 6 0 a3 3 0 1 0 -6 0zM1075.38 1043.01 a3 3 0 1 0 6 0 a3 3 0 1 0 -6 0zM1075.38 1014.01 a3 3 0 1 0 6 0 a3 3 0 1 0 -6 0zM1100.49 1086.51 a3 3 0 1 0 6 0 a3 3 0 1 0 -6 0zM1125.61 1101.01 a3 3 0 1 0 6 0 a3 3 0 1 0 -6 0zM1125.61 1130.01 a3 3 0 1 0 6 0 a3 3 0 1 0 -6 0zM1100.49 1144.51 a3 3 0 1 0 6 0 a3 3 0 1 0 -6 0zM1075.38 1130.01 a3 3 0 1 0 6 0 a3 3 0 1 0 -6 0zM1075.38 1101.01 a3 3 0 1 0 6 0 a3 3 0 1 0 -6 0zM1125.61 173.01 a3 3 0 1 0 6 0 a3 3 0 1 0 -6 0zM1150.73 187.51 a3 3 0 1 0 6 0 a3 3 0 1 0 -6 0zM1150.73 216.51 a3 3 0 1 0 6 0 a3 3 0 1 0 -6 0zM1125.61 231.01 a3 3 0 1 0 6 0 a3 3 0 1 0 -6 0zM1100.49 216.51 a3 3 0 1 0 6 0 a3 3 0 1 0 -6 0zM1100.49 187.51 a3 3 0 1 0 6 0 a3 3 0 1 0 -6 0zM1150.73 303.51 a3 3 0 1 0 6 0 a3 3 0 1 0 -6 0zM1175.84 318.01 a3 3 0 1 0 6 0 a3 3 0 1 0 -6 0zM1175.84 347.01 a3 3 0 1 0 6 0 a3 3 0 1 0 -6 0zM1150.73 361.51 a3 3 0 1 0 6 0 a3 3 0 1 0 -6 0zM1125.61 347.01 a3 3 0 1 0 6 0 a3 3 0 1 0 -6 0zM1125.61 318.01 a3 3 0 1 0 6 0 a3 3 0 1 0 -6 0zM1150.73 390.51 a3 3 0 1 0 6 0 a3 3 0 1 0 -6 0zM1125.61 405.01 a3 3 0 1 0 6 0 a3 3 0 1 0 -6 0zM1100.49 390.51 a3 3 0 1 0 6 0 a3 3 0 1 0 -6 0zM1100.49 361.51 a3 3 0 1 0 6 0 a3 3 0 1 0 -6 0zM1150.73 796.51 a3 3 0 1 0 6 0 a3 3 0 1 0 -6 0zM1150.73 825.51 a3 3 0 1 0 6 0 a3 3 0 1 0 -6 0zM1125.61 840.01 a3 3 0 1 0 6 0 a3 3 0 1 0 -6 0zM1100.49 825.51 a3 3 0 1 0 6 0 a3 3 0 1 0 -6 0zM1150.73 1057.51 a3 3 0 1 0 6 0 a3 3 0 1 0 -6 0zM1150.73 1086.51 a3 3 0 1 0 6 0 a3 3 0 1 0 -6 0zM1175.84 86.01 a3 3 0 1 0 6 0 a3 3 0 1 0 -6 0zM1200.96 100.51 a3 3 0 1 0 6 0 a3 3 0 1 0 -6 0zM1200.96 129.51 a3 3 0 1 0 6 0 a3 3 0 1 0 -6 0zM1175.84 144.01 a3 3 0 1 0 6 0 a3 3 0 1 0 -6 0zM1150.73 129.51 a3 3 0 1 0 6 0 a3 3 0 1 0 -6 0zM1150.73 100.51 a3 3 0 1 0 6 0 a3 3 0 1 0 -6 0zM1200.96 303.51 a3 3 0 1 0 6 0 a3 3 0 1 0 -6 0zM1226.07 318.01 a3 3 0 1 0 6 0 a3 3 0 1 0 -6 0zM1226.07 347.01 a3 3 0 1 0 6 0 a3 3 0 1 0 -6 0zM1200.96 361.51 a3 3 0 1 0 6 0 a3 3 0 1 0 -6 0zM1175.84 956.01 a3 3 0 1 0 6 0 a3 3 0 1 0 -6 0zM1200.96 970.51 a3 3 0 1 0 6 0 a3 3 0 1 0 -6 0zM1200.96 999.51 a3 3 0 1 0 6 0 a3 3 0 1 0 -6 0zM1175.84 1014.01 a3 3 0 1 0 6 0 a3 3 0 1 0 -6 0zM1150.73 999.51 a3 3 0 1 0 6 0 a3 3 0 1 0 -6 0zM1150.73 970.51 a3 3 0 1 0 6 0 a3 3 0 1 0 -6 0zM1175.84 1043.01 a3 3 0 1 0 6 0 a3 3 0 1 0 -6 0zM1200.96 1057.51 a3 3 0 1 0 6 0 a3 3 0 1 0 -6 0zM1200.96 1086.51 a3 3 0 1 0 6 0 a3 3 0 1 0 -6 0zM1175.84 1101.01 a3 3 0 1 0 6 0 a3 3 0 1 0 -6 0zM1226.07 -0.99 a3 3 0 1 0 6 0 a3 3 0 1 0 -6 0zM1251.19 13.51 a3 3 0 1 0 6 0 a3 3 0 1 0 -6 0zM1251.19 42.51 a3 3 0 1 0 6 0 a3 3 0 1 0 -6 0zM1226.07 57.01 a3 3 0 1 0 6 0 a3 3 0 1 0 -6 0zM1200.96 42.51 a3 3 0 1 0 6 0 a3 3 0 1 0 -6 0zM1200.96 13.51 a3 3 0 1 0 6 0 a3 3 0 1 0 -6 0zM1251.19 129.51 a3 3 0 1 0 6 0 a3 3 0 1 0 -6 0zM1276.3 144.01 a3 3 0 1 0 6 0 a3 3 0 1 0 -6 0zM1276.3 173.01 a3 3 0 1 0 6 0 a3 3 0 1 0 -6 0zM1251.19 187.51 a3 3 0 1 0 6 0 a3 3 0 1 0 -6 0zM1226.07 173.01 a3 3 0 1 0 6 0 a3 3 0 1 0 -6 0zM1226.07 144.01 a3 3 0 1 0 6 0 a3 3 0 1 0 -6 0zM1251.19 303.51 a3 3 0 1 0 6 0 a3 3 0 1 0 -6 0zM1276.3 318.01 a3 3 0 1 0 6 0 a3 3 0 1 0 -6 0zM1276.3 347.01 a3 3 0 1 0 6 0 a3 3 0 1 0 -6 0zM1251.19 361.51 a3 3 0 1 0 6 0 a3 3 0 1 0 -6 0zM1226.07 782.01 a3 3 0 1 0 6 0 a3 3 0 1 0 -6 0zM1251.19 796.51 a3 3 0 1 0 6 0 a3 3 0 1 0 -6 0zM1251.19 825.51 a3 3 0 1 0 6 0 a3 3 0 1 0 -6 0zM1226.07 840.01 a3 3 0 1 0 6 0 a3 3 0 1 0 -6 0zM1200.96 825.51 a3 3 0 1 0 6 0 a3 3 0 1 0 -6 0zM1200.96 796.51 a3 3 0 1 0 6 0 a3 3 0 1 0 -6 0zM1276.3 840.01 a3 3 0 1 0 6 0 a3 3 0 1 0 -6 0zM1276.3 869.01 a3 3 0 1 0 6 0 a3 3 0 1 0 -6 0zM1251.19 883.51 a3 3 0 1 0 6 0 a3 3 0 1 0 -6 0zM1226.07 869.01 a3 3 0 1 0 6 0 a3 3 0 1 0 -6 0zM1226.07 956.01 a3 3 0 1 0 6 0 a3 3 0 1 0 -6 0zM1251.19 970.51 a3 3 0 1 0 6 0 a3 3 0 1 0 -6 0zM1251.19 999.51 a3 3 0 1 0 6 0 a3 3 0 1 0 -6 0zM1226.07 1014.01 a3 3 0 1 0 6 0 a3 3 0 1 0 -6 0zM1301.42 361.51 a3 3 0 1 0 6 0 a3 3 0 1 0 -6 0zM1301.42 390.51 a3 3 0 1 0 6 0 a3 3 0 1 0 -6 0zM1276.3 405.01 a3 3 0 1 0 6 0 a3 3 0 1 0 -6 0zM1251.19 390.51 a3 3 0 1 0 6 0 a3 3 0 1 0 -6 0zM1301.42 477.51 a3 3 0 1 0 6 0 a3 3 0 1 0 -6 0zM1326.53 492.01 a3 3 0 1 0 6 0 a3 3 0 1 0 -6 0zM1326.53 521.01 a3 3 0 1 0 6 0 a3 3 0 1 0 -6 0zM1301.42 535.51 a3 3 0 1 0 6 0 a3 3 0 1 0 -6 0zM1276.3 521.01 a3 3 0 1 0 6 0 a3 3 0 1 0 -6 0zM1276.3 492.01 a3 3 0 1 0 6 0 a3 3 0 1 0 -6 0zM1301.42 564.51 a3 3 0 1 0 6 0 a3 3 0 1 0 -6 0zM1276.3 579.01 a3 3 0 1 0 6 0 a3 3 0 1 0 -6 0zM1251.19 564.51 a3 3 0 1 0 6 0 a3 3 0 1 0 -6 0zM1251.19 535.51 a3 3 0 1 0 6 0 a3 3 0 1 0 -6 0zM1276.3 608.01 a3 3 0 1 0 6 0 a3 3 0 1 0 -6 0zM1301.42 622.51 a3 3 0 1 0 6 0 a3 3 0 1 0 -6 0zM1301.42 651.51 a3 3 0 1 0 6 0 a3 3 0 1 0 -6 0zM1276.3 666.01 a3 3 0 1 0 6 0 a3 3 0 1 0 -6 0zM1251.19 651.51 a3 3 0 1 0 6 0 a3 3 0 1 0 -6 0zM1251.19 622.51 a3 3 0 1 0 6 0 a3 3 0 1 0 -6 0zM1351.65 216.51 a3 3 0 1 0 6 0 a3 3 0 1 0 -6 0zM1376.76 231.01 a3 3 0 1 0 6 0 a3 3 0 1 0 -6 0zM1376.76 260.01 a3 3 0 1 0 6 0 a3 3 0 1 0 -6 0zM1351.65 274.51 a3 3 0 1 0 6 0 a3 3 0 1 0 -6 0zM1326.53 260.01 a3 3 0 1 0 6 0 a3 3 0 1 0 -6 0zM1326.53 231.01 a3 3 0 1 0 6 0 a3 3 0 1 0 -6 0zM1326.53 434.01 a3 3 0 1 0 6 0 a3 3 0 1 0 -6 0zM1351.65 448.51 a3 3 0 1 0 6 0 a3 3 0 1 0 -6 0zM1351.65 477.51 a3 3 0 1 0 6 0 a3 3 0 1 0 -6 0zM1301.42 448.51 a3 3 0 1 0 6 0 a3 3 0 1 0 -6 0zM1351.65 912.51 a3 3 0 1 0 6 0 a3 3 0 1 0 -6 0zM1376.76 927.01 a3 3 0 1 0 6 0 a3 3 0 1 0 -6 0zM1376.76 956.01 a3 3 0 1 0 6 0 a3 3 0 1 0 -6 0zM1351.65 970.51 a3 3 0 1 0 6 0 a3 3 0 1 0 -6 0zM1326.53 956.01 a3 3 0 1 0 6 0 a3 3 0 1 0 -6 0zM1326.53 927.01 a3 3 0 1 0 6 0 a3 3 0 1 0 -6 0zM1376.76 695.01 a3 3 0 1 0 6 0 a3 3 0 1 0 -6 0zM1401.88 709.51 a3 3 0 1 0 6 0 a3 3 0 1 0 -6 0zM1401.88 738.51 a3 3 0 1 0 6 0 a3 3 0 1 0 -6 0zM1376.76 753.01 a3 3 0 1 0 6 0 a3 3 0 1 0 -6 0zM1351.65 738.51 a3 3 0 1 0 6 0 a3 3 0 1 0 -6 0zM1351.65 709.51 a3 3 0 1 0 6 0 a3 3 0 1 0 -6 0zM1401.88 912.51 a3 3 0 1 0 6 0 a3 3 0 1 0 -6 0zM1427 927.01 a3 3 0 1 0 6 0 a3 3 0 1 0 -6 0zM1427 956.01 a3 3 0 1 0 6 0 a3 3 0 1 0 -6 0zM1401.88 970.51 a3 3 0 1 0 6 0 a3 3 0 1 0 -6 0zM1401.88 1086.51 a3 3 0 1 0 6 0 a3 3 0 1 0 -6 0zM1427 1101.01 a3 3 0 1 0 6 0 a3 3 0 1 0 -6 0zM1427 1130.01 a3 3 0 1 0 6 0 a3 3 0 1 0 -6 0zM1401.88 1144.51 a3 3 0 1 0 6 0 a3 3 0 1 0 -6 0zM1376.76 1130.01 a3 3 0 1 0 6 0 a3 3 0 1 0 -6 0zM1376.76 1101.01 a3 3 0 1 0 6 0 a3 3 0 1 0 -6 0zM1452.11 303.51 a3 3 0 1 0 6 0 a3 3 0 1 0 -6 0zM1477.23 318.01 a3 3 0 1 0 6 0 a3 3 0 1 0 -6 0zM1477.23 347.01 a3 3 0 1 0 6 0 a3 3 0 1 0 -6 0zM1452.11 361.51 a3 3 0 1 0 6 0 a3 3 0 1 0 -6 0zM1427 347.01 a3 3 0 1 0 6 0 a3 3 0 1 0 -6 0zM1427 318.01 a3 3 0 1 0 6 0 a3 3 0 1 0 -6 0zM1452.11 390.51 a3 3 0 1 0 6 0 a3 3 0 1 0 -6 0zM1477.23 405.01 a3 3 0 1 0 6 0 a3 3 0 1 0 -6 0zM1477.23 434.01 a3 3 0 1 0 6 0 a3 3 0 1 0 -6 0zM1452.11 448.51 a3 3 0 1 0 6 0 a3 3 0 1 0 -6 0zM1427 434.01 a3 3 0 1 0 6 0 a3 3 0 1 0 -6 0zM1427 405.01 a3 3 0 1 0 6 0 a3 3 0 1 0 -6 0zM1427 608.01 a3 3 0 1 0 6 0 a3 3 0 1 0 -6 0zM1452.11 622.51 a3 3 0 1 0 6 0 a3 3 0 1 0 -6 0zM1452.11 651.51 a3 3 0 1 0 6 0 a3 3 0 1 0 -6 0zM1427 666.01 a3 3 0 1 0 6 0 a3 3 0 1 0 -6 0zM1401.88 651.51 a3 3 0 1 0 6 0 a3 3 0 1 0 -6 0zM1401.88 622.51 a3 3 0 1 0 6 0 a3 3 0 1 0 -6 0zM1427 782.01 a3 3 0 1 0 6 0 a3 3 0 1 0 -6 0zM1452.11 796.51 a3 3 0 1 0 6 0 a3 3 0 1 0 -6 0zM1452.11 825.51 a3 3 0 1 0 6 0 a3 3 0 1 0 -6 0zM1427 840.01 a3 3 0 1 0 6 0 a3 3 0 1 0 -6 0zM1401.88 825.51 a3 3 0 1 0 6 0 a3 3 0 1 0 -6 0zM1401.88 796.51 a3 3 0 1 0 6 0 a3 3 0 1 0 -6 0zM1452.11 912.51 a3 3 0 1 0 6 0 a3 3 0 1 0 -6 0zM1477.23 927.01 a3 3 0 1 0 6 0 a3 3 0 1 0 -6 0zM1477.23 956.01 a3 3 0 1 0 6 0 a3 3 0 1 0 -6 0zM1452.11 970.51 a3 3 0 1 0 6 0 a3 3 0 1 0 -6 0zM1502.34 42.51 a3 3 0 1 0 6 0 a3 3 0 1 0 -6 0zM1527.46 57.01 a3 3 0 1 0 6 0 a3 3 0 1 0 -6 0zM1527.46 86.01 a3 3 0 1 0 6 0 a3 3 0 1 0 -6 0zM1502.34 100.51 a3 3 0 1 0 6 0 a3 3 0 1 0 -6 0zM1477.23 86.01 a3 3 0 1 0 6 0 a3 3 0 1 0 -6 0zM1477.23 57.01 a3 3 0 1 0 6 0 a3 3 0 1 0 -6 0zM1502.34 216.51 a3 3 0 1 0 6 0 a3 3 0 1 0 -6 0zM1527.46 231.01 a3 3 0 1 0 6 0 a3 3 0 1 0 -6 0zM1527.46 260.01 a3 3 0 1 0 6 0 a3 3 0 1 0 -6 0zM1502.34 274.51 a3 3 0 1 0 6 0 a3 3 0 1 0 -6 0zM1477.23 260.01 a3 3 0 1 0 6 0 a3 3 0 1 0 -6 0zM1477.23 231.01 a3 3 0 1 0 6 0 a3 3 0 1 0 -6 0zM1502.34 651.51 a3 3 0 1 0 6 0 a3 3 0 1 0 -6 0zM1527.46 666.01 a3 3 0 1 0 6 0 a3 3 0 1 0 -6 0zM1527.46 695.01 a3 3 0 1 0 6 0 a3 3 0 1 0 -6 0zM1502.34 709.51 a3 3 0 1 0 6 0 a3 3 0 1 0 -6 0zM1477.23 695.01 a3 3 0 1 0 6 0 a3 3 0 1 0 -6 0zM1477.23 666.01 a3 3 0 1 0 6 0 a3 3 0 1 0 -6 0zM1502.34 738.51 a3 3 0 1 0 6 0 a3 3 0 1 0 -6 0zM1477.23 753.01 a3 3 0 1 0 6 0 a3 3 0 1 0 -6 0zM1452.11 738.51 a3 3 0 1 0 6 0 a3 3 0 1 0 -6 0zM1452.11 709.51 a3 3 0 1 0 6 0 a3 3 0 1 0 -6 0zM1477.23 1043.01 a3 3 0 1 0 6 0 a3 3 0 1 0 -6 0zM1502.34 1057.51 a3 3 0 1 0 6 0 a3 3 0 1 0 -6 0zM1502.34 1086.51 a3 3 0 1 0 6 0 a3 3 0 1 0 -6 0zM1477.23 1101.01 a3 3 0 1 0 6 0 a3 3 0 1 0 -6 0zM1452.11 1086.51 a3 3 0 1 0 6 0 a3 3 0 1 0 -6 0zM1452.11 1057.51 a3 3 0 1 0 6 0 a3 3 0 1 0 -6 0zM1552.57 100.51 a3 3 0 1 0 6 0 a3 3 0 1 0 -6 0zM1552.57 129.51 a3 3 0 1 0 6 0 a3 3 0 1 0 -6 0zM1527.46 144.01 a3 3 0 1 0 6 0 a3 3 0 1 0 -6 0zM1502.34 129.51 a3 3 0 1 0 6 0 a3 3 0 1 0 -6 0zM1552.57 274.51 a3 3 0 1 0 6 0 a3 3 0 1 0 -6 0zM1552.57 303.51 a3 3 0 1 0 6 0 a3 3 0 1 0 -6 0zM1527.46 318.01 a3 3 0 1 0 6 0 a3 3 0 1 0 -6 0zM1502.34 303.51 a3 3 0 1 0 6 0 a3 3 0 1 0 -6 0zM1577.69 318.01 a3 3 0 1 0 6 0 a3 3 0 1 0 -6 0zM1577.69 347.01 a3 3 0 1 0 6 0 a3 3 0 1 0 -6 0zM1552.57 361.51 a3 3 0 1 0 6 0 a3 3 0 1 0 -6 0zM1527.46 347.01 a3 3 0 1 0 6 0 a3 3 0 1 0 -6 0zM1527.46 521.01 a3 3 0 1 0 6 0 a3 3 0 1 0 -6 0zM1552.57 535.51 a3 3 0 1 0 6 0 a3 3 0 1 0 -6 0zM1552.57 564.51 a3 3 0 1 0 6 0 a3 3 0 1 0 -6 0zM1527.46 579.01 a3 3 0 1 0 6 0 a3 3 0 1 0 -6 0zM1502.34 564.51 a3 3 0 1 0 6 0 a3 3 0 1 0 -6 0zM1502.34 535.51 a3 3 0 1 0 6 0 a3 3 0 1 0 -6 0zM1552.57 912.51 a3 3 0 1 0 6 0 a3 3 0 1 0 -6 0zM1577.69 927.01 a3 3 0 1 0 6 0 a3 3 0 1 0 -6 0zM1577.69 956.01 a3 3 0 1 0 6 0 a3 3 0 1 0 -6 0zM1552.57 970.51 a3 3 0 1 0 6 0 a3 3 0 1 0 -6 0zM1527.46 956.01 a3 3 0 1 0 6 0 a3 3 0 1 0 -6 0zM1527.46 927.01 a3 3 0 1 0 6 0 a3 3 0 1 0 -6 0zM1577.69 -0.99 a3 3 0 1 0 6 0 a3 3 0 1 0 -6 0zM1602.8 13.51 a3 3 0 1 0 6 0 a3 3 0 1 0 -6 0zM1602.8 42.51 a3 3 0 1 0 6 0 a3 3 0 1 0 -6 0zM1577.69 57.01 a3 3 0 1 0 6 0 a3 3 0 1 0 -6 0zM1552.57 42.51 a3 3 0 1 0 6 0 a3 3 0 1 0 -6 0zM1552.57 13.51 a3 3 0 1 0 6 0 a3 3 0 1 0 -6 0zM1577.69 86.01 a3 3 0 1 0 6 0 a3 3 0 1 0 -6 0zM1602.8 100.51 a3 3 0 1 0 6 0 a3 3 0 1 0 -6 0zM1602.8 129.51 a3 3 0 1 0 6 0 a3 3 0 1 0 -6 0zM1577.69 144.01 a3 3 0 1 0 6 0 a3 3 0 1 0 -6 0zM1577.69 173.01 a3 3 0 1 0 6 0 a3 3 0 1 0 -6 0zM1602.8 187.51 a3 3 0 1 0 6 0 a3 3 0 1 0 -6 0zM1602.8 216.51 a3 3 0 1 0 6 0 a3 3 0 1 0 -6 0zM1577.69 231.01 a3 3 0 1 0 6 0 a3 3 0 1 0 -6 0zM1552.57 216.51 a3 3 0 1 0 6 0 a3 3 0 1 0 -6 0zM1552.57 187.51 a3 3 0 1 0 6 0 a3 3 0 1 0 -6 0zM1602.8 361.51 a3 3 0 1 0 6 0 a3 3 0 1 0 -6 0zM1602.8 390.51 a3 3 0 1 0 6 0 a3 3 0 1 0 -6 0zM1577.69 405.01 a3 3 0 1 0 6 0 a3 3 0 1 0 -6 0zM1552.57 390.51 a3 3 0 1 0 6 0 a3 3 0 1 0 -6 0zM1602.8 651.51 a3 3 0 1 0 6 0 a3 3 0 1 0 -6 0zM1627.92 666.01 a3 3 0 1 0 6 0 a3 3 0 1 0 -6 0zM1627.92 695.01 a3 3 0 1 0 6 0 a3 3 0 1 0 -6 0zM1602.8 709.51 a3 3 0 1 0 6 0 a3 3 0 1 0 -6 0zM1577.69 695.01 a3 3 0 1 0 6 0 a3 3 0 1 0 -6 0zM1577.69 666.01 a3 3 0 1 0 6 0 a3 3 0 1 0 -6 0zM1653.03 129.51 a3 3 0 1 0 6 0 a3 3 0 1 0 -6 0zM1678.15 144.01 a3 3 0 1 0 6 0 a3 3 0 1 0 -6 0zM1678.15 173.01 a3 3 0 1 0 6 0 a3 3 0 1 0 -6 0zM1653.03 187.51 a3 3 0 1 0 6 0 a3 3 0 1 0 -6 0zM1627.92 173.01 a3 3 0 1 0 6 0 a3 3 0 1 0 -6 0zM1627.92 144.01 a3 3 0 1 0 6 0 a3 3 0 1 0 -6 0zM1653.03 216.51 a3 3 0 1 0 6 0 a3 3 0 1 0 -6 0zM1627.92 231.01 a3 3 0 1 0 6 0 a3 3 0 1 0 -6 0zM1653.03 999.51 a3 3 0 1 0 6 0 a3 3 0 1 0 -6 0zM1678.15 1014.01 a3 3 0 1 0 6 0 a3 3 0 1 0 -6 0zM1678.15 1043.01 a3 3 0 1 0 6 0 a3 3 0 1 0 -6 0zM1653.03 1057.51 a3 3 0 1 0 6 0 a3 3 0 1 0 -6 0zM1627.92 1043.01 a3 3 0 1 0 6 0 a3 3 0 1 0 -6 0zM1627.92 1014.01 a3 3 0 1 0 6 0 a3 3 0 1 0 -6 0zM1653.03 1086.51 a3 3 0 1 0 6 0 a3 3 0 1 0 -6 0zM1678.15 1101.01 a3 3 0 1 0 6 0 a3 3 0 1 0 -6 0zM1678.15 1130.01 a3 3 0 1 0 6 0 a3 3 0 1 0 -6 0zM1653.03 1144.51 a3 3 0 1 0 6 0 a3 3 0 1 0 -6 0zM1627.92 1130.01 a3 3 0 1 0 6 0 a3 3 0 1 0 -6 0zM1627.92 1101.01 a3 3 0 1 0 6 0 a3 3 0 1 0 -6 0zM1678.15 -0.99 a3 3 0 1 0 6 0 a3 3 0 1 0 -6 0zM1703.27 13.51 a3 3 0 1 0 6 0 a3 3 0 1 0 -6 0zM1703.27 42.51 a3 3 0 1 0 6 0 a3 3 0 1 0 -6 0zM1678.15 57.01 a3 3 0 1 0 6 0 a3 3 0 1 0 -6 0zM1653.03 42.51 a3 3 0 1 0 6 0 a3 3 0 1 0 -6 0zM1653.03 13.51 a3 3 0 1 0 6 0 a3 3 0 1 0 -6 0zM1678.15 260.01 a3 3 0 1 0 6 0 a3 3 0 1 0 -6 0zM1703.27 274.51 a3 3 0 1 0 6 0 a3 3 0 1 0 -6 0zM1703.27 303.51 a3 3 0 1 0 6 0 a3 3 0 1 0 -6 0zM1678.15 318.01 a3 3 0 1 0 6 0 a3 3 0 1 0 -6 0zM1653.03 303.51 a3 3 0 1 0 6 0 a3 3 0 1 0 -6 0zM1653.03 274.51 a3 3 0 1 0 6 0 a3 3 0 1 0 -6 0zM1703.27 477.51 a3 3 0 1 0 6 0 a3 3 0 1 0 -6 0zM1728.38 492.01 a3 3 0 1 0 6 0 a3 3 0 1 0 -6 0zM1728.38 521.01 a3 3 0 1 0 6 0 a3 3 0 1 0 -6 0zM1703.27 535.51 a3 3 0 1 0 6 0 a3 3 0 1 0 -6 0zM1678.15 521.01 a3 3 0 1 0 6 0 a3 3 0 1 0 -6 0zM1678.15 492.01 a3 3 0 1 0 6 0 a3 3 0 1 0 -6 0zM1703.27 564.51 a3 3 0 1 0 6 0 a3 3 0 1 0 -6 0zM1678.15 579.01 a3 3 0 1 0 6 0 a3 3 0 1 0 -6 0zM1653.03 564.51 a3 3 0 1 0 6 0 a3 3 0 1 0 -6 0zM1653.03 535.51 a3 3 0 1 0 6 0 a3 3 0 1 0 -6 0zM1703.27 912.51 a3 3 0 1 0 6 0 a3 3 0 1 0 -6 0zM1728.38 927.01 a3 3 0 1 0 6 0 a3 3 0 1 0 -6 0zM1728.38 956.01 a3 3 0 1 0 6 0 a3 3 0 1 0 -6 0zM1703.27 970.51 a3 3 0 1 0 6 0 a3 3 0 1 0 -6 0zM1678.15 956.01 a3 3 0 1 0 6 0 a3 3 0 1 0 -6 0zM1678.15 927.01 a3 3 0 1 0 6 0 a3 3 0 1 0 -6 0zM1753.5 216.51 a3 3 0 1 0 6 0 a3 3 0 1 0 -6 0zM1778.61 231.01 a3 3 0 1 0 6 0 a3 3 0 1 0 -6 0zM1778.61 260.01 a3 3 0 1 0 6 0 a3 3 0 1 0 -6 0zM1753.5 274.51 a3 3 0 1 0 6 0 a3 3 0 1 0 -6 0zM1728.38 260.01 a3 3 0 1 0 6 0 a3 3 0 1 0 -6 0zM1728.38 231.01 a3 3 0 1 0 6 0 a3 3 0 1 0 -6 0zM1753.5 303.51 a3 3 0 1 0 6 0 a3 3 0 1 0 -6 0zM1778.61 318.01 a3 3 0 1 0 6 0 a3 3 0 1 0 -6 0zM1778.61 347.01 a3 3 0 1 0 6 0 a3 3 0 1 0 -6 0zM1753.5 361.51 a3 3 0 1 0 6 0 a3 3 0 1 0 -6 0zM1728.38 347.01 a3 3 0 1 0 6 0 a3 3 0 1 0 -6 0zM1728.38 318.01 a3 3 0 1 0 6 0 a3 3 0 1 0 -6 0zM1753.5 564.51 a3 3 0 1 0 6 0 a3 3 0 1 0 -6 0zM1778.61 579.01 a3 3 0 1 0 6 0 a3 3 0 1 0 -6 0zM1778.61 608.01 a3 3 0 1 0 6 0 a3 3 0 1 0 -6 0zM1753.5 622.51 a3 3 0 1 0 6 0 a3 3 0 1 0 -6 0zM1728.38 608.01 a3 3 0 1 0 6 0 a3 3 0 1 0 -6 0zM1728.38 579.01 a3 3 0 1 0 6 0 a3 3 0 1 0 -6 0zM1753.5 651.51 a3 3 0 1 0 6 0 a3 3 0 1 0 -6 0zM1778.61 666.01 a3 3 0 1 0 6 0 a3 3 0 1 0 -6 0zM1778.61 695.01 a3 3 0 1 0 6 0 a3 3 0 1 0 -6 0zM1753.5 709.51 a3 3 0 1 0 6 0 a3 3 0 1 0 -6 0zM1728.38 695.01 a3 3 0 1 0 6 0 a3 3 0 1 0 -6 0zM1728.38 666.01 a3 3 0 1 0 6 0 a3 3 0 1 0 -6 0zM1753.5 970.51 a3 3 0 1 0 6 0 a3 3 0 1 0 -6 0zM1753.5 999.51 a3 3 0 1 0 6 0 a3 3 0 1 0 -6 0zM1728.38 1014.01 a3 3 0 1 0 6 0 a3 3 0 1 0 -6 0zM1703.27 999.51 a3 3 0 1 0 6 0 a3 3 0 1 0 -6 0zM1778.61 86.01 a3 3 0 1 0 6 0 a3 3 0 1 0 -6 0zM1803.73 100.51 a3 3 0 1 0 6 0 a3 3 0 1 0 -6 0zM1803.73 129.51 a3 3 0 1 0 6 0 a3 3 0 1 0 -6 0zM1778.61 144.01 a3 3 0 1 0 6 0 a3 3 0 1 0 -6 0zM1753.5 129.51 a3 3 0 1 0 6 0 a3 3 0 1 0 -6 0zM1753.5 100.51 a3 3 0 1 0 6 0 a3 3 0 1 0 -6 0zM1803.73 303.51 a3 3 0 1 0 6 0 a3 3 0 1 0 -6 0zM1828.84 318.01 a3 3 0 1 0 6 0 a3 3 0 1 0 -6 0zM1828.84 347.01 a3 3 0 1 0 6 0 a3 3 0 1 0 -6 0zM1803.73 361.51 a3 3 0 1 0 6 0 a3 3 0 1 0 -6 0zM1803.73 390.51 a3 3 0 1 0 6 0 a3 3 0 1 0 -6 0zM1828.84 405.01 a3 3 0 1 0 6 0 a3 3 0 1 0 -6 0zM1828.84 434.01 a3 3 0 1 0 6 0 a3 3 0 1 0 -6 0zM1803.73 448.51 a3 3 0 1 0 6 0 a3 3 0 1 0 -6 0zM1778.61 434.01 a3 3 0 1 0 6 0 a3 3 0 1 0 -6 0zM1778.61 405.01 a3 3 0 1 0 6 0 a3 3 0 1 0 -6 0zM1803.73 477.51 a3 3 0 1 0 6 0 a3 3 0 1 0 -6 0zM1778.61 492.01 a3 3 0 1 0 6 0 a3 3 0 1 0 -6 0zM1753.5 477.51 a3 3 0 1 0 6 0 a3 3 0 1 0 -6 0zM1753.5 448.51 a3 3 0 1 0 6 0 a3 3 0 1 0 -6 0zM1778.61 521.01 a3 3 0 1 0 6 0 a3 3 0 1 0 -6 0zM1803.73 535.51 a3 3 0 1 0 6 0 a3 3 0 1 0 -6 0zM1803.73 564.51 a3 3 0 1 0 6 0 a3 3 0 1 0 -6 0zM1753.5 535.51 a3 3 0 1 0 6 0 a3 3 0 1 0 -6 0zM1803.73 709.51 a3 3 0 1 0 6 0 a3 3 0 1 0 -6 0zM1803.73 738.51 a3 3 0 1 0 6 0 a3 3 0 1 0 -6 0zM1778.61 753.01 a3 3 0 1 0 6 0 a3 3 0 1 0 -6 0zM1753.5 738.51 a3 3 0 1 0 6 0 a3 3 0 1 0 -6 0zM1828.84 173.01 a3 3 0 1 0 6 0 a3 3 0 1 0 -6 0zM1853.96 187.51 a3 3 0 1 0 6 0 a3 3 0 1 0 -6 0zM1853.96 216.51 a3 3 0 1 0 6 0 a3 3 0 1 0 -6 0zM1828.84 231.01 a3 3 0 1 0 6 0 a3 3 0 1 0 -6 0zM1803.73 216.51 a3 3 0 1 0 6 0 a3 3 0 1 0 -6 0zM1803.73 187.51 a3 3 0 1 0 6 0 a3 3 0 1 0 -6 0zM1853.96 303.51 a3 3 0 1 0 6 0 a3 3 0 1 0 -6 0zM1879.07 318.01 a3 3 0 1 0 6 0 a3 3 0 1 0 -6 0zM1879.07 347.01 a3 3 0 1 0 6 0 a3 3 0 1 0 -6 0zM1853.96 361.51 a3 3 0 1 0 6 0 a3 3 0 1 0 -6 0zM1853.96 448.51 a3 3 0 1 0 6 0 a3 3 0 1 0 -6 0zM1853.96 477.51 a3 3 0 1 0 6 0 a3 3 0 1 0 -6 0zM1828.84 492.01 a3 3 0 1 0 6 0 a3 3 0 1 0 -6 0zM1853.96 738.51 a3 3 0 1 0 6 0 a3 3 0 1 0 -6 0zM1879.07 753.01 a3 3 0 1 0 6 0 a3 3 0 1 0 -6 0zM1879.07 782.01 a3 3 0 1 0 6 0 a3 3 0 1 0 -6 0zM1853.96 796.51 a3 3 0 1 0 6 0 a3 3 0 1 0 -6 0zM1828.84 782.01 a3 3 0 1 0 6 0 a3 3 0 1 0 -6 0zM1828.84 753.01 a3 3 0 1 0 6 0 a3 3 0 1 0 -6 0zM1828.84 956.01 a3 3 0 1 0 6 0 a3 3 0 1 0 -6 0zM1853.96 970.51 a3 3 0 1 0 6 0 a3 3 0 1 0 -6 0zM1853.96 999.51 a3 3 0 1 0 6 0 a3 3 0 1 0 -6 0zM1828.84 1014.01 a3 3 0 1 0 6 0 a3 3 0 1 0 -6 0zM1803.73 999.51 a3 3 0 1 0 6 0 a3 3 0 1 0 -6 0zM1803.73 970.51 a3 3 0 1 0 6 0 a3 3 0 1 0 -6 0zM1879.07 1014.01 a3 3 0 1 0 6 0 a3 3 0 1 0 -6 0zM1879.07 1043.01 a3 3 0 1 0 6 0 a3 3 0 1 0 -6 0zM1853.96 1057.51 a3 3 0 1 0 6 0 a3 3 0 1 0 -6 0zM1828.84 1043.01 a3 3 0 1 0 6 0 a3 3 0 1 0 -6 0zM1879.07 173.01 a3 3 0 1 0 6 0 a3 3 0 1 0 -6 0zM1904.19 187.51 a3 3 0 1 0 6 0 a3 3 0 1 0 -6 0zM1904.19 216.51 a3 3 0 1 0 6 0 a3 3 0 1 0 -6 0zM1879.07 231.01 a3 3 0 1 0 6 0 a3 3 0 1 0 -6 0zM1904.19 361.51 a3 3 0 1 0 6 0 a3 3 0 1 0 -6 0zM1904.19 390.51 a3 3 0 1 0 6 0 a3 3 0 1 0 -6 0zM1879.07 405.01 a3 3 0 1 0 6 0 a3 3 0 1 0 -6 0zM1853.96 390.51 a3 3 0 1 0 6 0 a3 3 0 1 0 -6 0zM1929.3 405.01 a3 3 0 1 0 6 0 a3 3 0 1 0 -6 0zM1929.3 434.01 a3 3 0 1 0 6 0 a3 3 0 1 0 -6 0zM1904.19 448.51 a3 3 0 1 0 6 0 a3 3 0 1 0 -6 0zM1879.07 434.01 a3 3 0 1 0 6 0 a3 3 0 1 0 -6 0zM1879.07 695.01 a3 3 0 1 0 6 0 a3 3 0 1 0 -6 0zM1904.19 709.51 a3 3 0 1 0 6 0 a3 3 0 1 0 -6 0zM1904.19 738.51 a3 3 0 1 0 6 0 a3 3 0 1 0 -6 0zM1853.96 709.51 a3 3 0 1 0 6 0 a3 3 0 1 0 -6 0zM1904.19 796.51 a3 3 0 1 0 6 0 a3 3 0 1 0 -6 0zM1904.19 825.51 a3 3 0 1 0 6 0 a3 3 0 1 0 -6 0zM1879.07 840.01 a3 3 0 1 0 6 0 a3 3 0 1 0 -6 0zM1853.96 825.51 a3 3 0 1 0 6 0 a3 3 0 1 0 -6 0zM1879.07 869.01 a3 3 0 1 0 6 0 a3 3 0 1 0 -6 0zM1904.19 883.51 a3 3 0 1 0 6 0 a3 3 0 1 0 -6 0zM1904.19 912.51 a3 3 0 1 0 6 0 a3 3 0 1 0 -6 0zM1879.07 927.01 a3 3 0 1 0 6 0 a3 3 0 1 0 -6 0zM1853.96 912.51 a3 3 0 1 0 6 0 a3 3 0 1 0 -6 0zM1853.96 883.51 a3 3 0 1 0 6 0 a3 3 0 1 0 -6 0zM1879.07 956.01 a3 3 0 1 0 6 0 a3 3 0 1 0 -6 0zM1904.19 970.51 a3 3 0 1 0 6 0 a3 3 0 1 0 -6 0zM1904.19 999.51 a3 3 0 1 0 6 0 a3 3 0 1 0 -6 0zM1929.3 1014.01 a3 3 0 1 0 6 0 a3 3 0 1 0 -6 0zM1929.3 1043.01 a3 3 0 1 0 6 0 a3 3 0 1 0 -6 0zM1904.19 1057.51 a3 3 0 1 0 6 0 a3 3 0 1 0 -6 0zM1904.19 1086.51 a3 3 0 1 0 6 0 a3 3 0 1 0 -6 0zM1879.07 1101.01 a3 3 0 1 0 6 0 a3 3 0 1 0 -6 0zM1853.96 1086.51 a3 3 0 1 0 6 0 a3 3 0 1 0 -6 0zM1954.42 42.51 a3 3 0 1 0 6 0 a3 3 0 1 0 -6 0zM1979.54 57.01 a3 3 0 1 0 6 0 a3 3 0 1 0 -6 0zM1979.54 86.01 a3 3 0 1 0 6 0 a3 3 0 1 0 -6 0zM1954.42 100.51 a3 3 0 1 0 6 0 a3 3 0 1 0 -6 0zM1929.3 86.01 a3 3 0 1 0 6 0 a3 3 0 1 0 -6 0zM1929.3 57.01 a3 3 0 1 0 6 0 a3 3 0 1 0 -6 0zM1929.3 695.01 a3 3 0 1 0 6 0 a3 3 0 1 0 -6 0zM1954.42 709.51 a3 3 0 1 0 6 0 a3 3 0 1 0 -6 0zM1954.42 738.51 a3 3 0 1 0 6 0 a3 3 0 1 0 -6 0zM1929.3 753.01 a3 3 0 1 0 6 0 a3 3 0 1 0 -6 0zM1979.54 753.01 a3 3 0 1 0 6 0 a3 3 0 1 0 -6 0zM1979.54 782.01 a3 3 0 1 0 6 0 a3 3 0 1 0 -6 0zM1954.42 796.51 a3 3 0 1 0 6 0 a3 3 0 1 0 -6 0zM1929.3 782.01 a3 3 0 1 0 6 0 a3 3 0 1 0 -6 0z" fill="#03305d"></path><path d="M186.62 203.29L316.52 278.29L316.52 428.29L186.62 503.29L56.71 428.29L56.71 278.29zM576.34 878.29L706.25 953.29L706.25 1103.29L576.34 1178.29L446.43 1103.29L446.43 953.29zM836.15 -21.71L966.06 53.29L966.06 203.29L836.15 278.29L706.25 203.29L706.25 53.29zM836.15 878.29L966.06 953.29L966.06 1103.29L836.15 1178.29L706.25 1103.29L706.25 953.29zM1355.79 -21.71L1485.69 53.29L1485.69 203.29L1355.79 278.29L1225.88 203.29L1225.88 53.29zM1485.69 653.29L1615.6 728.29L1615.6 878.29L1485.69 953.29L1355.79 878.29L1355.79 728.29zM1745.51 653.29L1875.41 728.29L1875.41 878.29L1745.51 953.29L1615.6 878.29L1615.6 728.29zM2005.32 653.29L2135.23 728.29L2135.23 878.29L2005.32 953.29L1875.41 878.29L1875.41 728.29z" stroke="url(#SvgjsLinearGradient3238)" stroke-width="2"></path></g><defs><mask id="SvgjsMask3236"><rect width="1920" height="1080" fill="#ffffff"></rect></mask><linearGradient x1="10.94%" y1="-19.44%" x2="89.06%" y2="119.44%" gradientUnits="userSpaceOnUse" id="SvgjsLinearGradient3237"><stop stop-color="rgba(14, 42, 71, 1)" offset="0.76"></stop><stop stop-color="rgba(2, 6, 6, 1)" offset="1"></stop></linearGradient><linearGradient x1="0" y1="540" x2="1920" y2="540" gradientUnits="userSpaceOnUse" id="SvgjsLinearGradient3238"><stop stop-color="#0e2a47" offset="0"></stop><stop stop-color="rgba(207, 182, 182, 1)" offset="0.53"></stop><stop stop-color="rgba(133, 121, 121, 1)" offset="1"></stop></linearGradient></defs></svg>