<svg width="19" height="22" viewBox="0 0 19 22" fill="none" xmlns="http://www.w3.org/2000/svg">
<g id="Group 1">
<path id="Vector" d="M9.5 22C14.7467 22 19 17.0751 19 11C19 4.92487 14.7467 0 9.5 0C4.25329 0 0 4.92487 0 11C0 17.0751 4.25329 22 9.5 22Z" fill="#FCD063"/>
<g id="Group">
<path id="Vector_2" d="M15.5952 2.56714C16.9774 4.4777 17.8122 6.93758 17.8122 9.62501C17.8122 15.6998 13.5586 20.625 8.31223 20.625C5.99126 20.625 3.86742 19.6584 2.2168 18.0579C3.95945 20.4669 6.57373 22 9.49973 22C14.7461 22 18.9997 17.0748 18.9997 11C18.9997 7.61201 17.6757 4.58495 15.5952 2.56714Z" fill="#F7B84E"/>
</g>
<path id="Vector_3" d="M7.125 8.9375C6.79666 8.9375 6.53125 8.6295 6.53125 8.25C6.53125 7.87119 6.26525 7.5625 5.9375 7.5625C5.60975 7.5625 5.34375 7.87119 5.34375 8.25C5.34375 8.6295 5.07834 8.9375 4.75 8.9375C4.42166 8.9375 4.15625 8.6295 4.15625 8.25C4.15625 7.11287 4.95544 6.1875 5.9375 6.1875C6.91956 6.1875 7.71875 7.11287 7.71875 8.25C7.71875 8.6295 7.45334 8.9375 7.125 8.9375Z" fill="#C98E3F"/>
<path id="Vector_4" d="M5.9375 6.875C6.78894 6.875 7.50084 7.57144 7.676 8.49681C7.70153 8.41981 7.71875 8.33731 7.71875 8.25C7.71875 7.11287 6.91956 6.1875 5.9375 6.1875C4.95544 6.1875 4.15625 7.11287 4.15625 8.25C4.15625 8.33731 4.17347 8.41981 4.199 8.49681C4.37416 7.57144 5.08606 6.875 5.9375 6.875Z" fill="#AB7934"/>
<path id="Vector_5" d="M14.25 8.9375C13.9217 8.9375 13.6562 8.6295 13.6562 8.25C13.6562 7.87119 13.3902 7.5625 13.0625 7.5625C12.7347 7.5625 12.4687 7.87119 12.4687 8.25C12.4687 8.6295 12.2033 8.9375 11.875 8.9375C11.5467 8.9375 11.2812 8.6295 11.2812 8.25C11.2812 7.11287 12.0804 6.1875 13.0625 6.1875C14.0446 6.1875 14.8437 7.11287 14.8437 8.25C14.8437 8.6295 14.5783 8.9375 14.25 8.9375Z" fill="#C98E3F"/>
<path id="Vector_6" d="M13.0625 6.875C13.9139 6.875 14.6258 7.57144 14.801 8.49681C14.8265 8.41981 14.8437 8.33731 14.8437 8.25C14.8437 7.11287 14.0446 6.1875 13.0625 6.1875C12.0804 6.1875 11.2812 7.11287 11.2812 8.25C11.2812 8.33731 11.2985 8.41981 11.324 8.49681C11.4992 7.57144 12.2111 6.875 13.0625 6.875Z" fill="#AB7934"/>
<path id="Vector_7" d="M14.8984 12.375H4.10162C3.80356 12.375 3.5625 12.6314 3.5625 12.9484C3.5625 16.4237 6.22606 19.25 9.5 19.25C12.7739 19.25 15.4375 16.4237 15.4375 12.9484C15.4375 12.6314 15.1964 12.375 14.8984 12.375Z" fill="white"/>
<g id="Group_2">
<path id="Vector_8" d="M15.3983 13.5204C15.4155 13.3313 15.4375 13.1429 15.4375 12.9484C15.4375 12.6314 15.1964 12.375 14.8984 12.375H4.10162C3.80356 12.375 3.5625 12.6314 3.5625 12.9484C3.5625 13.1429 3.58447 13.3313 3.60169 13.5204H15.3983Z" fill="#E2E5E7"/>
<path id="Vector_9" d="M4.75 16.7138C4.93228 16.9716 5.12822 17.2157 5.34375 17.4419V12.375H4.75V16.7138Z" fill="#E2E5E7"/>
<path id="Vector_10" d="M7.71875 18.9592C7.91231 19.0245 8.11062 19.0795 8.3125 19.1228V12.375H7.71875V18.9592Z" fill="#E2E5E7"/>
<path id="Vector_11" d="M10.6875 19.1228C10.8894 19.0795 11.0877 19.0238 11.2812 18.9592V12.375H10.6875V19.1228Z" fill="#E2E5E7"/>
<path id="Vector_12" d="M14.25 16.7138V12.375H13.6562V17.4412C13.8718 17.2157 14.0677 16.9716 14.25 16.7138Z" fill="#E2E5E7"/>
</g>
<g id="Group_3">
<path id="Vector_13" d="M5.34375 12.375H4.75V13.5204H5.34375V12.375Z" fill="#CAD1D8"/>
<path id="Vector_14" d="M8.3125 12.375H7.71875V13.5204H8.3125V12.375Z" fill="#CAD1D8"/>
<path id="Vector_15" d="M11.2812 12.375H10.6875V13.5204H11.2812V12.375Z" fill="#CAD1D8"/>
<path id="Vector_16" d="M14.25 12.375H13.6562V13.5204H14.25V12.375Z" fill="#CAD1D8"/>
</g>
</g>
</svg>
