<svg width="288" height="219" viewBox="0 0 288 219" fill="none" xmlns="http://www.w3.org/2000/svg">
<g id="javascript">
<g id="vuejs" class="icons">
<path id="path893" fill-rule="evenodd" clip-rule="evenodd" d="M54.564 3.00781H60.2535L45.8872 41.8579L31.4263 3.00781H37.2452L45.8872 26.3963L54.564 3.00781Z" fill="#41B883"/>
<path id="path895" fill-rule="evenodd" clip-rule="evenodd" d="M49.1867 3H54.5979L45.8792 26.4372L37.2305 3H42.5571L45.8792 12.023L49.1867 3Z" fill="#35495E"/>
<path id="path897" fill-rule="evenodd" clip-rule="evenodd" d="M63.6489 10.6696C63.6489 10.383 63.7503 10.1442 63.9531 9.95311C64.1558 9.76204 64.3678 9.6665 64.589 9.6665C64.8962 9.6665 65.0867 9.84802 65.1604 10.2111L68.4047 27.2353L71.6305 10.2111C71.7165 9.84804 71.9009 9.6665 72.1835 9.6665C72.417 9.6665 72.6351 9.77159 72.8379 9.98177C73.0407 10.1919 73.142 10.4308 73.142 10.6983C73.142 10.7174 73.139 10.7461 73.1328 10.7843C73.1267 10.8225 73.1236 10.8607 73.1236 10.8989L69.3817 29.9581C69.2465 30.5121 68.9209 30.7892 68.4047 30.7892C67.8886 30.7892 67.5752 30.5121 67.4646 29.9581L63.686 10.8989C63.6614 10.7843 63.6491 10.7078 63.6491 10.6696H63.6489ZM73.2873 25.3435V17.892C73.2873 17.6627 73.3641 17.4621 73.5177 17.2901C73.6713 17.1182 73.8526 17.0322 74.0615 17.0322C74.2581 17.0322 74.4332 17.123 74.5868 17.3045C74.7405 17.486 74.8173 17.6818 74.8173 17.892V25.3435C74.8173 26.2033 75.0262 26.9771 75.444 27.665C75.8618 28.3528 76.3595 28.6967 76.9371 28.6967C77.5024 28.6967 77.9939 28.3576 78.4117 27.6793C78.8296 27.001 79.0385 26.2224 79.0385 25.3435V17.8629C79.0385 17.6527 79.1153 17.4617 79.2689 17.2897C79.4225 17.1178 79.6038 17.0318 79.8127 17.0318C80.0339 17.0318 80.2151 17.113 80.3565 17.2754C80.4978 17.4378 80.5684 17.6336 80.5684 17.8629V25.3435C80.5684 26.8147 80.209 28.0996 79.4901 29.1983C78.7712 30.2969 77.9202 30.8463 76.9371 30.8463C75.9417 30.8463 75.0846 30.2969 74.3657 29.1983C73.6468 28.0996 73.2873 26.8147 73.2873 25.3435H73.2873ZM81.8194 25.2862V22.2768C81.8194 20.8056 82.1789 19.535 82.8977 18.465C83.6166 17.395 84.4799 16.8601 85.4876 16.8601C86.4462 16.8601 87.2756 17.3616 87.9761 18.3648C88.6766 19.3678 89.0268 20.6241 89.0268 22.1336C89.0268 22.6877 88.9838 23.1319 88.8978 23.4663C88.8117 23.8007 88.6796 24.0395 88.5015 24.1828C88.3233 24.3261 88.1574 24.4169 88.0038 24.4551C87.8501 24.4933 87.6443 24.5124 87.3862 24.5124H83.3493V25.3722C83.3493 26.4231 83.592 27.2638 84.0774 27.8943C84.5628 28.5249 85.1926 28.8401 85.9668 28.8401C86.3724 28.8401 86.7256 28.7446 87.0267 28.5535C87.3278 28.3625 87.5705 28.1762 87.7548 27.9947C87.9392 27.8132 88.0866 27.7224 88.1972 27.7224C88.3693 27.7224 88.5167 27.8418 88.6396 28.0807C88.7625 28.3195 88.824 28.5631 88.824 28.8115C88.824 29.2509 88.5444 29.7 87.9852 30.1585C87.4261 30.617 86.7349 30.8463 85.9115 30.8463C84.7072 30.8463 83.7241 30.3352 82.9622 29.313C82.2003 28.2908 81.8193 26.9486 81.8193 25.2863L81.8194 25.2862ZM83.3493 22.9074H86.7595C87.079 22.9074 87.294 22.8453 87.4047 22.7211C87.5153 22.5969 87.5706 22.3533 87.5706 21.9903C87.5706 21.1305 87.3678 20.3758 86.9623 19.7261C86.5568 19.0765 86.0591 18.7516 85.4692 18.7516C84.8916 18.7516 84.3939 19.0526 83.9761 19.6544C83.5583 20.2563 83.3494 20.9967 83.3494 21.8756L83.3493 22.9074ZM89.7988 29.2985C89.7988 28.8782 89.8909 28.5199 90.0752 28.2238C90.2596 27.9276 90.4869 27.7796 90.7573 27.7796C91.0153 27.7796 91.2365 27.9276 91.4209 28.2238C91.6052 28.52 91.6974 28.8782 91.6974 29.2985C91.6974 29.6998 91.6052 30.0485 91.4209 30.3446C91.2365 30.6408 91.0153 30.7889 90.7573 30.7889C90.4869 30.7889 90.2596 30.6408 90.0752 30.3446C89.8909 30.0485 89.7988 29.6998 89.7988 29.2985ZM91.1605 36.1484C91.1605 35.8427 91.222 35.5896 91.3448 35.3889C91.4677 35.1883 91.6152 35.088 91.7872 35.088C92.2665 35.088 92.5799 34.811 92.7274 34.2569C92.8748 33.7028 92.9485 32.8717 92.9485 31.7634V17.8631C92.9485 17.6147 93.0192 17.4141 93.1605 17.2613C93.3019 17.1084 93.4831 17.032 93.7043 17.032C93.9255 17.032 94.1098 17.1084 94.2573 17.2613C94.4048 17.4141 94.4785 17.6147 94.4785 17.8631V31.7634C94.4785 33.4258 94.2696 34.7441 93.8518 35.7186C93.434 36.693 92.8011 37.1802 91.9532 37.1802C91.4248 37.1802 91.1605 36.8363 91.1605 36.1485L91.1605 36.1484ZM92.7458 11.9304C92.7458 11.5674 92.8379 11.2522 93.0223 10.9846C93.2066 10.7171 93.4339 10.5834 93.7043 10.5834C93.9624 10.5834 94.1835 10.7171 94.3679 10.9846C94.5522 11.2521 94.6444 11.5674 94.6444 11.9304C94.6444 12.2935 94.5522 12.6135 94.3679 12.8906C94.1835 13.1676 93.9624 13.3061 93.7043 13.3061C93.4462 13.3061 93.222 13.1676 93.0315 12.8906C92.841 12.6135 92.7457 12.2935 92.7457 11.9304H92.7458ZM95.619 28.6678C95.619 28.4194 95.6712 28.1758 95.7757 27.937C95.8802 27.6982 96.0061 27.5788 96.1536 27.5788C96.2519 27.5788 96.3932 27.6934 96.5775 27.9227C96.7619 28.152 97.0261 28.3765 97.3702 28.5962C97.7142 28.8159 98.1198 28.9258 98.5867 28.9258C99.2012 28.9258 99.6466 28.7538 99.9231 28.4099C100.2 28.066 100.338 27.6361 100.338 27.1202C100.338 26.4897 100.184 25.9881 99.8771 25.6155C99.5698 25.2429 99.195 24.9611 98.7526 24.77C98.3102 24.579 97.8678 24.3688 97.4254 24.1395C96.983 23.9102 96.6082 23.5281 96.301 22.9931C95.9938 22.4581 95.8401 21.7511 95.8401 20.8722C95.8401 19.7832 96.089 18.8421 96.5867 18.0492C97.0844 17.2563 97.8432 16.8598 98.8632 16.8598C99.5145 16.8598 100.11 17.0174 100.651 17.3327C101.192 17.648 101.462 18.0062 101.462 18.4074C101.462 18.6367 101.404 18.8947 101.287 19.1813C101.17 19.4679 101.026 19.6112 100.854 19.6112C100.805 19.6112 100.568 19.4727 100.144 19.1956C99.7203 18.9186 99.2994 18.78 98.8816 18.78C98.3163 18.78 97.8954 18.9854 97.6189 19.3962C97.3424 19.807 97.2042 20.2704 97.2042 20.7863C97.2042 21.3212 97.3578 21.7416 97.665 22.0473C97.9722 22.353 98.3501 22.5919 98.7987 22.7638C99.2472 22.9358 99.6927 23.146 100.135 23.3944C100.577 23.6428 100.952 24.0679 101.26 24.6697C101.567 25.2716 101.72 26.0502 101.72 27.0056C101.72 28.1902 101.45 29.1264 100.909 29.8142C100.369 30.5021 99.6128 30.846 98.642 30.846C97.8064 30.846 97.0936 30.6119 96.5038 30.1438C95.9139 29.6757 95.619 29.1837 95.619 28.6678L95.619 28.6678Z" fill="#010101"/>
</g>
<g id="jslogo">
<path id="Vector" d="M106.199 77.2878H148.451V140.032H106.199V77.2878Z" fill="#F7DF1E"/>
<path id="Vector_2" d="M117.31 129.721L120.543 126.815C121.167 128.457 121.734 129.847 123.095 129.847C124.4 129.847 125.223 129.089 125.223 126.141V106.093H129.193V126.224C129.193 132.331 126.783 135.111 123.266 135.111C120.089 135.111 118.246 132.668 117.31 129.72L117.31 129.721ZM131.35 129.089L134.583 126.309C135.434 128.373 136.54 129.889 138.497 129.889C140.143 129.889 141.192 128.668 141.192 126.983C141.192 124.961 140.114 124.245 138.299 123.066L137.306 122.434C134.441 120.623 132.541 118.349 132.541 113.548C132.541 109.125 134.81 105.756 138.356 105.756C140.88 105.756 142.695 107.061 144 110.473L140.908 113.421C140.227 111.61 139.49 110.894 138.355 110.894C137.192 110.894 136.455 111.99 136.455 113.421C136.455 115.19 137.192 115.907 138.894 117.002L139.887 117.633C143.262 119.782 145.162 121.971 145.162 126.899C145.162 132.206 142.354 135.112 138.582 135.112C134.895 135.112 132.513 132.501 131.35 129.089" fill="black"/>
</g>
<g id="jquery" class="icons">
<g id="Group">
<path id="Vector_3" d="M51.5434 190.409L51.0475 192.814L51.5434 190.408V190.409ZM54.0938 195.634L53.5476 195.629L54.0938 195.634ZM53.9595 199.227L50.686 199.244L53.9595 199.227ZM54.6448 195.639L54.0979 195.634L54.6448 195.639ZM54.247 198.924L54.8181 195.945L54.247 198.924ZM66.3006 185.215L65.239 192.053L66.3006 185.215ZM63.5701 185.205L62.7638 190.315L63.5701 185.205Z" fill="#131B28"/>
<path id="Vector_4" d="M66.1119 184.899H63.8409C63.7146 184.899 63.5897 185.037 63.5628 185.206L61.9503 195.426C61.9234 195.594 61.7984 195.732 61.6728 195.732H60.065C58.4739 195.732 58.658 194.226 58.9899 192.162L59 192.099L59.1929 190.692L59.2762 190.112L60.0099 185.206C60.0354 185.037 59.9528 184.898 59.8264 184.898H57.495C57.4307 184.901 57.3689 184.933 57.319 184.988C57.269 185.044 57.2336 185.12 57.2182 185.205L56.1546 192.027C55.5768 195.637 55.73 199.08 58.869 199.188H63.886C64.0123 199.188 64.1366 199.05 64.1635 198.88L66.288 185.203C66.3148 185.033 66.2322 184.895 66.1065 184.895L66.1119 184.899ZM75.1689 195.768C75.2952 195.768 75.3705 195.906 75.3523 196.075L75.132 197.552L75.1689 195.768ZM74.917 199.029L75.1373 197.551L74.917 199.029ZM74.6482 199.34L70.4624 199.367L74.6482 199.34Z" fill="#131B28"/>
<path id="Vector_5" d="M69.1017 193.866C69.0997 193.704 69.2341 193.426 69.3604 193.426L69.0768 193.42C68.9425 195.181 69.1017 193.866 69.1017 193.866V193.866ZM70.6638 199.365H70.6202H70.6638ZM75.1708 195.777C75.2971 195.777 75.3724 195.915 75.3543 196.084L75.1036 197.792L75.1708 195.777ZM71.7389 199.362H71.7294H71.7389ZM71.1812 199.365H71.1489H71.1812ZM71.0119 199.365H70.9581H71.0119ZM70.8385 199.365H70.7915H70.8385ZM71.1489 199.365H71.0112H71.1489Z" fill="#131B28"/>
<path id="Vector_6" d="M71.7299 199.363L71.1816 199.365L71.7299 199.363ZM74.6438 199.338L71.7379 199.362L74.6438 199.338ZM74.9126 199.03L75.0974 197.793L74.9126 199.031V199.03ZM70.9512 199.365H70.8316H70.9512ZM70.6119 199.367H70.4506H70.6119ZM70.7825 199.365H70.6481H70.7825ZM37.5525 193.903L37.9052 191.761L37.5021 194.208L37.4551 194.516L37.5532 193.901L37.5525 193.903ZM41.7773 184.863H39.2826C39.2181 184.867 39.1562 184.898 39.1058 184.953C39.0554 185.008 39.0191 185.084 39.0024 185.17L38.5294 188.022C38.5215 188.059 38.5201 188.098 38.5256 188.135C38.531 188.173 38.5429 188.209 38.5605 188.239C38.578 188.269 38.6006 188.293 38.6263 188.308C38.652 188.324 38.6801 188.331 38.7081 188.328H41.2223C41.3486 188.328 41.4736 188.19 41.5005 188.022L41.9574 185.163C41.9842 184.995 41.9036 184.857 41.776 184.857L41.7773 184.863ZM41.2398 189.62L40.5007 194.255L41.2398 189.62ZM33.9929 204.978L36.0502 205C35.4428 205 34.4397 204.984 33.9922 204.977L33.9929 204.978Z" fill="#131B28"/>
<path id="Vector_7" d="M38.2646 189.619L37.9112 191.761L38.2646 189.619ZM41.0596 189.312H38.5515C38.487 189.315 38.425 189.347 38.3746 189.402C38.3242 189.457 38.288 189.533 38.2713 189.618L37.5658 193.902L37.4677 194.517L36.7958 198.89C36.7625 199.094 36.7222 199.296 36.6749 199.494C36.6749 199.494 36.2046 201.408 35.4158 201.387L34.633 201.367C34.5688 201.369 34.5069 201.4 34.4561 201.453C34.4054 201.507 34.3685 201.582 34.3508 201.667L33.8295 204.668C33.8212 204.705 33.8196 204.744 33.8246 204.781C33.8297 204.819 33.8413 204.855 33.8585 204.885C33.8757 204.915 33.898 204.939 33.9234 204.955C33.9489 204.972 33.9768 204.979 34.0048 204.977L36.0628 205C38.0355 205 39.0749 203.503 39.742 199.197L41.2538 189.628C41.2807 189.46 41.1987 189.322 41.0724 189.322L41.0596 189.312ZM76.7769 199.191C76.6506 199.191 76.5754 199.053 76.5955 198.883L78.4882 186.751L76.7769 199.191ZM79.406 198.883L80.172 193.705L79.406 198.883Z" fill="#131B28"/>
<path id="Vector_8" d="M76.6241 199.038C76.6087 198.953 76.6174 198.746 76.6443 198.578L77.5419 192.818L76.5959 198.884C76.5691 199.053 76.651 199.192 76.7773 199.192H77.0071C76.8808 199.192 76.6389 199.123 76.6241 199.038V199.038ZM79.2579 199.123C79.1894 199.159 79.0295 199.192 78.9032 199.192H79.133C79.1971 199.188 79.2586 199.156 79.3083 199.1C79.358 199.045 79.3932 198.969 79.4084 198.883L79.4541 198.576C79.4293 198.745 79.3197 199.085 79.2526 199.123H79.2579ZM79.7901 196.294L80.128 194.009L79.7901 196.294ZM87.2533 187.564L87.3575 188.153C87.3864 188.322 87.3064 188.459 87.1808 188.46" fill="#131B28"/>
<path id="Vector_9" d="M79.4526 198.576L79.7886 196.294L79.4526 198.576ZM87.1491 186.96L87.2519 187.563L87.1491 186.96ZM80.1279 194.01L80.2206 193.399L80.5814 191.085L80.1729 193.706L80.1279 194.009V194.01ZM78.5187 186.552L78.4401 187.058L77.5425 192.818L78.4885 186.752L78.5187 186.553V186.552Z" fill="#131B28"/>
<path id="Vector_10" d="M87.3585 188.153L87.2544 187.564L87.0999 186.644C86.8956 185.559 86.2963 184.93 84.9942 184.93L79.001 184.925C78.9367 184.928 78.8749 184.959 78.825 185.015C78.775 185.07 78.7396 185.147 78.7242 185.232L78.6314 185.833L78.4971 186.741L76.6534 198.567C76.6265 198.736 76.6178 198.935 76.6332 199.027C76.6487 199.119 76.8906 199.181 77.0162 199.181H78.9109C79.0372 199.181 79.1965 199.149 79.2657 199.112C79.3349 199.074 79.4364 198.743 79.4673 198.565L80.1862 193.694L80.9555 188.759C80.9824 188.59 81.1067 188.453 81.2323 188.452L87.1939 188.449C87.3196 188.449 87.3995 188.311 87.3706 188.142L87.3585 188.153ZM95.0328 182.822L94.5739 182.825H92.6657C92.5959 182.831 92.5277 182.857 92.4658 182.902C92.404 182.946 92.3498 183.009 92.307 183.085L88.0875 191.549C88.0163 191.692 87.935 191.671 87.9061 191.503L87.5957 189.638C87.579 189.553 87.5428 189.477 87.4924 189.422C87.442 189.367 87.38 189.335 87.3155 189.332H84.6031C84.4768 189.332 84.4016 189.467 84.4365 189.634L85.6459 195.465C85.6808 195.631 85.6829 195.904 85.6526 196.072L85.1151 198.894C85.106 198.931 85.1035 198.969 85.1081 199.007C85.1126 199.045 85.124 199.081 85.1411 199.111C85.1583 199.141 85.1807 199.165 85.2063 199.18C85.2319 199.196 85.2599 199.202 85.2878 199.199H87.9753C88.1016 199.199 88.2306 199.061 88.2615 198.895L88.7991 196.073C88.8412 195.875 88.907 195.687 88.9939 195.518L95.8444 183.067C95.9203 182.929 95.8794 182.817 95.753 182.819L95.0341 182.825L95.0328 182.822ZM73.4814 190.126C73.4653 190.31 73.339 190.448 73.2127 190.448H69.7726C69.6537 190.448 69.5933 190.338 69.6114 190.2L69.6141 190.175L69.6295 190.095C69.9655 188.899 70.6273 188.114 71.8844 188.114C73.3 188.114 73.5762 189.061 73.4801 190.126H73.4814ZM72.4736 184.69C68.0593 184.69 67.0132 188.359 66.4267 192.063C65.8394 195.838 65.8905 199.368 70.458 199.368H71.1823L71.7399 199.365L74.6465 199.342C74.7103 199.337 74.7714 199.305 74.8207 199.25C74.8699 199.194 74.9048 199.118 74.9199 199.033L75.3614 196.078C75.3869 195.909 75.3043 195.771 75.1779 195.771H71.0721C69.4394 195.771 68.9536 195.176 69.1323 193.429H75.6966C75.8041 193.426 75.9016 193.337 75.9399 193.197C75.9466 193.172 75.9533 193.146 75.956 193.119C76.9302 188.086 76.6507 184.694 72.4756 184.694L72.4736 184.69ZM51.6076 190.107L51.5458 190.408C51.5458 190.408 51.0499 192.814 51.0499 192.814L50.5541 195.22C50.5335 195.304 50.4946 195.379 50.4425 195.432C50.3905 195.486 50.3277 195.517 50.2625 195.521H47.6388C45.6487 195.521 45.1642 193.39 45.6487 190.246C46.1324 187.03 47.0831 185.031 49.0417 184.828C51.7185 184.552 52.2533 187.13 51.6083 190.106L51.6076 190.107ZM53.4069 195.337C53.4069 195.337 54.6432 191.225 54.9254 188.848C55.3083 185.667 54.146 181.055 49.6544 181.055C45.1884 181.055 43.2494 185.458 42.5096 190.256C41.7705 195.077 42.7394 199.306 47.1792 199.273L53.9558 199.238C54.0208 199.234 54.0832 199.203 54.1346 199.148C54.1859 199.093 54.2237 199.018 54.2427 198.933L54.8138 195.954C54.8231 195.918 54.8256 195.879 54.8212 195.841C54.8168 195.804 54.8055 195.768 54.7885 195.738C54.7715 195.707 54.7493 195.683 54.7238 195.668C54.6983 195.652 54.6703 195.645 54.6425 195.648H53.5493C53.4418 195.647 53.3814 195.553 53.3935 195.428C53.3955 195.405 53.4002 195.382 53.4069 195.358V195.337Z" fill="#131B28"/>
<path id="Vector_11" d="M75.5118 192.585C75.5118 192.699 75.4444 192.791 75.3609 192.791C75.2773 192.791 75.21 192.699 75.21 192.585C75.21 192.47 75.2773 192.378 75.3609 192.378C75.4444 192.378 75.5118 192.47 75.5118 192.585Z" fill="#131B28"/>
</g>
<path id="Vector_12" d="M19.3068 187.236C18.0739 189.663 18.2271 192.821 19.1691 195.399L19.2383 195.583L19.2826 195.699L19.3095 195.766L19.3586 195.886L19.4486 196.098L19.4997 196.214L19.6038 196.437L19.6481 196.531L19.7993 196.83L19.8289 196.885L19.9666 197.136L20.0183 197.227L20.1527 197.441L20.2011 197.521L20.3785 197.799L20.3892 197.814L20.5693 198.075L20.6271 198.155L20.7709 198.339L20.83 198.415L21.0268 198.661L21.0645 198.704L21.2439 198.911L21.3111 198.992L21.4602 199.152L21.5408 199.244L21.7088 199.41L21.7867 199.485L21.9493 199.633L22.0199 199.697L22.2752 199.91L22.3458 199.966L22.5372 200.113L22.6434 200.186L22.7805 200.284L22.812 200.305L22.8678 200.342L23.0848 200.48L23.1305 200.508L23.3838 200.651L23.4456 200.684L23.6841 200.806L23.7144 200.82L23.9804 200.94L24.0449 200.966L24.3137 201.072C30.2767 202.563 32.0088 196.165 32.0088 196.165C30.5542 198.759 27.9775 199.445 25.5251 198.683C25.4324 198.655 25.3424 198.615 25.2523 198.578L25.1851 198.551C25.0973 198.514 25.01 198.475 24.9231 198.434L24.8868 198.415C24.8089 198.378 24.7323 198.338 24.655 198.298L24.5898 198.263C24.5057 198.217 24.4221 198.17 24.3392 198.12L24.2895 198.09L24.0785 197.955L24.0114 197.915C23.9563 197.878 23.9025 197.839 23.8481 197.801L23.7392 197.722C23.6734 197.674 23.6082 197.624 23.5437 197.572L23.4779 197.522C23.392 197.452 23.3069 197.381 23.2226 197.308C23.199 197.288 23.1769 197.266 23.154 197.246L22.9726 197.08C22.9525 197.062 22.9337 197.043 22.9142 197.025L22.7428 196.855L22.6669 196.777L22.5124 196.611L22.4432 196.536L22.2503 196.313C22.2436 196.304 22.2369 196.297 22.2302 196.289C22.1617 196.197 22.0945 196.122 22.0273 196.037L21.9702 195.961L21.8244 195.766L21.7673 195.688C21.7066 195.603 21.647 195.517 21.5885 195.43C21.524 195.333 21.4606 195.235 21.3984 195.135L21.3514 195.058L21.221 194.837L21.174 194.745L21.0235 194.471C19.6717 191.939 19.1832 188.439 20.2764 185.565L19.3068 187.236ZM23.1406 185.192C22.249 186.94 22.2974 189.302 22.9928 191.16C23.1092 191.472 23.241 191.773 23.3872 192.061C23.5216 192.323 23.6694 192.635 23.8461 192.846L24.0463 193.122L24.0987 193.193L24.303 193.453L24.313 193.465L24.5515 193.736L24.6053 193.794L24.8552 194.042L25.0299 194.201L25.2147 194.358L25.2416 194.379L25.4055 194.504L25.464 194.545L25.5782 194.626L25.5957 194.637L25.8342 194.79L25.8866 194.82L26.0881 194.928L26.1721 194.97L26.3515 195.056L26.4321 195.093C26.5182 195.13 26.6028 195.185 26.6922 195.196C31.2966 196.24 32.3595 191.387 32.3595 191.387C31.4014 193.277 29.5457 194.178 27.5656 193.475L27.3049 193.372L27.2263 193.337L27.0449 193.251L26.9623 193.209L26.7661 193.1L26.7123 193.07L26.4725 192.917L26.3515 192.825L26.2823 192.776L26.0942 192.629L25.9094 192.474L25.7347 192.315L25.4861 192.067L25.4304 192.006C24.5569 191.069 23.8763 189.798 23.5491 188.337C23.2132 186.831 23.2803 185.14 23.8736 183.769L23.1406 185.192ZM26.3529 183.665C25.8275 184.723 25.775 186.038 26.1406 187.21C26.5249 188.452 27.3137 189.418 28.2335 189.878L28.3477 189.933L28.3981 189.955L28.562 190.02C31.1044 190.691 31.7871 188.233 31.9772 187.871C31.3725 189.062 30.3647 189.348 29.1123 188.934C29.0103 188.897 28.9095 188.855 28.8099 188.807C28.6881 188.748 28.5685 188.68 28.4518 188.604C28.2305 188.458 28.0202 188.282 27.8243 188.079C26.709 186.92 26.0102 184.712 26.7446 182.913" fill="#0868AC"/>
</g>
<g id="nuxt" class="icons">
<g id="Calque 1-2">
<path id="path8" d="M27.184 100.895C27.2302 101.01 27.2663 101.147 27.2901 101.296C27.314 101.446 27.3251 101.605 27.3229 101.766V118.509C27.3249 118.687 27.3121 118.863 27.2855 119.029C27.2588 119.195 27.2188 119.346 27.1677 119.474C27.1167 119.603 27.0549 119.704 26.9865 119.772C26.9181 119.839 26.8446 119.872 26.7706 119.867C26.6868 119.867 26.6036 119.835 26.5239 119.772C26.451 119.718 26.3854 119.618 26.3343 119.482L21.8165 105.359V118.654C21.8205 118.966 21.7726 119.269 21.6835 119.497C21.5945 119.724 21.4714 119.857 21.3415 119.867C21.3315 119.867 21.3216 119.867 21.3116 119.867C21.2454 119.873 21.1795 119.845 21.1181 119.785C21.0567 119.726 21.0013 119.636 20.9554 119.521C20.9097 119.406 20.8741 119.27 20.8505 119.121C20.8269 118.972 20.8159 118.813 20.8182 118.654V101.875C20.8165 101.698 20.8301 101.523 20.8583 101.359C20.8864 101.196 20.9284 101.048 20.9815 100.926C21.0313 100.803 21.0911 100.707 21.1572 100.643C21.2233 100.579 21.2943 100.548 21.3655 100.553C21.4562 100.552 21.5461 100.594 21.6302 100.675C21.7068 100.746 21.7739 100.865 21.8247 101.02L26.323 115.175V101.766C26.321 101.611 26.3317 101.457 26.3545 101.313C26.3773 101.168 26.4118 101.036 26.4559 100.923C26.5 100.811 26.5529 100.72 26.6116 100.656C26.6703 100.593 26.7337 100.558 26.798 100.553C26.808 100.553 26.818 100.553 26.8279 100.553C26.8939 100.547 26.9597 100.575 27.021 100.634C27.0824 100.692 27.1379 100.781 27.1841 100.895H27.184ZM36.4649 100.895C36.5626 101.155 36.6142 101.497 36.6087 101.848V112.44C36.618 113.809 36.4796 115.161 36.2067 116.363C35.9483 117.498 35.5644 118.439 35.0973 119.082C34.6132 119.749 34.0638 120.093 33.5057 120.078C32.9427 120.1 32.3874 119.763 31.8963 119.102C31.4271 118.461 31.0413 117.52 30.7819 116.383C30.5091 115.18 30.3706 113.829 30.38 112.46V101.867C30.3779 101.69 30.3913 101.513 30.4195 101.349C30.4476 101.185 30.4899 101.037 30.5434 100.914C30.598 100.786 30.6626 100.685 30.7336 100.618C30.8046 100.551 30.8805 100.518 30.9568 100.522C31.0287 100.522 31.0999 100.557 31.1661 100.624C31.2323 100.692 31.2922 100.79 31.3423 100.914C31.3952 101.034 31.4371 101.18 31.4653 101.341C31.4934 101.503 31.5072 101.677 31.5057 101.852V112.444C31.4998 113.348 31.5951 114.24 31.7818 115.025C31.9548 115.757 32.2054 116.366 32.5082 116.79C32.811 117.214 33.1551 117.437 33.5056 117.438C33.8639 117.444 34.2165 117.225 34.5285 116.803C34.8433 116.385 35.1052 115.771 35.2866 115.025C35.4763 114.242 35.5735 113.35 35.5677 112.444V101.852C35.5624 101.504 35.6113 101.164 35.705 100.898C35.7526 100.77 35.8114 100.669 35.8772 100.601C35.943 100.533 36.0141 100.501 36.0857 100.506C36.1567 100.502 36.2273 100.535 36.2927 100.602C36.3581 100.669 36.4167 100.768 36.4647 100.894L36.4649 100.895ZM45.3095 117.881C45.3784 118.109 45.4146 118.384 45.4124 118.666C45.4154 118.841 45.4023 119.016 45.3741 119.178C45.3459 119.34 45.3032 119.485 45.249 119.603C45.1479 119.833 45.014 119.961 44.8749 119.96C44.7869 119.968 44.6996 119.922 44.6212 119.826C44.5429 119.73 44.4761 119.587 44.4272 119.411L42.1936 112.252L40.0107 119.399C39.9623 119.578 39.8959 119.725 39.8177 119.826C39.7394 119.926 39.6518 119.978 39.563 119.976C39.4978 119.98 39.4329 119.951 39.3724 119.891C39.312 119.832 39.2573 119.743 39.2118 119.631C39.1666 119.531 39.1305 119.41 39.1058 119.275C39.081 119.14 39.0682 118.994 39.068 118.846C39.0705 118.514 39.1194 118.194 39.2069 117.936L41.5631 110.235L39.1956 102.593C39.1216 102.37 39.0808 102.094 39.0795 101.808C39.078 101.633 39.0918 101.46 39.1199 101.298C39.1481 101.137 39.19 100.991 39.2429 100.871C39.293 100.747 39.3529 100.648 39.4191 100.581C39.4853 100.514 39.5565 100.479 39.6284 100.479C39.714 100.48 39.7985 100.528 39.8751 100.62C39.9561 100.712 40.0255 100.854 40.0761 101.032L42.2836 108.152L44.4698 101.102C44.5174 100.925 44.5817 100.778 44.6575 100.672C44.7334 100.566 44.8185 100.505 44.9061 100.494C44.9746 100.495 45.0423 100.53 45.1048 100.598C45.1672 100.665 45.2231 100.764 45.2688 100.886C45.3185 100.993 45.3586 101.122 45.3867 101.267C45.4148 101.412 45.4302 101.57 45.4322 101.73C45.4283 102.013 45.3884 102.287 45.3178 102.514L42.919 110.18L45.3095 117.881ZM53.6018 100.895C53.6552 101.011 53.6975 101.155 53.7257 101.315C53.7539 101.474 53.7674 101.647 53.7652 101.82C53.7672 101.992 53.7536 102.162 53.7254 102.319C53.6971 102.476 53.655 102.616 53.6018 102.731C53.4912 102.955 53.3496 103.073 53.2048 103.06H51.1591V118.545C51.1605 118.72 51.1466 118.893 51.1185 119.055C51.0904 119.216 51.0485 119.362 50.9957 119.482C50.8801 119.73 50.7306 119.867 50.5757 119.867C50.4208 119.867 50.2714 119.73 50.1558 119.482C50.1032 119.361 50.0615 119.216 50.0334 119.054C50.0053 118.893 49.9913 118.72 49.9924 118.545V103.06H47.9516C47.8064 103.073 47.6647 102.951 47.5562 102.719C47.5043 102.6 47.4636 102.456 47.4368 102.296C47.41 102.137 47.3978 101.965 47.401 101.793C47.3987 101.626 47.4113 101.459 47.4381 101.304C47.4649 101.149 47.5051 101.009 47.5562 100.895C47.6647 100.663 47.8064 100.54 47.9516 100.554H53.2047C53.3504 100.541 53.4925 100.663 53.6018 100.895V100.895Z" fill="#2C4A5D"/>
<path id="path10" d="M56.1173 119.372C55.7453 118.866 55.4358 118.133 55.2203 117.246C55.1564 117.027 55.1201 116.768 55.1157 116.501C55.1157 116.33 55.1312 116.161 55.1611 116.005C55.191 115.85 55.2346 115.713 55.2889 115.602C55.3825 115.367 55.5099 115.227 55.6451 115.21C55.7467 115.233 55.8451 115.306 55.9343 115.425C56.0234 115.543 56.1014 115.705 56.1631 115.9C56.2886 116.396 56.4659 116.805 56.6774 117.085C56.8889 117.366 57.1273 117.509 57.3689 117.501C57.5665 117.512 57.7629 117.427 57.9465 117.252C58.1301 117.077 58.2971 116.815 58.4376 116.481C58.5793 116.159 58.6914 115.769 58.7668 115.336C58.8422 114.904 58.8792 114.439 58.8754 113.97V101.875C58.8746 101.699 58.8894 101.524 58.919 101.362C58.9486 101.2 58.9922 101.056 59.047 100.938C59.1541 100.684 59.2986 100.543 59.449 100.545C59.5241 100.536 59.5991 100.565 59.6694 100.629C59.7397 100.693 59.8037 100.792 59.8575 100.918C59.9088 101.043 59.9491 101.191 59.9758 101.354C60.0025 101.518 60.015 101.692 60.0127 101.867V113.99C60.017 115.076 59.8978 116.145 59.6679 117.081C59.4401 118.014 59.1131 118.784 58.7202 119.313C58.3085 119.873 57.8421 120.16 57.3689 120.145C56.9307 120.156 56.499 119.889 56.1173 119.372V119.372ZM64.0191 119.576C63.5638 119.161 63.146 118.539 62.7888 117.744C62.716 117.61 62.6567 117.439 62.6152 117.242C62.5736 117.046 62.5508 116.83 62.5486 116.61C62.5494 116.442 62.5644 116.277 62.5924 116.123C62.6205 115.969 62.6612 115.831 62.712 115.716C62.7604 115.591 62.819 115.491 62.8843 115.424C62.9496 115.356 63.02 115.322 63.0911 115.323C63.2121 115.319 63.3291 115.428 63.4178 115.626C63.6939 116.258 64.0148 116.767 64.3656 117.128C64.7183 117.465 65.0954 117.63 65.475 117.615C65.9073 117.647 66.3337 117.367 66.6988 116.81C66.8481 116.609 66.9728 116.317 67.0605 115.964C67.1483 115.611 67.1959 115.209 67.1988 114.798C67.2016 114.356 67.1571 113.92 67.0696 113.531C66.982 113.142 66.8544 112.814 66.6988 112.577C66.2399 111.93 65.7363 111.486 65.2121 111.267C64.5469 111.011 63.9196 110.355 63.3886 109.36C63.1745 108.903 63.006 108.336 62.8957 107.701C62.7854 107.066 62.7361 106.379 62.7513 105.692C62.7423 104.667 62.8681 103.661 63.1108 102.817C63.3576 101.979 63.6972 101.324 64.0912 100.926C64.5417 100.469 65.027 100.244 65.516 100.263C65.9743 100.256 66.4295 100.443 66.8607 100.816C67.241 101.124 67.5896 101.623 67.8834 102.279C67.9609 102.417 68.0249 102.593 68.0706 102.797C68.1164 103 68.1428 103.225 68.1481 103.456C68.1481 103.621 68.1344 103.784 68.1077 103.935C68.081 104.087 68.042 104.224 67.9929 104.339C67.9459 104.465 67.8882 104.565 67.8236 104.633C67.7591 104.701 67.6892 104.734 67.6187 104.731C67.5223 104.74 67.4282 104.66 67.3556 104.507C67.1173 103.97 66.8352 103.558 66.5272 103.295C66.2082 102.986 65.8679 102.824 65.524 102.816C65.0932 102.763 64.666 103.029 64.3002 103.578C64.1603 103.8 64.0455 104.102 63.9661 104.457C63.8868 104.812 63.8452 105.209 63.8452 105.612C63.8452 106.015 63.8868 106.411 63.9661 106.766C64.0455 107.121 64.1603 107.423 64.3002 107.646C64.7187 108.232 65.1756 108.643 65.6514 108.862C66.1568 109.101 66.6498 109.471 67.122 109.965C67.4783 110.343 67.783 110.955 68.0011 111.73C68.222 112.621 68.3293 113.648 68.3099 114.684C68.3163 115.703 68.1856 116.699 67.9373 117.525C67.6761 118.376 67.3246 119.044 66.9194 119.459C66.4739 119.927 65.9922 120.162 65.506 120.149C65.0001 120.172 64.4967 119.978 64.0191 119.576V119.576Z" fill="#00C391"/>
<path id="path12" d="M4.76721 119.639C4.75556 119.59 4.74518 119.538 4.73612 119.486C4.67345 119.138 4.65416 118.754 4.68058 118.38H0.973165L6.48285 95.1002L8.29165 102.735L8.81615 100.506L7.2394 93.837C7.16382 93.4954 7.05378 93.2047 6.91933 92.9916C6.78488 92.7784 6.63033 92.6496 6.46979 92.6169C6.30964 92.6345 6.15475 92.7597 6.02274 92.9782C5.89074 93.1966 5.78691 93.4996 5.72307 93.8527L0.141486 117.415C0.0580406 117.747 0.00992737 118.124 0.00137939 118.512C-0.00716859 118.9 0.0241107 119.287 0.0924654 119.639C0.178324 119.964 0.300343 120.224 0.44472 120.392C0.589098 120.559 0.750073 120.626 0.90944 120.584H5.58418C5.4248 120.626 5.26374 120.56 5.11931 120.393C4.97489 120.225 4.8529 119.964 4.76721 119.639V119.639Z" fill="#00C492"/>
<path id="path14" d="M15.5151 117.415L10.9286 98.0153C10.8534 97.67 10.7432 97.3758 10.6081 97.1598C10.473 96.9439 10.3175 96.8131 10.1558 96.7795C9.99572 96.7961 9.84083 96.9204 9.7088 97.1382C9.57676 97.356 9.47289 97.6586 9.40905 98.0114L8.81592 100.506L9.34368 102.735L10.1605 99.2628L14.6982 118.38H12.9727C12.9948 118.696 12.9824 119.02 12.9368 119.321C12.9272 119.388 12.9151 119.452 12.9008 119.514L12.8861 119.584C12.7923 119.902 12.6674 120.16 12.5224 120.334C12.3773 120.509 12.2166 120.594 12.0544 120.584H14.7537C14.9159 120.595 15.0767 120.509 15.2218 120.335C15.3668 120.16 15.4917 119.902 15.5854 119.584C15.6593 119.243 15.6919 118.859 15.6795 118.475C15.6671 118.092 15.6101 117.725 15.5151 117.415Z" fill="#008776"/>
<path id="path16" d="M12.8865 119.585L12.9012 119.514C12.9155 119.453 12.9275 119.388 12.9372 119.322C12.9828 119.021 12.9952 118.696 12.9731 118.38C12.9477 118.039 12.8967 117.712 12.8228 117.415L9.34746 102.735L8.81644 100.507L8.28868 102.735L4.81487 117.416C4.74744 117.716 4.70212 118.043 4.68089 118.381C4.65294 118.753 4.67054 119.138 4.73156 119.487C4.74061 119.539 4.75099 119.591 4.76265 119.64C4.84853 119.965 4.97056 120.226 5.11494 120.393C5.25932 120.56 5.42029 120.627 5.57965 120.585H12.0499C12.2129 120.597 12.3745 120.512 12.5205 120.337C12.6664 120.162 12.7922 119.904 12.8865 119.585V119.585ZM8.81631 104.963L11.9927 118.38H5.64154L8.81631 104.963Z" fill="#2D4A5D"/>
</g>
</g>
<path id="bootstrap" class="icons" fill-rule="evenodd" clip-rule="evenodd" d="M222.203 180C220.224 180 218.76 182.44 218.825 185.085C218.888 187.627 218.807 190.919 218.218 193.603C217.628 196.295 216.63 198.001 215 198.22V200.692C216.63 200.912 217.628 202.617 218.218 205.309C218.807 207.994 218.888 211.286 218.825 213.828C218.76 216.473 220.224 218.913 222.203 218.913H242.477C244.456 218.913 245.92 216.473 245.854 213.828C245.791 211.286 245.873 207.994 246.461 205.309C247.052 202.617 248.047 200.911 249.677 200.692V198.22C248.047 198.001 247.052 196.296 246.461 193.603C245.873 190.919 245.791 187.627 245.854 185.085C245.92 182.44 244.456 180 242.477 180H222.202H222.203ZM238.51 203.953C238.51 207.596 236.581 209.805 233.38 209.805H227.93C227.775 209.805 227.625 209.718 227.515 209.563C227.405 209.408 227.343 209.197 227.343 208.978V189.935C227.343 189.716 227.405 189.505 227.515 189.35C227.625 189.194 227.775 189.107 227.93 189.107H233.349C236.018 189.107 237.77 191.144 237.77 194.271C237.77 196.466 236.591 198.431 235.09 198.775V198.889C237.134 199.205 238.51 201.199 238.51 203.953V203.953ZM232.786 191.732H229.679V197.914H232.296C234.319 197.914 235.434 196.767 235.434 194.715C235.434 192.793 234.475 191.732 232.786 191.732ZM229.679 200.367V207.18H232.9C235.006 207.18 236.122 205.99 236.122 203.752C236.122 201.515 234.975 200.367 232.765 200.367H229.679V200.367Z" fill="#7952B3"/>
<path id="tailwind-icon" class="icons" d="M268.964 99C263.907 99 260.746 102.8 259.482 110.399C261.378 106.599 263.591 105.174 266.12 106.124C267.562 106.666 268.593 108.239 269.735 109.98C271.594 112.816 273.746 116.098 278.446 116.098C283.503 116.098 286.664 112.298 287.928 104.699C286.032 108.499 283.819 109.924 281.291 108.974C279.848 108.432 278.817 106.859 277.676 105.118C275.816 102.282 273.664 99 268.964 99ZM259.482 116.098C254.425 116.098 251.264 119.898 250 127.497C251.896 123.697 254.109 122.272 256.637 123.222C258.08 123.764 259.111 125.337 260.253 127.078C262.112 129.914 264.264 133.196 268.964 133.196C274.021 133.196 277.182 129.396 278.446 121.797C276.55 125.597 274.337 127.022 271.809 126.072C270.366 125.53 269.335 123.957 268.194 122.216C266.334 119.38 264.182 116.098 259.482 116.098Z" fill="url(#paint0_linear_2_87)"/>
<g id="vuetify-icon" class="icons">
<path id="Vector_13" d="M227.759 0H217.56L227.759 17.8098" fill="#1697F6"/>
<path id="Vector_14" d="M227.759 0H237.959L227.759 17.8098" fill="#1867C0"/>
<path id="Vector_15" d="M227.758 22.9499V36.7284L206 5.34473H217.398" fill="#7BC6FF"/>
<path id="Vector_16" d="M227.759 22.9499V36.7284L249.518 5.34473H238.12" fill="#AEDDFF"/>
</g>
<g id="css-icon">
<path id="Vector_17" d="M183.648 140.029L166.395 134.989L162.55 89.6179H204.798L200.949 134.982L183.648 140.029V140.029Z" fill="#264DE4"/>
<path id="Vector_18" d="M197.654 132.094L200.943 93.3279H183.674V136.172L197.654 132.094V132.094Z" fill="#2965F1"/>
<path id="Vector_19" d="M171.364 110.155L171.838 115.72H183.674V110.155H171.364ZM170.412 98.8923L170.892 104.457H183.674V98.8923H170.412V98.8923ZM183.674 124.607L183.651 124.614L177.76 122.94L177.384 118.502H172.074L172.815 127.24L183.65 130.404L183.674 130.397V124.607Z" fill="#EBEBEB"/>
<path id="Vector_20" d="M172.493 77.2878H178.898V80.1063H175.172V82.9248H178.899V85.7431H172.493V77.2878ZM180.18 77.2878H186.586V79.7387H182.859V80.2288H186.586V85.8657H180.18V83.2921H183.907V82.8019H180.18V77.2878H180.18ZM187.867 77.2878H194.273V79.7387H190.546V80.2288H194.273V85.8657H187.867V83.2921H191.594V82.8019H187.867V77.2878H187.867Z" fill="black"/>
<path id="Vector_21" d="M195.95 110.155L196.905 98.8923H183.656V104.457H191.109L190.627 110.155H183.656V115.72H190.169L189.555 122.937L183.656 124.612V130.401L194.499 127.24L194.578 126.299L195.821 111.649L195.95 110.155V110.155Z" fill="white"/>
</g>
<g id="cog-java">
<g id="cog-three">
<path id="Vector_22" d="M133.998 62.7513C133.998 63.5821 133.434 64.2557 132.739 64.2557V65.3818C133.954 65.3818 134.94 64.204 134.94 62.7511C134.94 61.2984 133.954 60.1204 132.739 60.1204V61.2465C133.434 61.2466 133.998 61.9203 133.998 62.7513Z" fill="#F6D276"/>
<path id="Vector_23" d="M130.537 62.7512C130.537 64.2041 131.523 65.382 132.738 65.382V64.2559C132.043 64.2559 131.479 63.5822 131.479 62.7514C131.479 61.9206 132.043 61.2469 132.738 61.2469V60.1208C131.523 60.1205 130.537 61.2983 130.537 62.7512Z" fill="#F6E7AA"/>
<path id="Vector_24" d="M128.471 62.7513H128.471C128.471 65.5679 130.382 67.8509 132.738 67.8509V66.5093C131.001 66.5093 129.594 64.8269 129.594 62.7513C129.594 60.6758 131.001 58.9932 132.738 58.9932V57.6516C130.382 57.6514 128.471 59.9348 128.471 62.7513Z" fill="#F6E7AA"/>
<path id="Vector_25" d="M135.883 62.7513C135.883 64.8269 134.475 66.5093 132.738 66.5093V67.8509C135.095 67.8509 137.005 65.5677 137.005 62.7513H137.005C137.005 59.9348 135.095 57.6516 132.738 57.6516V58.9932C134.475 58.9932 135.883 60.6758 135.883 62.7513Z" fill="#F6D276"/>
<path id="Vector_26" d="M130.537 62.7512C130.537 61.2985 131.523 60.1205 132.739 60.1205V58.9932C131.002 58.9932 129.594 60.6757 129.594 62.7512C129.594 64.8269 131.002 66.5093 132.739 66.5093V65.382C131.523 65.3818 130.537 64.2041 130.537 62.7512Z" fill="#FAA338"/>
<path id="Vector_27" d="M135.883 62.7512C135.883 60.6757 134.475 58.9932 132.738 58.9932V60.1205C133.954 60.1205 134.939 61.2983 134.939 62.7512C134.939 64.2041 133.954 65.382 132.738 65.382V66.5093C134.475 66.5093 135.883 64.8269 135.883 62.7512Z" fill="#F2852A"/>
<path id="Vector_28" d="M139.699 61.8225H138.466C138.329 60.6088 137.931 59.4976 137.338 58.5686L138.211 57.5258C138.513 57.1645 138.513 56.5732 138.211 56.2119C137.908 55.8505 137.413 55.8505 137.111 56.2119L136.239 57.2547C135.461 56.5467 134.531 56.0697 133.516 55.9065V54.4324C133.516 53.9212 133.166 53.5032 132.739 53.5032V57.652C135.095 57.652 137.006 59.9354 137.006 62.7517H137.006C137.006 65.5683 135.095 67.8513 132.739 67.8513V72.0002C133.166 72.0002 133.516 71.5821 133.516 71.0712V69.597C134.532 69.4334 135.461 68.9569 136.239 68.2488L137.111 69.2915C137.413 69.653 137.908 69.653 138.211 69.2915C138.513 68.9303 138.513 68.3389 138.211 67.9775L137.338 66.9347C137.931 66.0057 138.329 64.8943 138.466 63.681H139.699C140.127 63.681 140.477 63.263 140.477 62.7518C140.477 62.2404 140.127 61.8225 139.699 61.8225Z" fill="#FAA338"/>
<path id="Vector_29" d="M128.471 62.7514H128.472C128.472 59.935 130.382 57.6518 132.738 57.6518V53.5029C132.311 53.5029 131.961 53.921 131.961 54.4321V55.9063C130.946 56.0697 130.016 56.5464 129.238 57.2544L128.366 56.2116C128.064 55.8503 127.569 55.8503 127.267 56.2116C126.964 56.573 126.964 57.1642 127.267 57.5256L128.139 58.5684C127.547 59.4974 127.148 60.6088 127.011 61.8222H125.777C125.35 61.8222 125 62.2401 125 62.7512C125 63.2624 125.35 63.6804 125.777 63.6804H127.011C127.148 64.8939 127.547 66.0051 128.139 66.9341L127.266 67.9769C126.964 68.3383 126.964 68.9297 127.266 69.2909C127.569 69.6524 128.063 69.6524 128.366 69.2909L129.238 68.2482C130.016 68.9563 130.946 69.433 131.961 69.5964V71.0706C131.961 71.5815 132.311 71.9996 132.738 71.9996V67.8507C130.382 67.8511 128.471 65.5679 128.471 62.7514Z" fill="#FDBB47"/>
<path id="Vector_30" d="M131.479 62.7512C131.479 63.5821 132.043 64.2557 132.738 64.2557V61.2466C132.043 61.2466 131.479 61.9202 131.479 62.7512Z" fill="#493633"/>
<path id="Vector_31" d="M133.998 62.7513C133.998 61.9205 133.434 61.2468 132.739 61.2468V64.2559C133.434 64.2558 133.998 63.5821 133.998 62.7513Z" fill="#342421"/>
</g>
<g id="cog-two">
<path id="Vector_32" d="M141.062 54.6228C141.062 55.617 141.736 56.423 142.568 56.423V52.8225C141.736 52.8225 141.062 53.6287 141.062 54.6228Z" fill="#F6E7AA"/>
<path id="Vector_33" d="M144.075 54.6228C144.075 53.6287 143.4 52.8225 142.568 52.8225V56.423C143.4 56.4232 144.075 55.6172 144.075 54.6228Z" fill="#F6D276"/>
<path id="Vector_34" d="M144.72 54.6229C144.72 56.0436 143.757 57.1948 142.568 57.1948V58.2135C144.223 58.2135 145.564 56.6109 145.564 54.6337H145.564C145.564 52.6568 144.223 51.054 142.568 51.054V52.0512C143.757 52.0512 144.72 53.2026 144.72 54.6229Z" fill="#F6D276"/>
<path id="Vector_35" d="M139.573 54.6337C139.573 56.6108 140.914 58.2134 142.568 58.2134V57.1947C141.379 57.1947 140.416 56.0435 140.416 54.6228C140.416 53.2024 141.379 52.051 142.568 52.051V51.0537C140.914 51.0539 139.573 52.6567 139.573 54.6337Z" fill="#F6E7AA"/>
<path id="Vector_36" d="M144.72 54.6229C144.72 53.2025 143.757 52.051 142.568 52.051V52.8227C143.4 52.8227 144.075 53.6289 144.075 54.6229C144.075 55.6172 143.4 56.4232 142.568 56.4232V57.1948C143.757 57.1948 144.72 56.0436 144.72 54.6229Z" fill="#F2852A"/>
<path id="Vector_37" d="M141.062 54.6229C141.062 53.6289 141.736 52.8227 142.568 52.8227V52.051C141.379 52.051 140.416 53.2025 140.416 54.6229C140.416 56.0436 141.379 57.1948 142.568 57.1948V56.4232C141.736 56.4233 141.062 55.6173 141.062 54.6229Z" fill="#FAA338"/>
<path id="Vector_38" d="M147.455 53.9815H146.589C146.493 53.1295 146.213 52.3496 145.797 51.6974L146.41 50.9653C146.622 50.7117 146.622 50.2966 146.41 50.043C146.197 49.7892 145.85 49.7892 145.638 50.043L145.025 50.7749C144.48 50.2778 143.827 49.9434 143.114 49.8285V48.7935C143.114 48.435 142.869 48.1414 142.568 48.1414V51.0537C144.223 51.0537 145.564 52.6565 145.564 54.6335H145.564C145.564 56.6106 144.223 58.2132 142.568 58.2132V61.1258C142.868 61.1258 143.114 60.8323 143.114 60.4736V59.4386C143.827 59.3239 144.48 58.9893 145.025 58.4922L145.638 59.2241C145.85 59.4779 146.197 59.4779 146.41 59.2241C146.622 58.9705 146.622 58.5555 146.41 58.3019L145.797 57.5697C146.213 56.9175 146.493 56.1376 146.589 55.2857H147.455C147.755 55.2857 148.001 54.9922 148.001 54.6333C148.001 54.2751 147.755 53.9815 147.455 53.9815Z" fill="#FAA338"/>
<path id="Vector_39" d="M139.573 54.6337C139.573 52.6568 140.914 51.0539 142.568 51.0539V48.1416C142.268 48.1416 142.022 48.4351 142.022 48.7938V49.8288C141.309 49.9435 140.657 50.2781 140.111 50.7752L139.499 50.0432C139.286 49.7894 138.939 49.7894 138.727 50.0432C138.515 50.2968 138.515 50.7119 138.727 50.9655L139.339 51.6976C138.923 52.3498 138.644 53.1298 138.547 53.9817H137.682C137.381 53.9817 137.136 54.2752 137.136 54.6339C137.136 54.9926 137.381 55.2863 137.682 55.2863H138.547C138.644 56.1382 138.923 56.9181 139.339 57.5703L138.727 58.3025C138.515 58.5561 138.515 58.9711 138.727 59.2247C138.939 59.4785 139.286 59.4785 139.499 59.2247L140.111 58.4928C140.657 58.9899 141.309 59.3243 142.022 59.4392V60.4742C142.022 60.8327 142.268 61.1264 142.568 61.1264V58.2135C140.914 58.2135 139.573 56.6108 139.573 54.6337Z" fill="#FDBB47"/>
</g>
<g id="cog-one">
<path id="Vector_40" d="M133.447 49.3115C133.447 48.3995 134.065 47.6603 134.828 47.6603V46.3828C133.475 46.3828 132.378 47.6941 132.378 49.3115C132.378 50.929 133.475 52.2401 134.828 52.2401V50.9627C134.065 50.9627 133.447 50.2235 133.447 49.3115Z" fill="#F6E7AA"/>
<path id="Vector_41" d="M137.279 49.3115C137.279 47.6939 136.182 46.3828 134.829 46.3828V47.6603C135.592 47.6603 136.21 48.3996 136.21 49.3115C136.21 50.2235 135.592 50.9627 134.829 50.9627V52.2401C136.182 52.2401 137.279 50.929 137.279 49.3115Z" fill="#F6D276"/>
<path id="Vector_42" d="M130.831 49.8449H131.539C131.618 50.5419 131.847 51.1801 132.187 51.7135L131.686 52.3124C131.512 52.5199 131.512 52.8597 131.686 53.0672C131.86 53.2747 132.144 53.2747 132.317 53.0672L132.818 52.4684C133.265 52.8749 133.799 53.1487 134.382 53.2426V54.0891C134.382 54.3826 134.583 54.6227 134.828 54.6227V52.2401C133.475 52.2401 132.378 50.929 132.378 49.3114C132.378 47.6939 133.475 46.3828 134.828 46.3828V44C134.583 44 134.382 44.2401 134.382 44.5336V45.3802C133.799 45.474 133.265 45.7478 132.818 46.1545L132.317 45.5557C132.144 45.3482 131.86 45.3482 131.686 45.5557C131.512 45.7632 131.512 46.1028 131.686 46.3103L132.187 46.9092C131.847 47.4428 131.618 48.0808 131.539 48.7778H130.831C130.585 48.7778 130.384 49.0178 130.384 49.3114C130.384 49.6049 130.585 49.8449 130.831 49.8449Z" fill="#FDBB47"/>
<path id="Vector_43" d="M137.279 49.3114C137.279 50.929 136.182 52.2401 134.829 52.2401V54.6227C135.074 54.6227 135.275 54.3827 135.275 54.0891V53.2426C135.858 53.1487 136.392 52.8749 136.839 52.4684L137.34 53.0672C137.513 53.2747 137.797 53.2747 137.971 53.0672C138.145 52.8597 138.145 52.5199 137.971 52.3124L137.47 51.7135C137.81 51.1801 138.039 50.5419 138.118 49.8449H138.826C139.072 49.8449 139.273 49.6049 139.273 49.3113C139.273 49.0178 139.072 48.7776 138.826 48.7776H138.118C138.039 48.0806 137.81 47.4426 137.47 46.909L137.971 46.3101C138.145 46.1026 138.145 45.763 137.971 45.5555C137.797 45.348 137.513 45.348 137.34 45.5555L136.839 46.1543C136.392 45.7476 135.858 45.4738 135.275 45.3801V44.5336C135.275 44.2401 135.074 44 134.829 44V46.3826C136.182 46.3826 137.279 47.6939 137.279 49.3114Z" fill="#FAA338"/>
<path id="Vector_44" d="M133.447 49.3115C133.447 50.2235 134.065 50.9627 134.828 50.9627V47.6602C134.065 47.6602 133.447 48.3995 133.447 49.3115Z" fill="#FAA338"/>
<path id="Vector_45" d="M136.21 49.3116C136.21 48.3996 135.592 47.6604 134.829 47.6604V50.963C135.592 50.9628 136.21 50.2236 136.21 49.3116Z" fill="#5D9165"/>
</g>
</g>
<g id="cog-css">
<g id="cog-three_2">
<path id="Vector_46" d="M193.998 66.7513C193.998 67.5821 193.434 68.2557 192.739 68.2557V69.3818C193.954 69.3818 194.94 68.204 194.94 66.7511C194.94 65.2984 193.954 64.1204 192.739 64.1204V65.2465C193.434 65.2466 193.998 65.9203 193.998 66.7513Z" fill="#522CBD"/>
<path id="Vector_47" d="M190.537 66.7512C190.537 68.2041 191.523 69.382 192.738 69.382V68.2559C192.043 68.2559 191.479 67.5822 191.479 66.7514C191.479 65.9206 192.043 65.2469 192.738 65.2469V64.1208C191.523 64.1205 190.537 65.2983 190.537 66.7512Z" fill="#4C347E"/>
<path id="Vector_48" d="M188.471 66.7513H188.471C188.471 69.5679 190.382 71.8509 192.738 71.8509V70.5093C191.001 70.5093 189.594 68.8269 189.594 66.7513C189.594 64.6758 191.001 62.9932 192.738 62.9932V61.6516C190.382 61.6514 188.471 63.9348 188.471 66.7513Z" fill="#4C347E"/>
<path id="Vector_49" d="M195.883 66.7513C195.883 68.8269 194.475 70.5093 192.738 70.5093V71.8509C195.095 71.8509 197.005 69.5677 197.005 66.7513H197.005C197.005 63.9348 195.095 61.6516 192.738 61.6516V62.9932C194.475 62.9932 195.883 64.6758 195.883 66.7513Z" fill="#522CBD"/>
<path id="Vector_50" d="M190.537 66.7512C190.537 65.2985 191.523 64.1205 192.739 64.1205V62.9932C191.002 62.9932 189.594 64.6757 189.594 66.7512C189.594 68.8269 191.002 70.5093 192.739 70.5093V69.382C191.523 69.3818 190.537 68.2041 190.537 66.7512Z" fill="#5F38FA"/>
<path id="Vector_51" d="M195.883 66.7512C195.883 64.6757 194.475 62.9932 192.738 62.9932V64.1205C193.954 64.1205 194.939 65.2983 194.939 66.7512C194.939 68.2041 193.954 69.382 192.738 69.382V70.5093C194.475 70.5093 195.883 68.8269 195.883 66.7512Z" fill="#4D49F8"/>
<path id="Vector_52" d="M199.699 65.8225H198.466C198.329 64.6088 197.931 63.4976 197.338 62.5686L198.211 61.5258C198.513 61.1645 198.513 60.5732 198.211 60.2119C197.908 59.8505 197.413 59.8505 197.111 60.2119L196.239 61.2547C195.461 60.5467 194.531 60.0697 193.516 59.9065V58.4324C193.516 57.9212 193.166 57.5032 192.739 57.5032V61.652C195.095 61.652 197.006 63.9354 197.006 66.7517H197.006C197.006 69.5683 195.095 71.8513 192.739 71.8513V76.0002C193.166 76.0002 193.516 75.5821 193.516 75.0712V73.597C194.532 73.4334 195.461 72.9569 196.239 72.2488L197.111 73.2915C197.413 73.653 197.908 73.653 198.211 73.2915C198.513 72.9303 198.513 72.3389 198.211 71.9775L197.338 70.9347C197.931 70.0057 198.329 68.8943 198.466 67.681H199.699C200.127 67.681 200.477 67.263 200.477 66.7518C200.477 66.2404 200.127 65.8225 199.699 65.8225Z" fill="#5F38FA"/>
<path id="Vector_53" d="M188.471 66.7514H188.472C188.472 63.935 190.382 61.6518 192.738 61.6518V57.5029C192.311 57.5029 191.961 57.921 191.961 58.4321V59.9063C190.946 60.0697 190.016 60.5464 189.238 61.2544L188.366 60.2116C188.064 59.8503 187.569 59.8503 187.267 60.2116C186.964 60.573 186.964 61.1642 187.267 61.5256L188.139 62.5684C187.547 63.4974 187.148 64.6088 187.011 65.8222H185.777C185.35 65.8222 185 66.2401 185 66.7512C185 67.2624 185.35 67.6804 185.777 67.6804H187.011C187.148 68.8939 187.547 70.0051 188.139 70.9341L187.266 71.9769C186.964 72.3383 186.964 72.9297 187.266 73.2909C187.569 73.6524 188.063 73.6524 188.366 73.2909L189.238 72.2482C190.016 72.9563 190.946 73.433 191.961 73.5964V75.0706C191.961 75.5815 192.311 75.9996 192.738 75.9996V71.8507C190.382 71.8511 188.471 69.5679 188.471 66.7514Z" fill="#6F51E3"/>
<path id="Vector_54" d="M191.479 66.7512C191.479 67.5821 192.043 68.2557 192.738 68.2557V65.2466C192.043 65.2466 191.479 65.9202 191.479 66.7512Z" fill="#493633"/>
<path id="Vector_55" d="M193.998 66.7513C193.998 65.9205 193.434 65.2468 192.739 65.2468V68.2559C193.434 68.2558 193.998 67.5821 193.998 66.7513Z" fill="#342421"/>
</g>
<g id="cog-two_2">
<path id="Vector_56" d="M201.062 58.6228C201.062 59.617 201.736 60.423 202.568 60.423V56.8225C201.736 56.8225 201.062 57.6287 201.062 58.6228Z" fill="#4C347E"/>
<path id="Vector_57" d="M204.075 58.6228C204.075 57.6287 203.4 56.8225 202.568 56.8225V60.423C203.4 60.4232 204.075 59.6172 204.075 58.6228Z" fill="#522CBD"/>
<path id="Vector_58" d="M204.72 58.6229C204.72 60.0436 203.757 61.1948 202.568 61.1948V62.2135C204.223 62.2135 205.564 60.6109 205.564 58.6337H205.564C205.564 56.6568 204.223 55.054 202.568 55.054V56.0512C203.757 56.0512 204.72 57.2026 204.72 58.6229Z" fill="#522CBD"/>
<path id="Vector_59" d="M199.573 58.6337C199.573 60.6108 200.914 62.2134 202.568 62.2134V61.1947C201.379 61.1947 200.416 60.0435 200.416 58.6228C200.416 57.2024 201.379 56.051 202.568 56.051V55.0537C200.914 55.0539 199.573 56.6567 199.573 58.6337Z" fill="#4C347E"/>
<path id="Vector_60" d="M204.72 58.6229C204.72 57.2025 203.757 56.051 202.568 56.051V56.8227C203.4 56.8227 204.075 57.6289 204.075 58.6229C204.075 59.6172 203.4 60.4232 202.568 60.4232V61.1948C203.757 61.1948 204.72 60.0436 204.72 58.6229Z" fill="#4D49F8"/>
<path id="Vector_61" d="M201.062 58.6229C201.062 57.6289 201.736 56.8227 202.568 56.8227V56.051C201.379 56.051 200.416 57.2025 200.416 58.6229C200.416 60.0436 201.379 61.1948 202.568 61.1948V60.4232C201.736 60.4233 201.062 59.6173 201.062 58.6229Z" fill="#5F38FA"/>
<path id="Vector_62" d="M207.455 57.9815H206.589C206.493 57.1295 206.213 56.3496 205.797 55.6974L206.41 54.9653C206.622 54.7117 206.622 54.2966 206.41 54.043C206.197 53.7892 205.85 53.7892 205.638 54.043L205.025 54.7749C204.48 54.2778 203.827 53.9434 203.114 53.8285V52.7935C203.114 52.435 202.869 52.1414 202.568 52.1414V55.0537C204.223 55.0537 205.564 56.6565 205.564 58.6335H205.564C205.564 60.6106 204.223 62.2132 202.568 62.2132V65.1258C202.868 65.1258 203.114 64.8323 203.114 64.4736V63.4386C203.827 63.3239 204.48 62.9893 205.025 62.4922L205.638 63.2241C205.85 63.4779 206.197 63.4779 206.41 63.2241C206.622 62.9705 206.622 62.5555 206.41 62.3019L205.797 61.5697C206.213 60.9175 206.493 60.1376 206.589 59.2857H207.455C207.755 59.2857 208.001 58.9922 208.001 58.6333C208.001 58.2751 207.755 57.9815 207.455 57.9815Z" fill="#5F38FA"/>
<path id="Vector_63" d="M199.573 58.6337C199.573 56.6568 200.914 55.0539 202.568 55.0539V52.1416C202.268 52.1416 202.022 52.4351 202.022 52.7938V53.8288C201.309 53.9435 200.657 54.2781 200.111 54.7752L199.499 54.0432C199.286 53.7894 198.939 53.7894 198.727 54.0432C198.515 54.2968 198.515 54.7119 198.727 54.9655L199.339 55.6976C198.923 56.3498 198.644 57.1298 198.547 57.9817H197.682C197.381 57.9817 197.136 58.2752 197.136 58.6339C197.136 58.9926 197.381 59.2863 197.682 59.2863H198.547C198.644 60.1382 198.923 60.9181 199.339 61.5703L198.727 62.3025C198.515 62.5561 198.515 62.9711 198.727 63.2247C198.939 63.4785 199.286 63.4785 199.499 63.2247L200.111 62.4928C200.657 62.9899 201.309 63.3243 202.022 63.4392V64.4742C202.022 64.8327 202.268 65.1264 202.568 65.1264V62.2135C200.914 62.2135 199.573 60.6108 199.573 58.6337Z" fill="#6F51E3"/>
</g>
<g id="cog-one_2">
<path id="Vector_64" d="M193.447 53.3115C193.447 52.3995 194.065 51.6603 194.828 51.6603V50.3828C193.475 50.3828 192.378 51.6941 192.378 53.3115C192.378 54.929 193.475 56.2401 194.828 56.2401V54.9627C194.065 54.9627 193.447 54.2235 193.447 53.3115Z" fill="#4C347E"/>
<path id="Vector_65" d="M197.279 53.3115C197.279 51.6939 196.182 50.3828 194.829 50.3828V51.6603C195.592 51.6603 196.21 52.3996 196.21 53.3115C196.21 54.2235 195.592 54.9627 194.829 54.9627V56.2401C196.182 56.2401 197.279 54.929 197.279 53.3115Z" fill="#522CBD"/>
<path id="Vector_66" d="M190.831 53.8449H191.539C191.618 54.5419 191.847 55.1801 192.187 55.7135L191.686 56.3124C191.512 56.5199 191.512 56.8597 191.686 57.0672C191.86 57.2747 192.144 57.2747 192.317 57.0672L192.818 56.4684C193.265 56.8749 193.799 57.1487 194.382 57.2426V58.0891C194.382 58.3826 194.583 58.6227 194.828 58.6227V56.2401C193.475 56.2401 192.378 54.929 192.378 53.3114C192.378 51.6939 193.475 50.3828 194.828 50.3828V48C194.583 48 194.382 48.2401 194.382 48.5336V49.3802C193.799 49.474 193.265 49.7478 192.818 50.1545L192.317 49.5557C192.144 49.3482 191.86 49.3482 191.686 49.5557C191.512 49.7632 191.512 50.1028 191.686 50.3103L192.187 50.9092C191.847 51.4428 191.618 52.0808 191.539 52.7778H190.831C190.585 52.7778 190.384 53.0178 190.384 53.3114C190.384 53.6049 190.585 53.8449 190.831 53.8449Z" fill="#6F51E3"/>
<path id="Vector_67" d="M197.279 53.3114C197.279 54.929 196.182 56.2401 194.829 56.2401V58.6227C195.074 58.6227 195.275 58.3827 195.275 58.0891V57.2426C195.858 57.1487 196.392 56.8749 196.839 56.4684L197.34 57.0672C197.513 57.2747 197.797 57.2747 197.971 57.0672C198.145 56.8597 198.145 56.5199 197.971 56.3124L197.47 55.7135C197.81 55.1801 198.039 54.5419 198.118 53.8449H198.826C199.072 53.8449 199.273 53.6049 199.273 53.3113C199.273 53.0178 199.072 52.7776 198.826 52.7776H198.118C198.039 52.0806 197.81 51.4426 197.47 50.909L197.971 50.3101C198.145 50.1026 198.145 49.763 197.971 49.5555C197.797 49.348 197.513 49.348 197.34 49.5555L196.839 50.1543C196.392 49.7476 195.858 49.4738 195.275 49.3801V48.5336C195.275 48.2401 195.074 48 194.829 48V50.3826C196.182 50.3826 197.279 51.6939 197.279 53.3114Z" fill="#5F38FA"/>
<path id="Vector_68" d="M193.447 53.3115C193.447 54.2235 194.065 54.9627 194.828 54.9627V51.6602C194.065 51.6602 193.447 52.3995 193.447 53.3115Z" fill="#5F38FA"/>
<path id="Vector_69" d="M196.21 53.3116C196.21 52.3996 195.592 51.6604 194.829 51.6604V54.963C195.592 54.9628 196.21 54.2236 196.21 53.3116Z" fill="#5D9165"/>
</g>
</g>
</g>
<defs>
<linearGradient id="paint0_linear_2_87" x1="248.946" y1="109.943" x2="286.992" y2="124.541" gradientUnits="userSpaceOnUse">
<stop stop-color="#2298BD"/>
<stop offset="1" stop-color="#0ED7B5"/>
</linearGradient>
</defs>
</svg>
