<svg width="535" height="286" viewBox="0 0 535 286" fill="none" xmlns="http://www.w3.org/2000/svg">
<g id="javascript">
<g id="vuejs">
<path id="path893" fill-rule="evenodd" clip-rule="evenodd" d="M122.015 158.657H127.891L113.053 200.586L98.1177 158.657H104.128L113.053 183.899L122.015 158.657Z" fill="#41B883"/>
<path id="path895" fill-rule="evenodd" clip-rule="evenodd" d="M116.461 158.649H122.05L113.045 183.943L104.112 158.649H109.614L113.045 168.387L116.461 158.649Z" fill="#35495E"/>
<path id="path897" fill-rule="evenodd" clip-rule="evenodd" d="M131.398 166.926C131.398 166.617 131.503 166.359 131.712 166.153C131.922 165.947 132.14 165.844 132.369 165.844C132.686 165.844 132.883 166.04 132.959 166.431L136.31 184.805L139.641 166.431C139.73 166.04 139.921 165.844 140.213 165.844C140.454 165.844 140.679 165.957 140.888 166.184C141.098 166.411 141.203 166.669 141.203 166.957C141.203 166.978 141.2 167.009 141.193 167.05C141.187 167.091 141.184 167.133 141.184 167.174L137.319 187.743C137.179 188.341 136.843 188.64 136.31 188.64C135.777 188.64 135.453 188.341 135.339 187.743L131.436 167.174C131.411 167.05 131.398 166.968 131.398 166.926H131.398ZM141.353 182.763V174.721C141.353 174.474 141.432 174.257 141.591 174.072C141.749 173.886 141.936 173.793 142.152 173.793C142.355 173.793 142.536 173.891 142.695 174.087C142.853 174.283 142.933 174.494 142.933 174.721V182.763C142.933 183.691 143.149 184.526 143.58 185.269C144.012 186.011 144.526 186.382 145.122 186.382C145.706 186.382 146.214 186.016 146.645 185.284C147.077 184.552 147.293 183.712 147.293 182.763V174.69C147.293 174.463 147.372 174.257 147.531 174.071C147.689 173.885 147.876 173.793 148.092 173.793C148.321 173.793 148.508 173.88 148.654 174.056C148.8 174.231 148.873 174.442 148.873 174.69V182.763C148.873 184.351 148.501 185.738 147.759 186.923C147.017 188.109 146.138 188.702 145.122 188.702C144.094 188.702 143.209 188.109 142.466 186.923C141.724 185.738 141.353 184.351 141.353 182.763H141.353ZM150.165 182.701V179.453C150.165 177.866 150.536 176.494 151.278 175.34C152.021 174.185 152.913 173.607 153.953 173.607C154.943 173.607 155.8 174.149 156.524 175.231C157.247 176.314 157.609 177.67 157.609 179.299C157.609 179.897 157.564 180.376 157.475 180.737C157.387 181.098 157.25 181.356 157.066 181.51C156.882 181.665 156.711 181.763 156.552 181.804C156.393 181.845 156.181 181.866 155.914 181.866H151.745V182.794C151.745 183.928 151.996 184.836 152.497 185.516C152.998 186.197 153.649 186.537 154.448 186.537C154.867 186.537 155.232 186.434 155.543 186.227C155.854 186.021 156.105 185.82 156.295 185.624C156.485 185.428 156.638 185.33 156.752 185.33C156.93 185.33 157.082 185.459 157.209 185.717C157.336 185.975 157.399 186.238 157.399 186.506C157.399 186.98 157.11 187.465 156.533 187.96C155.955 188.455 155.242 188.702 154.391 188.702C153.147 188.702 152.132 188.15 151.345 187.047C150.558 185.944 150.165 184.495 150.165 182.701L150.165 182.701ZM151.745 180.134H155.267C155.597 180.134 155.819 180.067 155.933 179.933C156.048 179.799 156.105 179.536 156.105 179.144C156.105 178.216 155.895 177.402 155.476 176.701C155.058 175.999 154.544 175.649 153.934 175.649C153.338 175.649 152.824 175.974 152.392 176.623C151.961 177.273 151.745 178.072 151.745 179.02L151.745 180.134ZM158.406 187.032C158.406 186.578 158.501 186.191 158.692 185.872C158.882 185.552 159.117 185.392 159.396 185.392C159.662 185.392 159.891 185.552 160.081 185.872C160.272 186.191 160.367 186.578 160.367 187.032C160.367 187.465 160.272 187.841 160.081 188.161C159.891 188.48 159.662 188.64 159.396 188.64C159.117 188.64 158.882 188.48 158.692 188.161C158.501 187.841 158.406 187.465 158.406 187.032ZM159.812 194.424C159.812 194.094 159.876 193.821 160.003 193.605C160.13 193.388 160.282 193.28 160.46 193.28C160.955 193.28 161.278 192.981 161.431 192.383C161.583 191.785 161.659 190.888 161.659 189.692V174.69C161.659 174.422 161.732 174.205 161.878 174.04C162.024 173.875 162.211 173.793 162.44 173.793C162.668 173.793 162.859 173.875 163.011 174.04C163.163 174.205 163.239 174.422 163.239 174.69V189.692C163.239 191.486 163.024 192.909 162.592 193.96C162.16 195.012 161.507 195.538 160.631 195.538C160.085 195.538 159.812 195.167 159.812 194.424L159.812 194.424ZM161.45 168.287C161.45 167.895 161.545 167.555 161.735 167.266C161.926 166.978 162.16 166.833 162.44 166.833C162.706 166.833 162.935 166.978 163.125 167.266C163.315 167.555 163.411 167.895 163.411 168.287C163.411 168.679 163.315 169.024 163.125 169.323C162.935 169.622 162.706 169.772 162.44 169.772C162.173 169.772 161.942 169.622 161.745 169.323C161.548 169.024 161.45 168.679 161.45 168.287H161.45ZM164.417 186.351C164.417 186.083 164.471 185.82 164.579 185.562C164.687 185.304 164.817 185.175 164.969 185.175C165.071 185.175 165.217 185.299 165.407 185.547C165.598 185.794 165.87 186.036 166.226 186.274C166.581 186.511 167 186.629 167.482 186.629C168.117 186.629 168.577 186.444 168.863 186.072C169.148 185.701 169.291 185.237 169.291 184.681C169.291 184 169.132 183.459 168.815 183.057C168.498 182.655 168.111 182.35 167.654 182.144C167.197 181.938 166.74 181.711 166.283 181.464C165.826 181.216 165.439 180.804 165.122 180.226C164.804 179.649 164.646 178.886 164.646 177.937C164.646 176.762 164.903 175.747 165.417 174.891C165.931 174.035 166.714 173.607 167.768 173.607C168.441 173.607 169.056 173.777 169.615 174.117C170.173 174.458 170.452 174.844 170.452 175.277C170.452 175.525 170.392 175.803 170.271 176.113C170.151 176.422 170.002 176.576 169.824 176.576C169.773 176.576 169.529 176.427 169.091 176.128C168.653 175.829 168.218 175.679 167.787 175.679C167.203 175.679 166.768 175.901 166.483 176.345C166.197 176.788 166.054 177.288 166.054 177.845C166.054 178.422 166.213 178.876 166.53 179.206C166.848 179.536 167.238 179.793 167.701 179.979C168.165 180.165 168.625 180.391 169.082 180.659C169.538 180.928 169.926 181.386 170.243 182.036C170.56 182.685 170.719 183.526 170.719 184.557C170.719 185.835 170.44 186.846 169.881 187.588C169.323 188.33 168.542 188.702 167.539 188.702C166.676 188.702 165.94 188.449 165.331 187.944C164.722 187.439 164.417 186.908 164.417 186.351L164.417 186.351Z" fill="#010101"/>
</g>
<g id="jslogo">
<path id="Vector" d="M96.0522 209.374H167.317V286H96.0522V209.374Z" fill="#F7DF1E"/>
<path id="Vector_2" d="M114.792 273.408L120.246 269.859C121.298 271.865 122.255 273.562 124.551 273.562C126.751 273.562 128.139 272.636 128.139 269.036V244.552H134.836V269.138C134.836 276.596 130.77 279.991 124.838 279.991C119.48 279.991 116.371 277.007 114.792 273.407L114.792 273.408ZM138.474 272.636L143.926 269.241C145.362 271.762 147.228 273.613 150.528 273.613C153.303 273.613 155.073 272.122 155.073 270.064C155.073 267.595 153.255 266.721 150.193 265.281L148.519 264.509C143.688 262.298 140.483 259.52 140.483 253.656C140.483 248.255 144.309 244.14 150.289 244.14C154.547 244.14 157.608 245.735 159.809 249.901L154.594 253.502C153.446 251.29 152.203 250.416 150.289 250.416C148.327 250.416 147.084 251.753 147.084 253.502C147.084 255.662 148.328 256.537 151.198 257.875L152.872 258.646C158.565 261.269 161.769 263.944 161.769 269.961C161.769 276.443 157.034 279.992 150.671 279.992C144.453 279.992 140.434 276.803 138.473 272.636" fill="black"/>
</g>
<g id="jquery">
<g id="Group">
<path id="Vector_3" d="M130.26 52.1862L129.748 54.7819L130.26 52.1852V52.1862ZM132.894 57.8244L132.33 57.8194L132.894 57.8244ZM132.755 61.703L129.375 61.7209L132.755 61.703ZM133.463 57.8304L132.898 57.8254L133.463 57.8304ZM133.052 61.3753L133.642 58.161L133.052 61.3753ZM145.502 46.5798L144.405 53.9607L145.502 46.5798ZM142.681 46.5698L141.849 52.0839L142.681 46.5698Z" fill="#131B28"/>
<path id="Vector_4" d="M145.307 46.2391H142.961C142.831 46.2391 142.702 46.388 142.674 46.5707L141.009 57.5999C140.981 57.7816 140.852 57.9306 140.722 57.9306H139.061C137.418 57.9306 137.608 56.305 137.951 54.0778L137.961 54.0102L138.161 52.491L138.247 51.8654L139.004 46.5707C139.031 46.388 138.945 46.2381 138.815 46.2381H136.407C136.341 46.2413 136.277 46.2755 136.225 46.3353C136.174 46.3952 136.137 46.4775 136.121 46.5697L135.023 53.9318C134.426 57.8283 134.584 61.5441 137.826 61.6602H143.008C143.138 61.6602 143.267 61.5113 143.294 61.3286L145.489 46.5668C145.516 46.3841 145.431 46.2351 145.301 46.2351L145.307 46.2391ZM154.661 57.9693C154.791 57.9693 154.869 58.1182 154.85 58.301L154.623 59.8947L154.661 57.9693ZM154.401 61.4885L154.628 59.8937L154.401 61.4885ZM154.123 61.8241L149.8 61.8539L154.123 61.8241Z" fill="#131B28"/>
<path id="Vector_5" d="M148.395 55.9167C148.393 55.7419 148.532 55.442 148.662 55.442L148.369 55.4351C148.23 57.3356 148.395 55.9167 148.395 55.9167V55.9167ZM150.008 61.8518H149.963H150.008ZM154.663 57.9791C154.794 57.9791 154.871 58.1281 154.853 58.3108L154.594 60.1538L154.663 57.9791ZM151.119 61.8488H151.109H151.119ZM150.543 61.8518H150.509H150.543ZM150.368 61.8518H150.312H150.368ZM150.189 61.8518H150.14H150.189ZM150.509 61.8518H150.367H150.509Z" fill="#131B28"/>
<path id="Vector_6" d="M151.109 61.8491L150.543 61.8521L151.109 61.8491ZM154.119 61.8223L151.117 61.8481L154.119 61.8223ZM154.396 61.4897L154.587 60.1551L154.396 61.4907V61.4897ZM150.305 61.8521H150.181H150.305ZM149.954 61.8541H149.788H149.954ZM150.131 61.8521H149.992H150.131ZM115.81 55.9567L116.174 53.645L115.758 56.2864L115.709 56.618L115.811 55.9547L115.81 55.9567ZM120.173 46.2006H117.597C117.53 46.2043 117.466 46.2384 117.414 46.2979C117.362 46.3574 117.325 46.4391 117.307 46.5312L116.819 49.6095C116.811 49.6493 116.809 49.6914 116.815 49.7322C116.821 49.773 116.833 49.8112 116.851 49.8436C116.869 49.8761 116.892 49.9018 116.919 49.9186C116.946 49.9354 116.975 49.9428 117.004 49.9402H119.6C119.731 49.9402 119.86 49.7912 119.888 49.6095L120.359 46.5243C120.387 46.3426 120.304 46.1936 120.172 46.1936L120.173 46.2006ZM119.618 51.3343L118.855 56.337L119.618 51.3343ZM112.134 67.9094L114.258 67.9332C113.631 67.9332 112.595 67.9163 112.133 67.9084L112.134 67.9094Z" fill="#131B28"/>
<path id="Vector_7" d="M116.546 51.3334L116.181 53.6451L116.546 51.3334ZM119.432 51.0018H116.842C116.775 51.0055 116.711 51.0396 116.659 51.0991C116.607 51.1586 116.57 51.2404 116.553 51.3324L115.824 55.9558L115.723 56.6191L115.029 61.3388C114.994 61.559 114.953 61.7767 114.904 61.9912C114.904 61.9912 114.418 64.0566 113.603 64.0338L112.795 64.012C112.729 64.0146 112.665 64.0474 112.612 64.1056C112.56 64.1638 112.522 64.2444 112.503 64.3357L111.965 67.5748C111.956 67.6144 111.955 67.6564 111.96 67.6971C111.965 67.7379 111.977 67.7762 111.995 67.809C112.013 67.8417 112.036 67.8678 112.062 67.8851C112.088 67.9024 112.117 67.9104 112.146 67.9085L114.272 67.9333C116.309 67.9333 117.383 66.3177 118.072 61.6705L119.633 51.3434C119.661 51.1616 119.576 51.0127 119.446 51.0127L119.432 51.0018ZM156.322 61.6635C156.191 61.6635 156.114 61.5146 156.135 61.3319L158.089 48.2383L156.322 61.6635ZM159.037 61.3319L159.828 55.7433L159.037 61.3319Z" fill="#131B28"/>
<path id="Vector_8" d="M156.164 61.4986C156.148 61.4072 156.157 61.1838 156.185 61.0021L157.112 54.786L156.135 61.3328C156.107 61.5155 156.192 61.6644 156.322 61.6644H156.559C156.429 61.6644 156.179 61.5899 156.164 61.4986V61.4986ZM158.884 61.5899C158.813 61.6297 158.648 61.6644 158.518 61.6644H158.755C158.821 61.6607 158.885 61.6262 158.936 61.5662C158.987 61.5062 159.024 61.4239 159.039 61.3318L159.087 61.0001C159.061 61.1828 158.948 61.5492 158.878 61.5899H158.884ZM159.434 58.5375L159.783 56.0709L159.434 58.5375ZM167.142 49.116L167.249 49.7515C167.279 49.9332 167.197 50.0812 167.067 50.0821" fill="#131B28"/>
<path id="Vector_9" d="M159.085 60.9999L159.432 58.5372L159.085 60.9999ZM167.034 48.4633L167.14 49.1147L167.034 48.4633ZM159.783 56.0726L159.878 55.4133L160.251 52.9159L159.829 55.744L159.783 56.0716V56.0726ZM158.121 48.0234L158.039 48.5696L157.112 54.7857L158.089 48.2389L158.121 48.0244V48.0234Z" fill="#131B28"/>
<path id="Vector_10" d="M167.251 49.7515L167.143 49.116L166.984 48.123C166.773 46.9513 166.154 46.2731 164.809 46.2731L158.619 46.2671C158.553 46.2704 158.489 46.3045 158.437 46.3644C158.386 46.4242 158.349 46.5065 158.333 46.5988L158.237 47.2472L158.099 48.2273L156.194 60.9902C156.167 61.1729 156.158 61.3874 156.174 61.4867C156.19 61.586 156.439 61.6525 156.569 61.6525H158.526C158.656 61.6525 158.821 61.6188 158.892 61.578C158.964 61.5373 159.069 61.1809 159.101 60.9882L159.843 55.7313L160.638 50.4049C160.665 50.2232 160.794 50.0752 160.924 50.0742L167.081 50.0703C167.211 50.0703 167.293 49.9213 167.263 49.7396L167.251 49.7515ZM175.177 43.9981L174.703 44.0011H172.732C172.66 44.0072 172.59 44.0354 172.526 44.0837C172.462 44.132 172.406 44.1993 172.362 44.2811L168.004 53.4166C167.93 53.5706 167.846 53.5477 167.816 53.367L167.496 51.3542C167.479 51.2621 167.441 51.1804 167.389 51.1209C167.337 51.0614 167.273 51.0273 167.206 51.0235H164.405C164.275 51.0235 164.197 51.1695 164.233 51.3492L165.482 57.6428C165.518 57.8216 165.52 58.1165 165.489 58.2982L164.934 61.3437C164.924 61.3828 164.922 61.4246 164.927 61.4654C164.931 61.5061 164.943 61.5446 164.961 61.5772C164.978 61.6099 165.002 61.6357 165.028 61.6523C165.054 61.6689 165.083 61.6758 165.112 61.6724H167.888C168.018 61.6724 168.152 61.5234 168.184 61.3447L168.739 58.2992C168.782 58.0848 168.85 57.8821 168.94 57.6994L176.015 44.2622C176.094 44.1133 176.051 43.9922 175.921 43.9941L175.178 44.0011L175.177 43.9981ZM152.918 51.8805C152.902 52.0791 152.771 52.228 152.641 52.228H149.088C148.965 52.228 148.903 52.1089 148.921 51.9599L148.924 51.9331L148.94 51.8467C149.287 50.5558 149.971 49.7088 151.269 49.7088C152.731 49.7088 153.016 50.7316 152.917 51.8805H152.918ZM151.877 46.0139C147.318 46.0139 146.238 49.9739 145.632 53.9707C145.026 58.045 145.078 61.8551 149.796 61.8551H150.544L151.12 61.8521L154.122 61.8263C154.187 61.8219 154.251 61.7872 154.302 61.7272C154.352 61.6672 154.388 61.5853 154.404 61.4936L154.86 58.3042C154.886 58.1214 154.801 57.9725 154.671 57.9725H150.43C148.744 57.9725 148.242 57.331 148.427 55.4453H155.206C155.317 55.4424 155.418 55.346 155.457 55.1951C155.464 55.1683 155.471 55.1395 155.474 55.1107C156.48 49.679 156.192 46.0179 151.88 46.0179L151.877 46.0139ZM130.327 51.8596L130.263 52.1843C130.263 52.1853 129.751 54.782 129.751 54.782L129.239 57.3777C129.217 57.4692 129.177 57.5493 129.123 57.6075C129.07 57.6656 129.005 57.6991 128.937 57.7034H126.228C124.172 57.7034 123.672 55.4026 124.172 52.0096C124.672 48.5391 125.654 46.3813 127.677 46.1628C130.441 45.8649 130.994 48.6473 130.327 51.8586L130.327 51.8596ZM132.185 57.5048C132.185 57.5048 133.462 53.0661 133.753 50.5012C134.149 47.0684 132.948 42.0906 128.309 42.0906C123.697 42.0906 121.694 46.843 120.93 52.0205C120.167 57.2238 121.167 61.7876 125.753 61.7518L132.752 61.7151C132.819 61.7105 132.884 61.6764 132.937 61.6174C132.99 61.5583 133.029 61.4773 133.048 61.3854L133.638 58.1701C133.648 58.1312 133.65 58.0894 133.646 58.0487C133.641 58.0079 133.63 57.9695 133.612 57.9367C133.594 57.904 133.571 57.8781 133.545 57.8612C133.519 57.8444 133.49 57.8373 133.461 57.8404H132.332C132.221 57.8394 132.159 57.7372 132.171 57.6021C132.173 57.5773 132.178 57.5525 132.185 57.5266V57.5048Z" fill="#131B28"/>
<path id="Vector_11" d="M155.015 54.5337C155.015 54.6568 154.946 54.7561 154.859 54.7561C154.773 54.7561 154.704 54.6568 154.704 54.5337C154.704 54.4106 154.773 54.3113 154.859 54.3113C154.946 54.3113 155.015 54.4106 155.015 54.5337Z" fill="#131B28"/>
</g>
<path id="Vector_12" d="M96.9657 48.7618C95.6924 51.3813 95.8506 54.7892 96.8235 57.5716L96.895 57.7702L96.9408 57.8953L96.9685 57.9678L97.0192 58.0969L97.1122 58.3253L97.1649 58.4504L97.2725 58.6917L97.3183 58.793L97.4744 59.1157L97.5049 59.1753L97.6472 59.4464L97.7006 59.5437L97.8394 59.7751L97.8894 59.8614L98.0726 60.1613L98.0837 60.1782L98.2696 60.4592L98.3293 60.5456L98.4778 60.7442L98.5389 60.8266L98.7422 61.0918L98.7811 61.1384L98.9663 61.3619L99.0357 61.4492L99.1898 61.622L99.2731 61.7213L99.4465 61.9001L99.527 61.9815L99.695 62.1404L99.7678 62.2099L100.032 62.4402L100.104 62.4998L100.302 62.6587L100.412 62.7381L100.553 62.8434L100.586 62.8662L100.644 62.906L100.868 63.0549L100.915 63.0847L101.177 63.2396L101.24 63.2754L101.487 63.4064L101.518 63.4223L101.793 63.5514L101.859 63.5792L102.137 63.6944C108.296 65.303 110.085 58.3978 110.085 58.3978C108.582 61.198 105.921 61.9378 103.388 61.1156C103.292 61.0858 103.199 61.0421 103.106 61.0024L103.037 60.9726C102.946 60.9327 102.856 60.8906 102.766 60.8465L102.729 60.8266C102.648 60.7869 102.569 60.7432 102.489 60.6995L102.422 60.6618C102.335 60.6127 102.249 60.5614 102.163 60.5079L102.112 60.4751L101.894 60.3301L101.825 60.2864C101.768 60.2467 101.712 60.205 101.656 60.1633L101.544 60.0789C101.476 60.0267 101.408 59.9727 101.342 59.9171L101.274 59.8624C101.185 59.7875 101.097 59.7107 101.01 59.6321C100.986 59.6102 100.963 59.5864 100.939 59.5645L100.752 59.3858C100.731 59.3659 100.712 59.3461 100.691 59.3262L100.515 59.1425L100.436 59.0581L100.276 58.8794L100.205 58.798L100.006 58.5576C99.9989 58.5477 99.992 58.5408 99.985 58.5318C99.9143 58.4325 99.8449 58.3511 99.7755 58.2597L99.7165 58.1783L99.5659 57.9678L99.5069 57.8834C99.4443 57.7919 99.3828 57.6989 99.3223 57.6044C99.2556 57.5 99.1902 57.3941 99.126 57.2866L99.0774 57.2032L98.9428 56.9649L98.8942 56.8656L98.7387 56.5697C97.3425 53.837 96.8381 50.0596 97.9671 46.9575L96.9657 48.7618ZM100.925 46.5553C100.004 48.442 100.054 50.991 100.773 52.9959C100.893 53.333 101.029 53.6582 101.18 53.969C101.319 54.252 101.471 54.5887 101.654 54.8161L101.861 55.1139L101.915 55.1904L102.126 55.4714L102.136 55.4843L102.383 55.7763L102.438 55.8388L102.696 56.1069L102.877 56.2787L103.067 56.4475L103.095 56.4704L103.265 56.6054L103.325 56.6501L103.443 56.7375L103.461 56.7494L103.707 56.9142L103.761 56.946L103.97 57.0632L104.056 57.1089L104.242 57.2012L104.325 57.2409C104.414 57.2807 104.501 57.3402 104.593 57.3522C109.349 58.4792 110.447 53.2412 110.447 53.2412C109.457 55.2808 107.541 56.2539 105.496 55.4953L105.226 55.384L105.145 55.3463L104.958 55.253L104.872 55.2073L104.67 55.0901L104.614 55.0573L104.367 54.8925L104.242 54.7932L104.17 54.7406L103.976 54.5817L103.785 54.4149L103.605 54.2431L103.348 53.975L103.29 53.9094C102.388 52.8986 101.685 51.5263 101.347 49.9494C101 48.3239 101.07 46.4997 101.682 45.0192L100.925 46.5553ZM104.243 44.907C103.7 46.0489 103.646 47.4689 104.024 48.733C104.421 50.0735 105.235 51.1162 106.185 51.6127L106.303 51.6722L106.355 51.6961L106.525 51.7656C109.151 52.4905 109.856 49.8372 110.052 49.4469C109.427 50.7319 108.386 51.0407 107.093 50.5938C106.988 50.5541 106.884 50.5083 106.781 50.4568C106.655 50.393 106.531 50.3198 106.411 50.2374C106.182 50.0799 105.965 49.8903 105.763 49.6714C104.611 48.4202 103.889 46.037 104.648 44.0957" fill="#0868AC"/>
</g>
<g id="nuxt">
<g id="Calque 1-2">
<path id="path8" d="M128.259 99.5903C128.307 99.7151 128.344 99.8625 128.369 100.024C128.393 100.185 128.405 100.358 128.403 100.53V118.601C128.405 118.792 128.391 118.983 128.364 119.162C128.336 119.341 128.295 119.504 128.242 119.642C128.19 119.781 128.126 119.89 128.055 119.963C127.985 120.036 127.909 120.071 127.832 120.066C127.746 120.066 127.66 120.032 127.577 119.964C127.502 119.906 127.434 119.798 127.382 119.651L122.715 104.409V118.757C122.72 119.094 122.67 119.421 122.578 119.667C122.486 119.912 122.359 120.055 122.225 120.066C122.215 120.067 122.204 120.067 122.194 120.066C122.126 120.072 122.058 120.043 121.994 119.978C121.931 119.914 121.873 119.817 121.826 119.693C121.779 119.569 121.742 119.422 121.718 119.261C121.693 119.1 121.682 118.929 121.684 118.757V100.649C121.683 100.458 121.697 100.268 121.726 100.092C121.755 99.9156 121.798 99.7563 121.853 99.6242C121.905 99.492 121.966 99.3879 122.035 99.3186C122.103 99.2494 122.176 99.2165 122.25 99.222C122.343 99.2209 122.436 99.2655 122.523 99.3533C122.602 99.43 122.672 99.5587 122.724 99.7258L127.37 115.002V100.53C127.368 100.364 127.379 100.197 127.402 100.041C127.426 99.8855 127.462 99.7427 127.507 99.6212C127.553 99.4997 127.607 99.4019 127.668 99.3334C127.729 99.2649 127.794 99.2271 127.861 99.222C127.871 99.2213 127.881 99.2213 127.891 99.222C127.96 99.2157 128.027 99.2452 128.091 99.3086C128.154 99.3721 128.212 99.468 128.259 99.5903H128.259ZM137.845 99.5903C137.946 99.8718 137.999 100.241 137.993 100.619V112.051C138.003 113.528 137.86 114.987 137.578 116.285C137.311 117.509 136.915 118.525 136.432 119.219C135.932 119.939 135.365 120.31 134.788 120.294C134.207 120.317 133.633 119.954 133.126 119.24C132.641 118.549 132.243 117.533 131.975 116.306C131.693 115.008 131.55 113.55 131.56 112.072V100.64C131.558 100.449 131.572 100.258 131.601 100.081C131.63 99.9037 131.673 99.7438 131.729 99.6115C131.785 99.4732 131.852 99.3645 131.925 99.2918C131.999 99.2191 132.077 99.1839 132.156 99.1882C132.23 99.1883 132.304 99.2259 132.372 99.2986C132.44 99.3713 132.502 99.4777 132.554 99.6115C132.609 99.7414 132.652 99.8985 132.681 100.073C132.71 100.247 132.724 100.435 132.723 100.623V112.055C132.717 113.031 132.815 113.993 133.008 114.841C133.186 115.631 133.445 116.288 133.758 116.745C134.071 117.203 134.426 117.444 134.788 117.445C135.158 117.452 135.522 117.215 135.845 116.759C136.17 116.308 136.44 115.646 136.628 114.841C136.824 113.996 136.924 113.033 136.918 112.055V100.623C136.912 100.248 136.963 99.8813 137.06 99.5946C137.109 99.4563 137.17 99.3467 137.238 99.2736C137.306 99.2004 137.379 99.1655 137.453 99.1712C137.526 99.167 137.599 99.2021 137.667 99.2744C137.734 99.3466 137.795 99.4543 137.844 99.5901L137.845 99.5903ZM146.979 117.923C147.051 118.169 147.088 118.466 147.086 118.77C147.089 118.959 147.075 119.148 147.046 119.323C147.017 119.498 146.973 119.654 146.917 119.782C146.813 120.03 146.674 120.167 146.531 120.167C146.44 120.176 146.35 120.126 146.269 120.022C146.188 119.918 146.119 119.764 146.068 119.574L143.761 111.847L141.507 119.562C141.457 119.755 141.388 119.913 141.307 120.022C141.227 120.13 141.136 120.186 141.044 120.184C140.977 120.188 140.91 120.157 140.848 120.092C140.785 120.028 140.729 119.933 140.682 119.811C140.635 119.704 140.598 119.573 140.572 119.427C140.547 119.281 140.533 119.124 140.533 118.965C140.536 118.606 140.586 118.26 140.677 117.982L143.11 109.671L140.665 101.423C140.589 101.182 140.546 100.884 140.545 100.577C140.544 100.388 140.558 100.2 140.587 100.026C140.616 99.8516 140.659 99.6945 140.714 99.5647C140.766 99.431 140.827 99.3246 140.896 99.2519C140.964 99.1791 141.038 99.1416 141.112 99.1414C141.2 99.1425 141.288 99.1946 141.367 99.2938C141.45 99.3933 141.522 99.5467 141.574 99.7383L143.854 107.423L146.112 99.8142C146.161 99.6234 146.228 99.4644 146.306 99.3504C146.384 99.2363 146.472 99.1704 146.563 99.158C146.634 99.1589 146.704 99.1971 146.768 99.27C146.833 99.3429 146.89 99.449 146.937 99.5813C146.989 99.6963 147.03 99.8363 147.059 99.9928C147.088 100.149 147.104 100.319 147.106 100.492C147.102 100.797 147.061 101.093 146.988 101.338L144.511 109.612L146.979 117.923ZM155.544 99.5903C155.599 99.7166 155.643 99.8712 155.672 100.044C155.701 100.216 155.715 100.402 155.713 100.59C155.715 100.774 155.701 100.958 155.672 101.127C155.642 101.297 155.599 101.449 155.544 101.572C155.43 101.814 155.283 101.941 155.134 101.928H153.021V118.639C153.022 118.828 153.008 119.016 152.979 119.19C152.95 119.364 152.907 119.521 152.852 119.651C152.733 119.918 152.579 120.066 152.419 120.066C152.259 120.066 152.104 119.918 151.985 119.651C151.93 119.521 151.887 119.363 151.858 119.189C151.829 119.015 151.815 118.828 151.816 118.639V101.928H149.708C149.558 101.942 149.412 101.81 149.3 101.559C149.246 101.431 149.204 101.276 149.177 101.103C149.149 100.931 149.136 100.746 149.14 100.56C149.137 100.379 149.15 100.199 149.178 100.032C149.206 99.8648 149.247 99.7143 149.3 99.5907C149.412 99.3401 149.558 99.2081 149.708 99.2224H155.134C155.284 99.2087 155.431 99.3404 155.544 99.5903V99.5903Z" fill="#2C4A5D"/>
<path id="path10" d="M158.142 119.532C157.758 118.986 157.438 118.194 157.215 117.237C157.149 117.001 157.112 116.721 157.107 116.433C157.107 116.248 157.123 116.066 157.154 115.899C157.185 115.731 157.23 115.583 157.286 115.463C157.383 115.21 157.515 115.058 157.654 115.04C157.759 115.065 157.861 115.143 157.953 115.272C158.045 115.4 158.125 115.575 158.189 115.785C158.319 116.32 158.502 116.761 158.72 117.064C158.939 117.367 159.185 117.522 159.435 117.513C159.639 117.524 159.841 117.433 160.031 117.244C160.221 117.055 160.393 116.772 160.538 116.412C160.685 116.064 160.8 115.643 160.878 115.177C160.956 114.71 160.994 114.208 160.991 113.702V100.649C160.99 100.458 161.005 100.269 161.036 100.095C161.066 99.92 161.111 99.7639 161.168 99.6367C161.278 99.3634 161.428 99.2111 161.583 99.2132C161.66 99.2038 161.738 99.2346 161.811 99.3038C161.883 99.373 161.949 99.4792 162.005 99.6155C162.058 99.75 162.099 99.9102 162.127 100.086C162.155 100.263 162.168 100.451 162.165 100.64V113.723C162.17 114.896 162.046 116.049 161.809 117.059C161.574 118.066 161.236 118.898 160.83 119.468C160.405 120.073 159.923 120.382 159.435 120.366C158.982 120.378 158.536 120.09 158.142 119.532V119.532ZM166.303 119.752C165.833 119.304 165.401 118.633 165.032 117.775C164.957 117.63 164.896 117.445 164.853 117.234C164.81 117.022 164.787 116.789 164.784 116.551C164.785 116.37 164.801 116.191 164.83 116.026C164.859 115.86 164.901 115.71 164.953 115.586C165.003 115.451 165.064 115.344 165.131 115.271C165.198 115.198 165.271 115.161 165.345 115.163C165.47 115.158 165.59 115.275 165.682 115.489C165.967 116.171 166.299 116.721 166.661 117.11C167.025 117.474 167.415 117.652 167.807 117.635C168.253 117.671 168.694 117.368 169.071 116.767C169.225 116.55 169.354 116.235 169.444 115.854C169.535 115.473 169.584 115.039 169.587 114.595C169.59 114.118 169.544 113.647 169.454 113.228C169.363 112.808 169.231 112.454 169.071 112.199C168.597 111.5 168.077 111.021 167.535 110.785C166.848 110.509 166.2 109.801 165.652 108.727C165.431 108.233 165.257 107.621 165.143 106.936C165.029 106.251 164.978 105.51 164.994 104.768C164.984 103.662 165.114 102.576 165.365 101.665C165.62 100.761 165.971 100.054 166.377 99.624C166.843 99.1314 167.344 98.8877 167.849 98.9084C168.322 98.9009 168.793 99.103 169.238 99.5054C169.631 99.8378 169.991 100.376 170.294 101.085C170.374 101.233 170.44 101.423 170.487 101.643C170.535 101.863 170.562 102.106 170.568 102.355C170.568 102.532 170.553 102.708 170.526 102.872C170.498 103.035 170.458 103.184 170.407 103.308C170.359 103.444 170.299 103.552 170.232 103.625C170.166 103.698 170.094 103.734 170.021 103.731C169.921 103.74 169.824 103.654 169.749 103.489C169.503 102.91 169.212 102.464 168.893 102.181C168.564 101.848 168.213 101.672 167.857 101.664C167.412 101.607 166.971 101.894 166.593 102.486C166.449 102.726 166.33 103.052 166.248 103.435C166.166 103.818 166.123 104.246 166.123 104.681C166.123 105.116 166.166 105.544 166.248 105.927C166.33 106.31 166.449 106.636 166.593 106.877C167.026 107.509 167.497 107.953 167.989 108.19C168.511 108.447 169.02 108.846 169.508 109.379C169.876 109.788 170.19 110.448 170.416 111.285C170.644 112.246 170.755 113.355 170.735 114.473C170.741 115.572 170.606 116.647 170.35 117.538C170.08 118.457 169.717 119.178 169.298 119.625C168.838 120.131 168.341 120.385 167.839 120.371C167.316 120.395 166.796 120.185 166.303 119.752V119.752Z" fill="#00C391"/>
<path id="path12" d="M105.107 119.82C105.095 119.767 105.084 119.712 105.075 119.655C105.01 119.279 104.99 118.865 105.017 118.461H101.188L106.879 93.3368L108.747 101.576L109.289 99.1713L107.66 91.9735C107.582 91.6048 107.468 91.2911 107.33 91.061C107.191 90.831 107.031 90.692 106.865 90.6567C106.7 90.6757 106.54 90.8108 106.404 91.0466C106.267 91.2824 106.16 91.6094 106.094 91.9905L100.329 117.42C100.243 117.779 100.193 118.185 100.185 118.604C100.176 119.022 100.208 119.44 100.279 119.82C100.367 120.171 100.493 120.452 100.642 120.632C100.792 120.813 100.958 120.885 101.122 120.841H105.951C105.786 120.886 105.62 120.814 105.47 120.633C105.321 120.453 105.195 120.171 105.107 119.82V119.82Z" fill="#00C492"/>
<path id="path14" d="M116.208 117.42L111.471 96.4828C111.393 96.1102 111.279 95.7927 111.14 95.5596C111 95.3265 110.839 95.1854 110.672 95.1492C110.507 95.167 110.347 95.3012 110.211 95.5363C110.074 95.7713 109.967 96.0979 109.901 96.4786L109.289 99.1714L109.834 101.576L110.677 97.8293L115.364 118.461H113.582C113.605 118.802 113.592 119.152 113.545 119.477C113.535 119.549 113.522 119.619 113.508 119.685L113.492 119.761C113.395 120.104 113.266 120.382 113.117 120.57C112.967 120.759 112.801 120.851 112.633 120.84H115.421C115.589 120.852 115.755 120.759 115.905 120.571C116.054 120.383 116.183 120.104 116.28 119.761C116.357 119.393 116.39 118.978 116.377 118.564C116.365 118.151 116.306 117.754 116.208 117.42Z" fill="#008776"/>
<path id="path16" d="M113.493 119.762L113.508 119.685C113.523 119.619 113.535 119.55 113.545 119.478C113.592 119.153 113.605 118.803 113.582 118.462C113.556 118.094 113.503 117.741 113.427 117.42L109.837 101.577L109.289 99.1719L108.744 101.577L105.156 117.421C105.086 117.745 105.04 118.098 105.018 118.462C104.989 118.864 105.007 119.279 105.07 119.656C105.079 119.713 105.09 119.768 105.102 119.821C105.191 120.172 105.317 120.453 105.466 120.634C105.615 120.814 105.781 120.886 105.946 120.842H112.629C112.797 120.854 112.964 120.762 113.115 120.573C113.265 120.385 113.395 120.106 113.493 119.762V119.762ZM109.289 103.982L112.57 118.462H106.01L109.289 103.982Z" fill="#2D4A5D"/>
</g>
</g>
<path id="bootstrap" fill-rule="evenodd" clip-rule="evenodd" d="M21.4039 132.747C18.9288 132.747 17.0973 135.792 17.1793 139.094C17.258 142.266 17.1558 146.375 16.4198 149.725C15.6813 153.085 14.4332 155.214 12.394 155.487V158.573C14.4332 158.847 15.6813 160.975 16.4198 164.335C17.1558 167.686 17.2579 171.794 17.1792 174.966C17.0972 178.268 18.9287 181.313 21.4042 181.313H46.7659C49.241 181.313 51.0721 178.268 50.9901 174.966C50.9114 171.794 51.0137 167.686 51.7496 164.335C52.4881 160.975 53.7332 158.846 55.7724 158.573V155.487C53.7333 155.213 52.4882 153.085 51.7496 149.725C51.0136 146.375 50.9114 142.266 50.9901 139.094C51.0721 135.792 49.241 132.747 46.7659 132.747H21.4035H21.4039ZM41.8031 162.643C41.8031 167.189 39.3901 169.947 35.3857 169.947H28.569C28.374 169.947 28.187 169.838 28.0491 169.644C27.9112 169.45 27.8338 169.187 27.8338 168.913V145.147C27.8338 144.873 27.9112 144.61 28.0491 144.416C28.187 144.223 28.374 144.114 28.569 144.114H35.3469C38.6859 144.114 40.8773 146.656 40.8773 150.558C40.8773 153.298 39.4031 155.75 37.525 156.18V156.323C40.0817 156.717 41.8031 159.205 41.8031 162.643V162.643ZM34.6424 147.389H30.7556V155.105H34.0293C36.56 155.105 37.9553 153.673 37.9553 151.113C37.9551 148.714 36.7554 147.389 34.6424 147.389ZM30.7556 158.167V166.67H34.7854C37.4203 166.67 38.816 165.184 38.816 162.392C38.816 159.599 37.3812 158.166 34.616 158.166H30.7556V158.167Z" fill="#7952B3"/>
<path id="tailwind-icon" d="M28.8819 21.585C23.6589 21.585 20.3944 25.6857 19.0887 33.8869C21.0473 29.7862 23.3324 28.2484 25.944 29.2737C27.4339 29.8585 28.4989 31.556 29.6778 33.4347C31.5982 36.4955 33.8206 40.0379 38.6752 40.0379C43.8982 40.0379 47.1627 35.9371 48.4685 27.7359C46.5098 31.8367 44.2248 33.3744 41.6132 32.3492C40.1232 31.7643 39.0582 30.0668 37.8793 28.1881C35.9589 25.1273 33.7365 21.585 28.8819 21.585ZM19.0887 40.0379C13.8656 40.0379 10.6011 44.1386 9.29541 52.3398C11.2541 48.2391 13.5391 46.7013 16.1507 47.7266C17.6406 48.3114 18.7057 50.0089 19.8845 51.8876C21.8049 54.9485 24.0274 58.4908 28.8819 58.4908C34.105 58.4908 37.3695 54.3901 38.6752 46.1888C36.7165 50.2896 34.4315 51.8273 31.8199 50.8021C30.33 50.2173 29.2649 48.5197 28.0861 46.641C26.1657 43.5802 23.9432 40.0379 19.0887 40.0379Z" fill="url(#paint0_linear_2_87)"/>
<g id="vuetify-icon">
<path id="Vector_13" d="M31.7684 78.7849H21.2344L31.7684 98.0061" fill="#1697F6"/>
<path id="Vector_14" d="M31.7686 78.7849H42.3026L31.7686 98.0061" fill="#1867C0"/>
<path id="Vector_15" d="M31.768 103.553V118.424L9.29541 84.5532H21.067" fill="#7BC6FF"/>
<path id="Vector_16" d="M31.7686 103.553V118.424L54.2411 84.5532H42.4695" fill="#AEDDFF"/>
</g>
<g id="css-icon">
<path id="Vector_17" d="M32.1062 285.72L5.85099 279.155L0 220.042H64.2911L58.4341 279.146L32.1062 285.72V285.72Z" fill="#264DE4"/>
<path id="Vector_18" d="M53.4202 275.382L58.4252 224.875H32.146V280.695L53.4202 275.382V275.382Z" fill="#2965F1"/>
<path id="Vector_19" d="M13.4134 246.799L14.1347 254.049H32.1459V246.799H13.4134ZM11.9639 232.125L12.6955 239.375H32.1459V232.125H11.9639V232.125ZM32.1459 265.628L32.1106 265.637L23.147 263.456L22.5739 257.674H14.4943L15.6218 269.058L32.1088 273.18L32.1459 273.171V265.628Z" fill="#EBEBEB"/>
<path id="Vector_20" d="M15.1309 203.977H24.8787V207.649H19.2074V211.321H24.8792V214.993H15.1309V203.977ZM26.8286 203.977H36.5767V207.17H30.9051V207.809H36.5767V215.153H26.8288V211.8H32.5004V211.161H26.8283V203.977H26.8286ZM38.5265 203.977H48.2746V207.17H42.6031V207.809H48.2746V215.153H38.5265V211.8H44.1981V211.161H38.5268V203.977H38.5265Z" fill="black"/>
<path id="Vector_21" d="M50.8266 246.799L52.2795 232.125H32.1179V239.375H43.459L42.7267 246.799H32.1179V254.049H42.0289L41.0944 263.452L32.1177 265.634V273.177L48.6177 269.058L48.7387 267.833L50.6303 248.746L50.8266 246.799V246.799Z" fill="white"/>
</g>
<g id="cog-java">
<g id="cog-three">
<path id="Vector_22" d="M317.823 51.7578C317.823 54.5209 315.83 56.7612 313.371 56.7612V60.5063C317.671 60.5063 321.156 56.5891 321.156 51.7572C321.156 46.9258 317.671 43.0081 313.371 43.0081V46.7531C315.83 46.7537 317.823 48.9941 317.823 51.7578Z" fill="#F6D276"/>
<path id="Vector_23" d="M305.584 51.7575C305.584 56.5894 309.07 60.5066 313.369 60.5066V56.7615C310.91 56.7615 308.917 54.5212 308.917 51.7581C308.917 48.9949 310.91 46.7546 313.369 46.7546V43.0095C309.07 43.0083 305.584 46.9255 305.584 51.7575Z" fill="#F6E7AA"/>
<path id="Vector_24" d="M298.278 51.7577H298.277C298.277 61.1251 305.035 68.7178 313.369 68.7178V64.2561C307.226 64.2561 302.248 58.6608 302.248 51.7577C302.248 44.8552 307.226 39.2594 313.369 39.2594V34.7976C305.035 34.797 298.278 42.3909 298.278 51.7577Z" fill="#F6E7AA"/>
<path id="Vector_25" d="M324.49 51.7577C324.49 58.6608 319.511 64.2561 313.369 64.2561V68.7178C321.703 68.7178 328.46 61.1245 328.46 51.7577H328.46C328.46 42.3909 321.703 34.7976 313.369 34.7976V39.2594C319.511 39.2594 324.49 44.8552 324.49 51.7577Z" fill="#F6D276"/>
<path id="Vector_26" d="M305.585 51.7576C305.585 46.9263 309.071 43.0085 313.37 43.0085V39.2593C307.228 39.2593 302.249 44.8551 302.249 51.7576C302.249 58.6607 307.228 64.2559 313.37 64.2559V60.5067C309.071 60.5061 305.585 56.5895 305.585 51.7576Z" fill="#FAA338"/>
<path id="Vector_27" d="M324.49 51.7576C324.49 44.8551 319.511 39.2593 313.369 39.2593V43.0085C317.668 43.0085 321.154 46.9257 321.154 51.7576C321.154 56.5895 317.668 60.5067 313.369 60.5067V64.2559C319.511 64.2559 324.49 58.6607 324.49 51.7576Z" fill="#F2852A"/>
<path id="Vector_28" d="M337.99 48.6686H333.627C333.144 44.6323 331.734 40.9368 329.638 37.8471L332.724 34.379C333.793 33.1772 333.793 31.211 332.724 30.0092C331.654 28.8074 329.905 28.8074 328.835 30.0092L325.75 33.4773C323 31.1226 319.711 29.5365 316.121 28.9937V24.091C316.121 22.3911 314.884 21.0007 313.371 21.0007V34.7987C321.706 34.7987 328.463 42.3926 328.463 51.7588H328.462C328.462 61.1262 321.705 68.7189 313.371 68.7189V82.5169C314.884 82.5169 316.121 81.1265 316.121 79.4272V74.5246C319.712 73.9806 323 72.3957 325.75 70.041L328.835 73.5084C329.905 74.7108 331.655 74.7108 332.724 73.5084C333.793 72.3072 333.793 70.3404 332.724 69.1386L329.638 65.6705C331.734 62.5809 333.144 58.8847 333.627 54.8497H337.99C339.503 54.8497 340.74 53.4593 340.74 51.7594C340.74 50.0584 339.503 48.6686 337.99 48.6686Z" fill="#FAA338"/>
<path id="Vector_29" d="M298.278 51.7581H298.278C298.278 42.3913 305.035 34.798 313.369 34.798V21C311.857 21 310.62 22.3904 310.62 24.0902V28.9929C307.028 29.5363 303.74 31.1218 300.991 33.4765L297.905 30.0085C296.835 28.8067 295.086 28.8067 294.016 30.0085C292.947 31.2103 292.947 33.1765 294.016 34.3783L297.102 37.8464C295.007 40.936 293.596 44.6322 293.113 48.6678H288.75C287.237 48.6678 286 50.0577 286 51.7575C286 53.4573 287.238 54.8477 288.75 54.8477H293.112C293.596 58.8834 295.007 62.579 297.102 65.6686L294.016 69.1367C292.947 70.3385 292.947 72.3053 294.016 73.5065C295.085 74.7089 296.835 74.7089 297.904 73.5065L300.99 70.0391C303.739 72.3937 307.028 73.9792 310.619 74.5227V79.4253C310.619 81.1246 311.856 82.515 313.369 82.515V68.717C305.035 68.7182 298.278 61.1249 298.278 51.7581Z" fill="#FDBB47"/>
<path id="Vector_30" d="M308.917 51.7572C308.917 54.5203 310.91 56.7607 313.369 56.7607V46.7532C310.91 46.7532 308.917 48.9935 308.917 51.7572Z" fill="#493633"/>
<path id="Vector_31" d="M317.823 51.7579C317.823 48.9947 315.83 46.7544 313.371 46.7544V56.7619C315.83 56.7613 317.823 54.521 317.823 51.7579Z" fill="#342421"/>
</g>
</g>
<g id="csharp">
<path id="Vector_32" d="M367.68 231.14C367.679 229.833 367.387 228.679 366.796 227.688C366.216 226.713 365.346 225.897 364.18 225.251C354.556 219.944 344.922 214.653 335.3 209.34C332.706 207.908 330.191 207.961 327.616 209.413C323.785 211.574 304.605 222.082 298.89 225.248C296.536 226.551 295.39 228.546 295.39 231.137C295.386 241.81 295.39 252.484 295.386 263.157C295.386 264.435 295.667 265.567 296.231 266.543C296.812 267.547 297.694 268.386 298.887 269.046C304.602 272.212 323.785 282.72 327.615 284.881C330.191 286.334 332.706 286.386 335.301 284.954C344.923 279.641 354.557 274.35 364.184 269.043C365.376 268.383 366.258 267.543 366.839 266.54C367.403 265.564 367.684 264.432 367.684 263.154C367.684 263.154 367.684 241.813 367.68 231.14Z" fill="#A179DC"/>
<path id="Vector_33" d="M331.645 247.043L296.231 266.543C296.812 267.547 297.694 268.386 298.886 269.046C304.602 272.212 323.785 282.72 327.615 284.881C330.191 286.334 332.706 286.386 335.301 284.954C344.923 279.641 354.557 274.35 364.184 269.043C365.376 268.383 366.258 267.543 366.839 266.54L331.645 247.043Z" fill="#280068"/>
<path id="Vector_34" d="M367.68 231.14C367.679 229.833 367.387 228.679 366.796 227.688L331.646 247.043L366.839 266.54C367.403 265.564 367.683 264.432 367.684 263.154C367.684 263.154 367.684 241.813 367.68 231.14" fill="#390091"/>
<g id="Group_2">
<path id="Vector_35" d="M352.496 239.753V243.398H356.308V239.753H358.213V243.398H362.025V245.221H358.213V248.865H362.025V250.688H358.213V254.333H356.308V250.688H352.496V254.333H350.59V250.688H346.779V248.865H350.59V245.221H346.779V243.398H350.59V239.753H352.496ZM356.308 245.22H352.496V248.865H356.308V245.22Z" fill="white"/>
<path id="Vector_36" d="M331.723 221.448C341.665 221.448 350.344 226.611 354.993 234.286L354.948 234.212L343.251 240.652C340.947 236.921 336.722 234.403 331.876 234.351L331.723 234.35C324.333 234.35 318.342 240.08 318.342 247.147C318.339 249.374 318.948 251.563 320.107 253.496C322.413 257.347 326.749 259.944 331.723 259.944C336.728 259.944 341.089 257.314 343.384 253.422L343.328 253.515L355.007 259.985C350.409 267.595 341.848 272.742 332.023 272.844L331.723 272.846C321.751 272.846 313.047 267.651 308.409 259.936C306.145 256.169 304.85 251.803 304.85 247.147C304.85 232.954 316.881 221.448 331.723 221.448L331.723 221.448Z" fill="white"/>
</g>
</g>
<g id=".netcore">
<path id="Vector_37" d="M294.339 177.514C294.175 177.373 293.975 177.261 293.755 177.182C293.535 177.103 293.299 177.066 293.058 177.066C292.818 177.062 292.582 177.103 292.362 177.178C292.142 177.257 291.942 177.369 291.778 177.51C291.609 177.647 291.476 177.809 291.388 177.987C291.301 178.17 291.255 178.361 291.255 178.552C291.25 178.747 291.296 178.938 291.388 179.116C291.481 179.295 291.614 179.457 291.783 179.594C291.947 179.735 292.146 179.846 292.366 179.922C292.587 179.997 292.824 180.033 293.064 180.029C293.302 180.03 293.539 179.992 293.759 179.917C293.979 179.843 294.178 179.732 294.344 179.594C294.518 179.461 294.652 179.299 294.744 179.12C294.836 178.942 294.882 178.751 294.882 178.556C294.882 178.361 294.836 178.17 294.744 177.991C294.647 177.809 294.513 177.647 294.339 177.514V177.514ZM315.778 174.144C315.752 175.073 315.809 176.007 315.942 176.933H315.88C315.737 176.705 315.419 176.281 314.933 175.663L303.253 160.808H299.708V179.772H302.433V166.062C302.464 165.195 302.418 164.327 302.305 163.46H302.407C302.602 163.875 302.853 164.273 303.15 164.647L315.148 179.772H318.503V160.808H315.778V174.144ZM336.981 177.688H327.35V171.118H335.777V169.117H327.35V162.817H336.392V160.808H324.558V179.772H336.966L336.981 177.688ZM339.066 160.808V162.817H345.777V179.772H348.502V162.817H355.29V160.808H339.066ZM312.356 184.487C311.675 184.707 311.06 185.043 310.553 185.471C310.03 185.923 309.62 186.455 309.354 187.04C309.088 187.625 308.97 188.244 309 188.862C308.949 190.008 309.441 191.128 310.384 191.983C310.855 192.386 311.429 192.697 312.064 192.905C312.699 193.112 313.38 193.204 314.062 193.179C315.086 193.208 316.106 193.033 317.033 192.668L317.043 191.701C316.193 192.104 315.225 192.303 314.241 192.282C313.713 192.299 313.186 192.224 312.699 192.062C312.212 191.9 311.772 191.651 311.413 191.336C310.663 190.63 310.278 189.717 310.338 188.787C310.276 187.804 310.691 186.841 311.49 186.102C311.869 185.761 312.335 185.496 312.853 185.313C313.372 185.134 313.933 185.048 314.497 185.06C315.394 185.047 316.275 185.226 317.059 185.579V184.537C316.246 184.271 315.373 184.147 314.497 184.172C313.765 184.163 313.032 184.267 312.356 184.487V184.487ZM325.127 187.459C324.784 187.167 324.368 186.939 323.907 186.79C323.445 186.641 322.949 186.575 322.453 186.596C321.925 186.575 321.403 186.646 320.911 186.799C320.419 186.953 319.973 187.185 319.594 187.48C319.225 187.812 318.944 188.198 318.759 188.621C318.575 189.045 318.498 189.489 318.534 189.937C318.483 190.788 318.846 191.622 319.543 192.257C319.891 192.56 320.312 192.801 320.783 192.963C321.254 193.121 321.761 193.199 322.268 193.183C322.786 193.195 323.303 193.116 323.785 192.955C324.266 192.793 324.697 192.548 325.05 192.236C325.768 191.58 326.14 190.722 326.085 189.846C326.146 188.974 325.803 188.123 325.127 187.459ZM324.189 191.722C323.964 191.933 323.682 192.099 323.365 192.207C323.048 192.316 322.704 192.364 322.361 192.349C322.007 192.361 321.659 192.307 321.336 192.199C321.013 192.087 320.726 191.921 320.491 191.705C320 191.213 319.753 190.59 319.799 189.958C319.753 189.306 319.999 188.663 320.491 188.148C320.721 187.932 321.008 187.762 321.331 187.646C321.654 187.534 322.007 187.48 322.355 187.492C322.704 187.476 323.047 187.53 323.365 187.642C323.682 187.754 323.964 187.924 324.189 188.14C324.655 188.662 324.881 189.299 324.83 189.941C324.881 190.572 324.656 191.207 324.189 191.722V191.722ZM330.127 187.052C329.742 187.33 329.461 187.691 329.322 188.094V186.791H328.042V193.033H329.322V189.85C329.281 189.273 329.466 188.696 329.845 188.206C329.983 188.028 330.168 187.878 330.393 187.774C330.618 187.671 330.869 187.608 331.126 187.604C331.453 187.584 331.781 187.654 332.058 187.804V186.774C331.822 186.712 331.576 186.683 331.331 186.691C330.89 186.687 330.465 186.816 330.127 187.052V187.052ZM339.553 189.63C339.614 188.837 339.322 188.057 338.733 187.426C338.441 187.16 338.082 186.949 337.678 186.812C337.273 186.675 336.837 186.612 336.402 186.633C335.921 186.621 335.439 186.699 334.993 186.857C334.553 187.015 334.158 187.251 333.841 187.55C333.145 188.208 332.784 189.055 332.832 189.92C332.765 190.784 333.098 191.639 333.764 192.311C334.087 192.598 334.486 192.822 334.927 192.971C335.367 193.121 335.849 193.183 336.325 193.166C337.273 193.204 338.21 192.996 338.999 192.573V191.635C338.325 192.078 337.486 192.324 336.617 192.332C336.284 192.349 335.946 192.307 335.634 192.207C335.321 192.108 335.034 191.963 334.799 191.767C334.341 191.319 334.109 190.747 334.148 190.165H339.563L339.553 189.63ZM334.138 189.339C334.204 188.845 334.471 188.38 334.891 188.019C335.079 187.855 335.308 187.725 335.562 187.637C335.816 187.549 336.09 187.506 336.366 187.509C336.633 187.496 336.894 187.534 337.14 187.617C337.386 187.7 337.601 187.824 337.775 187.986C338.134 188.372 338.313 188.845 338.287 189.327L334.138 189.339Z" fill="#621EE5"/>
</g>
<g id="mysql-full">
<g id="mysql">
<path id="Vector_38" d="M384.208 271.426H389.176V250.987L396.867 268.812C397.774 270.96 399.017 271.732 401.452 271.732C403.888 271.732 405.082 270.969 405.991 268.812L413.682 250.987V271.434H418.65V251.021C418.65 249.03 417.885 248.067 416.309 247.569C412.536 246.341 410.003 247.403 408.858 250.059L401.311 267.65L394.001 250.051C392.903 247.396 390.323 246.334 386.55 247.562C384.973 248.06 384.208 249.023 384.208 251.013V271.426ZM422.779 254.784H427.746V266.05C427.699 266.662 427.934 268.099 430.655 268.142C432.044 268.166 441.371 268.142 441.458 268.142V254.728H446.435C446.458 254.728 446.43 273.019 446.431 273.097C446.458 277.608 441.061 278.588 438.573 278.664H422.888V275.18L438.601 275.179C441.798 274.826 441.421 273.171 441.421 272.613V271.254H430.863C425.951 271.208 422.823 268.973 422.784 266.402C422.78 266.172 422.89 254.895 422.781 254.784L422.779 254.784Z" fill="#00618A"/>
<path id="Vector_39" d="M450.265 271.426H464.547C466.218 271.426 467.843 271.062 469.134 270.43C471.284 269.402 472.335 268.008 472.335 266.182V262.399C472.335 260.904 471.14 259.511 468.801 258.582C467.558 258.083 466.03 257.818 464.549 257.818H458.53C456.525 257.818 455.569 257.187 455.33 255.794C455.282 255.628 455.282 255.487 455.282 255.329V252.973C455.282 252.84 455.282 252.706 455.33 252.541C455.569 251.478 456.095 251.179 457.862 251.006C458.005 251.006 458.196 250.972 458.34 250.972H472.527V247.521H458.579C456.572 247.521 455.522 247.654 454.566 247.952C451.602 248.915 450.312 250.45 450.312 253.105V256.126C450.312 258.45 452.845 260.441 457.094 260.905C457.573 260.938 458.05 260.971 458.527 260.971H463.686C463.878 260.971 464.069 260.971 464.212 261.005C465.788 261.138 466.458 261.436 466.935 262.033C467.229 262.34 467.318 262.632 467.318 262.954V265.975C467.318 266.34 467.079 266.805 466.601 267.203C466.171 267.602 465.455 267.866 464.499 267.933C464.308 267.933 464.165 267.966 463.974 267.966H450.265V271.418V271.426ZM503.324 265.419C503.324 268.971 505.855 270.962 510.967 271.36C511.444 271.399 511.921 271.421 512.4 271.426H525.345V267.975H512.304C509.39 267.975 508.291 267.211 508.291 265.385V247.528H503.323V265.418L503.324 265.419ZM475.504 265.599V253.293C475.504 250.167 477.609 248.271 481.774 247.672C482.218 247.606 482.666 247.573 483.115 247.572H492.544C493.009 247.573 493.473 247.606 493.933 247.672C498.097 248.271 500.203 250.166 500.203 253.293V265.599C500.203 268.135 499.308 269.492 497.247 270.377L502.14 274.982H496.372L492.413 271.257L488.428 271.52H483.115C482.205 271.52 481.248 271.386 480.195 271.087C477.029 270.189 475.504 268.46 475.504 265.599H475.504ZM480.866 265.292C480.866 265.458 480.914 265.624 480.962 265.824C481.256 267.255 482.541 268.053 484.496 268.053H489.009L484.864 264.152H490.632L494.24 267.554C494.906 267.184 495.344 266.618 495.492 265.891C495.539 265.725 495.539 265.559 495.539 265.392V253.593C495.539 253.461 495.539 253.286 495.492 253.128C495.197 251.798 493.912 251.033 491.997 251.033H484.505C482.296 251.033 480.868 252.03 480.868 253.593V265.301L480.866 265.292Z" fill="#E48E00"/>
<g id="Group_3">
<path id="Vector_40" d="M529.716 241.801C526.663 241.715 524.329 242.011 522.336 242.887C521.769 243.137 520.865 243.143 520.772 243.883C521.084 244.223 521.133 244.731 521.38 245.15C521.856 245.953 522.661 247.03 523.377 247.593C524.161 248.209 524.968 248.869 525.809 249.404C527.304 250.354 528.972 250.897 530.411 251.847C531.259 252.408 532.102 253.114 532.929 253.748C533.338 254.061 533.614 254.547 534.144 254.743V254.652C533.864 254.282 533.793 253.772 533.537 253.386L532.408 252.21C531.304 250.675 529.903 249.342 528.414 248.227C527.226 247.338 524.567 246.138 524.072 244.697L523.985 244.606C524.827 244.506 525.813 244.19 526.591 243.973C527.897 243.609 529.064 243.702 530.413 243.34L532.236 242.797V242.434C531.555 241.705 531.069 240.741 530.326 240.082C528.382 238.355 526.259 236.632 524.075 235.193C522.863 234.395 521.365 233.878 520.08 233.202C519.648 232.975 518.889 232.857 518.604 232.477C517.93 231.581 517.562 230.444 517.042 229.408C515.952 227.221 514.881 224.831 513.915 222.53C513.256 220.96 512.826 219.412 512.006 218.004C508.063 211.248 503.818 207.17 497.245 203.163C495.846 202.311 494.162 201.973 492.381 201.534L489.516 201.352C488.933 201.099 488.326 200.355 487.778 199.994C485.6 198.559 480.014 195.441 478.401 199.534C477.383 202.122 479.923 204.648 480.832 205.96C481.47 206.881 482.287 207.911 482.742 208.947C483.042 209.627 483.094 210.309 483.35 211.029C483.981 212.794 484.53 214.73 485.347 216.368C485.759 217.197 486.214 218.07 486.736 218.812C487.057 219.267 487.605 219.467 487.691 220.17C487.155 220.953 487.124 222.165 486.822 223.157C485.465 227.617 485.977 233.16 487.951 236.461C488.557 237.474 489.983 239.647 491.946 238.814C493.661 238.085 493.271 235.829 493.769 233.837C493.88 233.384 493.812 233.054 494.03 232.751V232.841L495.593 236.099C496.749 238.04 498.803 240.07 500.542 241.44C501.444 242.15 502.162 243.378 503.321 243.793V243.702H503.234C503.008 243.334 502.655 243.183 502.365 242.889C501.686 242.194 500.93 241.331 500.368 240.536C498.785 238.297 497.387 235.847 496.114 233.296C495.505 232.078 494.976 230.734 494.464 229.495C494.267 229.016 494.269 228.294 493.857 228.046C493.295 228.955 492.468 229.689 492.033 230.762C491.338 232.476 491.248 234.566 490.991 236.735C490.839 236.792 490.907 236.753 490.818 236.826C489.609 236.522 489.183 235.224 488.734 234.11C487.597 231.294 487.386 226.762 488.386 223.522C488.644 222.684 489.815 220.042 489.341 219.268C489.115 218.495 488.369 218.04 487.952 217.457C487.437 216.728 486.92 215.766 486.563 214.923C485.632 212.728 485.197 210.265 484.218 208.045C483.75 206.984 482.959 205.912 482.308 204.975C481.588 203.932 480.782 203.161 480.225 201.906C480.026 201.457 479.756 200.739 480.051 200.277C480.079 200.144 480.143 200.022 480.235 199.926C480.328 199.829 480.445 199.763 480.572 199.733C481.076 199.329 482.479 199.868 483.003 200.095C484.395 200.699 485.558 201.273 486.738 202.087C487.305 202.471 487.877 203.235 488.561 203.445H489.341C490.564 203.738 491.933 203.537 493.074 203.898C495.093 204.537 496.901 205.532 498.545 206.613C503.55 209.907 507.642 214.595 510.441 220.196C510.892 221.096 511.086 221.956 511.483 222.911C512.283 224.83 513.291 226.819 514.088 228.703C514.883 230.583 515.656 232.478 516.78 234.042C517.37 234.863 519.651 235.305 520.687 235.761C521.414 236.081 522.604 236.415 523.292 236.847C524.606 237.674 525.88 238.658 527.113 239.564C527.73 240.016 529.624 241.009 529.718 241.826L529.716 241.801Z" fill="#00618A"/>
<path id="Vector_41" fill-rule="evenodd" clip-rule="evenodd" d="M490.903 207.321C490.267 207.308 489.817 207.393 489.34 207.502V207.592H489.427C489.731 208.243 490.267 208.661 490.642 209.221L491.511 211.122L491.598 211.031C492.135 210.636 492.382 210.004 492.378 209.04C492.162 208.803 492.131 208.507 491.944 208.225C491.696 207.849 491.208 207.635 490.902 207.319L490.903 207.321Z" fill="#00618A"/>
</g>
</g>
<path id="Vector_42" fill-rule="evenodd" clip-rule="evenodd" d="M527.677 267.876C527.677 270.155 529.405 271.692 531.338 271.692C533.27 271.692 534.998 270.155 534.998 267.876C534.998 265.597 533.27 264.061 531.338 264.061C529.405 264.061 527.677 265.597 527.677 267.876ZM534.178 267.876C534.178 269.606 532.91 270.898 531.336 270.898C529.746 270.898 528.494 269.606 528.494 267.876C528.494 266.146 529.744 264.854 531.336 264.854C532.908 264.854 534.178 266.146 534.178 267.876ZM532.323 270.054H533.142L531.942 268.142C532.586 268.07 533.074 267.744 533.074 266.951C533.074 266.065 532.536 265.7 531.502 265.7H529.872V270.055H530.575V268.172H531.229L532.322 270.055L532.323 270.054ZM530.575 267.56V266.309H531.385C531.804 266.309 532.312 266.39 532.312 266.9C532.312 267.51 531.854 267.561 531.326 267.561H530.575V267.56Z" fill="#E48E00"/>
</g>
<g id="php">
<path id="Vector_43" d="M231.868 271.97C252.117 271.97 268.533 257.957 268.533 240.672C268.533 223.386 252.117 209.374 231.868 209.374C211.618 209.374 195.203 223.386 195.203 240.672C195.203 257.957 211.618 271.97 231.868 271.97Z" fill="#8993BE"/>
<path id="Vector_44" fill-rule="evenodd" clip-rule="evenodd" d="M205.499 259.204L209.517 225.846H218.809C222.827 226.258 224.836 229.552 224.836 235.318C224.836 245.202 220.065 250.967 215.795 250.555H211.275L210.271 259.204H205.499ZM212.279 244.378L213.535 232.024H216.8C218.558 232.024 219.813 233.259 219.813 235.73C219.562 242.731 217.553 243.967 215.293 244.378H212.28H212.279ZM223.902 250.555L227.92 217.198H232.692L231.687 225.846H236.207C240.226 226.258 241.732 229.552 241.23 233.671L239.472 250.555H234.45L236.208 235.318C236.459 233.259 236.459 232.024 234.701 232.024H230.934L228.674 250.555H223.902V250.555ZM239.151 259.204L243.169 225.846H252.46C256.479 226.258 258.488 229.552 258.488 235.318C258.488 245.202 253.716 250.967 249.447 250.555H244.927L243.922 259.204H239.151V259.204ZM245.931 244.378L247.187 232.024H250.452C252.209 232.024 253.465 233.259 253.465 235.73C253.214 242.731 251.205 243.967 248.945 244.378H245.931H245.931Z" fill="#232531"/>
</g>
<path id="laravel" d="M255.082 164.831C255.098 164.893 255.106 164.956 255.106 165.02V174.982C255.106 175.109 255.075 175.235 255.014 175.346C254.954 175.456 254.868 175.548 254.763 175.612L246.91 180.425V189.966C246.91 190.226 246.78 190.466 246.569 190.596L230.175 200.643C230.138 200.666 230.097 200.68 230.056 200.696C230.04 200.701 230.026 200.711 230.01 200.715C229.895 200.748 229.775 200.748 229.66 200.715C229.641 200.71 229.624 200.699 229.606 200.692C229.569 200.677 229.53 200.665 229.494 200.643L213.104 190.596C212.999 190.533 212.913 190.441 212.853 190.33C212.793 190.22 212.761 190.094 212.761 189.966V160.082C212.761 160.017 212.769 159.954 212.785 159.892C212.79 159.871 212.802 159.852 212.808 159.831C212.821 159.793 212.833 159.754 212.852 159.718C212.865 159.695 212.884 159.676 212.899 159.654C212.919 159.625 212.936 159.595 212.959 159.569C212.979 159.549 213.005 159.533 213.027 159.515C213.052 159.493 213.074 159.47 213.102 159.452H213.103L221.298 154.429C221.402 154.365 221.52 154.332 221.639 154.332C221.759 154.332 221.877 154.365 221.981 154.429L230.176 159.452H230.178C230.205 159.471 230.228 159.493 230.253 159.514C230.275 159.532 230.3 159.549 230.319 159.569C230.343 159.595 230.36 159.625 230.381 159.654C230.395 159.676 230.415 159.695 230.427 159.718C230.446 159.755 230.457 159.793 230.471 159.831C230.478 159.852 230.49 159.871 230.495 159.893C230.511 159.955 230.519 160.018 230.519 160.082V178.748L237.348 174.561V165.019C237.348 164.956 237.357 164.891 237.372 164.831C237.378 164.809 237.389 164.79 237.396 164.769C237.41 164.731 237.422 164.692 237.44 164.656C237.453 164.633 237.472 164.614 237.486 164.592C237.507 164.563 237.524 164.533 237.548 164.507C237.567 164.487 237.592 164.471 237.614 164.453C237.64 164.431 237.662 164.408 237.689 164.39H237.69L245.887 159.367C245.99 159.303 246.108 159.27 246.228 159.27C246.347 159.27 246.465 159.303 246.569 159.367L254.764 164.39C254.793 164.408 254.815 164.431 254.841 164.452C254.862 164.47 254.887 164.487 254.907 164.507C254.931 164.533 254.948 164.563 254.968 164.592C254.984 164.614 255.002 164.633 255.014 164.656C255.034 164.692 255.045 164.731 255.059 164.769C255.066 164.79 255.077 164.809 255.082 164.831V164.831ZM253.74 174.561V166.278L250.872 168.035L246.91 170.464V178.748L253.741 174.561H253.74ZM245.545 189.546V181.257L241.647 183.626L230.518 190.388V198.755L245.545 189.546ZM214.127 161.34V189.546L229.152 198.754V190.389L221.303 185.66L221.3 185.658L221.297 185.656C221.27 185.64 221.248 185.617 221.223 185.597C221.202 185.578 221.177 185.564 221.158 185.544L221.157 185.541C221.135 185.518 221.119 185.49 221.1 185.465C221.083 185.44 221.063 185.42 221.049 185.394L221.048 185.391C221.033 185.364 221.024 185.331 221.013 185.301C221.001 185.273 220.987 185.248 220.98 185.219V185.218C220.972 185.183 220.97 185.147 220.967 185.112C220.963 185.085 220.956 185.057 220.956 185.03V165.526L216.995 163.097L214.127 161.341V161.34ZM221.64 155.898L214.812 160.082L221.639 164.267L228.466 160.082L221.639 155.898H221.64ZM225.191 182.012L229.153 179.585V161.34L226.285 163.097L222.322 165.526V183.771L225.191 182.012ZM246.228 160.836L239.4 165.02L246.228 169.205L253.054 165.019L246.228 160.836ZM245.545 170.464L241.582 168.035L238.714 166.278V174.561L242.676 176.989L245.545 178.748V170.464ZM229.834 189.131L239.849 183.045L244.855 180.003L238.032 175.821L230.177 180.636L223.018 185.024L229.834 189.131Z" fill="#FF2D20"/>
<path id="github" d="M452.891 0C433.783 0 418.292 16.4418 418.292 36.7208C418.292 53.9276 429.456 68.3252 444.506 72.3094C444.345 71.8137 444.241 71.2384 444.241 70.5254V64.2492C442.837 64.2492 440.484 64.2492 439.893 64.2492C437.526 64.2492 435.421 63.169 434.4 61.1616C433.267 58.9308 433.071 55.5188 430.263 53.4319C429.43 52.7372 430.064 51.9447 431.024 52.0518C432.797 52.5842 434.268 53.8756 435.652 55.7912C437.03 57.7098 437.679 58.1444 440.253 58.1444C441.502 58.1444 443.37 58.0679 445.129 57.7741C446.075 55.2251 447.71 52.878 449.708 51.7703C438.186 50.5126 432.688 44.4291 432.688 36.17C432.688 32.6142 434.115 29.1747 436.54 26.2768C435.744 23.4003 434.744 17.5342 436.845 15.3003C442.03 15.3003 445.164 18.8684 445.916 19.8323C448.5 18.8929 451.337 18.3604 454.318 18.3604C457.305 18.3604 460.154 18.8929 462.743 19.8384C463.487 18.8806 466.624 15.3003 471.82 15.3003C473.93 17.5373 472.918 23.4279 472.114 26.2982C474.524 29.19 475.943 32.6203 475.943 36.17C475.943 44.423 470.453 50.5034 458.949 51.7672C462.115 53.5206 464.424 58.4473 464.424 62.1592V70.5254C464.424 70.8437 464.358 71.0732 464.323 71.3455C477.805 66.3301 487.49 52.7434 487.49 36.7208C487.49 16.4418 471.998 0 452.891 0Z" fill="black"/>
</g>
<defs>
<linearGradient id="paint0_linear_2_87" x1="8.20718" y1="33.3948" x2="47.9307" y2="47.9814" gradientUnits="userSpaceOnUse">
<stop stop-color="#2298BD"/>
<stop offset="1" stop-color="#0ED7B5"/>
</linearGradient>
</defs>
</svg>
