<svg width="358" height="226" viewBox="0 0 358 226" fill="none" xmlns="http://www.w3.org/2000/svg">
<g id="javascript">
<g id="vuejs">
<path id="path893" fill-rule="evenodd" clip-rule="evenodd" d="M72.3592 0.0065918H77.6095L64.3523 32.9535L51.0078 0.0065918H56.3775L64.3523 19.8413L72.3592 0.0065918Z" fill="#41B883"/>
<path id="path895" fill-rule="evenodd" clip-rule="evenodd" d="M67.3969 0H72.3903L64.3448 19.876L56.3638 0H61.2792L64.3448 7.65196L67.3969 0Z" fill="#35495E"/>
<path id="path897" fill-rule="evenodd" clip-rule="evenodd" d="M80.7427 6.50427C80.7427 6.26121 80.8362 6.05867 81.0233 5.89662C81.2105 5.73459 81.4061 5.65356 81.6102 5.65356C81.8937 5.65356 82.0695 5.8075 82.1375 6.11538L85.1313 20.5528L88.108 6.11538C88.1874 5.80752 88.3575 5.65356 88.6183 5.65356C88.8338 5.65356 89.0351 5.74268 89.2222 5.92092C89.4093 6.09916 89.5029 6.30171 89.5029 6.52857C89.5029 6.54477 89.5001 6.56908 89.4944 6.60149C89.4887 6.63389 89.4859 6.6663 89.4859 6.69871L86.0328 22.8619C85.9081 23.3318 85.6076 23.5667 85.1313 23.5667C84.655 23.5667 84.3658 23.3318 84.2638 22.8619L80.7769 6.69871C80.7542 6.60149 80.7428 6.53668 80.7428 6.50427H80.7427ZM89.6369 18.9485V12.6292C89.6369 12.4348 89.7078 12.2647 89.8495 12.1188C89.9913 11.973 90.1585 11.9001 90.3513 11.9001C90.5328 11.9001 90.6944 11.977 90.8361 12.131C90.9779 12.2849 91.0487 12.451 91.0487 12.6292V18.9485C91.0487 19.6776 91.2415 20.3339 91.6271 20.9172C92.0127 21.5006 92.4719 21.7922 93.0049 21.7922C93.5266 21.7922 93.9801 21.5046 94.3657 20.9294C94.7513 20.3542 94.9441 19.6938 94.9441 18.9485V12.6045C94.9441 12.4263 95.0149 12.2643 95.1567 12.1185C95.2984 11.9726 95.4657 11.8997 95.6585 11.8997C95.8626 11.8997 96.0299 11.9686 96.1603 12.1063C96.2907 12.244 96.3559 12.4101 96.3559 12.6046V18.9485C96.3559 20.1962 96.0242 21.2859 95.3608 22.2176C94.6974 23.1493 93.9121 23.6151 93.0049 23.6151C92.0864 23.6151 91.2954 23.1493 90.632 22.2176C89.9687 21.2859 89.637 20.1962 89.637 18.9485H89.6369ZM97.5103 18.8999V16.3478C97.5103 15.1001 97.842 14.0226 98.5054 13.1152C99.1688 12.2078 99.9654 11.7541 100.895 11.7541C101.78 11.7541 102.545 12.1794 103.192 13.0301C103.838 13.8808 104.161 14.9462 104.161 16.2263C104.161 16.6962 104.122 17.0729 104.042 17.3565C103.963 17.6401 103.841 17.8426 103.676 17.9642C103.512 18.0857 103.359 18.1627 103.217 18.1951C103.075 18.2275 102.885 18.2437 102.647 18.2437H98.9221V18.9729C98.9221 19.864 99.146 20.577 99.594 21.1117C100.042 21.6465 100.623 21.9138 101.337 21.9138C101.712 21.9138 102.038 21.8328 102.316 21.6708C102.593 21.5087 102.817 21.3507 102.987 21.1968C103.158 21.0429 103.294 20.9659 103.396 20.9659C103.554 20.9659 103.691 21.0672 103.804 21.2697C103.917 21.4723 103.974 21.6789 103.974 21.8895C103.974 22.2622 103.716 22.643 103.2 23.0319C102.684 23.4207 102.046 23.6152 101.286 23.6152C100.175 23.6152 99.2679 23.1817 98.5649 22.3149C97.8618 21.448 97.5102 20.3097 97.5102 18.8999L97.5103 18.8999ZM98.9221 16.8825H102.069C102.364 16.8825 102.562 16.8299 102.664 16.7246C102.766 16.6192 102.817 16.4126 102.817 16.1048C102.817 15.3756 102.63 14.7356 102.256 14.1847C101.882 13.6337 101.423 13.3583 100.878 13.3583C100.345 13.3583 99.886 13.6135 99.5005 14.1239C99.1149 14.6343 98.9221 15.2622 98.9221 16.0075L98.9221 16.8825ZM104.874 22.3026C104.874 21.9461 104.959 21.6423 105.129 21.3911C105.299 21.14 105.509 21.0144 105.758 21.0144C105.996 21.0144 106.2 21.14 106.37 21.3911C106.541 21.6423 106.626 21.9461 106.626 22.3026C106.626 22.6429 106.541 22.9386 106.37 23.1897C106.2 23.4409 105.996 23.5665 105.758 23.5665C105.509 23.5665 105.299 23.4409 105.129 23.1897C104.959 22.9386 104.874 22.6429 104.874 22.3026ZM106.13 28.1116C106.13 27.8524 106.187 27.6377 106.3 27.4676C106.414 27.2974 106.55 27.2124 106.709 27.2124C107.151 27.2124 107.44 26.9774 107.576 26.5075C107.712 26.0376 107.78 25.3328 107.78 24.3929V12.6047C107.78 12.3941 107.845 12.224 107.976 12.0943C108.106 11.9647 108.273 11.8999 108.478 11.8999C108.682 11.8999 108.852 11.9647 108.988 12.0943C109.124 12.224 109.192 12.3941 109.192 12.6047V24.3929C109.192 25.8027 108.999 26.9207 108.614 27.7471C108.228 28.5735 107.644 28.9867 106.862 28.9867C106.374 28.9867 106.13 28.695 106.13 28.1117L106.13 28.1116ZM107.593 7.5735C107.593 7.26563 107.678 6.99829 107.848 6.77142C108.018 6.54456 108.228 6.43114 108.478 6.43114C108.716 6.43114 108.92 6.54457 109.09 6.77142C109.26 6.99827 109.345 7.26563 109.345 7.5735C109.345 7.88136 109.26 8.15279 109.09 8.38773C108.92 8.62269 108.716 8.74016 108.478 8.74016C108.239 8.74016 108.032 8.62269 107.857 8.38773C107.681 8.15278 107.593 7.88136 107.593 7.5735H107.593ZM110.245 21.7677C110.245 21.5571 110.293 21.3505 110.389 21.1479C110.485 20.9454 110.602 20.8441 110.738 20.8441C110.829 20.8441 110.959 20.9413 111.129 21.1358C111.299 21.3302 111.543 21.5206 111.86 21.707C112.178 21.8933 112.552 21.9865 112.983 21.9865C113.55 21.9865 113.961 21.8406 114.216 21.549C114.471 21.2573 114.599 20.8927 114.599 20.4552C114.599 19.9205 114.457 19.4952 114.174 19.1792C113.89 18.8632 113.544 18.6242 113.136 18.4622C112.728 18.3001 112.32 18.1219 111.911 17.9274C111.503 17.733 111.157 17.4089 110.874 16.9552C110.59 16.5015 110.449 15.902 110.449 15.1566C110.449 14.233 110.678 13.435 111.137 12.7625C111.597 12.0901 112.297 11.7539 113.238 11.7539C113.839 11.7539 114.389 11.8876 114.888 12.1549C115.387 12.4223 115.637 12.7261 115.637 13.0664C115.637 13.2608 115.583 13.4795 115.475 13.7226C115.367 13.9657 115.234 14.0872 115.075 14.0872C115.03 14.0872 114.812 13.9697 114.42 13.7347C114.029 13.4998 113.641 13.3823 113.255 13.3823C112.734 13.3823 112.345 13.5565 112.09 13.9049C111.835 14.2533 111.707 14.6462 111.707 15.0837C111.707 15.5374 111.849 15.8939 112.133 16.1531C112.416 16.4124 112.765 16.615 113.179 16.7608C113.593 16.9066 114.004 17.0849 114.412 17.2955C114.82 17.5062 115.166 17.8667 115.449 18.3771C115.733 18.8875 115.875 19.5478 115.875 20.358C115.875 21.3626 115.625 22.1566 115.126 22.7399C114.627 23.3232 113.93 23.6149 113.034 23.6149C112.263 23.6149 111.605 23.4164 111.061 23.0194C110.517 22.6224 110.244 22.2052 110.244 21.7677L110.245 21.7677Z" fill="#010101"/>
</g>
<g id="jslogo">
<path id="Vector" d="M88.3271 63.1467H161.982V142.995H88.3271V63.1467Z" fill="#F7DF1E"/>
<path id="Vector_2" d="M107.695 129.873L113.331 126.175C114.418 128.265 115.408 130.034 117.78 130.034C120.055 130.034 121.489 129.069 121.489 125.318V99.8044H128.411V125.424C128.411 133.195 124.208 136.733 118.077 136.733C112.54 136.733 109.326 133.624 107.694 129.872L107.695 129.873ZM132.17 129.069L137.806 125.532C139.29 128.158 141.218 130.088 144.629 130.088C147.497 130.088 149.326 128.533 149.326 126.389C149.326 123.816 147.447 122.905 144.283 121.405L142.553 120.6C137.559 118.296 134.247 115.402 134.247 109.291C134.247 103.663 138.202 99.3752 144.382 99.3752C148.782 99.3752 151.947 101.037 154.221 105.378L148.831 109.131C147.644 106.826 146.36 105.915 144.382 105.915C142.355 105.915 141.069 107.309 141.069 109.131C141.069 111.382 142.355 112.293 145.321 113.687L147.051 114.491C152.935 117.225 156.247 120.012 156.247 126.282C156.247 133.036 151.353 136.734 144.777 136.734C138.35 136.734 134.197 133.411 132.17 129.069" fill="black"/>
</g>
<g id="jquery">
<g id="Group">
<path id="Vector_3" d="M74.9596 213.626L74.502 215.666L74.9596 213.626V213.626ZM77.3131 218.057L76.8091 218.053L77.3131 218.057ZM77.1891 221.105L74.1685 221.119L77.1891 221.105ZM77.8216 218.061L77.3169 218.058L77.8216 218.061ZM77.4545 220.847L77.9815 218.321L77.4545 220.847ZM88.5775 209.221L87.5979 215.021L88.5775 209.221ZM86.0578 209.213L85.3138 213.546L86.0578 209.213Z" fill="#131B28"/>
<path id="Vector_4" d="M88.4033 208.953H86.3077C86.1911 208.953 86.0758 209.07 86.051 209.214L84.563 217.88C84.5382 218.023 84.4229 218.14 84.3069 218.14H82.8232C81.3551 218.14 81.5249 216.863 81.8312 215.113L81.8405 215.06L82.0185 213.866L82.0954 213.374L82.7724 209.214C82.796 209.07 82.7197 208.953 82.6031 208.953H80.4517C80.3924 208.955 80.3354 208.982 80.2893 209.029C80.2432 209.076 80.2105 209.141 80.1963 209.213L79.2148 214.998C78.6816 218.06 78.8229 220.98 81.7196 221.071H86.3492C86.4658 221.071 86.5805 220.954 86.6053 220.81L88.5658 209.211C88.5906 209.067 88.5143 208.95 88.3984 208.95L88.4033 208.953ZM96.7611 218.171C96.8776 218.171 96.9471 218.288 96.9303 218.431L96.727 219.684L96.7611 218.171ZM96.5286 220.936L96.7319 219.683L96.5286 220.936ZM96.2806 221.2L92.4179 221.223L96.2806 221.2Z" fill="#131B28"/>
<path id="Vector_5" d="M91.162 216.558C91.1602 216.421 91.2842 216.185 91.4007 216.185L91.1391 216.179C91.0151 217.673 91.162 216.558 91.162 216.558V216.558ZM92.6036 221.222H92.5633H92.6036ZM96.7626 218.179C96.8791 218.179 96.9486 218.296 96.9318 218.439L96.7006 219.887L96.7626 218.179ZM93.5956 221.219H93.5869H93.5956ZM93.081 221.222H93.0512H93.081ZM92.9247 221.222H92.8751H92.9247ZM92.7648 221.222H92.7214H92.7648ZM93.0512 221.222H92.9241H93.0512Z" fill="#131B28"/>
<path id="Vector_6" d="M93.5873 221.219L93.0814 221.222L93.5873 221.219ZM96.2763 221.198L93.5947 221.219L96.2763 221.198ZM96.5243 220.937L96.6948 219.888L96.5243 220.938V220.937ZM92.8687 221.222H92.7583H92.8687ZM92.5556 221.223H92.4068H92.5556ZM92.7131 221.222H92.5891H92.7131ZM62.0486 216.589L62.3741 214.773L62.0021 216.848L61.9587 217.109L62.0492 216.588L62.0486 216.589ZM65.9472 208.923H63.6451C63.5857 208.926 63.5285 208.953 63.482 208.999C63.4354 209.046 63.402 209.11 63.3866 209.183L62.9501 211.602C62.9428 211.633 62.9416 211.666 62.9465 211.698C62.9515 211.73 62.9626 211.76 62.9788 211.786C62.995 211.811 63.0158 211.831 63.0395 211.845C63.0633 211.858 63.0892 211.864 63.115 211.861H65.4351C65.5517 211.861 65.667 211.744 65.6918 211.602L66.1134 209.177C66.1382 209.035 66.0638 208.917 65.946 208.917L65.9472 208.923ZM65.4512 212.957L64.7692 216.888L65.4512 212.957ZM58.7638 225.981L60.6623 226C60.1018 226 59.1761 225.987 58.7632 225.981L58.7638 225.981Z" fill="#131B28"/>
<path id="Vector_7" d="M62.7057 212.956L62.3796 214.773L62.7057 212.956ZM65.285 212.696H62.9705C62.911 212.699 62.8538 212.725 62.8073 212.772C62.7608 212.819 62.7274 212.883 62.7119 212.956L62.0609 216.588L61.9704 217.11L61.3504 220.818C61.3197 220.991 61.2824 221.162 61.2388 221.331C61.2388 221.331 60.8048 222.954 60.0769 222.936L59.3546 222.919C59.2953 222.921 59.2382 222.947 59.1913 222.992C59.1445 223.038 59.1105 223.102 59.0942 223.173L58.6131 225.719C58.6055 225.75 58.6039 225.783 58.6086 225.815C58.6133 225.847 58.624 225.877 58.6399 225.902C58.6557 225.928 58.6763 225.949 58.6998 225.962C58.7233 225.976 58.749 225.982 58.7749 225.981L60.674 226C62.4943 226 63.4535 224.731 64.0691 221.079L65.4642 212.964C65.489 212.821 65.4133 212.704 65.2968 212.704L65.285 212.696ZM98.2447 221.074C98.1282 221.074 98.0587 220.956 98.0773 220.813L99.8239 210.524L98.2447 221.074ZM100.671 220.813L101.378 216.422L100.671 220.813Z" fill="#131B28"/>
<path id="Vector_8" d="M98.104 220.944C98.0897 220.872 98.0978 220.697 98.1226 220.554L98.9509 215.669L98.078 220.814C98.0532 220.957 98.1288 221.074 98.2454 221.074H98.4574C98.3408 221.074 98.1176 221.016 98.104 220.944V220.944ZM100.534 221.016C100.471 221.047 100.324 221.074 100.207 221.074H100.419C100.478 221.071 100.535 221.044 100.581 220.997C100.627 220.95 100.659 220.885 100.673 220.813L100.715 220.552C100.693 220.696 100.591 220.984 100.529 221.016H100.534ZM101.025 218.617L101.337 216.679L101.025 218.617ZM107.913 211.214L108.009 211.713C108.035 211.856 107.962 211.972 107.846 211.973" fill="#131B28"/>
<path id="Vector_9" d="M100.714 220.552L101.024 218.617L100.714 220.552ZM107.816 210.701L107.911 211.213L107.816 210.701ZM101.337 216.68L101.423 216.162L101.755 214.2L101.379 216.422L101.337 216.68V216.68ZM99.852 210.355L99.7795 210.785L98.9512 215.669L99.8241 210.525L99.852 210.356V210.355Z" fill="#131B28"/>
<path id="Vector_10" d="M108.009 211.713L107.913 211.214L107.771 210.434C107.582 209.513 107.029 208.98 105.828 208.98L100.297 208.975C100.238 208.978 100.181 209.005 100.135 209.052C100.089 209.099 100.056 209.163 100.042 209.236L99.9561 209.745L99.8321 210.515L98.1308 220.544C98.106 220.688 98.098 220.856 98.1122 220.935C98.1265 221.013 98.3497 221.065 98.4656 221.065H100.214C100.331 221.065 100.478 221.038 100.541 221.006C100.605 220.974 100.699 220.694 100.727 220.543L101.391 216.412L102.101 212.227C102.126 212.084 102.24 211.968 102.356 211.967L107.858 211.964C107.974 211.964 108.047 211.847 108.021 211.704L108.009 211.713ZM115.091 207.192L114.668 207.195H112.907C112.842 207.199 112.78 207.222 112.722 207.26C112.665 207.297 112.615 207.35 112.576 207.415L108.682 214.593C108.616 214.714 108.541 214.696 108.515 214.554L108.228 212.973C108.213 212.9 108.179 212.836 108.133 212.789C108.086 212.742 108.029 212.716 107.97 212.713H105.467C105.35 212.713 105.281 212.827 105.313 212.969L106.429 217.914C106.461 218.055 106.463 218.286 106.435 218.429L105.939 220.822C105.931 220.853 105.929 220.886 105.933 220.918C105.937 220.95 105.947 220.98 105.963 221.006C105.979 221.031 106 221.052 106.023 221.065C106.047 221.078 106.073 221.083 106.099 221.08H108.579C108.695 221.08 108.814 220.963 108.843 220.823L109.339 218.43C109.378 218.261 109.438 218.102 109.519 217.959L115.84 207.4C115.91 207.283 115.872 207.188 115.756 207.189L115.092 207.195L115.091 207.192ZM95.2038 213.386C95.1889 213.542 95.0723 213.659 94.9558 213.659H91.7813C91.6716 213.659 91.6158 213.566 91.6325 213.449L91.635 213.427L91.6493 213.36C91.9593 212.345 92.57 211.68 93.73 211.68C95.0364 211.68 95.2912 212.483 95.2025 213.386H95.2038ZM94.2738 208.776C90.2003 208.776 89.2349 211.888 88.6937 215.029C88.1518 218.23 88.1989 221.224 92.4137 221.224H93.0821L93.5967 221.222L96.2789 221.201C96.3377 221.198 96.3941 221.171 96.4396 221.123C96.4851 221.076 96.5172 221.012 96.5312 220.94L96.9386 218.434C96.9621 218.29 96.8859 218.173 96.7693 218.173H92.9804C91.4738 218.173 91.0255 217.669 91.1904 216.187H97.2479C97.3471 216.185 97.437 216.109 97.4724 215.991C97.4786 215.97 97.4848 215.947 97.4873 215.924C98.3863 211.656 98.1284 208.779 94.2756 208.779L94.2738 208.776ZM75.0187 213.37L74.9617 213.625C74.9617 213.626 74.5041 215.666 74.5041 215.666L74.0465 217.706C74.0275 217.778 73.9916 217.841 73.9436 217.886C73.8955 217.932 73.8376 217.958 73.7774 217.962H71.3563C69.5198 217.962 69.0728 216.154 69.5198 213.488C69.9662 210.76 70.8436 209.065 72.6509 208.893C75.121 208.659 75.6145 210.846 75.0193 213.369L75.0187 213.37ZM76.6791 217.806C76.6791 217.806 77.8199 214.318 78.0803 212.302C78.4337 209.605 77.3611 205.693 73.2163 205.693C69.0951 205.693 67.3058 209.428 66.6232 213.496C65.9411 217.585 66.8352 221.171 70.9322 221.143L77.1856 221.114C77.2456 221.11 77.3032 221.084 77.3506 221.037C77.398 220.991 77.4328 220.927 77.4504 220.855L77.9774 218.328C77.9859 218.298 77.9883 218.265 77.9842 218.233C77.9801 218.201 77.9698 218.171 77.9541 218.145C77.9384 218.119 77.9178 218.099 77.8943 218.086C77.8708 218.072 77.845 218.067 77.8193 218.069H76.8105C76.7113 218.069 76.6555 217.988 76.6667 217.882C76.6686 217.863 76.6729 217.843 76.6791 217.823V217.806Z" fill="#131B28"/>
<path id="Vector_11" d="M97.0774 215.471C97.0774 215.568 97.0152 215.646 96.9381 215.646C96.861 215.646 96.7988 215.568 96.7988 215.471C96.7988 215.374 96.861 215.296 96.9381 215.296C97.0152 215.296 97.0774 215.374 97.0774 215.471Z" fill="#131B28"/>
</g>
<path id="Vector_12" d="M45.2117 210.936C44.074 212.994 44.2153 215.672 45.0846 217.858L45.1484 218.014L45.1894 218.113L45.2142 218.17L45.2594 218.271L45.3425 218.45L45.3896 218.549L45.4857 218.738L45.5266 218.818L45.6662 219.072L45.6934 219.118L45.8205 219.331L45.8683 219.408L45.9923 219.59L46.0369 219.658L46.2006 219.893L46.2105 219.906L46.3767 220.127L46.43 220.195L46.5627 220.351L46.6172 220.416L46.7989 220.624L46.8336 220.661L46.9992 220.837L47.0612 220.905L47.1988 221.041L47.2732 221.119L47.4282 221.259L47.5001 221.323L47.6502 221.448L47.7153 221.503L47.9509 221.684L48.016 221.731L48.1927 221.856L48.2907 221.918L48.4171 222.001L48.4463 222.019L48.4977 222.05L48.698 222.167L48.7402 222.19L48.9739 222.312L49.0309 222.34L49.251 222.443L49.279 222.456L49.5245 222.557L49.584 222.579L49.832 222.669C55.3346 223.933 56.933 218.507 56.933 218.507C55.5907 220.708 53.2129 221.289 50.9499 220.643C50.8643 220.62 50.7812 220.585 50.6982 220.554L50.6362 220.531C50.5551 220.499 50.4745 220.466 50.3943 220.432L50.3609 220.416C50.2889 220.385 50.2183 220.35 50.147 220.316L50.0868 220.286C50.0092 220.248 49.9321 220.208 49.8556 220.165L49.8097 220.14L49.615 220.026L49.553 219.991C49.5022 219.96 49.4526 219.927 49.4023 219.895L49.3019 219.828C49.2412 219.787 49.181 219.745 49.1215 219.701L49.0607 219.658C48.9815 219.599 48.9029 219.539 48.8251 219.477C48.8034 219.46 48.7829 219.441 48.7619 219.424L48.5945 219.284C48.5759 219.268 48.5585 219.253 48.5405 219.237L48.3824 219.093L48.3124 219.026L48.1698 218.886L48.1059 218.822L47.9279 218.633C47.9217 218.625 47.9155 218.62 47.9093 218.613C47.8461 218.535 47.7841 218.471 47.7221 218.399L47.6694 218.335L47.5349 218.17L47.4822 218.103C47.4262 218.031 47.3712 217.958 47.3172 217.884C47.2576 217.802 47.1991 217.719 47.1418 217.634L47.0984 217.569L46.9781 217.381L46.9347 217.303L46.7958 217.071C45.5483 214.924 45.0976 211.955 46.1064 209.518L45.2117 210.936ZM48.7495 209.202C47.9267 210.684 47.9713 212.687 48.6131 214.263C48.7205 214.528 48.8421 214.783 48.977 215.027C49.101 215.25 49.2374 215.514 49.4005 215.693L49.5852 215.927L49.6336 215.987L49.8221 216.208L49.8314 216.218L50.0515 216.447L50.1011 216.497L50.3317 216.707L50.4929 216.842L50.6634 216.975L50.6882 216.993L50.8395 217.099L50.8935 217.134L50.9989 217.203L51.015 217.212L51.2351 217.342L51.2834 217.367L51.4694 217.459L51.5469 217.495L51.7125 217.567L51.7869 217.598C51.8663 217.63 51.9444 217.676 52.0268 217.686C56.2758 218.571 57.2566 214.455 57.2566 214.455C56.3725 216.058 54.66 216.823 52.8328 216.227L52.5923 216.139L52.5197 216.11L52.3523 216.036L52.2761 216L52.095 215.908L52.0454 215.883L51.8241 215.753L51.7125 215.675L51.6486 215.634L51.475 215.509L51.3045 215.378L51.1433 215.243L50.9139 215.032L50.8625 214.981C50.0564 214.186 49.4284 213.108 49.1264 211.869C48.8164 210.591 48.8784 209.158 49.4259 207.995L48.7495 209.202ZM51.7137 207.907C51.2289 208.804 51.1805 209.92 51.5178 210.913C51.8725 211.966 52.6003 212.786 53.4491 213.176L53.5545 213.223L53.601 213.241L53.7523 213.296C56.0984 213.866 56.7284 211.781 56.9038 211.474C56.3458 212.484 55.4158 212.726 54.2601 212.375C54.166 212.344 54.073 212.308 53.9811 212.267C53.8686 212.217 53.7583 212.16 53.6506 212.095C53.4464 211.971 53.2524 211.822 53.0716 211.65C52.0423 210.667 51.3975 208.794 52.0752 207.269" fill="#0868AC"/>
</g>
<g id="nuxt">
<g id="Calque 1-2">
<path id="path8" d="M25.0851 106.289C25.1277 106.387 25.161 106.503 25.183 106.63C25.205 106.757 25.2153 106.892 25.2133 107.028V121.227C25.2151 121.378 25.2033 121.528 25.1787 121.668C25.1541 121.808 25.1172 121.937 25.07 122.046C25.0229 122.155 24.966 122.241 24.9029 122.298C24.8397 122.355 24.7719 122.383 24.7036 122.378C24.6263 122.379 24.5494 122.352 24.476 122.298C24.4086 122.253 24.3482 122.168 24.301 122.052L20.132 110.075V121.35C20.1356 121.615 20.0915 121.872 20.0093 122.065C19.9271 122.257 19.8135 122.37 19.6936 122.378C19.6844 122.379 19.6753 122.379 19.6661 122.378C19.605 122.384 19.5441 122.36 19.4875 122.31C19.4308 122.259 19.3797 122.183 19.3374 122.086C19.2952 121.988 19.2623 121.872 19.2405 121.746C19.2188 121.62 19.2087 121.485 19.2107 121.35V107.121C19.2092 106.971 19.2218 106.822 19.2477 106.683C19.2737 106.545 19.3124 106.42 19.3615 106.316C19.4074 106.212 19.4626 106.13 19.5236 106.076C19.5846 106.021 19.6501 105.995 19.7158 106C19.7995 105.999 19.8825 106.034 19.9601 106.103C20.0307 106.163 20.0927 106.264 20.1395 106.396L24.2905 118.399V107.028C24.2887 106.897 24.2986 106.766 24.3196 106.644C24.3407 106.521 24.3725 106.409 24.4132 106.313C24.4539 106.218 24.5027 106.141 24.5569 106.087C24.6111 106.033 24.6695 106.004 24.7289 106C24.7381 105.999 24.7473 105.999 24.7565 106C24.8174 105.995 24.8781 106.018 24.9347 106.068C24.9913 106.118 25.0425 106.193 25.0852 106.289H25.0851ZM33.6494 106.289C33.7396 106.51 33.7872 106.8 33.7821 107.098V116.08C33.7908 117.241 33.663 118.388 33.4112 119.407C33.1728 120.369 32.8185 121.167 32.3874 121.713C31.9407 122.278 31.4337 122.57 30.9187 122.558C30.3992 122.576 29.8868 122.29 29.4336 121.73C29.0006 121.186 28.6445 120.388 28.4052 119.424C28.1535 118.404 28.0257 117.258 28.0343 116.097V107.114C28.0324 106.964 28.0448 106.814 28.0708 106.675C28.0967 106.535 28.1357 106.41 28.1851 106.306C28.2355 106.197 28.2951 106.112 28.3607 106.055C28.4262 105.997 28.4962 105.97 28.5666 105.973C28.633 105.973 28.6986 106.003 28.7597 106.06C28.8208 106.117 28.8761 106.201 28.9223 106.306C28.9712 106.408 29.0098 106.531 29.0358 106.668C29.0618 106.805 29.0745 106.952 29.0731 107.101V116.084C29.0677 116.851 29.1557 117.607 29.3279 118.273C29.4875 118.894 29.7188 119.41 29.9982 119.769C30.2776 120.129 30.5952 120.318 30.9186 120.319C31.2492 120.324 31.5746 120.138 31.8626 119.78C32.153 119.426 32.3947 118.905 32.5622 118.273C32.7372 117.609 32.8269 116.852 32.8215 116.084V107.101C32.8166 106.806 32.8618 106.518 32.9482 106.292C32.9922 106.184 33.0464 106.098 33.1071 106.04C33.1678 105.983 33.2335 105.955 33.2995 105.96C33.365 105.956 33.4302 105.984 33.4905 106.041C33.5509 106.098 33.605 106.182 33.6493 106.289L33.6494 106.289ZM41.8112 120.695C41.8748 120.888 41.9081 121.121 41.9062 121.36C41.9089 121.509 41.8968 121.657 41.8708 121.795C41.8447 121.932 41.8053 122.055 41.7554 122.155C41.6621 122.35 41.5385 122.458 41.4101 122.458C41.3289 122.465 41.2484 122.425 41.176 122.344C41.1037 122.262 41.0421 122.141 40.997 121.992L38.9359 115.921L36.9214 121.982C36.8768 122.134 36.8155 122.258 36.7433 122.344C36.6711 122.429 36.5903 122.473 36.5084 122.471C36.4481 122.474 36.3883 122.45 36.3325 122.399C36.2767 122.349 36.2263 122.274 36.1842 122.179C36.1426 122.094 36.1092 121.991 36.0864 121.876C36.0636 121.762 36.0517 121.638 36.0516 121.513C36.0539 121.231 36.099 120.96 36.1797 120.741L38.3541 114.21L36.1693 107.73C36.101 107.54 36.0634 107.306 36.0622 107.064C36.0608 106.916 36.0735 106.768 36.0995 106.631C36.1255 106.494 36.1641 106.371 36.213 106.269C36.2592 106.164 36.3145 106.08 36.3756 106.023C36.4367 105.966 36.5023 105.936 36.5687 105.936C36.6477 105.937 36.7256 105.978 36.7963 106.056C36.8711 106.134 36.9351 106.255 36.9818 106.405L39.0189 112.444L41.0363 106.465C41.0802 106.315 41.1396 106.19 41.2096 106.101C41.2795 106.011 41.3581 105.959 41.4389 105.949C41.5021 105.95 41.5646 105.98 41.6223 106.037C41.6799 106.095 41.7315 106.178 41.7736 106.282C41.8195 106.372 41.8565 106.482 41.8824 106.605C41.9083 106.728 41.9226 106.862 41.9244 106.997C41.9208 107.238 41.884 107.47 41.8189 107.663L39.6052 114.164L41.8112 120.695ZM49.4633 106.289C49.5126 106.388 49.5516 106.51 49.5776 106.645C49.6036 106.781 49.616 106.927 49.614 107.074C49.6159 107.219 49.6033 107.364 49.5773 107.497C49.5513 107.63 49.5123 107.749 49.4633 107.846C49.3612 108.037 49.2305 108.136 49.0969 108.126H47.2091V121.257C47.2104 121.406 47.1977 121.553 47.1717 121.69C47.1457 121.827 47.1071 121.95 47.0583 122.052C46.9517 122.262 46.8138 122.378 46.6708 122.378C46.5279 122.378 46.39 122.262 46.2833 122.052C46.2348 121.95 46.1963 121.826 46.1703 121.69C46.1444 121.553 46.1315 121.406 46.1326 121.257V108.126H44.2493C44.1153 108.137 43.9845 108.033 43.8844 107.836C43.8365 107.736 43.7989 107.613 43.7742 107.478C43.7495 107.343 43.7382 107.197 43.7412 107.051C43.7391 106.909 43.7507 106.768 43.7754 106.636C43.8002 106.505 43.8373 106.387 43.8844 106.289C43.9845 106.092 44.1153 105.989 44.2493 106H49.0968C49.2313 105.989 49.3624 106.093 49.4633 106.289V106.289Z" fill="#2C4A5D"/>
<path id="path10" d="M51.7846 121.959C51.4413 121.53 51.1557 120.908 50.9568 120.156C50.8979 119.97 50.8644 119.751 50.8604 119.524C50.8603 119.379 50.8746 119.236 50.9022 119.104C50.9298 118.972 50.9701 118.856 51.0202 118.762C51.1065 118.563 51.2241 118.444 51.3489 118.429C51.4426 118.449 51.5334 118.511 51.6157 118.611C51.698 118.712 51.7699 118.85 51.8269 119.015C51.9427 119.435 52.1063 119.782 52.3015 120.02C52.4966 120.258 52.7166 120.379 52.9396 120.372C53.1219 120.382 53.3032 120.31 53.4726 120.161C53.642 120.013 53.7961 119.79 53.9257 119.507C54.0565 119.234 54.16 118.903 54.2295 118.537C54.2991 118.17 54.3333 117.775 54.3298 117.378V107.121C54.329 106.971 54.3427 106.823 54.37 106.685C54.3973 106.548 54.4376 106.426 54.4881 106.326C54.587 106.111 54.7203 105.991 54.859 105.993C54.9284 105.985 54.9976 106.01 55.0625 106.064C55.1273 106.118 55.1864 106.202 55.236 106.309C55.2834 106.415 55.3205 106.541 55.3452 106.679C55.3698 106.817 55.3814 106.965 55.3792 107.114V117.394C55.3832 118.316 55.2732 119.222 55.0611 120.016C54.8509 120.807 54.5491 121.461 54.1866 121.909C53.8066 122.384 53.3763 122.627 52.9396 122.614C52.5352 122.624 52.1368 122.398 51.7846 121.959V121.959ZM59.0764 122.132C58.6562 121.78 58.2707 121.253 57.941 120.578C57.8739 120.465 57.8191 120.319 57.7808 120.153C57.7424 119.987 57.7214 119.803 57.7193 119.617C57.7201 119.475 57.7339 119.334 57.7598 119.204C57.7857 119.073 57.8232 118.956 57.8701 118.858C57.9148 118.752 57.9689 118.668 58.0292 118.611C58.0894 118.553 58.1544 118.524 58.22 118.526C58.3317 118.522 58.4397 118.614 58.5215 118.782C58.7762 119.318 59.0724 119.75 59.396 120.056C59.7216 120.342 60.0696 120.482 60.4198 120.469C60.8188 120.496 61.2123 120.259 61.5492 119.787C61.6869 119.616 61.802 119.368 61.883 119.069C61.9639 118.769 62.0079 118.428 62.0106 118.08C62.0132 117.705 61.9721 117.335 61.8913 117.005C61.8105 116.676 61.6927 116.397 61.5492 116.197C61.1257 115.648 60.661 115.272 60.1772 115.086C59.5634 114.869 58.9845 114.312 58.4945 113.469C58.2969 113.081 58.1415 112.6 58.0397 112.061C57.9379 111.523 57.8923 110.941 57.9064 110.358C57.8981 109.488 58.0142 108.635 58.2381 107.919C58.4659 107.209 58.7793 106.653 59.1428 106.316C59.5586 105.929 60.0064 105.737 60.4576 105.753C60.8806 105.747 61.3006 105.906 61.6986 106.222C62.0495 106.484 62.3712 106.907 62.6423 107.463C62.7138 107.58 62.7728 107.73 62.8151 107.902C62.8573 108.075 62.8817 108.266 62.8866 108.462C62.8866 108.601 62.8739 108.739 62.8493 108.868C62.8247 108.996 62.7886 109.113 62.7433 109.21C62.7 109.317 62.6467 109.402 62.5871 109.46C62.5275 109.517 62.463 109.545 62.398 109.543C62.3091 109.55 62.2222 109.482 62.1553 109.353C61.9353 108.898 61.675 108.548 61.3908 108.325C61.0965 108.063 60.7824 107.925 60.465 107.919C60.0675 107.874 59.6733 108.099 59.3357 108.565C59.2066 108.753 59.1007 109.01 59.0275 109.311C58.9542 109.612 58.9159 109.948 58.9159 110.29C58.9159 110.631 58.9542 110.968 59.0275 111.269C59.1007 111.57 59.2066 111.826 59.3357 112.015C59.7219 112.512 60.1435 112.861 60.5827 113.046C61.049 113.249 61.504 113.562 61.9397 113.981C62.2685 114.302 62.5496 114.821 62.7509 115.478C62.9547 116.234 63.0538 117.105 63.0359 117.984C63.0417 118.847 62.9212 119.692 62.6921 120.392C62.451 121.114 62.1266 121.681 61.7527 122.032C61.3416 122.429 60.8971 122.629 60.4484 122.618C59.9816 122.637 59.517 122.473 59.0764 122.132V122.132Z" fill="#00C391"/>
<path id="path12" d="M4.39915 122.185C4.38841 122.144 4.37883 122.1 4.37047 122.056C4.31263 121.76 4.29483 121.435 4.31921 121.118H0.898031L5.98234 101.375L7.65149 107.85L8.13549 105.96L6.68047 100.304C6.61073 100.014 6.50918 99.7677 6.38512 99.587C6.26105 99.4062 6.11843 99.297 5.97029 99.2693C5.8225 99.2842 5.67957 99.3904 5.55775 99.5756C5.43594 99.7609 5.34013 100.018 5.28122 100.317L0.130563 120.299C0.0535596 120.581 0.00916092 120.901 0.00127289 121.23C-0.00661514 121.559 0.0222492 121.887 0.0853265 122.185C0.164557 122.461 0.277155 122.682 0.410385 122.824C0.543616 122.965 0.692163 123.022 0.839226 122.987H5.15305C5.00598 123.023 4.85735 122.966 4.72407 122.825C4.5908 122.683 4.47822 122.461 4.39915 122.185V122.185Z" fill="#00C492"/>
<path id="path14" d="M14.3173 120.299L10.0849 103.847C10.0154 103.554 9.91371 103.305 9.78907 103.122C9.66442 102.939 9.52087 102.828 9.37166 102.799C9.22397 102.813 9.08104 102.919 8.9592 103.103C8.83735 103.288 8.7415 103.545 8.68259 103.844L8.13525 105.96L8.62227 107.85L9.37605 104.905L13.5634 121.118H11.9711C11.9915 121.386 11.9801 121.661 11.9379 121.916C11.9291 121.972 11.918 122.027 11.9048 122.079L11.8912 122.139C11.8047 122.409 11.6894 122.627 11.5555 122.775C11.4217 122.923 11.2734 122.996 11.1237 122.987H13.6146C13.7643 122.996 13.9126 122.923 14.0465 122.775C14.1804 122.627 14.2957 122.409 14.3821 122.139C14.4503 121.85 14.4804 121.524 14.4689 121.199C14.4575 120.873 14.4049 120.562 14.3173 120.299Z" fill="#008776"/>
<path id="path16" d="M11.8916 122.139L11.9052 122.079C11.9184 122.027 11.9295 121.973 11.9384 121.916C11.9805 121.661 11.9919 121.386 11.9715 121.118C11.9481 120.829 11.9011 120.551 11.8328 120.299L8.62583 107.85L8.1358 105.96L7.64879 107.85L4.44318 120.3C4.38096 120.555 4.33913 120.832 4.31954 121.118C4.29375 121.434 4.30999 121.76 4.3663 122.056C4.37465 122.101 4.38423 122.144 4.39499 122.186C4.47424 122.462 4.58685 122.683 4.72008 122.824C4.85332 122.966 5.00186 123.023 5.14891 122.988H11.1196C11.27 122.998 11.4192 122.925 11.5539 122.777C11.6886 122.629 11.8046 122.41 11.8916 122.139V122.139ZM8.13568 109.74L11.0669 121.118H5.20603L8.13568 109.74Z" fill="#2D4A5D"/>
</g>
</g>
<path id="bootstrap" fill-rule="evenodd" clip-rule="evenodd" d="M229.151 172.604C226.402 172.604 224.368 175.631 224.459 178.915C224.547 182.069 224.433 186.154 223.616 189.486C222.796 192.827 221.41 194.944 219.145 195.216V198.284C221.41 198.556 222.796 200.673 223.616 204.014C224.433 207.346 224.547 211.431 224.459 214.586C224.368 217.869 226.402 220.897 229.151 220.897H257.317C260.066 220.897 262.099 217.869 262.008 214.586C261.921 211.431 262.034 207.346 262.852 204.014C263.672 200.673 265.055 198.556 267.319 198.284V195.216C265.055 194.944 263.672 192.828 262.852 189.486C262.034 186.155 261.921 182.069 262.008 178.915C262.099 175.632 260.066 172.604 257.317 172.604H229.151H229.151ZM251.805 202.331C251.805 206.852 249.126 209.594 244.679 209.594H237.108C236.892 209.594 236.684 209.486 236.531 209.293C236.378 209.1 236.292 208.839 236.292 208.567V184.934C236.292 184.661 236.378 184.4 236.531 184.207C236.684 184.014 236.892 183.906 237.108 183.906H244.635C248.344 183.906 250.777 186.434 250.777 190.315C250.777 193.039 249.14 195.477 247.054 195.904V196.047C249.894 196.438 251.805 198.913 251.805 202.331V202.331ZM243.853 187.163H239.537V194.836H243.172C245.983 194.836 247.532 193.412 247.532 190.866C247.532 188.481 246.2 187.163 243.853 187.163ZM239.537 197.88V206.336H244.012C246.938 206.336 248.488 204.858 248.488 202.081C248.488 199.305 246.895 197.88 243.824 197.88H239.537V197.88Z" fill="#7952B3"/>
<path id="tailwind-icon" d="M332.496 90.3262C325.695 90.3262 321.444 94.301 319.744 102.25C322.295 98.2756 325.27 96.7851 328.671 97.7788C330.611 98.3457 331.997 99.9911 333.532 101.812C336.033 104.779 338.927 108.213 345.248 108.213C352.049 108.213 356.3 104.238 358 96.2883C355.45 100.263 352.474 101.754 349.074 100.76C347.134 100.193 345.747 98.5476 344.212 96.7266C341.711 93.7597 338.817 90.3262 332.496 90.3262ZM319.744 108.213C312.943 108.213 308.692 112.187 306.992 120.137C309.543 116.162 312.518 114.671 315.919 115.665C317.859 116.232 319.245 117.877 320.78 119.698C323.281 122.665 326.175 126.099 332.496 126.099C339.297 126.099 343.548 122.124 345.248 114.175C342.698 118.149 339.722 119.64 336.322 118.646C334.382 118.079 332.995 116.434 331.46 114.613C328.959 111.646 326.065 108.213 319.744 108.213Z" fill="url(#paint0_linear_2_87)"/>
<g id="vuetify-icon">
<path id="Vector_13" d="M270.966 0H263.5L270.966 13.0476" fill="#1697F6"/>
<path id="Vector_14" d="M270.966 0H278.432L270.966 13.0476" fill="#1867C0"/>
<path id="Vector_15" d="M270.966 16.8131V26.9073L255.04 3.91553H263.382" fill="#7BC6FF"/>
<path id="Vector_16" d="M270.966 16.8131V26.9073L286.892 3.91553H278.55" fill="#AEDDFF"/>
</g>
<g id="css-icon">
<path id="Vector_17" d="M239.847 143.208L212.812 136.777L206.788 78.8806H272.986L266.956 136.768L239.847 143.208V143.208Z" fill="#264DE4"/>
<path id="Vector_18" d="M261.793 133.082L266.947 83.6147H239.888V138.286L261.793 133.082V133.082Z" fill="#2965F1"/>
<path id="Vector_19" d="M220.599 105.087L221.342 112.188H239.887V105.087H220.599ZM219.106 90.7153L219.86 97.8161H239.887V90.7153H219.106V90.7153ZM239.887 123.529L239.851 123.537L230.621 121.402L230.031 115.739H221.712L222.873 126.888L239.849 130.926L239.887 130.917V123.529Z" fill="#EBEBEB"/>
<path id="Vector_20" d="M222.367 63.1467H232.404V66.7432H226.565V70.3398H232.405V73.9361H222.367V63.1467ZM234.412 63.1467H244.449V66.2741H238.61V66.8996H244.449V74.0926H234.412V70.8085H240.252V70.183H234.412V63.1467H234.412ZM246.457 63.1467H256.494V66.2741H250.655V66.8996H256.494V74.0926H246.457V70.8085H252.297V70.183H246.457V63.1467H246.457Z" fill="black"/>
<path id="Vector_21" d="M259.123 105.087L260.619 90.7153H239.859V97.8161H251.537L250.783 105.087H239.859V112.188H250.064L249.102 121.397L239.859 123.535V130.922L256.849 126.888L256.973 125.688L258.921 106.994L259.123 105.087V105.087Z" fill="white"/>
</g>
</g>
<defs>
<linearGradient id="paint0_linear_2_87" x1="305.575" y1="101.773" x2="352.786" y2="125.062" gradientUnits="userSpaceOnUse">
<stop stop-color="#2298BD"/>
<stop offset="1" stop-color="#0ED7B5"/>
</linearGradient>
</defs>
</svg>
