<svg width="285" height="229" viewBox="0 0 285 229" fill="none" xmlns="http://www.w3.org/2000/svg">
<g id="javascript">
<g id="vuejs">
<path id="path893" fill-rule="evenodd" clip-rule="evenodd" d="M54.564 14.0078H60.2535L45.8872 52.8579L31.4263 14.0078H37.2452L45.8872 37.3963L54.564 14.0078Z" fill="#41B883"/>
<path id="path895" fill-rule="evenodd" clip-rule="evenodd" d="M49.1867 14H54.5979L45.8792 37.4372L37.2305 14H42.5571L45.8792 23.023L49.1867 14Z" fill="#35495E"/>
<path id="path897" fill-rule="evenodd" clip-rule="evenodd" d="M63.6489 21.6696C63.6489 21.383 63.7503 21.1442 63.9531 20.9531C64.1558 20.762 64.3678 20.6665 64.589 20.6665C64.8962 20.6665 65.0867 20.848 65.1604 21.2111L68.4047 38.2353L71.6305 21.2111C71.7165 20.848 71.9009 20.6665 72.1835 20.6665C72.417 20.6665 72.6351 20.7716 72.8379 20.9818C73.0407 21.1919 73.142 21.4308 73.142 21.6983C73.142 21.7174 73.139 21.7461 73.1328 21.7843C73.1267 21.8225 73.1236 21.8607 73.1236 21.8989L69.3817 40.9581C69.2465 41.5121 68.9209 41.7892 68.4047 41.7892C67.8886 41.7892 67.5752 41.5121 67.4646 40.9581L63.686 21.8989C63.6614 21.7843 63.6491 21.7078 63.6491 21.6696H63.6489ZM73.2873 36.3435V28.892C73.2873 28.6627 73.3641 28.4621 73.5177 28.2901C73.6713 28.1182 73.8526 28.0322 74.0615 28.0322C74.2581 28.0322 74.4332 28.123 74.5868 28.3045C74.7405 28.486 74.8173 28.6818 74.8173 28.892V36.3435C74.8173 37.2033 75.0262 37.9771 75.444 38.665C75.8618 39.3528 76.3595 39.6967 76.9371 39.6967C77.5024 39.6967 77.9939 39.3576 78.4117 38.6793C78.8296 38.001 79.0385 37.2224 79.0385 36.3435V28.8629C79.0385 28.6527 79.1153 28.4617 79.2689 28.2897C79.4225 28.1178 79.6038 28.0318 79.8127 28.0318C80.0339 28.0318 80.2151 28.113 80.3565 28.2754C80.4978 28.4378 80.5684 28.6336 80.5684 28.8629V36.3435C80.5684 37.8147 80.209 39.0996 79.4901 40.1983C78.7712 41.2969 77.9202 41.8463 76.9371 41.8463C75.9417 41.8463 75.0846 41.2969 74.3657 40.1983C73.6468 39.0996 73.2873 37.8147 73.2873 36.3435H73.2873ZM81.8194 36.2862V33.2768C81.8194 31.8056 82.1789 30.535 82.8977 29.465C83.6166 28.395 84.4799 27.8601 85.4876 27.8601C86.4462 27.8601 87.2756 28.3616 87.9761 29.3648C88.6766 30.3678 89.0268 31.6241 89.0268 33.1336C89.0268 33.6877 88.9838 34.1319 88.8978 34.4663C88.8117 34.8007 88.6796 35.0395 88.5015 35.1828C88.3233 35.3261 88.1574 35.4169 88.0038 35.4551C87.8501 35.4933 87.6443 35.5124 87.3862 35.5124H83.3493V36.3722C83.3493 37.4231 83.592 38.2638 84.0774 38.8943C84.5628 39.5249 85.1926 39.8401 85.9668 39.8401C86.3724 39.8401 86.7256 39.7446 87.0267 39.5535C87.3278 39.3625 87.5705 39.1762 87.7548 38.9947C87.9392 38.8132 88.0866 38.7224 88.1972 38.7224C88.3693 38.7224 88.5167 38.8418 88.6396 39.0807C88.7625 39.3195 88.824 39.5631 88.824 39.8115C88.824 40.2509 88.5444 40.7 87.9852 41.1585C87.4261 41.617 86.7349 41.8463 85.9115 41.8463C84.7072 41.8463 83.7241 41.3352 82.9622 40.313C82.2003 39.2908 81.8193 37.9486 81.8193 36.2863L81.8194 36.2862ZM83.3493 33.9074H86.7595C87.079 33.9074 87.294 33.8453 87.4047 33.7211C87.5153 33.5969 87.5706 33.3533 87.5706 32.9903C87.5706 32.1305 87.3678 31.3758 86.9623 30.7261C86.5568 30.0765 86.0591 29.7516 85.4692 29.7516C84.8916 29.7516 84.3939 30.0526 83.9761 30.6544C83.5583 31.2563 83.3494 31.9967 83.3494 32.8756L83.3493 33.9074ZM89.7988 40.2985C89.7988 39.8782 89.8909 39.5199 90.0752 39.2238C90.2596 38.9276 90.4869 38.7796 90.7573 38.7796C91.0153 38.7796 91.2365 38.9276 91.4209 39.2238C91.6052 39.52 91.6974 39.8782 91.6974 40.2985C91.6974 40.6998 91.6052 41.0485 91.4209 41.3446C91.2365 41.6408 91.0153 41.7889 90.7573 41.7889C90.4869 41.7889 90.2596 41.6408 90.0752 41.3446C89.8909 41.0485 89.7988 40.6998 89.7988 40.2985ZM91.1605 47.1484C91.1605 46.8427 91.222 46.5896 91.3448 46.3889C91.4677 46.1883 91.6152 46.088 91.7872 46.088C92.2665 46.088 92.5799 45.811 92.7274 45.2569C92.8748 44.7028 92.9485 43.8717 92.9485 42.7634V28.8631C92.9485 28.6147 93.0192 28.4141 93.1605 28.2613C93.3019 28.1084 93.4831 28.032 93.7043 28.032C93.9255 28.032 94.1098 28.1084 94.2573 28.2613C94.4048 28.4141 94.4785 28.6147 94.4785 28.8631V42.7634C94.4785 44.4258 94.2696 45.7441 93.8518 46.7186C93.434 47.693 92.8011 48.1802 91.9532 48.1802C91.4248 48.1802 91.1605 47.8363 91.1605 47.1485L91.1605 47.1484ZM92.7458 22.9304C92.7458 22.5674 92.8379 22.2522 93.0223 21.9846C93.2066 21.7171 93.4339 21.5834 93.7043 21.5834C93.9624 21.5834 94.1835 21.7171 94.3679 21.9846C94.5522 22.2521 94.6444 22.5674 94.6444 22.9304C94.6444 23.2935 94.5522 23.6135 94.3679 23.8906C94.1835 24.1676 93.9624 24.3061 93.7043 24.3061C93.4462 24.3061 93.222 24.1676 93.0315 23.8906C92.841 23.6135 92.7457 23.2935 92.7457 22.9304H92.7458ZM95.619 39.6678C95.619 39.4194 95.6712 39.1758 95.7757 38.937C95.8802 38.6982 96.0061 38.5788 96.1536 38.5788C96.2519 38.5788 96.3932 38.6934 96.5775 38.9227C96.7619 39.152 97.0261 39.3765 97.3702 39.5962C97.7142 39.8159 98.1198 39.9258 98.5867 39.9258C99.2012 39.9258 99.6466 39.7538 99.9231 39.4099C100.2 39.066 100.338 38.6361 100.338 38.1202C100.338 37.4897 100.184 36.9881 99.8771 36.6155C99.5698 36.2429 99.195 35.9611 98.7526 35.77C98.3102 35.579 97.8678 35.3688 97.4254 35.1395C96.983 34.9102 96.6082 34.5281 96.301 33.9931C95.9938 33.4581 95.8401 32.7511 95.8401 31.8722C95.8401 30.7832 96.089 29.8421 96.5867 29.0492C97.0844 28.2563 97.8432 27.8598 98.8632 27.8598C99.5145 27.8598 100.11 28.0174 100.651 28.3327C101.192 28.648 101.462 29.0062 101.462 29.4074C101.462 29.6367 101.404 29.8947 101.287 30.1813C101.17 30.4679 101.026 30.6112 100.854 30.6112C100.805 30.6112 100.568 30.4727 100.144 30.1956C99.7203 29.9186 99.2994 29.78 98.8816 29.78C98.3163 29.78 97.8954 29.9854 97.6189 30.3962C97.3424 30.807 97.2042 31.2704 97.2042 31.7863C97.2042 32.3212 97.3578 32.7416 97.665 33.0473C97.9722 33.353 98.3501 33.5919 98.7987 33.7638C99.2472 33.9358 99.6927 34.146 100.135 34.3944C100.577 34.6428 100.952 35.0679 101.26 35.6697C101.567 36.2716 101.72 37.0502 101.72 38.0056C101.72 39.1902 101.45 40.1264 100.909 40.8142C100.369 41.5021 99.6128 41.846 98.642 41.846C97.8064 41.846 97.0936 41.6119 96.5038 41.1438C95.9139 40.6757 95.619 40.1837 95.619 39.6678L95.619 39.6678Z" fill="#010101"/>
</g>
<g id="jslogo">
<path id="Vector" d="M106.199 88.2878H148.451V151.032H106.199V88.2878Z" fill="#F7DF1E"/>
<path id="Vector_2" d="M117.31 140.721L120.543 137.815C121.167 139.457 121.734 140.847 123.095 140.847C124.4 140.847 125.223 140.089 125.223 137.141V117.093H129.193V137.224C129.193 143.331 126.783 146.111 123.266 146.111C120.089 146.111 118.246 143.668 117.31 140.72L117.31 140.721ZM131.35 140.089L134.583 137.309C135.434 139.373 136.54 140.889 138.497 140.889C140.143 140.889 141.192 139.668 141.192 137.983C141.192 135.961 140.114 135.245 138.299 134.066L137.306 133.434C134.441 131.623 132.541 129.349 132.541 124.548C132.541 120.125 134.81 116.756 138.356 116.756C140.88 116.756 142.695 118.061 144 121.473L140.908 124.421C140.227 122.61 139.49 121.894 138.355 121.894C137.192 121.894 136.455 122.99 136.455 124.421C136.455 126.19 137.192 126.907 138.894 128.002L139.887 128.633C143.262 130.782 145.162 132.971 145.162 137.899C145.162 143.206 142.354 146.112 138.582 146.112C134.895 146.112 132.513 143.501 131.35 140.089" fill="black"/>
</g>
<g id="jquery">
<g id="Group">
<path id="Vector_3" d="M51.5434 201.409L51.0475 203.814L51.5434 201.408V201.409ZM54.0938 206.634L53.5476 206.629L54.0938 206.634ZM53.9595 210.227L50.686 210.244L53.9595 210.227ZM54.6448 206.639L54.0979 206.634L54.6448 206.639ZM54.247 209.924L54.8181 206.945L54.247 209.924ZM66.3006 196.215L65.239 203.053L66.3006 196.215ZM63.5701 196.205L62.7638 201.315L63.5701 196.205Z" fill="#131B28"/>
<path id="Vector_4" d="M66.1119 195.899H63.8409C63.7146 195.899 63.5897 196.037 63.5628 196.206L61.9503 206.426C61.9234 206.594 61.7984 206.732 61.6728 206.732H60.065C58.4739 206.732 58.658 205.226 58.9899 203.162L59 203.099L59.1929 201.692L59.2762 201.112L60.0099 196.206C60.0354 196.037 59.9528 195.898 59.8264 195.898H57.495C57.4307 195.901 57.3689 195.933 57.319 195.988C57.269 196.044 57.2336 196.12 57.2182 196.205L56.1546 203.027C55.5768 206.637 55.73 210.08 58.869 210.188H63.886C64.0123 210.188 64.1366 210.05 64.1635 209.88L66.288 196.203C66.3148 196.033 66.2322 195.895 66.1065 195.895L66.1119 195.899ZM75.1689 206.768C75.2952 206.768 75.3705 206.906 75.3523 207.075L75.132 208.552L75.1689 206.768ZM74.917 210.029L75.1373 208.551L74.917 210.029ZM74.6482 210.34L70.4624 210.367L74.6482 210.34Z" fill="#131B28"/>
<path id="Vector_5" d="M69.1017 204.866C69.0997 204.704 69.2341 204.426 69.3604 204.426L69.0768 204.42C68.9425 206.181 69.1017 204.866 69.1017 204.866V204.866ZM70.6638 210.365H70.6202H70.6638ZM75.1708 206.777C75.2971 206.777 75.3724 206.915 75.3543 207.084L75.1036 208.792L75.1708 206.777ZM71.7389 210.362H71.7294H71.7389ZM71.1812 210.365H71.1489H71.1812ZM71.0119 210.365H70.9581H71.0119ZM70.8385 210.365H70.7915H70.8385ZM71.1489 210.365H71.0112H71.1489Z" fill="#131B28"/>
<path id="Vector_6" d="M71.7299 210.363L71.1816 210.365L71.7299 210.363ZM74.6438 210.338L71.7379 210.362L74.6438 210.338ZM74.9126 210.03L75.0974 208.793L74.9126 210.031V210.03ZM70.9512 210.365H70.8316H70.9512ZM70.6119 210.367H70.4506H70.6119ZM70.7825 210.365H70.6481H70.7825ZM37.5525 204.903L37.9052 202.761L37.5021 205.208L37.4551 205.516L37.5532 204.901L37.5525 204.903ZM41.7773 195.863H39.2826C39.2181 195.867 39.1562 195.898 39.1058 195.953C39.0554 196.008 39.0191 196.084 39.0024 196.17L38.5294 199.022C38.5215 199.059 38.5201 199.098 38.5256 199.135C38.531 199.173 38.5429 199.209 38.5605 199.239C38.578 199.269 38.6006 199.293 38.6263 199.308C38.652 199.324 38.6801 199.331 38.7081 199.328H41.2223C41.3486 199.328 41.4736 199.19 41.5005 199.022L41.9574 196.163C41.9842 195.995 41.9036 195.857 41.776 195.857L41.7773 195.863ZM41.2398 200.62L40.5007 205.255L41.2398 200.62ZM33.9929 215.978L36.0502 216C35.4428 216 34.4397 215.984 33.9922 215.977L33.9929 215.978Z" fill="#131B28"/>
<path id="Vector_7" d="M38.2646 200.619L37.9112 202.761L38.2646 200.619ZM41.0596 200.312H38.5515C38.487 200.315 38.425 200.347 38.3746 200.402C38.3242 200.457 38.288 200.533 38.2713 200.618L37.5658 204.902L37.4677 205.517L36.7958 209.89C36.7625 210.094 36.7222 210.296 36.6749 210.494C36.6749 210.494 36.2046 212.408 35.4158 212.387L34.633 212.367C34.5688 212.369 34.5069 212.4 34.4561 212.453C34.4054 212.507 34.3685 212.582 34.3508 212.667L33.8295 215.668C33.8212 215.705 33.8196 215.744 33.8246 215.781C33.8297 215.819 33.8413 215.855 33.8585 215.885C33.8757 215.915 33.898 215.939 33.9234 215.955C33.9489 215.972 33.9768 215.979 34.0048 215.977L36.0628 216C38.0355 216 39.0749 214.503 39.742 210.197L41.2538 200.628C41.2807 200.46 41.1987 200.322 41.0724 200.322L41.0596 200.312ZM76.7769 210.191C76.6506 210.191 76.5754 210.053 76.5955 209.883L78.4882 197.751L76.7769 210.191ZM79.406 209.883L80.172 204.705L79.406 209.883Z" fill="#131B28"/>
<path id="Vector_8" d="M76.6241 210.038C76.6087 209.953 76.6174 209.746 76.6443 209.578L77.5419 203.818L76.5959 209.884C76.5691 210.053 76.651 210.192 76.7773 210.192H77.0071C76.8808 210.192 76.6389 210.123 76.6241 210.038V210.038ZM79.2579 210.123C79.1894 210.159 79.0295 210.192 78.9032 210.192H79.133C79.1971 210.188 79.2586 210.156 79.3083 210.1C79.358 210.045 79.3932 209.969 79.4084 209.883L79.4541 209.576C79.4293 209.745 79.3197 210.085 79.2526 210.123H79.2579ZM79.7901 207.294L80.128 205.009L79.7901 207.294ZM87.2533 198.564L87.3575 199.153C87.3864 199.322 87.3064 199.459 87.1808 199.46" fill="#131B28"/>
<path id="Vector_9" d="M79.4526 209.576L79.7886 207.294L79.4526 209.576ZM87.1491 197.96L87.2519 198.563L87.1491 197.96ZM80.1279 205.01L80.2206 204.399L80.5814 202.085L80.1729 204.706L80.1279 205.009V205.01ZM78.5187 197.552L78.4401 198.058L77.5425 203.818L78.4885 197.752L78.5187 197.553V197.552Z" fill="#131B28"/>
<path id="Vector_10" d="M87.3585 199.153L87.2544 198.564L87.0999 197.644C86.8956 196.559 86.2963 195.93 84.9942 195.93L79.001 195.925C78.9367 195.928 78.8749 195.959 78.825 196.015C78.775 196.07 78.7396 196.147 78.7242 196.232L78.6314 196.833L78.4971 197.741L76.6534 209.567C76.6265 209.736 76.6178 209.935 76.6332 210.027C76.6487 210.119 76.8906 210.181 77.0162 210.181H78.9109C79.0372 210.181 79.1965 210.149 79.2657 210.112C79.3349 210.074 79.4364 209.743 79.4673 209.565L80.1862 204.694L80.9555 199.759C80.9824 199.59 81.1067 199.453 81.2323 199.452L87.1939 199.449C87.3196 199.449 87.3995 199.311 87.3706 199.142L87.3585 199.153ZM95.0328 193.822L94.5739 193.825H92.6657C92.5959 193.831 92.5277 193.857 92.4658 193.902C92.404 193.946 92.3498 194.009 92.307 194.085L88.0875 202.549C88.0163 202.692 87.935 202.671 87.9061 202.503L87.5957 200.638C87.579 200.553 87.5428 200.477 87.4924 200.422C87.442 200.367 87.38 200.335 87.3155 200.332H84.6031C84.4768 200.332 84.4016 200.467 84.4365 200.634L85.6459 206.465C85.6808 206.631 85.6829 206.904 85.6526 207.072L85.1151 209.894C85.106 209.931 85.1035 209.969 85.1081 210.007C85.1126 210.045 85.124 210.081 85.1411 210.111C85.1583 210.141 85.1807 210.165 85.2063 210.18C85.2319 210.196 85.2599 210.202 85.2878 210.199H87.9753C88.1016 210.199 88.2306 210.061 88.2615 209.895L88.7991 207.073C88.8412 206.875 88.907 206.687 88.9939 206.518L95.8444 194.067C95.9203 193.929 95.8794 193.817 95.753 193.819L95.0341 193.825L95.0328 193.822ZM73.4814 201.126C73.4653 201.31 73.339 201.448 73.2127 201.448H69.7726C69.6537 201.448 69.5933 201.338 69.6114 201.2L69.6141 201.175L69.6295 201.095C69.9655 199.899 70.6273 199.114 71.8844 199.114C73.3 199.114 73.5762 200.061 73.4801 201.126H73.4814ZM72.4736 195.69C68.0593 195.69 67.0132 199.359 66.4267 203.063C65.8394 206.838 65.8905 210.368 70.458 210.368H71.1823L71.7399 210.365L74.6465 210.342C74.7103 210.337 74.7714 210.305 74.8207 210.25C74.8699 210.194 74.9048 210.118 74.9199 210.033L75.3614 207.078C75.3869 206.909 75.3043 206.771 75.1779 206.771H71.0721C69.4394 206.771 68.9536 206.176 69.1323 204.429H75.6966C75.8041 204.426 75.9016 204.337 75.9399 204.197C75.9466 204.172 75.9533 204.146 75.956 204.119C76.9302 199.086 76.6507 195.694 72.4756 195.694L72.4736 195.69ZM51.6076 201.107L51.5458 201.408C51.5458 201.408 51.0499 203.814 51.0499 203.814L50.5541 206.22C50.5335 206.304 50.4946 206.379 50.4425 206.432C50.3905 206.486 50.3277 206.517 50.2625 206.521H47.6388C45.6487 206.521 45.1642 204.39 45.6487 201.246C46.1324 198.03 47.0831 196.031 49.0417 195.828C51.7185 195.552 52.2533 198.13 51.6083 201.106L51.6076 201.107ZM53.4069 206.337C53.4069 206.337 54.6432 202.225 54.9254 199.848C55.3083 196.667 54.146 192.055 49.6544 192.055C45.1884 192.055 43.2494 196.458 42.5096 201.256C41.7705 206.077 42.7394 210.306 47.1792 210.273L53.9558 210.238C54.0208 210.234 54.0832 210.203 54.1346 210.148C54.1859 210.093 54.2237 210.018 54.2427 209.933L54.8138 206.954C54.8231 206.918 54.8256 206.879 54.8212 206.841C54.8168 206.804 54.8055 206.768 54.7885 206.738C54.7715 206.707 54.7493 206.683 54.7238 206.668C54.6983 206.652 54.6703 206.645 54.6425 206.648H53.5493C53.4418 206.647 53.3814 206.553 53.3935 206.428C53.3955 206.405 53.4002 206.382 53.4069 206.358V206.337Z" fill="#131B28"/>
<path id="Vector_11" d="M75.5118 203.585C75.5118 203.699 75.4444 203.791 75.3609 203.791C75.2773 203.791 75.21 203.699 75.21 203.585C75.21 203.47 75.2773 203.378 75.3609 203.378C75.4444 203.378 75.5118 203.47 75.5118 203.585Z" fill="#131B28"/>
</g>
<path id="Vector_12" d="M19.3068 198.236C18.0739 200.663 18.2271 203.821 19.1691 206.399L19.2383 206.583L19.2826 206.699L19.3095 206.766L19.3586 206.886L19.4486 207.098L19.4997 207.214L19.6038 207.437L19.6481 207.531L19.7993 207.83L19.8289 207.885L19.9666 208.136L20.0183 208.227L20.1527 208.441L20.2011 208.521L20.3785 208.799L20.3892 208.814L20.5693 209.075L20.6271 209.155L20.7709 209.339L20.83 209.415L21.0268 209.661L21.0645 209.704L21.2439 209.911L21.3111 209.992L21.4602 210.152L21.5408 210.244L21.7088 210.41L21.7867 210.485L21.9493 210.633L22.0199 210.697L22.2752 210.91L22.3458 210.966L22.5372 211.113L22.6434 211.186L22.7805 211.284L22.812 211.305L22.8678 211.342L23.0848 211.48L23.1305 211.508L23.3838 211.651L23.4456 211.684L23.6841 211.806L23.7144 211.82L23.9804 211.94L24.0449 211.966L24.3137 212.072C30.2767 213.563 32.0088 207.165 32.0088 207.165C30.5542 209.759 27.9775 210.445 25.5251 209.683C25.4324 209.655 25.3424 209.615 25.2523 209.578L25.1851 209.551C25.0973 209.514 25.01 209.475 24.9231 209.434L24.8868 209.415C24.8089 209.378 24.7323 209.338 24.655 209.298L24.5898 209.263C24.5057 209.217 24.4221 209.17 24.3392 209.12L24.2895 209.09L24.0785 208.955L24.0114 208.915C23.9563 208.878 23.9025 208.839 23.8481 208.801L23.7392 208.722C23.6734 208.674 23.6082 208.624 23.5437 208.572L23.4779 208.522C23.392 208.452 23.3069 208.381 23.2226 208.308C23.199 208.288 23.1769 208.266 23.154 208.246L22.9726 208.08C22.9525 208.062 22.9337 208.043 22.9142 208.025L22.7428 207.855L22.6669 207.777L22.5124 207.611L22.4432 207.536L22.2503 207.313C22.2436 207.304 22.2369 207.297 22.2302 207.289C22.1617 207.197 22.0945 207.122 22.0273 207.037L21.9702 206.961L21.8244 206.766L21.7673 206.688C21.7066 206.603 21.647 206.517 21.5885 206.43C21.524 206.333 21.4606 206.235 21.3984 206.135L21.3514 206.058L21.221 205.837L21.174 205.745L21.0235 205.471C19.6717 202.939 19.1832 199.439 20.2764 196.565L19.3068 198.236ZM23.1406 196.192C22.249 197.94 22.2974 200.302 22.9928 202.16C23.1092 202.472 23.241 202.773 23.3872 203.061C23.5216 203.323 23.6694 203.635 23.8461 203.846L24.0463 204.122L24.0987 204.193L24.303 204.453L24.313 204.465L24.5515 204.736L24.6053 204.794L24.8552 205.042L25.0299 205.201L25.2147 205.358L25.2416 205.379L25.4055 205.504L25.464 205.545L25.5782 205.626L25.5957 205.637L25.8342 205.79L25.8866 205.82L26.0881 205.928L26.1721 205.97L26.3515 206.056L26.4321 206.093C26.5182 206.13 26.6028 206.185 26.6922 206.196C31.2966 207.24 32.3595 202.387 32.3595 202.387C31.4014 204.277 29.5457 205.178 27.5656 204.475L27.3049 204.372L27.2263 204.337L27.0449 204.251L26.9623 204.209L26.7661 204.1L26.7123 204.07L26.4725 203.917L26.3515 203.825L26.2823 203.776L26.0942 203.629L25.9094 203.474L25.7347 203.315L25.4861 203.067L25.4304 203.006C24.5569 202.069 23.8763 200.798 23.5491 199.337C23.2132 197.831 23.2803 196.14 23.8736 194.769L23.1406 196.192ZM26.3529 194.665C25.8275 195.723 25.775 197.038 26.1406 198.21C26.5249 199.452 27.3137 200.418 28.2335 200.878L28.3477 200.933L28.3981 200.955L28.562 201.02C31.1044 201.691 31.7871 199.233 31.9772 198.871C31.3725 200.062 30.3647 200.348 29.1123 199.934C29.0103 199.897 28.9095 199.855 28.8099 199.807C28.6881 199.748 28.5685 199.68 28.4518 199.604C28.2305 199.458 28.0202 199.282 27.8243 199.079C26.709 197.92 26.0102 195.712 26.7446 193.913" fill="#0868AC"/>
</g>
<g id="nuxt">
<g id="Calque 1-2">
<path id="path8" d="M27.184 111.895C27.2302 112.01 27.2663 112.147 27.2901 112.296C27.314 112.446 27.3251 112.605 27.3229 112.766V129.509C27.3249 129.687 27.3121 129.863 27.2855 130.029C27.2588 130.195 27.2188 130.346 27.1677 130.474C27.1167 130.603 27.0549 130.704 26.9865 130.772C26.9181 130.839 26.8446 130.872 26.7706 130.867C26.6868 130.867 26.6036 130.835 26.5239 130.772C26.451 130.718 26.3854 130.618 26.3343 130.482L21.8165 116.359V129.654C21.8205 129.966 21.7726 130.269 21.6835 130.497C21.5945 130.724 21.4714 130.857 21.3415 130.867C21.3315 130.867 21.3216 130.867 21.3116 130.867C21.2454 130.873 21.1795 130.845 21.1181 130.785C21.0567 130.726 21.0013 130.636 20.9554 130.521C20.9097 130.406 20.8741 130.27 20.8505 130.121C20.8269 129.972 20.8159 129.813 20.8182 129.654V112.875C20.8165 112.698 20.8301 112.523 20.8583 112.359C20.8864 112.196 20.9284 112.048 20.9815 111.926C21.0313 111.803 21.0911 111.707 21.1572 111.643C21.2233 111.579 21.2943 111.548 21.3655 111.553C21.4562 111.552 21.5461 111.594 21.6302 111.675C21.7068 111.746 21.7739 111.865 21.8247 112.02L26.323 126.175V112.766C26.321 112.611 26.3317 112.457 26.3545 112.313C26.3773 112.168 26.4118 112.036 26.4559 111.923C26.5 111.811 26.5529 111.72 26.6116 111.656C26.6703 111.593 26.7337 111.558 26.798 111.553C26.808 111.553 26.818 111.553 26.8279 111.553C26.8939 111.547 26.9597 111.575 27.021 111.634C27.0824 111.692 27.1379 111.781 27.1841 111.895H27.184ZM36.4649 111.895C36.5626 112.155 36.6142 112.497 36.6087 112.848V123.44C36.618 124.809 36.4796 126.161 36.2067 127.363C35.9483 128.498 35.5644 129.439 35.0973 130.082C34.6132 130.749 34.0638 131.093 33.5057 131.078C32.9427 131.1 32.3874 130.763 31.8963 130.102C31.4271 129.461 31.0413 128.52 30.7819 127.383C30.5091 126.18 30.3706 124.829 30.38 123.46V112.867C30.3779 112.69 30.3913 112.513 30.4195 112.349C30.4476 112.185 30.4899 112.037 30.5434 111.914C30.598 111.786 30.6626 111.685 30.7336 111.618C30.8046 111.551 30.8805 111.518 30.9568 111.522C31.0287 111.522 31.0999 111.557 31.1661 111.624C31.2323 111.692 31.2922 111.79 31.3423 111.914C31.3952 112.034 31.4371 112.18 31.4653 112.341C31.4934 112.503 31.5072 112.677 31.5057 112.852V123.444C31.4998 124.348 31.5951 125.24 31.7818 126.025C31.9548 126.757 32.2054 127.366 32.5082 127.79C32.811 128.214 33.1551 128.437 33.5056 128.438C33.8639 128.444 34.2165 128.225 34.5285 127.803C34.8433 127.385 35.1052 126.771 35.2866 126.025C35.4763 125.242 35.5735 124.35 35.5677 123.444V112.852C35.5624 112.504 35.6113 112.164 35.705 111.898C35.7526 111.77 35.8114 111.669 35.8772 111.601C35.943 111.533 36.0141 111.501 36.0857 111.506C36.1567 111.502 36.2273 111.535 36.2927 111.602C36.3581 111.669 36.4167 111.768 36.4647 111.894L36.4649 111.895ZM45.3095 128.881C45.3784 129.109 45.4146 129.384 45.4124 129.666C45.4154 129.841 45.4023 130.016 45.3741 130.178C45.3459 130.34 45.3032 130.485 45.249 130.603C45.1479 130.833 45.014 130.961 44.8749 130.96C44.7869 130.968 44.6996 130.922 44.6212 130.826C44.5429 130.73 44.4761 130.587 44.4272 130.411L42.1936 123.252L40.0107 130.399C39.9623 130.578 39.8959 130.725 39.8177 130.826C39.7394 130.926 39.6518 130.978 39.563 130.976C39.4978 130.98 39.4329 130.951 39.3724 130.891C39.312 130.832 39.2573 130.743 39.2118 130.631C39.1666 130.531 39.1305 130.41 39.1058 130.275C39.081 130.14 39.0682 129.994 39.068 129.846C39.0705 129.514 39.1194 129.194 39.2069 128.936L41.5631 121.235L39.1956 113.593C39.1216 113.37 39.0808 113.094 39.0795 112.808C39.078 112.633 39.0918 112.46 39.1199 112.298C39.1481 112.137 39.19 111.991 39.2429 111.871C39.293 111.747 39.3529 111.648 39.4191 111.581C39.4853 111.514 39.5565 111.479 39.6284 111.479C39.714 111.48 39.7985 111.528 39.8751 111.62C39.9561 111.712 40.0255 111.854 40.0761 112.032L42.2836 119.152L44.4698 112.102C44.5174 111.925 44.5817 111.778 44.6575 111.672C44.7334 111.566 44.8185 111.505 44.9061 111.494C44.9746 111.495 45.0423 111.53 45.1048 111.598C45.1672 111.665 45.2231 111.764 45.2688 111.886C45.3185 111.993 45.3586 112.122 45.3867 112.267C45.4148 112.412 45.4302 112.57 45.4322 112.73C45.4283 113.013 45.3884 113.287 45.3178 113.514L42.919 121.18L45.3095 128.881ZM53.6018 111.895C53.6552 112.011 53.6975 112.155 53.7257 112.315C53.7539 112.474 53.7674 112.647 53.7652 112.82C53.7672 112.992 53.7536 113.162 53.7254 113.319C53.6971 113.476 53.655 113.616 53.6018 113.731C53.4912 113.955 53.3496 114.073 53.2048 114.06H51.1591V129.545C51.1605 129.72 51.1466 129.893 51.1185 130.055C51.0904 130.216 51.0485 130.362 50.9957 130.482C50.8801 130.73 50.7306 130.867 50.5757 130.867C50.4208 130.867 50.2714 130.73 50.1558 130.482C50.1032 130.361 50.0615 130.216 50.0334 130.054C50.0053 129.893 49.9913 129.72 49.9924 129.545V114.06H47.9516C47.8064 114.073 47.6647 113.951 47.5562 113.719C47.5043 113.6 47.4636 113.456 47.4368 113.296C47.41 113.137 47.3978 112.965 47.401 112.793C47.3987 112.626 47.4113 112.459 47.4381 112.304C47.4649 112.149 47.5051 112.009 47.5562 111.895C47.6647 111.663 47.8064 111.54 47.9516 111.554H53.2047C53.3504 111.541 53.4925 111.663 53.6018 111.895V111.895Z" fill="#2C4A5D"/>
<path id="path10" d="M56.1173 130.372C55.7453 129.866 55.4358 129.133 55.2203 128.246C55.1564 128.027 55.1201 127.768 55.1157 127.501C55.1157 127.33 55.1312 127.161 55.1611 127.005C55.191 126.85 55.2346 126.713 55.2889 126.602C55.3825 126.367 55.5099 126.227 55.6451 126.21C55.7467 126.233 55.8451 126.306 55.9343 126.425C56.0234 126.543 56.1014 126.705 56.1631 126.9C56.2886 127.396 56.4659 127.805 56.6774 128.085C56.8889 128.366 57.1273 128.509 57.3689 128.501C57.5665 128.512 57.7629 128.427 57.9465 128.252C58.1301 128.077 58.2971 127.815 58.4376 127.481C58.5793 127.159 58.6914 126.769 58.7668 126.336C58.8422 125.904 58.8792 125.439 58.8754 124.97V112.875C58.8746 112.699 58.8894 112.524 58.919 112.362C58.9486 112.2 58.9922 112.056 59.047 111.938C59.1541 111.684 59.2986 111.543 59.449 111.545C59.5241 111.536 59.5991 111.565 59.6694 111.629C59.7397 111.693 59.8037 111.792 59.8575 111.918C59.9088 112.043 59.9491 112.191 59.9758 112.354C60.0025 112.518 60.015 112.692 60.0127 112.867V124.99C60.017 126.076 59.8978 127.145 59.6679 128.081C59.4401 129.014 59.1131 129.784 58.7202 130.313C58.3085 130.873 57.8421 131.16 57.3689 131.145C56.9307 131.156 56.499 130.889 56.1173 130.372V130.372ZM64.0191 130.576C63.5638 130.161 63.146 129.539 62.7888 128.744C62.716 128.61 62.6567 128.439 62.6152 128.242C62.5736 128.046 62.5508 127.83 62.5486 127.61C62.5494 127.442 62.5644 127.277 62.5924 127.123C62.6205 126.969 62.6612 126.831 62.712 126.716C62.7604 126.591 62.819 126.491 62.8843 126.424C62.9496 126.356 63.02 126.322 63.0911 126.323C63.2121 126.319 63.3291 126.428 63.4178 126.626C63.6939 127.258 64.0148 127.767 64.3656 128.128C64.7183 128.465 65.0954 128.63 65.475 128.615C65.9073 128.647 66.3337 128.367 66.6988 127.81C66.8481 127.609 66.9728 127.317 67.0605 126.964C67.1483 126.611 67.1959 126.209 67.1988 125.798C67.2016 125.356 67.1571 124.92 67.0696 124.531C66.982 124.142 66.8544 123.814 66.6988 123.577C66.2399 122.93 65.7363 122.486 65.2121 122.267C64.5469 122.011 63.9196 121.355 63.3886 120.36C63.1745 119.903 63.006 119.336 62.8957 118.701C62.7854 118.066 62.7361 117.379 62.7513 116.692C62.7423 115.667 62.8681 114.661 63.1108 113.817C63.3576 112.979 63.6972 112.324 64.0912 111.926C64.5417 111.469 65.027 111.244 65.516 111.263C65.9743 111.256 66.4295 111.443 66.8607 111.816C67.241 112.124 67.5896 112.623 67.8834 113.279C67.9609 113.417 68.0249 113.593 68.0706 113.797C68.1164 114 68.1428 114.225 68.1481 114.456C68.1481 114.621 68.1344 114.784 68.1077 114.935C68.081 115.087 68.042 115.224 67.9929 115.339C67.9459 115.465 67.8882 115.565 67.8236 115.633C67.7591 115.701 67.6892 115.734 67.6187 115.731C67.5223 115.74 67.4282 115.66 67.3556 115.507C67.1173 114.97 66.8352 114.558 66.5272 114.295C66.2082 113.986 65.8679 113.824 65.524 113.816C65.0932 113.763 64.666 114.029 64.3002 114.578C64.1603 114.8 64.0455 115.102 63.9661 115.457C63.8868 115.812 63.8452 116.209 63.8452 116.612C63.8452 117.015 63.8868 117.411 63.9661 117.766C64.0455 118.121 64.1603 118.423 64.3002 118.646C64.7187 119.232 65.1756 119.643 65.6514 119.862C66.1568 120.101 66.6498 120.471 67.122 120.965C67.4783 121.343 67.783 121.955 68.0011 122.73C68.222 123.621 68.3293 124.648 68.3099 125.684C68.3163 126.703 68.1856 127.699 67.9373 128.525C67.6761 129.376 67.3246 130.044 66.9194 130.459C66.4739 130.927 65.9922 131.162 65.506 131.149C65.0001 131.172 64.4967 130.978 64.0191 130.576V130.576Z" fill="#00C391"/>
<path id="path12" d="M4.76721 130.639C4.75556 130.59 4.74518 130.538 4.73612 130.486C4.67345 130.138 4.65416 129.754 4.68058 129.38H0.973165L6.48285 106.1L8.29165 113.735L8.81615 111.506L7.2394 104.837C7.16382 104.495 7.05378 104.205 6.91933 103.992C6.78488 103.778 6.63033 103.65 6.46979 103.617C6.30964 103.635 6.15475 103.76 6.02274 103.978C5.89074 104.197 5.78691 104.5 5.72307 104.853L0.141486 128.415C0.0580406 128.747 0.00992737 129.124 0.00137939 129.512C-0.00716859 129.9 0.0241107 130.287 0.0924654 130.639C0.178324 130.964 0.300343 131.224 0.44472 131.392C0.589098 131.559 0.750073 131.626 0.90944 131.584H5.58418C5.4248 131.626 5.26374 131.56 5.11931 131.393C4.97489 131.225 4.8529 130.964 4.76721 130.639V130.639Z" fill="#00C492"/>
<path id="path14" d="M15.5151 128.415L10.9286 109.015C10.8534 108.67 10.7432 108.376 10.6081 108.16C10.473 107.944 10.3175 107.813 10.1558 107.78C9.99572 107.796 9.84083 107.92 9.7088 108.138C9.57676 108.356 9.47289 108.659 9.40905 109.011L8.81592 111.506L9.34368 113.735L10.1605 110.263L14.6982 129.38H12.9727C12.9948 129.696 12.9824 130.02 12.9368 130.321C12.9272 130.388 12.9151 130.452 12.9008 130.514L12.8861 130.584C12.7923 130.902 12.6674 131.16 12.5224 131.334C12.3773 131.509 12.2166 131.594 12.0544 131.584H14.7537C14.9159 131.595 15.0767 131.509 15.2218 131.335C15.3668 131.16 15.4917 130.902 15.5854 130.584C15.6593 130.243 15.6919 129.859 15.6795 129.475C15.6671 129.092 15.6101 128.725 15.5151 128.415Z" fill="#008776"/>
<path id="path16" d="M12.8865 130.585L12.9012 130.514C12.9155 130.453 12.9275 130.388 12.9372 130.322C12.9828 130.021 12.9952 129.696 12.9731 129.38C12.9477 129.039 12.8967 128.712 12.8228 128.415L9.34746 113.735L8.81644 111.507L8.28868 113.735L4.81487 128.416C4.74744 128.716 4.70212 129.043 4.68089 129.381C4.65294 129.753 4.67054 130.138 4.73156 130.487C4.74061 130.539 4.75099 130.591 4.76265 130.64C4.84853 130.965 4.97056 131.226 5.11494 131.393C5.25932 131.56 5.42029 131.627 5.57965 131.585H12.0499C12.2129 131.597 12.3745 131.512 12.5205 131.337C12.6664 131.162 12.7922 130.904 12.8865 130.585V130.585ZM8.81631 115.963L11.9927 129.38H5.64154L8.81631 115.963Z" fill="#2D4A5D"/>
</g>
</g>
<path id="bootstrap" fill-rule="evenodd" clip-rule="evenodd" d="M207.203 177C205.224 177 203.76 179.44 203.825 182.085C203.888 184.627 203.807 187.919 203.218 190.603C202.628 193.295 201.63 195.001 200 195.22V197.692C201.63 197.912 202.628 199.617 203.218 202.309C203.807 204.994 203.888 208.286 203.825 210.828C203.76 213.473 205.224 215.913 207.203 215.913H227.477C229.456 215.913 230.92 213.473 230.854 210.828C230.791 208.286 230.873 204.994 231.461 202.309C232.052 199.617 233.047 197.911 234.677 197.692V195.22C233.047 195.001 232.052 193.296 231.461 190.603C230.873 187.919 230.791 184.627 230.854 182.085C230.92 179.44 229.456 177 227.477 177H207.202H207.203ZM223.51 200.953C223.51 204.596 221.581 206.805 218.38 206.805H212.93C212.775 206.805 212.625 206.718 212.515 206.563C212.405 206.408 212.343 206.197 212.343 205.978V186.935C212.343 186.716 212.405 186.505 212.515 186.35C212.625 186.194 212.775 186.107 212.93 186.107H218.349C221.018 186.107 222.77 188.144 222.77 191.271C222.77 193.466 221.591 195.431 220.09 195.775V195.889C222.134 196.205 223.51 198.199 223.51 200.953V200.953ZM217.786 188.732H214.679V194.914H217.296C219.319 194.914 220.434 193.767 220.434 191.715C220.434 189.793 219.475 188.732 217.786 188.732ZM214.679 197.367V204.18H217.9C220.006 204.18 221.122 202.99 221.122 200.752C221.122 198.515 219.975 197.367 217.765 197.367H214.679V197.367Z" fill="#7952B3"/>
<path id="tailwind-icon" d="M253.036 108.334C247.979 108.334 244.818 112.133 243.554 119.732C245.45 115.933 247.663 114.508 250.191 115.458C251.634 116 252.665 117.573 253.806 119.313C255.666 122.149 257.818 125.432 262.518 125.432C267.575 125.432 270.736 121.632 272 114.033C270.104 117.833 267.891 119.258 265.363 118.308C263.92 117.766 262.889 116.193 261.747 114.452C259.888 111.616 257.736 108.334 253.036 108.334ZM243.554 125.432C238.497 125.432 235.336 129.231 234.072 136.83C235.968 133.031 238.181 131.606 240.709 132.556C242.152 133.098 243.183 134.671 244.324 136.411C246.184 139.247 248.336 142.53 253.036 142.53C258.093 142.53 261.254 138.73 262.518 131.131C260.622 134.931 258.409 136.356 255.881 135.406C254.438 134.864 253.407 133.291 252.265 131.55C250.406 128.714 248.254 125.432 243.554 125.432Z" fill="url(#paint0_linear_2_87)"/>
<g id="vuetify-icon">
<path id="Vector_13" d="M213.759 21H203.56L213.759 38.8098" fill="#1697F6"/>
<path id="Vector_14" d="M213.759 21H223.959L213.759 38.8098" fill="#1867C0"/>
<path id="Vector_15" d="M213.758 43.9499V57.7284L192 26.3447H203.398" fill="#7BC6FF"/>
<path id="Vector_16" d="M213.759 43.9499V57.7284L235.518 26.3447H224.12" fill="#AEDDFF"/>
</g>
<g id="css-icon">
<path id="Vector_17" d="M183.648 151.029L166.395 145.989L162.55 100.618H204.798L200.949 145.982L183.648 151.029V151.029Z" fill="#264DE4"/>
<path id="Vector_18" d="M197.654 143.094L200.943 104.328H183.674V147.172L197.654 143.094V143.094Z" fill="#2965F1"/>
<path id="Vector_19" d="M171.364 121.155L171.838 126.72H183.674V121.155H171.364ZM170.412 109.892L170.892 115.457H183.674V109.892H170.412V109.892ZM183.674 135.607L183.651 135.614L177.76 133.94L177.384 129.502H172.074L172.815 138.24L183.65 141.404L183.674 141.397V135.607Z" fill="#EBEBEB"/>
<path id="Vector_20" d="M172.493 88.2878H178.898V91.1063H175.172V93.9248H178.899V96.7431H172.493V88.2878ZM180.18 88.2878H186.586V90.7387H182.859V91.2288H186.586V96.8657H180.18V94.2921H183.907V93.8019H180.18V88.2878H180.18ZM187.867 88.2878H194.273V90.7387H190.546V91.2288H194.273V96.8657H187.867V94.2921H191.594V93.8019H187.867V88.2878H187.867Z" fill="black"/>
<path id="Vector_21" d="M195.95 121.155L196.905 109.892H183.656V115.457H191.109L190.627 121.155H183.656V126.72H190.169L189.555 133.937L183.656 135.612V141.401L194.499 138.24L194.578 137.299L195.821 122.649L195.95 121.155V121.155Z" fill="white"/>
</g>
<g id="js-ball">
<path id="Vector_22" d="M131.672 81.291C131.776 81.187 131.858 81.0635 131.915 80.9276C131.971 80.7917 132 80.6461 132 80.499C132 80.3519 131.971 80.2062 131.915 80.0703C131.858 79.9344 131.776 79.8109 131.672 79.7069V79.7069C131.515 79.5503 131.408 79.3507 131.365 79.1334C131.322 78.9161 131.344 78.6908 131.429 78.4861C131.486 78.3502 131.515 78.2044 131.515 78.0571C131.515 77.9099 131.486 77.7641 131.43 77.628C131.373 77.492 131.291 77.3683 131.187 77.2642C131.083 77.1601 130.959 77.0776 130.823 77.0213V77.0213C130.618 76.9366 130.444 76.7933 130.321 76.6095C130.198 76.4257 130.132 76.2095 130.131 75.9883V75.9883C130.131 75.6913 130.013 75.4066 129.803 75.1966C129.593 74.9866 129.309 74.8686 129.012 74.8685V74.8685C128.79 74.8685 128.574 74.8029 128.389 74.6798C128.205 74.5567 128.062 74.3818 127.977 74.1771V74.1771C127.921 74.0411 127.838 73.9174 127.734 73.8133C127.63 73.7092 127.506 73.6266 127.37 73.5703C127.234 73.514 127.088 73.4851 126.941 73.4852C126.794 73.4853 126.648 73.5145 126.512 73.571V73.571C126.307 73.6559 126.082 73.6781 125.865 73.6348C125.647 73.5916 125.448 73.4849 125.291 73.3281V73.3281C125.187 73.2241 125.064 73.1416 124.928 73.0853C124.792 73.029 124.646 73 124.499 73C124.352 73 124.206 73.029 124.07 73.0853C123.934 73.1416 123.811 73.2241 123.707 73.3281V73.3281C123.55 73.4848 123.351 73.5915 123.133 73.6348C122.916 73.678 122.691 73.6558 122.486 73.571V73.571C122.35 73.5145 122.204 73.4853 122.057 73.4852C121.91 73.4851 121.764 73.514 121.628 73.5703C121.492 73.6266 121.368 73.7092 121.264 73.8133C121.16 73.9174 121.078 74.0411 121.021 74.1771V74.1771C120.937 74.3815 120.793 74.5563 120.609 74.6793C120.426 74.8023 120.209 74.8682 119.988 74.8685V74.8685C119.691 74.8686 119.407 74.9866 119.197 75.1966C118.987 75.4066 118.869 75.6913 118.869 75.9883V75.9883C118.869 76.2098 118.803 76.4263 118.68 76.6105C118.557 76.7947 118.382 76.9383 118.177 77.023V77.023C118.041 77.0793 117.917 77.1619 117.813 77.266C117.709 77.3701 117.627 77.4937 117.57 77.6298C117.514 77.7658 117.485 77.9117 117.485 78.0589C117.485 78.2061 117.514 78.3519 117.571 78.4879V78.4879C117.656 78.6926 117.678 78.9179 117.635 79.1353C117.592 79.3527 117.485 79.5523 117.328 79.709V79.709C117.224 79.813 117.142 79.9365 117.085 80.0724C117.029 80.2083 117 80.3539 117 80.501C117 80.6481 117.029 80.7938 117.085 80.9297C117.142 81.0656 117.224 81.1891 117.328 81.2931V81.2931C117.485 81.4497 117.592 81.6493 117.635 81.8666C117.678 82.0839 117.656 82.3092 117.571 82.5139V82.5139C117.514 82.6498 117.485 82.7956 117.485 82.9429C117.485 83.0901 117.514 83.2359 117.57 83.372C117.627 83.508 117.709 83.6317 117.813 83.7358C117.917 83.8399 118.041 83.9224 118.177 83.9787V83.9787C118.382 84.0634 118.556 84.2067 118.679 84.3905C118.802 84.5743 118.868 84.7905 118.869 85.0117V85.0117C118.869 85.3087 118.987 85.5934 119.197 85.8034C119.407 86.0134 119.691 86.1314 119.988 86.1315V86.1315C120.21 86.1315 120.426 86.1971 120.611 86.3202C120.795 86.4433 120.938 86.6182 121.023 86.8229V86.8229C121.079 86.9589 121.162 87.0826 121.266 87.1867C121.37 87.2908 121.494 87.3734 121.63 87.4297C121.766 87.486 121.912 87.5149 122.059 87.5148C122.206 87.5147 122.352 87.4855 122.488 87.429V87.429C122.693 87.3441 122.918 87.3219 123.135 87.3652C123.353 87.4084 123.552 87.5151 123.709 87.6719V87.6719C123.813 87.7759 123.936 87.8584 124.072 87.9147C124.208 87.971 124.354 88 124.501 88C124.648 88 124.794 87.971 124.93 87.9147C125.066 87.8584 125.189 87.7759 125.293 87.6719V87.6719C125.45 87.5152 125.649 87.4085 125.867 87.3652C126.084 87.322 126.309 87.3442 126.514 87.429V87.429C126.65 87.4855 126.796 87.5147 126.943 87.5148C127.09 87.5149 127.236 87.486 127.372 87.4297C127.508 87.3734 127.632 87.2908 127.736 87.1867C127.84 87.0826 127.922 86.9589 127.979 86.8229V86.8229C128.063 86.6185 128.207 86.4437 128.391 86.3207C128.574 86.1977 128.791 86.1318 129.012 86.1315C129.309 86.1314 129.593 86.0134 129.803 85.8034C130.013 85.5934 130.131 85.3087 130.131 85.0117V85.0117C130.131 84.7902 130.197 84.5737 130.32 84.3895C130.443 84.2053 130.618 84.0617 130.823 83.977V83.977C130.959 83.9207 131.083 83.8381 131.187 83.734C131.291 83.6299 131.373 83.5063 131.43 83.3702C131.486 83.2342 131.515 83.0883 131.515 82.9411C131.515 82.7939 131.486 82.6481 131.429 82.5121V82.5121C131.344 82.3074 131.322 82.0821 131.365 81.8647C131.408 81.6473 131.515 81.4477 131.672 81.291V81.291Z" fill="#EA8D28"/>
<path id="Vector_23" d="M124.5 86.125C127.607 86.125 130.125 83.6066 130.125 80.5C130.125 77.3934 127.607 74.875 124.5 74.875C121.393 74.875 118.875 77.3934 118.875 80.5C118.875 83.6066 121.393 86.125 124.5 86.125Z" fill="#FFA840"/>
<path id="Vector_24" fill-rule="evenodd" clip-rule="evenodd" d="M124.936 78.5318L125.254 79.2029C125.288 79.2755 125.339 79.3387 125.403 79.387C125.467 79.4352 125.542 79.467 125.621 79.4795L126.333 79.587C126.732 79.6474 126.89 80.1569 126.603 80.4495L126.087 80.9719C126.03 81.0303 125.988 81.1012 125.964 81.179C125.939 81.2568 125.934 81.3392 125.947 81.4196L126.069 82.1572C126.137 82.5703 125.72 82.8853 125.363 82.6902L124.726 82.3418C124.657 82.3036 124.579 82.2836 124.5 82.2836C124.421 82.2836 124.343 82.3036 124.274 82.3418L123.636 82.6902C123.28 82.8853 122.863 82.5703 122.931 82.1572L123.052 81.4196C123.066 81.3392 123.06 81.2568 123.036 81.179C123.012 81.1012 122.97 81.0303 122.913 80.9719L122.397 80.4495C122.109 80.1566 122.268 79.6474 122.667 79.587L123.379 79.4795C123.458 79.467 123.533 79.4352 123.597 79.387C123.661 79.3387 123.712 79.2755 123.746 79.2029L124.064 78.5318C124.102 78.4478 124.163 78.3766 124.241 78.3266C124.318 78.2766 124.408 78.25 124.5 78.25C124.592 78.25 124.682 78.2766 124.76 78.3266C124.837 78.3766 124.898 78.4478 124.936 78.5318Z" fill="#FBFF4D"/>
</g>
<g id="css-ball">
<path id="Vector_25" d="M190.694 81.291C190.791 81.187 190.868 81.0635 190.92 80.9276C190.973 80.7917 191 80.6461 191 80.499C191 80.3519 190.973 80.2062 190.92 80.0703C190.868 79.9344 190.791 79.8109 190.694 79.7069V79.7069C190.548 79.5503 190.448 79.3507 190.408 79.1334C190.367 78.9161 190.388 78.6908 190.467 78.4861C190.52 78.3502 190.547 78.2044 190.547 78.0571C190.547 77.9099 190.52 77.7641 190.468 77.628C190.415 77.492 190.338 77.3683 190.241 77.2642C190.144 77.1601 190.028 77.0776 189.901 77.0213V77.0213C189.711 76.9366 189.547 76.7933 189.433 76.6095C189.318 76.4257 189.256 76.2095 189.256 75.9883V75.9883C189.256 75.6913 189.146 75.4066 188.95 75.1966C188.754 74.9866 188.488 74.8686 188.211 74.8685V74.8685C188.004 74.8685 187.802 74.8029 187.63 74.6798C187.458 74.5567 187.324 74.3818 187.245 74.1771V74.1771C187.193 74.0411 187.116 73.9174 187.018 73.8133C186.921 73.7092 186.806 73.6266 186.679 73.5703C186.552 73.514 186.416 73.4851 186.278 73.4852C186.141 73.4853 186.005 73.5145 185.878 73.571V73.571C185.687 73.6559 185.477 73.6781 185.274 73.6348C185.071 73.5916 184.885 73.4849 184.738 73.3281V73.3281C184.641 73.2241 184.526 73.1416 184.399 73.0853C184.272 73.029 184.136 73 183.999 73C183.862 73 183.726 73.029 183.599 73.0853C183.472 73.1416 183.357 73.2241 183.26 73.3281V73.3281C183.114 73.4848 182.927 73.5915 182.724 73.6348C182.522 73.678 182.311 73.6558 182.12 73.571V73.571C181.993 73.5145 181.857 73.4853 181.72 73.4852C181.583 73.4851 181.446 73.514 181.319 73.5703C181.192 73.6266 181.077 73.7092 180.98 73.8133C180.883 73.9174 180.806 74.0411 180.753 74.1771V74.1771C180.674 74.3815 180.54 74.5563 180.369 74.6793C180.197 74.8023 179.996 74.8682 179.789 74.8685V74.8685C179.512 74.8686 179.246 74.9866 179.05 75.1966C178.854 75.4066 178.744 75.6913 178.744 75.9883V75.9883C178.744 76.2098 178.683 76.4263 178.568 76.6105C178.453 76.7947 178.29 76.9383 178.099 77.023V77.023C177.972 77.0793 177.856 77.1619 177.759 77.266C177.662 77.3701 177.585 77.4937 177.532 77.6298C177.48 77.7658 177.453 77.9117 177.453 78.0589C177.453 78.2061 177.48 78.3519 177.533 78.4879V78.4879C177.612 78.6926 177.633 78.9179 177.593 79.1353C177.552 79.3527 177.453 79.5523 177.306 79.709V79.709C177.209 79.813 177.132 79.9365 177.08 80.0724C177.027 80.2083 177 80.3539 177 80.501C177 80.6481 177.027 80.7938 177.08 80.9297C177.132 81.0656 177.209 81.1891 177.306 81.2931V81.2931C177.452 81.4497 177.552 81.6493 177.592 81.8666C177.633 82.0839 177.612 82.3092 177.533 82.5139V82.5139C177.48 82.6498 177.453 82.7956 177.453 82.9429C177.453 83.0901 177.48 83.2359 177.532 83.372C177.585 83.508 177.662 83.6317 177.759 83.7358C177.856 83.8399 177.972 83.9224 178.099 83.9787V83.9787C178.289 84.0634 178.453 84.2067 178.567 84.3905C178.682 84.5743 178.744 84.7905 178.744 85.0117V85.0117C178.744 85.3087 178.854 85.5934 179.05 85.8034C179.246 86.0134 179.512 86.1314 179.789 86.1315V86.1315C179.996 86.1315 180.198 86.1971 180.37 86.3202C180.542 86.4433 180.676 86.6182 180.755 86.8229V86.8229C180.807 86.9589 180.884 87.0826 180.982 87.1867C181.079 87.2908 181.194 87.3734 181.321 87.4297C181.448 87.486 181.584 87.5149 181.722 87.5148C181.859 87.5147 181.995 87.4855 182.122 87.429V87.429C182.313 87.3441 182.523 87.3219 182.726 87.3652C182.929 87.4084 183.115 87.5151 183.262 87.6719V87.6719C183.359 87.7759 183.474 87.8584 183.601 87.9147C183.728 87.971 183.864 88 184.001 88C184.138 88 184.274 87.971 184.401 87.9147C184.528 87.8584 184.643 87.7759 184.74 87.6719V87.6719C184.886 87.5152 185.073 87.4085 185.276 87.3652C185.478 87.322 185.689 87.3442 185.88 87.429V87.429C186.007 87.4855 186.143 87.5147 186.28 87.5148C186.417 87.5149 186.554 87.486 186.681 87.4297C186.808 87.3734 186.923 87.2908 187.02 87.1867C187.117 87.0826 187.194 86.9589 187.247 86.8229V86.8229C187.326 86.6185 187.46 86.4437 187.631 86.3207C187.803 86.1977 188.004 86.1318 188.211 86.1315C188.488 86.1314 188.754 86.0134 188.95 85.8034C189.146 85.5934 189.256 85.3087 189.256 85.0117V85.0117C189.256 84.7902 189.317 84.5737 189.432 84.3895C189.547 84.2053 189.71 84.0617 189.901 83.977V83.977C190.028 83.9207 190.144 83.8381 190.241 83.734C190.338 83.6299 190.415 83.5063 190.468 83.3702C190.52 83.2342 190.547 83.0883 190.547 82.9411C190.547 82.7939 190.52 82.6481 190.467 82.5121V82.5121C190.388 82.3074 190.367 82.0821 190.407 81.8647C190.448 81.6473 190.547 81.4477 190.694 81.291V81.291Z" fill="#EA8D28"/>
<path id="Vector_26" d="M184 86.125C186.9 86.125 189.25 83.6066 189.25 80.5C189.25 77.3934 186.9 74.875 184 74.875C181.101 74.875 178.75 77.3934 178.75 80.5C178.75 83.6066 181.101 86.125 184 86.125Z" fill="#FFA840"/>
<path id="Vector_27" fill-rule="evenodd" clip-rule="evenodd" d="M184.407 78.5318L184.704 79.2029C184.735 79.2755 184.783 79.3387 184.843 79.387C184.902 79.4352 184.972 79.467 185.046 79.4795L185.711 79.587C186.083 79.6474 186.23 80.1569 185.962 80.4495L185.481 80.9719C185.428 81.0303 185.389 81.1012 185.366 81.179C185.343 81.2568 185.338 81.3392 185.351 81.4196L185.464 82.1572C185.528 82.5703 185.139 82.8853 184.806 82.6902L184.211 82.3418C184.146 82.3036 184.074 82.2836 184 82.2836C183.926 82.2836 183.853 82.3036 183.789 82.3418L183.194 82.6902C182.861 82.8853 182.472 82.5703 182.535 82.1572L182.649 81.4196C182.662 81.3392 182.656 81.2568 182.634 81.179C182.611 81.1012 182.572 81.0303 182.518 80.9719L182.037 80.4495C181.768 80.1566 181.917 79.6474 182.289 79.587L182.954 79.4795C183.028 79.467 183.098 79.4352 183.157 79.387C183.217 79.3387 183.264 79.2755 183.296 79.2029L183.593 78.5318C183.628 78.4478 183.686 78.3766 183.758 78.3266C183.83 78.2766 183.914 78.25 184 78.25C184.086 78.25 184.17 78.2766 184.242 78.3266C184.314 78.3766 184.372 78.4478 184.407 78.5318Z" fill="#2547C1"/>
</g>
<path id="java-path" d="M121.814 68.0721C121.765 65.7241 121.012 63.5862 121.012 61.2552C121.012 58.8764 120.21 56.7584 120.21 54.4383C120.21 52.9299 119.557 51.6955 119.43 50.2278C119.31 48.855 119.612 47.3975 119.385 46.0397C119.163 44.705 118.696 45.2256 119.185 43.9679C120.091 41.6386 121.012 38.9038 121.012 36.3935C121.012 31.8296 120.252 27.7192 116.779 24.7424C115.889 23.9799 113.928 20.223 113.794 19.0617C113.551 16.9554 110.03 16.9664 108.67 15.8537C105.602 13.3441 101.524 13.2024 97.6648 13.1359C95.259 13.0944 93.1112 11.9329 90.7143 11.9329C88.0477 11.9329 85.3928 11.1309 82.6498 11.1309C79.5659 11.1309 74.4179 9.94545 72.0012 8.01209C70.9701 7.18719 66.7436 7.92298 65.2734 7.92298C64.0087 7.92298 62.7013 7.8253 61.4417 7.94526C60.3895 8.04546 58.8307 9.06651 57.855 8.52447C56.0213 7.50573 53.4433 7.92298 51.4169 7.92298C46.7728 7.92298 42.4581 9.12596 37.8053 9.12596C36.4394 9.12596 33.7332 8.61434 32.7038 9.43784C32.3945 9.6853 30.0852 10.1112 29.585 10.2398C28.2283 10.5887 26.953 10.3672 25.6641 11.1309C22.3543 13.0923 20.8987 16.4823 18.9809 19.6409C17.2704 22.4582 17.417 26.2321 16.5304 29.3984C15.8217 31.9294 15.9512 34.3689 15.9512 36.995C15.9512 40.0138 15.5502 42.9851 15.5502 45.9951C15.5502 51.6971 15.1492 57.7903 15.1492 63.6166C15.1492 66.9444 14.6396 71.4019 16.3522 74.3988C17.2277 75.9309 17.5484 77.7274 18.3571 79.2999C18.7503 80.0644 19.8633 81.3243 19.9611 82.1068C20.0348 82.696 20.5573 83.1485 20.9413 83.5326C21.6617 84.2529 21.512 85.7099 22.1666 86.4955C23.1636 87.6919 23.0705 90.2542 23.5701 91.753C24.1923 93.6196 23.3715 95.9955 24.1493 97.7456C25.0822 99.8446 27.4763 102.736 29.585 103.761C33.2057 105.519 39.3931 103.761 43.2188 103.761C52.8597 103.761 61.8549 104.335 71.2438 106.389C76.2398 107.482 83.2579 107.444 84.0979 114.164C84.5091 117.454 84.1543 121.181 85.234 124.3C86.0499 126.657 85.5069 129.282 86.437 131.607C86.979 132.962 86.5786 135.525 86.5038 136.909C86.3243 140.23 85.7836 143.514 85.3454 146.801C84.9333 149.891 83.3181 153.237 83.3181 156.291C83.3181 158.24 81.6831 160.215 80.9122 161.949C79.7704 164.518 77.1916 165.971 76.1003 168.699C75.5123 170.169 74.4362 171.553 73.672 172.954C71.0219 177.813 63.966 181.912 59.0357 183.469C54.925 184.767 50.5651 185.487 46.5158 186.944C42.7448 188.302 38.3235 186.702 34.4415 186.142C25.4731 184.85 18.2482 188.2 11.7407 193.984C7.09399 198.115 10.3373 206.676 10.3373 211.828C10.3373 215.736 16.5853 218.792 19.1591 220.851C22.9757 223.904 29.3421 224.471 33.9514 225.239C37.0528 225.756 40.1644 226.866 43.3079 226.866C45.8677 226.866 47.4235 225.976 49.4564 224.682C50.3052 224.142 53.3904 224.861 54.4911 224.861C57.0011 224.861 59.511 224.861 62.0209 224.861C73.275 224.861 84.1299 223.83 94.39 218.89C101.013 215.701 106.519 214.111 110.408 207.707C111.51 205.891 112.291 203.839 113.393 202.004C114.091 200.84 115.488 198.814 115.799 197.571C116.543 194.594 117.675 191.647 118.45 188.638C119.183 185.79 120.018 182.941 121.012 180.172C121.352 179.223 122.049 178.145 122.192 177.142C122.794 172.928 122.616 168.595 122.616 164.311" stroke="black" stroke-width="3" stroke-linecap="round"/>
<path id="css-path" d="M184.368 73.2849C183.496 71.1298 183.018 69.5435 181.873 67.671C181.004 66.2481 180.141 64.9211 179.356 63.4383C177.554 60.0343 175.996 54.6701 175.569 50.8292C175.325 48.6391 175.547 46.2989 175.547 44.1014C175.547 41.0675 176.276 38.1537 176.349 35.1905C176.369 34.3676 176.078 33.5598 176.037 32.74C175.886 29.7565 176.94 26.8281 177.529 23.9404C178.286 20.2326 178.883 16.538 180.537 13.0913C181.428 11.233 182.624 9.69852 183.21 7.72239C183.698 6.07687 185.445 4.7241 186.596 3.51196C187.031 3.05429 187.123 2.27789 187.755 1.99709C190.087 0.960524 193.558 2.21525 195.596 3.08869C198.484 4.32623 201.207 7.11724 203.416 9.32637C206.925 12.836 212.462 13.4347 216.871 15.3636C221.106 17.2165 225.152 17.1559 229.681 17.8586C232.693 18.326 235.533 19.4837 238.48 19.975C239.874 20.2073 241.023 23.5581 241.22 24.5864C241.97 28.4851 243.434 32.6379 244.74 36.3712C246.758 42.1353 248.549 50.2415 244.584 55.3961C243.401 56.9346 244.822 60.7349 245.23 62.458C245.66 64.272 245.616 66.0118 245.743 67.8492C245.923 70.4695 247.095 72.7746 247.503 75.3344C248.199 79.709 249.332 83.7866 250.221 88.0325C250.568 89.6913 250.933 91.0593 250.933 92.7554C250.933 94.2851 250.933 95.8148 250.933 97.3445C250.933 98.5703 251.735 99.6809 251.735 100.753C251.735 103.487 254.919 106.562 256.77 108.149C258.856 109.937 263.6 111.379 266.372 111.379C270.707 111.379 275.192 111.78 279.604 111.78C283.857 111.78 283.013 117.439 283.013 120.402C283.013 124.131 278.376 125.209 276.686 127.82C276.27 128.463 273.872 130.403 273.166 130.605C271.874 130.974 270.317 133.002 268.978 133.746C267.962 134.31 267.775 135.233 267.775 136.441C267.775 137.732 266.643 138.911 266.572 140.251C266.321 145.024 260.882 148.024 257.438 150.276C256.786 150.702 256.687 151.336 255.946 151.501C254.708 151.776 253.194 152.811 252.136 153.484C249.07 155.435 245.195 156.311 242.423 158.786C241.231 159.85 237.793 161.279 237.322 162.929C237.084 163.762 238.078 164.304 238.102 165.112C238.144 166.609 237.958 168.115 238.592 169.523C239.205 170.887 239.49 172.836 239.906 174.335C240.452 176.3 240.508 178.318 240.508 180.35C240.508 182.013 241.31 183.539 241.31 185.296C241.31 187.505 240.711 190.56 241.488 192.647C243.127 197.052 244.518 201.582 244.518 206.326C244.518 208.109 244.853 210.291 244.317 212.006C243.576 214.377 239.914 217.752 237.389 218.044C236.183 218.183 234.581 219.083 233.312 219.425C231.879 219.811 230.393 219.937 228.923 220.071C226.71 220.272 224.683 221.252 222.463 221.252C221.676 221.252 220.637 221.057 219.879 221.274C219.276 221.446 218.761 222.309 217.651 222.432C215.145 222.711 212.641 223.296 210.121 223.257C202.889 223.144 195.739 220.998 188.601 220.427C186.492 220.259 182.661 218.163 181.16 216.662C178.803 214.305 177.758 211.585 177.396 208.286C176.685 201.814 177.219 195.059 179.133 188.838C180.1 185.697 180.827 182.428 182.675 179.726C184.289 177.368 183.967 174.279 183.967 171.528C183.967 168.784 183.566 165.942 183.566 163.107" stroke="white" stroke-width="3" stroke-linecap="round"/>
</g>
<defs>
<linearGradient id="paint0_linear_2_87" x1="233.018" y1="119.276" x2="271.064" y2="133.875" gradientUnits="userSpaceOnUse">
<stop stop-color="#2298BD"/>
<stop offset="1" stop-color="#0ED7B5"/>
</linearGradient>
</defs>
</svg>
