<svg width="1885" height="1415" viewBox="0 0 1885 1415" fill="none" xmlns="http://www.w3.org/2000/svg">
<g id="styling">
<path id="reverse-bootstrap-tailwind-path" d="M1033.88 1222.83C876.705 1151.16 725.706 1064.12 582.708 962.754C239.318 720.053 5.18154 439.341 0.0885652 264.23C-1.40084 213.049 15.9017 172.461 51.5163 143.6C109.127 96.9072 211.836 85.7041 348.547 111.177L345.17 133.062C213.994 108.612 116.597 118.434 63.5072 161.461C33.5594 185.734 19.0154 220.069 20.2779 263.521C25.1687 431.661 255.585 705.159 593.637 944.084C735.597 1044.72 885.5 1131.13 1041.54 1202.29L1033.88 1222.83Z" fill="#33A9A2"/>
<path id="bootstrap-tailwind-path" d="M1520.06 1354.33C1460.15 1354.33 1389.21 1343.73 1308.54 1322.48L1313.24 1300.9C1482.63 1345.51 1610.82 1341.8 1674.18 1290.44C1704.13 1266.17 1718.67 1231.83 1717.41 1188.38C1712.52 1020.24 1482.1 746.744 1144.05 507.822C972.718 386.727 790.744 285.877 617.804 216.178L624.761 195.34C799.073 265.592 982.419 367.189 1154.98 489.152C1498.37 731.849 1732.51 1012.56 1737.6 1187.67C1739.09 1238.85 1721.79 1279.44 1686.17 1308.3C1648.35 1338.95 1592.21 1354.33 1520.06 1354.33Z" fill="#BD48B8"/>
<path id="vuetify-path" d="M218.209 1354.09C145.864 1354.1 89.2055 1338.85 51.5163 1308.3C15.9017 1279.44 -1.40084 1238.85 0.0885652 1187.67C5.18154 1012.56 239.319 731.848 582.708 489.152C966.491 217.908 1397.27 57.1566 1607.02 106.946L1602.75 128.643C1397.75 79.9559 973.35 239.45 593.637 507.822C255.585 746.743 25.1703 1020.24 20.2779 1188.38C19.0137 1231.83 33.5594 1266.17 63.5072 1290.44C215.185 1413.35 699.913 1257.98 1144.05 944.083C1449.15 728.456 1665.94 487.197 1709.82 314.459L1729.28 320.427C1684.12 498.18 1464.06 744.304 1154.98 962.753C937.464 1116.49 703.58 1237.3 496.411 1302.93C388.802 1337.02 294.732 1354.09 218.209 1354.09Z" fill="#4D46A4"/>
<g id="css-icon">
<path id="Vector" d="M853.399 832.143L749.217 808.357L726 594.199H981.11L957.869 808.324L853.399 832.143V832.143Z" fill="#264DE4"/>
<path id="Vector_2" d="M937.972 794.689L957.832 611.709H853.555V813.936L937.972 794.689V794.689Z" fill="#2965F1"/>
<path id="Vector_3" d="M779.224 691.137L782.086 717.403H853.555V691.137H779.224ZM773.472 637.976L776.375 664.241H853.555V637.976H773.472V637.976ZM853.555 759.352L853.415 759.383L817.847 751.484L815.573 730.536H783.513L787.987 771.777L853.408 786.712L853.555 786.679V759.352Z" fill="#EBEBEB"/>
<path id="Vector_4" d="M786.039 536H824.719V549.303H802.215V562.607H824.721V575.909H786.039V536ZM832.456 536H871.137V547.568H848.632V549.882H871.137V576.488H832.457V564.341H854.962V562.027H832.455V536H832.456ZM878.874 536H917.555V547.568H895.05V549.882H917.555V576.488H878.874V564.341H901.379V562.027H878.875V536H878.874Z" fill="black"/>
<path id="Vector_5" d="M927.682 691.137L933.447 637.976H853.445V664.241H898.447L895.541 691.137H853.445V717.403H892.772L889.064 751.468L853.444 759.374V786.7L918.917 771.777L919.397 767.339L926.903 698.191L927.682 691.137V691.137Z" fill="white"/>
</g>
<g id="vuetify-icon">
<path id="Vector_6" d="M1757 75.4238H1697L1757 192.056" fill="#1697F6"/>
<path id="Vector_7" d="M1757 75.4238H1817L1757 192.056" fill="#1867C0"/>
<path id="Vector_8" d="M1757 225.715V315.948L1629 110.424H1696.05" fill="#7BC6FF"/>
<path id="Vector_9" d="M1757 225.717V315.949L1885 110.426H1817.95" fill="#AEDDFF"/>
</g>
<path id="tailwind-icon" d="M1155 1162.66C1106.47 1162.66 1076.13 1190.62 1064 1246.55C1082.2 1218.58 1103.43 1208.1 1127.7 1215.09C1141.54 1219.08 1151.44 1230.65 1162.4 1243.46C1180.24 1264.33 1200.89 1288.49 1246 1288.49C1294.53 1288.49 1324.87 1260.53 1337 1204.6C1318.8 1232.57 1297.57 1243.05 1273.3 1236.06C1259.46 1232.07 1249.56 1220.5 1238.6 1207.69C1220.76 1186.82 1200.11 1162.66 1155 1162.66ZM1064 1288.49C1015.47 1288.49 985.133 1316.45 973 1372.38C991.2 1344.41 1012.43 1333.93 1036.7 1340.92C1050.54 1344.91 1060.44 1356.48 1071.4 1369.29C1089.24 1390.16 1109.89 1414.32 1155 1414.32C1203.53 1414.32 1233.87 1386.36 1246 1330.43C1227.8 1358.4 1206.57 1368.88 1182.3 1361.89C1168.46 1357.9 1158.56 1346.33 1147.6 1333.52C1129.76 1312.65 1109.11 1288.49 1064 1288.49Z" fill="url(#paint0_linear_2_88)"/>
<path id="bootstrap" fill-rule="evenodd" clip-rule="evenodd" d="M442.11 0C429.443 0 420.07 15.9239 420.49 33.1929C420.893 49.7838 420.369 71.2714 416.603 88.7945C412.823 106.367 406.436 117.502 396 118.932V135.068C406.436 136.501 412.823 147.631 416.603 165.205C420.369 182.729 420.892 204.216 420.489 220.807C420.07 238.074 429.443 254 442.112 254H571.907C584.574 254 593.945 238.076 593.525 220.807C593.123 204.216 593.646 182.729 597.412 165.205C601.192 147.631 607.564 136.496 618 135.068V118.932C607.564 117.499 601.192 106.369 597.412 88.7945C593.645 71.2739 593.123 49.7838 593.525 33.1929C593.945 15.9264 584.574 0 571.907 0H442.108H442.11ZM546.509 156.354C546.509 180.132 534.159 194.554 513.666 194.554H478.78C477.782 194.554 476.825 193.984 476.119 192.971C475.413 191.957 475.017 190.583 475.017 189.149V64.8514C475.017 63.4181 475.413 62.0435 476.119 61.03C476.825 60.0165 477.782 59.4471 478.78 59.4471H513.467C530.555 59.4471 541.77 72.7417 541.77 93.1532C541.77 107.48 534.226 120.305 524.614 122.552V123.3C537.698 125.361 546.509 138.377 546.509 156.354V156.354ZM509.862 76.5785H489.97V116.933H506.724C519.675 116.933 526.817 109.443 526.817 96.054C526.815 83.5067 520.676 76.5785 509.862 76.5785ZM489.97 132.945V177.417H510.594C524.078 177.417 531.221 169.645 531.221 155.04C531.221 140.435 523.878 132.942 509.726 132.942H489.97V132.945Z" fill="#7952B3"/>
</g>
<defs>
<linearGradient id="paint0_linear_2_88" x1="962.888" y1="1243.19" x2="1297.89" y2="1410.82" gradientUnits="userSpaceOnUse">
<stop stop-color="#2298BD"/>
<stop offset="1" stop-color="#0ED7B5"/>
</linearGradient>
</defs>
</svg>
