<svg width="399" height="373" viewBox="0 0 399 373" fill="none" xmlns="http://www.w3.org/2000/svg">
<g id="javascript">
<g id="vuejs">
<path id="path893" fill-rule="evenodd" clip-rule="evenodd" d="M102.138 118.455H107.366L94.165 160.427L80.877 118.455H86.224L94.165 143.723L102.138 118.455Z" fill="#41B883"/>
<path id="path895" fill-rule="evenodd" clip-rule="evenodd" d="M97.197 118.446H102.169L94.1577 143.767L86.2104 118.446H91.1051L94.1577 128.194L97.197 118.446Z" fill="#35495E"/>
<path id="path897" fill-rule="evenodd" clip-rule="evenodd" d="M110.486 126.732C110.486 126.423 110.579 126.165 110.766 125.958C110.952 125.752 111.147 125.648 111.35 125.648C111.632 125.648 111.808 125.845 111.875 126.237L114.856 144.629L117.821 126.237C117.9 125.845 118.069 125.648 118.329 125.648C118.543 125.648 118.744 125.762 118.93 125.989C119.116 126.216 119.21 126.474 119.21 126.763C119.21 126.784 119.207 126.815 119.201 126.856C119.195 126.897 119.193 126.939 119.193 126.98L115.754 147.571C115.63 148.169 115.331 148.469 114.856 148.469C114.382 148.469 114.094 148.169 113.993 147.571L110.52 126.98C110.498 126.856 110.486 126.773 110.486 126.732H110.486ZM119.343 142.585V134.535C119.343 134.287 119.414 134.071 119.555 133.885C119.696 133.699 119.862 133.606 120.054 133.606C120.235 133.606 120.396 133.704 120.537 133.9C120.678 134.096 120.749 134.308 120.749 134.535V142.585C120.749 143.514 120.941 144.35 121.325 145.093C121.709 145.837 122.166 146.208 122.697 146.208C123.216 146.208 123.668 145.842 124.052 145.109C124.436 144.376 124.628 143.535 124.628 142.585V134.504C124.628 134.276 124.698 134.07 124.839 133.884C124.981 133.699 125.147 133.606 125.339 133.606C125.542 133.606 125.709 133.693 125.839 133.869C125.969 134.044 126.034 134.256 126.034 134.504V142.585C126.034 144.175 125.703 145.563 125.043 146.75C124.382 147.937 123.6 148.53 122.697 148.53C121.782 148.53 120.995 147.937 120.334 146.75C119.673 145.563 119.343 144.175 119.343 142.585H119.343ZM127.183 142.523V139.272C127.183 137.683 127.513 136.31 128.174 135.154C128.835 133.998 129.628 133.42 130.554 133.42C131.435 133.42 132.197 133.962 132.841 135.046C133.484 136.129 133.806 137.487 133.806 139.117C133.806 139.716 133.766 140.196 133.687 140.557C133.608 140.919 133.487 141.177 133.323 141.331C133.16 141.486 133.007 141.584 132.866 141.626C132.725 141.667 132.536 141.687 132.298 141.687H128.589V142.616C128.589 143.752 128.812 144.66 129.258 145.341C129.704 146.022 130.283 146.363 130.994 146.363C131.367 146.363 131.691 146.26 131.968 146.053C132.245 145.847 132.468 145.646 132.637 145.45C132.807 145.253 132.942 145.155 133.044 145.155C133.202 145.155 133.337 145.284 133.45 145.542C133.563 145.801 133.62 146.064 133.62 146.332C133.62 146.807 133.363 147.292 132.849 147.787C132.335 148.283 131.7 148.53 130.943 148.53C129.837 148.53 128.933 147.978 128.233 146.874C127.533 145.77 127.183 144.319 127.183 142.524L127.183 142.523ZM128.589 139.953H131.723C132.016 139.953 132.214 139.886 132.315 139.752C132.417 139.618 132.468 139.355 132.468 138.963C132.468 138.034 132.282 137.218 131.909 136.517C131.536 135.815 131.079 135.464 130.537 135.464C130.006 135.464 129.549 135.789 129.165 136.439C128.781 137.089 128.589 137.889 128.589 138.839L128.589 139.953ZM134.515 146.858C134.515 146.404 134.6 146.017 134.769 145.697C134.939 145.377 135.148 145.217 135.396 145.217C135.633 145.217 135.836 145.377 136.006 145.697C136.175 146.017 136.26 146.404 136.26 146.858C136.26 147.292 136.175 147.668 136.006 147.988C135.836 148.308 135.633 148.468 135.396 148.468C135.148 148.468 134.939 148.308 134.769 147.988C134.6 147.668 134.515 147.292 134.515 146.858ZM135.767 154.259C135.767 153.928 135.823 153.655 135.936 153.438C136.049 153.221 136.184 153.113 136.343 153.113C136.783 153.113 137.071 152.814 137.206 152.215C137.342 151.616 137.41 150.719 137.41 149.521V134.504C137.41 134.235 137.475 134.019 137.604 133.854C137.734 133.688 137.901 133.606 138.104 133.606C138.307 133.606 138.477 133.688 138.612 133.854C138.748 134.019 138.816 134.235 138.816 134.504V149.521C138.816 151.317 138.624 152.741 138.24 153.794C137.856 154.847 137.274 155.373 136.495 155.373C136.009 155.373 135.767 155.002 135.767 154.259L135.767 154.259ZM137.223 128.094C137.223 127.702 137.308 127.362 137.477 127.073C137.647 126.784 137.856 126.639 138.104 126.639C138.341 126.639 138.545 126.784 138.714 127.073C138.883 127.362 138.968 127.702 138.968 128.094C138.968 128.487 138.883 128.832 138.714 129.132C138.545 129.431 138.341 129.581 138.104 129.581C137.867 129.581 137.661 129.431 137.486 129.132C137.311 128.832 137.223 128.487 137.223 128.094H137.223ZM139.864 146.177C139.864 145.909 139.912 145.645 140.008 145.387C140.104 145.129 140.219 145 140.355 145C140.445 145 140.575 145.124 140.744 145.372C140.914 145.62 141.156 145.862 141.473 146.099C141.789 146.337 142.161 146.456 142.591 146.456C143.155 146.456 143.565 146.27 143.819 145.898C144.073 145.527 144.2 145.062 144.2 144.505C144.2 143.824 144.059 143.282 143.776 142.879C143.494 142.477 143.15 142.172 142.743 141.966C142.336 141.759 141.93 141.532 141.523 141.285C141.117 141.037 140.773 140.624 140.49 140.046C140.208 139.468 140.067 138.704 140.067 137.755C140.067 136.578 140.295 135.561 140.753 134.705C141.21 133.848 141.907 133.42 142.845 133.42C143.443 133.42 143.991 133.59 144.488 133.931C144.984 134.271 145.233 134.658 145.233 135.092C145.233 135.34 145.179 135.618 145.072 135.928C144.965 136.238 144.832 136.392 144.674 136.392C144.629 136.392 144.411 136.243 144.022 135.943C143.632 135.644 143.245 135.494 142.862 135.494C142.342 135.494 141.955 135.716 141.701 136.16C141.447 136.604 141.32 137.105 141.32 137.662C141.32 138.24 141.461 138.694 141.744 139.024C142.026 139.355 142.373 139.613 142.785 139.798C143.197 139.984 143.607 140.211 144.013 140.48C144.42 140.748 144.764 141.207 145.047 141.857C145.329 142.508 145.47 143.349 145.47 144.381C145.47 145.661 145.222 146.672 144.725 147.415C144.228 148.159 143.533 148.53 142.641 148.53C141.874 148.53 141.219 148.277 140.677 147.771C140.135 147.266 139.864 146.734 139.864 146.177L139.864 146.177Z" fill="#010101"/>
</g>
<g id="jslogo">
<path id="Vector" d="M151.966 193.274H215.37V269.98H151.966V193.274Z" fill="#F7DF1E"/>
<path id="Vector_2" d="M168.639 257.374L173.491 253.822C174.427 255.83 175.278 257.529 177.321 257.529C179.279 257.529 180.514 256.602 180.514 252.998V228.489H186.472V253.1C186.472 260.566 182.854 263.964 177.576 263.964C172.81 263.964 170.043 260.978 168.639 257.374L168.639 257.374ZM189.708 256.602L194.559 253.204C195.837 255.727 197.497 257.58 200.433 257.58C202.902 257.58 204.476 256.087 204.476 254.027C204.476 251.556 202.859 250.68 200.135 249.239L198.646 248.466C194.347 246.253 191.496 243.472 191.496 237.602C191.496 232.196 194.9 228.076 200.22 228.076C204.008 228.076 206.732 229.673 208.69 233.843L204.05 237.448C203.029 235.234 201.923 234.359 200.22 234.359C198.475 234.359 197.369 235.698 197.369 237.448C197.369 239.61 198.475 240.486 201.029 241.825L202.518 242.597C207.583 245.224 210.434 247.901 210.434 253.925C210.434 260.413 206.221 263.965 200.561 263.965C195.028 263.965 191.453 260.773 189.708 256.602" fill="black"/>
</g>
<g id="jquery">
<g id="Group">
<path id="Vector_3" d="M178.28 20.1061L177.825 22.7045L178.28 20.1051V20.1061ZM180.624 25.7502L180.122 25.7452L180.624 25.7502ZM180.501 29.6328L177.493 29.6507L180.501 29.6328ZM181.13 25.7561L180.628 25.7512L181.13 25.7561ZM180.765 29.3048L181.29 26.0871L180.765 29.3048ZM191.841 14.4938L190.865 21.8824L191.841 14.4938ZM189.332 14.4839L188.591 20.0037L189.332 14.4839Z" fill="#131B28"/>
<path id="Vector_4" d="M191.667 14.1531H189.58C189.464 14.1531 189.35 14.3022 189.325 14.4851L187.843 25.5258C187.818 25.7077 187.704 25.8568 187.588 25.8568H186.111C184.649 25.8568 184.818 24.2296 185.123 22L185.132 21.9324L185.309 20.4115L185.386 19.7853L186.06 14.4851C186.084 14.3022 186.008 14.1522 185.892 14.1522H183.749C183.69 14.1554 183.633 14.1896 183.587 14.2495C183.542 14.3094 183.509 14.3918 183.495 14.4842L182.517 21.8539C181.987 25.7544 182.127 29.4741 185.012 29.5904H189.622C189.738 29.5904 189.852 29.4413 189.877 29.2583L191.829 14.4812C191.854 14.2983 191.778 14.1492 191.662 14.1492L191.667 14.1531ZM199.99 25.8956C200.106 25.8956 200.175 26.0447 200.158 26.2276L199.956 27.823L199.99 25.8956ZM199.758 29.4184L199.961 27.822L199.758 29.4184ZM199.511 29.7544L195.665 29.7842L199.511 29.7544Z" fill="#131B28"/>
<path id="Vector_5" d="M194.415 23.8405C194.413 23.6656 194.537 23.3654 194.653 23.3654L194.392 23.3584C194.269 25.261 194.415 23.8405 194.415 23.8405V23.8405ZM195.851 29.7818H195.81H195.851ZM199.992 25.9051C200.108 25.9051 200.177 26.0542 200.161 26.2371L199.93 28.082L199.992 25.9051ZM196.838 29.7788H196.83H196.838ZM196.326 29.7818H196.296H196.326ZM196.17 29.7818H196.121H196.17ZM196.011 29.7818H195.968H196.011ZM196.296 29.7818H196.17H196.296Z" fill="#131B28"/>
<path id="Vector_6" d="M196.829 29.779L196.326 29.782L196.829 29.779ZM199.507 29.7521L196.837 29.778L199.507 29.7521ZM199.754 29.4191L199.924 28.0832L199.754 29.4201V29.4191ZM196.114 29.782H196.004H196.114ZM195.802 29.7839H195.654H195.802ZM195.959 29.782H195.835H195.959ZM165.424 23.8804L165.748 21.5663L165.378 24.2104L165.334 24.5425L165.425 23.8784L165.424 23.8804ZM169.306 14.1141H167.014C166.954 14.1179 166.898 14.152 166.851 14.2116C166.805 14.2711 166.772 14.353 166.756 14.4451L166.322 17.5266C166.314 17.5665 166.313 17.6086 166.318 17.6494C166.323 17.6903 166.334 17.7285 166.35 17.761C166.366 17.7935 166.387 17.8193 166.411 17.8361C166.434 17.8529 166.46 17.8603 166.486 17.8576H168.796C168.912 17.8576 169.027 17.7085 169.052 17.5266L169.472 14.4382C169.496 14.2563 169.422 14.1072 169.305 14.1072L169.306 14.1141ZM168.812 19.2532L168.133 24.2611L168.812 19.2532ZM162.153 35.8455L164.043 35.8694C163.485 35.8694 162.564 35.8525 162.152 35.8445L162.153 35.8455Z" fill="#131B28"/>
<path id="Vector_7" d="M166.079 19.2524L165.754 21.5665L166.079 19.2524ZM168.647 18.9204H166.342C166.283 18.9242 166.226 18.9583 166.18 19.0179C166.133 19.0774 166.1 19.1593 166.085 19.2514L165.436 23.8796L165.346 24.5436L164.729 29.2682C164.698 29.4886 164.661 29.7066 164.618 29.9213C164.618 29.9213 164.186 31.9889 163.461 31.966L162.742 31.9441C162.683 31.9468 162.626 31.9797 162.579 32.0379C162.532 32.0962 162.498 32.1768 162.482 32.2682L162.003 35.5107C161.996 35.5504 161.994 35.5923 161.999 35.6331C162.003 35.6739 162.014 35.7123 162.03 35.7451C162.046 35.7778 162.066 35.804 162.09 35.8213C162.113 35.8387 162.139 35.8467 162.164 35.8447L164.055 35.8695C165.868 35.8695 166.823 34.2523 167.436 29.6002L168.825 19.2624C168.85 19.0805 168.775 18.9314 168.659 18.9314L168.647 18.9204ZM201.467 29.5933C201.351 29.5933 201.282 29.4442 201.301 29.2613L203.04 16.1541L201.467 29.5933ZM203.883 29.2613L204.587 23.6669L203.883 29.2613Z" fill="#131B28"/>
<path id="Vector_8" d="M201.327 29.4285C201.312 29.337 201.32 29.1133 201.345 28.9314L202.17 22.7088L201.301 29.2625C201.276 29.4454 201.351 29.5945 201.467 29.5945H201.678C201.562 29.5945 201.34 29.5199 201.327 29.4285V29.4285ZM203.747 29.5199C203.684 29.5597 203.537 29.5945 203.421 29.5945H203.632C203.691 29.5907 203.747 29.5562 203.793 29.4961C203.839 29.436 203.871 29.3537 203.885 29.2615L203.927 28.9295C203.904 29.1124 203.803 29.4791 203.742 29.5199H203.747ZM204.236 26.4643L204.546 23.9951L204.236 26.4643ZM211.094 17.033L211.189 17.6691C211.216 17.851 211.142 17.9992 211.027 18.0001" fill="#131B28"/>
<path id="Vector_9" d="M203.926 28.9291L204.235 26.4639L203.926 28.9291ZM210.998 16.3796L211.093 17.0316L210.998 16.3796ZM204.547 23.9968L204.632 23.3367L204.963 20.8368L204.588 23.6678L204.547 23.9958V23.9968ZM203.068 15.9392L202.996 16.4859L202.171 22.7085L203.04 16.1549L203.068 15.9402V15.9392Z" fill="#131B28"/>
<path id="Vector_10" d="M211.191 17.6689L211.096 17.0327L210.954 16.0387C210.766 14.8658 210.215 14.1868 209.019 14.1868L203.511 14.1809C203.452 14.1841 203.396 14.2183 203.35 14.2782C203.304 14.3381 203.271 14.4205 203.257 14.5129L203.172 15.162L203.048 16.1431L201.354 28.9193C201.33 29.1022 201.322 29.3169 201.336 29.4163C201.35 29.5157 201.572 29.5823 201.688 29.5823H203.429C203.545 29.5823 203.691 29.5485 203.755 29.5077C203.818 29.467 203.912 29.1101 203.94 28.9173L204.601 23.6549L205.307 18.323C205.332 18.1411 205.446 17.993 205.562 17.992L211.04 17.988C211.155 17.988 211.229 17.8389 211.202 17.657L211.191 17.6689ZM218.243 11.9095L217.821 11.9125H216.068C216.004 11.9187 215.941 11.9469 215.884 11.9952C215.827 12.0435 215.778 12.1109 215.738 12.1928L211.861 21.3378C211.796 21.4919 211.721 21.4691 211.694 21.2881L211.409 19.2733C211.394 19.1811 211.361 19.0992 211.314 19.0397C211.268 18.9801 211.211 18.946 211.152 18.9422H208.659C208.543 18.9422 208.474 19.0884 208.506 19.2683L209.617 25.5684C209.65 25.7473 209.651 26.0426 209.624 26.2245L209.13 29.2731C209.121 29.3122 209.119 29.3541 209.123 29.3949C209.127 29.4358 209.138 29.4743 209.154 29.5069C209.169 29.5396 209.19 29.5654 209.214 29.5821C209.237 29.5987 209.263 29.6056 209.288 29.6022H211.758C211.874 29.6022 211.993 29.4531 212.021 29.2741L212.515 26.2255C212.554 26.0108 212.614 25.808 212.694 25.6251L218.989 12.1739C219.059 12.0248 219.021 11.9036 218.905 11.9055L218.244 11.9125L218.243 11.9095ZM198.44 19.8001C198.425 19.9989 198.309 20.148 198.193 20.148H195.032C194.922 20.148 194.867 20.0287 194.883 19.8796L194.886 19.8528L194.9 19.7663C195.209 18.4741 195.817 17.6262 196.972 17.6262C198.273 17.6262 198.527 18.65 198.438 19.8001H198.44ZM197.514 13.9274C193.457 13.9274 192.496 17.8916 191.957 21.8925C191.417 25.971 191.464 29.7851 195.661 29.7851H196.327L196.839 29.7821L199.51 29.7562C199.569 29.7519 199.625 29.7171 199.67 29.657C199.716 29.597 199.748 29.515 199.761 29.4232L200.167 26.2304C200.191 26.0475 200.115 25.8984 199.999 25.8984H196.226C194.725 25.8984 194.279 25.2563 194.443 23.3686H200.475C200.574 23.3657 200.663 23.2692 200.699 23.1181C200.705 23.0913 200.711 23.0625 200.713 23.0337C201.609 17.5963 201.352 13.9314 197.515 13.9314L197.514 13.9274ZM178.34 19.7792L178.283 20.1043C178.283 20.1053 177.827 22.7046 177.827 22.7046L177.372 25.303C177.353 25.3946 177.317 25.4748 177.269 25.533C177.221 25.5913 177.164 25.6247 177.104 25.6291H174.693C172.864 25.6291 172.419 23.3259 172.864 19.9293C173.309 16.4552 174.182 14.2952 175.982 14.0765C178.442 13.7783 178.933 16.5635 178.34 19.7782L178.34 19.7792ZM179.993 25.4302C179.993 25.4302 181.129 20.987 181.388 18.4194C181.74 14.983 180.672 10 176.545 10C172.441 10 170.659 14.7574 169.98 19.9402C169.301 25.1489 170.191 29.7175 174.271 29.6817L180.498 29.6449C180.557 29.6403 180.615 29.6062 180.662 29.5471C180.709 29.488 180.744 29.4069 180.761 29.3149L181.286 26.0962C181.294 26.0573 181.297 26.0155 181.293 25.9747C181.289 25.9339 181.278 25.8954 181.263 25.8626C181.247 25.8299 181.227 25.8039 181.203 25.7871C181.18 25.7702 181.154 25.7631 181.129 25.7662H180.124C180.025 25.7652 179.97 25.6629 179.981 25.5277C179.983 25.5028 179.987 25.478 179.993 25.4521V25.4302Z" fill="#131B28"/>
<path id="Vector_11" d="M200.306 22.4563C200.306 22.5796 200.244 22.679 200.167 22.679C200.09 22.679 200.028 22.5796 200.028 22.4563C200.028 22.333 200.09 22.2336 200.167 22.2336C200.244 22.2336 200.306 22.333 200.306 22.4563Z" fill="#131B28"/>
</g>
<path id="Vector_12" d="M148.658 16.6785C147.525 19.3007 147.666 22.7122 148.531 25.4975L148.595 25.6963L148.636 25.8215L148.66 25.8941L148.705 26.0233L148.788 26.252L148.835 26.3772L148.931 26.6187L148.972 26.7201L149.11 27.0432L149.138 27.1028L149.264 27.3742L149.312 27.4716L149.435 27.7032L149.48 27.7897L149.643 28.0899L149.653 28.1068L149.818 28.3881L149.871 28.4746L150.003 28.6734L150.058 28.7559L150.238 29.0213L150.273 29.068L150.438 29.2917L150.5 29.3792L150.637 29.5521L150.711 29.6515L150.865 29.8304L150.937 29.912L151.086 30.071L151.151 30.1406L151.386 30.3712L151.45 30.4308L151.626 30.5899L151.724 30.6694L151.85 30.7748L151.879 30.7976L151.93 30.8374L152.13 30.9865L152.172 31.0163L152.404 31.1714L152.461 31.2072L152.68 31.3384L152.708 31.3543L152.953 31.4835L153.012 31.5113L153.259 31.6266C158.738 33.237 160.33 26.3245 160.33 26.3245C158.993 29.1277 156.625 29.8682 154.372 29.0452C154.287 29.0153 154.204 28.9716 154.121 28.9318L154.06 28.902C153.979 28.862 153.899 28.82 153.819 28.7758L153.785 28.7559C153.714 28.7161 153.643 28.6724 153.572 28.6287L153.512 28.5909C153.435 28.5418 153.358 28.4904 153.282 28.4368L153.237 28.404L153.043 28.2589L152.981 28.2152C152.93 28.1754 152.881 28.1336 152.831 28.0919L152.731 28.0074C152.67 27.9551 152.611 27.9011 152.551 27.8454L152.491 27.7907C152.412 27.7157 152.334 27.6388 152.256 27.5601C152.234 27.5382 152.214 27.5144 152.193 27.4925L152.026 27.3136C152.008 27.2937 151.991 27.2738 151.973 27.2539L151.815 27.07L151.746 26.9855L151.604 26.8066L151.54 26.7251L151.363 26.4846C151.357 26.4746 151.35 26.4677 151.344 26.4587C151.281 26.3593 151.22 26.2778 151.158 26.1863L151.105 26.1048L150.971 25.8941L150.919 25.8096C150.863 25.718 150.808 25.6249 150.755 25.5303C150.695 25.4258 150.637 25.3198 150.58 25.2122L150.537 25.1287L150.417 24.8901L150.374 24.7907L150.235 24.4945C148.993 21.759 148.544 17.9777 149.549 14.8723L148.658 16.6785ZM152.181 14.4698C151.362 16.3584 151.406 18.9101 152.045 20.917C152.152 21.2545 152.273 21.58 152.407 21.8912C152.531 22.1745 152.667 22.5114 152.829 22.7391L153.013 23.0373L153.061 23.1138L153.249 23.3951L153.258 23.408L153.477 23.7003L153.527 23.7629L153.756 24.0313L153.917 24.2033L154.087 24.3722L154.111 24.3951L154.262 24.5303L154.316 24.575L154.421 24.6625L154.437 24.6744L154.656 24.8394L154.704 24.8713L154.889 24.9885L154.966 25.0343L155.131 25.1267L155.205 25.1665C155.284 25.2062 155.362 25.2659 155.444 25.2778C159.675 26.406 160.652 21.1625 160.652 21.1625C159.772 23.2043 158.066 24.1784 156.247 23.419L156.007 23.3076L155.935 23.2699L155.768 23.1764L155.693 23.1307L155.512 23.0134L155.463 22.9806L155.242 22.8156L155.131 22.7162L155.068 22.6635L154.895 22.5045L154.725 22.3375L154.565 22.1655L154.336 21.8971L154.285 21.8315C153.482 20.8196 152.857 19.4459 152.556 17.8673C152.247 16.2401 152.309 14.4141 152.854 12.932L152.181 14.4698ZM155.133 12.8197C154.65 13.9628 154.602 15.3843 154.937 16.6497C155.291 17.9916 156.015 19.0353 156.861 19.5323L156.966 19.592L157.012 19.6158L157.163 19.6854C159.499 20.4111 160.126 17.755 160.301 17.3644C159.745 18.6506 158.819 18.9598 157.668 18.5125C157.574 18.4726 157.482 18.4269 157.39 18.3753C157.278 18.3114 157.168 18.2381 157.061 18.1556C156.858 17.998 156.665 17.8082 156.485 17.589C155.46 16.3365 154.818 13.9509 155.492 12.0076" fill="#0868AC"/>
</g>
<g id="nuxt">
<g id="Calque 1-2">
<path id="path8" d="M162.522 84.011C162.564 84.1359 162.597 84.2834 162.619 84.445C162.641 84.6066 162.651 84.779 162.649 84.9519V103.041C162.651 103.233 162.639 103.424 162.615 103.603C162.59 103.782 162.554 103.945 162.507 104.084C162.46 104.223 162.403 104.332 162.34 104.405C162.277 104.478 162.21 104.513 162.142 104.508C162.065 104.508 161.988 104.474 161.915 104.406C161.848 104.348 161.788 104.239 161.741 104.092L157.59 88.8342V103.198C157.593 103.535 157.549 103.862 157.467 104.108C157.385 104.354 157.272 104.497 157.153 104.508C157.144 104.508 157.135 104.508 157.126 104.508C157.065 104.514 157.004 104.484 156.948 104.42C156.891 104.356 156.84 104.259 156.798 104.135C156.756 104.01 156.723 103.863 156.702 103.702C156.68 103.541 156.67 103.37 156.672 103.198V85.0706C156.671 84.8796 156.683 84.6897 156.709 84.5132C156.735 84.3366 156.773 84.1771 156.822 84.0449C156.868 83.9125 156.923 83.8083 156.984 83.739C157.044 83.6697 157.11 83.6367 157.175 83.6422C157.258 83.6411 157.341 83.6858 157.418 83.7737C157.489 83.8505 157.55 83.9793 157.597 84.1466L161.73 99.4386V84.9519C161.729 84.785 161.739 84.6187 161.759 84.4626C161.78 84.3064 161.812 84.1635 161.853 84.0418C161.893 83.9202 161.942 83.8223 161.996 83.7538C162.05 83.6852 162.108 83.6473 162.167 83.6422C162.176 83.6415 162.185 83.6415 162.194 83.6422C162.255 83.6359 162.316 83.6655 162.372 83.729C162.428 83.7925 162.479 83.8885 162.522 84.011H162.522ZM171.05 84.011C171.14 84.2927 171.187 84.6621 171.182 85.0409V96.4845C171.191 97.9636 171.063 99.4238 170.813 100.723C170.575 101.948 170.222 102.965 169.793 103.66C169.348 104.38 168.843 104.752 168.331 104.737C167.813 104.76 167.303 104.395 166.852 103.681C166.421 102.989 166.066 101.972 165.828 100.744C165.577 99.445 165.45 97.9848 165.458 96.5056V85.0621C165.457 84.8703 165.469 84.6795 165.495 84.5021C165.521 84.3246 165.559 84.1645 165.609 84.0322C165.659 83.8937 165.718 83.7849 165.783 83.7121C165.849 83.6394 165.918 83.6041 165.989 83.6084C166.055 83.6085 166.12 83.6461 166.181 83.7189C166.242 83.7917 166.297 83.8982 166.343 84.0322C166.391 84.1621 166.43 84.3194 166.456 84.4939C166.482 84.6683 166.494 84.8561 166.493 85.0452V96.4887C166.487 97.4657 166.575 98.4288 166.747 99.2775C166.906 100.068 167.136 100.726 167.414 101.184C167.692 101.642 168.009 101.883 168.331 101.884C168.66 101.891 168.984 101.654 169.271 101.198C169.56 100.746 169.8 100.083 169.967 99.2775C170.141 98.4315 170.231 97.4673 170.225 96.4887V85.0452C170.221 84.6695 170.266 84.3022 170.352 84.0152C170.395 83.8768 170.449 83.7671 170.51 83.6939C170.57 83.6207 170.636 83.5857 170.701 83.5914C170.767 83.5871 170.832 83.6223 170.892 83.6947C170.952 83.767 171.006 83.8747 171.05 84.0107L171.05 84.011ZM179.177 102.363C179.24 102.609 179.274 102.906 179.272 103.21C179.274 103.4 179.262 103.589 179.237 103.764C179.211 103.939 179.171 104.096 179.122 104.223C179.029 104.471 178.906 104.609 178.778 104.609C178.697 104.618 178.617 104.568 178.545 104.464C178.473 104.36 178.411 104.206 178.366 104.016L176.314 96.2808L174.308 104.003C174.264 104.196 174.203 104.355 174.131 104.463C174.059 104.572 173.978 104.628 173.897 104.626C173.837 104.63 173.777 104.599 173.722 104.534C173.666 104.47 173.616 104.375 173.574 104.253C173.532 104.145 173.499 104.014 173.477 103.868C173.454 103.722 173.442 103.565 173.442 103.405C173.444 103.047 173.489 102.7 173.569 102.422L175.735 94.1023L173.559 85.846C173.491 85.6048 173.454 85.3065 173.452 84.9983C173.451 84.8092 173.464 84.6215 173.49 84.447C173.515 84.2725 173.554 84.1153 173.603 83.9853C173.649 83.8514 173.704 83.7449 173.764 83.6721C173.825 83.5993 173.891 83.5617 173.957 83.5615C174.036 83.5626 174.113 83.6148 174.184 83.7141C174.258 83.8137 174.322 83.9672 174.368 84.1591L176.397 91.8514L178.406 84.235C178.449 84.044 178.508 83.8849 178.578 83.7707C178.648 83.6566 178.726 83.5906 178.806 83.5781C178.869 83.5791 178.932 83.6173 178.989 83.6903C179.046 83.7633 179.098 83.8695 179.14 84.0019C179.185 84.1171 179.222 84.2572 179.248 84.4139C179.274 84.5705 179.288 84.7404 179.29 84.9131C179.286 85.2193 179.25 85.5151 179.185 85.7607L176.981 94.0432L179.177 102.363ZM186.797 84.011C186.846 84.1373 186.885 84.2921 186.911 84.4648C186.937 84.6374 186.949 84.8239 186.947 85.0113C186.949 85.1961 186.936 85.3799 186.91 85.5497C186.885 85.7195 186.846 85.8713 186.797 85.9945C186.695 86.2374 186.565 86.3644 186.432 86.3506H184.552V103.08C184.554 103.269 184.541 103.456 184.515 103.631C184.489 103.805 184.451 103.962 184.402 104.093C184.296 104.36 184.159 104.508 184.016 104.508C183.874 104.508 183.737 104.36 183.63 104.093C183.582 103.962 183.544 103.805 183.518 103.63C183.492 103.456 183.479 103.269 183.48 103.08V86.3506H181.605C181.472 86.3649 181.341 86.2327 181.242 85.9819C181.194 85.8537 181.157 85.6981 181.132 85.5256C181.107 85.3531 181.096 85.1678 181.099 84.982C181.097 84.8009 181.109 84.6206 181.133 84.4531C181.158 84.2857 181.195 84.1351 181.242 84.0114C181.341 83.7605 181.472 83.6284 181.605 83.6426H186.432C186.566 83.6289 186.697 83.7607 186.797 84.011V84.011Z" fill="#2C4A5D"/>
<path id="path10" d="M189.108 103.973C188.767 103.427 188.482 102.634 188.284 101.676C188.225 101.439 188.192 101.16 188.188 100.871C188.188 100.686 188.202 100.504 188.23 100.336C188.257 100.169 188.297 100.02 188.347 99.9004C188.433 99.6465 188.55 99.4949 188.674 99.4766C188.768 99.5012 188.858 99.5802 188.94 99.7086C189.022 99.837 189.094 100.012 189.15 100.223C189.266 100.758 189.429 101.2 189.623 101.503C189.817 101.806 190.036 101.961 190.258 101.952C190.44 101.964 190.62 101.872 190.789 101.683C190.958 101.494 191.111 101.21 191.24 100.85C191.371 100.502 191.474 100.08 191.543 99.6134C191.612 99.1463 191.646 98.6436 191.643 98.1373V85.0703C191.642 84.8795 191.656 84.6904 191.683 84.5157C191.71 84.341 191.75 84.1847 191.8 84.0574C191.899 83.7838 192.032 83.6314 192.17 83.6335C192.239 83.624 192.308 83.6549 192.372 83.7242C192.437 83.7934 192.496 83.8997 192.545 84.0362C192.592 84.1708 192.629 84.3312 192.654 84.5075C192.678 84.6839 192.69 84.8725 192.688 85.0618V98.1584C192.692 99.3322 192.582 100.487 192.371 101.498C192.162 102.506 191.861 103.338 191.5 103.91C191.122 104.515 190.693 104.825 190.258 104.808C189.856 104.82 189.459 104.532 189.108 103.973V103.973ZM196.369 104.194C195.951 103.745 195.567 103.073 195.239 102.214C195.172 102.07 195.117 101.885 195.079 101.673C195.041 101.461 195.02 101.227 195.018 100.99C195.019 100.808 195.033 100.629 195.058 100.463C195.084 100.297 195.121 100.148 195.168 100.023C195.213 99.8881 195.267 99.7806 195.327 99.7077C195.386 99.6347 195.451 99.5978 195.517 99.5993C195.628 99.5951 195.735 99.712 195.817 99.9257C196.07 100.609 196.365 101.159 196.688 101.549C197.012 101.913 197.358 102.091 197.707 102.075C198.104 102.11 198.496 101.807 198.832 101.206C198.969 100.988 199.083 100.673 199.164 100.291C199.245 99.91 199.288 99.4756 199.291 99.0314C199.294 98.554 199.253 98.0827 199.172 97.6626C199.092 97.2426 198.975 96.8879 198.832 96.6325C198.41 95.9335 197.947 95.454 197.465 95.2169C196.854 94.9405 196.278 94.2319 195.79 93.1571C195.593 92.6629 195.438 92.0501 195.337 91.3641C195.236 90.6781 195.19 89.9364 195.204 89.1942C195.196 88.0864 195.312 86.9994 195.535 86.0875C195.761 85.1824 196.073 84.4747 196.435 84.0446C196.85 83.5516 197.295 83.3076 197.745 83.3284C198.166 83.3208 198.584 83.5231 198.98 83.9259C199.33 84.2587 199.65 84.7976 199.92 85.5069C199.991 85.6551 200.05 85.846 200.092 86.0658C200.134 86.2856 200.159 86.5289 200.163 86.7784C200.163 86.9562 200.151 87.1321 200.126 87.2959C200.102 87.4597 200.066 87.608 200.021 87.732C199.978 87.8682 199.925 87.9766 199.865 88.0498C199.806 88.1229 199.742 88.1591 199.677 88.1558C199.588 88.1653 199.502 88.0788 199.435 87.9139C199.216 87.3339 198.957 86.888 198.674 86.6043C198.381 86.2706 198.068 86.0952 197.752 86.0872C197.356 86.0298 196.964 86.3169 196.628 86.9096C196.499 87.1501 196.394 87.4766 196.321 87.86C196.248 88.2435 196.209 88.672 196.209 89.1072C196.209 89.5425 196.248 89.971 196.321 90.3544C196.394 90.7379 196.499 91.0644 196.628 91.3048C197.012 91.9381 197.432 92.3825 197.869 92.6191C198.334 92.8771 198.787 93.2765 199.22 93.8101C199.548 94.2188 199.828 94.8799 200.028 95.7174C200.231 96.6801 200.33 97.7896 200.312 98.9088C200.318 100.009 200.198 101.085 199.97 101.977C199.73 102.897 199.407 103.619 199.034 104.067C198.625 104.573 198.182 104.827 197.736 104.813C197.271 104.837 196.808 104.628 196.369 104.194V104.194Z" fill="#00C391"/>
<path id="path12" d="M141.923 104.262C141.912 104.208 141.903 104.153 141.894 104.096C141.837 103.72 141.819 103.305 141.843 102.901H138.437L143.5 77.7507L145.162 85.9986L145.644 83.5912L144.195 76.386C144.125 76.0169 144.024 75.7029 143.901 75.4726C143.777 75.2423 143.635 75.1032 143.488 75.0679C143.34 75.0869 143.198 75.2221 143.077 75.4581C142.955 75.6941 142.86 76.0215 142.801 76.403L137.672 101.859C137.596 102.218 137.552 102.625 137.544 103.044C137.536 103.463 137.565 103.881 137.627 104.261C137.706 104.612 137.818 104.894 137.951 105.075C138.084 105.255 138.232 105.327 138.378 105.283H142.674C142.527 105.328 142.379 105.256 142.247 105.076C142.114 104.895 142.002 104.613 141.923 104.262V104.262Z" fill="#00C492"/>
<path id="path14" d="M151.799 101.859L147.585 80.9002C147.516 80.5272 147.415 80.2094 147.29 79.976C147.166 79.7427 147.023 79.6014 146.875 79.5652C146.728 79.5831 146.585 79.7174 146.464 79.9527C146.343 80.188 146.247 80.5149 146.189 80.896L145.644 83.5916L146.129 85.999L146.879 82.2481L151.049 102.902H149.463C149.484 103.243 149.472 103.593 149.43 103.919C149.421 103.991 149.41 104.06 149.397 104.126L149.384 104.203C149.297 104.546 149.183 104.824 149.049 105.013C148.916 105.201 148.768 105.294 148.619 105.283H151.1C151.249 105.294 151.397 105.202 151.53 105.013C151.663 104.825 151.778 104.546 151.864 104.203C151.932 103.834 151.962 103.419 151.95 103.005C151.939 102.59 151.887 102.193 151.799 101.859Z" fill="#008776"/>
<path id="path16" d="M149.384 104.203L149.398 104.127C149.411 104.06 149.422 103.991 149.431 103.919C149.473 103.594 149.484 103.243 149.464 102.902C149.44 102.533 149.393 102.18 149.325 101.859L146.132 85.9991L145.644 83.5918L145.159 85.9991L141.967 101.859C141.905 102.184 141.863 102.537 141.844 102.902C141.818 103.305 141.834 103.72 141.89 104.097C141.899 104.154 141.908 104.209 141.919 104.263C141.998 104.614 142.11 104.895 142.243 105.076C142.375 105.256 142.523 105.328 142.67 105.284H148.615C148.765 105.296 148.914 105.204 149.048 105.016C149.182 104.827 149.297 104.548 149.384 104.203V104.203ZM145.644 88.4065L148.563 102.902H142.727L145.644 88.4065Z" fill="#2D4A5D"/>
</g>
</g>
<path id="bootstrap" fill-rule="evenodd" clip-rule="evenodd" d="M25.016 115.193C22.8139 115.193 21.1845 118.241 21.2574 121.546C21.3275 124.722 21.2365 128.834 20.5817 132.188C19.9247 135.552 18.8142 137.683 17 137.957V141.045C18.8142 141.32 19.9247 143.45 20.5817 146.814C21.2365 150.168 21.3274 154.281 21.2574 157.456C21.1844 160.761 22.8139 163.809 25.0163 163.809H47.5806C49.7827 163.809 51.4118 160.762 51.3389 157.456C51.2688 154.281 51.3598 150.168 52.0146 146.814C52.6716 143.45 53.7794 141.319 55.5937 141.045V137.957C53.7795 137.683 52.6717 135.552 52.0146 132.188C51.3598 128.835 51.2688 124.722 51.3389 121.546C51.4118 118.241 49.7827 115.193 47.5806 115.193H25.0157H25.016ZM43.1652 145.12C43.1652 149.671 41.0184 152.431 37.4556 152.431H31.3908C31.2174 152.431 31.051 152.322 30.9283 152.128C30.8056 151.934 30.7367 151.671 30.7367 151.397V127.606C30.7367 127.331 30.8056 127.068 30.9283 126.874C31.051 126.68 31.2174 126.571 31.3908 126.571H37.4211C40.3918 126.571 42.3415 129.116 42.3415 133.023C42.3415 135.765 41.0299 138.22 39.359 138.65V138.793C41.6336 139.187 43.1652 141.679 43.1652 145.12V145.12ZM36.7943 129.85H33.3363V137.574H36.2488C38.5004 137.574 39.7419 136.141 39.7419 133.578C39.7416 131.176 38.6743 129.85 36.7943 129.85ZM33.3363 140.639V149.151H36.9216C39.2658 149.151 40.5075 147.664 40.5075 144.868C40.5075 142.073 39.231 140.639 36.7708 140.639H33.3363V140.639Z" fill="#7952B3"/>
<path id="tailwind-icon" d="M286.844 17.5913C282.197 17.5913 279.292 21.6963 278.131 29.906C279.873 25.8011 281.906 24.2617 284.23 25.288C285.555 25.8735 286.503 27.5727 287.552 29.4534C289.26 32.5174 291.238 36.0634 295.557 36.0634C300.204 36.0634 303.108 31.9584 304.27 23.7487C302.527 27.8537 300.494 29.393 298.171 28.3667C296.845 27.7813 295.897 26.082 294.849 24.2013C293.14 21.1373 291.163 17.5913 286.844 17.5913ZM278.131 36.0634C273.484 36.0634 270.579 40.1684 269.417 48.3782C271.16 44.2732 273.193 42.7338 275.517 43.7601C276.842 44.3456 277.79 46.0448 278.839 47.9255C280.547 50.9895 282.524 54.5355 286.844 54.5355C291.49 54.5355 294.395 50.4305 295.557 42.2208C293.814 46.3258 291.781 47.8651 289.457 46.8388C288.132 46.2534 287.184 44.5541 286.136 42.6734C284.427 39.6094 282.45 36.0634 278.131 36.0634Z" fill="url(#paint0_linear_2_87)"/>
<g id="vuetify-icon">
<path id="Vector_13" d="M82.3257 36.0271H72.9536L82.3257 55.2683" fill="#1697F6"/>
<path id="Vector_14" d="M82.3262 36.0271H91.6983L82.3262 55.2683" fill="#1867C0"/>
<path id="Vector_15" d="M82.3258 60.8213V75.7072L62.332 41.8013H72.8052" fill="#7BC6FF"/>
<path id="Vector_16" d="M82.3262 60.8213V75.7072L102.32 41.8013H91.8468" fill="#AEDDFF"/>
</g>
<g id="css-icon">
<path id="Vector_17" d="M88.8364 287.031L65.4771 280.459L60.2715 221.284H117.471L112.26 280.45L88.8364 287.031V287.031Z" fill="#264DE4"/>
<path id="Vector_18" d="M107.799 276.682L112.252 226.123H88.8716V282.001L107.799 276.682V276.682Z" fill="#2965F1"/>
<path id="Vector_19" d="M72.2057 248.07L72.8474 255.327H88.8719V248.07H72.2057ZM70.916 233.381L71.5669 240.638H88.8719V233.381H70.916V233.381ZM88.8719 266.918L88.8405 266.927L80.8656 264.744L80.3557 258.956H73.1674L74.1705 270.352L88.8389 274.478L88.8719 274.469V266.918Z" fill="#EBEBEB"/>
<path id="Vector_20" d="M73.7329 205.203H82.4056V208.879H77.3598V212.555H82.406V216.231H73.7329V205.203ZM84.1403 205.203H92.8132V208.4H87.7672V209.039H92.8132V216.391H84.1406V213.034H89.1865V212.395H84.1401V205.203H84.1403ZM94.548 205.203H103.221V208.4H98.1749V209.039H103.221V216.391H94.548V213.034H99.594V212.395H94.5482V205.203H94.548Z" fill="black"/>
<path id="Vector_21" d="M105.492 248.07L106.785 233.381H88.8469V240.638H98.9371L98.2855 248.07H88.8469V255.327H97.6646L96.8332 264.74L88.8467 266.925V274.475L103.527 270.352L103.634 269.125L105.317 250.019L105.492 248.07V248.07Z" fill="white"/>
</g>
<g id="csharp">
<path id="Vector_22" d="M236.891 318.083C236.891 316.775 236.631 315.619 236.105 314.627C235.589 313.652 234.815 312.834 233.778 312.188C225.215 306.875 216.643 301.578 208.083 296.26C205.775 294.827 203.537 294.879 201.247 296.333C197.838 298.496 180.774 309.015 175.689 312.185C173.595 313.489 172.576 315.486 172.575 318.08C172.572 328.764 172.575 339.449 172.572 350.133C172.572 351.412 172.821 352.546 173.324 353.522C173.84 354.527 174.625 355.367 175.686 356.028C180.771 359.197 197.838 369.716 201.246 371.879C203.537 373.334 205.775 373.386 208.084 371.953C216.644 366.634 225.216 361.338 233.781 356.025C234.842 355.364 235.626 354.524 236.143 353.52C236.645 352.543 236.895 351.409 236.895 350.13C236.895 350.13 236.895 328.767 236.891 318.083Z" fill="#A179DC"/>
<path id="Vector_23" d="M204.832 334.002L173.324 353.522C173.84 354.527 174.625 355.367 175.686 356.028C180.771 359.197 197.838 369.716 201.246 371.88C203.537 373.335 205.775 373.387 208.084 371.953C216.644 366.634 225.216 361.338 233.781 356.025C234.842 355.364 235.626 354.524 236.143 353.52L204.832 334.002Z" fill="#280068"/>
<path id="Vector_24" d="M236.891 318.083C236.891 316.775 236.631 315.619 236.105 314.627L204.832 334.003L236.143 353.52C236.645 352.543 236.894 351.409 236.895 350.13C236.895 350.13 236.895 328.767 236.891 318.083" fill="#390091"/>
<g id="Group_2">
<path id="Vector_25" d="M223.382 326.705V330.354H226.773V326.705H228.469V330.354H231.86V332.178H228.469V335.827H231.86V337.651H228.469V341.3H226.773V337.651H223.382V341.3H221.687V337.651H218.296V335.827H221.687V332.178H218.296V330.354H221.687V326.705H223.382ZM226.773 332.178H223.382V335.827H226.773V332.178Z" fill="white"/>
<path id="Vector_26" d="M204.901 308.381C213.746 308.381 221.468 313.549 225.604 321.231L225.564 321.158L215.157 327.605C213.107 323.87 209.348 321.349 205.036 321.297L204.901 321.296C198.326 321.296 192.995 327.031 192.995 334.106C192.993 336.336 193.534 338.527 194.565 340.461C196.617 344.316 200.475 346.916 204.901 346.916C209.354 346.916 213.233 344.283 215.275 340.387L215.225 340.481L225.616 346.958C221.525 354.575 213.909 359.727 205.167 359.83L204.901 359.832C196.028 359.832 188.284 354.631 184.158 346.908C182.144 343.138 180.992 338.767 180.992 334.106C180.992 319.898 191.696 308.38 204.901 308.38L204.901 308.381Z" fill="white"/>
</g>
</g>
<g id=".netcore">
<path id="Vector_27" d="M274.222 148.184C274.076 148.042 273.898 147.93 273.702 147.851C273.506 147.772 273.296 147.735 273.082 147.735C272.868 147.731 272.658 147.772 272.462 147.847C272.266 147.926 272.089 148.038 271.943 148.179C271.792 148.316 271.674 148.479 271.596 148.657C271.519 148.84 271.478 149.031 271.478 149.222C271.473 149.418 271.514 149.609 271.596 149.787C271.678 149.966 271.797 150.128 271.947 150.265C272.093 150.406 272.27 150.518 272.466 150.593C272.663 150.669 272.874 150.705 273.087 150.701C273.299 150.702 273.51 150.664 273.705 150.589C273.901 150.514 274.078 150.404 274.226 150.265C274.381 150.132 274.5 149.97 274.582 149.791C274.664 149.613 274.705 149.422 274.705 149.226C274.705 149.031 274.664 148.84 274.582 148.661C274.495 148.479 274.377 148.316 274.222 148.184V148.184ZM293.296 144.81C293.273 145.74 293.323 146.675 293.441 147.602H293.387C293.259 147.373 292.977 146.949 292.544 146.33L282.152 131.46H278.998V150.444H281.423V136.72C281.45 135.852 281.409 134.983 281.309 134.115H281.4C281.573 134.53 281.797 134.929 282.061 135.303L292.735 150.444H295.72V131.46H293.296V144.81ZM312.16 148.358H303.591V141.781H311.089V139.778H303.591V133.471H311.636V131.46H301.107V150.444H312.146L312.16 148.358ZM314.015 131.46V133.471H319.985V150.444H322.41V133.471H328.449V131.46H314.015ZM290.251 155.164C289.645 155.384 289.098 155.72 288.647 156.149C288.182 156.602 287.817 157.133 287.58 157.719C287.343 158.305 287.238 158.924 287.266 159.543C287.22 160.69 287.658 161.812 288.496 162.668C288.916 163.071 289.426 163.382 289.991 163.59C290.556 163.798 291.163 163.889 291.769 163.864C292.68 163.893 293.587 163.719 294.412 163.353L294.421 162.385C293.665 162.788 292.803 162.988 291.928 162.967C291.459 162.984 290.989 162.909 290.556 162.747C290.123 162.585 289.731 162.335 289.412 162.02C288.745 161.313 288.402 160.399 288.455 159.468C288.401 158.484 288.77 157.52 289.481 156.78C289.818 156.439 290.233 156.174 290.693 155.991C291.155 155.812 291.654 155.725 292.156 155.737C292.954 155.725 293.738 155.903 294.435 156.257V155.214C293.712 154.948 292.935 154.823 292.156 154.848C291.504 154.84 290.853 154.944 290.251 155.164V155.164ZM301.613 158.139C301.309 157.847 300.938 157.618 300.528 157.469C300.117 157.32 299.676 157.254 299.234 157.275C298.765 157.254 298.3 157.324 297.862 157.478C297.425 157.632 297.028 157.865 296.691 158.16C296.363 158.492 296.112 158.878 295.948 159.302C295.784 159.726 295.716 160.171 295.748 160.619C295.702 161.471 296.026 162.306 296.646 162.942C296.955 163.245 297.329 163.486 297.748 163.648C298.168 163.806 298.619 163.885 299.07 163.869C299.531 163.881 299.991 163.802 300.419 163.64C300.848 163.478 301.231 163.233 301.545 162.921C302.184 162.264 302.515 161.405 302.466 160.528C302.52 159.655 302.215 158.804 301.613 158.139ZM300.779 162.406C300.579 162.617 300.328 162.783 300.046 162.892C299.764 163.001 299.458 163.049 299.152 163.033C298.838 163.046 298.528 162.992 298.241 162.884C297.954 162.772 297.698 162.605 297.489 162.389C297.052 161.896 296.832 161.273 296.873 160.64C296.832 159.988 297.051 159.344 297.489 158.829C297.694 158.613 297.949 158.442 298.236 158.326C298.523 158.214 298.838 158.16 299.148 158.172C299.458 158.155 299.763 158.209 300.046 158.322C300.328 158.434 300.579 158.604 300.779 158.82C301.194 159.343 301.395 159.98 301.349 160.624C301.395 161.255 301.194 161.891 300.779 162.406V162.406ZM306.062 157.732C305.72 158.01 305.469 158.372 305.346 158.775V157.47H304.207V163.719H305.346V160.532C305.31 159.955 305.474 159.377 305.811 158.887C305.934 158.708 306.098 158.559 306.299 158.455C306.499 158.351 306.723 158.288 306.95 158.284C307.242 158.263 307.534 158.334 307.78 158.484V157.453C307.57 157.391 307.352 157.362 307.133 157.37C306.741 157.366 306.363 157.495 306.062 157.732V157.732ZM314.448 160.312C314.503 159.518 314.243 158.737 313.719 158.106C313.459 157.84 313.14 157.628 312.78 157.491C312.42 157.354 312.032 157.291 311.645 157.312C311.216 157.3 310.788 157.378 310.392 157.536C310 157.694 309.649 157.931 309.366 158.23C308.747 158.888 308.426 159.737 308.468 160.603C308.409 161.467 308.705 162.323 309.298 162.996C309.585 163.283 309.94 163.507 310.332 163.657C310.724 163.806 311.153 163.869 311.577 163.852C312.42 163.889 313.254 163.682 313.956 163.258V162.319C313.356 162.763 312.609 163.009 311.836 163.017C311.54 163.033 311.239 162.992 310.961 162.892C310.683 162.792 310.428 162.647 310.218 162.452C309.811 162.002 309.604 161.43 309.64 160.848H314.457L314.448 160.312ZM309.63 160.021C309.69 159.527 309.927 159.061 310.3 158.7C310.468 158.536 310.671 158.405 310.897 158.317C311.123 158.229 311.367 158.186 311.613 158.189C311.85 158.176 312.082 158.214 312.301 158.297C312.52 158.38 312.711 158.504 312.866 158.667C313.185 159.053 313.345 159.527 313.322 160.009L309.63 160.021Z" fill="#621EE5"/>
</g>
<g id="mysql-full">
<g id="mysql">
<path id="Vector_28" d="M249.842 259.684H254.262V239.224L261.104 257.067C261.911 259.218 263.017 259.991 265.184 259.991C267.351 259.991 268.413 259.226 269.221 257.067L276.064 239.224V259.692H280.485V239.258C280.485 237.264 279.803 236.3 278.402 235.802C275.044 234.573 272.792 235.637 271.772 238.294L265.058 255.904L258.554 238.287C257.577 235.629 255.282 234.566 251.925 235.795C250.522 236.293 249.842 237.257 249.842 239.25V259.684ZM284.158 243.025H288.577V254.302C288.535 254.915 288.744 256.353 291.166 256.397C292.401 256.42 300.699 256.397 300.777 256.397V242.969H305.205C305.225 242.969 305.2 261.278 305.201 261.357C305.225 265.872 300.423 266.853 298.21 266.929H284.255V263.441L298.235 263.441C301.079 263.087 300.744 261.43 300.744 260.872V259.512H291.35C286.98 259.466 284.197 257.228 284.162 254.655C284.159 254.424 284.257 243.136 284.16 243.024L284.158 243.025Z" fill="#00618A"/>
<path id="Vector_29" d="M308.612 259.685H321.319C322.806 259.685 324.252 259.32 325.4 258.687C327.313 257.658 328.248 256.262 328.248 254.435V250.647C328.248 249.152 327.185 247.757 325.103 246.826C323.998 246.327 322.638 246.062 321.321 246.062H315.966C314.181 246.062 313.331 245.431 313.119 244.036C313.076 243.87 313.076 243.728 313.076 243.57V241.212C313.076 241.079 313.076 240.945 313.119 240.779C313.331 239.716 313.799 239.416 315.371 239.243C315.499 239.243 315.668 239.209 315.797 239.209H328.419V235.754H316.009C314.224 235.754 313.289 235.887 312.439 236.186C309.801 237.15 308.654 238.687 308.654 241.345V244.368C308.654 246.694 310.907 248.688 314.688 249.153C315.114 249.186 315.539 249.219 315.963 249.219H320.553C320.723 249.219 320.894 249.219 321.021 249.252C322.423 249.385 323.019 249.684 323.443 250.282C323.705 250.589 323.784 250.881 323.784 251.204V254.227C323.784 254.593 323.572 255.058 323.147 255.456C322.764 255.856 322.127 256.121 321.276 256.188C321.106 256.188 320.979 256.221 320.809 256.221H308.612V259.676V259.685ZM355.819 253.671C355.819 257.226 358.071 259.22 362.618 259.619C363.043 259.657 363.468 259.679 363.893 259.685H375.411V256.229H363.808C361.216 256.229 360.238 255.465 360.238 253.637V235.761H355.818V253.67L355.819 253.671ZM331.067 253.851V241.533C331.067 238.403 332.94 236.505 336.646 235.906C337.041 235.84 337.439 235.806 337.838 235.806H346.228C346.641 235.806 347.054 235.84 347.463 235.906C351.168 236.505 353.042 238.402 353.042 241.533V253.851C353.042 256.39 352.246 257.749 350.412 258.634L354.765 263.244H349.634L346.111 259.515L342.565 259.778H337.838C337.029 259.778 336.178 259.645 335.24 259.345C332.424 258.446 331.068 256.715 331.068 253.851H331.067ZM335.838 253.544C335.838 253.71 335.88 253.876 335.923 254.077C336.185 255.509 337.328 256.308 339.067 256.308H343.083L339.395 252.403H344.527L347.737 255.808C348.329 255.438 348.719 254.871 348.85 254.144C348.893 253.978 348.893 253.811 348.893 253.644V241.833C348.893 241.7 348.893 241.526 348.85 241.367C348.588 240.036 347.444 239.27 345.741 239.27H339.075C337.11 239.27 335.839 240.268 335.839 241.833V253.553L335.838 253.544Z" fill="#E48E00"/>
<g id="Group_3">
<path id="Vector_30" d="M379.299 230.029C376.583 229.943 374.507 230.239 372.733 231.116C372.229 231.366 371.425 231.372 371.342 232.113C371.619 232.453 371.663 232.962 371.883 233.381C372.306 234.185 373.022 235.263 373.66 235.826C374.357 236.443 375.075 237.104 375.824 237.639C377.153 238.59 378.638 239.134 379.918 240.085C380.672 240.646 381.422 241.353 382.158 241.987C382.522 242.301 382.767 242.788 383.239 242.984V242.893C382.99 242.522 382.926 242.012 382.699 241.626L381.694 240.448C380.712 238.912 379.466 237.577 378.141 236.461C377.084 235.571 374.718 234.37 374.278 232.927L374.2 232.837C374.95 232.737 375.827 232.419 376.519 232.203C377.681 231.838 378.719 231.932 379.919 231.569L381.542 231.025V230.663C380.935 229.933 380.503 228.967 379.842 228.307C378.112 226.579 376.224 224.854 374.28 223.414C373.202 222.615 371.87 222.097 370.726 221.42C370.342 221.193 369.667 221.075 369.413 220.695C368.813 219.798 368.486 218.66 368.023 217.622C367.053 215.433 366.101 213.041 365.242 210.737C364.655 209.166 364.272 207.617 363.542 206.207C360.034 199.444 356.258 195.362 350.409 191.35C349.165 190.497 347.667 190.159 346.083 189.719L343.533 189.538C343.014 189.284 342.475 188.539 341.987 188.178C340.05 186.742 335.08 183.62 333.644 187.717C332.738 190.308 334.998 192.836 335.807 194.15C336.375 195.072 337.102 196.104 337.507 197.14C337.773 197.821 337.82 198.503 338.048 199.224C338.609 200.991 339.098 202.929 339.824 204.569C340.191 205.399 340.596 206.273 341.06 207.015C341.345 207.471 341.833 207.671 341.91 208.375C341.433 209.158 341.406 210.372 341.137 211.365C339.93 215.829 340.385 221.378 342.141 224.683C342.68 225.697 343.949 227.873 345.695 227.038C347.221 226.308 346.874 224.05 347.318 222.056C347.416 221.602 347.356 221.272 347.549 220.969V221.059L348.94 224.32C349.969 226.264 351.796 228.296 353.344 229.667C354.146 230.378 354.785 231.607 355.816 232.022V231.932H355.738C355.537 231.563 355.223 231.412 354.965 231.117C354.361 230.422 353.688 229.558 353.188 228.762C351.78 226.52 350.537 224.068 349.403 221.514C348.862 220.295 348.391 218.95 347.936 217.709C347.76 217.231 347.762 216.508 347.395 216.26C346.896 217.169 346.159 217.904 345.773 218.978C345.154 220.694 345.075 222.786 344.846 224.957C344.71 225.014 344.771 224.975 344.691 225.048C343.616 224.744 343.237 223.445 342.838 222.33C341.826 219.511 341.639 214.974 342.528 211.73C342.758 210.891 343.799 208.247 343.378 207.472C343.177 206.699 342.513 206.243 342.142 205.659C341.683 204.929 341.223 203.966 340.906 203.123C340.078 200.926 339.691 198.46 338.82 196.237C338.403 195.176 337.7 194.102 337.121 193.165C336.48 192.12 335.763 191.348 335.267 190.092C335.09 189.642 334.85 188.924 335.112 188.461C335.137 188.328 335.194 188.206 335.276 188.109C335.359 188.013 335.463 187.946 335.576 187.917C336.024 187.512 337.273 188.051 337.739 188.28C338.977 188.883 340.012 189.458 341.062 190.273C341.566 190.657 342.075 191.422 342.684 191.633H343.378C344.465 191.926 345.684 191.725 346.699 192.086C348.495 192.726 350.104 193.722 351.566 194.804C356.019 198.101 359.66 202.795 362.15 208.401C362.551 209.302 362.724 210.163 363.077 211.119C363.789 213.039 364.686 215.031 365.395 216.916C366.102 218.799 366.79 220.696 367.79 222.262C368.315 223.084 370.345 223.526 371.266 223.982C371.913 224.303 372.971 224.637 373.584 225.069C374.753 225.897 375.886 226.882 376.984 227.789C377.532 228.242 379.217 229.235 379.301 230.053L379.299 230.029Z" fill="#00618A"/>
<path id="Vector_31" fill-rule="evenodd" clip-rule="evenodd" d="M344.768 195.512C344.201 195.5 343.801 195.584 343.377 195.694V195.784H343.454C343.724 196.436 344.201 196.854 344.535 197.415L345.308 199.317L345.385 199.227C345.864 198.831 346.083 198.199 346.08 197.233C345.888 196.996 345.86 196.7 345.693 196.417C345.473 196.041 345.038 195.827 344.766 195.511L344.768 195.512Z" fill="#00618A"/>
</g>
</g>
<path id="Vector_32" fill-rule="evenodd" clip-rule="evenodd" d="M377.486 256.131C377.486 258.412 379.023 259.95 380.743 259.95C382.462 259.95 384 258.412 384 256.131C384 253.849 382.462 252.311 380.743 252.311C379.023 252.311 377.486 253.849 377.486 256.131ZM383.27 256.131C383.27 257.862 382.141 259.156 380.742 259.156C379.327 259.156 378.213 257.862 378.213 256.131C378.213 254.399 379.325 253.105 380.742 253.105C382.14 253.105 383.27 254.399 383.27 256.131ZM381.619 258.311H382.348L381.281 256.396C381.854 256.325 382.288 255.998 382.288 255.204C382.288 254.318 381.809 253.952 380.89 253.952H379.439V258.311H380.064V256.427H380.646L381.619 258.311L381.619 258.311ZM380.064 255.814V254.562H380.785C381.158 254.562 381.61 254.643 381.61 255.153C381.61 255.764 381.202 255.816 380.732 255.816H380.064V255.814Z" fill="#E48E00"/>
</g>
<g id="php">
<path id="Vector_33" d="M203.717 181.398C221.733 181.398 236.338 167.37 236.338 150.067C236.338 132.764 221.733 118.736 203.717 118.736C185.701 118.736 171.096 132.764 171.096 150.067C171.096 167.37 185.701 181.398 203.717 181.398Z" fill="#8993BE"/>
<path id="Vector_34" fill-rule="evenodd" clip-rule="evenodd" d="M180.257 168.618L183.832 135.226H192.098C195.673 135.639 197.461 138.936 197.461 144.708C197.461 154.602 193.216 160.374 189.417 159.961H185.396L184.502 168.618H180.257ZM186.289 153.778L187.407 141.41H190.311C191.875 141.41 192.992 142.647 192.992 145.12C192.769 152.129 190.981 153.365 188.971 153.778H186.29H186.289ZM196.63 159.961L200.205 126.57H204.45L203.557 135.226H207.578C211.153 135.639 212.494 138.936 212.047 143.059L210.483 159.961H206.014L207.578 144.708C207.802 142.647 207.802 141.41 206.238 141.41H202.886L200.875 159.961H196.63V159.961ZM210.197 168.618L213.771 135.226H222.038C225.613 135.639 227.401 138.936 227.401 144.708C227.401 154.602 223.156 160.374 219.357 159.961H215.335L214.442 168.618H210.197V168.618ZM216.229 153.778L217.346 141.41H220.251C221.815 141.41 222.932 142.647 222.932 145.12C222.709 152.129 220.921 153.365 218.91 153.778H216.229H216.229Z" fill="#232531"/>
</g>
<path id="laravel" d="M263.8 57.3811C263.813 57.443 263.821 57.5069 263.821 57.571V67.5427C263.821 67.6706 263.793 67.7964 263.739 67.9071C263.685 68.0179 263.608 68.1097 263.516 68.1734L256.528 72.992V82.5428C256.528 82.8027 256.413 83.0426 256.225 83.1735L241.64 93.2306C241.606 93.2533 241.57 93.2678 241.533 93.2833C241.52 93.2887 241.507 93.2987 241.492 93.3033C241.39 93.3354 241.283 93.3354 241.181 93.3033C241.165 93.2978 241.149 93.2869 241.134 93.2796C241.1 93.2651 241.065 93.2524 241.033 93.2306L226.451 83.1735C226.358 83.1098 226.281 83.0179 226.228 82.9072C226.174 82.7964 226.146 82.6708 226.146 82.5428V52.628C226.146 52.5625 226.154 52.4989 226.167 52.4371C226.172 52.4162 226.182 52.3971 226.188 52.3762C226.2 52.338 226.21 52.299 226.227 52.2635C226.239 52.2399 226.255 52.2208 226.269 52.199C226.286 52.1699 226.302 52.1399 226.323 52.1145C226.34 52.0936 226.363 52.0781 226.383 52.0599C226.405 52.0381 226.424 52.0145 226.449 51.9972H226.45L233.742 46.9687C233.834 46.9051 233.939 46.8716 234.045 46.8716C234.152 46.8716 234.256 46.9051 234.349 46.9687L241.64 51.9972H241.642C241.666 52.0154 241.687 52.0381 241.709 52.059C241.728 52.0772 241.75 52.0936 241.768 52.1136C241.789 52.1399 241.804 52.1699 241.822 52.199C241.835 52.2208 241.853 52.2399 241.863 52.2635C241.881 52.2999 241.891 52.338 241.903 52.3762C241.909 52.3971 241.92 52.4162 241.924 52.438C241.938 52.4999 241.945 52.5638 241.945 52.628V71.3125L248.021 67.1219V57.5701C248.021 57.5065 248.029 57.442 248.043 57.3811C248.048 57.3593 248.058 57.3402 248.064 57.3193C248.076 57.2811 248.087 57.2421 248.103 57.2066C248.115 57.183 248.131 57.1639 248.144 57.1421C248.163 57.113 248.178 57.083 248.199 57.0576C248.216 57.0367 248.238 57.0212 248.258 57.003C248.281 56.9812 248.301 56.9576 248.325 56.9403H248.326L255.618 51.9118C255.71 51.8481 255.815 51.8145 255.921 51.8145C256.028 51.8145 256.133 51.8481 256.225 51.9118L263.517 56.9403C263.542 56.9585 263.562 56.9812 263.585 57.0021C263.604 57.0203 263.626 57.0367 263.643 57.0567C263.664 57.083 263.68 57.113 263.698 57.1421C263.712 57.1639 263.728 57.183 263.739 57.2066C263.756 57.2421 263.766 57.2811 263.778 57.3193C263.785 57.3402 263.795 57.3593 263.8 57.3811V57.3811ZM262.605 67.1219V58.8298L260.054 60.5892L256.528 63.0204V71.3125L262.606 67.1219H262.605ZM255.314 82.122V73.8244L251.846 76.1965L241.945 82.9654V91.3411L255.314 82.122ZM227.362 53.8867V82.122L240.729 91.3402V82.9663L233.746 78.2322L233.743 78.2304L233.74 78.2286C233.717 78.2122 233.697 78.1886 233.675 78.1686C233.656 78.1504 233.634 78.1359 233.617 78.1159L233.616 78.1132C233.596 78.0905 233.582 78.0623 233.566 78.0368C233.551 78.0123 233.532 77.9914 233.52 77.966L233.519 77.9632C233.506 77.936 233.497 77.9032 233.488 77.8723C233.478 77.8451 233.465 77.8196 233.459 77.7906V77.7896C233.451 77.7551 233.45 77.7188 233.447 77.6833C233.444 77.656 233.438 77.6288 233.438 77.6015V58.0773L229.913 55.6452L227.362 53.8876V53.8867ZM234.046 48.4392L227.971 52.628L234.045 56.8167L240.119 52.627L234.045 48.4392H234.046ZM237.205 74.5806L240.73 72.1504V53.8867L238.178 55.6462L234.653 58.0773V76.341L237.205 74.5806ZM255.921 53.3823L249.847 57.571L255.921 61.7598L261.995 57.5701L255.921 53.3823ZM255.314 63.0204L251.789 60.5892L249.237 58.8298V67.1219L252.761 69.5521L255.314 71.3125V63.0204ZM241.336 81.7067L250.246 75.6139L254.7 72.5694L248.63 68.3833L241.641 73.2028L235.271 77.5952L241.336 81.7067Z" fill="#FF2D20"/>
<path id="github" d="M331.109 46.8716C314.109 46.8716 300.326 63.3304 300.326 83.6306C300.326 100.855 310.258 115.268 323.649 119.256C323.505 118.76 323.413 118.184 323.413 117.47V111.188C322.164 111.188 320.07 111.188 319.545 111.188C317.438 111.188 315.566 110.106 314.658 108.097C313.65 105.864 313.475 102.448 310.977 100.359C310.235 99.6637 310.8 98.8703 311.654 98.9775C313.231 99.5105 314.54 100.803 315.771 102.721C316.997 104.641 317.574 105.076 319.865 105.076C320.976 105.076 322.638 105 324.203 104.706C325.044 102.154 326.499 99.8046 328.277 98.6957C318.026 97.4367 313.134 91.3469 313.134 83.0792C313.134 79.5197 314.404 76.0766 316.561 73.1757C315.853 70.2963 314.963 64.424 316.833 62.1878C321.445 62.1878 324.234 65.7596 324.903 66.7245C327.202 65.7841 329.726 65.2511 332.379 65.2511C335.036 65.2511 337.571 65.7841 339.874 66.7306C340.536 65.7718 343.327 62.1878 347.95 62.1878C349.827 64.4271 348.927 70.3238 348.211 73.1972C350.356 76.0919 351.618 79.5258 351.618 83.0792C351.618 91.3408 346.734 97.4275 336.498 98.6926C339.315 100.448 341.37 105.38 341.37 109.095V117.47C341.37 117.789 341.311 118.019 341.28 118.291C353.275 113.271 361.892 99.6698 361.892 83.6306C361.892 63.3304 348.109 46.8716 331.109 46.8716Z" fill="black"/>
<g id="rocket">
<path id="Vector_35" d="M112.683 336.036L111.419 339.02L105.102 330.945L107.437 329.329L112.683 336.036Z" fill="#F7CF52"/>
<path id="Vector_36" d="M119.38 324.943C119.244 324.969 119.104 324.982 118.962 324.982C117.373 324.982 116.084 323.336 116.084 321.305C116.084 319.274 117.373 317.628 118.962 317.628C119.104 317.628 119.244 317.641 119.38 317.667C120.771 317.925 121.839 319.456 121.839 321.305C121.839 323.154 120.771 324.685 119.38 324.943Z" fill="#76CDCE"/>
<path id="Vector_37" d="M112.757 318.834L105.991 327.482L101.836 326.498L107.102 319.766L112.757 318.834Z" fill="#F7CF52"/>
<path id="Vector_38" d="M120.895 329.235L120.165 336.462L114.898 343.195L114.128 337.883L120.895 329.235Z" fill="#F7CF52"/>
<path id="Vector_39" d="M124.669 314.009C125.749 315.389 127.125 316.157 128.536 316.314C127.829 319.262 126.565 321.986 124.816 324.223L120.895 329.235L114.128 337.883L112.683 336.036L107.436 329.329L105.991 327.482L112.756 318.834H112.757L116.678 313.822C118.429 311.584 120.56 309.969 122.867 309.066C122.989 310.87 123.589 312.629 124.669 314.009ZM120.995 323.905C122.119 322.469 122.119 320.141 120.995 318.705C119.872 317.269 118.05 317.269 116.927 318.705C115.803 320.141 115.803 322.469 116.927 323.905C118.05 325.341 119.872 325.341 120.995 323.905Z" fill="#008DB3"/>
<path id="Vector_40" d="M129.08 308.371C129.341 311.073 129.145 313.777 128.537 316.313C127.125 316.157 125.75 315.389 124.669 314.009C123.589 312.628 122.989 310.87 122.867 309.066C124.852 308.288 126.967 308.038 129.08 308.371Z" fill="#F7CF52"/>
<g id="flames">
<path id="Vector_41" d="M101.14 343.194L101.943 344.221L107.618 336.968L106.815 335.941L101.14 343.194Z" fill="#F4581B"/>
<path id="Vector_42" d="M103.557 344.073L104.36 345.099L109.17 338.952L108.367 337.925L103.557 344.073Z" fill="#F4581B"/>
<path id="Vector_43" d="M100.452 340.104L101.255 341.13L106.065 334.983L105.262 333.957L100.452 340.104Z" fill="#F4581B"/>
</g>
<g id="Group_4">
<path id="Vector_44" d="M119.379 324.943V317.667C120.77 317.925 121.838 319.456 121.838 321.305C121.838 323.154 120.77 324.684 119.379 324.943Z" fill="#96E0DE"/>
</g>
</g>
<g id="docker">
<g id="Group_5">
<path id="Vector_45" fill-rule="evenodd" clip-rule="evenodd" d="M110.331 54.9431V51.6344C110.331 51.1996 110.532 50.8504 110.864 50.8504H110.956C111.287 50.8504 111.487 51.2 111.487 51.6344V58.6003C111.487 60.299 110.868 61.6506 109.79 62.5117C109.296 62.9086 108.732 63.1171 108.158 63.1153H107.929C106.676 63.1153 105.681 62.2755 105.045 60.814C104.752 60.1442 104.598 59.3792 104.6 58.6003V58.2899C104.6 56.5906 105.219 55.2398 106.296 54.3771C106.79 53.9794 107.354 53.7708 107.929 53.7735H108.158C109.006 53.7735 109.725 54.2192 110.331 54.9431V54.9431ZM105.755 58.4448C105.755 59.6719 106.194 60.5944 106.987 61.1829C107.307 61.4207 107.655 61.5485 108.021 61.5485C108.909 61.5485 109.567 60.9802 110.022 59.9596C110.233 59.4848 110.331 58.9653 110.331 58.413C110.331 57.3494 109.96 56.5193 109.328 55.9027C108.945 55.529 108.514 55.3415 108.043 55.3415C107.075 55.3415 106.379 56.0048 105.961 57.1829C105.82 57.5813 105.755 58.0042 105.755 58.4448V58.4448ZM115.495 53.7735H115.655C116.993 53.7735 118.011 54.6542 118.656 56.239C118.914 56.8729 119.052 57.5649 119.052 58.2899V58.6003C119.052 60.299 118.435 61.6524 117.355 62.5119C116.855 62.9096 116.303 63.1153 115.724 63.1153H115.495C114.242 63.1153 113.246 62.2755 112.611 60.814C112.318 60.1442 112.164 59.3792 112.166 58.6003V58.2899C112.166 56.5904 112.787 55.244 113.862 54.3775C114.361 53.9749 114.914 53.7735 115.495 53.7735ZM113.321 58.4448C113.321 59.6359 113.752 60.5121 114.494 61.1283C114.842 61.4174 115.225 61.5485 115.632 61.5485C116.5 61.5485 117.141 60.9517 117.588 59.9584C117.801 59.4848 117.897 58.9645 117.897 58.413C117.897 57.3055 117.504 56.4594 116.831 55.8463C116.463 55.51 116.053 55.3415 115.609 55.3415C114.641 55.3415 113.945 56.0048 113.527 57.1829C113.385 57.5813 113.321 58.0042 113.321 58.4448V58.4448ZM123.855 55.4667C123.681 55.3559 123.354 55.3191 123.166 55.3094C122.201 55.26 121.502 55.9973 121.093 57.1522C120.951 57.5506 120.886 57.9722 120.886 58.413C120.886 59.7552 121.406 60.6949 122.289 61.2678C122.612 61.4769 123.028 61.5165 123.381 61.5165C123.691 61.5165 124.13 61.2589 124.405 61.0815L124.452 61.0508H124.666L124.69 61.0573C124.952 61.1315 125.151 61.3574 125.151 61.7408V61.8959C125.151 62.85 123.865 63.0684 123.375 63.1149C121.644 63.2773 120.349 61.9879 119.856 59.7485C119.77 59.3596 119.731 58.9734 119.731 58.5681V58.2581C119.731 56.5589 120.353 55.2129 121.428 54.3472C121.927 53.9448 122.48 53.7426 123.06 53.7426H123.289C123.905 53.7426 124.472 53.9798 124.98 54.4507L125.022 54.49L125.049 54.549C125.103 54.6724 125.151 54.8151 125.151 54.9619V55.1171C125.151 55.517 124.93 55.7322 124.664 55.8018L124.642 55.807H124.573C124.401 55.807 124.009 55.565 123.855 55.4667V55.4667ZM127.603 56.5277C128.051 55.9183 128.502 55.31 128.957 54.7106C129.084 54.5434 129.564 53.8356 129.754 53.8356H129.961L129.984 53.8423C130.248 53.9165 130.445 54.1428 130.445 54.527V54.6819C130.445 54.944 130.219 55.2485 130.094 55.4279C129.829 55.8095 129.549 56.1785 129.278 56.5522L127.882 58.4741C128.483 59.2911 129.083 60.1087 129.679 60.9319C129.845 61.1591 130.009 61.3881 130.171 61.6186C130.229 61.7005 130.313 61.8025 130.362 61.9159C130.413 62.0223 130.445 62.1422 130.445 62.2702V62.432L130.438 62.4694C130.374 62.8269 130.206 63.1153 129.914 63.1153H129.822C129.631 63.1153 129.415 62.8221 129.284 62.6544C129.014 62.3094 128.754 61.9466 128.489 61.5942L127.603 60.4132V62.3007C127.603 62.7355 127.402 63.0849 127.07 63.0849H126.979C126.648 63.0849 126.447 62.7355 126.447 62.3007V51.6647C126.447 51.23 126.648 50.8821 126.979 50.8821H127.07C127.402 50.8821 127.603 51.23 127.603 51.6647V56.5277V56.5277ZM142.002 53.8356H142.116C142.463 53.8356 142.694 54.1523 142.694 54.6196C142.694 55.2683 142.237 55.4343 141.841 55.4343C141.322 55.4343 140.827 55.8604 140.469 56.3383C140.023 56.9346 139.828 57.6984 139.828 58.538V62.3315C139.828 62.7662 139.628 63.1153 139.296 63.1153H139.205C138.873 63.1153 138.673 62.7664 138.673 62.3315V58.3202C138.673 56.7799 139.225 55.5225 140.147 54.6406C140.697 54.1138 141.328 53.8358 142.002 53.8358V53.8356ZM133.79 61.3533C134.211 61.5525 134.69 61.524 135.121 61.4221C135.342 61.2949 135.906 60.961 136.114 61.01L136.146 61.0174L136.176 61.0373C136.303 61.1206 136.424 61.2385 136.488 61.4134C136.64 61.8233 136.567 62.2354 136.27 62.4682L136.171 62.5456C135.075 63.4034 133.91 63.2845 132.817 62.4833C132.295 62.1003 131.895 61.5319 131.601 60.8389L131.532 60.6769C130.828 59.0244 130.923 57.2861 131.717 55.7146C131.99 55.1714 132.348 54.7518 132.767 54.4236L132.925 54.2997C133.957 53.4916 135.063 53.547 136.123 54.2562C136.693 54.6376 137.155 55.206 137.473 55.9536L137.531 56.0883C137.762 56.6315 137.462 57.1047 137.153 57.4282C136.794 57.8036 136.432 58.2553 136.088 58.6577C135.322 59.5554 134.556 60.4551 133.79 61.3533V61.3533ZM132.798 60.4082C133.655 59.4112 134.513 58.4132 135.368 57.4121C135.66 57.0703 135.981 56.7156 136.271 56.3563C136.038 55.9587 135.649 55.6721 135.319 55.5013C134.653 55.1569 133.996 55.2726 133.385 55.751C132.585 56.3775 132.244 57.375 132.274 58.6165C132.286 59.1054 132.383 59.5766 132.574 59.9926C132.641 60.1392 132.717 60.2769 132.798 60.4082ZM126.563 29.008H129.973V33.7349H131.696C132.492 33.7349 133.311 33.5426 134.065 33.1961C134.435 33.0257 134.851 32.7887 135.216 32.4904C134.735 31.6382 134.489 30.5622 134.417 29.5016C134.319 28.0587 134.534 26.1809 135.253 25.0517L135.612 24.4895L136.039 24.9553C137.114 26.1267 138.018 27.7639 138.178 29.6302C139.472 29.1137 140.992 29.2359 142.133 30.1291L142.601 30.4955L142.355 31.1479C141.39 33.7023 139.372 34.4938 137.4 34.3537C134.448 44.3249 128.022 49.0456 120.231 49.0456C116.205 49.0456 112.512 47.0046 110.409 42.1606L110.374 42.0817L110.068 41.236C109.357 39.1038 109.121 36.768 109.281 34.4339L109.329 33.7349H112.245V29.008H115.654V24.384H122.472V19.76H126.563V29.008Z" fill="#364548"/>
<path id="Vector_46" fill-rule="evenodd" clip-rule="evenodd" d="M137.609 30.7568C137.837 28.3472 136.508 26.4546 135.683 25.5559C134.733 27.0459 134.586 30.9507 136.076 32.5948C135.244 33.597 133.491 34.5054 131.696 34.5054H109.848C109.673 37.0467 110.002 39.387 110.753 41.39L111.002 42.0068C111.159 42.3688 111.331 42.7187 111.517 43.0551C112.415 43.1333 113.243 43.1602 114.001 43.1376H114.001C115.49 43.0931 116.705 42.8545 117.626 42.4217C117.691 42.3942 117.762 42.4022 117.823 42.4439C117.883 42.4856 117.93 42.5577 117.952 42.6451C117.975 42.7325 117.971 42.8282 117.942 42.912C117.913 42.9959 117.862 43.0612 117.798 43.0943C117.676 43.1521 117.548 43.2059 117.416 43.2571H117.416C116.691 43.538 115.913 43.7268 114.91 43.8108C114.97 43.8122 114.848 43.8229 114.848 43.8229C114.814 43.8259 114.771 43.8326 114.736 43.835C114.342 43.8652 113.915 43.8714 113.48 43.8714C113.003 43.8714 112.534 43.8593 112.009 43.8229L111.996 43.835C113.816 46.6103 116.663 48.2748 120.231 48.2748C127.782 48.2748 134.187 43.7345 137.024 33.5416C139.036 33.8217 140.97 33.1256 141.849 30.7965C140.448 29.6998 138.646 30.0495 137.609 30.7568" fill="#22A0C8"/>
<path id="Vector_47" fill-rule="evenodd" clip-rule="evenodd" d="M137.608 30.7568C137.837 28.3472 136.507 26.4546 135.683 25.5559C134.733 27.0459 134.585 30.9507 136.076 32.5948C135.244 33.597 133.491 34.5054 131.696 34.5054H111.141C111.052 38.3973 112.117 41.3516 114.001 43.1376H114.001C115.49 43.0931 116.705 42.8545 117.626 42.4217C117.691 42.3942 117.761 42.4022 117.822 42.4439C117.883 42.4856 117.929 42.5577 117.952 42.6451C117.974 42.7325 117.971 42.8282 117.942 42.912C117.913 42.9959 117.861 43.0612 117.798 43.0943C117.675 43.1521 117.547 43.2059 117.416 43.2571H117.415C116.69 43.538 115.846 43.7511 114.843 43.835C114.842 43.835 114.818 43.8037 114.818 43.8037C117.388 45.5917 121.114 45.5852 125.387 43.3594C130.177 40.8632 134.635 36.1078 137.745 30.6687C137.698 30.6974 137.653 30.7267 137.608 30.7568" fill="#37B1D9"/>
<path id="Vector_48" fill-rule="evenodd" clip-rule="evenodd" d="M109.888 37.593C110.024 38.9544 110.318 40.229 110.753 41.3899L111.001 42.0067C111.159 42.3687 111.331 42.7187 111.517 43.055C112.415 43.1333 113.243 43.1601 114.001 43.1375C115.49 43.093 116.705 42.8544 117.626 42.4216C117.691 42.3942 117.761 42.4021 117.822 42.4438C117.883 42.4855 117.93 42.5577 117.952 42.645C117.974 42.7324 117.971 42.8281 117.942 42.912C117.913 42.9958 117.861 43.0611 117.798 43.0942C117.675 43.1521 117.548 43.2059 117.416 43.257H117.415C116.69 43.5379 115.85 43.7389 114.847 43.823C114.813 43.8259 114.753 43.8265 114.718 43.8291C114.324 43.859 113.902 43.8774 113.466 43.8774C112.99 43.8774 112.502 43.8651 111.978 43.8289C113.798 46.6042 116.663 48.2747 120.231 48.2747C126.695 48.2747 132.32 44.9466 135.584 37.593H109.888Z" fill="#1B81A5"/>
<path id="Vector_49" fill-rule="evenodd" clip-rule="evenodd" d="M111.337 37.593C111.724 39.9833 112.653 41.8597 114.001 43.1375C115.49 43.093 116.705 42.8544 117.626 42.4216C117.691 42.3942 117.761 42.4021 117.822 42.4438C117.883 42.4855 117.929 42.5577 117.952 42.645C117.974 42.7324 117.97 42.8281 117.942 42.912C117.913 42.9958 117.861 43.0611 117.797 43.0942C117.675 43.1521 117.547 43.2059 117.415 43.257H117.415C116.69 43.5379 115.832 43.7389 114.829 43.823C117.399 45.6107 121.114 45.585 125.386 43.3593C127.971 42.0125 130.458 40.0077 132.69 37.593H111.337Z" fill="#1D91B4"/>
<path id="Vector_50" fill-rule="evenodd" clip-rule="evenodd" d="M112.812 29.7785H115.767V33.7861H112.812V29.7785ZM113.059 30.1126H113.292V33.4523H113.059V30.1126ZM113.497 30.1126H113.74V33.4523H113.497V30.1126H113.497ZM113.945 30.1126H114.187V33.4523H113.945V30.1126ZM114.392 30.1126H114.635V33.4523H114.392V30.1126ZM114.84 30.1126H115.083V33.4523H114.84V30.1126ZM115.288 30.1126H115.521V33.4523H115.288V30.1126ZM116.222 25.1545H119.177V29.1619H116.222V25.1545H116.222ZM116.468 25.4886H116.701V28.8281H116.468V25.4886ZM116.906 25.4886H117.149V28.8281H116.906V25.4886H116.906ZM117.354 25.4886H117.596V28.8281H117.354V25.4886ZM117.802 25.4886H118.044V28.8281H117.802V25.4886ZM118.249 25.4886H118.492V28.8281H118.249V25.4886ZM118.697 25.4886H118.93V28.8281H118.697V25.4886Z" fill="#23A3C2"/>
<path id="Vector_51" fill-rule="evenodd" clip-rule="evenodd" d="M116.222 29.7786H119.177V33.7862H116.222V29.7786H116.222ZM116.468 30.1126H116.701V33.4523H116.468V30.1126ZM116.906 30.1126H117.149V33.4523H116.907V30.1126H116.906ZM117.354 30.1126H117.596V33.4523H117.354V30.1126ZM117.802 30.1126H118.044V33.4523H117.802V30.1126ZM118.249 30.1126H118.492V33.4523H118.249V30.1126ZM118.697 30.1126H118.931V33.4523H118.697V30.1126Z" fill="#34BBDE"/>
<path id="Vector_52" fill-rule="evenodd" clip-rule="evenodd" d="M119.631 29.7786H122.586V33.7862H119.631V29.7786ZM119.877 30.1126H120.11V33.4523H119.877V30.1126ZM120.315 30.1126H120.558V33.4523H120.315V30.1126ZM120.763 30.1126H121.005V33.4523H120.763V30.1126ZM121.211 30.1126H121.453V33.4523H121.211V30.1126ZM121.658 30.1126H121.901V33.4523H121.658V30.1126ZM122.106 30.1126H122.339V33.4523H122.106V30.1126V30.1126Z" fill="#23A3C2"/>
<path id="Vector_53" fill-rule="evenodd" clip-rule="evenodd" d="M119.631 25.1545H122.586V29.1619H119.631V25.1545ZM119.877 25.4886H120.11V28.8281H119.877V25.4886ZM120.315 25.4886H120.558V28.8281H120.315V25.4886ZM120.763 25.4886H121.005V28.8281H120.763V25.4886ZM121.211 25.4886H121.453V28.8281H121.211V25.4886ZM121.658 25.4886H121.901V28.8281H121.658V25.4886ZM122.106 25.4886H122.339V28.8281H122.106V25.4886V25.4886ZM123.04 29.7785H125.995V33.7861H123.04V29.7785ZM123.286 30.1126H123.519V33.4523H123.286V30.1126ZM123.725 30.1126H123.967V33.4523H123.725V30.1126ZM124.172 30.1126H124.415V33.4523H124.172V30.1126ZM124.62 30.1126H124.863V33.4523H124.62V30.1126ZM125.068 30.1126H125.31V33.4523H125.068V30.1126ZM125.515 30.1126H125.749V33.4523H125.515V30.1126Z" fill="#34BBDE"/>
<path id="Vector_54" fill-rule="evenodd" clip-rule="evenodd" d="M123.04 25.1545H125.995V29.1619H123.04V25.1545ZM123.286 25.4886H123.519V28.8281H123.286V25.4886ZM123.725 25.4886H123.967V28.8281H123.725V25.4886ZM124.172 25.4886H124.415V28.8281H124.172V25.4886ZM124.62 25.4886H124.863V28.8281H124.62V25.4886ZM125.068 25.4886H125.31V28.8281H125.068V25.4886ZM125.515 25.4886H125.749V28.8281H125.515V25.4886Z" fill="#23A3C2"/>
<path id="Vector_55" fill-rule="evenodd" clip-rule="evenodd" d="M123.04 20.5305H125.995V24.5385H123.04V20.5305ZM123.286 20.8644H123.519V24.2043H123.286V20.8642V20.8644ZM123.725 20.8644H123.967V24.2043H123.725V20.8642V20.8644ZM124.172 20.8644H124.415V24.2043H124.172V20.8642V20.8644ZM124.62 20.8644H124.863V24.2043H124.62V20.8642V20.8644ZM125.068 20.8644H125.31V24.2043H125.068V20.8642V20.8644ZM125.515 20.8644H125.749V24.2043H125.515V20.8642V20.8644Z" fill="#34BBDE"/>
<path id="Vector_56" fill-rule="evenodd" clip-rule="evenodd" d="M126.45 29.7786H129.404V33.7862H126.45V29.7786ZM126.696 30.1126H126.929V33.4523H126.696V30.1126H126.696ZM127.134 30.1126H127.377V33.4523H127.134V30.1126H127.134ZM127.582 30.1126H127.824V33.4523H127.582V30.1126ZM128.029 30.1126H128.272V33.4523H128.029V30.1126ZM128.477 30.1126H128.72V33.4523H128.477V30.1126ZM128.925 30.1126H129.158V33.4523H128.925V30.1126Z" fill="#23A3C2"/>
<path id="Vector_57" fill-rule="evenodd" clip-rule="evenodd" d="M118.991 40.2838C119.099 40.2818 119.207 40.309 119.307 40.3637C119.407 40.4184 119.498 40.4995 119.575 40.6024C119.652 40.7053 119.713 40.8279 119.754 40.963C119.796 41.0982 119.818 41.2432 119.817 41.3896C119.817 41.5361 119.796 41.6811 119.754 41.8162C119.713 41.9513 119.652 42.0739 119.575 42.1767C119.498 42.2796 119.407 42.3607 119.306 42.4153C119.206 42.47 119.099 42.4971 118.991 42.4951C118.777 42.4911 118.572 42.3728 118.422 42.1659C118.271 41.9589 118.187 41.6799 118.187 41.3892C118.187 41.0986 118.271 40.8196 118.422 40.6127C118.573 40.4058 118.777 40.2877 118.991 40.2838Z" fill="#D3ECEC"/>
<path id="Vector_58" fill-rule="evenodd" clip-rule="evenodd" d="M118.992 40.5974C119.066 40.5974 119.137 40.6164 119.203 40.651C119.158 40.6867 119.122 40.7415 119.102 40.8072C119.082 40.8728 119.079 40.9455 119.092 41.0141C119.106 41.0827 119.136 41.1433 119.177 41.1866C119.219 41.2299 119.27 41.2534 119.322 41.2536C119.412 41.2536 119.49 41.1859 119.531 41.0856C119.579 41.2425 119.588 41.4161 119.558 41.5809C119.528 41.7457 119.459 41.8929 119.362 42.0008C119.266 42.1086 119.146 42.1714 119.021 42.1798C118.896 42.1883 118.772 42.1419 118.668 42.0476C118.564 41.9533 118.485 41.8161 118.442 41.6562C118.4 41.4963 118.397 41.3222 118.433 41.1596C118.469 40.9971 118.543 40.8546 118.644 40.7534C118.745 40.6522 118.866 40.5975 118.992 40.5974V40.5974ZM104.574 37.9926H142.492C141.667 37.7087 139.88 37.3249 140.175 35.8572C138.673 38.2135 135.053 37.5103 134.139 36.3486C133.122 38.3502 127.198 37.5892 126.785 36.0299C125.509 38.0604 121.557 38.0604 120.281 36.0299C119.868 37.5892 113.944 38.3502 112.927 36.3484C112.013 37.5103 108.393 38.2135 106.892 35.8574C107.186 37.3249 105.4 37.7087 104.574 37.9928" fill="#364548"/>
<path id="Vector_59" fill-rule="evenodd" clip-rule="evenodd" d="M121.158 48.251C119.139 46.9517 118.032 45.1853 117.415 43.2573C116.665 43.5475 115.764 43.7331 114.716 43.8128C114.322 43.8428 113.907 43.8581 113.472 43.8581C112.969 43.8581 112.44 43.8379 111.885 43.7981C113.736 46.3076 116.013 48.2396 120.23 48.2748C120.542 48.2748 120.851 48.2667 121.158 48.251" fill="#BDD9D7"/>
<path id="Vector_60" fill-rule="evenodd" clip-rule="evenodd" d="M118.165 45.0366C117.885 44.5224 117.615 43.8761 117.415 43.2571C116.665 43.5477 115.764 43.7333 114.716 43.8132C115.436 44.3428 116.465 44.8336 118.165 45.0366" fill="#D3ECEC"/>
</g>
</g>
<path id="rocket-path" d="M138.5 304.5C132.1 236.1 98.8333 185 83 168L67 94.5L178 59L247 117L264 198.5L236 245.5L288 321.5L398 274.5V198.5L345 154.5L377.5 85.5L335.5 18.5L264 3.5L174.5 0.5L95.5 3.5L31.5 59L1 147.5L31.5 188.5L38.5 274.5L83 315.5" stroke="black"/>
</g>
<defs>
<linearGradient id="paint0_linear_2_87" x1="268.449" y1="29.4135" x2="304.696" y2="41.2429" gradientUnits="userSpaceOnUse">
<stop stop-color="#2298BD"/>
<stop offset="1" stop-color="#0ED7B5"/>
</linearGradient>
</defs>
</svg>
