<svg width="33" height="35" viewBox="0 0 33 35" fill="none" xmlns="http://www.w3.org/2000/svg">
<g id="XMLID_11_">
<path id="XMLID_1285_" d="M32.198 5.83822L32.3556 5.671C32.7682 5.23344 33 4.63993 33 4.02115C33 3.40237 32.7682 2.80886 32.3556 2.3713L30.7642 0.683414C30.3346 0.227805 29.7716 0 29.2086 0C28.6456 0 28.0826 0.227805 27.6531 0.683414L27.4954 0.850631L26.8769 0.194594C26.6709 -0.0238771 26.3368 -0.0238771 26.1309 0.194594L25.3213 1.05324C25.1153 1.27171 25.1153 1.62598 25.3213 1.84445L25.9398 2.50048L24.6938 3.82205L24.0752 3.16601C23.8693 2.94754 23.5352 2.94754 23.3292 3.16601L22.5197 4.02465C22.3137 4.24312 22.3137 4.59739 22.5197 4.81586L23.1382 5.4719L18.5343 10.3548C17.8065 10.0964 17.0459 9.96305 16.278 9.96297C14.503 9.96289 12.8516 10.6774 11.6282 11.9749C11.1846 12.4455 10.8094 12.9806 10.513 13.5654C10.2262 14.1315 9.67082 14.4831 9.06364 14.4831L9.06092 15.6497C9.06004 15.6497 9.05916 15.6498 9.05828 15.6498L9.05836 14.4831C6.59729 14.483 4.31112 15.4702 2.62114 17.2626C1.71198 18.2269 1.02362 19.3664 0.575126 20.6497C0.14724 21.874 -0.0434212 23.1735 0.0082772 24.5123C0.112701 27.2144 1.19433 29.7886 3.05401 31.761C4.04031 32.8071 5.18281 33.6207 6.44975 34.1794C7.68465 34.7239 8.97535 35 10.2861 35C12.7474 35 15.0337 34.0127 16.7239 32.2201C18.4151 30.4265 19.3458 28.0001 19.3446 25.388C19.3443 24.7436 19.6758 24.1543 20.2098 23.8499C20.7612 23.5356 21.2657 23.1377 21.7094 22.6671C22.8141 21.4955 23.4821 19.9205 23.5905 18.2322C23.6527 17.2633 23.5287 16.2787 23.2349 15.3446L27.8409 10.4594L28.4595 11.1154C28.6655 11.3339 28.9995 11.3339 29.2055 11.1154L30.0151 10.2568C30.221 10.0383 30.221 9.68406 30.0151 9.46559L29.3965 8.80956L30.6426 7.48799L31.2611 8.14403C31.4671 8.3625 31.8011 8.3625 32.0071 8.14403L32.8167 7.28539C33.0227 7.06692 33.0227 6.71265 32.8167 6.49418L32.198 5.83822ZM20.5899 14.8501C21.7992 16.8364 21.6745 19.4042 20.1537 21.0172C19.8561 21.3328 19.524 21.5918 19.1683 21.7946C17.9225 22.5047 17.1438 23.8891 17.1446 25.389C17.1455 27.3033 16.492 29.1663 15.1682 30.5703C13.845 31.9737 12.09 32.6668 10.2859 32.6668C8.27753 32.6668 6.20842 31.8072 4.60944 30.1113C1.57419 26.892 1.38037 21.8782 4.17656 18.9125C5.49953 17.5094 7.25441 16.8164 9.05814 16.8164C9.05924 16.8164 9.06063 16.8164 9.06173 16.8164C9.06239 16.8164 9.0629 16.8164 9.06356 16.8164C10.4786 16.8164 11.7809 15.992 12.4508 14.67C12.642 14.2927 12.8862 13.9405 13.1837 13.6249C14.0224 12.7354 15.1346 12.2962 16.2779 12.2962C17.2078 12.2963 18.1584 12.587 18.9985 13.1623L29.2086 2.33327L30.8 4.02115L20.5899 14.8501Z" fill="black"/>
<path id="XMLID_1322_" d="M14.934 15.3511C13.9745 15.3511 13.0724 15.7473 12.394 16.467C11.7155 17.1866 11.3418 18.1433 11.3418 19.161C11.3418 20.1787 11.7154 21.1354 12.394 21.855C13.0724 22.5746 13.9745 22.9708 14.934 22.9708C15.8935 22.9708 16.7956 22.5746 17.474 21.855C18.1525 21.1354 18.5261 20.1787 18.5261 19.161C18.5261 18.1433 18.1525 17.1866 17.474 16.467C16.7956 15.7474 15.8935 15.3511 14.934 15.3511ZM15.9184 20.205C15.6466 20.4934 15.2902 20.6376 14.9339 20.6376C14.5776 20.6376 14.2213 20.4934 13.9494 20.205C13.4058 19.6284 13.4058 18.6935 13.9494 18.1168C14.2213 17.8285 14.5776 17.6843 14.9339 17.6843C15.2902 17.6843 15.6466 17.8285 15.9184 18.1168C16.4621 18.6935 16.4621 19.6284 15.9184 20.205Z" fill="black"/>
<path id="XMLID_1323_" d="M6.26896 24.6816L9.72872 28.3511C10.1583 28.8067 10.8547 28.8067 11.2843 28.3511C11.7139 27.8955 11.7139 27.1568 11.2843 26.7012L7.82453 23.0318C7.39496 22.5762 6.69853 22.5762 6.26896 23.0318C5.83938 23.4874 5.83938 24.226 6.26896 24.6816Z" fill="black"/>
</g>
</svg>
