<svg width="245" height="139" viewBox="0 0 245 139" fill="none" xmlns="http://www.w3.org/2000/svg">

  <g id="jslogo">
    <path id="Vector" d="M78.248 30.3748H149V95H78.248V30.3748Z" fill="#F7DF1E"/>
    <path id="Vector_2" d="M96.8518 84.3803L102.266 81.3874C103.311 83.079 104.261 84.5103 106.54 84.5103C108.725 84.5103 110.103 83.7298 110.103 80.6934V60.0441H116.751V80.7793C116.751 87.0694 112.715 89.9326 106.825 89.9326C101.506 89.9326 98.4189 87.4165 96.8516 84.3798L96.8518 84.3803ZM120.363 83.7295L125.776 80.8666C127.202 82.9924 129.054 84.554 132.331 84.554C135.086 84.554 136.842 83.2958 136.842 81.5606C136.842 79.4784 135.038 78.7408 131.998 77.5265L130.336 76.8752C125.539 75.0104 122.357 72.6678 122.357 67.7224C122.357 63.1674 126.157 59.6968 132.094 59.6968C136.32 59.6968 139.36 61.0418 141.544 64.5555L136.367 67.5924C135.227 65.7271 133.993 64.9897 132.093 64.9897C130.146 64.9897 128.911 66.1176 128.911 67.5924C128.911 69.4143 130.146 70.1522 132.995 71.2801L134.657 71.9306C140.309 74.1433 143.491 76.3989 143.491 81.474C143.491 86.9404 138.79 89.9333 132.473 89.9333C126.299 89.9333 122.31 87.2438 120.362 83.7298" fill="black"/>
  </g>
  <g id="javascript">
<g id="vuejs" class="icons">
<path id="path893" fill-rule="evenodd" clip-rule="evenodd" d="M22.712 0.00732422H28.2968L14.1948 35.9999L0 0.00732422H5.71188L14.1948 21.6756L22.712 0.00732422Z" fill="#41B883"/>
<path id="path895" fill-rule="evenodd" clip-rule="evenodd" d="M17.4335 0H22.7451L14.1868 21.7134L5.69727 0H10.9259L14.1868 8.35932L17.4335 0Z" fill="#35495E"/>
<path id="path897" fill-rule="evenodd" clip-rule="evenodd" d="M31.6299 7.10562C31.6299 6.84009 31.7294 6.61883 31.9284 6.44179C32.1275 6.26478 32.3356 6.17627 32.5527 6.17627C32.8542 6.17627 33.0412 6.34443 33.1136 6.68078L36.2982 22.4528L39.4646 6.68078C39.549 6.34445 39.73 6.17627 40.0074 6.17627C40.2366 6.17627 40.4507 6.27362 40.6498 6.46834C40.8488 6.66306 40.9483 6.88433 40.9483 7.13217C40.9483 7.14987 40.9454 7.17642 40.9393 7.21182C40.9332 7.24722 40.9302 7.28263 40.9302 7.31803L37.2571 24.9754C37.1245 25.4887 36.8048 25.7454 36.2982 25.7454C35.7915 25.7454 35.4839 25.4887 35.3754 24.9754L31.6662 7.31803C31.6421 7.21182 31.6301 7.14102 31.6301 7.10562H31.6299ZM41.0909 20.7002V13.7968C41.0909 13.5844 41.1663 13.3985 41.3171 13.2392C41.4679 13.0799 41.6458 13.0002 41.8508 13.0002C42.0439 13.0002 42.2157 13.0843 42.3665 13.2525C42.5173 13.4206 42.5927 13.6021 42.5927 13.7968V20.7002C42.5927 21.4968 42.7978 22.2137 43.2079 22.8509C43.618 23.4882 44.1066 23.8068 44.6735 23.8068C45.2284 23.8068 45.7109 23.4926 46.121 22.8642C46.5312 22.2358 46.7362 21.5145 46.7362 20.7002V13.7698C46.7362 13.5751 46.8116 13.3981 46.9624 13.2388C47.1132 13.0795 47.2911 12.9998 47.4962 12.9998C47.7133 12.9998 47.8912 13.075 48.03 13.2255C48.1687 13.376 48.2381 13.5574 48.2381 13.7698V20.7002C48.2381 22.0633 47.8852 23.2536 47.1796 24.2715C46.4739 25.2893 45.6386 25.7983 44.6736 25.7983C43.6965 25.7983 42.8551 25.2893 42.1494 24.2715C41.4438 23.2536 41.0909 22.0633 41.0909 20.7002H41.0909ZM49.466 20.6471V17.8591C49.466 16.4961 49.8188 15.319 50.5245 14.3277C51.2301 13.3364 52.0776 12.8407 53.0667 12.8407C54.0076 12.8407 54.8218 13.3054 55.5094 14.2348C56.197 15.1641 56.5408 16.3279 56.5408 17.7264C56.5408 18.2397 56.4986 18.6513 56.4141 18.9611C56.3297 19.2709 56.2 19.4921 56.0251 19.6249C55.8502 19.7577 55.6873 19.8417 55.5366 19.8771C55.3858 19.9125 55.1837 19.9303 54.9304 19.9303H50.9677V20.7268C50.9677 21.7004 51.206 22.4793 51.6824 23.0634C52.1589 23.6476 52.7771 23.9397 53.5371 23.9397C53.9352 23.9397 54.282 23.8512 54.5775 23.6741C54.873 23.4971 55.1113 23.3245 55.2922 23.1564C55.4731 22.9882 55.6179 22.9042 55.7265 22.9042C55.8953 22.9042 56.0401 23.0148 56.1607 23.2361C56.2813 23.4573 56.3417 23.683 56.3417 23.9131C56.3417 24.3203 56.0672 24.7363 55.5184 25.1611C54.9695 25.5859 54.291 25.7983 53.4828 25.7983C52.3007 25.7983 51.3357 25.3248 50.5878 24.3778C49.8399 23.4307 49.4659 22.1872 49.4659 20.6472L49.466 20.6471ZM50.9678 18.4433H54.3152C54.6288 18.4433 54.8399 18.3858 54.9485 18.2707C55.0571 18.1556 55.1113 17.9299 55.1113 17.5936C55.1113 16.7971 54.9123 16.0979 54.5142 15.496C54.1162 14.8941 53.6276 14.5932 53.0486 14.5932C52.4817 14.5932 51.9931 14.872 51.583 15.4296C51.1729 15.9872 50.9678 16.6731 50.9678 17.4874L50.9678 18.4433ZM57.2985 24.3644C57.2985 23.9749 57.389 23.643 57.5699 23.3687C57.7509 23.0943 57.974 22.9571 58.2394 22.9571C58.4927 22.9571 58.7098 23.0943 58.8908 23.3687C59.0717 23.643 59.1622 23.975 59.1622 24.3644C59.1622 24.7361 59.0717 25.0592 58.8908 25.3335C58.7098 25.6079 58.4927 25.7451 58.2394 25.7451C57.974 25.7451 57.7509 25.6079 57.5699 25.3335C57.389 25.0592 57.2985 24.7361 57.2985 24.3644ZM58.6352 30.7104C58.6352 30.4272 58.6955 30.1927 58.8162 30.0068C58.9368 29.8209 59.0815 29.728 59.2504 29.728C59.7209 29.728 60.0285 29.4713 60.1732 28.958C60.318 28.4447 60.3904 27.6747 60.3904 26.648V13.77C60.3904 13.5399 60.4597 13.354 60.5984 13.2124C60.7372 13.0708 60.9151 13 61.1322 13C61.3493 13 61.5303 13.0708 61.675 13.2124C61.8198 13.354 61.8922 13.5399 61.8922 13.77V26.648C61.8922 28.188 61.6871 29.4094 61.277 30.3122C60.8668 31.215 60.2456 31.6663 59.4133 31.6663C58.8946 31.6663 58.6353 31.3477 58.6353 30.7105L58.6352 30.7104ZM60.1913 8.27368C60.1913 7.93736 60.2818 7.6453 60.4627 7.39746C60.6436 7.14964 60.8668 7.02573 61.1322 7.02573C61.3855 7.02573 61.6026 7.14964 61.7836 7.39746C61.9645 7.64528 62.055 7.93736 62.055 8.27368C62.055 8.61001 61.9645 8.90653 61.7836 9.16319C61.6026 9.41986 61.3855 9.5482 61.1322 9.5482C60.8789 9.5482 60.6587 9.41987 60.4717 9.16319C60.2848 8.90652 60.1913 8.61001 60.1913 8.27368H60.1913ZM63.0117 23.78C63.0117 23.5499 63.0629 23.3242 63.1655 23.103C63.268 22.8817 63.3917 22.7711 63.5364 22.7711C63.6329 22.7711 63.7716 22.8773 63.9526 23.0897C64.1335 23.3021 64.3929 23.5101 64.7306 23.7137C65.0683 23.9173 65.4664 24.019 65.9248 24.019C66.5279 24.019 66.9652 23.8597 67.2366 23.5411C67.508 23.2225 67.6437 22.8242 67.6437 22.3462C67.6437 21.7621 67.4929 21.2974 67.1914 20.9522C66.8898 20.607 66.5219 20.346 66.0876 20.1689C65.6534 19.9919 65.2191 19.7972 64.7848 19.5848C64.3506 19.3724 63.9827 19.0183 63.6811 18.5227C63.3795 18.027 63.2287 17.3721 63.2287 16.5578C63.2287 15.5488 63.473 14.677 63.9615 13.9424C64.4501 13.2078 65.195 12.8405 66.1962 12.8405C66.8355 12.8405 67.4205 12.9865 67.9513 13.2786C68.482 13.5707 68.7474 13.9026 68.7474 14.2743C68.7474 14.4867 68.6901 14.7257 68.5755 14.9912C68.4609 15.2568 68.3192 15.3895 68.1503 15.3895C68.102 15.3895 67.8698 15.2612 67.4537 15.0045C67.0375 14.7478 66.6244 14.6195 66.2142 14.6195C65.6593 14.6195 65.2462 14.8098 64.9748 15.1904C64.7034 15.571 64.5677 16.0002 64.5677 16.4782C64.5677 16.9738 64.7185 17.3633 65.02 17.6464C65.3216 17.9297 65.6925 18.151 66.1328 18.3103C66.5731 18.4696 67.0104 18.6643 67.4446 18.8944C67.8789 19.1246 68.2468 19.5184 68.5484 20.076C68.8499 20.6336 69.0007 21.3549 69.0007 22.24C69.0007 23.3375 68.7354 24.2049 68.2046 24.8421C67.6738 25.4794 66.932 25.798 65.979 25.798C65.1588 25.798 64.4592 25.5812 63.8802 25.1475C63.3011 24.7138 63.0116 24.258 63.0116 23.78L63.0117 23.78Z" fill="#010101"/>
</g>

<g id="jquery" class="icons">
<g id="Group">
<path id="Vector_3" d="M51.6488 121.938L51.2199 124.751L51.6488 121.937V121.938ZM53.8549 128.047L53.3824 128.042L53.8549 128.047ZM53.7386 132.25L50.9072 132.269L53.7386 132.25ZM54.3314 128.054L53.8584 128.048L54.3314 128.054ZM53.9874 131.895L54.4814 128.412L53.9874 131.895ZM64.4134 115.864L63.4952 123.861L64.4134 115.864ZM62.0516 115.853L61.3542 121.828L62.0516 115.853Z" fill="#131B28"/>
<path id="Vector_4" d="M64.2494 115.495H62.285C62.1758 115.495 62.0677 115.656 62.0444 115.854L60.6496 127.804C60.6264 128.001 60.5183 128.163 60.4096 128.163H59.0189C57.6427 128.163 57.8019 126.401 58.089 123.988L58.0978 123.915L58.2646 122.269L58.3366 121.591L58.9712 115.854C58.9933 115.656 58.9218 115.494 58.8126 115.494H56.796C56.7404 115.497 56.6869 115.534 56.6437 115.599C56.6005 115.664 56.5699 115.753 56.5565 115.853L55.6365 123.83C55.1367 128.052 55.2692 132.078 57.9844 132.204H62.324C62.4332 132.204 62.5407 132.042 62.564 131.844L64.4016 115.85C64.4249 115.652 64.3534 115.491 64.2447 115.491L64.2494 115.495ZM72.0834 128.204C72.1927 128.204 72.2578 128.366 72.2421 128.564L72.0515 130.291L72.0834 128.204ZM71.8655 132.017L72.0561 130.29L71.8655 132.017ZM71.633 132.381L68.0124 132.413L71.633 132.381Z" fill="#131B28"/>
<path id="Vector_5" d="M66.8347 125.981C66.833 125.791 66.9492 125.466 67.0585 125.466L66.8132 125.459C66.697 127.518 66.8347 125.981 66.8347 125.981V125.981ZM68.1859 132.411H68.1482H68.1859ZM72.0844 128.215C72.1936 128.215 72.2587 128.377 72.243 128.575L72.0262 130.571L72.0844 128.215ZM69.1158 132.408H69.1077H69.1158ZM68.6334 132.411H68.6055H68.6334ZM68.487 132.411H68.4405H68.487ZM68.337 132.411H68.2963H68.337ZM68.6055 132.411H68.4864H68.6055Z" fill="#131B28"/>
<path id="Vector_6" d="M69.1089 132.408L68.6347 132.411L69.1089 132.408ZM71.6294 132.379L69.1159 132.407L71.6294 132.379ZM71.8619 132.019L72.0217 130.573L71.8619 132.02V132.019ZM68.4354 132.411H68.3319H68.4354ZM68.1419 132.413H68.0024H68.1419ZM68.2895 132.411H68.1733H68.2895ZM39.5464 126.024L39.8515 123.519L39.5028 126.381L39.4621 126.74L39.547 126.022L39.5464 126.024ZM43.2007 115.453H41.0429C40.9871 115.457 40.9335 115.494 40.8899 115.559C40.8463 115.623 40.815 115.712 40.8005 115.811L40.3914 119.147C40.3845 119.19 40.3834 119.235 40.388 119.28C40.3927 119.324 40.4031 119.365 40.4183 119.4C40.4334 119.435 40.453 119.463 40.4752 119.482C40.4974 119.5 40.5217 119.508 40.546 119.505H42.7207C42.8299 119.505 42.938 119.343 42.9613 119.147L43.3565 115.804C43.3797 115.607 43.31 115.446 43.1996 115.446L43.2007 115.453ZM42.7358 121.015L42.0965 126.436L42.7358 121.015ZM36.4674 138.974L38.2469 139C37.7215 139 36.8539 138.982 36.4668 138.973L36.4674 138.974Z" fill="#131B28"/>
<path id="Vector_7" d="M40.1622 121.014L39.8566 123.519L40.1622 121.014ZM42.5799 120.655H40.4104C40.3546 120.659 40.301 120.696 40.2574 120.761C40.2138 120.825 40.1825 120.914 40.1681 121.013L39.5578 126.023L39.473 126.741L38.8918 131.855C38.863 132.094 38.8281 132.33 38.7872 132.562C38.7872 132.562 38.3804 134.8 37.6981 134.775L37.0211 134.751C36.9655 134.754 36.9119 134.79 36.868 134.853C36.8242 134.916 36.7923 135.003 36.777 135.102L36.326 138.612C36.3189 138.655 36.3174 138.7 36.3218 138.744C36.3262 138.788 36.3362 138.83 36.3511 138.865C36.366 138.901 36.3852 138.929 36.4073 138.948C36.4293 138.967 36.4535 138.975 36.4777 138.973L38.2578 139C39.9641 139 40.8631 137.25 41.4402 132.214L42.7478 121.025C42.7711 120.828 42.7002 120.667 42.5909 120.667L42.5799 120.655ZM73.4745 132.207C73.3652 132.207 73.3001 132.046 73.3176 131.848L74.9547 117.661L73.4745 132.207ZM75.7486 131.848L76.4111 125.792L75.7486 131.848Z" fill="#131B28"/>
<path id="Vector_8" d="M73.3423 132.028C73.3289 131.929 73.3365 131.687 73.3597 131.49L74.1362 124.755L73.3179 131.848C73.2946 132.046 73.3656 132.208 73.4748 132.208H73.6736C73.5643 132.208 73.3551 132.127 73.3423 132.028V132.028ZM75.6205 132.127C75.5612 132.17 75.4229 132.208 75.3136 132.208H75.5124C75.5678 132.204 75.6211 132.166 75.6641 132.101C75.707 132.036 75.7374 131.947 75.7506 131.847L75.7902 131.488C75.7687 131.686 75.6739 132.083 75.6158 132.127H75.6205ZM76.0807 128.82L76.3731 126.147L76.0807 128.82ZM82.5363 118.612L82.6264 119.3C82.6514 119.497 82.5822 119.658 82.4735 119.659" fill="#131B28"/>
<path id="Vector_9" d="M75.789 131.488L76.0795 128.82L75.789 131.488ZM82.4462 117.905L82.5351 118.611L82.4462 117.905ZM76.373 126.15L76.4532 125.435L76.7653 122.729L76.412 125.793L76.373 126.149V126.15ZM74.9811 117.428L74.9132 118.02L74.1367 124.755L74.955 117.662L74.9811 117.43V117.428Z" fill="#131B28"/>
<path id="Vector_10" d="M82.627 119.3L82.5369 118.612L82.4032 117.536C82.2266 116.266 81.7082 115.532 80.5819 115.532L75.3979 115.525C75.3423 115.529 75.2889 115.566 75.2456 115.631C75.2024 115.695 75.1718 115.785 75.1585 115.885L75.0783 116.587L74.962 117.649L73.3673 131.477C73.3441 131.675 73.3365 131.908 73.3499 132.015C73.3632 132.123 73.5725 132.195 73.6811 132.195H75.32C75.4293 132.195 75.567 132.158 75.6269 132.114C75.6867 132.07 75.7745 131.684 75.8012 131.475L76.4231 125.779L77.0885 120.008C77.1117 119.812 77.2193 119.651 77.3279 119.65L82.4846 119.646C82.5933 119.646 82.6624 119.484 82.6374 119.288L82.627 119.3ZM89.265 113.067L88.8681 113.07H87.2176C87.1572 113.077 87.0982 113.107 87.0447 113.16C86.9911 113.212 86.9443 113.285 86.9072 113.373L83.2575 123.272C83.1959 123.438 83.1256 123.414 83.1006 123.218L82.8321 121.037C82.8177 120.937 82.7863 120.849 82.7427 120.784C82.6991 120.72 82.6455 120.683 82.5898 120.679H80.2436C80.1344 120.679 80.0693 120.837 80.0995 121.032L81.1456 127.851C81.1758 128.044 81.1776 128.364 81.1514 128.561L80.6865 131.86C80.6786 131.903 80.6765 131.948 80.6804 131.992C80.6843 132.036 80.6942 132.078 80.709 132.113C80.7238 132.149 80.7432 132.177 80.7653 132.195C80.7875 132.213 80.8117 132.22 80.8358 132.216H83.1605C83.2697 132.216 83.3813 132.055 83.4081 131.861L83.873 128.562C83.9094 128.329 83.9664 128.11 84.0415 127.912L89.9671 113.353C90.0327 113.192 89.9973 113.06 89.888 113.062L89.2662 113.07L89.265 113.067ZM70.6236 121.607C70.6097 121.822 70.5004 121.984 70.3912 121.984H67.4156C67.3128 121.984 67.2605 121.855 67.2762 121.693L67.2785 121.664L67.2918 121.571C67.5824 120.172 68.1549 119.254 69.2422 119.254C70.4667 119.254 70.7056 120.362 70.6225 121.607H70.6236ZM69.7519 115.251C65.9337 115.251 65.0288 119.541 64.5214 123.872C64.0135 128.286 64.0577 132.414 68.0084 132.414H68.6349L69.1173 132.411L71.6314 132.383C71.6865 132.379 71.7394 132.341 71.782 132.276C71.8247 132.211 71.8548 132.122 71.8679 132.023L72.2497 128.567C72.2718 128.369 72.2003 128.208 72.0911 128.208H68.5396C67.1274 128.208 66.7072 127.513 66.8618 125.47H72.5397C72.6327 125.466 72.717 125.362 72.7501 125.198C72.7559 125.169 72.7617 125.138 72.7641 125.107C73.6068 119.222 73.365 115.255 69.7536 115.255L69.7519 115.251ZM51.7033 121.585L51.6499 121.936C51.6499 121.937 51.221 124.751 51.221 124.751L50.7921 127.563C50.7742 127.662 50.7406 127.749 50.6956 127.812C50.6505 127.875 50.5962 127.911 50.5398 127.916H48.2704C46.549 127.916 46.13 125.423 46.549 121.747C46.9674 117.987 47.7898 115.649 49.4839 115.412C51.7992 115.089 52.2618 118.104 51.7039 121.584L51.7033 121.585ZM53.2597 127.701C53.2597 127.701 54.329 122.892 54.5731 120.113C54.9044 116.393 53.899 111 50.0139 111C46.1509 111 44.4737 116.149 43.8338 121.759C43.1945 127.397 44.0326 132.341 47.8729 132.303L53.7345 132.263C53.7907 132.258 53.8447 132.221 53.8891 132.157C53.9335 132.093 53.9662 132.005 53.9826 131.906L54.4766 128.422C54.4846 128.38 54.4868 128.334 54.483 128.29C54.4792 128.246 54.4695 128.204 54.4548 128.169C54.44 128.134 54.4208 128.105 54.3987 128.087C54.3767 128.069 54.3525 128.061 54.3284 128.065H53.3829C53.2899 128.064 53.2376 127.953 53.2481 127.806C53.2498 127.78 53.2539 127.753 53.2597 127.725V127.701Z" fill="#131B28"/>
<path id="Vector_11" d="M72.3795 124.482C72.3795 124.615 72.3214 124.723 72.2493 124.723C72.1773 124.723 72.1191 124.615 72.1191 124.482C72.1191 124.349 72.1773 124.241 72.2493 124.241C72.3214 124.241 72.3795 124.349 72.3795 124.482Z" fill="#131B28"/>
</g>
<path id="Vector_12" d="M23.765 118.228C22.6986 121.066 22.8311 124.759 23.6459 127.773L23.7058 127.988L23.7441 128.124L23.7674 128.203L23.8098 128.342L23.8877 128.59L23.9318 128.725L24.0219 128.987L24.0603 129.097L24.191 129.446L24.2166 129.511L24.3357 129.805L24.3805 129.91L24.4967 130.161L24.5386 130.254L24.692 130.579L24.7013 130.597L24.857 130.902L24.907 130.996L25.0314 131.211L25.0825 131.3L25.2528 131.587L25.2854 131.638L25.4405 131.88L25.4986 131.975L25.6277 132.162L25.6974 132.269L25.8427 132.463L25.9101 132.551L26.0507 132.723L26.1118 132.799L26.3326 133.048L26.3936 133.113L26.5593 133.285L26.6511 133.371L26.7696 133.485L26.797 133.51L26.8452 133.553L27.0329 133.714L27.0724 133.747L27.2915 133.914L27.345 133.953L27.5513 134.095L27.5775 134.112L27.8076 134.252L27.8634 134.282L28.0959 134.407C33.2537 136.15 34.7519 128.668 34.7519 128.668C33.4937 131.702 31.2649 132.504 29.1437 131.613C29.0635 131.581 28.9856 131.533 28.9077 131.49L28.8496 131.458C28.7737 131.415 28.6981 131.369 28.623 131.322L28.5916 131.3C28.5242 131.257 28.4579 131.21 28.3911 131.162L28.3347 131.121C28.2619 131.068 28.1896 131.013 28.1179 130.955L28.0749 130.919L27.8925 130.762L27.8343 130.715C27.7867 130.672 27.7402 130.626 27.6931 130.581L27.599 130.49C27.542 130.433 27.4857 130.375 27.4298 130.314L27.3729 130.255C27.2986 130.174 27.225 130.091 27.1521 130.006C27.1317 129.982 27.1125 129.956 27.0928 129.933L26.9359 129.739C26.9184 129.717 26.9022 129.696 26.8853 129.674L26.7371 129.475L26.6714 129.384L26.5378 129.19L26.4779 129.102L26.3111 128.842C26.3053 128.831 26.2995 128.823 26.2937 128.814C26.2344 128.706 26.1763 128.618 26.1182 128.519L26.0688 128.431L25.9427 128.203L25.8933 128.111C25.8408 128.012 25.7893 127.911 25.7387 127.809C25.6828 127.696 25.628 127.581 25.5742 127.464L25.5335 127.374L25.4208 127.116L25.3801 127.008L25.2499 126.688C24.0806 123.727 23.6581 119.634 24.6037 116.273L23.765 118.228ZM27.0811 115.837C26.3099 117.882 26.3518 120.643 26.9533 122.816C27.054 123.181 27.168 123.533 27.2944 123.87C27.4107 124.177 27.5385 124.541 27.6914 124.788L27.8646 125.11L27.9099 125.193L28.0866 125.498L28.0953 125.512L28.3016 125.828L28.3481 125.896L28.5643 126.186L28.7154 126.372L28.8752 126.555L28.8984 126.58L29.0402 126.726L29.0908 126.775L29.1896 126.869L29.2047 126.882L29.411 127.061L29.4564 127.095L29.6307 127.222L29.7034 127.272L29.8585 127.372L29.9283 127.415C30.0027 127.458 30.0759 127.523 30.1532 127.535C34.1359 128.757 35.0553 123.081 35.0553 123.081C34.2265 125.291 32.6214 126.346 30.9087 125.524L30.6832 125.403L30.6152 125.362L30.4583 125.261L30.3868 125.212L30.2171 125.085L30.1706 125.049L29.9631 124.87L29.8585 124.763L29.7987 124.706L29.6359 124.534L29.4761 124.353L29.325 124.167L29.11 123.876L29.0618 123.805C28.3062 122.71 27.7175 121.223 27.4345 119.515C27.1439 117.753 27.202 115.777 27.7152 114.173L27.0811 115.837ZM29.8597 114.051C29.4052 115.289 29.3599 116.827 29.676 118.197C30.0085 119.649 30.6907 120.779 31.4864 121.317L31.5852 121.381L31.6287 121.407L31.7705 121.483C33.9697 122.268 34.5601 119.393 34.7246 118.97C34.2016 120.363 33.3298 120.697 32.2465 120.213C32.1583 120.17 32.0711 120.12 31.985 120.064C31.8796 119.995 31.7762 119.916 31.6752 119.827C31.4838 119.656 31.3019 119.451 31.1324 119.213C30.1677 117.858 29.5633 115.276 30.1985 113.172" fill="#0868AC"/>
</g>
<g id="nuxt" class="icons">
<g id="Calque 1-2">
<path id="path8" d="M196.765 56.1179C196.819 56.2592 196.862 56.4261 196.889 56.609C196.917 56.7918 196.93 56.9868 196.928 57.1825V77.6484C196.93 77.8653 196.915 78.0813 196.884 78.2837C196.853 78.4862 196.806 78.6712 196.746 78.828C196.687 78.9852 196.615 79.109 196.535 79.1917C196.455 79.2743 196.369 79.3138 196.282 79.3076C196.184 79.308 196.087 79.2691 195.994 79.1925C195.909 79.1265 195.832 79.0039 195.772 78.8376L190.493 61.5748V77.8258C190.498 78.2072 190.442 78.5775 190.338 78.8554C190.234 79.1333 190.09 79.2959 189.938 79.3076C189.926 79.3085 189.915 79.3085 189.903 79.3076C189.826 79.315 189.749 79.2813 189.677 79.2085C189.605 79.1358 189.54 79.0257 189.487 78.8856C189.433 78.7445 189.392 78.5781 189.364 78.3962C189.337 78.2142 189.324 78.0203 189.326 77.8258V57.3167C189.325 57.1006 189.341 56.8858 189.373 56.686C189.406 56.4863 189.455 56.3059 189.517 56.1563C189.576 56.0064 189.645 55.8886 189.723 55.8102C189.8 55.7317 189.883 55.6945 189.966 55.7007C190.072 55.6994 190.177 55.7499 190.275 55.8494C190.365 55.9363 190.443 56.082 190.503 56.2713L195.759 73.5725V57.1825C195.757 56.9936 195.769 56.8055 195.796 56.6288C195.823 56.4522 195.863 56.2904 195.915 56.1528C195.966 56.0152 196.028 55.9045 196.097 55.8269C196.165 55.7493 196.239 55.7064 196.314 55.7007C196.326 55.6999 196.338 55.6999 196.349 55.7007C196.426 55.6936 196.503 55.727 196.575 55.7988C196.647 55.8707 196.711 55.9793 196.765 56.1179H196.765ZM207.611 56.1179C207.725 56.4367 207.785 56.8546 207.779 57.2831V70.2303C207.79 71.9037 207.628 73.5557 207.309 75.0255C207.007 76.4121 206.558 77.5621 206.012 78.3485C205.447 79.1636 204.805 79.5841 204.153 79.5665C203.495 79.5926 202.846 79.1806 202.272 78.3725C201.724 77.5894 201.273 76.4388 200.97 75.0494C200.651 73.5797 200.489 71.9276 200.5 70.2542V57.3071C200.498 57.0901 200.513 56.8742 200.546 56.6735C200.579 56.4728 200.628 56.2916 200.691 56.1419C200.755 55.9852 200.83 55.8621 200.913 55.7798C200.996 55.6974 201.085 55.6575 201.174 55.6624C201.258 55.6626 201.341 55.7051 201.419 55.7875C201.496 55.8698 201.566 55.9903 201.625 56.1419C201.686 56.2889 201.735 56.4668 201.768 56.6642C201.801 56.8616 201.817 57.074 201.815 57.2879V70.235C201.809 71.3403 201.92 72.43 202.138 73.3902C202.34 74.2849 202.633 75.0292 202.987 75.5472C203.341 76.0652 203.743 76.3385 204.153 76.3393C204.571 76.3468 204.983 76.079 205.348 75.5625C205.716 75.052 206.022 74.3015 206.234 73.3902C206.455 72.433 206.569 71.3422 206.562 70.235V57.2879C206.556 56.8629 206.613 56.4474 206.723 56.1227C206.778 55.9661 206.847 55.842 206.924 55.7591C207.001 55.6763 207.084 55.6367 207.167 55.6432C207.25 55.6384 207.333 55.6782 207.409 55.76C207.486 55.8418 207.554 55.9637 207.61 56.1176L207.611 56.1179ZM217.946 76.8809C218.027 77.1592 218.069 77.4959 218.066 77.84C218.07 78.0544 218.055 78.2682 218.022 78.4662C217.989 78.6643 217.939 78.8417 217.875 78.986C217.757 79.2666 217.601 79.4227 217.438 79.4224C217.335 79.4321 217.233 79.3755 217.142 79.258C217.05 79.1405 216.972 78.9659 216.915 78.751L214.305 69.9998L211.754 78.7366C211.698 78.9552 211.62 79.1343 211.529 79.2576C211.437 79.3808 211.335 79.4441 211.231 79.4415C211.155 79.4457 211.079 79.4104 211.008 79.3378C210.938 79.2653 210.874 79.1569 210.82 79.0196C210.768 78.8974 210.726 78.7492 210.697 78.5841C210.668 78.4191 210.653 78.2408 210.652 78.0605C210.655 77.6545 210.713 77.2627 210.815 76.948L213.568 67.5351L210.802 58.194C210.715 57.9211 210.667 57.5836 210.666 57.2349C210.664 57.021 210.68 56.8086 210.713 56.6112C210.746 56.4138 210.795 56.2359 210.857 56.0889C210.915 55.9374 210.985 55.8169 211.063 55.7345C211.14 55.6522 211.223 55.6096 211.307 55.6094C211.407 55.6106 211.506 55.6697 211.596 55.782C211.69 55.8947 211.771 56.0684 211.831 56.2855L214.41 64.9884L216.965 56.3714C217.02 56.1553 217.096 55.9753 217.184 55.8461C217.273 55.7169 217.372 55.6422 217.475 55.6282C217.555 55.6292 217.634 55.6725 217.707 55.7551C217.78 55.8376 217.845 55.9578 217.898 56.1077C217.957 56.2379 218.003 56.3965 218.036 56.5737C218.069 56.7509 218.087 56.9431 218.089 57.1385C218.085 57.4849 218.038 57.8196 217.956 58.0975L215.153 67.4682L217.946 76.8809ZM227.636 56.1179C227.698 56.2608 227.748 56.436 227.781 56.6313C227.814 56.8266 227.83 57.0376 227.827 57.2496C227.829 57.4588 227.813 57.6666 227.78 57.8588C227.747 58.0509 227.698 58.2226 227.636 58.362C227.507 58.6368 227.341 58.7805 227.172 58.7649H224.782V77.6919C224.783 77.9058 224.767 78.1181 224.734 78.3154C224.701 78.5127 224.652 78.6907 224.591 78.8379C224.456 79.1405 224.281 79.3078 224.1 79.3078C223.919 79.3078 223.744 79.1405 223.609 78.8379C223.548 78.6901 223.499 78.5121 223.466 78.3149C223.433 78.1177 223.417 77.9056 223.418 77.6919V58.7649H221.033C220.864 58.781 220.698 58.6315 220.571 58.3477C220.511 58.2027 220.463 58.0266 220.432 57.8315C220.401 57.6364 220.386 57.4267 220.39 57.2165C220.387 57.0116 220.402 56.8075 220.433 56.6181C220.465 56.4287 220.512 56.2583 220.571 56.1183C220.698 55.8345 220.864 55.685 221.033 55.7011H227.172C227.342 55.6856 227.508 55.8348 227.636 56.1179V56.1179Z" fill="#2C4A5D"/>
<path id="path10" d="M230.577 78.7034C230.142 78.0851 229.78 77.1883 229.528 76.1045C229.454 75.8365 229.411 75.5203 229.406 75.1934C229.406 74.9845 229.424 74.778 229.459 74.5883C229.494 74.3986 229.545 74.2304 229.609 74.0953C229.718 73.808 229.867 73.6365 230.025 73.6158C230.144 73.6436 230.259 73.733 230.363 73.8783C230.467 74.0235 230.558 74.2215 230.63 74.4597C230.777 75.0658 230.984 75.5652 231.231 75.9084C231.478 76.2516 231.757 76.4266 232.039 76.4161C232.27 76.4297 232.5 76.3263 232.714 76.1121C232.929 75.8979 233.124 75.5773 233.288 75.1695C233.454 74.7754 233.585 74.2989 233.673 73.7705C233.761 73.2421 233.804 72.6733 233.8 72.1005V57.3166C233.799 57.1008 233.816 56.8868 233.851 56.6892C233.885 56.4916 233.936 56.3148 234 56.1706C234.125 55.8611 234.294 55.6887 234.47 55.6911C234.558 55.6803 234.645 55.7152 234.728 55.7936C234.81 55.872 234.884 55.9922 234.947 56.1466C235.007 56.299 235.054 56.4805 235.085 56.68C235.117 56.8795 235.131 57.0928 235.129 57.307V72.1243C235.134 73.4524 234.994 74.7588 234.726 75.9029C234.46 77.0431 234.077 77.9848 233.618 78.6314C233.137 79.3157 232.592 79.6665 232.039 79.648C231.527 79.6616 231.023 79.3358 230.577 78.7034V78.7034ZM239.81 78.9527C239.278 78.4453 238.79 77.685 238.373 76.7133C238.288 76.5495 238.218 76.34 238.17 76.1002C238.121 75.8605 238.095 75.5964 238.092 75.3275C238.093 75.1224 238.11 74.9199 238.143 74.7321C238.176 74.5443 238.224 74.375 238.283 74.2342C238.339 74.0813 238.408 73.9598 238.484 73.8772C238.561 73.7946 238.643 73.7529 238.726 73.7546C238.867 73.7498 239.004 73.8821 239.108 74.1239C239.43 74.8972 239.805 75.5192 240.215 75.9605C240.627 76.3721 241.068 76.5742 241.512 76.5551C242.017 76.5952 242.515 76.2527 242.942 75.572C243.116 75.3259 243.262 74.9693 243.364 74.5377C243.467 74.1061 243.523 73.6146 243.526 73.1121C243.529 72.5719 243.477 72.0387 243.375 71.5635C243.273 71.0882 243.124 70.6869 242.942 70.398C242.406 69.6071 241.817 69.0646 241.204 68.7964C240.427 68.4837 239.694 67.682 239.074 66.4659C238.823 65.9069 238.627 65.2136 238.498 64.4374C238.369 63.6612 238.311 62.8222 238.329 61.9824C238.318 60.729 238.465 59.4992 238.749 58.4675C239.037 57.4434 239.434 56.6428 239.895 56.1562C240.421 55.5984 240.988 55.3224 241.56 55.3459C242.095 55.3373 242.627 55.5662 243.131 56.0219C243.575 56.3984 243.983 57.0082 244.326 57.8106C244.417 57.9783 244.491 58.1943 244.545 58.4429C244.598 58.6916 244.629 58.9669 244.635 59.2491C244.635 59.4503 244.619 59.6494 244.588 59.8347C244.557 60.02 244.511 60.1878 244.454 60.3281C244.399 60.4822 244.332 60.6048 244.256 60.6876C244.181 60.7703 244.099 60.8113 244.017 60.8076C243.904 60.8183 243.794 60.7204 243.709 60.5339C243.431 59.8777 243.101 59.3732 242.741 59.0522C242.368 58.6747 241.971 58.4763 241.569 58.4672C241.066 58.4022 240.566 58.727 240.139 59.3977C239.975 59.6697 239.841 60.0391 239.748 60.4729C239.656 60.9068 239.607 61.3915 239.607 61.884C239.607 62.3764 239.656 62.8612 239.748 63.295C239.841 63.7289 239.975 64.0983 240.139 64.3703C240.628 65.0868 241.162 65.5896 241.718 65.8573C242.308 66.1492 242.885 66.601 243.436 67.2048C243.853 67.6672 244.209 68.4151 244.464 69.3626C244.722 70.4518 244.847 71.7071 244.824 72.9734C244.832 74.2181 244.679 75.4357 244.389 76.4452C244.084 77.486 243.673 78.3024 243.199 78.8092C242.679 79.3812 242.116 79.6689 241.548 79.6531C240.957 79.6806 240.368 79.4434 239.81 78.9527V78.9527Z" fill="#00C391"/>
<path id="path12" d="M170.571 79.0295C170.557 78.969 170.545 78.9066 170.534 78.8424C170.461 78.4169 170.439 77.9472 170.47 77.4902H166.137L172.576 49.0354L174.689 58.3669L175.302 55.6432L173.46 47.4913C173.371 47.0737 173.243 46.7184 173.086 46.4579C172.929 46.1974 172.748 46.04 172.56 46C172.373 46.0215 172.192 46.1745 172.038 46.4415C171.884 46.7085 171.762 47.0789 171.688 47.5105L165.165 76.3106C165.068 76.7172 165.012 77.1778 165.002 77.6519C164.992 78.1259 165.028 78.5989 165.108 79.0291C165.208 79.4263 165.351 79.7451 165.52 79.9494C165.688 80.1537 165.877 80.2353 166.063 80.1851H171.525C171.339 80.2361 171.151 80.1549 170.982 79.9506C170.813 79.7463 170.671 79.4271 170.571 79.0295V79.0295Z" fill="#00C492"/>
<path id="path14" d="M183.13 76.3107L177.771 52.5983C177.683 52.1763 177.554 51.8167 177.396 51.5527C177.238 51.2887 177.056 51.1289 176.867 51.0879C176.68 51.1081 176.499 51.2601 176.345 51.5263C176.191 51.7925 176.069 52.1624 175.995 52.5936L175.302 55.6434L175.918 58.367L176.873 54.1233L182.175 77.4903H180.159C180.185 77.8766 180.171 78.2731 180.117 78.6411C180.106 78.7224 180.092 78.8011 180.075 78.8761L180.058 78.9624C179.948 79.351 179.802 79.6657 179.633 79.879C179.463 80.0922 179.276 80.1972 179.086 80.1849H182.24C182.43 80.1977 182.618 80.0928 182.787 79.8796C182.957 79.6663 183.103 79.3513 183.212 78.9624C183.299 78.5454 183.337 78.0758 183.322 77.6071C183.308 77.1384 183.241 76.6892 183.13 76.3107Z" fill="#008776"/>
<path id="path16" d="M180.059 78.9622L180.076 78.8759C180.093 78.8008 180.107 78.7222 180.118 78.6409C180.171 78.2728 180.186 77.8763 180.16 77.4901C180.13 77.0734 180.071 76.6737 179.984 76.3104L175.923 58.3667L175.303 55.6431L174.686 58.3667L170.627 76.3109C170.548 76.6786 170.495 77.0776 170.47 77.4905C170.438 77.9462 170.458 78.4158 170.529 78.8427C170.54 78.9069 170.552 78.9694 170.566 79.0298C170.666 79.4269 170.809 79.7456 170.977 79.9498C171.146 80.1541 171.334 80.2357 171.52 80.1854H179.081C179.272 80.1995 179.461 80.0951 179.631 79.8817C179.802 79.6683 179.949 79.3525 180.059 78.9622V78.9622ZM175.303 61.0904L179.014 77.4901H171.593L175.303 61.0904Z" fill="#2D4A5D"/>
</g>
</g>
</g>
</svg>
