<svg width="352" height="211" viewBox="0 0 352 211" fill="none" xmlns="http://www.w3.org/2000/svg">
<g id="javascript">
<g id="vuejs">
<path id="path893" fill-rule="evenodd" clip-rule="evenodd" d="M80.2792 117.052H84.1454L74.3829 147.985L64.5562 117.052H68.5104L74.3829 135.674L80.2792 117.052Z" fill="#41B883"/>
<path id="path895" fill-rule="evenodd" clip-rule="evenodd" d="M76.6252 117.045H80.3023L74.3776 135.707L68.5005 117.045H72.1202L74.3776 124.229L76.6252 117.045Z" fill="#35495E"/>
<path id="path897" fill-rule="evenodd" clip-rule="evenodd" d="M86.4526 123.152C86.4526 122.924 86.5215 122.734 86.6593 122.581C86.7971 122.429 86.9412 122.353 87.0915 122.353C87.3002 122.353 87.4297 122.498 87.4798 122.787L89.6844 136.342L91.8764 122.787C91.9349 122.498 92.0602 122.353 92.2522 122.353C92.4109 122.353 92.5591 122.437 92.6969 122.604C92.8347 122.772 92.9036 122.962 92.9036 123.175C92.9036 123.19 92.9015 123.213 92.8973 123.243C92.8931 123.274 92.891 123.304 92.891 123.335L90.3483 138.51C90.2564 138.951 90.0351 139.172 89.6844 139.172C89.3337 139.172 89.1207 138.951 89.0456 138.51L86.4778 123.335C86.4611 123.243 86.4528 123.182 86.4528 123.152H86.4526ZM93.0023 134.836V128.903C93.0023 128.72 93.0545 128.56 93.1589 128.423C93.2632 128.286 93.3864 128.218 93.5284 128.218C93.662 128.218 93.781 128.29 93.8854 128.435C93.9898 128.579 94.042 128.735 94.042 128.903V134.836C94.042 135.52 94.1839 136.136 94.4678 136.684C94.7518 137.232 95.09 137.506 95.4825 137.506C95.8666 137.506 96.2006 137.236 96.4845 136.696C96.7685 136.155 96.9104 135.536 96.9104 134.836V128.879C96.9104 128.712 96.9626 128.56 97.067 128.423C97.1714 128.286 97.2946 128.218 97.4365 128.218C97.5869 128.218 97.71 128.282 97.8061 128.412C97.9021 128.541 97.9501 128.697 97.9501 128.879V134.836C97.9501 136.007 97.7058 137.03 97.2173 137.905C96.7288 138.78 96.1505 139.217 95.4825 139.217C94.8061 139.217 94.2236 138.78 93.7351 137.905C93.2466 137.03 93.0023 136.007 93.0023 134.836H93.0023ZM98.8002 134.79V132.394C98.8002 131.223 99.0445 130.211 99.533 129.359C100.021 128.507 100.608 128.081 101.293 128.081C101.944 128.081 102.508 128.48 102.984 129.279C103.46 130.078 103.698 131.078 103.698 132.28C103.698 132.721 103.669 133.075 103.61 133.341C103.552 133.607 103.462 133.797 103.341 133.912C103.22 134.026 103.107 134.098 103.003 134.128C102.898 134.159 102.758 134.174 102.583 134.174H99.8398V134.859C99.8398 135.695 100.005 136.365 100.335 136.867C100.664 137.369 101.092 137.62 101.619 137.62C101.894 137.62 102.134 137.544 102.339 137.392C102.543 137.239 102.708 137.091 102.834 136.947C102.959 136.802 103.059 136.73 103.134 136.73C103.251 136.73 103.351 136.825 103.435 137.015C103.518 137.205 103.56 137.399 103.56 137.597C103.56 137.947 103.37 138.304 102.99 138.67C102.61 139.035 102.14 139.217 101.581 139.217C100.763 139.217 100.095 138.81 99.5768 137.996C99.059 137.182 98.8001 136.114 98.8001 134.79L98.8002 134.79ZM99.8398 132.896H102.157C102.374 132.896 102.52 132.847 102.596 132.748C102.671 132.649 102.708 132.455 102.708 132.166C102.708 131.481 102.571 130.88 102.295 130.363C102.019 129.846 101.681 129.587 101.28 129.587C100.888 129.587 100.55 129.827 100.266 130.306C99.9818 130.785 99.8399 131.375 99.8399 132.074L99.8398 132.896ZM104.222 137.985C104.222 137.65 104.285 137.365 104.41 137.129C104.536 136.893 104.69 136.775 104.874 136.775C105.049 136.775 105.199 136.893 105.325 137.129C105.45 137.365 105.513 137.65 105.513 137.985C105.513 138.304 105.45 138.582 105.325 138.818C105.199 139.054 105.049 139.171 104.874 139.171C104.69 139.171 104.536 139.054 104.41 138.818C104.285 138.582 104.222 138.304 104.222 137.985ZM105.148 143.439C105.148 143.195 105.19 142.994 105.273 142.834C105.357 142.674 105.457 142.595 105.574 142.595C105.899 142.595 106.112 142.374 106.213 141.933C106.313 141.492 106.363 140.83 106.363 139.947V128.88C106.363 128.682 106.411 128.522 106.507 128.4C106.603 128.279 106.726 128.218 106.876 128.218C107.027 128.218 107.152 128.279 107.252 128.4C107.352 128.522 107.403 128.682 107.403 128.88V139.947C107.403 141.271 107.261 142.321 106.977 143.097C106.693 143.872 106.263 144.26 105.686 144.26C105.327 144.26 105.148 143.987 105.148 143.439L105.148 143.439ZM106.225 124.156C106.225 123.867 106.288 123.616 106.413 123.403C106.538 123.19 106.693 123.083 106.876 123.083C107.052 123.083 107.202 123.19 107.327 123.403C107.453 123.616 107.515 123.867 107.515 124.156C107.515 124.445 107.453 124.7 107.327 124.92C107.202 125.141 107.052 125.251 106.876 125.251C106.701 125.251 106.549 125.141 106.419 124.92C106.29 124.7 106.225 124.445 106.225 124.156H106.225ZM108.178 137.483C108.178 137.285 108.213 137.091 108.284 136.901C108.355 136.711 108.441 136.615 108.541 136.615C108.608 136.615 108.704 136.707 108.829 136.889C108.954 137.072 109.134 137.251 109.368 137.426C109.601 137.601 109.877 137.688 110.194 137.688C110.612 137.688 110.914 137.551 111.102 137.277C111.29 137.003 111.384 136.661 111.384 136.25C111.384 135.748 111.28 135.349 111.071 135.052C110.862 134.756 110.608 134.531 110.307 134.379C110.006 134.227 109.706 134.06 109.405 133.877C109.104 133.694 108.85 133.39 108.641 132.964C108.432 132.538 108.328 131.975 108.328 131.276C108.328 130.408 108.497 129.659 108.835 129.028C109.173 128.396 109.689 128.081 110.382 128.081C110.825 128.081 111.23 128.206 111.597 128.457C111.965 128.708 112.148 128.994 112.148 129.313C112.148 129.496 112.109 129.701 112.029 129.929C111.95 130.157 111.852 130.271 111.735 130.271C111.701 130.271 111.541 130.161 111.253 129.941C110.965 129.72 110.679 129.61 110.395 129.61C110.01 129.61 109.724 129.773 109.537 130.1C109.349 130.427 109.255 130.796 109.255 131.207C109.255 131.633 109.359 131.968 109.568 132.211C109.777 132.455 110.033 132.645 110.338 132.782C110.643 132.919 110.946 133.086 111.246 133.284C111.547 133.482 111.802 133.82 112.01 134.299C112.219 134.778 112.324 135.398 112.324 136.159C112.324 137.102 112.14 137.848 111.773 138.395C111.405 138.943 110.892 139.217 110.232 139.217C109.664 139.217 109.18 139.031 108.779 138.658C108.378 138.285 108.178 137.893 108.178 137.483L108.178 137.483Z" fill="#010101"/>
</g>
<g id="jslogo">
<path id="Vector" d="M63.1973 154.468H110.085V211H63.1973V154.468Z" fill="#F7DF1E"/>
<path id="Vector_2" d="M75.527 201.71L79.1151 199.091C79.8074 200.571 80.4371 201.823 81.9476 201.823C83.3955 201.823 84.3085 201.14 84.3085 198.484V180.421H88.7147V198.559C88.7147 204.062 86.0395 206.566 82.1364 206.566C78.6116 206.566 76.5655 204.365 75.5269 201.709L75.527 201.71ZM91.108 201.14L94.6957 198.636C95.6402 200.495 96.8678 201.861 99.0393 201.861C100.865 201.861 102.029 200.761 102.029 199.243C102.029 197.422 100.833 196.776 98.8189 195.714L97.7176 195.144C94.5386 193.513 92.4299 191.464 92.4299 187.138C92.4299 183.153 94.9477 180.117 98.8821 180.117C101.683 180.117 103.698 181.294 105.145 184.367L101.714 187.024C100.959 185.392 100.141 184.747 98.8819 184.747C97.5914 184.747 96.7731 185.734 96.7731 187.024C96.7731 188.618 97.5914 189.263 99.4798 190.25L100.581 190.819C104.327 192.755 106.436 194.728 106.436 199.167C106.436 203.949 103.32 206.567 99.1336 206.567C95.0421 206.567 92.3982 204.214 91.1078 201.14" fill="black"/>
</g>
<g id="jquery">
<g id="Group">
<path id="Vector_3" d="M85.7042 38.501L85.3672 40.416L85.7042 38.5002V38.501ZM87.4373 42.6606L87.0661 42.657L87.4373 42.6606ZM87.346 45.5221L85.1216 45.5353L87.346 45.5221ZM87.8117 42.665L87.44 42.6614L87.8117 42.665ZM87.5414 45.2804L87.9295 42.909L87.5414 45.2804ZM95.7323 34.3647L95.0109 39.8101L95.7323 34.3647ZM93.8768 34.3574L93.3289 38.4255L93.8768 34.3574Z" fill="#131B28"/>
<path id="Vector_4" d="M95.604 34.1135H94.0608C93.9749 34.1135 93.89 34.2234 93.8717 34.3582L92.776 42.4951C92.7577 42.6292 92.6728 42.7391 92.5874 42.7391H91.4948C90.4137 42.7391 90.5388 41.5398 90.7643 39.8966L90.7712 39.8468L90.9022 38.7259L90.9588 38.2644L91.4574 34.3582C91.4747 34.2234 91.4186 34.1128 91.3327 34.1128H89.7484C89.7048 34.1152 89.6628 34.1404 89.6288 34.1845C89.5949 34.2287 89.5708 34.2894 89.5603 34.3575L88.8376 39.7889C88.4449 42.6636 88.549 45.405 90.6821 45.4907H94.0913C94.1772 45.4907 94.2617 45.3808 94.2799 45.246L95.7236 34.3553C95.7419 34.2205 95.6857 34.1106 95.6003 34.1106L95.604 34.1135ZM101.759 42.7676C101.844 42.7676 101.896 42.8775 101.883 43.0123L101.733 44.1881L101.759 42.7676ZM101.587 45.3639L101.737 44.1874L101.587 45.3639ZM101.405 45.6116L98.5603 45.6335L101.405 45.6116Z" fill="#131B28"/>
<path id="Vector_5" d="M97.636 41.2533C97.6347 41.1243 97.726 40.9031 97.8118 40.9031L97.6191 40.8979C97.5278 42.3001 97.636 41.2533 97.636 41.2533V41.2533ZM98.6976 45.632H98.6679H98.6976ZM101.76 42.7748C101.846 42.7748 101.897 42.8847 101.885 43.0195L101.715 44.3792L101.76 42.7748ZM99.4281 45.6298H99.4217H99.4281ZM99.0491 45.632H99.0272H99.0491ZM98.9341 45.632H98.8975H98.9341ZM98.8163 45.632H98.7843H98.8163ZM99.0272 45.632H98.9336H99.0272Z" fill="#131B28"/>
<path id="Vector_6" d="M99.4216 45.6299L99.049 45.6321L99.4216 45.6299ZM101.402 45.6101L99.4271 45.6291L101.402 45.6101ZM101.584 45.3647L101.71 44.3801L101.584 45.3654V45.3647ZM98.8924 45.6321H98.8111H98.8924ZM98.6618 45.6335H98.5523H98.6618ZM98.7778 45.6321H98.6865H98.7778ZM76.1967 41.2827L76.4364 39.5772L76.1625 41.5259L76.1305 41.7706L76.1972 41.2812L76.1967 41.2827ZM79.0676 34.085H77.3724C77.3286 34.0877 77.2865 34.1129 77.2522 34.1568C77.218 34.2007 77.1934 34.261 77.182 34.3289L76.8606 36.5999C76.8552 36.6293 76.8543 36.6604 76.8579 36.6905C76.8616 36.7205 76.8698 36.7488 76.8817 36.7727C76.8936 36.7966 76.9089 36.8156 76.9264 36.828C76.9439 36.8404 76.963 36.8459 76.982 36.8439H78.6905C78.7763 36.8439 78.8613 36.734 78.8795 36.5999L79.19 34.3238C79.2083 34.1897 79.1535 34.0798 79.0667 34.0798L79.0676 34.085ZM78.7024 37.8725L78.2001 41.5633L78.7024 37.8725ZM73.7778 50.1009L75.1758 50.1185C74.7631 50.1185 74.0814 50.106 73.7773 50.1002L73.7778 50.1009Z" fill="#131B28"/>
<path id="Vector_7" d="M76.6807 37.8719L76.4405 39.5773L76.6807 37.8719ZM78.58 37.6272H76.8756C76.8318 37.6299 76.7897 37.6551 76.7555 37.699C76.7212 37.7429 76.6966 37.8032 76.6852 37.8711L76.2058 41.2821L76.1392 41.7715L75.6826 45.2535C75.66 45.4159 75.6326 45.5765 75.6004 45.7348C75.6004 45.7348 75.2808 47.2586 74.7448 47.2417L74.2129 47.2256C74.1693 47.2276 74.1272 47.2518 74.0927 47.2947C74.0582 47.3377 74.0332 47.3971 74.0211 47.4644L73.6668 49.8541C73.6613 49.8834 73.6601 49.9143 73.6636 49.9444C73.667 49.9744 73.6749 50.0027 73.6866 50.0269C73.6983 50.051 73.7134 50.0703 73.7307 50.0831C73.748 50.0958 73.767 50.1018 73.786 50.1003L75.1845 50.1186C76.525 50.1186 77.2313 48.9267 77.6847 45.4982L78.712 37.8792C78.7302 37.7451 78.6745 37.6352 78.5887 37.6352L78.58 37.6272ZM102.851 45.493C102.766 45.493 102.714 45.3831 102.728 45.2483L104.014 35.5884L102.851 45.493ZM104.638 45.2483L105.158 41.1253L104.638 45.2483Z" fill="#131B28"/>
<path id="Vector_8" d="M102.747 45.3713C102.737 45.3039 102.743 45.139 102.761 45.005L103.371 40.4189L102.728 45.2489C102.71 45.3837 102.766 45.4936 102.851 45.4936H103.008C102.922 45.4936 102.757 45.4387 102.747 45.3713V45.3713ZM104.537 45.4387C104.49 45.468 104.382 45.4936 104.296 45.4936H104.452C104.496 45.4908 104.537 45.4654 104.571 45.4211C104.605 45.3769 104.629 45.3162 104.639 45.2482L104.67 45.0035C104.653 45.1383 104.579 45.4086 104.533 45.4387H104.537ZM104.899 43.1867L105.128 41.3669L104.899 43.1867ZM109.97 36.2358L110.041 36.7047C110.061 36.8388 110.006 36.9479 109.921 36.9487" fill="#131B28"/>
<path id="Vector_9" d="M104.67 45.0034L104.898 43.1866L104.67 45.0034ZM109.9 35.7545L109.969 36.2351L109.9 35.7545ZM105.128 41.3683L105.191 40.8819L105.437 39.0394L105.159 41.1258L105.128 41.3676V41.3683ZM104.035 35.4299L103.982 35.8329L103.372 40.4189L104.014 35.5889L104.035 35.4307V35.4299Z" fill="#131B28"/>
<path id="Vector_10" d="M110.042 36.7047L109.971 36.2358L109.866 35.5032C109.728 34.6388 109.32 34.1384 108.436 34.1384L104.363 34.134C104.319 34.1364 104.277 34.1616 104.243 34.2058C104.209 34.2499 104.185 34.3106 104.175 34.3787L104.112 34.8571L104.02 35.5802L102.768 44.9962C102.749 45.131 102.743 45.2892 102.754 45.3625C102.764 45.4357 102.929 45.4848 103.014 45.4848H104.302C104.388 45.4848 104.496 45.4599 104.543 45.4298C104.59 45.3998 104.659 45.1368 104.68 44.9947L105.168 41.1163L105.691 37.1867C105.709 37.0527 105.794 36.9435 105.879 36.9428L109.93 36.9398C110.016 36.9398 110.07 36.83 110.05 36.6959L110.042 36.7047ZM115.257 32.46L114.945 32.4622H113.649C113.601 32.4668 113.555 32.4876 113.513 32.5232C113.471 32.5588 113.434 32.6085 113.405 32.6688L110.538 39.4087C110.489 39.5222 110.434 39.5054 110.414 39.372L110.203 37.8871C110.192 37.8191 110.167 37.7588 110.133 37.7149C110.099 37.671 110.057 37.6459 110.013 37.6431H108.17C108.084 37.6431 108.033 37.7508 108.057 37.8834L108.878 42.5266C108.902 42.6585 108.904 42.876 108.883 43.0101L108.518 45.257C108.511 45.2858 108.51 45.3166 108.513 45.3467C108.516 45.3768 108.524 45.4052 108.535 45.4293C108.547 45.4533 108.562 45.4724 108.58 45.4846C108.597 45.4969 108.616 45.502 108.635 45.4994H110.461C110.547 45.4994 110.635 45.3896 110.656 45.2577L111.021 43.0108C111.05 42.8526 111.094 42.7031 111.154 42.5683L115.809 32.6549C115.86 32.545 115.832 32.4556 115.747 32.4571L115.258 32.4622L115.257 32.46ZM100.612 38.2754C100.601 38.4219 100.515 38.5318 100.43 38.5318H98.0919C98.0111 38.5318 97.97 38.4439 97.9823 38.334L97.9842 38.3142L97.9947 38.2504C98.2229 37.2981 98.6727 36.6732 99.5269 36.6732C100.489 36.6732 100.677 37.4277 100.611 38.2754H100.612ZM99.9273 33.9472C96.9277 33.9472 96.2168 36.8688 95.8182 39.8175C95.4191 42.8233 95.4538 45.6342 98.5576 45.6342H99.0498L99.4288 45.632L101.404 45.613C101.447 45.6098 101.489 45.5841 101.522 45.5399C101.556 45.4956 101.579 45.4352 101.59 45.3676L101.89 43.0145C101.907 42.8797 101.851 42.7698 101.765 42.7698H98.9749C97.8655 42.7698 97.5353 42.2966 97.6568 40.9054H102.118C102.191 40.9032 102.257 40.8321 102.283 40.7207C102.287 40.701 102.292 40.6797 102.294 40.6585C102.956 36.6512 102.766 33.9501 99.9287 33.9501L99.9273 33.9472ZM85.7481 38.26L85.706 38.4995C85.706 38.5003 85.3691 40.416 85.3691 40.416L85.0321 42.331C85.0181 42.3985 84.9917 42.4576 84.9563 42.5005C84.921 42.5434 84.8783 42.5681 84.834 42.5713H83.0511C81.6987 42.5713 81.3695 40.8739 81.6987 38.3706C82.0275 35.8102 82.6735 34.2183 84.0044 34.0571C85.8234 33.8373 86.1868 35.89 85.7485 38.2592L85.7481 38.26ZM86.9707 42.4248C86.9707 42.4248 87.8108 39.1501 88.0026 37.2578C88.2628 34.7252 87.473 31.0527 84.4208 31.0527C81.386 31.0527 80.0683 34.5589 79.5656 38.3787C79.0634 42.2174 79.7218 45.5844 82.7388 45.5581L87.3438 45.5309C87.3879 45.5276 87.4303 45.5024 87.4652 45.4588C87.5001 45.4153 87.5258 45.3555 87.5387 45.2877L87.9268 42.9156C87.9331 42.8869 87.9348 42.8561 87.9318 42.826C87.9288 42.796 87.9212 42.7676 87.9096 42.7434C87.8981 42.7193 87.8829 42.7001 87.8656 42.6877C87.8483 42.6753 87.8293 42.67 87.8104 42.6724H87.0675C86.9945 42.6716 86.9534 42.5962 86.9616 42.4966C86.963 42.4782 86.9662 42.4599 86.9707 42.4409V42.4248Z" fill="#131B28"/>
<path id="Vector_11" d="M101.992 40.2329C101.992 40.3238 101.946 40.397 101.889 40.397C101.833 40.397 101.787 40.3238 101.787 40.2329C101.787 40.1421 101.833 40.0688 101.889 40.0688C101.946 40.0688 101.992 40.1421 101.992 40.2329Z" fill="#131B28"/>
</g>
<path id="Vector_12" d="M63.7983 35.9747C62.9605 37.9073 63.0646 40.4215 63.7047 42.4742L63.7517 42.6208L63.7819 42.7131L63.8001 42.7665L63.8334 42.8618L63.8946 43.0303L63.9293 43.1226L64.0001 43.3006L64.0302 43.3753L64.133 43.6134L64.153 43.6574L64.2466 43.8574L64.2818 43.9292L64.3731 44.0999L64.406 44.1636L64.5265 44.3848L64.5338 44.3973L64.6562 44.6046L64.6955 44.6683L64.7932 44.8149L64.8333 44.8757L64.9671 45.0713L64.9927 45.1057L65.1146 45.2705L65.1602 45.335L65.2616 45.4625L65.3164 45.5357L65.4305 45.6676L65.4835 45.7277L65.594 45.8449L65.6419 45.8962L65.8154 46.0661L65.8634 46.1101L65.9935 46.2273L66.0656 46.2859L66.1588 46.3636L66.1802 46.3804L66.2181 46.4097L66.3656 46.5196L66.3966 46.5416L66.5688 46.6559L66.6108 46.6822L66.7729 46.7789L66.7934 46.7907L66.9742 46.8859L67.018 46.9064L67.2007 46.9914C71.2527 48.1782 72.4298 43.0838 72.4298 43.0838C71.4413 45.1497 69.6903 45.6954 68.0239 45.0889C67.9609 45.0669 67.8997 45.0346 67.8385 45.0053L67.7928 44.9834C67.7332 44.9539 67.6738 44.9229 67.6148 44.8903L67.5901 44.8757C67.5372 44.8464 67.4851 44.8141 67.4326 44.7819L67.3883 44.7541C67.3311 44.7179 67.2743 44.68 67.218 44.6405L67.1842 44.6163L67.0409 44.5094L66.9952 44.4771C66.9578 44.4478 66.9212 44.4171 66.8843 44.3863L66.8103 44.324C66.7656 44.2855 66.7213 44.2457 66.6774 44.2046L66.6327 44.1643C66.5743 44.1091 66.5165 44.0524 66.4592 43.9944C66.4432 43.9782 66.4281 43.9607 66.4126 43.9445L66.2893 43.8127C66.2756 43.798 66.2629 43.7834 66.2496 43.7687L66.1332 43.6332L66.0816 43.5709L65.9766 43.4391L65.9296 43.379L65.7985 43.2017C65.794 43.1944 65.7894 43.1892 65.7848 43.1826C65.7383 43.1094 65.6926 43.0493 65.6469 42.9819L65.6081 42.9218L65.5091 42.7665L65.4703 42.7043C65.429 42.6368 65.3886 42.5681 65.3488 42.4984C65.3049 42.4214 65.2618 42.3433 65.2196 42.264L65.1876 42.2024L65.0991 42.0266L65.0671 41.9534L64.9648 41.735C64.0462 39.719 63.7143 36.9322 64.4571 34.6436L63.7983 35.9747ZM66.4035 34.3469C65.7976 35.7388 65.8305 37.6193 66.303 39.0984C66.3822 39.3472 66.4717 39.5871 66.571 39.8164C66.6624 40.0252 66.7628 40.2735 66.8829 40.4413L67.0189 40.6611L67.0546 40.7175L67.1934 40.9248L67.2002 40.9343L67.3623 41.1497L67.3988 41.1959L67.5687 41.3937L67.6874 41.5204L67.8129 41.6449L67.8312 41.6618L67.9426 41.7614L67.9823 41.7944L68.0599 41.8589L68.0718 41.8676L68.2339 41.9893L68.2695 42.0127L68.4065 42.0991L68.4635 42.1328L68.5854 42.201L68.6402 42.2303C68.6987 42.2596 68.7562 42.3035 68.8169 42.3123C71.9458 43.1438 72.6681 39.2794 72.6681 39.2794C72.017 40.7841 70.756 41.5021 69.4105 40.9424L69.2333 40.8603L69.1799 40.8325L69.0566 40.7636L69.0005 40.7299L68.8671 40.6435L68.8306 40.6193L68.6676 40.4977L68.5854 40.4244L68.5384 40.3856L68.4106 40.2684L68.285 40.1453L68.1663 40.0186L67.9974 39.8208L67.9595 39.7724C67.3659 39.0267 66.9034 38.0142 66.6811 36.8509C66.4528 35.6516 66.4985 34.3058 66.9016 33.2135L66.4035 34.3469ZM68.5864 33.1308C68.2293 33.9732 68.1937 35.0208 68.4421 35.9534C68.7032 36.9424 69.2393 37.7117 69.8643 38.0779L69.9419 38.1219L69.9762 38.1395L70.0876 38.1908C71.8152 38.7256 72.2791 36.7681 72.4083 36.4802C71.9974 37.4281 71.3125 37.656 70.4615 37.3263C70.3922 37.2969 70.3237 37.2632 70.256 37.2252C70.1732 37.1781 70.092 37.1241 70.0127 37.0633C69.8623 36.9472 69.7194 36.8073 69.5862 36.6457C68.8283 35.7227 68.3535 33.9644 68.8525 32.5322" fill="#0868AC"/>
</g>
<g id="nuxt">
<g id="Calque 1-2">
<path id="path8" d="M84.3876 73.4741C84.419 73.5661 84.4435 73.6749 84.4597 73.794C84.4759 73.9131 84.4835 74.0401 84.482 74.1676V87.4992C84.4833 87.6406 84.4746 87.7812 84.4565 87.9131C84.4384 88.045 84.4112 88.1655 84.3765 88.2677C84.3418 88.37 84.2999 88.4507 84.2534 88.5045C84.2069 88.5584 84.1569 88.5841 84.1067 88.5801C84.0497 88.5803 83.9931 88.555 83.939 88.5051C83.8894 88.4621 83.8449 88.3822 83.8102 88.2739L80.7401 77.0288V87.6148C80.7428 87.8632 80.7103 88.1045 80.6498 88.2855C80.5892 88.4665 80.5056 88.5725 80.4173 88.5801C80.4106 88.5806 80.4038 88.5806 80.397 88.5801C80.3521 88.5849 80.3073 88.5629 80.2655 88.5155C80.2238 88.4681 80.1861 88.3965 80.155 88.3052C80.1239 88.2132 80.0997 88.1049 80.0837 87.9863C80.0677 87.8678 80.0602 87.7415 80.0617 87.6148V74.255C80.0606 74.1142 80.0699 73.9743 80.089 73.8442C80.1081 73.714 80.1366 73.5965 80.1727 73.4991C80.2066 73.4015 80.2472 73.3247 80.2921 73.2736C80.337 73.2225 80.3852 73.1982 80.4337 73.2023C80.4953 73.2015 80.5564 73.2344 80.6135 73.2992C80.6656 73.3558 80.7112 73.4507 80.7457 73.574L83.8024 84.8442V74.1676C83.8011 74.0445 83.8084 73.922 83.8239 73.8069C83.8394 73.6918 83.8628 73.5864 83.8928 73.4968C83.9228 73.4072 83.9587 73.335 83.9986 73.2845C84.0385 73.234 84.0815 73.206 84.1253 73.2023C84.132 73.2018 84.1388 73.2018 84.1456 73.2023C84.1904 73.1977 84.2351 73.2194 84.2768 73.2662C84.3185 73.313 84.3562 73.3838 84.3876 73.4741H84.3876ZM90.6943 73.4741C90.7607 73.6817 90.7957 73.954 90.792 74.2331V82.667C90.7984 83.7571 90.7043 84.8332 90.5189 85.7906C90.3433 86.6939 90.0824 87.443 89.7649 87.9553C89.436 88.4862 89.0626 88.7602 88.6834 88.7487C88.3008 88.7657 87.9235 88.4973 87.5898 87.9709C87.2709 87.4608 87.0087 86.7113 86.8325 85.8063C86.6471 84.8489 86.553 83.7727 86.5593 82.6826V74.2487C86.5579 74.1074 86.5671 73.9668 86.5862 73.836C86.6053 73.7052 86.634 73.5872 86.6704 73.4897C86.7075 73.3876 86.7514 73.3075 86.7997 73.2538C86.8479 73.2002 86.8995 73.1742 86.9513 73.1773C87.0002 73.1775 87.0486 73.2052 87.0936 73.2588C87.1385 73.3125 87.1793 73.391 87.2133 73.4897C87.2493 73.5855 87.2777 73.7014 87.2968 73.8299C87.316 73.9585 87.3253 74.0969 87.3243 74.2363V82.6701C87.3203 83.3901 87.3851 84.1 87.512 84.7254C87.6295 85.3082 87.7998 85.793 88.0055 86.1305C88.2113 86.4679 88.4452 86.646 88.6834 86.6465C88.9268 86.6514 89.1664 86.4769 89.3784 86.1405C89.5923 85.8079 89.7703 85.319 89.8936 84.7254C90.0225 84.1019 90.0886 83.3913 90.0846 82.6701V74.2363C90.081 73.9594 90.1143 73.6887 90.1779 73.4772C90.2103 73.3752 90.2502 73.2943 90.2949 73.2404C90.3396 73.1864 90.388 73.1606 90.4366 73.1649C90.4849 73.1617 90.5328 73.1876 90.5773 73.2409C90.6217 73.2942 90.6616 73.3737 90.6942 73.4739L90.6943 73.4741ZM96.7045 86.9993C96.7514 87.1806 96.7759 87.3999 96.7745 87.624C96.7765 87.7637 96.7676 87.903 96.7484 88.032C96.7293 88.161 96.7002 88.2766 96.6635 88.3706C96.5947 88.5533 96.5037 88.655 96.4092 88.6548C96.3494 88.6612 96.2901 88.6243 96.2368 88.5477C96.1836 88.4712 96.1382 88.3575 96.105 88.2175L94.5872 82.5169L93.1038 88.2081C93.0709 88.3505 93.0258 88.4672 92.9726 88.5475C92.9195 88.6277 92.8599 88.669 92.7996 88.6673C92.7552 88.67 92.7111 88.647 92.6701 88.5998C92.629 88.5525 92.5919 88.4819 92.5609 88.3925C92.5302 88.3129 92.5057 88.2163 92.4889 88.1088C92.4721 88.0013 92.4633 87.8852 92.4632 87.7677C92.4649 87.5032 92.4982 87.248 92.5576 87.043L94.1587 80.9113L92.5499 74.8265C92.4996 74.6487 92.4719 74.4288 92.471 74.2017C92.47 74.0624 92.4794 73.924 92.4985 73.7954C92.5176 73.6668 92.5461 73.5509 92.5821 73.4552C92.6161 73.3565 92.6568 73.278 92.7018 73.2243C92.7468 73.1707 92.7951 73.143 92.844 73.1428C92.9022 73.1436 92.9596 73.1821 93.0117 73.2553C93.0667 73.3287 93.1138 73.4418 93.1482 73.5832L94.6483 79.2524L96.1339 73.6392C96.1663 73.4984 96.21 73.3812 96.2615 73.297C96.313 73.2129 96.3709 73.1642 96.4304 73.1551C96.477 73.1558 96.523 73.1839 96.5654 73.2377C96.6079 73.2915 96.6458 73.3698 96.6769 73.4674C96.7106 73.5522 96.7379 73.6555 96.757 73.771C96.7761 73.8865 96.7866 74.0116 96.7879 74.1389C96.7853 74.3646 96.7582 74.5826 96.7102 74.7636L95.0801 80.8678L96.7045 86.9993ZM102.339 73.4741C102.376 73.5672 102.405 73.6813 102.424 73.8085C102.443 73.9358 102.452 74.0732 102.451 74.2113C102.452 74.3475 102.443 74.4829 102.423 74.6081C102.404 74.7333 102.376 74.8451 102.339 74.9359C102.264 75.1149 102.168 75.2085 102.07 75.1983H100.68V87.5276C100.68 87.6669 100.671 87.8052 100.652 87.9337C100.633 88.0623 100.604 88.1782 100.569 88.2741C100.49 88.4712 100.388 88.5802 100.283 88.5802C100.178 88.5802 100.076 88.4712 99.9978 88.2741C99.962 88.1778 99.9337 88.0619 99.9146 87.9334C99.8955 87.805 99.886 87.6668 99.8868 87.5276V75.1983H98.5C98.4013 75.2089 98.305 75.1115 98.2313 74.9266C98.196 74.8321 98.1683 74.7174 98.1501 74.5903C98.1319 74.4632 98.1236 74.3266 98.1258 74.1897C98.1242 74.0562 98.1328 73.9233 98.151 73.7999C98.1692 73.6766 98.1966 73.5656 98.2313 73.4744C98.305 73.2895 98.4013 73.1921 98.5 73.2026H102.07C102.169 73.1925 102.265 73.2896 102.339 73.4741V73.4741Z" fill="#2C4A5D"/>
<path id="path10" d="M104.049 88.1862C103.796 87.7834 103.586 87.1992 103.439 86.4932C103.396 86.3187 103.371 86.1127 103.368 85.8998C103.368 85.7636 103.379 85.6291 103.399 85.5056C103.419 85.382 103.449 85.2724 103.486 85.1844C103.549 84.9973 103.636 84.8855 103.728 84.8721C103.797 84.8902 103.864 84.9484 103.924 85.043C103.985 85.1377 104.038 85.2666 104.08 85.4218C104.165 85.8166 104.286 86.1419 104.429 86.3655C104.573 86.589 104.735 86.703 104.899 86.6962C105.034 86.7051 105.167 86.6377 105.292 86.4982C105.417 86.3587 105.53 86.1498 105.625 85.8841C105.722 85.6274 105.798 85.3171 105.849 84.9728C105.9 84.6286 105.926 84.2581 105.923 83.885V74.2546C105.922 74.114 105.933 73.9747 105.953 73.8459C105.973 73.7172 106.002 73.602 106.04 73.5081C106.112 73.3065 106.211 73.1942 106.313 73.1957C106.364 73.1887 106.415 73.2115 106.463 73.2626C106.51 73.3136 106.554 73.3919 106.59 73.4925C106.625 73.5917 106.653 73.71 106.671 73.8399C106.689 73.9699 106.697 74.1089 106.696 74.2484V83.9005C106.699 84.7656 106.618 85.6166 106.462 86.3619C106.307 87.1046 106.085 87.7181 105.818 88.1393C105.538 88.585 105.221 88.8136 104.899 88.8015C104.602 88.8104 104.308 88.5981 104.049 88.1862V88.1862ZM109.418 88.3486C109.109 88.0181 108.825 87.5228 108.582 86.8898C108.533 86.7831 108.493 86.6467 108.464 86.4905C108.436 86.3343 108.421 86.1623 108.419 85.9871C108.42 85.8535 108.43 85.7216 108.449 85.5992C108.468 85.4769 108.496 85.3666 108.53 85.2749C108.563 85.1753 108.603 85.0961 108.647 85.0423C108.692 84.9885 108.739 84.9614 108.788 84.9625C108.87 84.9594 108.95 85.0455 109.01 85.2031C109.197 85.7068 109.415 86.112 109.654 86.3994C109.894 86.6676 110.15 86.7992 110.408 86.7867C110.701 86.8129 110.991 86.5898 111.239 86.1464C111.341 85.986 111.426 85.7537 111.485 85.4726C111.545 85.1914 111.577 84.8713 111.579 84.544C111.581 84.1921 111.551 83.8447 111.491 83.5352C111.432 83.2256 111.345 82.9642 111.239 82.7759C110.927 82.2608 110.585 81.9074 110.229 81.7327C109.777 81.529 109.351 81.0067 108.99 80.2146C108.844 79.8504 108.73 79.3988 108.655 78.8932C108.58 78.3876 108.546 77.841 108.557 77.2939C108.551 76.4775 108.636 75.6764 108.801 75.0043C108.969 74.3373 109.2 73.8157 109.467 73.4987C109.774 73.1354 110.103 72.9556 110.436 72.9709C110.747 72.9653 111.056 73.1144 111.349 73.4113C111.608 73.6565 111.845 74.0537 112.044 74.5764C112.097 74.6857 112.14 74.8263 112.172 74.9883C112.203 75.1503 112.221 75.3297 112.224 75.5135C112.224 75.6445 112.215 75.7742 112.197 75.8949C112.179 76.0157 112.152 76.1249 112.119 76.2163C112.087 76.3167 112.048 76.3966 112.004 76.4505C111.96 76.5044 111.912 76.5311 111.864 76.5287C111.799 76.5357 111.735 76.4719 111.686 76.3504C111.524 75.9229 111.332 75.5943 111.123 75.3852C110.906 75.1393 110.675 75.01 110.441 75.0041C110.148 74.9618 109.858 75.1734 109.609 75.6102C109.514 75.7874 109.436 76.0281 109.382 76.3107C109.328 76.5933 109.3 76.9091 109.3 77.2299C109.3 77.5506 109.328 77.8664 109.382 78.149C109.436 78.4316 109.514 78.6723 109.609 78.8495C109.894 79.3162 110.204 79.6437 110.528 79.8181C110.871 80.0083 111.206 80.3026 111.527 80.6959C111.769 80.9971 111.976 81.4843 112.124 82.1015C112.274 82.811 112.347 83.6287 112.334 84.4536C112.338 85.2644 112.25 86.0576 112.081 86.7151C111.903 87.3932 111.665 87.9249 111.389 88.2551C111.087 88.6277 110.759 88.8151 110.429 88.8048C110.085 88.8227 109.743 88.6682 109.418 88.3486V88.3486Z" fill="#00C391"/>
<path id="path12" d="M69.1545 88.3987C69.1466 88.3594 69.1396 88.3187 69.1334 88.2769C69.0908 87.9997 69.0777 87.6938 69.0957 87.3961H66.5763L70.3204 68.8603L71.5495 74.9389L71.906 73.1647L70.8345 67.8545C70.7831 67.5825 70.7084 67.351 70.617 67.1813C70.5256 67.0116 70.4206 66.9091 70.3115 66.8831C70.2027 66.8971 70.0974 66.9967 70.0077 67.1707C69.918 67.3446 69.8475 67.5859 69.8041 67.867L66.0112 86.6276C65.9545 86.8925 65.9218 87.1926 65.916 87.5014C65.9102 87.8102 65.9314 88.1182 65.9779 88.3985C66.0362 88.6572 66.1191 88.8649 66.2172 88.998C66.3154 89.1311 66.4247 89.1843 66.533 89.1515H69.7097C69.6014 89.1848 69.492 89.1318 69.3938 88.9988C69.2957 88.8657 69.2128 88.6578 69.1545 88.3987V88.3987Z" fill="#00C492"/>
<path id="path14" d="M76.4581 86.6279L73.3414 71.1814C73.2903 70.9065 73.2154 70.6723 73.1236 70.5003C73.0318 70.3283 72.9261 70.2242 72.8162 70.1975C72.7075 70.2107 72.6022 70.3097 72.5125 70.4831C72.4228 70.6565 72.3522 70.8974 72.3088 71.1783L71.9058 73.165L72.2644 74.9392L72.8195 72.1748L75.903 87.3963H74.7305C74.7455 87.6479 74.7371 87.9062 74.706 88.1459C74.6995 88.1989 74.6913 88.2501 74.6816 88.299L74.6716 88.3552C74.6079 88.6083 74.523 88.8134 74.4244 88.9523C74.3259 89.0912 74.2166 89.1596 74.1064 89.1515H75.9407C76.0509 89.1599 76.1602 89.0916 76.2588 88.9527C76.3574 88.8138 76.4422 88.6086 76.5059 88.3552C76.5561 88.0835 76.5783 87.7777 76.5698 87.4723C76.5614 87.167 76.5227 86.8745 76.4581 86.6279Z" fill="#008776"/>
<path id="path16" d="M74.6722 88.3555L74.6822 88.2993C74.6919 88.2504 74.7001 88.1992 74.7066 88.1463C74.7377 87.9065 74.7461 87.6482 74.7311 87.3966C74.7138 87.1252 74.6792 86.8649 74.6289 86.6282L72.2673 74.9395L71.9064 73.1653L71.5478 74.9395L69.1872 86.6285C69.1414 86.868 69.1106 87.1279 69.0962 87.3969C69.0772 87.6937 69.0892 87.9996 69.1306 88.2778C69.1368 88.3195 69.1438 88.3602 69.1517 88.3996C69.2101 88.6583 69.293 88.8659 69.3911 88.9989C69.4893 89.132 69.5986 89.1851 69.7069 89.1524H74.1037C74.2145 89.1615 74.3243 89.0936 74.4235 88.9546C74.5227 88.8156 74.6081 88.6098 74.6722 88.3555V88.3555ZM71.9064 76.7137L74.0649 87.3966H69.749L71.9064 76.7137Z" fill="#2D4A5D"/>
</g>
</g>
<path id="bootstrap" fill-rule="evenodd" clip-rule="evenodd" d="M14.0828 97.9358C12.4543 97.9358 11.2493 100.182 11.3032 102.618C11.355 104.958 11.2877 107.99 10.8035 110.461C10.3176 112.94 9.49642 114.511 8.15479 114.713V116.989C9.49642 117.191 10.3176 118.761 10.8035 121.24C11.2877 123.712 11.355 126.743 11.3032 129.084C11.2492 131.519 12.4542 133.766 14.083 133.766H30.7696C32.3981 133.766 33.6029 131.52 33.5489 129.084C33.4971 126.743 33.5644 123.712 34.0486 121.24C34.5345 118.761 35.3537 117.19 36.6954 116.989V114.713C35.3538 114.511 34.5346 112.941 34.0486 110.461C33.5644 107.99 33.4971 104.958 33.5489 102.618C33.6029 100.182 32.3981 97.9358 30.7696 97.9358H14.0825H14.0828ZM27.5044 119.992C27.5044 123.346 25.9168 125.38 23.282 125.38H18.797C18.6687 125.38 18.5457 125.3 18.455 125.157C18.3643 125.014 18.3133 124.82 18.3133 124.618V107.084C18.3133 106.882 18.3643 106.688 18.455 106.545C18.5457 106.402 18.6687 106.322 18.797 106.322H23.2565C25.4534 106.322 26.8952 108.197 26.8952 111.076C26.8952 113.097 25.9253 114.907 24.6896 115.223V115.329C26.3717 115.62 27.5044 117.456 27.5044 119.992V119.992ZM22.793 108.738H20.2357V114.431H22.3896C24.0547 114.431 24.9727 113.374 24.9727 111.486C24.9726 109.716 24.1833 108.738 22.793 108.738ZM20.2357 116.689V122.963H22.8871C24.6207 122.963 25.539 121.867 25.539 119.806C25.539 117.746 24.595 116.689 22.7756 116.689H20.2357V116.689Z" fill="#7952B3"/>
<path id="tailwind-icon" d="M19.0026 15.9246C15.5661 15.9246 13.4183 18.9499 12.5592 25.0005C13.8478 21.9751 15.3513 20.8406 17.0696 21.597C18.0499 22.0285 18.7506 23.2808 19.5262 24.6669C20.7897 26.925 22.252 29.5384 25.446 29.5384C28.8825 29.5384 31.0304 26.5131 31.8895 20.4625C30.6008 23.4879 29.0974 24.6224 27.3791 23.866C26.3988 23.4345 25.698 22.1821 24.9224 20.7961C23.6589 18.538 22.1966 15.9246 19.0026 15.9246ZM12.5592 29.5384C9.12269 29.5384 6.97481 32.5638 6.11572 38.6143C7.40441 35.589 8.90785 34.4545 10.6261 35.2109C11.6064 35.6423 12.3072 36.8947 13.0828 38.2807C14.3463 40.5389 15.8086 43.1523 19.0026 43.1523C22.4391 43.1523 24.5869 40.1269 25.446 34.0764C24.1574 37.1017 22.6539 38.2362 20.9356 37.4798C19.9553 37.0484 19.2546 35.796 18.479 34.41C17.2155 32.1518 15.7532 29.5384 12.5592 29.5384Z" fill="url(#paint0_linear_2_87)"/>
<g id="vuetify-icon">
<path id="Vector_13" d="M20.902 58.1245H13.9712L20.902 72.3052" fill="#1697F6"/>
<path id="Vector_14" d="M20.9023 58.1245H27.8332L20.9023 72.3052" fill="#1867C0"/>
<path id="Vector_15" d="M20.9019 76.3978V87.3686L6.11621 62.3801H13.8613" fill="#7BC6FF"/>
<path id="Vector_16" d="M20.9023 76.3978V87.3686L35.6881 62.3801H27.943" fill="#AEDDFF"/>
</g>
<g id="css-icon">
<path id="Vector_17" d="M21.1242 210.794L3.84964 205.95L0 162.339H42.3001L38.4465 205.943L21.1242 210.794V210.794Z" fill="#264DE4"/>
<path id="Vector_18" d="M35.1477 203.167L38.4407 165.905H21.1504V207.086L35.1477 203.167V203.167Z" fill="#2965F1"/>
<path id="Vector_19" d="M8.82533 182.079L9.29988 187.428H21.1502V182.079H8.82533ZM7.87158 171.253L8.35293 176.602H21.1502V171.253H7.87158V171.253ZM21.1502 195.971L21.127 195.977L15.2295 194.368L14.8524 190.103H9.53649L10.2783 198.501L21.1259 201.542L21.1502 201.536V195.971Z" fill="#EBEBEB"/>
<path id="Vector_20" d="M9.95508 150.487H16.3687V153.196H12.6372V155.905H16.369V158.614H9.95508V150.487ZM17.6515 150.487H24.0653V152.843H20.3337V153.314H24.0653V158.732H17.6517V156.258H21.3833V155.787H17.6514V150.487H17.6515ZM25.3482 150.487H31.7619V152.843H28.0303V153.314H31.7619V158.732H25.3482V156.258H29.0797V155.787H25.3483V150.487H25.3482Z" fill="black"/>
<path id="Vector_21" d="M33.4413 182.079L34.3972 171.253H21.132V176.602H28.5938L28.112 182.079H21.132V187.428H27.6529L27.038 194.365L21.1318 195.975V201.54L31.988 198.501L32.0676 197.597L33.3122 183.516L33.4413 182.079V182.079Z" fill="white"/>
</g>
<g id="cog-java">
<g id="cog-three">
<path id="Vector_22" d="M195.63 24.2464C195.63 25.0327 195.163 25.6703 194.586 25.6703V26.7361C195.594 26.7361 196.411 25.6213 196.411 24.2462C196.411 22.8713 195.594 21.7563 194.586 21.7563V22.8221C195.163 22.8223 195.63 23.4599 195.63 24.2464Z" fill="#F6D276"/>
<path id="Vector_23" d="M192.762 24.2464C192.762 25.6215 193.579 26.7362 194.586 26.7362V25.6705C194.01 25.6705 193.543 25.0329 193.543 24.2465C193.543 23.4602 194.01 22.8226 194.586 22.8226V21.7568C193.579 21.7565 192.762 22.8713 192.762 24.2464Z" fill="#F6E7AA"/>
<path id="Vector_24" d="M191.05 24.2463H191.05C191.05 26.9121 192.633 29.0729 194.586 29.0729V27.8031C193.147 27.8031 191.98 26.2108 191.98 24.2463C191.98 22.2819 193.147 20.6894 194.586 20.6894V19.4197C192.633 19.4195 191.05 21.5806 191.05 24.2463Z" fill="#F6E7AA"/>
<path id="Vector_25" d="M197.192 24.2463C197.192 26.2108 196.026 27.8031 194.586 27.8031V29.0729C196.54 29.0729 198.123 26.9119 198.123 24.2463H198.123C198.123 21.5806 196.539 19.4197 194.586 19.4197V20.6894C196.026 20.6894 197.192 22.2819 197.192 24.2463Z" fill="#F6D276"/>
<path id="Vector_26" d="M192.762 24.2463C192.762 22.8714 193.579 21.7564 194.587 21.7564V20.6895C193.147 20.6895 191.98 22.2819 191.98 24.2463C191.98 26.2108 193.147 27.8031 194.587 27.8031V26.7362C193.579 26.736 192.762 25.6214 192.762 24.2463Z" fill="#FAA338"/>
<path id="Vector_27" d="M197.192 24.2463C197.192 22.2819 196.026 20.6895 194.586 20.6895V21.7564C195.594 21.7564 196.411 22.8712 196.411 24.2463C196.411 25.6214 195.594 26.7362 194.586 26.7362V27.8031C196.026 27.8031 197.192 26.2108 197.192 24.2463Z" fill="#F2852A"/>
<path id="Vector_28" d="M200.355 23.3673H199.333C199.22 22.2186 198.889 21.1669 198.398 20.2876L199.121 19.3007C199.372 18.9587 199.372 18.3991 199.121 18.0571C198.871 17.7151 198.461 17.7151 198.21 18.0571L197.487 19.044C196.843 18.3739 196.072 17.9226 195.231 17.7681V16.3728C195.231 15.8891 194.941 15.4934 194.586 15.4934V19.4201C196.54 19.4201 198.123 21.5812 198.123 24.2467H198.123C198.123 26.9125 196.539 29.0733 194.586 29.0733V33C194.941 33 195.231 32.6043 195.231 32.1207V30.7255C196.072 30.5707 196.843 30.1197 197.487 29.4496L198.21 30.4363C198.461 30.7785 198.871 30.7785 199.121 30.4363C199.372 30.0945 199.372 29.5348 199.121 29.1927L198.398 28.2058C198.889 27.3265 199.22 26.2746 199.333 25.1263H200.355C200.71 25.1263 201 24.7306 201 24.2469C201 23.7628 200.71 23.3673 200.355 23.3673Z" fill="#FAA338"/>
<path id="Vector_29" d="M191.05 24.2465H191.05C191.05 21.5808 192.633 19.4199 194.586 19.4199V15.4932C194.232 15.4932 193.942 15.8889 193.942 16.3726V17.7678C193.1 17.9225 192.33 18.3737 191.686 19.0438L190.963 18.0568C190.712 17.7148 190.302 17.7148 190.051 18.0568C189.801 18.3989 189.801 18.9584 190.051 19.3004L190.774 20.2874C190.283 21.1667 189.953 22.2185 189.84 23.367H188.817C188.463 23.367 188.173 23.7626 188.173 24.2463C188.173 24.7301 188.463 25.1257 188.817 25.1257H189.839C189.953 26.2742 190.283 27.3259 190.774 28.2052L190.051 29.1922C189.801 29.5342 189.801 30.0939 190.051 30.4358C190.302 30.7779 190.712 30.7779 190.962 30.4358L191.686 29.449C192.33 30.1191 193.1 30.5703 193.942 30.7249V32.1202C193.942 32.6038 194.232 32.9994 194.586 32.9994V29.0727C192.633 29.0731 191.05 26.9121 191.05 24.2465Z" fill="#FDBB47"/>
<path id="Vector_30" d="M193.543 24.2463C193.543 25.0327 194.01 25.6703 194.586 25.6703V22.8223C194.01 22.8223 193.543 23.4598 193.543 24.2463Z" fill="#493633"/>
<path id="Vector_31" d="M195.63 24.2464C195.63 23.4601 195.163 22.8225 194.586 22.8225V25.6705C195.163 25.6703 195.63 25.0328 195.63 24.2464Z" fill="#342421"/>
</g>
</g>
<g id="csharp">
<path id="Vector_32" d="M241.913 170.526C241.913 169.562 241.721 168.71 241.332 167.98C240.95 167.26 240.378 166.658 239.611 166.182C233.278 162.266 226.94 158.363 220.609 154.443C218.903 153.387 217.248 153.425 215.554 154.497C213.033 156.091 200.414 163.844 196.653 166.179C195.105 167.141 194.351 168.612 194.351 170.524C194.348 178.399 194.351 186.273 194.348 194.147C194.348 195.09 194.533 195.925 194.904 196.645C195.286 197.386 195.866 198.005 196.651 198.492C200.412 200.828 213.033 208.58 215.553 210.174C217.248 211.246 218.903 211.285 220.61 210.228C226.94 206.308 233.28 202.405 239.613 198.489C240.398 198.003 240.978 197.383 241.36 196.643C241.731 195.923 241.916 195.088 241.916 194.145C241.916 194.145 241.916 178.401 241.913 170.526Z" fill="#A179DC"/>
<path id="Vector_33" d="M218.205 182.259L194.904 196.645C195.286 197.386 195.866 198.005 196.651 198.492C200.412 200.828 213.033 208.58 215.553 210.174C217.248 211.247 218.903 211.285 220.61 210.228C226.941 206.309 233.28 202.405 239.613 198.49C240.398 198.003 240.978 197.383 241.36 196.643L218.205 182.259Z" fill="#280068"/>
<path id="Vector_34" d="M241.914 170.526C241.913 169.562 241.721 168.71 241.332 167.979L218.205 182.259L241.36 196.643C241.731 195.923 241.916 195.088 241.916 194.145C241.916 194.145 241.916 178.4 241.914 170.526" fill="#390091"/>
<g id="Group_2">
<path id="Vector_35" d="M231.923 176.881V179.57H234.431V176.881H235.685V179.57H238.192V180.914H235.685V183.603H238.192V184.948H235.685V187.637H234.431V184.948H231.923V187.637H230.669V184.948H228.162V183.603H230.669V180.914H228.162V179.57H230.669V176.881H231.923ZM234.431 180.914H231.923V183.603H234.431V180.914Z" fill="white"/>
<path id="Vector_36" d="M218.256 163.376C224.797 163.376 230.507 167.185 233.566 172.847L233.536 172.792L225.84 177.544C224.324 174.791 221.545 172.933 218.356 172.895L218.256 172.894C213.393 172.894 209.451 177.121 209.451 182.335C209.45 183.979 209.85 185.594 210.613 187.019C212.13 189.86 214.983 191.776 218.256 191.776C221.549 191.776 224.418 189.836 225.928 186.965L225.891 187.034L233.575 191.807C230.55 197.421 224.917 201.218 218.453 201.294L218.256 201.295C211.694 201.295 205.968 197.462 202.916 191.771C201.427 188.992 200.575 185.771 200.575 182.335C200.575 171.864 208.491 163.376 218.256 163.376L218.256 163.376Z" fill="white"/>
</g>
</g>
<g id=".netcore">
<path id="Vector_37" d="M193.66 130.963C193.552 130.859 193.42 130.776 193.275 130.718C193.13 130.66 192.975 130.632 192.817 130.632C192.659 130.629 192.504 130.66 192.359 130.715C192.214 130.773 192.082 130.856 191.974 130.96C191.863 131.061 191.776 131.18 191.718 131.312C191.661 131.447 191.631 131.588 191.631 131.729C191.627 131.873 191.658 132.013 191.718 132.145C191.779 132.277 191.867 132.396 191.978 132.497C192.086 132.601 192.216 132.684 192.362 132.739C192.507 132.795 192.663 132.822 192.82 132.819C192.977 132.82 193.133 132.791 193.278 132.736C193.423 132.681 193.554 132.6 193.663 132.497C193.778 132.399 193.865 132.28 193.926 132.148C193.987 132.016 194.017 131.876 194.017 131.732C194.017 131.588 193.987 131.447 193.926 131.315C193.862 131.18 193.774 131.061 193.66 130.963V130.963ZM207.765 128.477C207.748 129.162 207.785 129.851 207.873 130.534H207.833C207.738 130.366 207.529 130.054 207.209 129.597L199.524 118.638H197.192V132.629H198.985V122.514C199.005 121.874 198.975 121.234 198.901 120.594H198.968C199.096 120.901 199.261 121.195 199.457 121.47L207.351 132.629H209.558V118.638H207.765V128.477ZM221.716 131.092H215.379V126.244H220.924V124.768H215.379V120.12H221.328V118.638H213.542V132.629H221.706L221.716 131.092ZM223.087 118.638V120.12H227.503V132.629H229.296V120.12H233.762V118.638H223.087ZM205.514 136.108C205.066 136.27 204.661 136.517 204.327 136.833C203.983 137.167 203.714 137.559 203.539 137.991C203.363 138.423 203.286 138.879 203.306 139.335C203.272 140.18 203.596 141.007 204.216 141.638C204.526 141.935 204.904 142.165 205.322 142.318C205.74 142.471 206.188 142.538 206.636 142.52C207.31 142.541 207.981 142.413 208.591 142.143L208.598 141.43C208.038 141.727 207.401 141.874 206.754 141.858C206.407 141.871 206.06 141.816 205.74 141.696C205.419 141.577 205.129 141.393 204.894 141.16C204.4 140.64 204.147 139.966 204.186 139.28C204.145 138.554 204.418 137.844 204.944 137.299C205.193 137.048 205.5 136.852 205.841 136.717C206.182 136.585 206.551 136.521 206.923 136.53C207.512 136.521 208.092 136.653 208.608 136.913V136.144C208.073 135.948 207.499 135.857 206.923 135.875C206.441 135.869 205.959 135.945 205.514 136.108V136.108ZM213.916 138.3C213.691 138.085 213.417 137.916 213.113 137.807C212.81 137.697 212.483 137.648 212.157 137.663C211.81 137.648 211.466 137.7 211.142 137.813C210.819 137.927 210.526 138.098 210.276 138.315C210.034 138.56 209.848 138.845 209.727 139.158C209.605 139.47 209.555 139.798 209.579 140.128C209.545 140.756 209.784 141.371 210.242 141.84C210.472 142.064 210.748 142.241 211.058 142.361C211.368 142.477 211.702 142.535 212.036 142.523C212.376 142.532 212.716 142.474 213.033 142.354C213.35 142.235 213.633 142.054 213.866 141.825C214.338 141.341 214.583 140.707 214.547 140.061C214.587 139.418 214.361 138.79 213.916 138.3ZM213.3 141.445C213.151 141.601 212.966 141.723 212.757 141.803C212.548 141.883 212.322 141.919 212.096 141.907C211.864 141.917 211.635 141.877 211.422 141.797C211.21 141.714 211.021 141.592 210.866 141.433C210.543 141.069 210.381 140.61 210.411 140.144C210.381 139.663 210.542 139.188 210.866 138.808C211.018 138.649 211.206 138.524 211.419 138.438C211.631 138.355 211.864 138.315 212.093 138.325C212.322 138.312 212.548 138.352 212.757 138.435C212.966 138.518 213.151 138.643 213.3 138.802C213.606 139.187 213.755 139.657 213.721 140.131C213.755 140.597 213.606 141.065 213.3 141.445V141.445ZM217.206 138C216.953 138.205 216.768 138.472 216.677 138.769V137.807H215.834V142.413H216.677V140.064C216.65 139.638 216.771 139.213 217.021 138.851C217.112 138.72 217.233 138.609 217.381 138.533C217.529 138.456 217.695 138.41 217.863 138.407C218.079 138.392 218.295 138.444 218.477 138.554V137.795C218.322 137.749 218.16 137.727 217.998 137.734C217.708 137.731 217.428 137.825 217.206 138V138ZM223.408 139.902C223.448 139.317 223.256 138.741 222.868 138.276C222.676 138.08 222.44 137.923 222.174 137.822C221.908 137.721 221.621 137.675 221.335 137.691C221.018 137.682 220.701 137.74 220.408 137.856C220.118 137.972 219.859 138.147 219.65 138.367C219.192 138.853 218.955 139.478 218.986 140.116C218.942 140.753 219.161 141.384 219.599 141.88C219.811 142.091 220.074 142.256 220.364 142.367C220.654 142.477 220.971 142.523 221.284 142.511C221.908 142.538 222.525 142.385 223.044 142.073V141.381C222.6 141.708 222.048 141.889 221.476 141.895C221.257 141.907 221.035 141.877 220.829 141.803C220.624 141.73 220.435 141.623 220.28 141.479C219.979 141.148 219.826 140.726 219.852 140.297H223.414L223.408 139.902ZM219.845 139.687C219.889 139.323 220.064 138.98 220.34 138.713C220.464 138.593 220.615 138.497 220.782 138.432C220.949 138.367 221.129 138.335 221.311 138.337C221.486 138.328 221.658 138.355 221.82 138.416C221.982 138.478 222.123 138.57 222.238 138.689C222.474 138.974 222.592 139.323 222.575 139.678L219.845 139.687Z" fill="#621EE5"/>
</g>
<g id="mysql-full">
<g id="mysql">
<path id="Vector_38" d="M252.789 200.248H256.057V185.169L261.117 198.319C261.714 199.904 262.532 200.474 264.134 200.474C265.737 200.474 266.522 199.91 267.12 198.319L272.18 185.169V200.254H275.449V185.194C275.449 183.725 274.946 183.014 273.909 182.647C271.426 181.741 269.76 182.525 269.006 184.484L264.041 197.462L259.232 184.478C258.509 182.519 256.812 181.736 254.329 182.641C253.291 183.009 252.789 183.719 252.789 185.188V200.248ZM278.166 187.97H281.434V196.281C281.403 196.733 281.558 197.793 283.348 197.825C284.262 197.842 290.399 197.825 290.456 197.825V187.929H293.731C293.745 187.929 293.727 201.423 293.728 201.48C293.746 204.808 290.194 205.531 288.558 205.587H278.237V203.017L288.576 203.016C290.68 202.756 290.432 201.535 290.432 201.123V200.121H283.485C280.253 200.087 278.195 198.438 278.169 196.541C278.167 196.371 278.239 188.052 278.167 187.97L278.166 187.97Z" fill="#00618A"/>
<path id="Vector_39" d="M296.25 200.248H305.647C306.747 200.248 307.816 199.979 308.665 199.513C310.08 198.754 310.771 197.726 310.771 196.379V193.588C310.771 192.485 309.985 191.457 308.446 190.772C307.628 190.404 306.623 190.208 305.649 190.208H301.688C300.369 190.208 299.74 189.743 299.583 188.715C299.551 188.592 299.551 188.488 299.551 188.372V186.634C299.551 186.536 299.551 186.437 299.583 186.315C299.74 185.531 300.086 185.31 301.248 185.183C301.343 185.183 301.468 185.158 301.563 185.158H310.897V182.612H301.72C300.4 182.612 299.709 182.71 299.08 182.93C297.13 183.64 296.281 184.773 296.281 186.732V188.96C296.281 190.674 297.947 192.143 300.744 192.486C301.058 192.51 301.372 192.535 301.686 192.535H305.081C305.207 192.535 305.333 192.535 305.427 192.56C306.463 192.658 306.904 192.878 307.218 193.318C307.412 193.545 307.47 193.76 307.47 193.998V196.226C307.47 196.495 307.313 196.839 306.999 197.132C306.716 197.426 306.244 197.622 305.616 197.671C305.49 197.671 305.396 197.695 305.27 197.695H296.25V200.242V200.248ZM331.16 195.816C331.16 198.436 332.826 199.905 336.189 200.199C336.502 200.228 336.817 200.244 337.131 200.248H345.649V197.701H337.068C335.152 197.701 334.428 197.138 334.428 195.791V182.617H331.16V195.815L331.16 195.816ZM312.856 195.949V186.87C312.856 184.564 314.241 183.165 316.981 182.723C317.274 182.674 317.568 182.65 317.864 182.65H324.068C324.373 182.65 324.679 182.674 324.981 182.723C327.721 183.165 329.107 184.563 329.107 186.87V195.949C329.107 197.82 328.518 198.821 327.162 199.474L330.381 202.871H326.586L323.981 200.123L321.359 200.317H317.864C317.265 200.317 316.635 200.219 315.942 199.998C313.859 199.335 312.856 198.059 312.856 195.949H312.856ZM316.384 195.722C316.384 195.845 316.416 195.967 316.447 196.115C316.641 197.17 317.486 197.759 318.772 197.759H321.742L319.015 194.881H322.81L325.183 197.391C325.622 197.118 325.91 196.7 326.007 196.164C326.038 196.042 326.038 195.919 326.038 195.796V187.092C326.038 186.994 326.038 186.865 326.007 186.748C325.813 185.767 324.967 185.202 323.708 185.202H318.778C317.325 185.202 316.385 185.938 316.385 187.092V195.729L316.384 195.722Z" fill="#E48E00"/>
<g id="Group_3">
<path id="Vector_40" d="M348.524 178.392C346.515 178.328 344.98 178.546 343.668 179.193C343.295 179.377 342.701 179.381 342.64 179.928C342.845 180.179 342.877 180.553 343.04 180.862C343.353 181.455 343.883 182.249 344.354 182.665C344.869 183.119 345.4 183.606 345.954 184.001C346.937 184.702 348.035 185.102 348.982 185.803C349.54 186.217 350.094 186.738 350.638 187.205C350.907 187.436 351.089 187.795 351.438 187.94V187.873C351.254 187.599 351.207 187.223 351.038 186.939L350.296 186.071C349.569 184.938 348.647 183.955 347.667 183.132C346.886 182.477 345.137 181.591 344.811 180.528L344.754 180.461C345.308 180.388 345.956 180.154 346.468 179.994C347.327 179.725 348.095 179.794 348.983 179.527L350.183 179.126V178.859C349.734 178.321 349.414 177.609 348.926 177.123C347.647 175.849 346.25 174.578 344.813 173.517C344.015 172.928 343.03 172.546 342.185 172.047C341.9 171.88 341.401 171.793 341.213 171.513C340.77 170.852 340.528 170.013 340.185 169.248C339.468 167.635 338.764 165.872 338.128 164.174C337.695 163.016 337.411 161.874 336.872 160.835C334.278 155.851 331.485 152.842 327.16 149.886C326.239 149.257 325.132 149.008 323.96 148.684L322.075 148.55C321.691 148.363 321.292 147.814 320.932 147.548C319.499 146.489 315.823 144.189 314.762 147.208C314.092 149.118 315.763 150.981 316.361 151.949C316.781 152.629 317.319 153.389 317.618 154.153C317.815 154.654 317.85 155.158 318.018 155.689C318.433 156.991 318.795 158.419 319.332 159.628C319.603 160.24 319.903 160.884 320.246 161.431C320.457 161.767 320.818 161.914 320.874 162.433C320.522 163.01 320.501 163.905 320.303 164.636C319.41 167.927 319.747 172.016 321.045 174.452C321.444 175.199 322.382 176.803 323.673 176.188C324.802 175.65 324.545 173.985 324.873 172.516C324.946 172.182 324.901 171.938 325.045 171.715V171.781L326.073 174.185C326.834 175.617 328.185 177.115 329.33 178.125C329.923 178.649 330.395 179.555 331.158 179.861V179.794H331.101C330.952 179.522 330.72 179.411 330.529 179.194C330.082 178.682 329.584 178.045 329.215 177.458C328.173 175.806 327.254 173.999 326.416 172.117C326.016 171.218 325.667 170.227 325.331 169.312C325.201 168.96 325.202 168.427 324.931 168.244C324.561 168.914 324.017 169.456 323.731 170.247C323.274 171.512 323.215 173.054 323.046 174.654C322.945 174.696 322.99 174.667 322.931 174.721C322.136 174.497 321.856 173.539 321.56 172.718C320.812 170.64 320.674 167.296 321.332 164.906C321.501 164.288 322.271 162.339 321.96 161.768C321.811 161.198 321.321 160.862 321.046 160.432C320.707 159.894 320.367 159.184 320.132 158.562C319.519 156.943 319.234 155.126 318.589 153.488C318.281 152.705 317.761 151.914 317.333 151.223C316.859 150.453 316.328 149.885 315.962 148.958C315.831 148.627 315.654 148.098 315.847 147.756C315.866 147.658 315.908 147.568 315.969 147.497C316.03 147.426 316.106 147.377 316.19 147.356C316.522 147.057 317.445 147.455 317.79 147.623C318.706 148.068 319.471 148.491 320.247 149.092C320.62 149.375 320.996 149.939 321.446 150.094H321.96C322.764 150.31 323.665 150.162 324.416 150.428C325.744 150.9 326.934 151.634 328.015 152.431C331.309 154.861 334.001 158.32 335.842 162.452C336.139 163.116 336.267 163.751 336.528 164.455C337.054 165.871 337.718 167.339 338.242 168.728C338.765 170.115 339.274 171.514 340.013 172.667C340.401 173.273 341.902 173.599 342.584 173.936C343.062 174.172 343.845 174.418 344.298 174.737C345.162 175.346 346.001 176.073 346.812 176.741C347.217 177.075 348.464 177.807 348.526 178.41L348.524 178.392Z" fill="#00618A"/>
<path id="Vector_41" fill-rule="evenodd" clip-rule="evenodd" d="M322.988 152.953C322.569 152.944 322.273 153.007 321.959 153.087V153.154H322.017C322.216 153.634 322.569 153.942 322.816 154.356L323.388 155.757L323.445 155.691C323.798 155.399 323.961 154.933 323.958 154.221C323.816 154.047 323.795 153.829 323.672 153.62C323.509 153.343 323.188 153.185 322.987 152.952L322.988 152.953Z" fill="#00618A"/>
</g>
</g>
<path id="Vector_42" fill-rule="evenodd" clip-rule="evenodd" d="M347.183 197.629C347.183 199.31 348.32 200.444 349.592 200.444C350.863 200.444 352 199.31 352 197.629C352 195.947 350.863 194.814 349.592 194.814C348.32 194.814 347.183 195.947 347.183 197.629ZM351.461 197.629C351.461 198.905 350.626 199.858 349.591 199.858C348.544 199.858 347.721 198.905 347.721 197.629C347.721 196.353 348.543 195.399 349.591 195.399C350.625 195.399 351.461 196.353 351.461 197.629ZM350.24 199.235H350.779L349.989 197.825C350.413 197.772 350.734 197.531 350.734 196.946C350.734 196.293 350.38 196.023 349.7 196.023H348.627V199.236H349.09V197.847H349.52L350.239 199.236L350.24 199.235ZM349.09 197.395V196.473H349.623C349.899 196.473 350.233 196.533 350.233 196.909C350.233 197.359 349.931 197.397 349.584 197.397H349.09V197.395Z" fill="#E48E00"/>
</g>
<g id="php">
<path id="Vector_43" d="M152.557 200.649C165.88 200.649 176.68 190.311 176.68 177.558C176.68 164.806 165.88 154.468 152.557 154.468C139.234 154.468 128.433 164.806 128.433 177.558C128.433 190.311 139.234 200.649 152.557 200.649Z" fill="#8993BE"/>
<path id="Vector_44" fill-rule="evenodd" clip-rule="evenodd" d="M135.208 191.231L137.851 166.621H143.965C146.608 166.925 147.93 169.355 147.93 173.609C147.93 180.901 144.791 185.154 141.982 184.85H139.008L138.347 191.231H135.208ZM139.669 180.293L140.495 171.178H142.643C143.799 171.178 144.626 172.09 144.626 173.912C144.46 179.078 143.139 179.989 141.652 180.293H139.669H139.669ZM147.316 184.85L149.96 160.241H153.099L152.438 166.621H155.412C158.056 166.925 159.047 169.355 158.717 172.394L157.56 184.85H154.256L155.412 173.609C155.577 172.09 155.577 171.178 154.421 171.178H151.942L150.455 184.85H147.316V184.85ZM157.348 191.231L159.992 166.621H166.106C168.749 166.925 170.071 169.355 170.071 173.609C170.071 180.901 166.932 185.154 164.123 184.85H161.149L160.488 191.231H157.348V191.231ZM161.809 180.293L162.636 171.178H164.784C165.94 171.178 166.767 172.09 166.767 173.912C166.601 179.078 165.28 179.989 163.793 180.293H161.81H161.809Z" fill="#232531"/>
</g>
<path id="laravel" d="M167.831 121.606C167.841 121.651 167.846 121.699 167.846 121.746V129.095C167.846 129.189 167.826 129.282 167.786 129.363C167.746 129.445 167.689 129.513 167.621 129.56L162.454 133.111V140.15C162.454 140.341 162.368 140.518 162.229 140.615L151.443 148.027C151.418 148.043 151.391 148.054 151.365 148.066C151.354 148.07 151.345 148.077 151.334 148.08C151.259 148.104 151.18 148.104 151.104 148.08C151.092 148.076 151.081 148.068 151.069 148.063C151.044 148.052 151.018 148.043 150.995 148.027L140.211 140.615C140.142 140.568 140.085 140.5 140.046 140.418C140.006 140.337 139.985 140.244 139.985 140.15V118.103C139.985 118.055 139.991 118.008 140.001 117.962C140.004 117.947 140.012 117.933 140.017 117.917C140.025 117.889 140.033 117.86 140.045 117.834C140.054 117.817 140.066 117.803 140.076 117.787C140.089 117.765 140.101 117.743 140.116 117.724C140.129 117.709 140.146 117.698 140.16 117.684C140.177 117.668 140.191 117.651 140.21 117.638H140.21L145.603 113.932C145.671 113.885 145.748 113.86 145.827 113.86C145.906 113.86 145.983 113.885 146.051 113.932L151.444 117.638H151.445C151.463 117.651 151.478 117.668 151.494 117.683C151.509 117.697 151.525 117.709 151.538 117.724C151.554 117.743 151.565 117.765 151.578 117.787C151.588 117.803 151.601 117.817 151.609 117.834C151.622 117.861 151.629 117.889 151.638 117.917C151.642 117.933 151.65 117.947 151.654 117.963C151.664 118.008 151.669 118.055 151.669 118.103V131.873L156.163 128.785V121.745C156.163 121.698 156.168 121.651 156.178 121.606C156.182 121.59 156.189 121.576 156.194 121.56C156.203 121.532 156.211 121.503 156.223 121.477C156.232 121.46 156.244 121.446 156.253 121.43C156.267 121.408 156.278 121.386 156.294 121.367C156.307 121.352 156.323 121.341 156.338 121.327C156.354 121.311 156.369 121.294 156.387 121.281H156.388L161.78 117.575C161.849 117.528 161.926 117.503 162.005 117.503C162.084 117.503 162.161 117.528 162.229 117.575L167.621 121.281C167.641 121.294 167.655 121.311 167.672 121.327C167.686 121.34 167.702 121.352 167.715 121.367C167.731 121.386 167.742 121.408 167.756 121.43C167.766 121.446 167.778 121.46 167.786 121.477C167.799 121.503 167.806 121.532 167.815 121.56C167.82 121.576 167.827 121.59 167.831 121.606V121.606ZM166.948 128.785V122.673L165.061 123.97L162.454 125.762V131.873L166.948 128.785H166.948ZM161.555 139.84V133.724L158.991 135.473L151.669 140.461V146.634L161.555 139.84ZM140.884 119.03V139.84L150.77 146.634V140.462L145.605 136.973L145.604 136.972L145.601 136.97C145.584 136.958 145.569 136.941 145.553 136.926C145.539 136.913 145.523 136.902 145.511 136.887L145.509 136.885C145.495 136.869 145.485 136.848 145.472 136.829C145.461 136.811 145.448 136.796 145.439 136.777L145.438 136.775C145.428 136.755 145.422 136.731 145.415 136.708C145.407 136.688 145.398 136.669 145.393 136.647V136.647C145.388 136.621 145.387 136.595 145.384 136.568C145.382 136.548 145.378 136.528 145.378 136.508V122.119L142.771 120.327L140.884 119.031V119.03ZM145.828 115.016L141.335 118.103L145.826 121.19L150.319 118.102L145.826 115.016H145.828ZM148.164 134.282L150.77 132.491V119.03L148.883 120.327L146.276 122.119V135.579L148.164 134.282ZM162.005 118.659L157.513 121.746L162.005 124.833L166.496 121.745L162.005 118.659ZM161.555 125.762L158.948 123.97L157.061 122.673V128.785L159.668 130.576L161.555 131.873V125.762ZM151.219 139.534L157.808 135.043L161.101 132.799L156.613 129.714L151.444 133.266L146.734 136.503L151.219 139.534Z" fill="#FF2D20"/>
<path id="github" d="M297.978 0C285.406 0 275.213 12.1301 275.213 27.0912C275.213 39.7857 282.559 50.4077 292.461 53.3471C292.355 52.9814 292.287 52.557 292.287 52.031V47.4006C291.363 47.4006 289.815 47.4006 289.426 47.4006C287.869 47.4006 286.484 46.6037 285.812 45.1227C285.067 43.4769 284.938 40.9597 283.09 39.42C282.542 38.9075 282.959 38.3228 283.591 38.4018C284.757 38.7946 285.725 39.7473 286.635 41.1606C287.542 42.5761 287.969 42.8967 289.663 42.8967C290.485 42.8967 291.714 42.8403 292.871 42.6235C293.493 40.7429 294.569 39.0114 295.884 38.1941C288.303 37.2662 284.685 32.7781 284.685 26.6849C284.685 24.0615 285.624 21.524 287.22 19.386C286.696 17.2639 286.038 12.9361 287.421 11.288C290.832 11.288 292.894 13.9204 293.389 14.6315C295.089 13.9384 296.955 13.5456 298.917 13.5456C300.882 13.5456 302.757 13.9384 304.46 14.636C304.95 13.9294 307.014 11.288 310.432 11.288C311.821 12.9383 311.155 17.2842 310.626 19.4018C312.211 21.5353 313.145 24.066 313.145 26.6849C313.145 32.7736 309.533 37.2595 301.964 38.1919C304.047 39.4855 305.566 43.1202 305.566 45.8587V52.031C305.566 52.2658 305.522 52.4351 305.5 52.636C314.37 48.9358 320.742 38.912 320.742 27.0912C320.742 12.1301 310.55 0 297.978 0Z" fill="black"/>
</g>
<defs>
<linearGradient id="paint0_linear_2_87" x1="5.39973" y1="24.6374" x2="32.1871" y2="33.4096" gradientUnits="userSpaceOnUse">
<stop stop-color="#2298BD"/>
<stop offset="1" stop-color="#0ED7B5"/>
</linearGradient>
</defs>
</svg>
