<svg width="462" height="223" viewBox="0 0 462 223" fill="none" xmlns="http://www.w3.org/2000/svg">
<rect width="462" height="223" fill="#E5E5E5"/>
<g id="javascript">
<g id="vuejs">
<path id="path893" fill-rule="evenodd" clip-rule="evenodd" d="M35.176 0.00927734H43.8257L21.9848 45.188L0 0.00927734H8.84648L21.9848 27.2077L35.176 0.00927734Z" fill="#41B883"/>
<path id="path895" fill-rule="evenodd" clip-rule="evenodd" d="M27.0011 0H35.2277L21.9728 27.2552L8.82422 0H16.9223L21.9728 10.4928L27.0011 0Z" fill="#35495E"/>
<path id="path897" fill-rule="evenodd" clip-rule="evenodd" d="M48.9873 8.91922C48.9873 8.58593 49.1414 8.30819 49.4497 8.08598C49.758 7.86379 50.0802 7.75269 50.4165 7.75269C50.8836 7.75269 51.1732 7.96377 51.2853 8.38596L56.2175 28.1834L61.1216 8.38596C61.2524 7.96379 61.5326 7.75269 61.9623 7.75269C62.3173 7.75269 62.6489 7.87489 62.9572 8.1193C63.2654 8.36371 63.4196 8.64146 63.4196 8.95255C63.4196 8.97476 63.415 9.0081 63.4056 9.05253C63.3962 9.09697 63.3915 9.14141 63.3915 9.18585L57.7027 31.3497C57.4972 31.9941 57.0022 32.3162 56.2175 32.3162C55.4328 32.3162 54.9564 31.9941 54.7883 31.3497L49.0436 9.18585C49.0062 9.05253 48.9876 8.96366 48.9876 8.91922H48.9873ZM63.6404 25.9835V17.3181C63.6404 17.0515 63.7572 16.8182 63.9907 16.6182C64.2242 16.4182 64.4998 16.3183 64.8174 16.3183C65.1163 16.3183 65.3825 16.4238 65.6161 16.6349C65.8496 16.846 65.9664 17.0737 65.9664 17.3181V25.9834C65.9664 26.9833 66.284 27.8832 66.9192 28.6831C67.5544 29.483 68.3111 29.8829 69.1891 29.8829C70.0485 29.8829 70.7958 29.4885 71.431 28.6998C72.0662 27.911 72.3838 27.0055 72.3838 25.9834V17.2843C72.3838 17.0399 72.5006 16.8177 72.7341 16.6177C72.9677 16.4177 73.2432 16.3178 73.5609 16.3178C73.8971 16.3178 74.1727 16.4122 74.3876 16.6011C74.6024 16.7899 74.7098 17.0177 74.7098 17.2843V25.9835C74.7098 27.6944 74.1634 29.1886 73.0705 30.4662C71.9775 31.7438 70.6838 32.3826 69.1892 32.3826C67.6759 32.3826 66.3728 31.7438 65.2799 30.4662C64.1869 29.1886 63.6405 27.6944 63.6405 25.9835H63.6404ZM76.6116 25.9168V22.4173C76.6116 20.7063 77.1581 19.2288 78.251 17.9845C79.3439 16.7402 80.6564 16.1181 82.1884 16.1181C83.6457 16.1181 84.9067 16.7013 85.9716 17.8679C87.0365 19.0344 87.569 20.4953 87.569 22.2506C87.569 22.895 87.5036 23.4116 87.3728 23.8005C87.242 24.1893 87.0412 24.467 86.7703 24.6337C86.4994 24.8003 86.2472 24.9059 86.0136 24.9503C85.7801 24.9948 85.4672 25.017 85.0748 25.017H78.9375V26.0169C78.9375 27.2389 79.3065 28.2166 80.0445 28.9498C80.7824 29.6831 81.7399 30.0497 82.9169 30.0497C83.5335 30.0497 84.0706 29.9386 84.5283 29.7164C84.986 29.4942 85.355 29.2776 85.6352 29.0665C85.9154 28.8554 86.1396 28.7499 86.3078 28.7499C86.5693 28.7499 86.7935 28.8888 86.9804 29.1665C87.1672 29.4442 87.2606 29.7275 87.2606 30.0164C87.2606 30.5274 86.8356 31.0496 85.9855 31.5828C85.1355 32.1161 84.0845 32.3827 82.8328 32.3827C81.0019 32.3827 79.5074 31.7883 78.349 30.5996C77.1907 29.4109 76.6116 27.85 76.6116 25.9169L76.6116 25.9168ZM78.9376 23.1505H84.122C84.6078 23.1505 84.9347 23.0783 85.1029 22.9339C85.271 22.7894 85.3551 22.5062 85.3551 22.084C85.3551 21.0841 85.0468 20.2065 84.4303 19.451C83.8138 18.6955 83.0572 18.3178 82.1604 18.3178C81.2823 18.3178 80.5256 18.6677 79.8904 19.3676C79.2552 20.0675 78.9376 20.9285 78.9376 21.9506L78.9376 23.1505ZM88.7426 30.5828C88.7426 30.0939 88.8827 29.6773 89.1629 29.333C89.4431 28.9886 89.7888 28.8164 90.1998 28.8164C90.5921 28.8164 90.9284 28.9886 91.2086 29.333C91.4889 29.6774 91.629 30.094 91.629 30.5828C91.629 31.0494 91.4889 31.4549 91.2086 31.7993C90.9284 32.1437 90.5921 32.3159 90.1998 32.3159C89.7888 32.3159 89.4431 32.1437 89.1629 31.7993C88.8827 31.4549 88.7426 31.0494 88.7426 30.5828ZM90.8128 38.5485C90.8128 38.193 90.9062 37.8986 91.0931 37.6653C91.2799 37.432 91.5041 37.3153 91.7656 37.3153C92.4942 37.3153 92.9707 36.9932 93.1949 36.3488C93.4191 35.7045 93.5311 34.738 93.5311 33.4492V17.2845C93.5311 16.9957 93.6386 16.7624 93.8534 16.5846C94.0683 16.4069 94.3438 16.318 94.6801 16.318C95.0164 16.318 95.2966 16.4069 95.5209 16.5846C95.745 16.7624 95.8571 16.9957 95.8571 17.2845V33.4492C95.8571 35.3823 95.5395 36.9154 94.9043 38.0486C94.2691 39.1818 93.307 39.7484 92.0179 39.7484C91.2145 39.7484 90.8129 39.3484 90.8129 38.5485L90.8128 38.5485ZM93.2229 10.3854C93.2229 9.96324 93.363 9.59665 93.6432 9.28555C93.9234 8.97448 94.2691 8.81895 94.6801 8.81895C95.0724 8.81895 95.4087 8.97448 95.6889 9.28555C95.9692 9.59662 96.1093 9.96324 96.1093 10.3854C96.1093 10.8076 95.9692 11.1798 95.6889 11.5019C95.4087 11.8241 95.0724 11.9852 94.6801 11.9852C94.2878 11.9852 93.9468 11.8241 93.6572 11.5019C93.3676 11.1798 93.2228 10.8076 93.2228 10.3854H93.2229ZM97.5911 29.8493C97.5911 29.5605 97.6704 29.2772 97.8293 28.9995C97.9881 28.7217 98.1796 28.5829 98.4037 28.5829C98.5532 28.5829 98.768 28.7162 99.0483 28.9828C99.3285 29.2494 99.7302 29.5105 100.253 29.766C100.776 30.0216 101.393 30.1493 102.103 30.1493C103.037 30.1493 103.714 29.9493 104.135 29.5494C104.555 29.1494 104.765 28.6495 104.765 28.0496C104.765 27.3163 104.532 26.7331 104.064 26.2998C103.597 25.8665 103.028 25.5388 102.355 25.3166C101.682 25.0944 101.01 24.85 100.337 24.5833C99.6647 24.3167 99.0949 23.8723 98.6278 23.2502C98.1608 22.628 97.9272 21.8059 97.9272 20.7838C97.9272 19.5173 98.3055 18.423 99.0622 17.5009C99.8188 16.5788 100.972 16.1178 102.523 16.1178C103.513 16.1178 104.419 16.3011 105.241 16.6677C106.063 17.0343 106.474 17.4509 106.474 17.9175C106.474 18.1842 106.386 18.4841 106.208 18.8174C106.031 19.1507 105.811 19.3173 105.55 19.3173C105.475 19.3173 105.115 19.1563 104.471 18.8341C103.826 18.5119 103.186 18.3508 102.551 18.3508C101.692 18.3508 101.052 18.5897 100.631 19.0674C100.211 19.5451 100.001 20.0839 100.001 20.6838C100.001 21.306 100.234 21.7948 100.702 22.1503C101.169 22.5058 101.743 22.7836 102.425 22.9835C103.107 23.1835 103.784 23.4279 104.457 23.7168C105.129 24.0057 105.699 24.5 106.166 25.1999C106.633 25.8998 106.867 26.8053 106.867 27.9163C106.867 29.2939 106.456 30.3826 105.634 31.1825C104.812 31.9824 103.663 32.3823 102.187 32.3823C100.916 32.3823 99.8329 32.1101 98.9361 31.5657C98.0393 31.0214 97.591 30.4492 97.591 29.8493L97.5911 29.8493Z" fill="#010101"/>
</g>
<g id="jslogo">
<path id="Vector" d="M112.248 59.3748H217.149V148.255H112.248V59.3748Z" fill="#F7DF1E"/>
<path id="Vector_2" d="M139.83 133.649L147.858 129.533C149.407 131.86 150.816 133.828 154.195 133.828C157.434 133.828 159.477 132.755 159.477 128.579V100.179H169.335V128.697C169.335 137.348 163.35 141.285 154.617 141.285C146.731 141.285 142.154 137.825 139.83 133.649L139.83 133.649ZM174.689 132.754L182.716 128.817C184.829 131.74 187.575 133.888 192.434 133.888C196.519 133.888 199.123 132.158 199.123 129.771C199.123 126.908 196.447 125.893 191.941 124.223L189.477 123.327C182.364 120.763 177.647 117.541 177.647 110.739C177.647 104.475 183.28 99.7017 192.082 99.7017C198.349 99.7017 202.856 101.551 206.095 106.384L198.419 110.561C196.728 107.995 194.898 106.981 192.082 106.981C189.194 106.981 187.363 108.532 187.363 110.561C187.363 113.066 189.194 114.081 193.419 115.632L195.883 116.527C204.263 119.57 208.981 122.672 208.981 129.652C208.981 137.17 202.01 141.286 192.645 141.286C183.491 141.286 177.576 137.587 174.689 132.755" fill="black"/>
</g>
<g id="jquery">
<g id="Group">
<path id="Vector_3" d="M101.567 191.869L100.657 197.001L101.567 191.867V191.869ZM106.251 203.016L105.248 203.006L106.251 203.016ZM106.004 210.684L99.9932 210.719L106.004 210.684ZM107.262 203.027L106.258 203.018L107.262 203.027ZM106.532 210.036L107.581 203.681L106.532 210.036ZM128.665 180.786L126.716 195.377L128.665 180.786ZM123.651 180.766L122.171 191.667L123.651 180.766Z" fill="#131B28"/>
<path id="Vector_4" d="M128.316 180.112H124.146C123.914 180.112 123.685 180.407 123.636 180.768L120.675 202.572C120.625 202.931 120.396 203.226 120.165 203.226H117.213C114.291 203.226 114.629 200.012 115.239 195.609L115.257 195.476L115.611 192.472L115.764 191.235L117.112 180.768C117.159 180.407 117.007 180.11 116.775 180.11H112.494C112.376 180.117 112.262 180.184 112.171 180.303C112.079 180.421 112.014 180.584 111.986 180.766L110.033 195.32C108.972 203.024 109.253 210.37 115.017 210.599H124.229C124.461 210.599 124.689 210.305 124.739 209.944L128.64 180.76C128.689 180.399 128.537 180.104 128.307 180.104L128.316 180.112ZM144.947 203.302C145.179 203.302 145.317 203.597 145.284 203.958L144.879 207.109L144.947 203.302ZM144.484 210.26L144.889 207.107L144.484 210.26ZM143.991 210.923L136.305 210.982L143.991 210.923Z" fill="#131B28"/>
<path id="Vector_5" d="M133.804 199.245C133.8 198.899 134.047 198.306 134.279 198.306L133.758 198.292C133.511 202.05 133.804 199.245 133.804 199.245V199.245ZM136.672 210.978H136.592H136.672ZM144.948 203.322C145.18 203.322 145.318 203.616 145.285 203.978L144.825 207.621L144.948 203.322ZM138.646 210.972H138.629H138.646ZM137.622 210.978H137.563H137.622ZM137.311 210.978H137.213H137.311ZM136.993 210.978H136.907H136.993ZM137.563 210.978H137.31H137.563Z" fill="#131B28"/>
<path id="Vector_6" d="M138.632 210.972L137.625 210.978L138.632 210.972ZM143.982 210.919L138.647 210.97L143.982 210.919ZM144.476 210.262L144.815 207.623L144.476 210.264V210.262ZM137.202 210.978H136.982H137.202ZM136.579 210.982H136.283H136.579ZM136.892 210.978H136.645H136.892ZM75.8744 199.323L76.5221 194.753L75.7819 199.975L75.6955 200.631L75.8757 199.319L75.8744 199.323ZM83.6321 180.036H79.0513C78.9329 180.043 78.8191 180.111 78.7266 180.228C78.634 180.346 78.5675 180.507 78.5368 180.689L77.6683 186.775C77.6537 186.854 77.6512 186.937 77.6612 187.018C77.6711 187.098 77.6931 187.174 77.7253 187.238C77.7575 187.302 77.799 187.353 77.8462 187.386C77.8934 187.419 77.9449 187.434 77.9965 187.429H82.6131C82.845 187.429 83.0745 187.134 83.1238 186.775L83.9628 180.676C84.0121 180.316 83.8641 180.022 83.6297 180.022L83.6321 180.036ZM82.6451 190.185L81.288 200.075L82.6451 190.185ZM69.3381 222.953L73.1158 223C72.0005 223 70.1586 222.967 69.3369 222.951L69.3381 222.953Z" fill="#131B28"/>
<path id="Vector_7" d="M77.1824 190.183L76.5334 194.753L77.1824 190.183ZM82.3147 189.527H77.7092C77.5908 189.535 77.477 189.602 77.3845 189.72C77.2919 189.837 77.2254 189.999 77.1947 190.181L75.8993 199.321L75.7192 200.633L74.4854 209.963C74.4243 210.398 74.3502 210.829 74.2634 211.253C74.2634 211.253 73.3998 215.336 71.9514 215.291L70.5141 215.248C70.3962 215.253 70.2824 215.318 70.1892 215.433C70.0961 215.548 70.0284 215.707 69.9959 215.888L69.0385 222.291C69.0234 222.37 69.0204 222.453 69.0297 222.533C69.039 222.614 69.0603 222.69 69.0919 222.754C69.1234 222.819 69.1643 222.871 69.2111 222.905C69.2579 222.939 69.3091 222.955 69.3605 222.951L73.1394 223C76.7617 223 78.6703 219.806 79.8953 210.619L82.6712 190.203C82.7206 189.843 82.5701 189.549 82.3381 189.549L82.3147 189.527ZM147.9 210.605C147.668 210.605 147.53 210.311 147.567 209.949L151.042 184.064L147.9 210.605ZM152.727 209.949L154.134 198.901L152.727 209.949Z" fill="#131B28"/>
<path id="Vector_8" d="M147.619 210.279C147.59 210.098 147.606 209.657 147.656 209.297L149.304 197.008L147.567 209.951C147.518 210.312 147.668 210.607 147.9 210.607H148.322C148.09 210.607 147.646 210.46 147.619 210.279V210.279ZM152.455 210.46C152.329 210.538 152.036 210.607 151.804 210.607H152.226C152.343 210.599 152.456 210.531 152.548 210.413C152.639 210.294 152.703 210.131 152.731 209.949L152.815 209.293C152.77 209.655 152.569 210.379 152.445 210.46H152.455ZM153.432 204.425L154.053 199.549L153.432 204.425ZM167.136 185.799L167.328 187.055C167.381 187.415 167.234 187.707 167.003 187.709" fill="#131B28"/>
<path id="Vector_9" d="M152.812 209.294L153.429 204.425L152.812 209.294ZM166.945 184.51L167.133 185.797L166.945 184.51ZM154.052 199.553L154.222 198.249L154.885 193.312L154.135 198.903L154.052 199.551V199.553ZM151.097 183.64L150.953 184.72L149.305 197.009L151.042 184.066L151.097 183.642V183.64Z" fill="#131B28"/>
<path id="Vector_10" d="M167.328 187.056L167.137 185.799L166.853 183.836C166.478 181.52 165.378 180.179 162.987 180.179L151.982 180.167C151.864 180.174 151.75 180.241 151.659 180.359C151.567 180.478 151.502 180.64 151.474 180.823L151.303 182.105L151.057 184.042L147.671 209.274C147.622 209.635 147.606 210.059 147.634 210.256C147.663 210.452 148.107 210.583 148.337 210.583H151.817C152.049 210.583 152.341 210.517 152.468 210.436C152.595 210.356 152.781 209.651 152.838 209.27L154.158 198.878L155.571 188.347C155.62 187.988 155.848 187.696 156.079 187.694L167.026 187.686C167.257 187.686 167.403 187.391 167.35 187.032L167.328 187.056ZM181.42 175.682L180.577 175.687H177.073C176.945 175.7 176.82 175.755 176.706 175.851C176.593 175.946 176.493 176.079 176.415 176.241L168.667 194.302C168.536 194.606 168.387 194.561 168.334 194.203L167.764 190.224C167.733 190.042 167.667 189.88 167.574 189.763C167.481 189.645 167.368 189.578 167.249 189.57H162.269C162.037 189.57 161.899 189.859 161.963 190.214L164.183 202.656C164.248 203.01 164.251 203.593 164.196 203.952L163.209 209.973C163.192 210.05 163.188 210.133 163.196 210.213C163.204 210.294 163.225 210.37 163.257 210.435C163.288 210.499 163.329 210.55 163.376 210.583C163.423 210.616 163.475 210.63 163.526 210.623H168.461C168.693 210.623 168.93 210.328 168.986 209.975L169.973 203.954C170.051 203.53 170.172 203.13 170.331 202.768L182.91 176.204C183.05 175.909 182.974 175.67 182.742 175.674L181.422 175.687L181.42 175.682ZM141.847 191.265C141.817 191.657 141.585 191.952 141.353 191.952H135.037C134.818 191.952 134.707 191.716 134.741 191.422L134.745 191.369L134.774 191.198C135.391 188.646 136.606 186.971 138.914 186.971C141.514 186.971 142.021 188.993 141.844 191.265H141.847ZM139.996 179.667C131.891 179.667 129.97 187.495 128.893 195.397C127.814 203.452 127.908 210.984 136.295 210.984H137.625L138.649 210.978L143.986 210.927C144.103 210.918 144.215 210.85 144.306 210.731C144.396 210.613 144.46 210.451 144.488 210.269L145.299 203.964C145.346 203.603 145.194 203.308 144.962 203.308H137.423C134.425 203.308 133.533 202.04 133.861 198.312H145.914C146.112 198.306 146.291 198.116 146.361 197.817C146.373 197.764 146.386 197.708 146.391 197.651C148.18 186.912 147.666 179.674 140 179.674L139.996 179.667ZM101.682 191.223L101.568 191.865C101.568 191.867 100.658 197.001 100.658 197.001L99.7471 202.132C99.7092 202.313 99.6378 202.472 99.5422 202.587C99.4466 202.702 99.3313 202.768 99.2116 202.776H94.3939C90.7396 202.776 89.8501 198.228 90.7396 191.52C91.6279 184.659 93.3736 180.393 96.9699 179.961C101.885 179.372 102.867 184.873 101.683 191.221L101.682 191.223ZM104.985 202.384C104.985 202.384 107.256 193.609 107.774 188.538C108.477 181.751 106.343 171.91 98.0951 171.91C89.8945 171.91 86.334 181.306 84.9756 191.541C83.6185 201.828 85.3976 210.85 93.5501 210.78L105.993 210.707C106.113 210.698 106.227 210.631 106.322 210.514C106.416 210.397 106.485 210.237 106.52 210.055L107.569 203.699C107.586 203.622 107.591 203.539 107.582 203.459C107.574 203.378 107.554 203.302 107.522 203.238C107.491 203.173 107.45 203.122 107.404 203.088C107.357 203.055 107.305 203.041 107.254 203.047H105.247C105.05 203.045 104.939 202.843 104.961 202.576C104.965 202.527 104.973 202.478 104.985 202.427V202.384Z" fill="#131B28"/>
<path id="Vector_11" d="M145.576 196.51C145.576 196.753 145.453 196.95 145.3 196.95C145.147 196.95 145.023 196.753 145.023 196.51C145.023 196.267 145.147 196.07 145.3 196.07C145.453 196.07 145.576 196.267 145.576 196.51Z" fill="#131B28"/>
</g>
<path id="Vector_12" d="M42.3721 185.099C40.1082 190.277 40.3895 197.015 42.1192 202.515L42.2463 202.908L42.3277 203.155L42.377 203.299L42.4671 203.554L42.6324 204.005L42.7262 204.253L42.9174 204.73L42.9988 204.93L43.2764 205.568L43.3307 205.686L43.5836 206.222L43.6786 206.414L43.9254 206.871L44.0142 207.042L44.3399 207.635L44.3597 207.668L44.6903 208.224L44.7964 208.395L45.0604 208.787L45.169 208.95L45.5305 209.474L45.5995 209.567L45.929 210.008L46.0523 210.181L46.3262 210.523L46.4743 210.719L46.7827 211.072L46.9258 211.233L47.2244 211.548L47.3539 211.685L47.8227 212.14L47.9523 212.258L48.3039 212.572L48.4988 212.729L48.7505 212.937L48.8085 212.983L48.9109 213.061L49.3094 213.356L49.3933 213.414L49.8584 213.721L49.9719 213.791L50.4099 214.05L50.4654 214.082L50.9539 214.337L51.0724 214.392L51.5659 214.62C62.5152 217.8 65.6957 204.149 65.6957 204.149C63.0247 209.685 58.2934 211.147 53.7903 209.522C53.62 209.463 53.4547 209.376 53.2894 209.298L53.166 209.239C53.0048 209.16 52.8444 209.077 52.6848 208.99L52.6182 208.95C52.4751 208.872 52.3345 208.785 52.1926 208.699L52.0729 208.624C51.9184 208.527 51.765 208.426 51.6127 208.32L51.5214 208.255L51.1341 207.969L51.0107 207.882C50.9095 207.804 50.8108 207.721 50.7109 207.639L50.511 207.472C50.3902 207.369 50.2705 207.262 50.152 207.152L50.0311 207.044C49.8734 206.896 49.7171 206.744 49.5623 206.589C49.5191 206.546 49.4784 206.498 49.4364 206.455L49.1033 206.102C49.0663 206.063 49.0318 206.023 48.996 205.984L48.6814 205.621L48.542 205.454L48.2582 205.101L48.1312 204.94L47.7771 204.465C47.7647 204.445 47.7524 204.431 47.7401 204.414C47.6142 204.217 47.4909 204.056 47.3675 203.876L47.2626 203.715L46.9949 203.299L46.89 203.132C46.7787 202.951 46.6693 202.767 46.5619 202.58C46.4433 202.374 46.3269 202.164 46.2127 201.952L46.1263 201.787L45.887 201.316L45.8006 201.12L45.5243 200.535C43.042 195.132 42.1451 187.664 44.1524 181.532L42.3721 185.099ZM49.4118 180.737C47.7746 184.467 47.8634 189.506 49.1403 193.469C49.3542 194.136 49.5961 194.779 49.8645 195.393C50.1113 195.953 50.3827 196.618 50.7072 197.068L51.0748 197.657L51.1711 197.808L51.5461 198.363L51.5646 198.389L52.0026 198.966L52.1013 199.09L52.5602 199.62L52.881 199.959L53.2203 200.293L53.2696 200.338L53.5707 200.605L53.678 200.694L53.8877 200.866L53.9198 200.89L54.3578 201.216L54.454 201.279L54.8241 201.51L54.9783 201.6L55.3078 201.783L55.4558 201.862C55.6137 201.94 55.7692 202.058 55.9333 202.081C64.388 204.31 66.3397 193.954 66.3397 193.954C64.5805 197.986 61.1729 199.91 57.5371 198.41L57.0584 198.191L56.9141 198.116L56.581 197.931L56.4292 197.841L56.069 197.609L55.9703 197.545L55.5298 197.219L55.3078 197.023L55.1807 196.918L54.8352 196.604L54.496 196.275L54.1752 195.935L53.7187 195.405L53.6163 195.275C52.0125 193.277 50.7627 190.564 50.1619 187.447C49.545 184.233 49.6684 180.627 50.7578 177.7L49.4118 180.737ZM55.3102 177.478C54.3454 179.735 54.2492 182.543 54.9204 185.042C55.6261 187.692 57.0745 189.753 58.7634 190.735L58.9732 190.852L59.0657 190.9L59.3667 191.037C64.0351 192.47 65.2886 187.225 65.6378 186.453C64.5274 188.993 62.6768 189.604 60.3771 188.721C60.1899 188.642 60.0047 188.552 59.822 188.45C59.5981 188.324 59.3786 188.179 59.1644 188.016C58.7579 187.705 58.3719 187.33 58.0121 186.897C55.9641 184.423 54.681 179.712 56.0295 175.874" fill="#0868AC"/>
</g>
<g id="nuxt">
<g id="Calque 1-2">
<path id="path8" d="M335.669 46.0462C335.811 46.3229 335.922 46.6498 335.995 47.0078C336.069 47.3658 336.103 47.7476 336.096 48.1307V88.2038C336.102 88.6286 336.063 89.0514 335.981 89.4478C335.899 89.8443 335.776 90.2065 335.619 90.5136C335.462 90.8212 335.273 91.0638 335.063 91.2256C334.853 91.3874 334.627 91.4647 334.4 91.4526C334.142 91.4533 333.886 91.3772 333.642 91.2272C333.418 91.0981 333.216 90.858 333.059 90.5323L319.183 56.7311V88.5512C319.195 89.2979 319.048 90.0231 318.774 90.5672C318.501 91.1113 318.123 91.4298 317.723 91.4526C317.693 91.4543 317.662 91.4543 317.632 91.4526C317.429 91.4672 317.226 91.401 317.037 91.2586C316.849 91.1162 316.678 90.9007 316.538 90.6263C316.397 90.35 316.288 90.0242 316.215 89.668C316.143 89.3117 316.109 88.9321 316.116 88.5512V48.3935C316.111 47.9704 316.153 47.5499 316.239 47.1587C316.326 46.7675 316.455 46.4143 316.618 46.1214C316.771 45.828 316.955 45.5972 317.158 45.4437C317.361 45.2901 317.578 45.2171 317.797 45.2293C318.076 45.2269 318.352 45.3258 318.61 45.5205C318.846 45.6907 319.052 45.976 319.208 46.3466L333.024 80.223V48.1307C333.018 47.761 333.051 47.3926 333.121 47.0467C333.192 46.7007 333.297 46.384 333.433 46.1146C333.568 45.8452 333.731 45.6283 333.911 45.4764C334.092 45.3245 334.286 45.2406 334.484 45.2293C334.514 45.2277 334.545 45.2277 334.575 45.2293C334.778 45.2154 334.98 45.2808 335.169 45.4215C335.357 45.5621 335.528 45.7749 335.67 46.0462H335.669ZM364.176 46.0462C364.476 46.6704 364.635 47.4887 364.618 48.3278V73.6788C364.647 76.9555 364.221 80.1902 363.383 83.068C362.59 85.783 361.41 88.0349 359.975 89.5747C358.489 91.1706 356.801 91.9939 355.087 91.9595C353.358 92.0106 351.652 91.204 350.143 89.6217C348.702 88.0882 347.517 85.8355 346.721 83.115C345.883 80.2371 345.457 77.0023 345.486 73.7256V48.3747C345.479 47.9499 345.521 47.5272 345.607 47.1341C345.694 46.7411 345.823 46.3864 345.988 46.0932C346.155 45.7864 346.354 45.5454 346.572 45.3842C346.79 45.223 347.023 45.1448 347.258 45.1543C347.479 45.1547 347.697 45.238 347.901 45.3992C348.104 45.5605 348.288 45.7965 348.442 46.0932C348.604 46.3811 348.733 46.7295 348.819 47.1159C348.906 47.5024 348.948 47.9184 348.944 48.3372V73.6881C348.925 75.8524 349.218 77.9861 349.792 79.8662C350.323 81.618 351.093 83.0752 352.023 84.0895C352.953 85.1039 354.01 85.639 355.087 85.6405C356.187 85.6552 357.27 85.1309 358.228 84.1196C359.195 83.12 360 81.6504 360.557 79.8662C361.14 77.9919 361.438 75.856 361.42 73.6881V48.3372C361.404 47.505 361.554 46.6914 361.842 46.0557C361.988 45.7489 362.169 45.5059 362.371 45.3437C362.573 45.1815 362.792 45.1041 363.011 45.1168C363.23 45.1073 363.446 45.1853 363.647 45.3455C363.848 45.5057 364.028 45.7444 364.176 46.0457L364.176 46.0462ZM391.343 86.701C391.555 87.246 391.666 87.9053 391.659 88.5789C391.668 88.9989 391.628 89.4175 391.541 89.8052C391.455 90.1929 391.324 90.5404 391.157 90.823C390.847 91.3723 390.435 91.678 390.008 91.6773C389.738 91.6964 389.47 91.5856 389.229 91.3555C388.988 91.1253 388.783 90.7836 388.633 90.3628L381.772 73.2276L375.067 90.3346C374.919 90.7625 374.715 91.1134 374.474 91.3546C374.234 91.5959 373.965 91.7198 373.692 91.7148C373.492 91.7231 373.292 91.654 373.107 91.5118C372.921 91.3697 372.753 91.1576 372.613 90.8887C372.475 90.6494 372.364 90.3591 372.288 90.036C372.212 89.7129 372.172 89.3638 372.172 89.0108C372.179 88.2158 372.33 87.4487 372.598 86.8325L379.836 68.4015L372.564 50.1113C372.336 49.5769 372.211 48.9161 372.207 48.2334C372.203 47.8146 372.245 47.3986 372.331 47.0121C372.418 46.6257 372.546 46.2773 372.709 45.9894C372.863 45.6928 373.047 45.4568 373.25 45.2956C373.454 45.1343 373.672 45.051 373.893 45.0505C374.156 45.053 374.415 45.1686 374.651 45.3885C374.9 45.6092 375.113 45.9493 375.268 46.3743L382.049 63.4151L388.764 46.5426C388.91 46.1194 389.107 45.767 389.34 45.514C389.573 45.2611 389.835 45.1149 390.104 45.0873C390.314 45.0894 390.522 45.1741 390.714 45.3358C390.906 45.4975 391.078 45.7327 391.218 46.0262C391.37 46.2812 391.494 46.5917 391.58 46.9387C391.666 47.2858 391.714 47.6621 391.72 48.0446C391.708 48.723 391.585 49.3782 391.369 49.9223L384 68.2706L391.343 86.701ZM416.813 46.0462C416.977 46.3261 417.107 46.669 417.194 47.0515C417.28 47.434 417.322 47.847 417.315 48.2622C417.321 48.6717 417.279 49.0787 417.193 49.4549C417.106 49.8311 416.977 50.1674 416.813 50.4403C416.474 50.9784 416.039 51.2597 415.594 51.2291H409.31V88.289C409.315 88.7077 409.272 89.1235 409.186 89.5099C409.099 89.8962 408.971 90.2446 408.808 90.5329C408.453 91.1255 407.994 91.453 407.518 91.453C407.043 91.453 406.584 91.1255 406.229 90.5329C406.067 90.2436 405.939 89.895 405.853 89.5089C405.766 89.1228 405.723 88.7075 405.727 88.289V51.2291H399.458C399.012 51.2608 398.577 50.968 398.244 50.4123C398.084 50.1283 397.959 49.7836 397.877 49.4016C397.795 49.0195 397.757 48.6089 397.767 48.1974C397.76 47.7961 397.799 47.3966 397.881 47.0257C397.963 46.6549 398.087 46.3212 398.244 46.0471C398.577 45.4913 399.012 45.1986 399.458 45.2302H415.594C416.041 45.1998 416.478 45.4919 416.813 46.0462V46.0462Z" fill="#2C4A5D"/>
<path id="path10" d="M424.542 90.2696C423.4 89.0589 422.449 87.303 421.787 85.181C421.591 84.6562 421.479 84.037 421.466 83.397C421.466 82.9878 421.513 82.5835 421.605 82.2121C421.697 81.8408 421.831 81.5114 421.998 81.2468C422.285 80.6843 422.677 80.3484 423.092 80.3079C423.404 80.3624 423.706 80.5375 423.98 80.8219C424.254 81.1063 424.493 81.494 424.683 81.9604C425.068 83.1472 425.613 84.125 426.263 84.7969C426.912 85.4688 427.644 85.8116 428.387 85.7911C428.993 85.8177 429.597 85.6152 430.161 85.1958C430.725 84.7764 431.238 84.1486 431.669 83.3501C432.104 82.5785 432.449 81.6456 432.68 80.6109C432.912 79.5762 433.026 78.4625 433.014 77.341V48.3935C433.011 47.9708 433.057 47.552 433.148 47.165C433.239 46.778 433.373 46.4318 433.541 46.1496C433.87 45.5436 434.314 45.2059 434.776 45.2106C435.006 45.1896 435.237 45.258 435.453 45.4115C435.669 45.565 435.865 45.8003 436.03 46.1026C436.188 46.401 436.312 46.7563 436.394 47.1469C436.476 47.5375 436.514 47.9553 436.507 48.3747V77.3876C436.52 79.988 436.154 82.546 435.448 84.7862C434.749 87.0188 433.744 88.8627 432.537 90.1287C431.273 91.4685 429.84 92.1555 428.387 92.1192C427.041 92.1459 425.715 91.5079 424.542 90.2696V90.2696ZM448.813 90.7578C447.415 89.7644 446.131 88.2756 445.034 86.3729C444.811 86.0522 444.628 85.6421 444.501 85.1726C444.373 84.7031 444.303 84.186 444.296 83.6594C444.299 83.2579 444.345 82.8615 444.431 82.4937C444.517 82.126 444.642 81.7944 444.798 81.5188C444.947 81.2195 445.127 80.9814 445.328 80.8197C445.528 80.6581 445.744 80.5763 445.963 80.5798C446.334 80.5703 446.694 80.8293 446.966 81.3028C447.814 82.817 448.8 84.0349 449.877 84.8989C450.961 85.7049 452.119 86.1007 453.285 86.0632C454.613 86.1417 455.923 85.4711 457.044 84.1383C457.503 83.6563 457.886 82.9581 458.155 82.113C458.425 81.2679 458.571 80.3056 458.58 79.3217C458.588 78.264 458.452 77.2199 458.183 76.2894C457.914 75.3588 457.522 74.5731 457.044 74.0073C455.635 72.4588 454.088 71.3966 452.477 70.8714C450.434 70.2591 448.508 68.6893 446.876 66.3082C446.219 65.2136 445.701 63.856 445.363 62.3363C445.024 60.8165 444.872 59.1736 444.919 57.5292C444.891 55.0751 445.278 52.6671 446.023 50.647C446.781 48.6418 447.824 47.074 449.035 46.1214C450.418 45.0291 451.909 44.4887 453.411 44.5347C454.819 44.5179 456.217 44.966 457.541 45.8585C458.709 46.5957 459.78 47.7896 460.683 49.3608C460.921 49.6891 461.117 50.1119 461.258 50.5989C461.398 51.0858 461.48 51.6249 461.496 52.1775C461.496 52.5713 461.453 52.9612 461.372 53.324C461.29 53.6869 461.17 54.0153 461.019 54.2901C460.875 54.5919 460.697 54.832 460.499 54.994C460.301 55.156 460.086 55.2361 459.87 55.2289C459.574 55.25 459.284 55.0582 459.062 54.693C458.329 53.4082 457.463 52.4204 456.517 51.7918C455.537 51.0527 454.492 50.6642 453.436 50.6463C452.112 50.5192 450.8 51.1552 449.676 52.4683C449.247 53.0009 448.894 53.7242 448.65 54.5737C448.407 55.4232 448.279 56.3724 448.279 57.3366C448.279 58.3008 448.407 59.25 448.65 60.0995C448.894 60.949 449.247 61.6723 449.676 62.2049C450.962 63.6078 452.365 64.5923 453.827 65.1165C455.379 65.688 456.894 66.5727 458.344 67.7549C459.438 68.6603 460.374 70.1248 461.044 71.9801C461.723 74.1128 462.052 76.5706 461.993 79.05C462.012 81.4873 461.611 83.8714 460.848 85.8479C460.046 87.886 458.966 89.4844 457.722 90.4768C456.353 91.5969 454.874 92.1601 453.38 92.1293C451.826 92.1831 450.28 91.7187 448.813 90.7578V90.7578Z" fill="#00C391"/>
<path id="path12" d="M266.816 90.9081C266.78 90.7898 266.748 90.6675 266.72 90.5419C266.528 89.7088 266.468 88.7891 266.55 87.8942H255.162L272.085 32.1785L277.641 50.4499L279.252 45.1169L274.409 29.1551C274.177 28.3375 273.839 27.6418 273.426 27.1317C273.013 26.6216 272.538 26.3133 272.045 26.2351C271.553 26.2772 271.078 26.5768 270.672 27.0996C270.267 27.6225 269.948 28.3477 269.752 29.1928L252.607 85.5844C252.351 86.3806 252.203 87.2825 252.177 88.2107C252.151 89.1389 252.247 90.065 252.457 90.9074C252.721 91.6851 253.095 92.3093 253.539 92.7093C253.982 93.1093 254.477 93.2692 254.966 93.1709H269.325C268.835 93.2708 268.341 93.1117 267.897 92.7117C267.454 92.3117 267.079 91.6868 266.816 90.9081V90.9081Z" fill="#00C492"/>
<path id="path14" d="M299.829 85.5845L285.741 39.1547C285.51 38.3284 285.172 37.6243 284.757 37.1074C284.342 36.5905 283.864 36.2775 283.367 36.1973C282.876 36.2369 282.4 36.5344 281.994 37.0557C281.589 37.577 281.27 38.3011 281.074 39.1455L279.252 45.117L280.873 50.45L283.382 42.1406L297.32 87.8943H292.02C292.088 88.6506 292.05 89.427 291.909 90.1476C291.88 90.3068 291.843 90.4608 291.799 90.6078L291.754 90.7767C291.466 91.5375 291.082 92.1538 290.637 92.5713C290.191 92.9888 289.697 93.1945 289.199 93.1703H297.49C297.988 93.1954 298.482 92.9901 298.928 92.5725C299.374 92.155 299.757 91.5382 300.045 90.7767C300.272 89.9601 300.372 89.0407 300.334 88.1229C300.296 87.2051 300.121 86.3257 299.829 85.5845Z" fill="#008776"/>
<path id="path16" d="M291.755 90.7764L291.801 90.6074C291.845 90.4604 291.882 90.3065 291.911 90.1473C292.051 89.4266 292.089 88.6503 292.021 87.894C291.943 87.0782 291.787 86.2956 291.56 85.5842L280.885 50.4497L279.254 45.1167L277.633 50.4497L266.963 85.5851C266.756 86.305 266.617 87.0864 266.551 87.8949C266.466 88.787 266.52 89.7066 266.707 90.5426C266.735 90.6682 266.767 90.7905 266.803 90.9088C267.066 91.6864 267.441 92.3104 267.885 92.7103C268.328 93.1102 268.823 93.27 269.312 93.1716H289.186C289.687 93.1991 290.183 92.9948 290.631 92.577C291.08 92.1591 291.466 91.5406 291.755 90.7764V90.7764ZM279.254 55.7827L289.01 87.894H269.502L279.254 55.7827Z" fill="#2D4A5D"/>
</g>
</g>
</g>
</svg>
