<svg width="2395" height="1737" viewBox="0 0 2395 1737" fill="none" xmlns="http://www.w3.org/2000/svg">
<g id="javascript">
<g id="vuejs">
<path id="path893" fill-rule="evenodd" clip-rule="evenodd" d="M360.473 0.0727539H425.602L261.148 353.452L95.6113 0.0727539H162.222L261.148 212.814L360.473 0.0727539Z" fill="#41B883"/>
<path id="path895" fill-rule="evenodd" clip-rule="evenodd" d="M298.92 0H360.864L261.059 213.184L162.056 0H223.031L261.059 82.0726L298.92 0Z" fill="#35495E"/>
<path id="path897" fill-rule="evenodd" clip-rule="evenodd" d="M464.462 69.7655C464.462 67.1586 465.622 64.9862 467.944 63.2481C470.265 61.5101 472.691 60.6411 475.223 60.6411C478.74 60.6411 480.92 62.2922 481.765 65.5945L518.902 220.446L555.829 65.5945C556.813 62.2923 558.923 60.6411 562.159 60.6411C564.832 60.6411 567.328 61.597 569.65 63.5087C571.971 65.4205 573.131 67.5929 573.131 70.0262C573.131 70.2 573.097 70.4607 573.026 70.8082C572.955 71.1558 572.92 71.5035 572.92 71.851L530.086 245.212C528.538 250.252 524.811 252.772 518.902 252.772C512.994 252.772 509.407 250.252 508.141 245.212L464.886 71.8511C464.605 70.8083 464.464 70.1131 464.464 69.7655H464.462ZM574.794 203.239V135.46C574.794 133.375 575.673 131.55 577.432 129.986C579.19 128.421 581.265 127.639 583.656 127.639C585.907 127.639 587.912 128.465 589.67 130.116C591.429 131.767 592.308 133.548 592.308 135.46V203.239C592.308 211.059 594.699 218.098 599.482 224.355C604.265 230.611 609.962 233.74 616.574 233.74C623.045 233.74 628.672 230.655 633.454 224.485C638.237 218.315 640.629 211.233 640.629 203.239V135.195C640.629 133.284 641.508 131.546 643.266 129.982C645.025 128.417 647.1 127.635 649.491 127.635C652.023 127.635 654.098 128.374 655.716 129.851C657.334 131.329 658.143 133.11 658.143 135.195V203.239C658.143 216.621 654.028 228.308 645.799 238.302C637.57 248.295 627.828 253.292 616.574 253.292C605.18 253.292 595.368 248.295 587.139 238.302C578.909 228.308 574.795 216.621 574.795 203.239H574.794ZM672.463 202.717V175.344C672.463 161.962 676.577 150.405 684.807 140.672C693.036 130.94 702.918 126.074 714.453 126.074C725.426 126.074 734.921 130.636 742.939 139.76C750.958 148.884 754.967 160.311 754.967 174.041C754.967 179.081 754.475 183.122 753.49 186.164C752.505 189.205 750.993 191.377 748.953 192.681C746.914 193.985 745.014 194.81 743.256 195.158C741.498 195.505 739.141 195.679 736.187 195.679H689.975V203.5C689.975 213.059 692.754 220.706 698.31 226.441C703.867 232.176 711.076 235.044 719.939 235.044C724.581 235.044 728.625 234.175 732.072 232.437C735.518 230.699 738.296 229.004 740.406 227.354C742.517 225.703 744.205 224.877 745.471 224.877C747.44 224.877 749.128 225.963 750.535 228.136C751.942 230.308 752.645 232.524 752.645 234.783C752.645 238.78 749.445 242.865 743.044 247.036C736.644 251.207 728.731 253.292 719.306 253.292C705.52 253.292 694.266 248.643 685.544 239.345C676.823 230.047 672.462 217.838 672.462 202.718L672.463 202.717ZM689.976 181.08H729.013C732.67 181.08 735.132 180.515 736.398 179.385C737.665 178.256 738.297 176.04 738.297 172.738C738.297 164.917 735.976 158.052 731.334 152.143C726.692 146.234 720.995 143.279 714.242 143.279C707.631 143.279 701.933 146.017 697.151 151.491C692.368 156.965 689.976 163.7 689.976 171.695L689.976 181.08ZM763.804 239.214C763.804 235.39 764.859 232.131 766.969 229.438C769.079 226.744 771.681 225.397 774.776 225.397C777.73 225.397 780.262 226.744 782.372 229.438C784.482 232.132 785.537 235.39 785.537 239.214C785.537 242.863 784.482 246.035 782.372 248.729C780.262 251.423 777.73 252.77 774.776 252.77C771.681 252.77 769.079 251.423 766.969 248.729C764.859 246.035 763.804 242.864 763.804 239.214ZM779.392 301.52C779.392 298.739 780.095 296.437 781.502 294.612C782.909 292.787 784.597 291.874 786.566 291.874C792.052 291.874 795.64 289.354 797.328 284.314C799.016 279.275 799.86 271.715 799.86 261.634V135.197C799.86 132.938 800.669 131.113 802.287 129.723C803.904 128.332 805.979 127.637 808.511 127.637C811.043 127.637 813.153 128.333 814.842 129.723C816.53 131.113 817.374 132.938 817.374 135.197V261.634C817.374 276.755 814.982 288.746 810.199 297.61C805.416 306.473 798.172 310.905 788.466 310.905C782.417 310.905 779.392 307.777 779.392 301.52L779.392 301.52ZM797.539 81.2337C797.539 77.9316 798.594 75.0642 800.704 72.6309C802.814 70.1977 805.416 68.9812 808.511 68.9812C811.465 68.9812 813.997 70.1978 816.107 72.6309C818.217 75.064 819.272 77.9317 819.272 81.2337C819.272 84.5358 818.217 87.447 816.107 89.967C813.997 92.487 811.465 93.7471 808.511 93.7471C805.557 93.7471 802.99 92.4871 800.809 89.967C798.629 87.447 797.538 84.5358 797.538 81.2337H797.539ZM830.429 233.477C830.429 231.217 831.027 229.001 832.223 226.829C833.419 224.657 834.861 223.571 836.548 223.571C837.674 223.571 839.292 224.613 841.402 226.699C843.512 228.784 846.536 230.827 850.475 232.825C854.414 234.824 859.056 235.823 864.401 235.823C871.435 235.823 876.534 234.259 879.699 231.131C882.864 228.002 884.447 224.092 884.447 219.399C884.447 213.664 882.689 209.102 879.172 205.713C875.655 202.324 871.364 199.76 866.3 198.022C861.236 196.285 856.172 194.373 851.107 192.287C846.043 190.202 841.753 186.725 838.236 181.859C834.719 176.993 832.961 170.563 832.961 162.568C832.961 152.662 835.809 144.102 841.506 136.89C847.203 129.678 855.89 126.071 867.566 126.071C875.022 126.071 881.844 127.505 888.034 130.373C894.223 133.24 897.318 136.499 897.318 140.148C897.318 142.234 896.65 144.58 895.313 147.187C893.977 149.794 892.324 151.098 890.354 151.098C889.792 151.098 887.084 149.838 882.231 147.317C877.377 144.797 872.56 143.537 867.777 143.537C861.306 143.537 856.488 145.406 853.323 149.142C850.158 152.879 848.575 157.094 848.575 161.786C848.575 166.652 850.333 170.476 853.85 173.256C857.367 176.037 861.693 178.21 866.827 179.774C871.962 181.338 877.061 183.25 882.125 185.509C887.19 187.769 891.48 191.635 894.997 197.11C898.514 202.585 900.272 209.667 900.272 218.357C900.272 229.132 897.178 237.648 890.988 243.904C884.798 250.161 876.147 253.289 865.034 253.289C855.468 253.289 847.309 251.16 840.557 246.902C833.805 242.644 830.429 238.169 830.429 233.476L830.429 233.477Z" fill="#010101"/>
</g>
<g id="jslogo">
<path id="Vector" d="M680.556 636.264H1116.85V1079.83H680.556V636.264Z" fill="#F7DF1E"/>
<path id="Vector_2" d="M795.273 1006.94L828.66 986.397C835.102 998.008 840.961 1007.83 855.016 1007.83C868.489 1007.83 876.984 1002.47 876.984 981.634V839.904H917.984V982.223C917.984 1025.4 893.091 1045.05 856.773 1045.05C823.975 1045.05 804.936 1027.78 795.271 1006.94L795.273 1006.94ZM940.254 1002.47L973.637 982.823C982.426 997.413 993.848 1008.13 1014.05 1008.13C1031.04 1008.13 1041.88 999.496 1041.88 987.586C1041.88 973.294 1030.75 968.232 1012 959.897L1001.76 955.427C972.175 942.628 952.553 926.548 952.553 892.605C952.553 861.341 975.982 837.52 1012.59 837.52C1038.66 837.52 1057.4 846.751 1070.87 870.869L1038.95 891.713C1031.92 878.91 1024.3 873.849 1012.59 873.849C1000.58 873.849 992.967 881.591 992.967 891.713C992.967 904.218 1000.58 909.282 1018.15 917.024L1028.4 921.489C1063.25 936.676 1082.88 952.158 1082.88 986.991C1082.88 1024.51 1053.88 1045.05 1014.93 1045.05C976.86 1045.05 952.258 1026.59 940.252 1002.47" fill="black"/>
</g>
<g id="jquery">
<g id="Group">
<path id="Vector_3" d="M477.663 1460.8L470.512 1506.33L477.663 1460.78V1460.8ZM514.444 1559.69L506.566 1559.61L514.444 1559.69ZM512.506 1627.72L465.299 1628.04L512.506 1627.72ZM522.389 1559.8L514.502 1559.71L522.389 1559.8ZM516.653 1621.98L524.889 1565.6L516.653 1621.98ZM690.481 1362.46L675.172 1491.92L690.481 1362.46ZM651.103 1362.29L639.476 1459L651.103 1362.29Z" fill="#131B28"/>
<path id="Vector_4" d="M687.749 1356.49H654.999C653.177 1356.49 651.375 1359.1 650.987 1362.3L627.733 1555.76C627.345 1558.94 625.543 1561.56 623.731 1561.56H600.544C577.6 1561.56 580.254 1533.04 585.041 1493.98L585.186 1492.79L587.967 1466.14L589.169 1455.17L599.75 1362.3C600.118 1359.1 598.926 1356.47 597.104 1356.47H563.482C562.555 1356.53 561.664 1357.12 560.944 1358.17C560.223 1359.22 559.713 1360.67 559.49 1362.29L544.152 1491.42C535.819 1559.76 538.028 1624.94 583.297 1626.97H655.648C657.469 1626.97 659.262 1624.36 659.65 1621.16L690.288 1362.23C690.675 1359.03 689.483 1356.42 687.671 1356.42L687.749 1356.49ZM818.362 1562.23C820.184 1562.23 821.269 1564.85 821.008 1568.05L817.829 1596.01L818.362 1562.23ZM814.729 1623.96L817.907 1595.99L814.729 1623.96ZM810.853 1629.85L750.488 1630.37L810.853 1629.85Z" fill="#131B28"/>
<path id="Vector_5" d="M730.841 1526.23C730.812 1523.17 732.75 1517.91 734.571 1517.91L730.482 1517.79C728.544 1551.12 730.841 1526.23 730.841 1526.23V1526.23ZM753.369 1630.34H752.739H753.369ZM818.365 1562.41C820.187 1562.41 821.272 1565.02 821.011 1568.23L817.397 1600.55L818.365 1562.41ZM768.872 1630.28H768.736H768.872ZM760.83 1630.34H760.365H760.83ZM758.388 1630.34H757.613H758.388ZM755.888 1630.34H755.21H755.888ZM760.365 1630.34H758.378H760.365Z" fill="#131B28"/>
<path id="Vector_6" d="M768.756 1630.28L760.85 1630.34L768.756 1630.28ZM810.779 1629.81L768.873 1630.27L810.779 1629.81ZM814.655 1623.98L817.32 1600.57L814.655 1624V1623.98ZM757.526 1630.34H755.802H757.526ZM752.633 1630.37H750.308H752.633ZM755.094 1630.34H753.156H755.094ZM275.875 1526.93L280.961 1486.38L275.148 1532.71L274.47 1538.53L275.884 1526.9L275.875 1526.93ZM336.802 1355.81H300.825C299.895 1355.87 299.002 1356.47 298.275 1357.51C297.548 1358.56 297.025 1359.99 296.784 1361.61L289.963 1415.6C289.848 1416.3 289.829 1417.04 289.907 1417.75C289.985 1418.47 290.158 1419.14 290.411 1419.71C290.664 1420.28 290.99 1420.73 291.36 1421.02C291.731 1421.32 292.136 1421.45 292.54 1421.4H328.798C330.62 1421.4 332.422 1418.79 332.81 1415.6L339.398 1361.48C339.786 1358.3 338.623 1355.68 336.782 1355.68L336.802 1355.81ZM329.05 1445.85L318.392 1533.6L329.05 1445.85ZM224.54 1736.58L254.209 1737C245.45 1737 230.983 1736.7 224.53 1736.56L224.54 1736.58Z" fill="#131B28"/>
<path id="Vector_7" d="M286.15 1445.84L281.053 1486.38L286.15 1445.84ZM326.458 1440.02H290.287C289.358 1440.09 288.464 1440.68 287.737 1441.73C287.01 1442.77 286.488 1444.2 286.247 1445.82L276.073 1526.91L274.658 1538.55L264.969 1621.33C264.489 1625.19 263.907 1629.01 263.225 1632.78C263.225 1632.78 256.442 1669 245.067 1668.6L233.779 1668.22C232.853 1668.27 231.959 1668.84 231.227 1669.86C230.496 1670.88 229.964 1672.3 229.709 1673.9L222.19 1730.71C222.071 1731.41 222.047 1732.14 222.12 1732.86C222.193 1733.57 222.361 1734.25 222.609 1734.82C222.857 1735.39 223.178 1735.85 223.545 1736.16C223.913 1736.46 224.315 1736.6 224.719 1736.56L254.398 1737C282.846 1737 297.835 1708.66 307.457 1627.15L329.258 1446.01C329.646 1442.82 328.464 1440.21 326.642 1440.21L326.458 1440.02ZM841.548 1627.03C839.726 1627.03 838.641 1624.42 838.932 1621.21L866.227 1391.55L841.548 1627.03ZM879.463 1621.21L890.509 1523.19L879.463 1621.21Z" fill="#131B28"/>
<path id="Vector_8" d="M839.343 1624.14C839.12 1622.53 839.246 1618.61 839.634 1615.43L852.579 1506.4L838.936 1621.23C838.548 1624.43 839.731 1627.04 841.552 1627.04H844.866C843.044 1627.04 839.556 1625.74 839.343 1624.14V1624.14ZM877.326 1625.74C876.337 1626.43 874.031 1627.04 872.209 1627.04H875.523C876.448 1626.98 877.336 1626.37 878.052 1625.32C878.769 1624.27 879.276 1622.83 879.496 1621.21L880.155 1615.39C879.796 1618.6 878.217 1625.02 877.248 1625.74H877.326ZM885 1572.2L889.873 1528.93L885 1572.2ZM992.63 1406.94L994.132 1418.09C994.548 1421.28 993.395 1423.87 991.583 1423.89" fill="#131B28"/>
<path id="Vector_9" d="M880.131 1615.39L884.976 1572.2L880.131 1615.39ZM991.123 1395.5L992.606 1406.93L991.123 1395.5ZM889.869 1528.97L891.206 1517.4L896.409 1473.6L890.518 1523.2L889.869 1528.95V1528.97ZM866.663 1387.78L865.529 1397.36L852.584 1506.4L866.227 1391.56L866.663 1387.8V1387.78Z" fill="#131B28"/>
<path id="Vector_10" d="M994.131 1418.09L992.629 1406.94L990.401 1389.53C987.455 1368.97 978.812 1357.08 960.034 1357.08L873.605 1356.97C872.678 1357.03 871.787 1357.63 871.066 1358.68C870.346 1359.73 869.835 1361.17 869.612 1362.79L868.275 1374.16L866.337 1391.36L839.75 1615.22C839.362 1618.42 839.236 1622.19 839.459 1623.93C839.682 1625.67 843.17 1626.84 844.982 1626.84H872.306C874.128 1626.84 876.424 1626.24 877.422 1625.53C878.42 1624.82 879.883 1618.56 880.329 1615.18L890.697 1522.98L901.791 1429.55C902.179 1426.36 903.971 1423.77 905.783 1423.75L991.757 1423.68C993.569 1423.68 994.722 1421.07 994.306 1417.88L994.131 1418.09ZM1104.8 1317.18L1098.19 1317.23H1070.67C1069.66 1317.34 1068.68 1317.83 1067.79 1318.68C1066.89 1319.52 1066.11 1320.7 1065.49 1322.14L1004.64 1482.38C1003.62 1485.08 1002.44 1484.68 1002.03 1481.51L997.552 1446.2C997.311 1444.59 996.788 1443.15 996.061 1442.11C995.334 1441.07 994.441 1440.47 993.511 1440.4H954.395C952.573 1440.4 951.488 1442.96 951.992 1446.12L969.433 1556.51C969.937 1559.64 969.966 1564.81 969.53 1568L961.778 1621.42C961.646 1622.1 961.611 1622.84 961.677 1623.55C961.743 1624.27 961.906 1624.94 962.154 1625.52C962.401 1626.09 962.724 1626.54 963.093 1626.83C963.463 1627.12 963.867 1627.24 964.269 1627.18H1003.03C1004.85 1627.18 1006.71 1624.57 1007.15 1621.44L1014.91 1568.02C1015.51 1564.26 1016.46 1560.7 1017.72 1557.5L1116.51 1321.81C1117.6 1319.2 1117.01 1317.07 1115.19 1317.11L1104.82 1317.23L1104.8 1317.18ZM794.006 1455.43C793.773 1458.92 791.952 1461.53 790.13 1461.53H740.52C738.805 1461.53 737.933 1459.44 738.195 1456.83L738.234 1456.36L738.456 1454.84C743.301 1432.2 752.845 1417.34 770.974 1417.34C791.39 1417.34 795.372 1435.28 793.986 1455.43H794.006ZM779.472 1352.53C715.812 1352.53 700.726 1421.99 692.267 1492.1C683.798 1563.56 684.535 1630.39 750.403 1630.39H760.849L768.891 1630.34L810.807 1629.88C811.727 1629.81 812.608 1629.2 813.319 1628.15C814.03 1627.09 814.532 1625.66 814.751 1624.05L821.117 1568.11C821.485 1564.9 820.293 1562.29 818.472 1562.29H759.26C735.714 1562.29 728.709 1551.04 731.286 1517.96H825.952C827.502 1517.91 828.907 1516.22 829.46 1513.57C829.556 1513.1 829.653 1512.6 829.692 1512.09C843.742 1416.82 839.711 1352.6 779.501 1352.6L779.472 1352.53ZM478.557 1455.07L477.665 1460.76C477.665 1460.78 470.515 1506.33 470.515 1506.33L463.364 1551.85C463.067 1553.46 462.506 1554.87 461.755 1555.89C461.004 1556.91 460.099 1557.49 459.159 1557.57H421.321C392.621 1557.57 385.635 1517.21 392.621 1457.7C399.598 1396.82 413.308 1358.98 441.553 1355.15C480.156 1349.92 487.868 1398.72 478.567 1455.05L478.557 1455.07ZM504.505 1554.08C504.505 1554.08 522.334 1476.23 526.403 1431.24C531.926 1371.03 515.164 1283.72 450.39 1283.72C385.984 1283.72 358.02 1367.08 347.352 1457.89C336.694 1549.16 350.666 1629.2 414.694 1628.58L512.421 1627.93C513.358 1627.85 514.259 1627.25 514.999 1626.22C515.74 1625.18 516.284 1623.76 516.559 1622.15L524.795 1565.75C524.928 1565.07 524.964 1564.34 524.901 1563.62C524.837 1562.91 524.675 1562.23 524.43 1561.66C524.185 1561.09 523.864 1560.63 523.496 1560.34C523.128 1560.04 522.725 1559.92 522.324 1559.97H506.559C505.009 1559.95 504.137 1558.16 504.311 1555.79C504.34 1555.36 504.408 1554.92 504.505 1554.47V1554.08Z" fill="#131B28"/>
<path id="Vector_11" d="M823.304 1501.97C823.304 1504.13 822.335 1505.87 821.133 1505.87C819.932 1505.87 818.963 1504.13 818.963 1501.97C818.963 1499.81 819.932 1498.07 821.133 1498.07C822.335 1498.07 823.304 1499.81 823.304 1501.97Z" fill="#131B28"/>
</g>
<path id="Vector_12" d="M12.7551 1400.73C-5.02503 1446.67 -2.81584 1506.45 10.7687 1555.25L11.7667 1558.74L12.4062 1560.93L12.7938 1562.2L13.5012 1564.47L14.7995 1568.47L15.5359 1570.67L17.0378 1574.9L17.6773 1576.68L19.8574 1582.34L20.2838 1583.38L22.2701 1588.14L23.0162 1589.84L24.9541 1593.9L25.6517 1595.42L28.2097 1600.68L28.3647 1600.97L30.9615 1605.9L31.7948 1607.42L33.8683 1610.9L34.721 1612.35L37.56 1617L38.1026 1617.81L40.6897 1621.73L41.6586 1623.27L43.8097 1626.3L44.9724 1628.04L47.3948 1631.17L48.5187 1632.6L50.8636 1635.39L51.881 1636.61L55.563 1640.65L56.5803 1641.69L59.3418 1644.48L60.8728 1645.87L62.8494 1647.72L63.3048 1648.12L64.109 1648.82L67.2387 1651.43L67.8976 1651.95L71.5505 1654.67L72.4419 1655.3L75.8817 1657.6L76.3177 1657.87L80.1547 1660.14L81.0849 1660.63L84.9607 1662.65C170.954 1690.86 195.934 1569.74 195.934 1569.74C174.956 1618.86 137.797 1631.84 102.431 1617.41C101.094 1616.89 99.7952 1616.13 98.4968 1615.43L97.5279 1614.91C96.2617 1614.21 95.0019 1613.47 93.749 1612.69L93.2258 1612.35C92.1018 1611.65 90.9972 1610.88 89.8829 1610.12L88.943 1609.45C87.7293 1608.59 86.5244 1607.69 85.3289 1606.75L84.6119 1606.18L81.5694 1603.64L80.6004 1602.87C79.8059 1602.17 79.0308 1601.44 78.2459 1600.71L76.6762 1599.23C75.7271 1598.31 74.787 1597.37 73.8566 1596.39L72.907 1595.43C71.6685 1594.12 70.4411 1592.77 69.2251 1591.39C68.8859 1591.01 68.5662 1590.59 68.2367 1590.21L65.6206 1587.07C65.3299 1586.72 65.0586 1586.38 64.7776 1586.03L62.3068 1582.81L61.2119 1581.33L58.9833 1578.19L57.9853 1576.76L55.2044 1572.55C55.1076 1572.37 55.0107 1572.25 54.9138 1572.09C53.9254 1570.35 52.9565 1568.92 51.9876 1567.32L51.164 1565.89L49.0614 1562.2L48.2378 1560.72C47.3633 1559.12 46.504 1557.48 45.6604 1555.83C44.729 1554 43.8148 1552.14 42.9183 1550.25L42.24 1548.79L40.3602 1544.61L39.682 1542.87L37.5116 1537.68C18.0164 1489.75 10.9722 1423.49 26.7369 1369.08L12.7551 1400.73ZM68.0429 1362.03C55.1851 1395.12 55.8827 1439.83 65.9113 1474.99C67.5908 1480.91 69.491 1486.61 71.599 1492.06C73.5369 1497.03 75.6685 1502.93 78.2168 1506.92L81.1043 1512.14L81.8601 1513.49L84.8057 1518.41L84.951 1518.64L88.3907 1523.76L89.1659 1524.86L92.7704 1529.56L95.2896 1532.57L97.9542 1535.54L98.3418 1535.94L100.706 1538.31L101.549 1539.09L103.196 1540.62L103.448 1540.83L106.888 1543.72L107.644 1544.28L110.55 1546.33L111.762 1547.14L114.349 1548.76L115.511 1549.45C116.752 1550.15 117.973 1551.19 119.261 1551.4C185.663 1571.17 200.992 1479.3 200.992 1479.3C187.174 1515.07 160.412 1532.14 131.858 1518.83L128.098 1516.88L126.964 1516.22L124.348 1514.58L123.156 1513.78L120.327 1511.73L119.552 1511.15L116.093 1508.26L114.349 1506.52L113.351 1505.6L110.638 1502.81L107.973 1499.88L105.454 1496.87L101.869 1492.17L101.065 1491.02C88.4683 1473.29 78.6529 1449.22 73.9341 1421.56C69.0894 1393.05 70.0583 1361.05 78.6141 1335.08L68.0429 1362.03ZM114.368 1333.11C106.791 1353.14 106.035 1378.05 111.306 1400.22C116.849 1423.73 128.224 1442.02 141.489 1450.73L143.136 1451.78L143.863 1452.19L146.227 1453.41C182.892 1466.13 192.736 1419.59 195.478 1412.74C186.758 1435.28 172.224 1440.7 154.163 1432.86C152.692 1432.16 151.238 1431.36 149.802 1430.46C148.044 1429.34 146.321 1428.05 144.638 1426.61C141.445 1423.85 138.414 1420.52 135.588 1416.68C119.503 1394.74 109.426 1352.93 120.017 1318.88" fill="#0868AC"/>
</g>
<g id="nuxt">
<g id="Calque 1-2">
<path id="path8" d="M1816.46 627.207C1817.11 628.439 1817.61 629.895 1817.95 631.488C1818.29 633.082 1818.44 634.782 1818.41 636.488V814.898C1818.44 816.789 1818.26 818.671 1817.88 820.436C1817.51 822.201 1816.95 823.814 1816.23 825.181C1815.51 826.551 1814.64 827.631 1813.68 828.351C1812.72 829.071 1811.68 829.416 1810.64 829.362C1809.46 829.365 1808.29 829.026 1807.17 828.358C1806.15 827.783 1805.22 826.714 1804.51 825.265L1740.96 674.778V816.444C1741.01 819.769 1740.34 822.997 1739.09 825.42C1737.83 827.842 1736.1 829.26 1734.27 829.362C1734.13 829.369 1733.99 829.369 1733.85 829.362C1732.92 829.426 1731.99 829.132 1731.13 828.498C1730.27 827.864 1729.49 826.905 1728.84 825.683C1728.2 824.453 1727.7 823.002 1727.37 821.416C1727.04 819.83 1726.88 818.14 1726.91 816.444V637.658C1726.89 635.774 1727.08 633.902 1727.48 632.16C1727.87 630.419 1728.46 628.846 1729.21 627.542C1729.91 626.236 1730.75 625.208 1731.68 624.525C1732.61 623.841 1733.61 623.516 1734.61 623.57C1735.89 623.559 1737.15 624 1738.34 624.867C1739.41 625.624 1740.36 626.895 1741.07 628.545L1804.35 779.366V636.488C1804.32 634.842 1804.47 633.202 1804.79 631.661C1805.11 630.121 1805.6 628.711 1806.22 627.512C1806.84 626.312 1807.58 625.347 1808.41 624.67C1809.23 623.994 1810.12 623.62 1811.03 623.57C1811.17 623.563 1811.31 623.563 1811.45 623.57C1812.38 623.508 1813.3 623.8 1814.16 624.426C1815.03 625.052 1815.81 626 1816.46 627.207H1816.46ZM1947.01 627.207C1948.38 629.986 1949.11 633.63 1949.03 637.365V750.231C1949.16 764.819 1947.21 779.22 1943.38 792.032C1939.74 804.12 1934.34 814.146 1927.77 821.001C1920.96 828.106 1913.23 831.772 1905.38 831.619C1897.46 831.846 1889.65 828.255 1882.74 821.21C1876.14 814.383 1870.72 804.354 1867.07 792.242C1863.23 779.429 1861.28 765.027 1861.41 750.439V637.574C1861.38 635.683 1861.57 633.801 1861.97 632.051C1862.37 630.301 1862.96 628.722 1863.71 627.416C1864.48 626.051 1865.39 624.978 1866.39 624.26C1867.39 623.542 1868.45 623.194 1869.53 623.236C1870.54 623.238 1871.54 623.609 1872.47 624.327C1873.4 625.045 1874.25 626.095 1874.95 627.416C1875.69 628.698 1876.28 630.249 1876.68 631.97C1877.08 633.69 1877.27 635.542 1877.25 637.407V750.272C1877.17 759.908 1878.51 769.407 1881.13 777.777C1883.57 785.577 1887.09 792.065 1891.35 796.581C1895.61 801.096 1900.45 803.479 1905.38 803.486C1910.42 803.551 1915.38 801.217 1919.77 796.714C1924.2 792.264 1927.88 785.721 1930.43 777.777C1933.1 769.433 1934.47 759.924 1934.39 750.272V637.407C1934.31 633.702 1935 630.08 1936.32 627.249C1936.99 625.884 1937.82 624.802 1938.74 624.08C1939.67 623.358 1940.67 623.013 1941.67 623.069C1942.67 623.027 1943.67 623.374 1944.58 624.087C1945.5 624.801 1946.33 625.864 1947.01 627.205L1947.01 627.207ZM2071.42 808.207C2072.39 810.634 2072.9 813.569 2072.87 816.568C2072.91 818.437 2072.73 820.301 2072.33 822.027C2071.93 823.754 2071.33 825.3 2070.57 826.558C2069.15 829.004 2067.26 830.365 2065.31 830.362C2064.07 830.447 2062.84 829.954 2061.74 828.929C2060.64 827.905 2059.7 826.383 2059.01 824.51L2027.59 748.222L1996.88 824.384C1996.2 826.289 1995.27 827.851 1994.17 828.926C1993.07 830 1991.84 830.551 1990.59 830.529C1989.67 830.566 1988.76 830.258 1987.91 829.625C1987.06 828.993 1986.29 828.048 1985.65 826.851C1985.01 825.786 1984.5 824.493 1984.16 823.055C1983.81 821.616 1983.63 820.062 1983.62 818.491C1983.66 814.951 1984.35 811.536 1985.58 808.792L2018.72 726.736L1985.42 645.306C1984.38 642.926 1983.8 639.984 1983.79 636.945C1983.77 635.08 1983.96 633.228 1984.35 631.508C1984.75 629.787 1985.34 628.236 1986.08 626.954C1986.79 625.634 1987.63 624.583 1988.56 623.865C1989.49 623.147 1990.49 622.776 1991.51 622.774C1992.71 622.785 1993.9 623.3 1994.98 624.279C1996.12 625.261 1997.09 626.776 1997.8 628.668L2028.86 704.535L2059.61 629.417C2060.28 627.533 2061.18 625.964 2062.25 624.838C2063.32 623.712 2064.51 623.061 2065.75 622.938C2066.71 622.948 2067.66 623.324 2068.54 624.044C2069.42 624.764 2070.21 625.811 2070.85 627.118C2071.55 628.253 2072.11 629.636 2072.51 631.181C2072.9 632.726 2073.12 634.401 2073.15 636.104C2073.09 639.124 2072.53 642.042 2071.54 644.464L2037.79 726.153L2071.42 808.207ZM2188.06 627.207C2188.82 628.453 2189.41 629.98 2189.81 631.683C2190.2 633.386 2190.39 635.225 2190.36 637.073C2190.39 638.896 2190.2 640.708 2189.8 642.383C2189.4 644.058 2188.81 645.555 2188.06 646.77C2186.51 649.166 2184.52 650.418 2182.48 650.282H2153.7V815.277C2153.72 817.141 2153.53 818.992 2153.13 820.712C2152.74 822.432 2152.15 823.984 2151.4 825.267C2149.78 827.905 2147.68 829.363 2145.5 829.363C2143.32 829.363 2141.22 827.905 2139.59 825.267C2138.85 823.979 2138.26 822.427 2137.87 820.708C2137.47 818.989 2137.28 817.14 2137.29 815.277V650.282H2108.59C2106.54 650.423 2104.55 649.12 2103.02 646.646C2102.29 645.381 2101.72 643.847 2101.34 642.146C2100.97 640.445 2100.79 638.616 2100.84 636.784C2100.81 634.998 2100.99 633.219 2101.36 631.568C2101.74 629.917 2102.31 628.432 2103.02 627.211C2104.55 624.737 2106.54 623.434 2108.59 623.574H2182.48C2184.53 623.439 2186.53 624.739 2188.06 627.207V627.207Z" fill="#2C4A5D"/>
<path id="path10" d="M2223.46 824.095C2218.23 818.705 2213.87 810.887 2210.84 801.439C2209.94 799.103 2209.43 796.346 2209.37 793.497C2209.37 791.675 2209.59 789.875 2210.01 788.222C2210.43 786.569 2211.04 785.102 2211.81 783.924C2213.12 781.42 2214.92 779.924 2216.82 779.744C2218.25 779.987 2219.63 780.766 2220.89 782.032C2222.14 783.299 2223.24 785.025 2224.11 787.101C2225.87 792.385 2228.36 796.738 2231.34 799.73C2234.31 802.721 2237.67 804.247 2241.07 804.156C2243.85 804.274 2246.61 803.373 2249.19 801.506C2251.77 799.638 2254.12 796.843 2256.1 793.288C2258.09 789.853 2259.67 785.699 2260.73 781.093C2261.79 776.486 2262.31 771.528 2262.26 766.535V637.657C2262.25 635.776 2262.45 633.911 2262.87 632.188C2263.29 630.465 2263.9 628.924 2264.67 627.668C2266.18 624.969 2268.21 623.466 2270.33 623.487C2271.38 623.393 2272.44 623.698 2273.43 624.381C2274.42 625.065 2275.32 626.112 2276.07 627.458C2276.79 628.786 2277.36 630.368 2277.74 632.107C2278.11 633.847 2278.29 635.707 2278.26 637.574V766.742C2278.32 778.32 2276.64 789.708 2273.41 799.682C2270.2 809.621 2265.6 817.831 2260.08 823.467C2254.28 829.432 2247.72 832.491 2241.07 832.329C2234.9 832.448 2228.83 829.608 2223.46 824.095V824.095ZM2334.61 826.268C2328.21 821.845 2322.33 815.217 2317.31 806.746C2316.28 805.319 2315.45 803.493 2314.86 801.402C2314.28 799.312 2313.96 797.01 2313.93 794.665C2313.94 792.878 2314.15 791.113 2314.54 789.476C2314.94 787.838 2315.51 786.362 2316.23 785.135C2316.91 783.803 2317.73 782.743 2318.65 782.023C2319.57 781.303 2320.56 780.939 2321.56 780.954C2323.26 780.912 2324.91 782.065 2326.15 784.174C2330.04 790.915 2334.55 796.337 2339.48 800.184C2344.45 803.772 2349.75 805.534 2355.09 805.367C2361.17 805.717 2367.17 802.731 2372.31 796.798C2374.41 794.652 2376.16 791.543 2377.39 787.781C2378.63 784.018 2379.3 779.734 2379.34 775.353C2379.38 770.644 2378.75 765.996 2377.52 761.853C2376.29 757.71 2374.49 754.212 2372.31 751.693C2365.85 744.799 2358.77 740.07 2351.39 737.732C2342.04 735.006 2333.21 728.017 2325.74 717.416C2322.73 712.542 2320.36 706.498 2318.81 699.732C2317.26 692.966 2316.56 685.652 2316.78 678.331C2316.65 667.405 2318.42 656.684 2321.83 647.69C2325.31 638.763 2330.08 631.783 2335.63 627.542C2341.96 622.679 2348.79 620.273 2355.67 620.478C2362.11 620.403 2368.52 622.398 2374.58 626.371C2379.93 629.653 2384.84 634.969 2388.97 641.964C2390.06 643.426 2390.96 645.308 2391.6 647.476C2392.25 649.644 2392.62 652.044 2392.69 654.504C2392.69 656.258 2392.5 657.993 2392.12 659.609C2391.75 661.224 2391.2 662.687 2390.51 663.91C2389.85 665.253 2389.04 666.322 2388.13 667.044C2387.22 667.765 2386.24 668.122 2385.25 668.09C2383.89 668.183 2382.57 667.33 2381.55 665.704C2378.19 659.983 2374.22 655.586 2369.89 652.787C2365.41 649.497 2360.62 647.767 2355.78 647.687C2349.72 647.121 2343.71 649.953 2338.56 655.799C2336.6 658.17 2334.98 661.39 2333.87 665.172C2332.75 668.954 2332.17 673.18 2332.17 677.473C2332.17 681.766 2332.75 685.992 2333.87 689.774C2334.98 693.556 2336.6 696.776 2338.56 699.147C2344.45 705.393 2350.88 709.776 2357.57 712.11C2364.68 714.655 2371.62 718.593 2378.26 723.857C2383.27 727.888 2387.56 734.408 2390.62 742.668C2393.73 752.163 2395.24 763.105 2394.97 774.144C2395.06 784.995 2393.22 795.609 2389.73 804.409C2386.05 813.483 2381.11 820.599 2375.41 825.017C2369.14 830.004 2362.37 832.511 2355.53 832.374C2348.41 832.614 2341.33 830.546 2334.61 826.268V826.268Z" fill="#00C391"/>
<path id="path12" d="M1501.14 826.938C1500.97 826.411 1500.83 825.866 1500.7 825.307C1499.82 821.598 1499.55 817.503 1499.92 813.519H1447.77L1525.27 565.467L1550.71 646.813L1558.09 623.07L1535.91 552.006C1534.85 548.366 1533.3 545.269 1531.41 542.998C1529.52 540.727 1527.35 539.354 1525.09 539.006C1522.83 539.194 1520.66 540.527 1518.8 542.855C1516.94 545.183 1515.48 548.411 1514.58 552.174L1436.07 803.236C1434.9 806.781 1434.22 810.796 1434.1 814.929C1433.98 819.061 1434.42 823.184 1435.38 826.934C1436.59 830.397 1438.3 833.176 1440.34 834.957C1442.37 836.738 1444.63 837.45 1446.87 837.012H1512.63C1510.39 837.457 1508.12 836.748 1506.09 834.967C1504.06 833.186 1502.34 830.404 1501.14 826.938V826.938Z" fill="#00C492"/>
<path id="path14" d="M1652.33 803.236L1587.81 596.525C1586.75 592.847 1585.2 589.712 1583.3 587.411C1581.4 585.109 1579.21 583.716 1576.94 583.358C1574.69 583.535 1572.51 584.859 1570.65 587.18C1568.79 589.501 1567.33 592.725 1566.44 596.484L1558.09 623.07L1565.52 646.813L1577.01 609.819L1640.83 813.519H1616.56C1616.87 816.887 1616.7 820.343 1616.06 823.552C1615.92 824.26 1615.75 824.946 1615.55 825.6L1615.34 826.352C1614.03 829.739 1612.27 832.483 1610.23 834.342C1608.19 836.201 1605.93 837.117 1603.65 837.009H1641.62C1643.9 837.121 1646.16 836.206 1648.2 834.347C1650.24 832.489 1652 829.742 1653.31 826.352C1654.35 822.716 1654.81 818.623 1654.64 814.537C1654.46 810.451 1653.66 806.536 1652.33 803.236Z" fill="#008776"/>
<path id="path16" d="M1615.35 826.352L1615.56 825.599C1615.76 824.945 1615.93 824.259 1616.06 823.551C1616.71 820.342 1616.88 816.886 1616.57 813.519C1616.21 809.887 1615.5 806.403 1614.45 803.235L1565.57 646.812L1558.1 623.069L1550.68 646.812L1501.81 803.239C1500.86 806.444 1500.23 809.923 1499.93 813.523C1499.53 817.495 1499.78 821.589 1500.64 825.311C1500.77 825.87 1500.91 826.414 1501.08 826.941C1502.28 830.403 1504 833.181 1506.03 834.961C1508.06 836.742 1510.33 837.453 1512.57 837.015H1603.58C1605.88 837.138 1608.15 836.228 1610.2 834.368C1612.26 832.508 1614.02 829.754 1615.35 826.352V826.352ZM1558.1 670.556L1602.78 813.519H1513.44L1558.1 670.556Z" fill="#2D4A5D"/>
</g>
</g>
</g>
</svg>
