<svg width="462" height="227" viewBox="0 0 462 227" fill="none" xmlns="http://www.w3.org/2000/svg">
<g id="javascript">
<g id="vuejs">
<path id="path893" fill-rule="evenodd" clip-rule="evenodd" d="M105.366 109.453H110.441L97.6276 148.156L84.73 109.453H89.9199L97.6276 132.753L105.366 109.453Z" fill="#41B883"/>
<path id="path895" fill-rule="evenodd" clip-rule="evenodd" d="M100.57 109.445H105.397L97.6205 132.794L89.9067 109.445H94.6576L97.6205 118.434L100.57 109.445Z" fill="#35495E"/>
<path id="path897" fill-rule="evenodd" clip-rule="evenodd" d="M113.469 117.086C113.469 116.8 113.56 116.562 113.741 116.372C113.921 116.181 114.11 116.086 114.308 116.086C114.582 116.086 114.752 116.267 114.817 116.629L117.711 133.589L120.588 116.629C120.665 116.267 120.829 116.086 121.081 116.086C121.289 116.086 121.484 116.191 121.665 116.4C121.846 116.61 121.936 116.848 121.936 117.114C121.936 117.133 121.933 117.162 121.928 117.2C121.922 117.238 121.92 117.276 121.92 117.314L118.582 136.301C118.462 136.853 118.171 137.129 117.711 137.129C117.251 137.129 116.971 136.853 116.872 136.301L113.502 117.314C113.48 117.2 113.469 117.124 113.469 117.086H113.469ZM122.066 131.704V124.281C122.066 124.052 122.134 123.852 122.271 123.681C122.408 123.51 122.57 123.424 122.756 123.424C122.932 123.424 123.088 123.514 123.225 123.695C123.362 123.876 123.43 124.071 123.43 124.281V131.704C123.43 132.561 123.617 133.331 123.989 134.017C124.362 134.702 124.806 135.045 125.321 135.045C125.825 135.045 126.263 134.707 126.636 134.031C127.009 133.355 127.195 132.58 127.195 131.704V124.252C127.195 124.042 127.264 123.852 127.401 123.681C127.538 123.509 127.699 123.424 127.886 123.424C128.083 123.424 128.245 123.505 128.371 123.666C128.497 123.828 128.56 124.023 128.56 124.252V131.704C128.56 133.17 128.239 134.45 127.598 135.544C126.957 136.639 126.198 137.186 125.321 137.186C124.433 137.186 123.669 136.639 123.027 135.544C122.386 134.45 122.066 133.17 122.066 131.704H122.066ZM129.675 131.647V128.649C129.675 127.183 129.996 125.917 130.637 124.851C131.278 123.786 132.048 123.253 132.947 123.253C133.802 123.253 134.542 123.752 135.167 124.752C135.791 125.751 136.104 127.002 136.104 128.506C136.104 129.058 136.065 129.501 135.989 129.834C135.912 130.167 135.794 130.405 135.635 130.548C135.476 130.69 135.328 130.781 135.191 130.819C135.054 130.857 134.871 130.876 134.64 130.876H131.04V131.733C131.04 132.78 131.256 133.617 131.689 134.245C132.122 134.873 132.684 135.187 133.374 135.187C133.736 135.187 134.051 135.092 134.32 134.902C134.588 134.712 134.805 134.526 134.969 134.345C135.134 134.164 135.265 134.074 135.364 134.074C135.517 134.074 135.649 134.193 135.758 134.431C135.868 134.669 135.923 134.911 135.923 135.159C135.923 135.597 135.673 136.044 135.175 136.501C134.676 136.958 134.059 137.186 133.325 137.186C132.251 137.186 131.374 136.677 130.695 135.659C130.015 134.64 129.675 133.303 129.675 131.647L129.675 131.647ZM131.04 129.277H134.081C134.366 129.277 134.558 129.215 134.657 129.092C134.756 128.968 134.805 128.725 134.805 128.363C134.805 127.507 134.624 126.755 134.262 126.108C133.901 125.461 133.457 125.137 132.931 125.137C132.415 125.137 131.972 125.437 131.599 126.036C131.226 126.636 131.04 127.374 131.04 128.249L131.04 129.277ZM136.792 135.644C136.792 135.225 136.874 134.868 137.039 134.573C137.203 134.278 137.406 134.131 137.647 134.131C137.877 134.131 138.074 134.278 138.239 134.573C138.403 134.868 138.485 135.225 138.485 135.644C138.485 136.044 138.403 136.391 138.239 136.686C138.074 136.981 137.877 137.129 137.647 137.129C137.406 137.129 137.203 136.981 137.039 136.686C136.874 136.391 136.792 136.044 136.792 135.644ZM138.007 142.468C138.007 142.164 138.061 141.911 138.171 141.712C138.281 141.512 138.412 141.412 138.566 141.412C138.993 141.412 139.273 141.136 139.404 140.584C139.536 140.032 139.601 139.204 139.601 138.1V124.252C139.601 124.004 139.664 123.805 139.79 123.652C139.917 123.5 140.078 123.424 140.275 123.424C140.473 123.424 140.637 123.5 140.769 123.652C140.9 123.805 140.966 124.004 140.966 124.252V138.1C140.966 139.756 140.78 141.069 140.407 142.04C140.034 143.011 139.47 143.496 138.714 143.496C138.242 143.496 138.007 143.153 138.007 142.468L138.007 142.468ZM139.421 118.342C139.421 117.98 139.503 117.666 139.667 117.399C139.832 117.133 140.034 117 140.275 117C140.506 117 140.703 117.133 140.867 117.399C141.032 117.666 141.114 117.98 141.114 118.342C141.114 118.703 141.032 119.022 140.867 119.298C140.703 119.574 140.506 119.712 140.275 119.712C140.045 119.712 139.845 119.574 139.675 119.298C139.505 119.022 139.421 118.703 139.421 118.342H139.421ZM141.983 135.016C141.983 134.768 142.03 134.526 142.123 134.288C142.216 134.05 142.328 133.931 142.46 133.931C142.548 133.931 142.674 134.045 142.838 134.273C143.003 134.502 143.238 134.726 143.545 134.944C143.852 135.163 144.214 135.273 144.63 135.273C145.178 135.273 145.575 135.101 145.822 134.759C146.069 134.416 146.192 133.988 146.192 133.474C146.192 132.846 146.055 132.346 145.781 131.975C145.507 131.604 145.173 131.323 144.778 131.133C144.383 130.942 143.989 130.733 143.594 130.505C143.2 130.276 142.865 129.895 142.591 129.362C142.317 128.829 142.18 128.125 142.18 127.25C142.18 126.165 142.402 125.227 142.846 124.437C143.29 123.647 143.967 123.252 144.877 123.252C145.458 123.252 145.989 123.409 146.471 123.723C146.954 124.038 147.195 124.394 147.195 124.794C147.195 125.023 147.143 125.28 147.039 125.565C146.934 125.851 146.806 125.993 146.652 125.993C146.608 125.993 146.397 125.855 146.019 125.579C145.641 125.303 145.266 125.165 144.893 125.165C144.389 125.165 144.014 125.37 143.767 125.779C143.52 126.188 143.397 126.65 143.397 127.164C143.397 127.697 143.534 128.116 143.808 128.42C144.082 128.725 144.419 128.963 144.819 129.134C145.219 129.305 145.616 129.515 146.011 129.762C146.406 130.01 146.74 130.433 147.014 131.033C147.288 131.632 147.425 132.408 147.425 133.36C147.425 134.54 147.184 135.473 146.702 136.158C146.219 136.843 145.545 137.186 144.679 137.186C143.934 137.186 143.298 136.953 142.772 136.486C142.246 136.02 141.983 135.53 141.983 135.016L141.983 135.016Z" fill="#010101"/>
</g>
<g id="jslogo">
<path id="Vector" d="M82.9463 156.268H144.487V227H82.9463V156.268Z" fill="#F7DF1E"/>
<path id="Vector_2" d="M99.1291 215.376L103.838 212.1C104.747 213.951 105.574 215.518 107.556 215.518C109.456 215.518 110.655 214.664 110.655 211.34V188.74H116.438V211.434C116.438 218.319 112.927 221.453 107.804 221.453C103.178 221.453 100.492 218.699 99.1289 215.375L99.1291 215.376ZM119.579 214.663L124.288 211.53C125.528 213.857 127.139 215.566 129.989 215.566C132.385 215.566 133.913 214.189 133.913 212.289C133.913 210.011 132.344 209.203 129.7 207.874L128.254 207.161C124.082 205.12 121.314 202.556 121.314 197.144C121.314 192.158 124.619 188.36 129.783 188.36C133.459 188.36 136.103 189.832 138.003 193.678L133.5 197.001C132.509 194.96 131.435 194.153 129.782 194.153C128.089 194.153 127.015 195.387 127.015 197.001C127.015 198.995 128.089 199.803 130.567 201.037L132.013 201.75C136.929 204.171 139.697 206.64 139.697 212.195C139.697 218.178 135.607 221.453 130.113 221.453C124.743 221.453 121.273 218.51 119.579 214.664" fill="black"/>
</g>
<g id="jquery">
<g id="Group">
<path id="Vector_3" d="M178.541 33.3191L178.098 35.7151L178.541 33.3182V33.3191ZM180.815 38.5236L180.328 38.519L180.815 38.5236ZM180.695 42.1039L177.776 42.1204L180.695 42.1039ZM181.307 38.5291L180.819 38.5245L181.307 38.5291ZM180.952 41.8014L181.461 38.8343L180.952 41.8014ZM191.702 28.1439L190.756 34.9571L191.702 28.1439ZM189.267 28.1348L188.548 33.2247L189.267 28.1348Z" fill="#131B28"/>
<path id="Vector_4" d="M191.534 27.8296H189.509C189.396 27.8296 189.285 27.9671 189.261 28.1357L187.823 38.3165C187.799 38.4842 187.687 38.6217 187.575 38.6217H186.141C184.722 38.6217 184.886 37.1212 185.182 35.0653L185.191 35.003L185.363 33.6006L185.438 33.0231L186.092 28.1357C186.115 27.9671 186.041 27.8287 185.928 27.8287H183.849C183.792 27.8317 183.736 27.8632 183.692 27.9185C183.647 27.9737 183.616 28.0497 183.602 28.1348L182.653 34.9305C182.138 38.5273 182.275 41.9573 185.074 42.0645H189.549C189.662 42.0645 189.772 41.927 189.796 41.7584L191.691 28.1321C191.715 27.9634 191.642 27.8259 191.529 27.8259L191.534 27.8296ZM199.612 38.6575C199.725 38.6575 199.792 38.795 199.776 38.9636L199.579 40.4348L199.612 38.6575ZM199.387 41.9059L199.584 40.4339L199.387 41.9059ZM199.148 42.2157L195.414 42.2432L199.148 42.2157Z" fill="#131B28"/>
<path id="Vector_5" d="M194.201 36.7627C194.199 36.6013 194.319 36.3245 194.432 36.3245L194.179 36.3181C194.059 38.0725 194.201 36.7627 194.201 36.7627V36.7627ZM195.594 42.2412H195.555H195.594ZM199.614 38.6665C199.727 38.6665 199.794 38.804 199.778 38.9726L199.554 40.6738L199.614 38.6665ZM196.553 42.2385H196.545H196.553ZM196.056 42.2412H196.027H196.056ZM195.905 42.2412H195.857H195.905ZM195.75 42.2412H195.708H195.75ZM196.027 42.2412H195.904H196.027Z" fill="#131B28"/>
<path id="Vector_6" d="M196.545 42.2386L196.056 42.2413L196.545 42.2386ZM199.144 42.2138L196.552 42.2377L199.144 42.2138ZM199.383 41.9068L199.548 40.6749L199.383 41.9077V41.9068ZM195.85 42.2413H195.744H195.85ZM195.548 42.2432H195.404H195.548ZM195.7 42.2413H195.58H195.7ZM166.062 36.7994L166.377 34.6656L166.017 37.1037L165.975 37.4099L166.063 36.7976L166.062 36.7994ZM169.83 27.7938H167.605C167.548 27.7972 167.492 27.8287 167.447 27.8836C167.403 27.9385 167.37 28.014 167.355 28.099L166.933 30.9405C166.926 30.9773 166.925 31.0161 166.93 31.0537C166.935 31.0914 166.946 31.1267 166.961 31.1566C166.977 31.1866 166.997 31.2103 167.02 31.2258C167.043 31.2413 167.068 31.2482 167.093 31.2457H169.335C169.448 31.2457 169.559 31.1082 169.583 30.9405L169.991 28.0926C170.015 27.9248 169.943 27.7874 169.829 27.7874L169.83 27.7938ZM169.351 32.5326L168.692 37.1505L169.351 32.5326ZM162.887 47.8326L164.722 47.8546C164.18 47.8546 163.286 47.8391 162.887 47.8317L162.887 47.8326Z" fill="#131B28"/>
<path id="Vector_7" d="M166.697 32.5319L166.382 34.6657L166.697 32.5319ZM169.19 32.2257H166.953C166.896 32.2292 166.84 32.2606 166.796 32.3156C166.751 32.3705 166.718 32.446 166.703 32.531L166.074 36.7987L165.987 37.411L165.387 41.7676C165.358 41.9708 165.322 42.1718 165.28 42.3698C165.28 42.3698 164.86 44.2764 164.157 44.2553L163.458 44.2351C163.401 44.2376 163.346 44.2679 163.301 44.3216C163.255 44.3753 163.223 44.4497 163.207 44.5339L162.742 47.5239C162.734 47.5605 162.733 47.5992 162.737 47.6368C162.742 47.6744 162.752 47.7098 162.768 47.74C162.783 47.7702 162.803 47.7943 162.826 47.8103C162.848 47.8263 162.873 47.8337 162.898 47.8319L164.734 47.8548C166.493 47.8548 167.42 46.3635 168.015 42.0738L169.363 32.541C169.387 32.3733 169.314 32.2358 169.202 32.2358L169.19 32.2257ZM201.046 42.0673C200.934 42.0673 200.867 41.9298 200.885 41.7612L202.573 29.6748L201.046 42.0673ZM203.391 41.7612L204.074 36.6025L203.391 41.7612Z" fill="#131B28"/>
<path id="Vector_8" d="M200.91 41.9152C200.896 41.8309 200.904 41.6246 200.928 41.4569L201.728 35.7189L200.884 41.7621C200.86 41.9308 200.934 42.0683 201.046 42.0683H201.251C201.139 42.0683 200.923 41.9995 200.91 41.9152V41.9152ZM203.259 41.9995C203.198 42.0362 203.055 42.0683 202.942 42.0683H203.147C203.204 42.0648 203.259 42.033 203.304 41.9776C203.348 41.9222 203.379 41.8462 203.393 41.7612L203.434 41.4551C203.411 41.6237 203.314 41.9619 203.254 41.9995H203.259ZM203.733 39.1819L204.035 36.905L203.733 39.1819ZM210.39 30.4851L210.483 31.0717C210.508 31.2395 210.437 31.376 210.325 31.377" fill="#131B28"/>
<path id="Vector_9" d="M203.433 41.4548L203.732 39.1816L203.433 41.4548ZM210.297 29.8826L210.389 30.4839L210.297 29.8826ZM204.035 36.9066L204.118 36.298L204.439 33.9927L204.075 36.6032L204.035 36.9057V36.9066ZM202.6 29.4766L202.53 29.9807L201.729 35.7187L202.573 29.6755L202.6 29.4775V29.4766Z" fill="#131B28"/>
<path id="Vector_10" d="M210.484 31.0716L210.392 30.485L210.254 29.5684C210.072 28.4868 209.537 27.8607 208.376 27.8607L203.03 27.8552C202.973 27.8583 202.918 27.8898 202.873 27.945C202.829 28.0003 202.797 28.0762 202.783 28.1614L202.701 28.7599L202.581 29.6646L200.937 41.4458C200.913 41.6144 200.905 41.8124 200.919 41.9041C200.932 41.9957 201.148 42.0572 201.26 42.0572H202.95C203.063 42.0572 203.205 42.026 203.266 41.9884C203.328 41.9508 203.419 41.6218 203.446 41.444L204.087 36.5914L204.774 31.6748C204.798 31.507 204.908 31.3704 205.02 31.3695L210.338 31.3659C210.45 31.3659 210.521 31.2284 210.495 31.0606L210.484 31.0716ZM217.329 25.7608L216.92 25.7636H215.218C215.156 25.7692 215.095 25.7952 215.04 25.8398C214.984 25.8844 214.936 25.9465 214.898 26.022L211.135 34.4548C211.071 34.5969 210.999 34.5758 210.973 34.409L210.696 32.551C210.681 32.466 210.649 32.3906 210.604 32.3356C210.559 32.2807 210.504 32.2492 210.446 32.2458H208.027C207.914 32.2458 207.847 32.3805 207.878 32.5464L208.957 38.3559C208.988 38.5209 208.99 38.7931 208.963 38.9609L208.484 41.7721C208.475 41.8081 208.473 41.8467 208.477 41.8844C208.481 41.922 208.491 41.9575 208.507 41.9877C208.522 42.0178 208.542 42.0416 208.565 42.057C208.588 42.0723 208.613 42.0787 208.638 42.0755H211.035C211.147 42.0755 211.262 41.938 211.29 41.773L211.769 38.9618C211.807 38.7638 211.866 38.5768 211.943 38.4081L218.053 26.0046C218.121 25.8671 218.084 25.7553 217.971 25.7571L217.33 25.7636L217.329 25.7608ZM198.108 33.0368C198.093 33.2202 197.98 33.3576 197.868 33.3576H194.8C194.694 33.3576 194.64 33.2476 194.656 33.1102L194.658 33.0854L194.672 33.0057C194.972 31.8141 195.562 31.0322 196.683 31.0322C197.946 31.0322 198.192 31.9763 198.106 33.0368H198.108ZM197.209 27.6215C193.272 27.6215 192.339 31.2769 191.815 34.9663C191.292 38.7271 191.337 42.2441 195.411 42.2441H196.057L196.554 42.2414L199.147 42.2176C199.203 42.2135 199.258 42.1814 199.302 42.1261C199.346 42.0707 199.377 41.9951 199.391 41.9105L199.784 38.9664C199.807 38.7977 199.733 38.6602 199.621 38.6602H195.959C194.502 38.6602 194.069 38.0681 194.229 36.3274H200.083C200.179 36.3247 200.266 36.2358 200.3 36.0965C200.306 36.0717 200.312 36.0451 200.315 36.0186C201.183 31.0047 200.934 27.6252 197.21 27.6252L197.209 27.6215ZM178.598 33.0176L178.543 33.3173C178.543 33.3182 178.101 35.7152 178.101 35.7152L177.659 38.1112C177.64 38.1956 177.606 38.2696 177.559 38.3233C177.513 38.377 177.457 38.4078 177.399 38.4118H175.059C173.284 38.4118 172.852 36.288 173.284 33.156C173.715 29.9524 174.563 27.9607 176.31 27.759C178.697 27.484 179.174 30.0524 178.599 33.0167L178.598 33.0176ZM180.203 38.2285C180.203 38.2285 181.306 34.1313 181.557 31.7637C181.899 28.595 180.862 24 176.856 24C172.873 24 171.144 28.3869 170.484 33.1661C169.825 37.9691 170.689 42.1818 174.649 42.1488L180.693 42.1149C180.751 42.1107 180.806 42.0792 180.852 42.0247C180.898 41.9702 180.932 41.8954 180.949 41.8106L181.458 38.8426C181.466 38.8067 181.468 38.7682 181.465 38.7305C181.461 38.6929 181.451 38.6574 181.435 38.6272C181.42 38.597 181.4 38.573 181.378 38.5575C181.355 38.542 181.33 38.5354 181.305 38.5383H180.33C180.234 38.5374 180.18 38.443 180.191 38.3183C180.193 38.2954 180.197 38.2725 180.203 38.2487V38.2285Z" fill="#131B28"/>
<path id="Vector_11" d="M199.919 35.4861C199.919 35.5997 199.859 35.6914 199.784 35.6914C199.709 35.6914 199.649 35.5997 199.649 35.4861C199.649 35.3724 199.709 35.2808 199.784 35.2808C199.859 35.2808 199.919 35.3724 199.919 35.4861Z" fill="#131B28"/>
</g>
<path id="Vector_12" d="M149.789 30.1585C148.689 32.5765 148.826 35.7223 149.666 38.2906L149.728 38.4739L149.767 38.5894L149.791 38.6563L149.835 38.7755L149.915 38.9863L149.961 39.1018L150.054 39.3245L150.093 39.418L150.228 39.7159L150.254 39.7709L150.377 40.0212L150.423 40.111L150.543 40.3246L150.586 40.4043L150.745 40.6811L150.754 40.6967L150.915 40.9561L150.966 41.0358L151.095 41.2192L151.147 41.2952L151.323 41.54L151.356 41.5831L151.516 41.7893L151.576 41.87L151.709 42.0294L151.781 42.1211L151.931 42.2861L152.001 42.3613L152.146 42.5079L152.209 42.5721L152.436 42.7847L152.499 42.8397L152.67 42.9864L152.765 43.0597L152.887 43.1569L152.915 43.1779L152.965 43.2146L153.158 43.3521L153.199 43.3796L153.425 43.5226L153.48 43.5556L153.693 43.6766L153.72 43.6913L153.957 43.8104L154.015 43.8361L154.254 43.9424C159.573 45.4273 161.118 39.0532 161.118 39.0532C159.82 41.638 157.522 42.3209 155.335 41.562C155.252 41.5345 155.172 41.4941 155.092 41.4575L155.032 41.43C154.953 41.3931 154.875 41.3543 154.798 41.3136L154.766 41.2952C154.696 41.2586 154.628 41.2182 154.559 41.1779L154.501 41.1431C154.426 41.0978 154.351 41.0504 154.277 41.001L154.233 40.9708L154.045 40.8369L153.985 40.7966C153.936 40.7599 153.888 40.7214 153.839 40.6829L153.742 40.605C153.683 40.5568 153.625 40.507 153.568 40.4556L153.509 40.4052C153.432 40.3361 153.356 40.2652 153.281 40.1926C153.26 40.1724 153.241 40.1504 153.22 40.1302L153.058 39.9652C153.04 39.9469 153.024 39.9286 153.006 39.9102L152.853 39.7407L152.786 39.6628L152.648 39.4978L152.586 39.4226L152.414 39.2008C152.408 39.1916 152.402 39.1852 152.396 39.177C152.335 39.0853 152.275 39.0101 152.215 38.9258L152.164 38.8506L152.034 38.6563L151.983 38.5784C151.929 38.4939 151.876 38.4081 151.824 38.3208C151.766 38.2245 151.71 38.1268 151.654 38.0275L151.612 37.9505L151.496 37.7305L151.454 37.6389L151.32 37.3657C150.114 34.8432 149.679 31.3565 150.654 28.493L149.789 30.1585ZM153.208 28.1218C152.413 29.8633 152.456 32.2162 153.076 34.0669C153.18 34.3781 153.298 34.6782 153.428 34.9651C153.548 35.2264 153.68 35.5371 153.837 35.747L154.016 36.022L154.063 36.0926L154.245 36.352L154.254 36.3639L154.467 36.6334L154.515 36.6911L154.737 36.9386L154.893 37.0972L155.058 37.253L155.082 37.2741L155.228 37.3987L155.28 37.44L155.382 37.5206L155.398 37.5316L155.611 37.6838L155.657 37.7131L155.837 37.8213L155.912 37.8635L156.072 37.9487L156.144 37.9854C156.221 38.022 156.296 38.077 156.376 38.088C160.482 39.1284 161.43 34.2933 161.43 34.2933C160.576 36.176 158.921 37.0743 157.155 36.374L156.922 36.2713L156.852 36.2365L156.69 36.1503L156.617 36.1082L156.442 36L156.394 35.9697L156.18 35.8176L156.072 35.7259L156.01 35.6773L155.842 35.5307L155.678 35.3767L155.522 35.2181L155.3 34.9706L155.25 34.9101C154.471 33.977 153.864 32.7103 153.573 31.2547C153.273 29.7542 153.333 28.0704 153.862 26.7038L153.208 28.1218ZM156.073 26.6002C155.605 27.6543 155.558 28.965 155.884 30.1319C156.227 31.3693 156.93 32.3317 157.75 32.79L157.852 32.845L157.897 32.867L158.044 32.9312C160.311 33.6003 160.92 31.1511 161.089 30.7909C160.55 31.977 159.651 32.2621 158.534 31.8496C158.443 31.8129 158.353 31.7707 158.265 31.7231C158.156 31.6642 158.049 31.5966 157.945 31.5205C157.748 31.3752 157.56 31.2002 157.386 30.9981C156.391 29.8431 155.768 27.6433 156.423 25.8513" fill="#0868AC"/>
</g>
<g id="nuxt">
<g id="Calque 1-2">
<path id="path8" d="M143.245 72.2465C143.287 72.3616 143.319 72.4977 143.34 72.6467C143.361 72.7958 143.371 72.9547 143.369 73.1142V89.7945C143.371 89.9714 143.36 90.1474 143.336 90.3124C143.312 90.4774 143.276 90.6282 143.231 90.756C143.185 90.884 143.13 90.985 143.069 91.0524C143.008 91.1197 142.943 91.1519 142.877 91.1469C142.802 91.1472 142.728 91.1155 142.657 91.053C142.592 90.9993 142.533 90.8993 142.487 90.7638L138.458 76.6941V89.9392C138.462 90.25 138.419 90.5518 138.339 90.7783C138.26 91.0048 138.15 91.1374 138.034 91.1469C138.026 91.1475 138.017 91.1475 138.008 91.1469C137.949 91.1529 137.89 91.1254 137.835 91.0661C137.78 91.0068 137.731 90.9171 137.69 90.8029C137.649 90.6879 137.617 90.5523 137.596 90.404C137.575 90.2557 137.566 90.0977 137.568 89.9392V73.2235C137.566 73.0474 137.578 72.8724 137.603 72.7096C137.628 72.5467 137.666 72.3997 137.713 72.2778C137.758 72.1557 137.811 72.0596 137.87 71.9957C137.929 71.9318 137.992 71.9014 138.056 71.9065C138.137 71.9054 138.217 71.9466 138.292 72.0277C138.36 72.0985 138.42 72.2173 138.465 72.3715L142.477 86.4726V73.1142C142.476 72.9602 142.485 72.8069 142.506 72.6629C142.526 72.5189 142.557 72.3871 142.596 72.2749C142.635 72.1628 142.682 72.0725 142.735 72.0093C142.787 71.9461 142.844 71.9111 142.901 71.9065C142.91 71.9058 142.919 71.9058 142.928 71.9065C142.987 71.9006 143.045 71.9279 143.1 71.9864C143.155 72.045 143.204 72.1336 143.245 72.2465H143.245ZM151.523 72.2465C151.61 72.5063 151.656 72.8469 151.651 73.1962V83.7485C151.659 85.1124 151.536 86.4589 151.293 87.6568C151.062 88.7869 150.72 89.7242 150.303 90.3652C149.871 91.0295 149.381 91.3722 148.884 91.3579C148.381 91.3791 147.886 91.0434 147.448 90.3847C147.03 89.7464 146.686 88.8087 146.454 87.6763C146.211 86.4784 146.087 85.1319 146.096 83.768V73.2157C146.094 73.0389 146.106 72.8629 146.131 72.6993C146.156 72.5357 146.194 72.3881 146.242 72.266C146.29 72.1384 146.348 72.038 146.411 71.9709C146.475 71.9038 146.542 71.8713 146.61 71.8752C146.674 71.8754 146.738 71.91 146.797 71.9772C146.856 72.0443 146.909 72.1425 146.954 72.266C147.001 72.3859 147.039 72.5309 147.064 72.6917C147.089 72.8526 147.101 73.0258 147.1 73.2001V83.7524C147.095 84.6533 147.18 85.5414 147.346 86.324C147.5 87.0532 147.724 87.6598 147.994 88.082C148.264 88.5042 148.571 88.727 148.884 88.7276C149.203 88.7337 149.518 88.5154 149.796 88.0945C150.077 87.6784 150.31 87.0667 150.472 86.324C150.641 85.5439 150.728 84.6548 150.723 83.7524V73.2001C150.718 72.8537 150.762 72.515 150.845 72.2504C150.888 72.1227 150.94 72.0216 150.999 71.9541C151.057 71.8866 151.121 71.8543 151.185 71.8596C151.248 71.8557 151.311 71.8881 151.369 71.9548C151.428 72.0215 151.48 72.1209 151.523 72.2462L151.523 72.2465ZM159.411 89.169C159.473 89.3959 159.505 89.6703 159.503 89.9507C159.506 90.1255 159.494 90.2997 159.469 90.4611C159.444 90.6225 159.406 90.7671 159.357 90.8848C159.267 91.1134 159.148 91.2407 159.024 91.2404C158.945 91.2483 158.867 91.2022 158.797 91.1064C158.728 91.0106 158.668 90.8684 158.624 90.6932L156.632 83.5607L154.685 90.6815C154.642 90.8596 154.583 91.0056 154.513 91.1061C154.443 91.2065 154.365 91.2581 154.286 91.256C154.228 91.2594 154.17 91.2307 154.116 91.1715C154.062 91.1123 154.013 91.024 153.973 90.9121C153.933 90.8125 153.9 90.6917 153.878 90.5572C153.856 90.4227 153.845 90.2774 153.845 90.1305C153.847 89.7995 153.89 89.4802 153.968 89.2237L156.07 81.5519L153.958 73.9386C153.892 73.7161 153.856 73.4411 153.855 73.1569C153.854 72.9826 153.866 72.8094 153.891 72.6485C153.916 72.4877 153.953 72.3427 154.001 72.2228C154.045 72.0994 154.099 72.0012 154.158 71.934C154.217 71.8669 154.28 71.8322 154.344 71.832C154.421 71.8331 154.496 71.8812 154.564 71.9727C154.637 72.0646 154.699 72.2062 154.744 72.3831L156.713 79.4762L158.662 72.4531C158.705 72.2769 158.762 72.1302 158.83 72.025C158.897 71.9197 158.973 71.8588 159.052 71.8473C159.113 71.8482 159.173 71.8835 159.229 71.9508C159.284 72.0181 159.334 72.116 159.375 72.2381C159.419 72.3443 159.455 72.4735 159.48 72.618C159.505 72.7624 159.519 72.9191 159.521 73.0783C159.517 73.3607 159.482 73.6334 159.419 73.8599L157.279 81.4974L159.411 89.169ZM166.807 72.2465C166.855 72.363 166.893 72.5057 166.918 72.6649C166.943 72.8241 166.955 72.9961 166.953 73.1689C166.955 73.3393 166.943 73.5088 166.917 73.6654C166.892 73.822 166.855 73.9619 166.807 74.0755C166.709 74.2995 166.582 74.4166 166.453 74.4039H164.629V89.83C164.63 90.0043 164.617 90.1774 164.592 90.3382C164.567 90.499 164.53 90.644 164.483 90.764C164.38 91.0107 164.246 91.147 164.108 91.147C163.97 91.147 163.837 91.0107 163.734 90.764C163.687 90.6436 163.65 90.4985 163.625 90.3378C163.599 90.1771 163.587 90.0042 163.588 89.83V74.4039H161.768C161.638 74.417 161.512 74.2952 161.415 74.0639C161.369 73.9456 161.333 73.8022 161.309 73.6431C161.285 73.4841 161.274 73.3132 161.277 73.1419C161.275 72.9749 161.286 72.8086 161.31 72.6542C161.334 72.4998 161.37 72.3609 161.415 72.2468C161.512 72.0155 161.638 71.8937 161.768 71.9068H166.453C166.583 71.8942 166.71 72.0157 166.807 72.2465V72.2465Z" fill="#2C4A5D"/>
<path id="path10" d="M169.051 90.6542C168.719 90.1503 168.443 89.4194 168.25 88.5361C168.194 88.3176 168.161 88.0599 168.157 87.7935C168.157 87.6232 168.171 87.4549 168.198 87.3003C168.224 87.1457 168.263 87.0086 168.312 86.8985C168.395 86.6643 168.509 86.5245 168.629 86.5077C168.72 86.5304 168.808 86.6032 168.887 86.7216C168.967 86.84 169.036 87.0014 169.091 87.1955C169.203 87.6895 169.361 88.0965 169.55 88.3762C169.739 88.6559 169.951 88.7986 170.167 88.79C170.343 88.8011 170.518 88.7168 170.682 88.5422C170.846 88.3677 170.995 88.1064 171.12 87.774C171.246 87.4528 171.346 87.0645 171.414 86.6338C171.481 86.2031 171.514 85.7395 171.511 85.2727V73.2233C171.51 73.0474 171.523 72.873 171.549 72.712C171.576 72.5509 171.615 72.4068 171.664 72.2893C171.759 72.037 171.888 71.8965 172.022 71.8984C172.089 71.8897 172.156 71.9182 172.219 71.982C172.281 72.0459 172.338 72.1439 172.386 72.2698C172.432 72.3939 172.468 72.5418 172.492 72.7044C172.516 72.867 172.527 73.0409 172.525 73.2155V85.2921C172.529 86.3745 172.422 87.4393 172.217 88.3717C172.014 89.301 171.722 90.0686 171.372 90.5955C171.005 91.1533 170.589 91.4392 170.167 91.4241C169.776 91.4352 169.391 91.1696 169.051 90.6542V90.6542ZM176.098 90.8574C175.692 90.4439 175.319 89.8242 175.001 89.0322C174.936 88.8987 174.883 88.728 174.846 88.5326C174.809 88.3371 174.789 88.1219 174.787 87.9027C174.787 87.7356 174.801 87.5706 174.826 87.4175C174.851 87.2644 174.887 87.1264 174.932 87.0117C174.975 86.8871 175.028 86.788 175.086 86.7207C175.144 86.6534 175.207 86.6194 175.27 86.6208C175.378 86.6169 175.483 86.7247 175.562 86.9218C175.808 87.5521 176.094 88.059 176.407 88.4187C176.722 88.7542 177.058 88.9189 177.397 88.9033C177.782 88.936 178.163 88.6568 178.488 88.1021C178.621 87.9014 178.733 87.6108 178.811 87.259C178.889 86.9073 178.932 86.5067 178.934 86.0972C178.937 85.6569 178.897 85.2223 178.819 84.835C178.741 84.4476 178.627 84.1205 178.488 83.885C178.079 83.2405 177.63 82.7983 177.162 82.5797C176.569 82.3249 176.009 81.6714 175.536 80.6803C175.345 80.2247 175.195 79.6596 175.096 79.027C174.998 78.3944 174.954 77.7105 174.967 77.0261C174.959 76.0045 175.072 75.0022 175.288 74.1613C175.508 73.3267 175.811 72.6741 176.162 72.2776C176.564 71.8229 176.997 71.598 177.433 71.6171C177.842 71.6101 178.248 71.7966 178.633 72.1681C178.972 72.475 179.283 72.9719 179.545 73.6259C179.614 73.7626 179.671 73.9386 179.712 74.1413C179.752 74.344 179.776 74.5684 179.781 74.7984C179.781 74.9623 179.768 75.1246 179.745 75.2756C179.721 75.4267 179.686 75.5634 179.642 75.6778C179.6 75.8034 179.549 75.9033 179.491 75.9708C179.434 76.0382 179.371 76.0716 179.309 76.0686C179.223 76.0773 179.139 75.9975 179.074 75.8455C178.861 75.3107 178.61 74.8995 178.335 74.6379C178.051 74.3302 177.747 74.1685 177.44 74.161C177.056 74.1081 176.675 74.3729 176.349 74.9194C176.224 75.1411 176.122 75.4422 176.051 75.7958C175.98 76.1494 175.943 76.5445 175.943 76.9459C175.943 77.3472 175.98 77.7423 176.051 78.0959C176.122 78.4495 176.224 78.7506 176.349 78.9723C176.722 79.5562 177.13 79.966 177.554 80.1842C178.005 80.4221 178.444 80.7904 178.866 81.2825C179.183 81.6594 179.455 82.2689 179.65 83.0412C179.847 83.9289 179.942 84.952 179.925 85.9841C179.931 86.9986 179.814 87.991 179.593 88.8137C179.36 89.662 179.046 90.3274 178.685 90.7405C178.288 91.2067 177.858 91.4411 177.424 91.4283C176.973 91.4507 176.524 91.2574 176.098 90.8574V90.8574Z" fill="#00C391"/>
<path id="path12" d="M123.252 90.9201C123.241 90.8708 123.232 90.8199 123.224 90.7677C123.168 90.4209 123.151 90.038 123.175 89.6655H119.868L124.782 66.4739L126.395 74.0794L126.863 71.8595L125.457 65.2154C125.389 64.8751 125.291 64.5855 125.171 64.3732C125.051 64.1609 124.914 64.0326 124.77 64C124.628 64.0175 124.489 64.1422 124.372 64.3599C124.254 64.5775 124.161 64.8794 124.104 65.2311L119.126 88.7041C119.052 89.0355 119.009 89.4109 119.001 89.7973C118.994 90.1837 119.022 90.5691 119.082 90.9198C119.159 91.2435 119.268 91.5033 119.397 91.6698C119.525 91.8363 119.669 91.9029 119.811 91.862H123.981C123.838 91.9036 123.695 91.8373 123.566 91.6708C123.437 91.5043 123.328 91.2442 123.252 90.9201V90.9201Z" fill="#00C492"/>
<path id="path14" d="M132.838 88.7044L128.747 69.378C128.68 69.0341 128.582 68.741 128.461 68.5258C128.341 68.3107 128.202 68.1804 128.058 68.147C127.915 68.1635 127.777 68.2873 127.659 68.5043C127.541 68.7213 127.449 69.0227 127.392 69.3742L126.863 71.8598L127.333 74.0797L128.062 70.6209L132.109 89.6658H130.57C130.59 89.9806 130.579 90.3038 130.538 90.6038C130.53 90.67 130.519 90.7341 130.506 90.7953L130.493 90.8656C130.409 91.1823 130.298 91.4389 130.169 91.6126C130.039 91.7864 129.896 91.872 129.751 91.862H132.159C132.303 91.8724 132.447 91.7869 132.576 91.6131C132.706 91.4393 132.817 91.1826 132.9 90.8656C132.966 90.5257 132.995 90.143 132.984 89.761C132.973 89.3789 132.923 89.0129 132.838 88.7044Z" fill="#008776"/>
<path id="path16" d="M130.494 90.8659L130.507 90.7956C130.52 90.7344 130.53 90.6703 130.539 90.6041C130.58 90.3041 130.591 89.9809 130.571 89.6661C130.548 89.3265 130.503 89.0008 130.437 88.7047L127.337 74.08L126.864 71.8601L126.393 74.08L123.295 88.705C123.234 89.0047 123.194 89.33 123.175 89.6665C123.15 90.0378 123.166 90.4206 123.22 90.7686C123.228 90.8209 123.238 90.8718 123.248 90.921C123.325 91.2447 123.433 91.5045 123.562 91.6709C123.691 91.8374 123.835 91.9039 123.977 91.8629H129.748C129.893 91.8744 130.037 91.7893 130.167 91.6154C130.297 91.4415 130.409 91.184 130.494 90.8659V90.8659ZM126.863 76.2998L129.696 89.6661H124.032L126.863 76.2998Z" fill="#2D4A5D"/>
</g>
</g>
<path id="bootstrap" fill-rule="evenodd" clip-rule="evenodd" d="M18.4836 85.5356C16.3462 85.5356 14.7646 88.3462 14.8355 91.3941C14.9034 94.3223 14.8151 98.1148 14.1796 101.208C13.5419 104.309 12.464 106.274 10.7031 106.527V109.375C12.464 109.628 13.5419 111.592 14.1796 114.694C14.8151 117.787 14.9034 121.579 14.8354 124.507C14.7646 127.555 16.3461 130.366 18.4839 130.366H40.3851C42.5225 130.366 44.1038 127.555 44.0329 124.507C43.965 121.579 44.0533 117.787 44.6888 114.694C45.3265 111.592 46.4017 109.627 48.1627 109.375V106.527C46.4018 106.274 45.3266 104.309 44.6888 101.208C44.0532 98.1152 43.965 94.3223 44.0329 91.3941C44.1038 88.3466 42.5225 85.5356 40.3851 85.5356H18.4833H18.4836ZM36.0995 113.132C36.0995 117.328 34.0157 119.874 30.5577 119.874H24.6711C24.5027 119.874 24.3412 119.773 24.2221 119.594C24.1031 119.415 24.0362 119.173 24.0362 118.92V96.9817C24.0362 96.7287 24.1031 96.4861 24.2221 96.3072C24.3412 96.1283 24.5027 96.0279 24.6711 96.0279H30.5241C33.4076 96.0279 35.3 98.3743 35.3 101.977C35.3 104.505 34.0269 106.769 32.4051 107.166V107.298C34.6129 107.661 36.0995 109.959 36.0995 113.132V113.132ZM29.9158 99.0515H26.5594V106.174H29.3863C31.5717 106.174 32.7767 104.852 32.7767 102.489C32.7765 100.274 31.7405 99.0515 29.9158 99.0515ZM26.5594 109V116.849H30.0393C32.3147 116.849 33.5199 115.477 33.5199 112.9C33.5199 110.322 32.2809 109 29.893 109H26.5594V109Z" fill="#7952B3"/>
<path id="tailwind-icon" d="M101.914 1C97.4037 1 94.5846 4.78528 93.457 12.3556C95.1484 8.57034 97.1217 7.15089 99.3769 8.09727C100.664 8.6371 101.583 10.204 102.601 11.9382C104.26 14.7636 106.179 18.0334 110.371 18.0334C114.881 18.0334 117.7 14.2482 118.828 6.67781C117.137 10.4631 115.163 11.8825 112.908 10.9362C111.621 10.3963 110.702 8.82939 109.684 7.09522C108.025 4.26984 106.106 1 101.914 1ZM93.457 18.0334C88.9466 18.0334 86.1276 21.8187 85 29.3891C86.6914 25.6038 88.6647 24.1843 90.9199 25.1307C92.2066 25.6705 93.1263 27.2375 94.1443 28.9717C95.8026 31.797 97.7219 35.0669 101.914 35.0669C106.424 35.0669 109.243 31.2816 110.371 23.7113C108.68 27.4965 106.706 28.916 104.451 27.9696C103.164 27.4298 102.245 25.8628 101.227 24.1287C99.5684 21.3033 97.6492 18.0334 93.457 18.0334Z" fill="url(#paint0_linear_2_87)"/>
<g id="vuetify-icon">
<path id="Vector_13" d="M67.4063 43H58.3096L67.4063 60.7426" fill="#1697F6"/>
<path id="Vector_14" d="M67.4067 43H76.5034L67.4067 60.7426" fill="#1867C0"/>
<path id="Vector_15" d="M67.4063 65.8631V79.5897L48 48.3245H58.1654" fill="#7BC6FF"/>
<path id="Vector_16" d="M67.4067 65.8631V79.5897L86.813 48.3245H76.6476" fill="#AEDDFF"/>
</g>
<g id="css-icon">
<path id="Vector_17" d="M27.7255 226.742L5.05265 220.681L0 166.115H55.5189L50.461 220.673L27.7255 226.742V226.742Z" fill="#264DE4"/>
<path id="Vector_18" d="M46.1312 217.199L50.4533 170.577H27.7598V222.103L46.1312 217.199V217.199Z" fill="#2965F1"/>
<path id="Vector_19" d="M11.5833 190.815L12.2062 197.507H27.7598V190.815H11.5833ZM10.3315 177.27L10.9633 183.962H27.7598V177.27H10.3315V177.27ZM27.7598 208.195L27.7293 208.203L19.9887 206.191L19.4939 200.853H12.5167L13.4904 211.361L27.7278 215.167L27.7598 215.158V208.195Z" fill="#EBEBEB"/>
<path id="Vector_20" d="M13.0659 151.287H21.4837V154.676H16.5863V158.066H21.4842V161.455H13.0659V151.287ZM23.1675 151.287H31.5856V154.234H26.6879V154.824H31.5856V161.603H23.1677V158.508H28.0654V157.918H23.1673V151.287H23.1675ZM33.2693 151.287H41.6874V154.234H36.7897V154.824H41.6874V161.603H33.2693V158.508H38.167V157.918H33.2696V151.287H33.2693Z" fill="black"/>
<path id="Vector_21" d="M43.8916 190.815L45.1462 177.27H27.7356V183.962H37.5292L36.8968 190.815H27.7356V197.507H36.2942L35.4872 206.186L27.7354 208.201V215.163L41.9841 211.361L42.0885 210.23L43.722 192.612L43.8916 190.815V190.815Z" fill="white"/>
</g>
<g id="cog-java">
<g id="cog-three">
<path id="Vector_22" d="M284.787 10.9519C284.787 11.9358 284.174 12.7335 283.418 12.7335V14.067C284.74 14.067 285.812 12.6722 285.812 10.9517C285.812 9.23142 284.74 7.83643 283.418 7.83643V9.16993C284.174 9.17014 284.787 9.96785 284.787 10.9519Z" fill="#F6D276"/>
<path id="Vector_23" d="M281.023 10.9518C281.023 12.6723 282.095 14.0671 283.418 14.0671V12.7336C282.662 12.7336 282.049 11.9359 282.049 10.952C282.049 9.96813 282.662 9.17042 283.418 9.17042V7.83691C282.095 7.83649 281.023 9.23128 281.023 10.9518Z" fill="#F6E7AA"/>
<path id="Vector_24" d="M278.776 10.9518H278.776C278.776 14.2873 280.854 16.9908 283.417 16.9908V15.4021C281.528 15.4021 279.997 13.4098 279.997 10.9518C279.997 8.49404 281.528 6.50155 283.417 6.50155V4.91284C280.854 4.91263 278.776 7.61658 278.776 10.9518Z" fill="#F6E7AA"/>
<path id="Vector_25" d="M286.838 10.9518C286.838 13.4098 285.307 15.4021 283.418 15.4021V16.9908C285.981 16.9908 288.059 14.287 288.059 10.9518H288.059C288.059 7.61658 285.981 4.91284 283.418 4.91284V6.50155C285.307 6.50155 286.838 8.49404 286.838 10.9518Z" fill="#F6D276"/>
<path id="Vector_26" d="M281.024 10.9517C281.024 9.23144 282.096 7.83644 283.418 7.83644V6.50146C281.529 6.50146 279.998 8.49396 279.998 10.9517C279.998 13.4097 281.529 15.402 283.418 15.402V14.067C282.096 14.0668 281.024 12.6722 281.024 10.9517Z" fill="#FAA338"/>
<path id="Vector_27" d="M286.838 10.9517C286.838 8.49396 285.307 6.50146 283.418 6.50146V7.83644C284.74 7.83644 285.812 9.23123 285.812 10.9517C285.812 12.6722 284.74 14.067 283.418 14.067V15.402C285.307 15.402 286.838 13.4097 286.838 10.9517Z" fill="#F2852A"/>
<path id="Vector_28" d="M290.99 9.8519H289.648C289.499 8.41472 289.066 7.09884 288.421 5.99871L289.37 4.76384C289.699 4.33592 289.699 3.6358 289.37 3.20788C289.041 2.77995 288.503 2.77995 288.174 3.20788L287.225 4.44274C286.379 3.60432 285.368 3.03956 284.264 2.84627V1.10059C284.264 0.495324 283.883 0.000244141 283.418 0.000244141V4.91327C285.981 4.91327 288.059 7.61722 288.059 10.9522H288.059C288.059 14.2877 285.981 16.9912 283.418 16.9912V21.9042C283.883 21.9042 284.264 21.4092 284.264 20.8041V19.0584C285.368 18.8647 286.379 18.3004 287.225 17.4619L288.174 18.6966C288.503 19.1247 289.041 19.1247 289.37 18.6966C289.699 18.2689 289.699 17.5686 289.37 17.1406L288.421 15.9058C289.066 14.8056 289.499 13.4896 289.648 12.0528H290.99C291.455 12.0528 291.835 11.5577 291.835 10.9525C291.835 10.3468 291.455 9.8519 290.99 9.8519Z" fill="#FAA338"/>
<path id="Vector_29" d="M278.776 10.952H278.776C278.776 7.61676 280.854 4.91302 283.418 4.91302V0C282.952 0 282.572 0.49508 282.572 1.10034V2.84603C281.467 3.03953 280.456 3.60407 279.611 4.4425L278.661 3.20763C278.333 2.77971 277.794 2.77971 277.466 3.20763C277.137 3.63555 277.137 4.33568 277.466 4.7636L278.415 5.99847C277.77 7.0986 277.336 8.41468 277.188 9.85165H275.846C275.381 9.85165 275 10.3465 275 10.9518C275 11.557 275.381 12.0521 275.846 12.0521H277.187C277.336 13.4891 277.77 14.805 278.414 15.9051L277.465 17.14C277.136 17.5679 277.136 18.2682 277.465 18.6959C277.794 19.1241 278.332 19.1241 278.661 18.6959L279.61 17.4613C280.456 18.2997 281.467 18.8642 282.572 19.0577V20.8034C282.572 21.4085 282.952 21.9036 283.417 21.9036V16.9905C280.854 16.991 278.776 14.2872 278.776 10.952Z" fill="#FDBB47"/>
<path id="Vector_30" d="M282.048 10.952C282.048 11.9358 282.661 12.7335 283.418 12.7335V9.17017C282.661 9.17017 282.048 9.96788 282.048 10.952Z" fill="#493633"/>
<path id="Vector_31" d="M284.787 10.952C284.787 9.96812 284.174 9.17041 283.418 9.17041V12.7338C284.174 12.7336 284.787 11.9358 284.787 10.952Z" fill="#342421"/>
</g>
</g>
<g id="csharp">
<path id="Vector_32" d="M317.511 176.359C317.511 175.153 317.258 174.087 316.748 173.173C316.247 172.273 315.496 171.519 314.489 170.923C306.178 166.024 297.858 161.141 289.549 156.237C287.309 154.915 285.137 154.963 282.914 156.304C279.606 158.298 263.043 167.998 258.107 170.921C256.074 172.124 255.085 173.965 255.085 176.357C255.082 186.209 255.085 196.061 255.082 205.913C255.082 207.093 255.324 208.138 255.811 209.039C256.313 209.966 257.074 210.74 258.104 211.35C263.04 214.272 279.605 223.971 282.913 225.966C285.137 227.308 287.309 227.356 289.55 226.034C297.859 221.13 306.179 216.246 314.492 211.347C315.522 210.737 316.283 209.962 316.785 209.036C317.272 208.135 317.514 207.09 317.514 205.911C317.514 205.911 317.514 186.212 317.511 176.359Z" fill="#A179DC"/>
<path id="Vector_33" d="M286.393 191.039L255.812 209.039C256.313 209.966 257.074 210.74 258.104 211.35C263.04 214.272 279.606 223.972 282.913 225.966C285.137 227.308 287.309 227.356 289.55 226.034C297.859 221.13 306.179 216.246 314.492 211.347C315.522 210.738 316.283 209.962 316.785 209.037L286.393 191.039Z" fill="#280068"/>
<path id="Vector_34" d="M317.511 176.359C317.511 175.153 317.258 174.088 316.748 173.173L286.394 191.039L316.785 209.036C317.272 208.135 317.514 207.09 317.514 205.911C317.514 205.911 317.514 186.212 317.511 176.359" fill="#390091"/>
<g id="Group_2">
<path id="Vector_35" d="M304.399 184.31V187.675H307.69V184.31H309.336V187.675H312.627V189.357H309.336V192.721H312.627V194.404H309.336V197.768H307.69V194.404H304.399V197.768H302.753V194.404H299.462V192.721H302.753V189.357H299.462V187.675H302.753V184.31H304.399ZM307.69 189.357H304.399V192.721H307.69V189.357Z" fill="white"/>
<path id="Vector_36" d="M286.46 167.413C295.045 167.413 302.54 172.179 306.555 179.263L306.516 179.195L296.415 185.14C294.425 181.696 290.777 179.371 286.592 179.323L286.46 179.322C280.078 179.322 274.905 184.611 274.905 191.135C274.903 193.191 275.428 195.212 276.429 196.995C278.421 200.55 282.165 202.947 286.46 202.947C290.782 202.947 294.548 200.519 296.53 196.927L296.482 197.013L306.567 202.986C302.596 210.01 295.204 214.761 286.719 214.855L286.46 214.857C277.848 214.857 270.332 210.062 266.327 202.94C264.372 199.463 263.254 195.433 263.254 191.135C263.254 178.034 273.643 167.413 286.46 167.413L286.46 167.413Z" fill="white"/>
</g>
</g>
<g id=".netcore">
<path id="Vector_37" d="M262.663 115.421C262.522 115.291 262.349 115.188 262.159 115.115C261.969 115.042 261.765 115.008 261.558 115.008C261.35 115.004 261.146 115.042 260.956 115.111C260.766 115.184 260.593 115.287 260.452 115.417C260.306 115.544 260.191 115.693 260.115 115.858C260.04 116.027 260 116.203 260 116.379C259.996 116.559 260.036 116.735 260.115 116.9C260.195 117.065 260.31 117.214 260.456 117.341C260.598 117.471 260.769 117.574 260.96 117.644C261.15 117.713 261.355 117.747 261.562 117.743C261.768 117.744 261.972 117.709 262.162 117.64C262.352 117.571 262.524 117.469 262.668 117.341C262.818 117.218 262.933 117.069 263.013 116.904C263.093 116.739 263.132 116.563 263.132 116.383C263.132 116.203 263.093 116.027 263.013 115.862C262.929 115.693 262.814 115.544 262.663 115.421V115.421ZM281.177 112.31C281.155 113.168 281.203 114.031 281.318 114.885H281.265C281.142 114.674 280.867 114.283 280.447 113.713L270.361 100H267.3V117.506H269.653V104.851C269.68 104.05 269.64 103.249 269.542 102.448H269.631C269.799 102.831 270.016 103.199 270.272 103.544L280.633 117.506H283.53V100H281.177V112.31ZM299.487 115.582H291.17V109.517H298.447V107.67H291.17V101.854H298.978V100H288.759V117.506H299.474L299.487 115.582ZM301.287 100V101.854H307.083V117.506H309.436V101.854H315.297V100H301.287ZM278.222 121.858C277.634 122.061 277.103 122.371 276.665 122.766C276.213 123.184 275.86 123.674 275.63 124.214C275.399 124.755 275.298 125.325 275.324 125.896C275.28 126.954 275.705 127.988 276.519 128.777C276.926 129.149 277.421 129.436 277.97 129.628C278.518 129.82 279.107 129.904 279.695 129.881C280.58 129.908 281.46 129.747 282.261 129.41L282.27 128.517C281.535 128.889 280.699 129.072 279.85 129.053C279.394 129.069 278.938 129 278.518 128.85C278.098 128.701 277.718 128.471 277.408 128.18C276.76 127.528 276.428 126.686 276.479 125.827C276.426 124.919 276.784 124.03 277.474 123.348C277.802 123.034 278.204 122.789 278.651 122.62C279.099 122.455 279.584 122.376 280.071 122.387C280.845 122.375 281.606 122.54 282.283 122.866V121.904C281.581 121.659 280.827 121.544 280.071 121.567C279.438 121.559 278.806 121.655 278.222 121.858V121.858ZM289.25 124.601C288.955 124.332 288.595 124.121 288.197 123.984C287.798 123.846 287.37 123.785 286.941 123.804C286.485 123.785 286.034 123.85 285.61 123.992C285.185 124.134 284.8 124.348 284.473 124.62C284.154 124.927 283.911 125.283 283.752 125.674C283.592 126.065 283.526 126.475 283.557 126.889C283.513 127.674 283.827 128.444 284.428 129.03C284.729 129.31 285.092 129.532 285.499 129.682C285.906 129.827 286.344 129.9 286.782 129.885C287.229 129.896 287.675 129.823 288.091 129.674C288.507 129.525 288.879 129.299 289.184 129.011C289.804 128.405 290.125 127.613 290.078 126.804C290.131 126 289.834 125.214 289.25 124.601ZM288.441 128.536C288.246 128.731 288.003 128.884 287.729 128.984C287.455 129.085 287.158 129.129 286.861 129.115C286.556 129.126 286.255 129.076 285.977 128.977C285.698 128.873 285.45 128.72 285.247 128.521C284.823 128.066 284.61 127.491 284.65 126.908C284.61 126.306 284.822 125.712 285.247 125.237C285.446 125.038 285.694 124.881 285.972 124.774C286.251 124.67 286.556 124.62 286.857 124.632C287.158 124.617 287.454 124.666 287.729 124.77C288.003 124.873 288.246 125.03 288.441 125.23C288.843 125.711 289.038 126.299 288.994 126.892C289.038 127.475 288.843 128.061 288.441 128.536V128.536ZM293.568 124.226C293.236 124.483 292.993 124.816 292.873 125.187V123.984H291.767V129.747H292.873V126.808C292.838 126.276 292.997 125.743 293.325 125.291C293.444 125.126 293.603 124.988 293.798 124.892C293.993 124.797 294.209 124.739 294.431 124.735C294.714 124.716 294.997 124.781 295.236 124.919V123.969C295.032 123.912 294.82 123.885 294.607 123.892C294.227 123.889 293.86 124.007 293.568 124.226V124.226ZM301.708 126.605C301.761 125.873 301.509 125.153 301 124.571C300.748 124.325 300.438 124.13 300.089 124.004C299.739 123.877 299.363 123.82 298.987 123.839C298.571 123.827 298.155 123.9 297.77 124.046C297.39 124.191 297.049 124.41 296.775 124.686C296.174 125.293 295.863 126.075 295.904 126.873C295.846 127.67 296.134 128.459 296.709 129.08C296.987 129.345 297.333 129.551 297.713 129.689C298.093 129.827 298.509 129.885 298.921 129.869C299.739 129.904 300.549 129.712 301.23 129.322V128.456C300.648 128.865 299.923 129.092 299.173 129.099C298.885 129.115 298.593 129.076 298.323 128.984C298.054 128.892 297.806 128.758 297.602 128.578C297.207 128.164 297.007 127.636 297.041 127.099H301.717L301.708 126.605ZM297.032 126.337C297.089 125.881 297.319 125.452 297.682 125.119C297.845 124.967 298.042 124.847 298.261 124.766C298.481 124.685 298.717 124.644 298.956 124.647C299.186 124.636 299.412 124.67 299.624 124.747C299.836 124.823 300.022 124.938 300.173 125.088C300.482 125.444 300.637 125.881 300.615 126.325L297.032 126.337Z" fill="#621EE5"/>
</g>
<g id="mysql-full">
<g id="mysql">
<path id="Vector_38" d="M331.785 213.547H336.075V194.68L342.716 211.133C343.499 213.117 344.572 213.829 346.676 213.829C348.779 213.829 349.81 213.125 350.595 211.133L357.237 194.68V213.554H361.527V194.711C361.527 192.873 360.866 191.984 359.505 191.525C356.247 190.392 354.06 191.372 353.071 193.823L346.554 210.061L340.241 193.816C339.292 191.365 337.065 190.384 333.807 191.518C332.445 191.978 331.785 192.867 331.785 194.704V213.547ZM365.093 198.185H369.381V208.584C369.341 209.149 369.544 210.475 371.894 210.516C373.093 210.537 381.148 210.516 381.223 210.516V198.133H385.521C385.54 198.133 385.517 215.017 385.517 215.089C385.541 219.253 380.88 220.157 378.732 220.227H365.186V217.011L378.756 217.011C381.517 216.685 381.191 215.157 381.191 214.642V213.388H372.073C367.831 213.346 365.13 211.282 365.097 208.909C365.093 208.697 365.188 198.287 365.094 198.184L365.093 198.185Z" fill="#00618A"/>
<path id="Vector_39" d="M388.828 213.547H401.161C402.605 213.547 404.008 213.21 405.122 212.627C406.979 211.678 407.886 210.391 407.886 208.706V205.214C407.886 203.834 406.855 202.548 404.834 201.69C403.762 201.23 402.442 200.985 401.163 200.985H395.965C394.233 200.985 393.408 200.403 393.202 199.117C393.161 198.964 393.161 198.833 393.161 198.687V196.513C393.161 196.39 393.161 196.267 393.202 196.114C393.408 195.134 393.862 194.857 395.388 194.697C395.512 194.697 395.677 194.666 395.801 194.666H408.052V191.48H396.007C394.275 191.48 393.367 191.603 392.542 191.879C389.982 192.768 388.868 194.184 388.868 196.635V199.423C388.868 201.568 391.056 203.407 394.726 203.835C395.139 203.866 395.551 203.896 395.963 203.896H400.418C400.583 203.896 400.749 203.896 400.872 203.927C402.233 204.05 402.811 204.325 403.223 204.876C403.478 205.16 403.554 205.429 403.554 205.726V208.515C403.554 208.852 403.348 209.281 402.935 209.648C402.564 210.016 401.945 210.261 401.12 210.322C400.955 210.322 400.831 210.353 400.667 210.353H388.828V213.539V213.547ZM434.647 208.002C434.647 211.28 436.833 213.118 441.247 213.486C441.659 213.521 442.072 213.542 442.485 213.547H453.664V210.361H442.402C439.886 210.361 438.937 209.656 438.937 207.971V191.487H434.647V208L434.647 208.002ZM410.623 208.168V196.809C410.623 193.923 412.441 192.173 416.038 191.62C416.421 191.559 416.808 191.528 417.195 191.528H425.338C425.739 191.528 426.14 191.559 426.538 191.62C430.134 192.173 431.952 193.922 431.952 196.809V208.168C431.952 210.509 431.18 211.762 429.399 212.579L433.625 216.829H428.644L425.225 213.39L421.783 213.633H417.195C416.41 213.633 415.584 213.51 414.674 213.234C411.94 212.405 410.624 210.808 410.624 208.168H410.623ZM415.254 207.884C415.254 208.038 415.295 208.191 415.336 208.376C415.591 209.696 416.7 210.433 418.388 210.433H422.286L418.706 206.832H423.687L426.803 209.972C427.378 209.631 427.756 209.108 427.884 208.437C427.925 208.284 427.925 208.131 427.925 207.977V197.086C427.925 196.963 427.925 196.802 427.884 196.656C427.629 195.428 426.519 194.722 424.866 194.722H418.396C416.488 194.722 415.255 195.643 415.255 197.086V207.893L415.254 207.884Z" fill="#E48E00"/>
<g id="Group_3">
<path id="Vector_40" d="M457.438 186.201C454.801 186.121 452.786 186.394 451.064 187.203C450.575 187.433 449.795 187.439 449.715 188.123C449.984 188.436 450.026 188.905 450.239 189.291C450.651 190.033 451.345 191.027 451.964 191.547C452.641 192.116 453.337 192.725 454.064 193.219C455.355 194.096 456.796 194.596 458.038 195.474C458.771 195.991 459.498 196.643 460.213 197.228C460.566 197.517 460.804 197.966 461.262 198.147V198.063C461.02 197.721 460.958 197.251 460.737 196.894L459.762 195.808C458.809 194.392 457.599 193.161 456.313 192.132C455.288 191.312 452.992 190.204 452.564 188.873L452.489 188.79C453.216 188.698 454.067 188.405 454.739 188.205C455.867 187.869 456.875 187.955 458.039 187.621L459.614 187.12V186.785C459.026 186.112 458.606 185.222 457.964 184.613C456.286 183.02 454.453 181.429 452.566 180.101C451.52 179.364 450.226 178.887 449.117 178.263C448.744 178.053 448.088 177.944 447.842 177.594C447.26 176.767 446.942 175.717 446.493 174.761C445.552 172.742 444.627 170.536 443.793 168.412C443.224 166.963 442.852 165.534 442.144 164.234C438.739 157.998 435.074 154.233 429.397 150.534C428.189 149.748 426.735 149.436 425.197 149.031L422.723 148.863C422.219 148.63 421.695 147.942 421.222 147.61C419.341 146.285 414.517 143.407 413.124 147.185C412.245 149.574 414.439 151.905 415.224 153.116C415.774 153.966 416.48 154.918 416.873 155.873C417.132 156.501 417.177 157.131 417.398 157.795C417.943 159.424 418.418 161.212 419.123 162.724C419.479 163.489 419.872 164.295 420.323 164.979C420.599 165.4 421.073 165.584 421.147 166.233C420.684 166.956 420.658 168.075 420.397 168.99C419.225 173.107 419.667 178.224 421.372 181.271C421.895 182.206 423.126 184.212 424.821 183.443C426.302 182.77 425.965 180.688 426.396 178.849C426.491 178.431 426.433 178.126 426.621 177.846V177.93L427.971 180.937C428.969 182.729 430.743 184.603 432.245 185.867C433.024 186.522 433.644 187.656 434.644 188.039V187.955H434.569C434.374 187.615 434.069 187.476 433.819 187.205C433.232 186.563 432.579 185.767 432.094 185.033C430.727 182.966 429.52 180.705 428.42 178.349C427.895 177.225 427.438 175.985 426.996 174.841C426.826 174.399 426.828 173.733 426.472 173.504C425.986 174.343 425.272 175.02 424.897 176.01C424.296 177.593 424.219 179.522 423.997 181.524C423.865 181.577 423.924 181.54 423.847 181.608C422.803 181.327 422.435 180.129 422.047 179.102C421.066 176.502 420.884 172.318 421.747 169.327C421.97 168.554 422.981 166.116 422.572 165.401C422.377 164.688 421.733 164.268 421.372 163.729C420.927 163.056 420.481 162.168 420.172 161.39C419.369 159.364 418.994 157.09 418.148 155.041C417.744 154.062 417.061 153.072 416.499 152.208C415.877 151.244 415.181 150.533 414.699 149.374C414.528 148.96 414.295 148.297 414.549 147.87C414.574 147.747 414.629 147.635 414.709 147.546C414.788 147.457 414.889 147.396 414.999 147.369C415.434 146.995 416.646 147.493 417.099 147.703C418.301 148.26 419.305 148.79 420.324 149.541C420.813 149.895 421.307 150.601 421.898 150.795H422.572C423.628 151.066 424.81 150.88 425.796 151.213C427.539 151.803 429.101 152.722 430.52 153.719C434.842 156.76 438.375 161.088 440.793 166.257C441.182 167.088 441.35 167.882 441.692 168.764C442.384 170.534 443.254 172.371 443.942 174.11C444.629 175.845 445.296 177.595 446.267 179.038C446.776 179.796 448.746 180.204 449.641 180.625C450.268 180.921 451.296 181.229 451.89 181.628C453.025 182.39 454.125 183.299 455.19 184.135C455.722 184.553 457.358 185.469 457.44 186.223L457.438 186.201Z" fill="#00618A"/>
<path id="Vector_41" fill-rule="evenodd" clip-rule="evenodd" d="M423.921 154.373C423.371 154.361 422.983 154.439 422.571 154.54V154.623H422.646C422.908 155.224 423.371 155.61 423.695 156.127L424.446 157.881L424.521 157.797C424.985 157.433 425.198 156.85 425.195 155.959C425.008 155.741 424.981 155.468 424.82 155.207C424.605 154.86 424.184 154.663 423.92 154.371L423.921 154.373Z" fill="#00618A"/>
</g>
</g>
<path id="Vector_42" fill-rule="evenodd" clip-rule="evenodd" d="M455.678 210.27C455.678 212.374 457.17 213.792 458.839 213.792C460.508 213.792 462 212.374 462 210.27C462 208.166 460.508 206.748 458.839 206.748C457.17 206.748 455.678 208.166 455.678 210.27ZM461.292 210.27C461.292 211.866 460.197 213.059 458.838 213.059C457.464 213.059 456.383 211.866 456.383 210.27C456.383 208.673 457.463 207.48 458.838 207.48C460.195 207.48 461.292 208.673 461.292 210.27ZM459.69 212.28H460.397L459.361 210.515C459.917 210.449 460.338 210.148 460.338 209.416C460.338 208.598 459.874 208.261 458.981 208.261H457.573V212.281H458.18V210.543H458.745L459.689 212.281L459.69 212.28ZM458.18 209.978V208.823H458.88C459.242 208.823 459.681 208.898 459.681 209.369C459.681 209.932 459.285 209.979 458.829 209.979H458.18V209.978Z" fill="#E48E00"/>
</g>
<g id="php">
<path id="Vector_43" d="M200.231 214.049C217.717 214.049 231.893 201.114 231.893 185.158C231.893 169.202 217.717 156.268 200.231 156.268C182.744 156.268 168.568 169.202 168.568 185.158C168.568 201.114 182.744 214.049 200.231 214.049Z" fill="#8993BE"/>
<path id="Vector_44" fill-rule="evenodd" clip-rule="evenodd" d="M177.46 202.265L180.93 171.473H188.954C192.423 171.853 194.158 174.894 194.158 180.217C194.158 189.34 190.038 194.662 186.351 194.282H182.448L181.581 202.265H177.46ZM183.315 188.58L184.4 177.175H187.219C188.737 177.175 189.821 178.316 189.821 180.597C189.604 187.059 187.869 188.2 185.918 188.58H183.316H183.315ZM193.352 194.282L196.822 163.491H200.942L200.075 171.473H203.978C207.448 171.853 208.749 174.894 208.316 178.696L206.798 194.282H202.461L203.979 180.217C204.195 178.316 204.195 177.175 202.677 177.175H199.424L197.473 194.282H193.352V194.282ZM206.52 202.265L209.99 171.473H218.014C221.484 171.853 223.219 174.894 223.219 180.217C223.219 189.34 219.098 194.662 215.411 194.282H211.508L210.64 202.265H206.52V202.265ZM212.375 188.58L213.459 177.175H216.279C217.797 177.175 218.881 178.316 218.881 180.597C218.664 187.059 216.929 188.2 214.978 188.58H212.375H212.375Z" fill="#232531"/>
</g>
<path id="laravel" d="M233.547 108.691C233.561 108.748 233.568 108.807 233.568 108.866V118.061C233.568 118.179 233.54 118.295 233.488 118.397C233.436 118.499 233.362 118.584 233.272 118.643L226.49 123.086V131.893C226.49 132.133 226.378 132.354 226.195 132.475L212.038 141.748C212.006 141.769 211.971 141.783 211.935 141.797C211.922 141.802 211.909 141.811 211.895 141.815C211.796 141.845 211.692 141.845 211.593 141.815C211.577 141.81 211.563 141.8 211.547 141.794C211.515 141.78 211.481 141.769 211.45 141.748L197.296 132.475C197.206 132.416 197.131 132.331 197.079 132.229C197.027 132.127 197 132.011 197 131.893V104.308C197 104.248 197.007 104.189 197.021 104.132C197.025 104.113 197.035 104.095 197.041 104.076C197.052 104.041 197.063 104.005 197.079 103.972C197.09 103.95 197.106 103.933 197.119 103.912C197.136 103.886 197.152 103.858 197.172 103.835C197.189 103.815 197.211 103.801 197.23 103.784C197.251 103.764 197.27 103.742 197.295 103.726H197.295L204.373 99.0896C204.462 99.0309 204.564 99 204.667 99C204.771 99 204.872 99.0309 204.962 99.0896L212.039 103.726H212.041C212.064 103.743 212.084 103.764 212.105 103.783C212.124 103.8 212.146 103.815 212.163 103.834C212.183 103.858 212.198 103.886 212.216 103.912C212.228 103.933 212.245 103.95 212.256 103.972C212.273 104.006 212.282 104.041 212.294 104.076C212.3 104.095 212.31 104.113 212.314 104.133C212.328 104.19 212.335 104.249 212.335 104.308V121.537L218.233 117.673V108.865C218.233 108.807 218.24 108.747 218.253 108.691C218.258 108.671 218.268 108.653 218.274 108.634C218.286 108.599 218.296 108.563 218.312 108.53C218.323 108.508 218.339 108.491 218.352 108.471C218.37 108.444 218.384 108.416 218.405 108.393C218.422 108.373 218.443 108.359 218.462 108.342C218.484 108.322 218.504 108.3 218.527 108.285H218.528L225.606 103.648C225.696 103.589 225.797 103.558 225.901 103.558C226.004 103.558 226.106 103.589 226.195 103.648L233.272 108.285C233.297 108.301 233.317 108.322 233.339 108.342C233.357 108.358 233.378 108.373 233.395 108.392C233.416 108.416 233.431 108.444 233.448 108.471C233.462 108.491 233.478 108.508 233.488 108.53C233.505 108.563 233.515 108.599 233.526 108.634C233.533 108.653 233.543 108.671 233.547 108.691V108.691ZM232.388 117.673V110.027L229.911 111.649L226.49 113.891V121.537L232.389 117.673H232.388ZM225.311 131.505V123.854L221.945 126.041L212.334 132.283V140.006L225.311 131.505ZM198.18 105.469V131.505L211.155 140.005V132.284L204.376 127.918L204.374 127.917L204.371 127.915C204.348 127.9 204.329 127.878 204.308 127.86C204.289 127.843 204.268 127.829 204.252 127.811L204.25 127.808C204.231 127.787 204.218 127.761 204.202 127.738C204.187 127.715 204.169 127.696 204.158 127.673L204.157 127.67C204.144 127.645 204.135 127.615 204.126 127.586C204.116 127.561 204.104 127.538 204.098 127.511V127.51C204.091 127.478 204.089 127.445 204.086 127.412C204.083 127.387 204.077 127.362 204.077 127.337V109.333L200.656 107.09L198.18 105.47V105.469ZM204.668 100.446L198.771 104.308L204.666 108.171L210.562 104.307L204.666 100.446H204.668ZM207.734 124.551L211.155 122.31V105.469L208.679 107.091L205.257 109.333V126.174L207.734 124.551ZM225.901 105.004L220.004 108.866L225.901 112.729L231.796 108.865L225.901 105.004ZM225.311 113.891L221.889 111.649L219.412 110.027V117.673L222.833 119.914L225.311 121.537V113.891ZM211.744 131.122L220.392 125.504L224.715 122.696L218.823 118.836L212.04 123.28L205.857 127.331L211.744 131.122Z" fill="#FF2D20"/>
<path id="github" d="M376.878 89C360.378 89 347 104.177 347 122.896C347 138.779 356.641 152.069 369.638 155.747C369.498 155.289 369.409 154.758 369.409 154.1V148.307C368.196 148.307 366.165 148.307 365.654 148.307C363.61 148.307 361.792 147.31 360.911 145.457C359.932 143.398 359.763 140.248 357.338 138.322C356.618 137.68 357.166 136.949 357.995 137.048C359.527 137.539 360.796 138.731 361.992 140.499C363.182 142.271 363.742 142.672 365.965 142.672C367.043 142.672 368.657 142.601 370.176 142.33C370.992 139.977 372.404 137.81 374.13 136.788C364.18 135.627 359.432 130.011 359.432 122.388C359.432 119.105 360.664 115.93 362.758 113.255C362.071 110.6 361.207 105.185 363.022 103.123C367.499 103.123 370.206 106.417 370.855 107.307C373.086 106.44 375.536 105.948 378.111 105.948C380.69 105.948 383.15 106.44 385.386 107.312C386.029 106.428 388.738 103.123 393.224 103.123C395.047 105.188 394.173 110.626 393.478 113.275C395.56 115.945 396.785 119.111 396.785 122.388C396.785 130.006 392.044 135.618 382.11 136.785C384.844 138.404 386.838 142.951 386.838 146.378V154.1C386.838 154.394 386.781 154.606 386.751 154.857C398.393 150.228 406.757 137.686 406.757 122.896C406.757 104.177 393.379 89 376.878 89Z" fill="black"/>
</g>
<defs>
<linearGradient id="paint0_linear_2_87" x1="84.0603" y1="11.9014" x2="118.88" y2="23.8628" gradientUnits="userSpaceOnUse">
<stop stop-color="#2298BD"/>
<stop offset="1" stop-color="#0ED7B5"/>
</linearGradient>
</defs>
</svg>
