<svg width="496" height="276" viewBox="0 0 496 276" fill="none" xmlns="http://www.w3.org/2000/svg">
<g id="javascript">
<g id="vuejs">
<path id="path893" fill-rule="evenodd" clip-rule="evenodd" d="M124.366 125.453H129.441L116.628 164.156L103.73 125.453H108.92L116.628 148.753L124.366 125.453Z" fill="#41B883"/>
<path id="path895" fill-rule="evenodd" clip-rule="evenodd" d="M119.57 125.445H124.397L116.62 148.794L108.907 125.445H113.658L116.62 134.434L119.57 125.445Z" fill="#35495E"/>
<path id="path897" fill-rule="evenodd" clip-rule="evenodd" d="M132.469 133.086C132.469 132.8 132.56 132.562 132.741 132.372C132.921 132.181 133.11 132.086 133.308 132.086C133.582 132.086 133.752 132.267 133.817 132.629L136.711 149.589L139.588 132.629C139.665 132.267 139.829 132.086 140.081 132.086C140.289 132.086 140.484 132.191 140.665 132.4C140.846 132.61 140.936 132.848 140.936 133.114C140.936 133.133 140.933 133.162 140.928 133.2C140.922 133.238 140.92 133.276 140.92 133.314L137.582 152.301C137.462 152.853 137.171 153.129 136.711 153.129C136.251 153.129 135.971 152.853 135.872 152.301L132.502 133.314C132.48 133.2 132.469 133.124 132.469 133.086H132.469ZM141.066 147.704V140.281C141.066 140.052 141.134 139.852 141.271 139.681C141.408 139.51 141.57 139.424 141.756 139.424C141.932 139.424 142.088 139.514 142.225 139.695C142.362 139.876 142.43 140.071 142.43 140.281V147.704C142.43 148.561 142.617 149.331 142.989 150.017C143.362 150.702 143.806 151.045 144.321 151.045C144.825 151.045 145.263 150.707 145.636 150.031C146.009 149.355 146.195 148.58 146.195 147.704V140.252C146.195 140.042 146.264 139.852 146.401 139.681C146.538 139.509 146.699 139.424 146.886 139.424C147.083 139.424 147.245 139.505 147.371 139.666C147.497 139.828 147.56 140.023 147.56 140.252V147.704C147.56 149.17 147.239 150.45 146.598 151.544C145.957 152.639 145.198 153.186 144.321 153.186C143.433 153.186 142.669 152.639 142.027 151.544C141.386 150.45 141.066 149.17 141.066 147.704H141.066ZM148.675 147.647V144.649C148.675 143.183 148.996 141.917 149.637 140.851C150.278 139.786 151.048 139.253 151.947 139.253C152.802 139.253 153.542 139.752 154.167 140.752C154.791 141.751 155.104 143.002 155.104 144.506C155.104 145.058 155.065 145.501 154.989 145.834C154.912 146.167 154.794 146.405 154.635 146.548C154.476 146.69 154.328 146.781 154.191 146.819C154.054 146.857 153.871 146.876 153.64 146.876H150.04V147.733C150.04 148.78 150.256 149.617 150.689 150.245C151.122 150.873 151.684 151.187 152.374 151.187C152.736 151.187 153.051 151.092 153.32 150.902C153.588 150.712 153.805 150.526 153.969 150.345C154.134 150.164 154.265 150.074 154.364 150.074C154.517 150.074 154.649 150.193 154.758 150.431C154.868 150.669 154.923 150.911 154.923 151.159C154.923 151.597 154.673 152.044 154.175 152.501C153.676 152.958 153.059 153.186 152.325 153.186C151.251 153.186 150.374 152.677 149.695 151.659C149.015 150.64 148.675 149.303 148.675 147.647L148.675 147.647ZM150.04 145.277H153.081C153.366 145.277 153.558 145.215 153.657 145.092C153.756 144.968 153.805 144.725 153.805 144.363C153.805 143.507 153.624 142.755 153.262 142.108C152.901 141.461 152.457 141.137 151.931 141.137C151.415 141.137 150.972 141.437 150.599 142.036C150.226 142.636 150.04 143.374 150.04 144.249L150.04 145.277ZM155.792 151.644C155.792 151.225 155.874 150.868 156.039 150.573C156.203 150.278 156.406 150.131 156.647 150.131C156.877 150.131 157.074 150.278 157.239 150.573C157.403 150.868 157.485 151.225 157.485 151.644C157.485 152.044 157.403 152.391 157.239 152.686C157.074 152.981 156.877 153.129 156.647 153.129C156.406 153.129 156.203 152.981 156.039 152.686C155.874 152.391 155.792 152.044 155.792 151.644ZM157.007 158.468C157.007 158.164 157.061 157.911 157.171 157.712C157.281 157.512 157.412 157.412 157.566 157.412C157.993 157.412 158.273 157.136 158.404 156.584C158.536 156.032 158.601 155.204 158.601 154.1V140.252C158.601 140.004 158.664 139.805 158.79 139.652C158.917 139.5 159.078 139.424 159.275 139.424C159.473 139.424 159.637 139.5 159.769 139.652C159.9 139.805 159.966 140.004 159.966 140.252V154.1C159.966 155.756 159.78 157.069 159.407 158.04C159.034 159.011 158.47 159.496 157.714 159.496C157.242 159.496 157.007 159.153 157.007 158.468L157.007 158.468ZM158.421 134.342C158.421 133.98 158.503 133.666 158.667 133.399C158.832 133.133 159.034 133 159.275 133C159.506 133 159.703 133.133 159.867 133.399C160.032 133.666 160.114 133.98 160.114 134.342C160.114 134.703 160.032 135.022 159.867 135.298C159.703 135.574 159.506 135.712 159.275 135.712C159.045 135.712 158.845 135.574 158.675 135.298C158.505 135.022 158.421 134.703 158.421 134.342H158.421ZM160.983 151.016C160.983 150.768 161.03 150.526 161.123 150.288C161.216 150.05 161.328 149.931 161.46 149.931C161.548 149.931 161.674 150.045 161.838 150.273C162.003 150.502 162.238 150.726 162.545 150.944C162.852 151.163 163.214 151.273 163.63 151.273C164.178 151.273 164.575 151.101 164.822 150.759C165.069 150.416 165.192 149.988 165.192 149.474C165.192 148.846 165.055 148.346 164.781 147.975C164.507 147.604 164.173 147.323 163.778 147.133C163.383 146.942 162.989 146.733 162.594 146.505C162.2 146.276 161.865 145.895 161.591 145.362C161.317 144.829 161.18 144.125 161.18 143.25C161.18 142.165 161.402 141.227 161.846 140.437C162.29 139.647 162.967 139.252 163.877 139.252C164.458 139.252 164.989 139.409 165.471 139.723C165.954 140.038 166.195 140.394 166.195 140.794C166.195 141.023 166.143 141.28 166.039 141.565C165.934 141.851 165.806 141.993 165.652 141.993C165.608 141.993 165.397 141.855 165.019 141.579C164.641 141.303 164.266 141.165 163.893 141.165C163.389 141.165 163.014 141.37 162.767 141.779C162.52 142.188 162.397 142.65 162.397 143.164C162.397 143.697 162.534 144.116 162.808 144.42C163.082 144.725 163.419 144.963 163.819 145.134C164.219 145.305 164.616 145.515 165.011 145.762C165.406 146.01 165.74 146.433 166.014 147.033C166.288 147.632 166.425 148.408 166.425 149.36C166.425 150.54 166.184 151.473 165.702 152.158C165.219 152.843 164.545 153.186 163.679 153.186C162.934 153.186 162.298 152.953 161.772 152.486C161.246 152.02 160.983 151.53 160.983 151.016L160.983 151.016Z" fill="#010101"/>
</g>
<g id="jslogo">
<path id="Vector" d="M101.946 172.268H163.487V243H101.946V172.268Z" fill="#F7DF1E"/>
<path id="Vector_2" d="M118.129 231.376L122.838 228.1C123.747 229.951 124.574 231.518 126.556 231.518C128.456 231.518 129.655 230.664 129.655 227.34V204.74H135.438V227.434C135.438 234.319 131.927 237.453 126.804 237.453C122.178 237.453 119.492 234.699 118.129 231.375L118.129 231.376ZM138.579 230.663L143.288 227.53C144.528 229.857 146.139 231.566 148.989 231.566C151.385 231.566 152.913 230.189 152.913 228.289C152.913 226.011 151.344 225.203 148.7 223.874L147.254 223.161C143.082 221.12 140.314 218.556 140.314 213.144C140.314 208.158 143.619 204.36 148.783 204.36C152.459 204.36 155.103 205.832 157.003 209.678L152.5 213.001C151.509 210.96 150.435 210.153 148.782 210.153C147.089 210.153 146.015 211.387 146.015 213.001C146.015 214.995 147.089 215.803 149.567 217.037L151.013 217.75C155.929 220.171 158.697 222.64 158.697 228.195C158.697 234.178 154.607 237.453 149.113 237.453C143.743 237.453 140.273 234.51 138.579 230.664" fill="black"/>
</g>
<g id="jquery">
<g id="Group">
<path id="Vector_3" d="M197.541 49.3191L197.098 51.7151L197.541 49.3182V49.3191ZM199.815 54.5236L199.328 54.519L199.815 54.5236ZM199.695 58.1039L196.776 58.1204L199.695 58.1039ZM200.307 54.5291L199.819 54.5245L200.307 54.5291ZM199.952 57.8014L200.461 54.8343L199.952 57.8014ZM210.702 44.1439L209.756 50.9571L210.702 44.1439ZM208.267 44.1348L207.548 49.2247L208.267 44.1348Z" fill="#131B28"/>
<path id="Vector_4" d="M210.534 43.8296H208.509C208.396 43.8296 208.285 43.9671 208.261 44.1357L206.823 54.3165C206.799 54.4842 206.687 54.6217 206.575 54.6217H205.141C203.722 54.6217 203.886 53.1212 204.182 51.0653L204.191 51.003L204.363 49.6006L204.438 49.0231L205.092 44.1357C205.115 43.9671 205.041 43.8287 204.928 43.8287H202.849C202.792 43.8317 202.736 43.8632 202.692 43.9185C202.647 43.9737 202.616 44.0497 202.602 44.1348L201.653 50.9305C201.138 54.5273 201.275 57.9573 204.074 58.0645H208.549C208.662 58.0645 208.772 57.927 208.796 57.7584L210.691 44.1321C210.715 43.9634 210.642 43.8259 210.529 43.8259L210.534 43.8296ZM218.612 54.6575C218.725 54.6575 218.792 54.795 218.776 54.9636L218.579 56.4348L218.612 54.6575ZM218.387 57.9059L218.584 56.4339L218.387 57.9059ZM218.148 58.2157L214.414 58.2432L218.148 58.2157Z" fill="#131B28"/>
<path id="Vector_5" d="M213.201 52.7627C213.199 52.6013 213.319 52.3245 213.432 52.3245L213.179 52.3181C213.059 54.0725 213.201 52.7627 213.201 52.7627V52.7627ZM214.594 58.2412H214.555H214.594ZM218.614 54.6665C218.727 54.6665 218.794 54.804 218.778 54.9726L218.554 56.6738L218.614 54.6665ZM215.553 58.2385H215.545H215.553ZM215.056 58.2412H215.027H215.056ZM214.905 58.2412H214.857H214.905ZM214.75 58.2412H214.708H214.75ZM215.027 58.2412H214.904H215.027Z" fill="#131B28"/>
<path id="Vector_6" d="M215.545 58.2386L215.056 58.2413L215.545 58.2386ZM218.144 58.2138L215.552 58.2377L218.144 58.2138ZM218.383 57.9068L218.548 56.6749L218.383 57.9077V57.9068ZM214.85 58.2413H214.744H214.85ZM214.548 58.2432H214.404H214.548ZM214.7 58.2413H214.58H214.7ZM185.062 52.7994L185.377 50.6656L185.017 53.1037L184.975 53.4099L185.063 52.7976L185.062 52.7994ZM188.83 43.7938H186.605C186.548 43.7972 186.492 43.8287 186.447 43.8836C186.403 43.9385 186.37 44.014 186.355 44.099L185.933 46.9405C185.926 46.9773 185.925 47.0161 185.93 47.0537C185.935 47.0914 185.946 47.1267 185.961 47.1566C185.977 47.1866 185.997 47.2103 186.02 47.2258C186.043 47.2413 186.068 47.2482 186.093 47.2457H188.335C188.448 47.2457 188.559 47.1082 188.583 46.9405L188.991 44.0926C189.015 43.9248 188.943 43.7874 188.829 43.7874L188.83 43.7938ZM188.351 48.5326L187.692 53.1505L188.351 48.5326ZM181.887 63.8326L183.722 63.8546C183.18 63.8546 182.286 63.8391 181.887 63.8317L181.887 63.8326Z" fill="#131B28"/>
<path id="Vector_7" d="M185.697 48.5319L185.382 50.6657L185.697 48.5319ZM188.19 48.2257H185.953C185.896 48.2292 185.84 48.2606 185.796 48.3156C185.751 48.3705 185.718 48.446 185.703 48.531L185.074 52.7987L184.987 53.411L184.387 57.7676C184.358 57.9708 184.322 58.1718 184.28 58.3698C184.28 58.3698 183.86 60.2764 183.157 60.2553L182.458 60.2351C182.401 60.2376 182.346 60.2679 182.301 60.3216C182.255 60.3753 182.223 60.4497 182.207 60.5339L181.742 63.5239C181.734 63.5605 181.733 63.5992 181.737 63.6368C181.742 63.6744 181.752 63.7098 181.768 63.74C181.783 63.7702 181.803 63.7943 181.826 63.8103C181.848 63.8263 181.873 63.8337 181.898 63.8319L183.734 63.8548C185.493 63.8548 186.42 62.3635 187.015 58.0738L188.363 48.541C188.387 48.3733 188.314 48.2358 188.202 48.2358L188.19 48.2257ZM220.046 58.0673C219.934 58.0673 219.867 57.9298 219.885 57.7612L221.573 45.6748L220.046 58.0673ZM222.391 57.7612L223.074 52.6025L222.391 57.7612Z" fill="#131B28"/>
<path id="Vector_8" d="M219.91 57.9152C219.896 57.8309 219.904 57.6246 219.928 57.4569L220.728 51.7189L219.884 57.7621C219.86 57.9308 219.934 58.0683 220.046 58.0683H220.251C220.139 58.0683 219.923 57.9995 219.91 57.9152V57.9152ZM222.259 57.9995C222.198 58.0362 222.055 58.0683 221.942 58.0683H222.147C222.204 58.0648 222.259 58.033 222.304 57.9776C222.348 57.9222 222.379 57.8462 222.393 57.7612L222.434 57.4551C222.411 57.6237 222.314 57.9619 222.254 57.9995H222.259ZM222.733 55.1819L223.035 52.905L222.733 55.1819ZM229.39 46.4851L229.483 47.0717C229.508 47.2395 229.437 47.376 229.325 47.377" fill="#131B28"/>
<path id="Vector_9" d="M222.433 57.4548L222.732 55.1816L222.433 57.4548ZM229.297 45.8826L229.389 46.4839L229.297 45.8826ZM223.035 52.9066L223.118 52.298L223.439 49.9927L223.075 52.6032L223.035 52.9057V52.9066ZM221.6 45.4766L221.53 45.9807L220.729 51.7187L221.573 45.6755L221.6 45.4775V45.4766Z" fill="#131B28"/>
<path id="Vector_10" d="M229.484 47.0716L229.392 46.485L229.254 45.5684C229.072 44.4868 228.537 43.8607 227.376 43.8607L222.03 43.8552C221.973 43.8583 221.918 43.8898 221.873 43.945C221.829 44.0003 221.797 44.0762 221.783 44.1614L221.701 44.7599L221.581 45.6646L219.937 57.4458C219.913 57.6144 219.905 57.8124 219.919 57.9041C219.932 57.9957 220.148 58.0572 220.26 58.0572H221.95C222.063 58.0572 222.205 58.026 222.266 57.9884C222.328 57.9508 222.419 57.6218 222.446 57.444L223.087 52.5914L223.774 47.6748C223.798 47.507 223.908 47.3704 224.02 47.3695L229.338 47.3659C229.45 47.3659 229.521 47.2284 229.495 47.0606L229.484 47.0716ZM236.329 41.7608L235.92 41.7636H234.218C234.156 41.7692 234.095 41.7952 234.04 41.8398C233.984 41.8844 233.936 41.9465 233.898 42.022L230.135 50.4548C230.071 50.5969 229.999 50.5758 229.973 50.409L229.696 48.551C229.681 48.466 229.649 48.3906 229.604 48.3356C229.559 48.2807 229.504 48.2492 229.446 48.2458H227.027C226.914 48.2458 226.847 48.3805 226.878 48.5464L227.957 54.3559C227.988 54.5209 227.99 54.7931 227.963 54.9609L227.484 57.7721C227.475 57.8081 227.473 57.8467 227.477 57.8844C227.481 57.922 227.491 57.9575 227.507 57.9877C227.522 58.0178 227.542 58.0416 227.565 58.057C227.588 58.0723 227.613 58.0787 227.638 58.0755H230.035C230.147 58.0755 230.262 57.938 230.29 57.773L230.769 54.9618C230.807 54.7638 230.866 54.5768 230.943 54.4081L237.053 42.0046C237.121 41.8671 237.084 41.7553 236.971 41.7571L236.33 41.7636L236.329 41.7608ZM217.108 49.0368C217.093 49.2202 216.98 49.3576 216.868 49.3576H213.8C213.694 49.3576 213.64 49.2476 213.656 49.1102L213.658 49.0854L213.672 49.0057C213.972 47.8141 214.562 47.0322 215.683 47.0322C216.946 47.0322 217.192 47.9763 217.106 49.0368H217.108ZM216.209 43.6215C212.272 43.6215 211.339 47.2769 210.815 50.9663C210.292 54.7271 210.337 58.2441 214.411 58.2441H215.057L215.554 58.2414L218.147 58.2176C218.203 58.2135 218.258 58.1814 218.302 58.1261C218.346 58.0707 218.377 57.9951 218.391 57.9105L218.784 54.9664C218.807 54.7977 218.733 54.6602 218.621 54.6602H214.959C213.502 54.6602 213.069 54.0681 213.229 52.3274H219.083C219.179 52.3247 219.266 52.2358 219.3 52.0965C219.306 52.0717 219.312 52.0451 219.315 52.0186C220.183 47.0047 219.934 43.6252 216.21 43.6252L216.209 43.6215ZM197.598 49.0176L197.543 49.3173C197.543 49.3182 197.101 51.7152 197.101 51.7152L196.659 54.1112C196.64 54.1956 196.606 54.2696 196.559 54.3233C196.513 54.377 196.457 54.4078 196.399 54.4118H194.059C192.284 54.4118 191.852 52.288 192.284 49.156C192.715 45.9524 193.563 43.9607 195.31 43.759C197.697 43.484 198.174 46.0524 197.599 49.0167L197.598 49.0176ZM199.203 54.2285C199.203 54.2285 200.306 50.1313 200.557 47.7637C200.899 44.595 199.862 40 195.856 40C191.873 40 190.144 44.3869 189.484 49.1661C188.825 53.9691 189.689 58.1818 193.649 58.1488L199.693 58.1149C199.751 58.1107 199.806 58.0792 199.852 58.0247C199.898 57.9702 199.932 57.8954 199.949 57.8106L200.458 54.8426C200.466 54.8067 200.468 54.7682 200.465 54.7305C200.461 54.6929 200.451 54.6574 200.435 54.6272C200.42 54.597 200.4 54.573 200.378 54.5575C200.355 54.542 200.33 54.5354 200.305 54.5383H199.33C199.234 54.5374 199.18 54.443 199.191 54.3183C199.193 54.2954 199.197 54.2725 199.203 54.2487V54.2285Z" fill="#131B28"/>
<path id="Vector_11" d="M218.919 51.4861C218.919 51.5997 218.859 51.6914 218.784 51.6914C218.709 51.6914 218.649 51.5997 218.649 51.4861C218.649 51.3724 218.709 51.2808 218.784 51.2808C218.859 51.2808 218.919 51.3724 218.919 51.4861Z" fill="#131B28"/>
</g>
<path id="Vector_12" d="M168.789 46.1585C167.689 48.5765 167.826 51.7223 168.666 54.2906L168.728 54.4739L168.767 54.5894L168.791 54.6563L168.835 54.7755L168.915 54.9863L168.961 55.1018L169.054 55.3245L169.093 55.418L169.228 55.7159L169.254 55.7709L169.377 56.0212L169.423 56.111L169.543 56.3246L169.586 56.4043L169.745 56.6811L169.754 56.6967L169.915 56.9561L169.966 57.0358L170.095 57.2192L170.147 57.2952L170.323 57.54L170.356 57.5831L170.516 57.7893L170.576 57.87L170.709 58.0294L170.781 58.1211L170.931 58.2861L171.001 58.3613L171.146 58.5079L171.209 58.5721L171.436 58.7847L171.499 58.8397L171.67 58.9864L171.765 59.0597L171.887 59.1569L171.915 59.1779L171.965 59.2146L172.158 59.3521L172.199 59.3796L172.425 59.5226L172.48 59.5556L172.693 59.6766L172.72 59.6913L172.957 59.8104L173.015 59.8361L173.254 59.9424C178.573 61.4273 180.118 55.0532 180.118 55.0532C178.82 57.638 176.522 58.3209 174.335 57.562C174.252 57.5345 174.172 57.4941 174.092 57.4575L174.032 57.43C173.953 57.3931 173.875 57.3543 173.798 57.3136L173.766 57.2952C173.696 57.2586 173.628 57.2182 173.559 57.1779L173.501 57.1431C173.426 57.0978 173.351 57.0504 173.277 57.001L173.233 56.9708L173.045 56.8369L172.985 56.7966C172.936 56.7599 172.888 56.7214 172.839 56.6829L172.742 56.605C172.683 56.5568 172.625 56.507 172.568 56.4556L172.509 56.4052C172.432 56.3361 172.356 56.2652 172.281 56.1926C172.26 56.1724 172.241 56.1504 172.22 56.1302L172.058 55.9652C172.04 55.9469 172.024 55.9286 172.006 55.9102L171.853 55.7407L171.786 55.6628L171.648 55.4978L171.586 55.4226L171.414 55.2008C171.408 55.1916 171.402 55.1852 171.396 55.177C171.335 55.0853 171.275 55.0101 171.215 54.9258L171.164 54.8506L171.034 54.6563L170.983 54.5784C170.929 54.4939 170.876 54.4081 170.824 54.3208C170.766 54.2245 170.71 54.1268 170.654 54.0275L170.612 53.9505L170.496 53.7305L170.454 53.6389L170.32 53.3657C169.114 50.8432 168.679 47.3565 169.654 44.493L168.789 46.1585ZM172.208 44.1218C171.413 45.8633 171.456 48.2162 172.076 50.0669C172.18 50.3781 172.298 50.6782 172.428 50.9651C172.548 51.2264 172.68 51.5371 172.837 51.747L173.016 52.022L173.063 52.0926L173.245 52.352L173.254 52.3639L173.467 52.6334L173.515 52.6911L173.737 52.9386L173.893 53.0972L174.058 53.253L174.082 53.2741L174.228 53.3987L174.28 53.44L174.382 53.5206L174.398 53.5316L174.611 53.6838L174.657 53.7131L174.837 53.8213L174.912 53.8635L175.072 53.9487L175.144 53.9854C175.221 54.022 175.296 54.077 175.376 54.088C179.482 55.1284 180.43 50.2933 180.43 50.2933C179.576 52.176 177.921 53.0743 176.155 52.374L175.922 52.2713L175.852 52.2365L175.69 52.1503L175.617 52.1082L175.442 52L175.394 51.9697L175.18 51.8176L175.072 51.7259L175.01 51.6773L174.842 51.5307L174.678 51.3767L174.522 51.2181L174.3 50.9706L174.25 50.9101C173.471 49.977 172.864 48.7103 172.573 47.2547C172.273 45.7542 172.333 44.0704 172.862 42.7038L172.208 44.1218ZM175.073 42.6002C174.605 43.6543 174.558 44.965 174.884 46.1319C175.227 47.3693 175.93 48.3317 176.75 48.79L176.852 48.845L176.897 48.867L177.044 48.9312C179.311 49.6003 179.92 47.1511 180.089 46.7909C179.55 47.977 178.651 48.2621 177.534 47.8496C177.443 47.8129 177.353 47.7707 177.265 47.7231C177.156 47.6642 177.049 47.5966 176.945 47.5205C176.748 47.3752 176.56 47.2002 176.386 46.9981C175.391 45.8431 174.768 43.6433 175.423 41.8513" fill="#0868AC"/>
</g>
<g id="nuxt">
<g id="Calque 1-2">
<path id="path8" d="M162.245 88.2465C162.287 88.3616 162.319 88.4977 162.34 88.6467C162.361 88.7958 162.371 88.9547 162.369 89.1142V105.795C162.371 105.971 162.36 106.147 162.336 106.312C162.312 106.477 162.276 106.628 162.231 106.756C162.185 106.884 162.13 106.985 162.069 107.052C162.008 107.12 161.943 107.152 161.877 107.147C161.802 107.147 161.728 107.115 161.657 107.053C161.592 106.999 161.533 106.899 161.487 106.764L157.458 92.6941V105.939C157.462 106.25 157.419 106.552 157.339 106.778C157.26 107.005 157.15 107.137 157.034 107.147C157.026 107.148 157.017 107.148 157.008 107.147C156.949 107.153 156.89 107.125 156.835 107.066C156.78 107.007 156.731 106.917 156.69 106.803C156.649 106.688 156.617 106.552 156.596 106.404C156.575 106.256 156.566 106.098 156.568 105.939V89.2235C156.566 89.0474 156.578 88.8724 156.603 88.7096C156.628 88.5467 156.666 88.3997 156.713 88.2778C156.758 88.1557 156.811 88.0596 156.87 87.9957C156.929 87.9318 156.992 87.9014 157.056 87.9065C157.137 87.9054 157.217 87.9466 157.292 88.0277C157.36 88.0985 157.42 88.2173 157.465 88.3715L161.477 102.473V89.1142C161.476 88.9602 161.485 88.8069 161.506 88.6629C161.526 88.5189 161.557 88.3871 161.596 88.2749C161.635 88.1628 161.682 88.0725 161.735 88.0093C161.787 87.9461 161.844 87.9111 161.901 87.9065C161.91 87.9058 161.919 87.9058 161.928 87.9065C161.987 87.9006 162.045 87.9279 162.1 87.9864C162.155 88.045 162.204 88.1336 162.245 88.2465H162.245ZM170.523 88.2465C170.61 88.5063 170.656 88.8469 170.651 89.1962V99.7485C170.659 101.112 170.536 102.459 170.293 103.657C170.062 104.787 169.72 105.724 169.303 106.365C168.871 107.029 168.381 107.372 167.884 107.358C167.381 107.379 166.886 107.043 166.448 106.385C166.03 105.746 165.686 104.809 165.454 103.676C165.211 102.478 165.087 101.132 165.096 99.768V89.2157C165.094 89.0389 165.106 88.8629 165.131 88.6993C165.156 88.5357 165.194 88.3881 165.242 88.266C165.29 88.1384 165.348 88.038 165.411 87.9709C165.475 87.9038 165.542 87.8713 165.61 87.8752C165.674 87.8754 165.738 87.91 165.797 87.9772C165.856 88.0443 165.909 88.1425 165.954 88.266C166.001 88.3859 166.039 88.5309 166.064 88.6917C166.089 88.8526 166.101 89.0258 166.1 89.2001V99.7524C166.095 100.653 166.18 101.541 166.346 102.324C166.5 103.053 166.724 103.66 166.994 104.082C167.264 104.504 167.571 104.727 167.884 104.728C168.203 104.734 168.518 104.515 168.796 104.094C169.077 103.678 169.31 103.067 169.472 102.324C169.641 101.544 169.728 100.655 169.723 99.7524V89.2001C169.718 88.8537 169.762 88.515 169.845 88.2504C169.888 88.1227 169.94 88.0216 169.999 87.9541C170.057 87.8866 170.121 87.8543 170.185 87.8596C170.248 87.8557 170.311 87.8881 170.369 87.9548C170.428 88.0215 170.48 88.1209 170.523 88.2462L170.523 88.2465ZM178.411 105.169C178.473 105.396 178.505 105.67 178.503 105.951C178.506 106.125 178.494 106.3 178.469 106.461C178.444 106.623 178.406 106.767 178.357 106.885C178.267 107.113 178.148 107.241 178.024 107.24C177.945 107.248 177.867 107.202 177.797 107.106C177.728 107.011 177.668 106.868 177.624 106.693L175.632 99.5607L173.685 106.681C173.642 106.86 173.583 107.006 173.513 107.106C173.443 107.207 173.365 107.258 173.286 107.256C173.228 107.259 173.17 107.231 173.116 107.172C173.062 107.112 173.013 107.024 172.973 106.912C172.933 106.813 172.9 106.692 172.878 106.557C172.856 106.423 172.845 106.277 172.845 106.13C172.847 105.8 172.89 105.48 172.968 105.224L175.07 97.5519L172.958 89.9386C172.892 89.7161 172.856 89.4411 172.855 89.1569C172.854 88.9826 172.866 88.8094 172.891 88.6485C172.916 88.4877 172.953 88.3427 173.001 88.2228C173.045 88.0994 173.099 88.0012 173.158 87.934C173.217 87.8669 173.28 87.8322 173.344 87.832C173.421 87.8331 173.496 87.8812 173.564 87.9727C173.637 88.0646 173.699 88.2062 173.744 88.3831L175.713 95.4762L177.662 88.4531C177.705 88.2769 177.762 88.1302 177.83 88.025C177.897 87.9197 177.973 87.8588 178.052 87.8473C178.113 87.8482 178.173 87.8835 178.229 87.9508C178.284 88.0181 178.334 88.116 178.375 88.2381C178.419 88.3443 178.455 88.4735 178.48 88.618C178.505 88.7624 178.519 88.9191 178.521 89.0783C178.517 89.3607 178.482 89.6334 178.419 89.8599L176.279 97.4974L178.411 105.169ZM185.807 88.2465C185.855 88.363 185.893 88.5057 185.918 88.6649C185.943 88.8241 185.955 88.9961 185.953 89.1689C185.955 89.3393 185.943 89.5088 185.917 89.6654C185.892 89.822 185.855 89.9619 185.807 90.0755C185.709 90.2995 185.582 90.4166 185.453 90.4039H183.629V105.83C183.63 106.004 183.617 106.177 183.592 106.338C183.567 106.499 183.53 106.644 183.483 106.764C183.38 107.011 183.246 107.147 183.108 107.147C182.97 107.147 182.837 107.011 182.734 106.764C182.687 106.644 182.65 106.498 182.625 106.338C182.599 106.177 182.587 106.004 182.588 105.83V90.4039H180.768C180.638 90.417 180.512 90.2952 180.415 90.0639C180.369 89.9456 180.333 89.8022 180.309 89.6431C180.285 89.4841 180.274 89.3132 180.277 89.1419C180.275 88.9749 180.286 88.8086 180.31 88.6542C180.334 88.4998 180.37 88.3609 180.415 88.2468C180.512 88.0155 180.638 87.8937 180.768 87.9068H185.453C185.583 87.8942 185.71 88.0157 185.807 88.2465V88.2465Z" fill="#2C4A5D"/>
<path id="path10" d="M188.051 106.654C187.719 106.15 187.443 105.419 187.25 104.536C187.194 104.318 187.161 104.06 187.157 103.794C187.157 103.623 187.171 103.455 187.198 103.3C187.224 103.146 187.263 103.009 187.312 102.898C187.395 102.664 187.509 102.525 187.629 102.508C187.72 102.53 187.808 102.603 187.887 102.722C187.967 102.84 188.036 103.001 188.091 103.195C188.203 103.69 188.361 104.097 188.55 104.376C188.739 104.656 188.951 104.799 189.167 104.79C189.343 104.801 189.518 104.717 189.682 104.542C189.846 104.368 189.995 104.106 190.12 103.774C190.246 103.453 190.346 103.064 190.414 102.634C190.481 102.203 190.514 101.74 190.511 101.273V89.2233C190.51 89.0474 190.523 88.873 190.549 88.712C190.576 88.5509 190.615 88.4068 190.664 88.2893C190.759 88.037 190.888 87.8965 191.022 87.8984C191.089 87.8897 191.156 87.9182 191.219 87.982C191.281 88.0459 191.338 88.1439 191.386 88.2698C191.432 88.3939 191.468 88.5418 191.492 88.7044C191.516 88.867 191.527 89.0409 191.525 89.2155V101.292C191.529 102.375 191.422 103.439 191.217 104.372C191.014 105.301 190.722 106.069 190.372 106.596C190.005 107.153 189.589 107.439 189.167 107.424C188.776 107.435 188.391 107.17 188.051 106.654V106.654ZM195.098 106.857C194.692 106.444 194.319 105.824 194.001 105.032C193.936 104.899 193.883 104.728 193.846 104.533C193.809 104.337 193.789 104.122 193.787 103.903C193.787 103.736 193.801 103.571 193.826 103.418C193.851 103.264 193.887 103.126 193.932 103.012C193.975 102.887 194.028 102.788 194.086 102.721C194.144 102.653 194.207 102.619 194.27 102.621C194.378 102.617 194.483 102.725 194.562 102.922C194.808 103.552 195.094 104.059 195.407 104.419C195.722 104.754 196.058 104.919 196.397 104.903C196.782 104.936 197.163 104.657 197.488 104.102C197.621 103.901 197.733 103.611 197.811 103.259C197.889 102.907 197.932 102.507 197.934 102.097C197.937 101.657 197.897 101.222 197.819 100.835C197.741 100.448 197.627 100.121 197.488 99.885C197.079 99.2405 196.63 98.7983 196.162 98.5797C195.569 98.3249 195.009 97.6714 194.536 96.6803C194.345 96.2247 194.195 95.6596 194.096 95.027C193.998 94.3944 193.954 93.7105 193.967 93.0261C193.959 92.0045 194.072 91.0022 194.288 90.1613C194.508 89.3267 194.811 88.6741 195.162 88.2776C195.564 87.8229 195.997 87.598 196.433 87.6171C196.842 87.6101 197.248 87.7966 197.633 88.1681C197.972 88.475 198.283 88.9719 198.545 89.6259C198.614 89.7626 198.671 89.9386 198.712 90.1413C198.752 90.344 198.776 90.5684 198.781 90.7984C198.781 90.9623 198.768 91.1246 198.745 91.2756C198.721 91.4267 198.686 91.5634 198.642 91.6778C198.6 91.8034 198.549 91.9033 198.491 91.9708C198.434 92.0382 198.371 92.0716 198.309 92.0686C198.223 92.0773 198.139 91.9975 198.074 91.8455C197.861 91.3107 197.61 90.8995 197.335 90.6379C197.051 90.3302 196.747 90.1685 196.44 90.161C196.056 90.1081 195.675 90.3729 195.349 90.9194C195.224 91.1411 195.122 91.4422 195.051 91.7958C194.98 92.1494 194.943 92.5445 194.943 92.9459C194.943 93.3472 194.98 93.7423 195.051 94.0959C195.122 94.4495 195.224 94.7506 195.349 94.9723C195.722 95.5562 196.13 95.966 196.554 96.1842C197.005 96.4221 197.444 96.7904 197.866 97.2825C198.183 97.6594 198.455 98.2689 198.65 99.0412C198.847 99.9289 198.942 100.952 198.925 101.984C198.931 102.999 198.814 103.991 198.593 104.814C198.36 105.662 198.046 106.327 197.685 106.74C197.288 107.207 196.858 107.441 196.424 107.428C195.973 107.451 195.524 107.257 195.098 106.857V106.857Z" fill="#00C391"/>
<path id="path12" d="M142.252 106.92C142.241 106.871 142.232 106.82 142.224 106.768C142.168 106.421 142.151 106.038 142.175 105.666H138.868L143.782 82.4739L145.395 90.0794L145.863 87.8595L144.457 81.2154C144.389 80.8751 144.291 80.5855 144.171 80.3732C144.051 80.1609 143.914 80.0326 143.77 80C143.628 80.0175 143.489 80.1422 143.372 80.3599C143.254 80.5775 143.161 80.8794 143.104 81.2311L138.126 104.704C138.052 105.036 138.009 105.411 138.001 105.797C137.994 106.184 138.022 106.569 138.082 106.92C138.159 107.244 138.268 107.503 138.397 107.67C138.525 107.836 138.669 107.903 138.811 107.862H142.981C142.838 107.904 142.695 107.837 142.566 107.671C142.437 107.504 142.328 107.244 142.252 106.92V106.92Z" fill="#00C492"/>
<path id="path14" d="M151.838 104.704L147.747 85.378C147.68 85.0341 147.582 84.741 147.461 84.5258C147.341 84.3107 147.202 84.1804 147.058 84.147C146.915 84.1635 146.777 84.2873 146.659 84.5043C146.541 84.7213 146.449 85.0227 146.392 85.3742L145.863 87.8598L146.333 90.0797L147.062 86.6209L151.109 105.666H149.57C149.59 105.981 149.579 106.304 149.538 106.604C149.53 106.67 149.519 106.734 149.506 106.795L149.493 106.866C149.409 107.182 149.298 107.439 149.169 107.613C149.039 107.786 148.896 107.872 148.751 107.862H151.159C151.303 107.872 151.447 107.787 151.576 107.613C151.706 107.439 151.817 107.183 151.9 106.866C151.966 106.526 151.995 106.143 151.984 105.761C151.973 105.379 151.923 105.013 151.838 104.704Z" fill="#008776"/>
<path id="path16" d="M149.494 106.866L149.507 106.796C149.52 106.734 149.53 106.67 149.539 106.604C149.58 106.304 149.591 105.981 149.571 105.666C149.548 105.327 149.503 105.001 149.437 104.705L146.337 90.08L145.864 87.8601L145.393 90.08L142.295 104.705C142.234 105.005 142.194 105.33 142.175 105.666C142.15 106.038 142.166 106.421 142.22 106.769C142.228 106.821 142.238 106.872 142.248 106.921C142.325 107.245 142.433 107.504 142.562 107.671C142.691 107.837 142.835 107.904 142.977 107.863H148.748C148.893 107.874 149.037 107.789 149.167 107.615C149.297 107.441 149.409 107.184 149.494 106.866V106.866ZM145.863 92.2998L148.696 105.666H143.032L145.863 92.2998Z" fill="#2D4A5D"/>
</g>
</g>
<path id="bootstrap" fill-rule="evenodd" clip-rule="evenodd" d="M37.4836 101.536C35.3462 101.536 33.7646 104.346 33.8355 107.394C33.9034 110.322 33.8151 114.115 33.1796 117.208C32.5419 120.309 31.464 122.274 29.7031 122.527V125.375C31.464 125.628 32.5419 127.592 33.1796 130.694C33.8151 133.787 33.9034 137.579 33.8354 140.507C33.7646 143.555 35.3461 146.366 37.4839 146.366H59.3851C61.5225 146.366 63.1038 143.555 63.0329 140.507C62.965 137.579 63.0533 133.787 63.6888 130.694C64.3265 127.592 65.4017 125.627 67.1627 125.375V122.527C65.4018 122.274 64.3266 120.309 63.6888 117.208C63.0532 114.115 62.965 110.322 63.0329 107.394C63.1038 104.347 61.5225 101.536 59.3851 101.536H37.4833H37.4836ZM55.0995 129.132C55.0995 133.328 53.0157 135.874 49.5577 135.874H43.6711C43.5027 135.874 43.3412 135.773 43.2221 135.594C43.1031 135.415 43.0362 135.173 43.0362 134.92V112.982C43.0362 112.729 43.1031 112.486 43.2221 112.307C43.3412 112.128 43.5027 112.028 43.6711 112.028H49.5241C52.4076 112.028 54.3 114.374 54.3 117.977C54.3 120.505 53.0269 122.769 51.4051 123.166V123.298C53.6129 123.661 55.0995 125.959 55.0995 129.132V129.132ZM48.9158 115.051H45.5594V122.174H48.3863C50.5717 122.174 51.7767 120.852 51.7767 118.489C51.7765 116.274 50.7405 115.051 48.9158 115.051ZM45.5594 125V132.849H49.0393C51.3147 132.849 52.5199 131.477 52.5199 128.9C52.5199 126.322 51.2809 125 48.893 125H45.5594V125Z" fill="#7952B3"/>
<path id="tailwind-icon" d="M120.914 17C116.404 17 113.585 20.7853 112.457 28.3556C114.148 24.5703 116.122 23.1509 118.377 24.0973C119.664 24.6371 120.583 26.204 121.601 27.9382C123.26 30.7636 125.179 34.0334 129.371 34.0334C133.881 34.0334 136.7 30.2482 137.828 22.6778C136.137 26.4631 134.163 27.8825 131.908 26.9362C130.621 26.3963 129.702 24.8294 128.684 23.0952C127.025 20.2698 125.106 17 120.914 17ZM112.457 34.0334C107.947 34.0334 105.128 37.8187 104 45.3891C105.691 41.6038 107.665 40.1843 109.92 41.1307C111.207 41.6705 112.126 43.2375 113.144 44.9717C114.803 47.797 116.722 51.0669 120.914 51.0669C125.424 51.0669 128.243 47.2816 129.371 39.7113C127.68 43.4965 125.706 44.916 123.451 43.9696C122.164 43.4298 121.245 41.8628 120.227 40.1287C118.568 37.3033 116.649 34.0334 112.457 34.0334Z" fill="url(#paint0_linear_2_87)"/>
<g id="vuetify-icon">
<path id="Vector_13" d="M86.4063 59H77.3096L86.4063 76.7426" fill="#1697F6"/>
<path id="Vector_14" d="M86.4067 59H95.5034L86.4067 76.7426" fill="#1867C0"/>
<path id="Vector_15" d="M86.4063 81.8631V95.5897L67 64.3245H77.1654" fill="#7BC6FF"/>
<path id="Vector_16" d="M86.4067 81.8631V95.5897L105.813 64.3245H95.6476" fill="#AEDDFF"/>
</g>
<g id="css-icon">
<path id="Vector_17" d="M46.7255 242.742L24.0526 236.681L19 182.115H74.5189L69.461 236.673L46.7255 242.742V242.742Z" fill="#264DE4"/>
<path id="Vector_18" d="M65.1312 233.199L69.4533 186.577H46.7598V238.103L65.1312 233.199V233.199Z" fill="#2965F1"/>
<path id="Vector_19" d="M30.5833 206.815L31.2062 213.507H46.7598V206.815H30.5833ZM29.3315 193.27L29.9633 199.962H46.7598V193.27H29.3315V193.27ZM46.7598 224.195L46.7293 224.203L38.9887 222.191L38.4939 216.853H31.5167L32.4904 227.361L46.7278 231.167L46.7598 231.158V224.195Z" fill="#EBEBEB"/>
<path id="Vector_20" d="M32.0659 167.287H40.4837V170.676H35.5863V174.066H40.4842V177.455H32.0659V167.287ZM42.1675 167.287H50.5856V170.234H45.6879V170.824H50.5856V177.603H42.1677V174.508H47.0654V173.918H42.1673V167.287H42.1675ZM52.2693 167.287H60.6874V170.234H55.7897V170.824H60.6874V177.603H52.2693V174.508H57.167V173.918H52.2696V167.287H52.2693Z" fill="black"/>
<path id="Vector_21" d="M62.8916 206.815L64.1462 193.27H46.7356V199.962H56.5292L55.8968 206.815H46.7356V213.507H55.2942L54.4872 222.186L46.7354 224.201V231.163L60.9841 227.361L61.0885 226.23L62.722 208.612L62.8916 206.815V206.815Z" fill="white"/>
</g>
<g id="cog-java">
<g id="cog-three">
<path id="Vector_22" d="M303.787 26.9519C303.787 27.9358 303.174 28.7335 302.418 28.7335V30.067C303.74 30.067 304.812 28.6722 304.812 26.9517C304.812 25.2314 303.74 23.8364 302.418 23.8364V25.1699C303.174 25.1701 303.787 25.9679 303.787 26.9519Z" fill="#F6D276"/>
<path id="Vector_23" d="M300.023 26.9518C300.023 28.6723 301.095 30.0671 302.418 30.0671V28.7336C301.662 28.7336 301.049 27.9359 301.049 26.952C301.049 25.9681 301.662 25.1704 302.418 25.1704V23.8369C301.095 23.8365 300.023 25.2313 300.023 26.9518Z" fill="#F6E7AA"/>
<path id="Vector_24" d="M297.776 26.9518H297.776C297.776 30.2873 299.854 32.9908 302.417 32.9908V31.4021C300.528 31.4021 298.997 29.4098 298.997 26.9518C298.997 24.494 300.528 22.5015 302.417 22.5015V20.9128C299.854 20.9126 297.776 23.6166 297.776 26.9518Z" fill="#F6E7AA"/>
<path id="Vector_25" d="M305.838 26.9518C305.838 29.4098 304.307 31.4021 302.418 31.4021V32.9908C304.981 32.9908 307.059 30.287 307.059 26.9518H307.059C307.059 23.6166 304.981 20.9128 302.418 20.9128V22.5015C304.307 22.5015 305.838 24.494 305.838 26.9518Z" fill="#F6D276"/>
<path id="Vector_26" d="M300.024 26.9517C300.024 25.2314 301.096 23.8364 302.418 23.8364V22.5015C300.529 22.5015 298.998 24.494 298.998 26.9517C298.998 29.4097 300.529 31.402 302.418 31.402V30.067C301.096 30.0668 300.024 28.6722 300.024 26.9517Z" fill="#FAA338"/>
<path id="Vector_27" d="M305.838 26.9517C305.838 24.494 304.307 22.5015 302.418 22.5015V23.8364C303.74 23.8364 304.812 25.2312 304.812 26.9517C304.812 28.6722 303.74 30.067 302.418 30.067V31.402C304.307 31.402 305.838 29.4097 305.838 26.9517Z" fill="#F2852A"/>
<path id="Vector_28" d="M309.99 25.8519H308.648C308.499 24.4147 308.066 23.0988 307.421 21.9987L308.37 20.7638C308.699 20.3359 308.699 19.6358 308.37 19.2079C308.041 18.78 307.503 18.78 307.174 19.2079L306.225 20.4427C305.379 19.6043 304.368 19.0396 303.264 18.8463V17.1006C303.264 16.4953 302.883 16.0002 302.418 16.0002V20.9133C304.981 20.9133 307.059 23.6172 307.059 26.9522H307.059C307.059 30.2877 304.981 32.9912 302.418 32.9912V37.9042C302.883 37.9042 303.264 37.4092 303.264 36.8041V35.0584C304.368 34.8647 305.379 34.3004 306.225 33.4619L307.174 34.6966C307.503 35.1247 308.041 35.1247 308.37 34.6966C308.699 34.2689 308.699 33.5686 308.37 33.1406L307.421 31.9058C308.066 30.8056 308.499 29.4896 308.648 28.0528H309.99C310.455 28.0528 310.835 27.5577 310.835 26.9525C310.835 26.3468 310.455 25.8519 309.99 25.8519Z" fill="#FAA338"/>
<path id="Vector_29" d="M297.776 26.952H297.776C297.776 23.6168 299.854 20.913 302.418 20.913V16C301.952 16 301.572 16.4951 301.572 17.1003V18.846C300.467 19.0395 299.456 19.6041 298.611 20.4425L297.661 19.2076C297.333 18.7797 296.794 18.7797 296.466 19.2076C296.137 19.6356 296.137 20.3357 296.466 20.7636L297.415 21.9985C296.77 23.0986 296.336 24.4147 296.188 25.8517H294.846C294.381 25.8517 294 26.3465 294 26.9518C294 27.557 294.381 28.0521 294.846 28.0521H296.187C296.336 29.4891 296.77 30.805 297.414 31.9051L296.465 33.14C296.136 33.5679 296.136 34.2682 296.465 34.6959C296.794 35.1241 297.332 35.1241 297.661 34.6959L298.61 33.4613C299.456 34.2997 300.467 34.8642 301.572 35.0577V36.8034C301.572 37.4085 301.952 37.9036 302.417 37.9036V32.9905C299.854 32.991 297.776 30.2872 297.776 26.952Z" fill="#FDBB47"/>
<path id="Vector_30" d="M301.048 26.952C301.048 27.9358 301.661 28.7335 302.418 28.7335V25.1702C301.661 25.1702 301.048 25.9679 301.048 26.952Z" fill="#493633"/>
<path id="Vector_31" d="M303.787 26.952C303.787 25.9681 303.174 25.1704 302.418 25.1704V28.7338C303.174 28.7336 303.787 27.9358 303.787 26.952Z" fill="#342421"/>
</g>
</g>
<g id="csharp">
<path id="Vector_32" d="M336.511 192.359C336.511 191.153 336.258 190.087 335.748 189.173C335.247 188.273 334.496 187.519 333.489 186.923C325.178 182.024 316.858 177.141 308.549 172.237C306.309 170.915 304.137 170.963 301.914 172.304C298.606 174.298 282.043 183.998 277.107 186.921C275.074 188.124 274.085 189.965 274.085 192.357C274.082 202.209 274.085 212.061 274.082 221.913C274.082 223.093 274.324 224.138 274.811 225.039C275.313 225.966 276.074 226.74 277.104 227.35C282.04 230.272 298.605 239.971 301.913 241.966C304.137 243.308 306.309 243.356 308.55 242.034C316.859 237.13 325.179 232.246 333.492 227.347C334.522 226.737 335.283 225.962 335.785 225.036C336.272 224.135 336.514 223.09 336.514 221.911C336.514 221.911 336.514 202.212 336.511 192.359Z" fill="#A179DC"/>
<path id="Vector_33" d="M305.393 207.039L274.812 225.039C275.313 225.966 276.074 226.74 277.104 227.35C282.04 230.272 298.606 239.972 301.913 241.966C304.137 243.308 306.309 243.356 308.55 242.034C316.859 237.13 325.179 232.246 333.492 227.347C334.522 226.738 335.283 225.962 335.785 225.037L305.393 207.039Z" fill="#280068"/>
<path id="Vector_34" d="M336.511 192.359C336.511 191.153 336.258 190.088 335.748 189.173L305.394 207.039L335.785 225.036C336.272 224.135 336.514 223.09 336.514 221.911C336.514 221.911 336.514 202.212 336.511 192.359" fill="#390091"/>
<g id="Group_2">
<path id="Vector_35" d="M323.399 200.31V203.675H326.69V200.31H328.336V203.675H331.627V205.357H328.336V208.721H331.627V210.404H328.336V213.768H326.69V210.404H323.399V213.768H321.753V210.404H318.462V208.721H321.753V205.357H318.462V203.675H321.753V200.31H323.399ZM326.69 205.357H323.399V208.721H326.69V205.357Z" fill="white"/>
<path id="Vector_36" d="M305.46 183.413C314.045 183.413 321.54 188.179 325.555 195.263L325.516 195.195L315.415 201.14C313.425 197.696 309.777 195.371 305.592 195.323L305.46 195.322C299.078 195.322 293.905 200.611 293.905 207.135C293.903 209.191 294.428 211.212 295.429 212.995C297.421 216.55 301.165 218.947 305.46 218.947C309.782 218.947 313.548 216.519 315.53 212.927L315.482 213.013L325.567 218.986C321.596 226.01 314.204 230.761 305.719 230.855L305.46 230.857C296.848 230.857 289.332 226.062 285.327 218.94C283.372 215.463 282.254 211.433 282.254 207.135C282.254 194.034 292.643 183.413 305.46 183.413L305.46 183.413Z" fill="white"/>
</g>
</g>
<g id=".netcore">
<path id="Vector_37" d="M281.663 131.421C281.522 131.291 281.349 131.188 281.159 131.115C280.969 131.042 280.765 131.008 280.558 131.008C280.35 131.004 280.146 131.042 279.956 131.111C279.766 131.184 279.593 131.287 279.452 131.417C279.306 131.544 279.191 131.693 279.115 131.858C279.04 132.027 279 132.203 279 132.379C278.996 132.559 279.036 132.735 279.115 132.9C279.195 133.065 279.31 133.214 279.456 133.341C279.598 133.471 279.769 133.574 279.96 133.644C280.15 133.713 280.355 133.747 280.562 133.743C280.768 133.744 280.972 133.709 281.162 133.64C281.352 133.571 281.524 133.469 281.668 133.341C281.818 133.218 281.933 133.069 282.013 132.904C282.093 132.739 282.132 132.563 282.132 132.383C282.132 132.203 282.093 132.027 282.013 131.862C281.929 131.693 281.814 131.544 281.663 131.421V131.421ZM300.177 128.31C300.155 129.168 300.203 130.031 300.318 130.885H300.265C300.142 130.674 299.867 130.283 299.447 129.713L289.361 116H286.3V133.506H288.653V120.851C288.68 120.05 288.64 119.249 288.542 118.448H288.631C288.799 118.831 289.016 119.199 289.272 119.544L299.633 133.506H302.53V116H300.177V128.31ZM318.487 131.582H310.17V125.517H317.447V123.67H310.17V117.854H317.978V116H307.759V133.506H318.474L318.487 131.582ZM320.287 116V117.854H326.083V133.506H328.436V117.854H334.297V116H320.287ZM297.222 137.858C296.634 138.061 296.103 138.371 295.665 138.766C295.213 139.184 294.86 139.674 294.63 140.214C294.399 140.755 294.298 141.325 294.324 141.896C294.28 142.954 294.705 143.988 295.519 144.777C295.926 145.149 296.421 145.436 296.97 145.628C297.518 145.82 298.107 145.904 298.695 145.881C299.58 145.908 300.46 145.747 301.261 145.41L301.27 144.517C300.535 144.889 299.699 145.072 298.85 145.053C298.394 145.069 297.938 145 297.518 144.85C297.098 144.701 296.718 144.471 296.408 144.18C295.76 143.528 295.428 142.686 295.479 141.827C295.426 140.919 295.784 140.03 296.474 139.348C296.802 139.034 297.204 138.789 297.651 138.62C298.099 138.455 298.584 138.376 299.071 138.387C299.845 138.375 300.606 138.54 301.283 138.866V137.904C300.581 137.659 299.827 137.544 299.071 137.567C298.438 137.559 297.806 137.655 297.222 137.858V137.858ZM308.25 140.601C307.955 140.332 307.595 140.121 307.197 139.984C306.798 139.846 306.37 139.785 305.941 139.804C305.485 139.785 305.034 139.85 304.61 139.992C304.185 140.134 303.8 140.348 303.473 140.62C303.154 140.927 302.911 141.283 302.752 141.674C302.592 142.065 302.526 142.475 302.557 142.889C302.513 143.674 302.827 144.444 303.428 145.03C303.729 145.31 304.092 145.532 304.499 145.682C304.906 145.827 305.344 145.9 305.782 145.885C306.229 145.896 306.675 145.823 307.091 145.674C307.507 145.525 307.879 145.299 308.184 145.011C308.804 144.405 309.125 143.613 309.078 142.804C309.131 142 308.834 141.214 308.25 140.601ZM307.441 144.536C307.246 144.731 307.003 144.884 306.729 144.984C306.455 145.085 306.158 145.129 305.861 145.115C305.556 145.126 305.255 145.076 304.977 144.977C304.698 144.873 304.45 144.72 304.247 144.521C303.823 144.066 303.61 143.491 303.65 142.908C303.61 142.306 303.822 141.712 304.247 141.237C304.446 141.038 304.694 140.881 304.972 140.774C305.251 140.67 305.556 140.62 305.857 140.632C306.158 140.617 306.454 140.666 306.729 140.77C307.003 140.873 307.246 141.03 307.441 141.23C307.843 141.711 308.038 142.299 307.994 142.892C308.038 143.475 307.843 144.061 307.441 144.536V144.536ZM312.568 140.226C312.236 140.483 311.993 140.816 311.873 141.187V139.984H310.767V145.747H311.873V142.808C311.838 142.276 311.997 141.743 312.325 141.291C312.444 141.126 312.603 140.988 312.798 140.892C312.993 140.797 313.209 140.739 313.431 140.735C313.714 140.716 313.997 140.781 314.236 140.919V139.969C314.032 139.912 313.82 139.885 313.607 139.892C313.227 139.889 312.86 140.007 312.568 140.226V140.226ZM320.708 142.605C320.761 141.873 320.509 141.153 320 140.571C319.748 140.325 319.438 140.13 319.089 140.004C318.739 139.877 318.363 139.82 317.987 139.839C317.571 139.827 317.155 139.9 316.77 140.046C316.39 140.191 316.049 140.41 315.775 140.686C315.174 141.293 314.863 142.075 314.904 142.873C314.846 143.67 315.134 144.459 315.709 145.08C315.987 145.345 316.333 145.551 316.713 145.689C317.093 145.827 317.509 145.885 317.921 145.869C318.739 145.904 319.549 145.712 320.23 145.322V144.456C319.648 144.865 318.923 145.092 318.173 145.099C317.885 145.115 317.593 145.076 317.323 144.984C317.054 144.892 316.806 144.758 316.602 144.578C316.207 144.164 316.007 143.636 316.041 143.099H320.717L320.708 142.605ZM316.032 142.337C316.089 141.881 316.319 141.452 316.682 141.119C316.845 140.967 317.042 140.847 317.261 140.766C317.481 140.685 317.717 140.644 317.956 140.647C318.186 140.636 318.412 140.67 318.624 140.747C318.836 140.823 319.022 140.938 319.173 141.088C319.482 141.444 319.637 141.881 319.615 142.325L316.032 142.337Z" fill="#621EE5"/>
</g>
<g id="mysql-full">
<g id="mysql">
<path id="Vector_38" d="M350.785 229.547H355.075V210.68L361.716 227.133C362.499 229.117 363.572 229.829 365.676 229.829C367.779 229.829 368.81 229.125 369.595 227.133L376.237 210.68V229.554H380.527V210.711C380.527 208.873 379.866 207.984 378.505 207.525C375.247 206.392 373.06 207.372 372.071 209.823L365.554 226.061L359.241 209.816C358.292 207.365 356.065 206.384 352.807 207.518C351.445 207.978 350.785 208.867 350.785 210.704V229.547ZM384.093 214.185H388.381V224.584C388.341 225.149 388.544 226.475 390.894 226.516C392.093 226.537 400.148 226.516 400.223 226.516V214.133H404.521C404.54 214.133 404.517 231.017 404.517 231.089C404.541 235.253 399.88 236.157 397.732 236.227H384.186V233.011L397.756 233.011C400.517 232.685 400.191 231.157 400.191 230.642V229.388H391.073C386.831 229.346 384.13 227.282 384.097 224.909C384.093 224.697 384.188 214.287 384.094 214.184L384.093 214.185Z" fill="#00618A"/>
<path id="Vector_39" d="M407.828 229.547H420.161C421.605 229.547 423.008 229.21 424.122 228.627C425.979 227.678 426.886 226.391 426.886 224.706V221.214C426.886 219.834 425.855 218.548 423.834 217.69C422.762 217.23 421.442 216.985 420.163 216.985H414.965C413.233 216.985 412.408 216.403 412.202 215.117C412.161 214.964 412.161 214.833 412.161 214.687V212.513C412.161 212.39 412.161 212.267 412.202 212.114C412.408 211.134 412.862 210.857 414.388 210.697C414.512 210.697 414.677 210.666 414.801 210.666H427.052V207.48H415.007C413.275 207.48 412.367 207.603 411.542 207.879C408.982 208.768 407.868 210.184 407.868 212.635V215.423C407.868 217.568 410.056 219.407 413.726 219.835C414.139 219.866 414.551 219.896 414.963 219.896H419.418C419.583 219.896 419.749 219.896 419.872 219.927C421.233 220.05 421.811 220.325 422.223 220.876C422.478 221.16 422.554 221.429 422.554 221.726V224.515C422.554 224.852 422.348 225.281 421.935 225.648C421.564 226.016 420.945 226.261 420.12 226.322C419.955 226.322 419.831 226.353 419.667 226.353H407.828V229.539V229.547ZM453.647 224.002C453.647 227.28 455.833 229.118 460.247 229.486C460.659 229.521 461.072 229.542 461.485 229.547H472.664V226.361H461.402C458.886 226.361 457.937 225.656 457.937 223.971V207.487H453.647V224L453.647 224.002ZM429.623 224.168V212.809C429.623 209.923 431.441 208.173 435.038 207.62C435.421 207.559 435.808 207.528 436.195 207.528H444.338C444.739 207.528 445.14 207.559 445.538 207.62C449.134 208.173 450.952 209.922 450.952 212.809V224.168C450.952 226.509 450.18 227.762 448.399 228.579L452.625 232.829H447.644L444.225 229.39L440.783 229.633H436.195C435.41 229.633 434.584 229.51 433.674 229.234C430.94 228.405 429.624 226.808 429.624 224.168H429.623ZM434.254 223.884C434.254 224.038 434.295 224.191 434.336 224.376C434.591 225.696 435.7 226.433 437.388 226.433H441.286L437.706 222.832H442.687L445.803 225.972C446.378 225.631 446.756 225.108 446.884 224.437C446.925 224.284 446.925 224.131 446.925 223.977V213.086C446.925 212.963 446.925 212.802 446.884 212.656C446.629 211.428 445.519 210.722 443.866 210.722H437.396C435.488 210.722 434.255 211.643 434.255 213.086V223.893L434.254 223.884Z" fill="#E48E00"/>
<g id="Group_3">
<path id="Vector_40" d="M476.438 202.201C473.801 202.121 471.786 202.394 470.064 203.203C469.575 203.433 468.795 203.439 468.715 204.123C468.984 204.436 469.026 204.905 469.239 205.291C469.651 206.033 470.345 207.027 470.964 207.547C471.641 208.116 472.337 208.725 473.064 209.219C474.355 210.096 475.796 210.596 477.038 211.474C477.771 211.991 478.498 212.643 479.213 213.228C479.566 213.517 479.804 213.966 480.262 214.147V214.063C480.02 213.721 479.958 213.251 479.737 212.894L478.762 211.808C477.809 210.392 476.599 209.161 475.313 208.132C474.288 207.312 471.992 206.204 471.564 204.873L471.489 204.79C472.216 204.698 473.067 204.405 473.739 204.205C474.867 203.869 475.875 203.955 477.039 203.621L478.614 203.12V202.785C478.026 202.112 477.606 201.222 476.964 200.613C475.286 199.02 473.453 197.429 471.566 196.101C470.52 195.364 469.226 194.887 468.117 194.263C467.744 194.053 467.088 193.944 466.842 193.594C466.26 192.767 465.942 191.717 465.493 190.761C464.552 188.742 463.627 186.536 462.793 184.412C462.224 182.963 461.852 181.534 461.144 180.234C457.739 173.998 454.074 170.233 448.397 166.534C447.189 165.748 445.735 165.436 444.197 165.031L441.723 164.863C441.219 164.63 440.695 163.942 440.222 163.61C438.341 162.285 433.517 159.407 432.124 163.185C431.245 165.574 433.439 167.905 434.224 169.116C434.774 169.966 435.48 170.918 435.873 171.873C436.132 172.501 436.177 173.131 436.398 173.795C436.943 175.424 437.418 177.212 438.123 178.724C438.479 179.489 438.872 180.295 439.323 180.979C439.599 181.4 440.073 181.584 440.147 182.233C439.684 182.956 439.658 184.075 439.397 184.99C438.225 189.107 438.667 194.224 440.372 197.271C440.895 198.206 442.126 200.212 443.821 199.443C445.302 198.77 444.965 196.688 445.396 194.849C445.491 194.431 445.433 194.126 445.621 193.846V193.93L446.971 196.937C447.969 198.729 449.743 200.603 451.245 201.867C452.024 202.522 452.644 203.656 453.644 204.039V203.955H453.569C453.374 203.615 453.069 203.476 452.819 203.205C452.232 202.563 451.579 201.767 451.094 201.033C449.727 198.966 448.52 196.705 447.42 194.349C446.895 193.225 446.438 191.985 445.996 190.841C445.826 190.399 445.828 189.733 445.472 189.504C444.986 190.343 444.272 191.02 443.897 192.01C443.296 193.593 443.219 195.522 442.997 197.524C442.865 197.577 442.924 197.54 442.847 197.608C441.803 197.327 441.435 196.129 441.047 195.102C440.066 192.502 439.884 188.318 440.747 185.327C440.97 184.554 441.981 182.116 441.572 181.401C441.377 180.688 440.733 180.268 440.372 179.729C439.927 179.056 439.481 178.168 439.172 177.39C438.369 175.364 437.994 173.09 437.148 171.041C436.744 170.062 436.061 169.072 435.499 168.208C434.877 167.244 434.181 166.533 433.699 165.374C433.528 164.96 433.295 164.297 433.549 163.87C433.574 163.747 433.629 163.635 433.709 163.546C433.788 163.457 433.889 163.396 433.999 163.369C434.434 162.995 435.646 163.493 436.099 163.703C437.301 164.26 438.305 164.79 439.324 165.541C439.813 165.895 440.307 166.601 440.898 166.795H441.572C442.628 167.066 443.81 166.88 444.796 167.213C446.539 167.803 448.101 168.722 449.52 169.719C453.842 172.76 457.375 177.088 459.793 182.257C460.182 183.088 460.35 183.882 460.692 184.764C461.384 186.534 462.254 188.371 462.942 190.11C463.629 191.845 464.296 193.595 465.267 195.038C465.776 195.796 467.746 196.204 468.641 196.625C469.268 196.921 470.296 197.229 470.89 197.628C472.025 198.39 473.125 199.299 474.19 200.135C474.722 200.553 476.358 201.469 476.44 202.223L476.438 202.201Z" fill="#00618A"/>
<path id="Vector_41" fill-rule="evenodd" clip-rule="evenodd" d="M442.921 170.373C442.371 170.361 441.983 170.439 441.571 170.54V170.623H441.646C441.908 171.224 442.371 171.61 442.695 172.127L443.446 173.881L443.521 173.797C443.985 173.433 444.198 172.85 444.195 171.959C444.008 171.741 443.981 171.468 443.82 171.207C443.605 170.86 443.184 170.663 442.92 170.371L442.921 170.373Z" fill="#00618A"/>
</g>
</g>
<path id="Vector_42" fill-rule="evenodd" clip-rule="evenodd" d="M474.678 226.27C474.678 228.374 476.17 229.792 477.839 229.792C479.508 229.792 481 228.374 481 226.27C481 224.166 479.508 222.748 477.839 222.748C476.17 222.748 474.678 224.166 474.678 226.27ZM480.292 226.27C480.292 227.866 479.197 229.059 477.838 229.059C476.464 229.059 475.383 227.866 475.383 226.27C475.383 224.673 476.463 223.48 477.838 223.48C479.195 223.48 480.292 224.673 480.292 226.27ZM478.69 228.28H479.397L478.361 226.515C478.917 226.449 479.338 226.148 479.338 225.416C479.338 224.598 478.874 224.261 477.981 224.261H476.573V228.281H477.18V226.543H477.745L478.689 228.281L478.69 228.28ZM477.18 225.978V224.823H477.88C478.242 224.823 478.681 224.898 478.681 225.369C478.681 225.932 478.285 225.979 477.829 225.979H477.18V225.978Z" fill="#E48E00"/>
</g>
<g id="php">
<path id="Vector_43" d="M219.231 230.049C236.717 230.049 250.893 217.114 250.893 201.158C250.893 185.202 236.717 172.268 219.231 172.268C201.744 172.268 187.568 185.202 187.568 201.158C187.568 217.114 201.744 230.049 219.231 230.049Z" fill="#8993BE"/>
<path id="Vector_44" fill-rule="evenodd" clip-rule="evenodd" d="M196.46 218.265L199.93 187.473H207.954C211.423 187.853 213.158 190.894 213.158 196.217C213.158 205.34 209.038 210.662 205.351 210.282H201.448L200.581 218.265H196.46ZM202.315 204.58L203.4 193.175H206.219C207.737 193.175 208.821 194.316 208.821 196.597C208.604 203.059 206.869 204.2 204.918 204.58H202.316H202.315ZM212.352 210.282L215.822 179.491H219.942L219.075 187.473H222.978C226.448 187.853 227.749 190.894 227.316 194.696L225.798 210.282H221.461L222.979 196.217C223.195 194.316 223.195 193.175 221.677 193.175H218.424L216.473 210.282H212.352V210.282ZM225.52 218.265L228.99 187.473H237.014C240.484 187.853 242.219 190.894 242.219 196.217C242.219 205.34 238.098 210.662 234.411 210.282H230.508L229.64 218.265H225.52V218.265ZM231.375 204.58L232.459 193.175H235.279C236.797 193.175 237.881 194.316 237.881 196.597C237.664 203.059 235.929 204.2 233.978 204.58H231.375H231.375Z" fill="#232531"/>
</g>
<path id="laravel" d="M252.547 124.691C252.561 124.748 252.568 124.807 252.568 124.866V134.061C252.568 134.179 252.54 134.295 252.488 134.397C252.436 134.499 252.362 134.584 252.272 134.643L245.49 139.086V147.893C245.49 148.133 245.378 148.354 245.195 148.475L231.038 157.748C231.006 157.769 230.971 157.783 230.935 157.797C230.922 157.802 230.909 157.811 230.895 157.815C230.796 157.845 230.692 157.845 230.593 157.815C230.577 157.81 230.563 157.8 230.547 157.794C230.515 157.78 230.481 157.769 230.45 157.748L216.296 148.475C216.206 148.416 216.131 148.331 216.079 148.229C216.027 148.127 216 148.011 216 147.893V120.308C216 120.248 216.007 120.189 216.021 120.132C216.025 120.113 216.035 120.095 216.041 120.076C216.052 120.041 216.063 120.005 216.079 119.972C216.09 119.95 216.106 119.933 216.119 119.912C216.136 119.886 216.152 119.858 216.172 119.835C216.189 119.815 216.211 119.801 216.23 119.784C216.251 119.764 216.27 119.742 216.295 119.726H216.295L223.373 115.09C223.462 115.031 223.564 115 223.667 115C223.771 115 223.872 115.031 223.962 115.09L231.039 119.726H231.041C231.064 119.743 231.084 119.764 231.105 119.783C231.124 119.8 231.146 119.815 231.163 119.834C231.183 119.858 231.198 119.886 231.216 119.912C231.228 119.933 231.245 119.95 231.256 119.972C231.273 120.006 231.282 120.041 231.294 120.076C231.3 120.095 231.31 120.113 231.314 120.133C231.328 120.19 231.335 120.249 231.335 120.308V137.537L237.233 133.673V124.865C237.233 124.807 237.24 124.747 237.253 124.691C237.258 124.671 237.268 124.653 237.274 124.634C237.286 124.599 237.296 124.563 237.312 124.53C237.323 124.508 237.339 124.491 237.352 124.471C237.37 124.444 237.384 124.416 237.405 124.393C237.422 124.373 237.443 124.359 237.462 124.342C237.484 124.322 237.504 124.3 237.527 124.285H237.528L244.606 119.648C244.696 119.589 244.797 119.558 244.901 119.558C245.004 119.558 245.106 119.589 245.195 119.648L252.272 124.285C252.297 124.301 252.317 124.322 252.339 124.342C252.357 124.358 252.378 124.373 252.395 124.392C252.416 124.416 252.431 124.444 252.448 124.471C252.462 124.491 252.478 124.508 252.488 124.53C252.505 124.563 252.515 124.599 252.526 124.634C252.533 124.653 252.543 124.671 252.547 124.691V124.691ZM251.388 133.673V126.027L248.911 127.649L245.49 129.891V137.537L251.389 133.673H251.388ZM244.311 147.505V139.854L240.945 142.041L231.334 148.283V156.006L244.311 147.505ZM217.18 121.469V147.505L230.155 156.005V148.284L223.376 143.918L223.374 143.917L223.371 143.915C223.348 143.9 223.329 143.878 223.308 143.86C223.289 143.843 223.268 143.829 223.252 143.811L223.25 143.808C223.231 143.787 223.218 143.761 223.202 143.738C223.187 143.715 223.169 143.696 223.158 143.673L223.157 143.67C223.144 143.645 223.135 143.615 223.126 143.586C223.116 143.561 223.104 143.538 223.098 143.511V143.51C223.091 143.478 223.089 143.445 223.086 143.412C223.083 143.387 223.077 143.362 223.077 143.337V125.333L219.656 123.09L217.18 121.47V121.469ZM223.668 116.446L217.771 120.308L223.666 124.171L229.562 120.307L223.666 116.446H223.668ZM226.734 140.551L230.155 138.31V121.469L227.679 123.091L224.257 125.333V142.174L226.734 140.551ZM244.901 121.004L239.004 124.866L244.901 128.729L250.796 124.865L244.901 121.004ZM244.311 129.891L240.889 127.649L238.412 126.027V133.673L241.833 135.914L244.311 137.537V129.891ZM230.744 147.122L239.392 141.504L243.715 138.696L237.823 134.836L231.04 139.28L224.857 143.331L230.744 147.122Z" fill="#FF2D20"/>
<path id="github" d="M395.878 105C379.378 105 366 120.177 366 138.896C366 154.779 375.641 168.069 388.638 171.747C388.498 171.289 388.409 170.758 388.409 170.1V164.307C387.196 164.307 385.165 164.307 384.654 164.307C382.61 164.307 380.792 163.31 379.911 161.457C378.932 159.398 378.763 156.248 376.338 154.322C375.618 153.68 376.166 152.949 376.995 153.048C378.527 153.539 379.796 154.731 380.992 156.499C382.182 158.271 382.742 158.672 384.965 158.672C386.043 158.672 387.657 158.601 389.176 158.33C389.992 155.977 391.404 153.81 393.13 152.788C383.18 151.627 378.432 146.011 378.432 138.388C378.432 135.105 379.664 131.93 381.758 129.255C381.071 126.6 380.207 121.185 382.022 119.123C386.499 119.123 389.206 122.417 389.855 123.307C392.086 122.44 394.536 121.948 397.111 121.948C399.69 121.948 402.15 122.44 404.386 123.312C405.029 122.428 407.738 119.123 412.224 119.123C414.047 121.188 413.173 126.626 412.478 129.275C414.56 131.945 415.785 135.111 415.785 138.388C415.785 146.006 411.044 151.618 401.11 152.785C403.844 154.404 405.838 158.951 405.838 162.378V170.1C405.838 170.394 405.781 170.606 405.751 170.857C417.393 166.228 425.757 153.686 425.757 138.896C425.757 120.177 412.379 105 395.878 105Z" fill="black"/>
<path id="Vector 1" d="M299.142 45.9634C299.142 50.0885 298.764 54.8183 300.47 58.6553C300.886 59.5912 300.322 60.7369 300.801 61.6416C301.371 62.7176 302.196 63.3458 302.709 64.6279C303.956 67.7453 305.133 75.2436 307.728 77.3197C310.211 79.3065 312.244 82.0349 314.82 84.039C317.303 85.9697 319.555 86.6178 322.245 88.1866C326.775 90.8293 331.235 91.8453 336.139 93.9104C337.335 94.4137 339.557 96.6927 340.204 96.7308C342.719 96.8787 345.038 97.4774 347.67 97.4774C354.53 97.4774 361.44 96.7308 368.159 96.7308C375.035 96.7308 362.756 116.161 361.813 119.46C361.469 120.667 356.559 122.931 355.551 123.939C354.153 125.337 351.662 126.63 351.403 128.834C350.636 135.353 350.853 142.317 352.73 148.991C354.38 154.859 354.248 162.365 354.389 168.485C354.461 171.602 355.807 173.83 356.463 176.781C357.189 180.046 359.723 182.141 360.403 185.2C361.372 189.561 375.946 191.465 379.483 192.251C387.388 194.008 396.447 193.786 404.576 193.786C413.561 193.786 413.277 188.302 415.94 180.016C417.26 175.91 421.772 165.735 425.646 164.628C427.054 164.226 430.294 158.196 431.66 156.83C433.493 154.998 436.508 153.971 438.753 152.724C442.841 150.453 447.543 148.991 452.191 148.991C459.357 148.991 464.559 150.575 471.436 152.724C476.98 154.457 481.392 157.441 486.202 160.19C489.695 162.186 490.155 166.028 491.428 169.398C495.491 180.154 492.608 192.7 491.055 203.575C490.601 206.751 490.359 211.849 491.055 214.981C491.578 217.335 490.267 218.99 490.267 221.783C490.267 226.667 488.913 232.135 486.7 236.341C485.594 238.442 482.665 239.469 483.547 240.406C487.44 244.542 472.79 250.363 470.109 251.273C463.115 253.646 453.925 256.22 446.55 256.499C443.784 256.603 441.309 257.933 438.587 257.992C432.951 258.114 427.296 257.777 421.664 258.033C415.833 258.298 409.913 259.128 404.078 259.568C401.486 259.764 399.002 260.812 396.405 260.812C392.627 260.812 388.769 259.666 385.04 259.153C378.785 258.293 372.102 257.792 366.003 256.084C364.186 255.575 362.959 255.006 361.067 255.006C351.761 255.006 341.084 254.952 331.992 252.932C326.951 251.812 320.744 252.019 315.567 252.019C311.139 252.019 306.856 251.435 302.46 251.273C297.526 251.09 291.274 251.376 286.45 250.36C282.949 249.623 278.048 250.866 274.837 249.406C272.112 248.168 269.329 247.48 266.625 246.005C263.963 244.553 262.092 241.169 260.32 238.954C258.952 237.244 261.067 231.859 261.067 229.58C261.067 225.861 261.067 222.142 261.067 218.423C261.067 215.551 260.905 213.039 260.486 210.211C259.697 204.885 259.05 199.616 258.08 194.284C257.573 191.495 258.057 187.473 256.587 184.993C255.012 182.334 253.002 179.642 250.449 177.776C249.344 176.969 248.759 175.584 247.628 174.956C245.722 173.896 243.511 173.269 241.697 172.135C235.286 168.128 224.48 164.989 217.019 163.923C210.773 163.031 202.305 160.591 196.114 163.342C189.688 166.198 186.866 171.645 183.671 177.693C182.19 180.497 179.5 182.54 178.362 185.574C177.325 188.341 178.137 192.189 177.45 195.196C176.193 200.698 175.21 206.84 175.21 212.492C175.21 223.183 176.981 233.197 175.915 243.848C175.163 251.376 170.963 257.546 164.758 261.683C154.328 268.637 145.292 273.67 132.323 273.67C120.592 273.67 114.028 261.762 106.525 254.259C103.091 250.825 99.4011 247.882 95.6996 244.18C93.6162 242.097 91.0494 239.462 89.3537 237.088C87.8115 234.929 89.2077 231.842 89.7684 229.497C91.0746 224.035 92.0184 218.839 92.7133 213.28C93.6418 205.852 92.0439 198.925 91.5519 191.546C91.1776 185.932 89.6579 181.295 86.948 176.615C84.3067 172.052 77.1098 170.953 74.0073 167.075C72.3375 164.988 69.7902 165.678 67.8688 163.757C64.8262 160.714 59.928 157.968 55.5502 156.789C44.2718 153.752 31.5164 153.283 20.7514 148.618C15.4205 146.308 9.50363 144.602 6.85671 139.078C2.32114 129.613 2.56615 117.254 2.46019 106.976C2.42527 103.588 2.49073 98.2873 4.0363 95.1962C4.97305 93.3227 15.4574 92.3966 16.3134 92.2513C24.909 90.7927 33.5621 89.761 42.1948 88.5599C49.1643 87.5902 54.1636 86.8886 61.0666 88.5184C66.9988 89.9191 73.712 95.1891 78.155 99.3853C83.4084 104.347 96.6058 111.989 103.248 106.395C108.877 101.655 112.646 93.4789 113.203 86.2372C113.612 80.9132 112.498 75.5639 112.498 70.2272C112.498 67.7394 111.258 66.2944 111.004 63.8813C110.552 59.58 104.15 53.1087 101.133 50.4429C98.3081 47.9464 95.0738 44.3328 92.7548 41.3181C91.0134 39.0543 89.3558 40.4175 91.3446 37.0874C95.0861 30.8225 98.0149 24.1249 101.88 17.9253C104.754 13.3135 108.819 8.78182 111.004 3.86468C111.678 2.34966 117.317 1.91528 118.802 1.91528C123.473 1.91528 128.016 2.66186 132.655 2.66186C139.423 2.66186 150.713 7.70222 154.638 13.2799C157.728 17.6708 160.279 23.9894 160.279 29.3728C160.279 33.2488 158.245 36.5054 158.039 40.3226C157.801 44.7294 157.303 49.3626 156.546 53.7196C154.68 64.4491 149.109 74.74 139.457 80.6379C134.795 83.487 129.37 87.9939 127.263 93.1638C118.635 114.341 146.859 117.843 160.984 124.022C165.168 125.853 170.546 126.855 174.464 129.248C179.519 132.338 185.348 132.256 190.888 129.912C195.004 128.171 198.772 125.763 202.46 123.276C204.966 121.586 208.826 120.498 210.88 118.216C212.066 116.898 211.951 114.158 213.12 112.99C215.037 111.073 217.108 108.759 220.005 108.676C222.415 108.607 225.572 109.306 227.637 107.929C233.406 104.083 235.7 99.0845 239.499 93.703C243.296 88.3245 245.545 81.5555 249.868 76.6146C252.256 73.8861 254.54 69.4378 255.799 66.0796C257.886 60.514 258.798 50.2132 264.053 46.71" stroke="black" stroke-width="3" stroke-linecap="round"/>
</g>
<defs>
<linearGradient id="paint0_linear_2_87" x1="103.06" y1="27.9014" x2="137.88" y2="39.8628" gradientUnits="userSpaceOnUse">
<stop stop-color="#2298BD"/>
<stop offset="1" stop-color="#0ED7B5"/>
</linearGradient>
</defs>
</svg>
