<svg width="32" height="31" viewBox="0 0 32 31" fill="none" xmlns="http://www.w3.org/2000/svg">
<g id="Group">
<path id="Vector" d="M7.09468 31C11.013 31 14.1895 29.2574 14.1895 27.1089C14.1895 27.0486 14.1771 26.989 14.1738 26.9294L14.1895 26.9279L13.373 5.19021H26.3179C26.3474 5.47075 26.3803 5.7738 26.4167 6.09967C26.7807 9.46617 27.4181 15.359 27.2938 23.4673C26.5209 23.307 25.6858 23.2157 24.8108 23.2157C20.8938 23.2157 17.7164 24.9587 17.7164 27.1088C17.7164 29.2573 20.8938 30.9999 24.8108 30.9999C28.7291 30.9999 31.9065 29.2573 31.9065 27.1088C31.9065 27.0146 31.8922 26.9221 31.881 26.8303C32.2915 16.5499 31.5422 9.45256 31.1131 5.488C31.0326 4.74837 30.9657 4.13229 30.9241 3.64224C30.748 1.6002 29.1397 0 27.2609 0H12.2246C10.3253 0 8.73311 1.62828 8.59886 3.70655L8.58908 3.85022L9.31331 23.4134C8.61467 23.2878 7.8707 23.2157 7.09521 23.2157C3.17719 23.2158 1.15225e-07 24.9588 1.15225e-07 27.1089C-0.00069861 29.2574 3.17649 31 7.09468 31Z" fill="black"/>
</g>
</svg>
