<svg width="383" height="377" viewBox="0 0 383 377" fill="none" xmlns="http://www.w3.org/2000/svg">
<g id="javascript">
<g id="vuejs">
<path id="path893" fill-rule="evenodd" clip-rule="evenodd" d="M85.1382 122.455H90.3662L77.165 164.427L63.877 122.455H69.224L77.165 147.723L85.1382 122.455Z" fill="#41B883"/>
<path id="path895" fill-rule="evenodd" clip-rule="evenodd" d="M80.197 122.446H85.1693L77.1577 147.767L69.2104 122.446H74.1051L77.1577 132.194L80.197 122.446Z" fill="#35495E"/>
<path id="path897" fill-rule="evenodd" clip-rule="evenodd" d="M93.4863 130.732C93.4863 130.423 93.5795 130.165 93.7658 129.958C93.9521 129.752 94.1469 129.648 94.3502 129.648C94.6325 129.648 94.8075 129.845 94.8753 130.237L97.8564 148.629L100.821 130.237C100.9 129.845 101.069 129.648 101.329 129.648C101.543 129.648 101.744 129.762 101.93 129.989C102.116 130.216 102.21 130.474 102.21 130.763C102.21 130.784 102.207 130.815 102.201 130.856C102.195 130.897 102.193 130.939 102.193 130.98L98.7541 151.571C98.6299 152.169 98.3307 152.469 97.8564 152.469C97.3821 152.469 97.0942 152.169 96.9926 151.571L93.5204 130.98C93.4978 130.856 93.4865 130.773 93.4865 130.732H93.4863ZM102.343 146.585V138.535C102.343 138.287 102.414 138.071 102.555 137.885C102.696 137.699 102.862 137.606 103.054 137.606C103.235 137.606 103.396 137.704 103.537 137.9C103.678 138.096 103.749 138.308 103.749 138.535V146.585C103.749 147.514 103.941 148.35 104.325 149.093C104.709 149.837 105.166 150.208 105.697 150.208C106.216 150.208 106.668 149.842 107.052 149.109C107.436 148.376 107.628 147.535 107.628 146.585V138.504C107.628 138.276 107.698 138.07 107.839 137.884C107.981 137.699 108.147 137.606 108.339 137.606C108.542 137.606 108.709 137.693 108.839 137.869C108.969 138.044 109.034 138.256 109.034 138.504V146.585C109.034 148.175 108.703 149.563 108.043 150.75C107.382 151.937 106.6 152.53 105.697 152.53C104.782 152.53 103.995 151.937 103.334 150.75C102.673 149.563 102.343 148.175 102.343 146.585H102.343ZM110.183 146.523V143.272C110.183 141.683 110.513 140.31 111.174 139.154C111.835 137.998 112.628 137.42 113.554 137.42C114.435 137.42 115.197 137.962 115.841 139.046C116.484 140.129 116.806 141.487 116.806 143.117C116.806 143.716 116.766 144.196 116.687 144.557C116.608 144.919 116.487 145.177 116.323 145.331C116.16 145.486 116.007 145.584 115.866 145.626C115.725 145.667 115.536 145.687 115.298 145.687H111.589V146.616C111.589 147.752 111.812 148.66 112.258 149.341C112.704 150.022 113.283 150.363 113.994 150.363C114.367 150.363 114.691 150.26 114.968 150.053C115.245 149.847 115.468 149.646 115.637 149.45C115.807 149.253 115.942 149.155 116.044 149.155C116.202 149.155 116.337 149.284 116.45 149.542C116.563 149.801 116.62 150.064 116.62 150.332C116.62 150.807 116.363 151.292 115.849 151.787C115.335 152.283 114.7 152.53 113.943 152.53C112.837 152.53 111.933 151.978 111.233 150.874C110.533 149.77 110.183 148.319 110.183 146.524L110.183 146.523ZM111.589 143.953H114.723C115.016 143.953 115.214 143.886 115.315 143.752C115.417 143.618 115.468 143.355 115.468 142.963C115.468 142.034 115.282 141.218 114.909 140.517C114.536 139.815 114.079 139.464 113.537 139.464C113.006 139.464 112.549 139.789 112.165 140.439C111.781 141.089 111.589 141.889 111.589 142.839L111.589 143.953ZM117.515 150.858C117.515 150.404 117.6 150.017 117.769 149.697C117.939 149.377 118.148 149.217 118.396 149.217C118.633 149.217 118.836 149.377 119.006 149.697C119.175 150.017 119.26 150.404 119.26 150.858C119.26 151.292 119.175 151.668 119.006 151.988C118.836 152.308 118.633 152.468 118.396 152.468C118.148 152.468 117.939 152.308 117.769 151.988C117.6 151.668 117.515 151.292 117.515 150.858ZM118.767 158.259C118.767 157.928 118.823 157.655 118.936 157.438C119.049 157.221 119.184 157.113 119.343 157.113C119.783 157.113 120.071 156.814 120.206 156.215C120.342 155.616 120.41 154.719 120.41 153.521V138.504C120.41 138.235 120.475 138.019 120.604 137.854C120.734 137.688 120.901 137.606 121.104 137.606C121.307 137.606 121.477 137.688 121.612 137.854C121.748 138.019 121.816 138.235 121.816 138.504V153.521C121.816 155.317 121.624 156.741 121.24 157.794C120.856 158.847 120.274 159.373 119.495 159.373C119.009 159.373 118.767 159.002 118.767 158.259L118.767 158.259ZM120.223 132.094C120.223 131.702 120.308 131.362 120.477 131.073C120.647 130.784 120.856 130.639 121.104 130.639C121.341 130.639 121.545 130.784 121.714 131.073C121.883 131.362 121.968 131.702 121.968 132.094C121.968 132.487 121.883 132.832 121.714 133.132C121.545 133.431 121.341 133.581 121.104 133.581C120.867 133.581 120.661 133.431 120.486 133.132C120.311 132.832 120.223 132.487 120.223 132.094H120.223ZM122.864 150.177C122.864 149.909 122.912 149.645 123.008 149.387C123.104 149.129 123.219 149 123.355 149C123.445 149 123.575 149.124 123.744 149.372C123.914 149.62 124.156 149.862 124.473 150.099C124.789 150.337 125.161 150.456 125.591 150.456C126.155 150.456 126.565 150.27 126.819 149.898C127.073 149.527 127.2 149.062 127.2 148.505C127.2 147.824 127.059 147.282 126.776 146.879C126.494 146.477 126.15 146.172 125.743 145.966C125.336 145.759 124.93 145.532 124.523 145.285C124.117 145.037 123.773 144.624 123.49 144.046C123.208 143.468 123.067 142.704 123.067 141.755C123.067 140.578 123.295 139.561 123.753 138.705C124.21 137.848 124.907 137.42 125.845 137.42C126.443 137.42 126.991 137.59 127.488 137.931C127.984 138.271 128.233 138.658 128.233 139.092C128.233 139.34 128.179 139.618 128.072 139.928C127.965 140.238 127.832 140.392 127.674 140.392C127.629 140.392 127.411 140.243 127.022 139.943C126.632 139.644 126.245 139.494 125.862 139.494C125.342 139.494 124.955 139.716 124.701 140.16C124.447 140.604 124.32 141.105 124.32 141.662C124.32 142.24 124.461 142.694 124.744 143.024C125.026 143.355 125.373 143.613 125.785 143.798C126.197 143.984 126.607 144.211 127.013 144.48C127.42 144.748 127.764 145.207 128.047 145.857C128.329 146.508 128.47 147.349 128.47 148.381C128.47 149.661 128.222 150.672 127.725 151.415C127.228 152.159 126.533 152.53 125.641 152.53C124.874 152.53 124.219 152.277 123.677 151.771C123.135 151.266 122.864 150.734 122.864 150.177L122.864 150.177Z" fill="#010101"/>
</g>
<g id="jslogo">
<path id="Vector" d="M134.966 197.274H198.37V273.98H134.966V197.274Z" fill="#F7DF1E"/>
<path id="Vector_2" d="M151.639 261.374L156.491 257.822C157.427 259.83 158.278 261.529 160.321 261.529C162.279 261.529 163.514 260.602 163.514 256.998V232.489H169.472V257.1C169.472 264.566 165.854 267.964 160.576 267.964C155.81 267.964 153.043 264.978 151.639 261.374L151.639 261.374ZM172.708 260.602L177.559 257.204C178.837 259.727 180.497 261.58 183.433 261.58C185.902 261.58 187.476 260.087 187.476 258.027C187.476 255.556 185.859 254.68 183.135 253.239L181.646 252.466C177.347 250.253 174.496 247.472 174.496 241.602C174.496 236.196 177.9 232.076 183.22 232.076C187.008 232.076 189.732 233.673 191.69 237.843L187.05 241.448C186.029 239.234 184.923 238.359 183.22 238.359C181.475 238.359 180.369 239.698 180.369 241.448C180.369 243.61 181.475 244.486 184.029 245.825L185.518 246.597C190.583 249.224 193.434 251.901 193.434 257.925C193.434 264.413 189.221 267.965 183.561 267.965C178.028 267.965 174.453 264.773 172.708 260.602" fill="black"/>
</g>
<g id="jquery">
<g id="Group">
<path id="Vector_3" d="M161.28 24.1061L160.825 26.7045L161.28 24.1051V24.1061ZM163.624 29.7502L163.122 29.7452L163.624 29.7502ZM163.501 33.6328L160.493 33.6507L163.501 33.6328ZM164.13 29.7561L163.628 29.7512L164.13 29.7561ZM163.765 33.3048L164.29 30.0871L163.765 33.3048ZM174.841 18.4938L173.865 25.8824L174.841 18.4938ZM172.332 18.4839L171.591 24.0037L172.332 18.4839Z" fill="#131B28"/>
<path id="Vector_4" d="M174.667 18.1531H172.58C172.464 18.1531 172.35 18.3022 172.325 18.4851L170.843 29.5258C170.818 29.7077 170.704 29.8568 170.588 29.8568H169.111C167.649 29.8568 167.818 28.2296 168.123 26L168.132 25.9324L168.309 24.4115L168.386 23.7853L169.06 18.4851C169.084 18.3022 169.008 18.1522 168.892 18.1522H166.749C166.69 18.1554 166.633 18.1896 166.587 18.2495C166.542 18.3094 166.509 18.3918 166.495 18.4842L165.517 25.8539C164.987 29.7544 165.127 33.4741 168.012 33.5904H172.622C172.738 33.5904 172.852 33.4413 172.877 33.2583L174.829 18.4812C174.854 18.2983 174.778 18.1492 174.662 18.1492L174.667 18.1531ZM182.99 29.8956C183.106 29.8956 183.175 30.0447 183.158 30.2276L182.956 31.823L182.99 29.8956ZM182.758 33.4184L182.961 31.822L182.758 33.4184ZM182.511 33.7544L178.665 33.7842L182.511 33.7544Z" fill="#131B28"/>
<path id="Vector_5" d="M177.415 27.8405C177.413 27.6656 177.537 27.3654 177.653 27.3654L177.392 27.3584C177.269 29.261 177.415 27.8405 177.415 27.8405V27.8405ZM178.851 33.7818H178.81H178.851ZM182.992 29.9051C183.108 29.9051 183.177 30.0542 183.161 30.2371L182.93 32.082L182.992 29.9051ZM179.838 33.7788H179.83H179.838ZM179.326 33.7818H179.296H179.326ZM179.17 33.7818H179.121H179.17ZM179.011 33.7818H178.968H179.011ZM179.296 33.7818H179.17H179.296Z" fill="#131B28"/>
<path id="Vector_6" d="M179.829 33.779L179.326 33.782L179.829 33.779ZM182.507 33.7521L179.837 33.778L182.507 33.7521ZM182.754 33.4191L182.924 32.0832L182.754 33.4201V33.4191ZM179.114 33.782H179.004H179.114ZM178.802 33.7839H178.654H178.802ZM178.959 33.782H178.835H178.959ZM148.424 27.8804L148.748 25.5663L148.378 28.2104L148.334 28.5425L148.425 27.8784L148.424 27.8804ZM152.306 18.1141H150.014C149.954 18.1179 149.898 18.152 149.851 18.2116C149.805 18.2711 149.772 18.353 149.756 18.4451L149.322 21.5266C149.314 21.5665 149.313 21.6086 149.318 21.6494C149.323 21.6903 149.334 21.7285 149.35 21.761C149.366 21.7935 149.387 21.8193 149.411 21.8361C149.434 21.8529 149.46 21.8603 149.486 21.8576H151.796C151.912 21.8576 152.027 21.7085 152.052 21.5266L152.472 18.4382C152.496 18.2563 152.422 18.1072 152.305 18.1072L152.306 18.1141ZM151.812 23.2532L151.133 28.2611L151.812 23.2532ZM145.153 39.8455L147.043 39.8694C146.485 39.8694 145.564 39.8525 145.152 39.8445L145.153 39.8455Z" fill="#131B28"/>
<path id="Vector_7" d="M149.079 23.2524L148.754 25.5665L149.079 23.2524ZM151.647 22.9204H149.342C149.283 22.9242 149.226 22.9583 149.18 23.0179C149.133 23.0774 149.1 23.1593 149.085 23.2514L148.436 27.8796L148.346 28.5436L147.729 33.2682C147.698 33.4886 147.661 33.7066 147.618 33.9213C147.618 33.9213 147.186 35.9889 146.461 35.966L145.742 35.9441C145.683 35.9468 145.626 35.9797 145.579 36.0379C145.532 36.0962 145.498 36.1768 145.482 36.2682L145.003 39.5107C144.996 39.5504 144.994 39.5923 144.999 39.6331C145.003 39.6739 145.014 39.7123 145.03 39.7451C145.046 39.7778 145.066 39.804 145.09 39.8213C145.113 39.8387 145.139 39.8467 145.164 39.8447L147.055 39.8695C148.868 39.8695 149.823 38.2523 150.436 33.6002L151.825 23.2624C151.85 23.0805 151.775 22.9314 151.659 22.9314L151.647 22.9204ZM184.467 33.5933C184.351 33.5933 184.282 33.4442 184.301 33.2613L186.04 20.1541L184.467 33.5933ZM186.883 33.2613L187.587 27.6669L186.883 33.2613Z" fill="#131B28"/>
<path id="Vector_8" d="M184.327 33.4285C184.312 33.337 184.32 33.1133 184.345 32.9314L185.17 26.7088L184.301 33.2625C184.276 33.4454 184.351 33.5945 184.467 33.5945H184.678C184.562 33.5945 184.34 33.5199 184.327 33.4285V33.4285ZM186.747 33.5199C186.684 33.5597 186.537 33.5945 186.421 33.5945H186.632C186.691 33.5907 186.747 33.5562 186.793 33.4961C186.839 33.436 186.871 33.3537 186.885 33.2615L186.927 32.9295C186.904 33.1124 186.803 33.4791 186.742 33.5199H186.747ZM187.236 30.4643L187.546 27.9951L187.236 30.4643ZM194.094 21.033L194.189 21.6691C194.216 21.851 194.142 21.9992 194.027 22.0001" fill="#131B28"/>
<path id="Vector_9" d="M186.926 32.9291L187.235 30.4639L186.926 32.9291ZM193.998 20.3796L194.093 21.0316L193.998 20.3796ZM187.547 27.9968L187.632 27.3367L187.963 24.8368L187.588 27.6678L187.547 27.9958V27.9968ZM186.068 19.9392L185.996 20.4859L185.171 26.7085L186.04 20.1549L186.068 19.9402V19.9392Z" fill="#131B28"/>
<path id="Vector_10" d="M194.191 21.6689L194.096 21.0327L193.954 20.0387C193.766 18.8658 193.215 18.1868 192.019 18.1868L186.511 18.1809C186.452 18.1841 186.396 18.2183 186.35 18.2782C186.304 18.3381 186.271 18.4205 186.257 18.5129L186.172 19.162L186.048 20.1431L184.354 32.9193C184.33 33.1022 184.322 33.3169 184.336 33.4163C184.35 33.5157 184.572 33.5823 184.688 33.5823H186.429C186.545 33.5823 186.691 33.5485 186.755 33.5077C186.818 33.467 186.912 33.1101 186.94 32.9173L187.601 27.6549L188.307 22.323C188.332 22.1411 188.446 21.993 188.562 21.992L194.04 21.988C194.155 21.988 194.229 21.8389 194.202 21.657L194.191 21.6689ZM201.243 15.9095L200.821 15.9125H199.068C199.004 15.9187 198.941 15.9469 198.884 15.9952C198.827 16.0435 198.778 16.1109 198.738 16.1928L194.861 25.3378C194.796 25.4919 194.721 25.4691 194.694 25.2881L194.409 23.2733C194.394 23.1811 194.361 23.0992 194.314 23.0397C194.268 22.9801 194.211 22.946 194.152 22.9422H191.659C191.543 22.9422 191.474 23.0884 191.506 23.2683L192.617 29.5684C192.65 29.7473 192.651 30.0426 192.624 30.2245L192.13 33.2731C192.121 33.3122 192.119 33.3541 192.123 33.3949C192.127 33.4358 192.138 33.4743 192.154 33.5069C192.169 33.5396 192.19 33.5654 192.214 33.5821C192.237 33.5987 192.263 33.6056 192.288 33.6022H194.758C194.874 33.6022 194.993 33.4531 195.021 33.2741L195.515 30.2255C195.554 30.0108 195.614 29.808 195.694 29.6251L201.989 16.1739C202.059 16.0248 202.021 15.9036 201.905 15.9055L201.244 15.9125L201.243 15.9095ZM181.44 23.8001C181.425 23.9989 181.309 24.148 181.193 24.148H178.032C177.922 24.148 177.867 24.0287 177.883 23.8796L177.886 23.8528L177.9 23.7663C178.209 22.4741 178.817 21.6262 179.972 21.6262C181.273 21.6262 181.527 22.65 181.438 23.8001H181.44ZM180.514 17.9274C176.457 17.9274 175.496 21.8916 174.957 25.8925C174.417 29.971 174.464 33.7851 178.661 33.7851H179.327L179.839 33.7821L182.51 33.7562C182.569 33.7519 182.625 33.7171 182.67 33.657C182.716 33.597 182.748 33.515 182.761 33.4232L183.167 30.2304C183.191 30.0475 183.115 29.8984 182.999 29.8984H179.226C177.725 29.8984 177.279 29.2563 177.443 27.3686H183.475C183.574 27.3657 183.663 27.2692 183.699 27.1181C183.705 27.0913 183.711 27.0625 183.713 27.0337C184.609 21.5963 184.352 17.9314 180.515 17.9314L180.514 17.9274ZM161.34 23.7792L161.283 24.1043C161.283 24.1053 160.827 26.7046 160.827 26.7046L160.372 29.303C160.353 29.3946 160.317 29.4748 160.269 29.533C160.221 29.5913 160.164 29.6247 160.104 29.6291H157.693C155.864 29.6291 155.419 27.3259 155.864 23.9293C156.309 20.4552 157.182 18.2952 158.982 18.0765C161.442 17.7783 161.933 20.5635 161.34 23.7782L161.34 23.7792ZM162.993 29.4302C162.993 29.4302 164.129 24.987 164.388 22.4194C164.74 18.983 163.672 14 159.545 14C155.441 14 153.659 18.7574 152.98 23.9402C152.301 29.1489 153.191 33.7175 157.271 33.6817L163.498 33.6449C163.557 33.6403 163.615 33.6062 163.662 33.5471C163.709 33.488 163.744 33.4069 163.761 33.3149L164.286 30.0962C164.294 30.0573 164.297 30.0155 164.293 29.9747C164.289 29.9339 164.278 29.8954 164.263 29.8626C164.247 29.8299 164.227 29.8039 164.203 29.7871C164.18 29.7702 164.154 29.7631 164.129 29.7662H163.124C163.025 29.7652 162.97 29.6629 162.981 29.5277C162.983 29.5028 162.987 29.478 162.993 29.4521V29.4302Z" fill="#131B28"/>
<path id="Vector_11" d="M183.306 26.4563C183.306 26.5796 183.244 26.679 183.167 26.679C183.09 26.679 183.028 26.5796 183.028 26.4563C183.028 26.333 183.09 26.2336 183.167 26.2336C183.244 26.2336 183.306 26.333 183.306 26.4563Z" fill="#131B28"/>
</g>
<path id="Vector_12" d="M131.658 20.6785C130.525 23.3007 130.666 26.7122 131.531 29.4975L131.595 29.6963L131.636 29.8215L131.66 29.8941L131.705 30.0233L131.788 30.252L131.835 30.3772L131.931 30.6187L131.972 30.7201L132.11 31.0432L132.138 31.1028L132.264 31.3742L132.312 31.4716L132.435 31.7032L132.48 31.7897L132.643 32.0899L132.653 32.1068L132.818 32.3881L132.871 32.4746L133.003 32.6734L133.058 32.7559L133.238 33.0213L133.273 33.068L133.438 33.2917L133.5 33.3792L133.637 33.5521L133.711 33.6515L133.865 33.8304L133.937 33.912L134.086 34.071L134.151 34.1406L134.386 34.3712L134.45 34.4308L134.626 34.5899L134.724 34.6694L134.85 34.7748L134.879 34.7976L134.93 34.8374L135.13 34.9865L135.172 35.0163L135.404 35.1714L135.461 35.2072L135.68 35.3384L135.708 35.3543L135.953 35.4835L136.012 35.5113L136.259 35.6266C141.738 37.237 143.33 30.3245 143.33 30.3245C141.993 33.1277 139.625 33.8682 137.372 33.0452C137.287 33.0153 137.204 32.9716 137.121 32.9318L137.06 32.902C136.979 32.862 136.899 32.82 136.819 32.7758L136.785 32.7559C136.714 32.7161 136.643 32.6724 136.572 32.6287L136.512 32.5909C136.435 32.5418 136.358 32.4904 136.282 32.4368L136.237 32.404L136.043 32.2589L135.981 32.2152C135.93 32.1754 135.881 32.1336 135.831 32.0919L135.731 32.0074C135.67 31.9551 135.611 31.9011 135.551 31.8454L135.491 31.7907C135.412 31.7157 135.334 31.6388 135.256 31.5601C135.234 31.5382 135.214 31.5144 135.193 31.4925L135.026 31.3136C135.008 31.2937 134.991 31.2738 134.973 31.2539L134.815 31.07L134.746 30.9855L134.604 30.8066L134.54 30.7251L134.363 30.4846C134.357 30.4746 134.35 30.4677 134.344 30.4587C134.281 30.3593 134.22 30.2778 134.158 30.1863L134.105 30.1048L133.971 29.8941L133.919 29.8096C133.863 29.718 133.808 29.6249 133.755 29.5303C133.695 29.4258 133.637 29.3198 133.58 29.2122L133.537 29.1287L133.417 28.8901L133.374 28.7907L133.235 28.4945C131.993 25.759 131.544 21.9777 132.549 18.8723L131.658 20.6785ZM135.181 18.4698C134.362 20.3584 134.406 22.9101 135.045 24.917C135.152 25.2545 135.273 25.58 135.407 25.8912C135.531 26.1745 135.667 26.5114 135.829 26.7391L136.013 27.0373L136.061 27.1138L136.249 27.3951L136.258 27.408L136.477 27.7003L136.527 27.7629L136.756 28.0313L136.917 28.2033L137.087 28.3722L137.111 28.3951L137.262 28.5303L137.316 28.575L137.421 28.6625L137.437 28.6744L137.656 28.8394L137.704 28.8713L137.889 28.9885L137.966 29.0343L138.131 29.1267L138.205 29.1665C138.284 29.2062 138.362 29.2659 138.444 29.2778C142.675 30.406 143.652 25.1625 143.652 25.1625C142.772 27.2043 141.066 28.1784 139.247 27.419L139.007 27.3076L138.935 27.2699L138.768 27.1764L138.693 27.1307L138.512 27.0134L138.463 26.9806L138.242 26.8156L138.131 26.7162L138.068 26.6635L137.895 26.5045L137.725 26.3375L137.565 26.1655L137.336 25.8971L137.285 25.8315C136.482 24.8196 135.857 23.4459 135.556 21.8673C135.247 20.2401 135.309 18.4141 135.854 16.932L135.181 18.4698ZM138.133 16.8197C137.65 17.9628 137.602 19.3843 137.937 20.6497C138.291 21.9916 139.015 23.0353 139.861 23.5323L139.966 23.592L140.012 23.6158L140.163 23.6854C142.499 24.4111 143.126 21.755 143.301 21.3644C142.745 22.6506 141.819 22.9598 140.668 22.5125C140.574 22.4726 140.482 22.4269 140.39 22.3753C140.278 22.3114 140.168 22.2381 140.061 22.1556C139.858 21.998 139.665 21.8082 139.485 21.589C138.46 20.3365 137.818 17.9509 138.492 16.0076" fill="#0868AC"/>
</g>
<g id="nuxt">
<g id="Calque 1-2">
<path id="path8" d="M145.522 88.011C145.564 88.1359 145.597 88.2834 145.619 88.445C145.641 88.6066 145.651 88.779 145.649 88.9519V107.041C145.651 107.233 145.639 107.424 145.615 107.603C145.59 107.782 145.554 107.945 145.507 108.084C145.46 108.223 145.403 108.332 145.34 108.405C145.277 108.478 145.21 108.513 145.142 108.508C145.065 108.508 144.988 108.474 144.915 108.406C144.848 108.348 144.788 108.239 144.741 108.092L140.59 92.8342V107.198C140.593 107.535 140.549 107.862 140.467 108.108C140.385 108.354 140.272 108.497 140.153 108.508C140.144 108.508 140.135 108.508 140.126 108.508C140.065 108.514 140.004 108.484 139.948 108.42C139.891 108.356 139.84 108.259 139.798 108.135C139.756 108.01 139.723 107.863 139.702 107.702C139.68 107.541 139.67 107.37 139.672 107.198V89.0706C139.671 88.8796 139.683 88.6897 139.709 88.5132C139.735 88.3366 139.773 88.1771 139.822 88.0449C139.868 87.9125 139.923 87.8083 139.984 87.739C140.044 87.6697 140.11 87.6367 140.175 87.6422C140.258 87.6411 140.341 87.6858 140.418 87.7737C140.489 87.8505 140.55 87.9793 140.597 88.1466L144.73 103.439V88.9519C144.729 88.785 144.739 88.6187 144.759 88.4626C144.78 88.3064 144.812 88.1635 144.853 88.0418C144.893 87.9202 144.942 87.8223 144.996 87.7538C145.05 87.6852 145.108 87.6473 145.167 87.6422C145.176 87.6415 145.185 87.6415 145.194 87.6422C145.255 87.6359 145.316 87.6655 145.372 87.729C145.428 87.7925 145.479 87.8885 145.522 88.011H145.522ZM154.05 88.011C154.14 88.2927 154.187 88.6621 154.182 89.0409V100.484C154.191 101.964 154.063 103.424 153.813 104.723C153.575 105.948 153.222 106.965 152.793 107.66C152.348 108.38 151.843 108.752 151.331 108.737C150.813 108.76 150.303 108.395 149.852 107.681C149.421 106.989 149.066 105.972 148.828 104.744C148.577 103.445 148.45 101.985 148.458 100.506V89.0621C148.457 88.8703 148.469 88.6795 148.495 88.5021C148.521 88.3246 148.559 88.1645 148.609 88.0322C148.659 87.8937 148.718 87.7849 148.783 87.7121C148.849 87.6394 148.918 87.6041 148.989 87.6084C149.055 87.6085 149.12 87.6461 149.181 87.7189C149.242 87.7917 149.297 87.8982 149.343 88.0322C149.391 88.1621 149.43 88.3194 149.456 88.4939C149.482 88.6683 149.494 88.8561 149.493 89.0452V100.489C149.487 101.466 149.575 102.429 149.747 103.278C149.906 104.068 150.136 104.726 150.414 105.184C150.692 105.642 151.009 105.883 151.331 105.884C151.66 105.891 151.984 105.654 152.271 105.198C152.56 104.746 152.8 104.083 152.967 103.278C153.141 102.431 153.231 101.467 153.225 100.489V89.0452C153.221 88.6695 153.266 88.3022 153.352 88.0152C153.395 87.8768 153.449 87.7671 153.51 87.6939C153.57 87.6207 153.636 87.5857 153.701 87.5914C153.767 87.5871 153.832 87.6223 153.892 87.6947C153.952 87.767 154.006 87.8747 154.05 88.0107L154.05 88.011ZM162.177 106.363C162.24 106.609 162.274 106.906 162.272 107.21C162.274 107.4 162.262 107.589 162.237 107.764C162.211 107.939 162.171 108.096 162.122 108.223C162.029 108.471 161.906 108.609 161.778 108.609C161.697 108.618 161.617 108.568 161.545 108.464C161.473 108.36 161.411 108.206 161.366 108.016L159.314 100.281L157.308 108.003C157.264 108.196 157.203 108.355 157.131 108.463C157.059 108.572 156.978 108.628 156.897 108.626C156.837 108.63 156.777 108.599 156.722 108.534C156.666 108.47 156.616 108.375 156.574 108.253C156.532 108.145 156.499 108.014 156.477 107.868C156.454 107.722 156.442 107.565 156.442 107.405C156.444 107.047 156.489 106.7 156.569 106.422L158.735 98.1023L156.559 89.846C156.491 89.6048 156.454 89.3065 156.452 88.9983C156.451 88.8092 156.464 88.6215 156.49 88.447C156.515 88.2725 156.554 88.1153 156.603 87.9853C156.649 87.8514 156.704 87.7449 156.764 87.6721C156.825 87.5993 156.891 87.5617 156.957 87.5615C157.036 87.5626 157.113 87.6148 157.184 87.7141C157.258 87.8137 157.322 87.9672 157.368 88.1591L159.397 95.8514L161.406 88.235C161.449 88.044 161.508 87.8849 161.578 87.7707C161.648 87.6566 161.726 87.5906 161.806 87.5781C161.869 87.5791 161.932 87.6173 161.989 87.6903C162.046 87.7633 162.098 87.8695 162.14 88.0019C162.185 88.1171 162.222 88.2572 162.248 88.4139C162.274 88.5705 162.288 88.7404 162.29 88.9131C162.286 89.2193 162.25 89.5151 162.185 89.7607L159.981 98.0432L162.177 106.363ZM169.797 88.011C169.846 88.1373 169.885 88.2921 169.911 88.4648C169.937 88.6374 169.949 88.8239 169.947 89.0113C169.949 89.1961 169.936 89.3799 169.91 89.5497C169.885 89.7195 169.846 89.8713 169.797 89.9945C169.695 90.2374 169.565 90.3644 169.432 90.3506H167.552V107.08C167.554 107.269 167.541 107.456 167.515 107.631C167.489 107.805 167.451 107.962 167.402 108.093C167.296 108.36 167.159 108.508 167.016 108.508C166.874 108.508 166.737 108.36 166.63 108.093C166.582 107.962 166.544 107.805 166.518 107.63C166.492 107.456 166.479 107.269 166.48 107.08V90.3506H164.605C164.472 90.3649 164.341 90.2327 164.242 89.9819C164.194 89.8537 164.157 89.6981 164.132 89.5256C164.107 89.3531 164.096 89.1678 164.099 88.982C164.097 88.8009 164.109 88.6206 164.133 88.4531C164.158 88.2857 164.195 88.1351 164.242 88.0114C164.341 87.7605 164.472 87.6284 164.605 87.6426H169.432C169.566 87.6289 169.697 87.7607 169.797 88.011V88.011Z" fill="#2C4A5D"/>
<path id="path10" d="M172.108 107.973C171.767 107.427 171.482 106.634 171.284 105.676C171.225 105.439 171.192 105.16 171.188 104.871C171.188 104.686 171.202 104.504 171.23 104.336C171.257 104.169 171.297 104.02 171.347 103.9C171.433 103.647 171.55 103.495 171.674 103.477C171.768 103.501 171.858 103.58 171.94 103.709C172.022 103.837 172.094 104.012 172.15 104.223C172.266 104.758 172.429 105.2 172.623 105.503C172.817 105.806 173.036 105.961 173.258 105.952C173.44 105.964 173.62 105.872 173.789 105.683C173.958 105.494 174.111 105.21 174.24 104.85C174.371 104.502 174.474 104.08 174.543 103.613C174.612 103.146 174.646 102.644 174.643 102.137V89.0703C174.642 88.8795 174.656 88.6904 174.683 88.5157C174.71 88.341 174.75 88.1847 174.8 88.0574C174.899 87.7838 175.032 87.6314 175.17 87.6335C175.239 87.624 175.308 87.6549 175.372 87.7242C175.437 87.7934 175.496 87.8997 175.545 88.0362C175.592 88.1708 175.629 88.3312 175.654 88.5075C175.678 88.6839 175.69 88.8725 175.688 89.0618V102.158C175.692 103.332 175.582 104.487 175.371 105.498C175.162 106.506 174.861 107.338 174.5 107.91C174.122 108.515 173.693 108.825 173.258 108.808C172.856 108.82 172.459 108.532 172.108 107.973V107.973ZM179.369 108.194C178.951 107.745 178.567 107.073 178.239 106.214C178.172 106.07 178.117 105.885 178.079 105.673C178.041 105.461 178.02 105.227 178.018 104.99C178.019 104.808 178.033 104.629 178.058 104.463C178.084 104.297 178.121 104.148 178.168 104.023C178.213 103.888 178.267 103.781 178.327 103.708C178.386 103.635 178.451 103.598 178.517 103.599C178.628 103.595 178.735 103.712 178.817 103.926C179.07 104.609 179.365 105.159 179.688 105.549C180.012 105.913 180.358 106.091 180.707 106.075C181.104 106.11 181.496 105.807 181.832 105.206C181.969 104.988 182.083 104.673 182.164 104.291C182.245 103.91 182.288 103.476 182.291 103.031C182.294 102.554 182.253 102.083 182.172 101.663C182.092 101.243 181.975 100.888 181.832 100.632C181.41 99.9335 180.947 99.454 180.465 99.2169C179.854 98.9405 179.278 98.2319 178.79 97.1571C178.593 96.6629 178.438 96.0501 178.337 95.3641C178.236 94.6781 178.19 93.9364 178.204 93.1942C178.196 92.0864 178.312 90.9994 178.535 90.0875C178.761 89.1824 179.073 88.4747 179.435 88.0446C179.85 87.5516 180.295 87.3076 180.745 87.3284C181.166 87.3208 181.584 87.5231 181.98 87.9259C182.33 88.2587 182.65 88.7976 182.92 89.5069C182.991 89.6551 183.05 89.846 183.092 90.0658C183.134 90.2856 183.159 90.5289 183.163 90.7784C183.163 90.9562 183.151 91.1321 183.126 91.2959C183.102 91.4597 183.066 91.608 183.021 91.732C182.978 91.8682 182.925 91.9766 182.865 92.0498C182.806 92.1229 182.742 92.1591 182.677 92.1558C182.588 92.1653 182.502 92.0788 182.435 91.9139C182.216 91.3339 181.957 90.888 181.674 90.6043C181.381 90.2706 181.068 90.0952 180.752 90.0872C180.356 90.0298 179.964 90.3169 179.628 90.9096C179.499 91.1501 179.394 91.4766 179.321 91.86C179.248 92.2435 179.209 92.672 179.209 93.1072C179.209 93.5425 179.248 93.971 179.321 94.3544C179.394 94.7379 179.499 95.0644 179.628 95.3048C180.012 95.9381 180.432 96.3825 180.869 96.6191C181.334 96.8771 181.787 97.2765 182.22 97.8101C182.548 98.2188 182.828 98.8799 183.028 99.7174C183.231 100.68 183.33 101.79 183.312 102.909C183.318 104.009 183.198 105.085 182.97 105.977C182.73 106.897 182.407 107.619 182.034 108.067C181.625 108.573 181.182 108.827 180.736 108.813C180.271 108.837 179.808 108.628 179.369 108.194V108.194Z" fill="#00C391"/>
<path id="path12" d="M124.923 108.262C124.912 108.208 124.903 108.153 124.894 108.096C124.837 107.72 124.819 107.305 124.843 106.901H121.437L126.5 81.7507L128.162 89.9986L128.644 87.5912L127.195 80.386C127.125 80.0169 127.024 79.7029 126.901 79.4726C126.777 79.2423 126.635 79.1032 126.488 79.0679C126.34 79.0869 126.198 79.2221 126.077 79.4581C125.955 79.6941 125.86 80.0215 125.801 80.403L120.672 105.859C120.596 106.218 120.552 106.625 120.544 107.044C120.536 107.463 120.565 107.881 120.627 108.261C120.706 108.612 120.818 108.894 120.951 109.075C121.084 109.255 121.232 109.327 121.378 109.283H125.674C125.527 109.328 125.379 109.256 125.247 109.076C125.114 108.895 125.002 108.613 124.923 108.262V108.262Z" fill="#00C492"/>
<path id="path14" d="M134.799 105.859L130.585 84.9002C130.516 84.5272 130.415 84.2094 130.29 83.976C130.166 83.7427 130.023 83.6014 129.875 83.5652C129.728 83.5831 129.585 83.7174 129.464 83.9527C129.343 84.188 129.247 84.5149 129.189 84.896L128.644 87.5916L129.129 89.999L129.879 86.2481L134.049 106.902H132.463C132.484 107.243 132.472 107.593 132.43 107.919C132.421 107.991 132.41 108.06 132.397 108.126L132.384 108.203C132.297 108.546 132.183 108.824 132.049 109.013C131.916 109.201 131.768 109.294 131.619 109.283H134.1C134.249 109.294 134.397 109.202 134.53 109.013C134.663 108.825 134.778 108.546 134.864 108.203C134.932 107.834 134.962 107.419 134.95 107.005C134.939 106.59 134.887 106.193 134.799 105.859Z" fill="#008776"/>
<path id="path16" d="M132.384 108.203L132.398 108.127C132.411 108.06 132.422 107.991 132.431 107.919C132.473 107.594 132.484 107.243 132.464 106.902C132.44 106.533 132.393 106.18 132.325 105.859L129.132 89.9991L128.644 87.5918L128.159 89.9991L124.967 105.859C124.905 106.184 124.863 106.537 124.844 106.902C124.818 107.305 124.834 107.72 124.89 108.097C124.899 108.154 124.908 108.209 124.919 108.263C124.998 108.614 125.11 108.895 125.243 109.076C125.375 109.256 125.523 109.328 125.67 109.284H131.615C131.765 109.296 131.914 109.204 132.048 109.016C132.182 108.827 132.297 108.548 132.384 108.203V108.203ZM128.644 92.4065L131.563 106.902H125.727L128.644 92.4065Z" fill="#2D4A5D"/>
</g>
</g>
<path id="bootstrap" fill-rule="evenodd" clip-rule="evenodd" d="M8.01603 119.193C5.81393 119.193 4.18447 122.241 4.25744 125.546C4.32747 128.722 4.23648 132.834 3.58175 136.188C2.92468 139.552 1.8142 141.683 0 141.957V145.045C1.8142 145.32 2.92468 147.45 3.58167 150.814C4.23648 154.168 4.32739 158.281 4.25736 161.456C4.1844 164.761 5.81385 167.809 8.01633 167.809H30.5806C32.7827 167.809 34.4118 164.762 34.3389 161.456C34.2688 158.281 34.3598 154.168 35.0146 150.814C35.6716 147.45 36.7794 145.319 38.5937 145.045V141.957C36.7795 141.683 35.6717 139.552 35.0146 136.188C34.3598 132.835 34.2688 128.722 34.3389 125.546C34.4118 122.241 32.7827 119.193 30.5806 119.193H8.01572H8.01603ZM26.1652 149.12C26.1652 153.671 24.0184 156.431 20.4556 156.431H14.3908C14.2174 156.431 14.051 156.322 13.9283 156.128C13.8056 155.934 13.7367 155.671 13.7367 155.397V131.606C13.7367 131.331 13.8056 131.068 13.9283 130.874C14.051 130.68 14.2174 130.571 14.3908 130.571H20.4211C23.3918 130.571 25.3415 133.116 25.3415 137.023C25.3415 139.765 24.0299 142.22 22.359 142.65V142.793C24.6336 143.187 26.1652 145.679 26.1652 149.12V149.12ZM19.7943 133.85H16.3363V141.574H19.2488C21.5004 141.574 22.7419 140.141 22.7419 137.578C22.7416 135.176 21.6743 133.85 19.7943 133.85ZM16.3363 144.639V153.151H19.9216C22.2658 153.151 23.5075 151.664 23.5075 148.868C23.5075 146.073 22.231 144.639 19.7708 144.639H16.3363V144.639Z" fill="#7952B3"/>
<path id="tailwind-icon" d="M269.844 21.5913C265.197 21.5913 262.292 25.6963 261.131 33.906C262.873 29.8011 264.906 28.2617 267.23 29.288C268.555 29.8735 269.503 31.5727 270.552 33.4534C272.26 36.5174 274.238 40.0634 278.557 40.0634C283.204 40.0634 286.108 35.9584 287.27 27.7487C285.527 31.8537 283.494 33.393 281.171 32.3667C279.845 31.7813 278.897 30.082 277.849 28.2013C276.14 25.1373 274.163 21.5913 269.844 21.5913ZM261.131 40.0634C256.484 40.0634 253.579 44.1684 252.417 52.3782C254.16 48.2732 256.193 46.7338 258.517 47.7601C259.842 48.3456 260.79 50.0448 261.839 51.9255C263.547 54.9895 265.524 58.5355 269.844 58.5355C274.49 58.5355 277.395 54.4305 278.557 46.2208C276.814 50.3258 274.781 51.8651 272.457 50.8388C271.132 50.2534 270.184 48.5541 269.136 46.6734C267.427 43.6094 265.45 40.0634 261.131 40.0634Z" fill="url(#paint0_linear_2_87)"/>
<g id="vuetify-icon">
<path id="Vector_13" d="M65.3257 40.0271H55.9536L65.3257 59.2683" fill="#1697F6"/>
<path id="Vector_14" d="M65.3262 40.0271H74.6983L65.3262 59.2683" fill="#1867C0"/>
<path id="Vector_15" d="M65.3258 64.8213V79.7072L45.332 45.8013H55.8052" fill="#7BC6FF"/>
<path id="Vector_16" d="M65.3262 64.8213V79.7072L85.32 45.8013H74.8468" fill="#AEDDFF"/>
</g>
<g id="css-icon">
<path id="Vector_17" d="M71.8364 291.031L48.4771 284.459L43.2715 225.284H100.471L95.2602 284.45L71.8364 291.031V291.031Z" fill="#264DE4"/>
<path id="Vector_18" d="M90.7992 280.682L95.2521 230.123H71.8716V286.001L90.7992 280.682V280.682Z" fill="#2965F1"/>
<path id="Vector_19" d="M55.2057 252.07L55.8474 259.327H71.8719V252.07H55.2057ZM53.916 237.381L54.5669 244.638H71.8719V237.381H53.916V237.381ZM71.8719 270.918L71.8405 270.927L63.8656 268.744L63.3557 262.956H56.1674L57.1705 274.352L71.8389 278.478L71.8719 278.469V270.918Z" fill="#EBEBEB"/>
<path id="Vector_20" d="M56.7329 209.203H65.4056V212.879H60.3598V216.555H65.406V220.231H56.7329V209.203ZM67.1403 209.203H75.8132V212.4H70.7672V213.039H75.8132V220.391H67.1406V217.034H72.1865V216.395H67.1401V209.203H67.1403ZM77.548 209.203H86.2209V212.4H81.1749V213.039H86.2209V220.391H77.548V217.034H82.594V216.395H77.5482V209.203H77.548Z" fill="black"/>
<path id="Vector_21" d="M88.492 252.07L89.7846 237.381H71.8469V244.638H81.9371L81.2855 252.07H71.8469V259.327H80.6646L79.8332 268.74L71.8467 270.925V278.475L86.5268 274.352L86.6344 273.125L88.3173 254.019L88.492 252.07V252.07Z" fill="white"/>
</g>
<g id="csharp">
<path id="Vector_22" d="M219.891 322.083C219.891 320.775 219.631 319.619 219.105 318.627C218.589 317.652 217.815 316.834 216.778 316.188C208.215 310.875 199.643 305.578 191.083 300.26C188.775 298.827 186.537 298.879 184.247 300.333C180.838 302.496 163.774 313.015 158.689 316.185C156.595 317.489 155.576 319.486 155.575 322.08C155.572 332.764 155.575 343.449 155.572 354.133C155.572 355.412 155.821 356.546 156.324 357.522C156.84 358.527 157.625 359.367 158.686 360.028C163.771 363.197 180.838 373.716 184.246 375.879C186.537 377.334 188.775 377.386 191.084 375.953C199.644 370.634 208.216 365.338 216.781 360.025C217.842 359.364 218.626 358.524 219.143 357.52C219.645 356.543 219.895 355.409 219.895 354.13C219.895 354.13 219.895 332.767 219.891 322.083Z" fill="#A179DC"/>
<path id="Vector_23" d="M187.832 338.002L156.324 357.522C156.84 358.527 157.625 359.367 158.686 360.028C163.771 363.197 180.838 373.716 184.246 375.88C186.537 377.335 188.775 377.387 191.084 375.953C199.644 370.634 208.216 365.338 216.781 360.025C217.842 359.364 218.626 358.524 219.143 357.52L187.832 338.002Z" fill="#280068"/>
<path id="Vector_24" d="M219.891 322.083C219.891 320.775 219.631 319.619 219.105 318.627L187.832 338.003L219.143 357.52C219.645 356.543 219.894 355.409 219.895 354.13C219.895 354.13 219.895 332.767 219.891 322.083" fill="#390091"/>
<g id="Group_2">
<path id="Vector_25" d="M206.382 330.705V334.354H209.773V330.705H211.469V334.354H214.86V336.178H211.469V339.827H214.86V341.651H211.469V345.3H209.773V341.651H206.382V345.3H204.687V341.651H201.296V339.827H204.687V336.178H201.296V334.354H204.687V330.705H206.382ZM209.773 336.178H206.382V339.827H209.773V336.178Z" fill="white"/>
<path id="Vector_26" d="M187.901 312.381C196.746 312.381 204.468 317.549 208.604 325.231L208.564 325.158L198.157 331.605C196.107 327.87 192.348 325.349 188.036 325.297L187.901 325.296C181.326 325.296 175.995 331.031 175.995 338.106C175.993 340.336 176.534 342.527 177.565 344.461C179.617 348.316 183.475 350.916 187.901 350.916C192.354 350.916 196.233 348.283 198.275 344.387L198.225 344.481L208.616 350.958C204.525 358.575 196.909 363.727 188.167 363.83L187.901 363.832C179.028 363.832 171.284 358.631 167.158 350.908C165.144 347.138 163.992 342.767 163.992 338.106C163.992 323.898 174.696 312.38 187.901 312.38L187.901 312.381Z" fill="white"/>
</g>
</g>
<g id=".netcore">
<path id="Vector_27" d="M257.222 152.184C257.076 152.042 256.898 151.93 256.702 151.851C256.506 151.772 256.296 151.735 256.082 151.735C255.868 151.731 255.658 151.772 255.462 151.847C255.266 151.926 255.089 152.038 254.943 152.179C254.792 152.316 254.674 152.479 254.596 152.657C254.519 152.84 254.478 153.031 254.478 153.222C254.473 153.418 254.514 153.609 254.596 153.787C254.678 153.966 254.797 154.128 254.947 154.265C255.093 154.406 255.27 154.518 255.466 154.593C255.663 154.669 255.874 154.705 256.087 154.701C256.299 154.702 256.51 154.664 256.705 154.589C256.901 154.514 257.078 154.404 257.226 154.265C257.381 154.132 257.5 153.97 257.582 153.791C257.664 153.613 257.705 153.422 257.705 153.226C257.705 153.031 257.664 152.84 257.582 152.661C257.495 152.479 257.377 152.316 257.222 152.184V152.184ZM276.296 148.81C276.273 149.74 276.323 150.675 276.441 151.602H276.387C276.259 151.373 275.977 150.949 275.544 150.33L265.152 135.46H261.998V154.444H264.423V140.72C264.45 139.852 264.409 138.983 264.309 138.115H264.4C264.573 138.53 264.797 138.929 265.061 139.303L275.735 154.444H278.72V135.46H276.296V148.81ZM295.16 152.358H286.591V145.781H294.089V143.778H286.591V137.471H294.636V135.46H284.107V154.444H295.146L295.16 152.358ZM297.015 135.46V137.471H302.985V154.444H305.41V137.471H311.449V135.46H297.015ZM273.251 159.164C272.645 159.384 272.098 159.72 271.647 160.149C271.182 160.602 270.817 161.133 270.58 161.719C270.343 162.305 270.238 162.924 270.266 163.543C270.22 164.69 270.658 165.812 271.496 166.668C271.916 167.071 272.426 167.382 272.991 167.59C273.556 167.798 274.163 167.889 274.769 167.864C275.68 167.893 276.587 167.719 277.412 167.353L277.421 166.385C276.665 166.788 275.803 166.988 274.928 166.967C274.459 166.984 273.989 166.909 273.556 166.747C273.123 166.585 272.731 166.335 272.412 166.02C271.745 165.313 271.402 164.399 271.455 163.468C271.401 162.484 271.77 161.52 272.481 160.78C272.818 160.439 273.233 160.174 273.693 159.991C274.155 159.812 274.654 159.725 275.156 159.737C275.954 159.725 276.738 159.903 277.435 160.257V159.214C276.712 158.948 275.935 158.823 275.156 158.848C274.504 158.84 273.853 158.944 273.251 159.164V159.164ZM284.613 162.139C284.309 161.847 283.938 161.618 283.528 161.469C283.117 161.32 282.676 161.254 282.234 161.275C281.765 161.254 281.3 161.324 280.862 161.478C280.425 161.632 280.028 161.865 279.691 162.16C279.363 162.492 279.112 162.878 278.948 163.302C278.784 163.726 278.716 164.171 278.748 164.619C278.702 165.471 279.026 166.306 279.646 166.942C279.955 167.245 280.329 167.486 280.748 167.648C281.168 167.806 281.619 167.885 282.07 167.869C282.531 167.881 282.991 167.802 283.419 167.64C283.848 167.478 284.231 167.233 284.545 166.921C285.184 166.264 285.515 165.405 285.466 164.528C285.52 163.655 285.215 162.804 284.613 162.139ZM283.779 166.406C283.579 166.617 283.328 166.783 283.046 166.892C282.764 167.001 282.458 167.049 282.152 167.033C281.838 167.046 281.528 166.992 281.241 166.884C280.954 166.772 280.698 166.605 280.489 166.389C280.052 165.896 279.832 165.273 279.873 164.64C279.832 163.988 280.051 163.344 280.489 162.829C280.694 162.613 280.949 162.442 281.236 162.326C281.523 162.214 281.838 162.16 282.148 162.172C282.458 162.155 282.763 162.209 283.046 162.322C283.328 162.434 283.579 162.604 283.779 162.82C284.194 163.343 284.395 163.98 284.349 164.624C284.395 165.255 284.194 165.891 283.779 166.406V166.406ZM289.062 161.732C288.72 162.01 288.469 162.372 288.346 162.775V161.47H287.207V167.719H288.346V164.532C288.31 163.955 288.474 163.377 288.811 162.887C288.934 162.708 289.098 162.559 289.299 162.455C289.499 162.351 289.723 162.288 289.95 162.284C290.242 162.263 290.534 162.334 290.78 162.484V161.453C290.57 161.391 290.352 161.362 290.133 161.37C289.741 161.366 289.363 161.495 289.062 161.732V161.732ZM297.448 164.312C297.503 163.518 297.243 162.737 296.719 162.106C296.459 161.84 296.14 161.628 295.78 161.491C295.42 161.354 295.032 161.291 294.645 161.312C294.216 161.3 293.788 161.378 293.392 161.536C293 161.694 292.649 161.931 292.366 162.23C291.747 162.888 291.426 163.737 291.468 164.603C291.409 165.467 291.705 166.323 292.298 166.996C292.585 167.283 292.94 167.507 293.332 167.657C293.724 167.806 294.153 167.869 294.577 167.852C295.42 167.889 296.254 167.682 296.956 167.258V166.319C296.356 166.763 295.609 167.009 294.836 167.017C294.54 167.033 294.239 166.992 293.961 166.892C293.683 166.792 293.428 166.647 293.218 166.452C292.811 166.002 292.604 165.43 292.64 164.848H297.457L297.448 164.312ZM292.63 164.021C292.69 163.527 292.927 163.061 293.3 162.7C293.468 162.536 293.671 162.405 293.897 162.317C294.123 162.229 294.367 162.186 294.613 162.189C294.85 162.176 295.082 162.214 295.301 162.297C295.52 162.38 295.711 162.504 295.866 162.667C296.185 163.053 296.345 163.527 296.322 164.009L292.63 164.021Z" fill="#621EE5"/>
</g>
<g id="mysql-full">
<g id="mysql">
<path id="Vector_28" d="M232.842 263.684H237.262V243.224L244.104 261.067C244.911 263.218 246.017 263.991 248.184 263.991C250.351 263.991 251.413 263.226 252.221 261.067L259.064 243.224V263.692H263.485V243.258C263.485 241.264 262.803 240.3 261.402 239.802C258.044 238.573 255.792 239.637 254.772 242.294L248.058 259.904L241.554 242.287C240.577 239.629 238.282 238.566 234.925 239.795C233.522 240.293 232.842 241.257 232.842 243.25V263.684ZM267.158 247.025H271.577V258.302C271.535 258.915 271.744 260.353 274.166 260.397C275.401 260.42 283.699 260.397 283.777 260.397V246.969H288.205C288.225 246.969 288.2 265.278 288.201 265.357C288.225 269.872 283.423 270.853 281.21 270.929H267.255V267.441L281.235 267.441C284.079 267.087 283.744 265.43 283.744 264.872V263.512H274.35C269.98 263.466 267.197 261.228 267.162 258.655C267.159 258.424 267.257 247.136 267.16 247.024L267.158 247.025Z" fill="#00618A"/>
<path id="Vector_29" d="M291.612 263.685H304.319C305.806 263.685 307.252 263.32 308.4 262.687C310.313 261.658 311.248 260.262 311.248 258.435V254.647C311.248 253.152 310.185 251.757 308.103 250.826C306.998 250.327 305.638 250.062 304.321 250.062H298.966C297.181 250.062 296.331 249.431 296.119 248.036C296.076 247.87 296.076 247.728 296.076 247.57V245.212C296.076 245.079 296.076 244.945 296.119 244.779C296.331 243.716 296.799 243.416 298.371 243.243C298.499 243.243 298.668 243.209 298.797 243.209H311.419V239.754H299.009C297.224 239.754 296.289 239.887 295.439 240.186C292.801 241.15 291.654 242.687 291.654 245.345V248.368C291.654 250.694 293.907 252.688 297.688 253.153C298.114 253.186 298.539 253.219 298.963 253.219H303.553C303.723 253.219 303.894 253.219 304.021 253.252C305.423 253.385 306.019 253.684 306.443 254.282C306.705 254.589 306.784 254.881 306.784 255.204V258.227C306.784 258.593 306.572 259.058 306.147 259.456C305.764 259.856 305.127 260.121 304.276 260.188C304.106 260.188 303.979 260.221 303.809 260.221H291.612V263.676V263.685ZM338.819 257.671C338.819 261.226 341.071 263.22 345.618 263.619C346.043 263.657 346.468 263.679 346.893 263.685H358.411V260.229H346.808C344.216 260.229 343.238 259.465 343.238 257.637V239.761H338.818V257.67L338.819 257.671ZM314.067 257.851V245.533C314.067 242.403 315.94 240.505 319.646 239.906C320.041 239.84 320.439 239.806 320.838 239.806H329.228C329.641 239.806 330.054 239.84 330.463 239.906C334.168 240.505 336.042 242.402 336.042 245.533V257.851C336.042 260.39 335.246 261.749 333.412 262.634L337.765 267.244H332.634L329.111 263.515L325.565 263.778H320.838C320.029 263.778 319.178 263.645 318.24 263.345C315.424 262.446 314.068 260.715 314.068 257.851H314.067ZM318.838 257.544C318.838 257.71 318.88 257.876 318.923 258.077C319.185 259.509 320.328 260.308 322.067 260.308H326.083L322.395 256.403H327.527L330.737 259.808C331.329 259.438 331.719 258.871 331.85 258.144C331.893 257.978 331.893 257.811 331.893 257.644V245.833C331.893 245.7 331.893 245.526 331.85 245.367C331.588 244.036 330.444 243.27 328.741 243.27H322.075C320.11 243.27 318.839 244.268 318.839 245.833V257.553L318.838 257.544Z" fill="#E48E00"/>
<g id="Group_3">
<path id="Vector_30" d="M362.299 234.029C359.583 233.943 357.507 234.239 355.733 235.116C355.229 235.366 354.425 235.372 354.342 236.113C354.619 236.453 354.663 236.962 354.883 237.381C355.306 238.185 356.022 239.263 356.66 239.826C357.357 240.443 358.075 241.104 358.824 241.639C360.153 242.59 361.638 243.134 362.918 244.085C363.672 244.646 364.422 245.353 365.158 245.987C365.522 246.301 365.767 246.788 366.239 246.984V246.893C365.99 246.522 365.926 246.012 365.699 245.626L364.694 244.448C363.712 242.912 362.466 241.577 361.141 240.461C360.084 239.571 357.718 238.37 357.278 236.927L357.2 236.837C357.95 236.737 358.827 236.419 359.519 236.203C360.681 235.838 361.719 235.932 362.919 235.569L364.542 235.025V234.663C363.935 233.933 363.503 232.967 362.842 232.307C361.112 230.579 359.224 228.854 357.28 227.414C356.202 226.615 354.87 226.097 353.726 225.42C353.342 225.193 352.667 225.075 352.413 224.695C351.813 223.798 351.486 222.66 351.023 221.622C350.053 219.433 349.101 217.041 348.242 214.737C347.655 213.166 347.272 211.617 346.542 210.207C343.034 203.444 339.258 199.362 333.409 195.35C332.165 194.497 330.667 194.159 329.083 193.719L326.533 193.538C326.014 193.284 325.475 192.539 324.987 192.178C323.05 190.742 318.08 187.62 316.644 191.717C315.738 194.308 317.998 196.836 318.807 198.15C319.375 199.072 320.102 200.104 320.507 201.14C320.773 201.821 320.82 202.503 321.048 203.224C321.609 204.991 322.098 206.929 322.824 208.569C323.191 209.399 323.596 210.273 324.06 211.015C324.345 211.471 324.833 211.671 324.91 212.375C324.433 213.158 324.406 214.372 324.137 215.365C322.93 219.829 323.385 225.378 325.141 228.683C325.68 229.697 326.949 231.873 328.695 231.038C330.221 230.308 329.874 228.05 330.318 226.056C330.416 225.602 330.356 225.272 330.549 224.969V225.059L331.94 228.32C332.969 230.264 334.796 232.296 336.344 233.667C337.146 234.378 337.785 235.607 338.816 236.022V235.932H338.738C338.537 235.563 338.223 235.412 337.965 235.117C337.361 234.422 336.688 233.558 336.188 232.762C334.78 230.52 333.537 228.068 332.403 225.514C331.862 224.295 331.391 222.95 330.936 221.709C330.76 221.231 330.762 220.508 330.395 220.26C329.896 221.169 329.159 221.904 328.773 222.978C328.154 224.694 328.075 226.786 327.846 228.957C327.71 229.014 327.771 228.975 327.691 229.048C326.616 228.744 326.237 227.445 325.838 226.33C324.826 223.511 324.639 218.974 325.528 215.73C325.758 214.891 326.799 212.247 326.378 211.472C326.177 210.699 325.513 210.243 325.142 209.659C324.683 208.929 324.223 207.966 323.906 207.123C323.078 204.926 322.691 202.46 321.82 200.237C321.403 199.176 320.7 198.102 320.121 197.165C319.48 196.12 318.763 195.348 318.267 194.092C318.09 193.642 317.85 192.924 318.112 192.461C318.137 192.328 318.194 192.206 318.276 192.109C318.359 192.013 318.463 191.946 318.576 191.917C319.024 191.512 320.273 192.051 320.739 192.28C321.977 192.883 323.012 193.458 324.062 194.273C324.566 194.657 325.075 195.422 325.684 195.633H326.378C327.465 195.926 328.684 195.725 329.699 196.086C331.495 196.726 333.104 197.722 334.566 198.804C339.019 202.101 342.66 206.795 345.15 212.401C345.551 213.302 345.724 214.163 346.077 215.119C346.789 217.039 347.686 219.031 348.395 220.916C349.102 222.799 349.79 224.696 350.79 226.262C351.315 227.084 353.345 227.526 354.266 227.982C354.913 228.303 355.971 228.637 356.584 229.069C357.753 229.897 358.886 230.882 359.984 231.789C360.532 232.242 362.217 233.235 362.301 234.053L362.299 234.029Z" fill="#00618A"/>
<path id="Vector_31" fill-rule="evenodd" clip-rule="evenodd" d="M327.768 199.512C327.201 199.5 326.801 199.584 326.377 199.694V199.784H326.454C326.724 200.436 327.201 200.854 327.535 201.415L328.308 203.317L328.385 203.227C328.864 202.831 329.083 202.199 329.08 201.233C328.888 200.996 328.86 200.7 328.693 200.417C328.473 200.041 328.038 199.827 327.766 199.511L327.768 199.512Z" fill="#00618A"/>
</g>
</g>
<path id="Vector_32" fill-rule="evenodd" clip-rule="evenodd" d="M360.486 260.131C360.486 262.412 362.023 263.95 363.743 263.95C365.462 263.95 367 262.412 367 260.131C367 257.849 365.462 256.311 363.743 256.311C362.023 256.311 360.486 257.849 360.486 260.131ZM366.27 260.131C366.27 261.862 365.141 263.156 363.742 263.156C362.327 263.156 361.213 261.862 361.213 260.131C361.213 258.399 362.325 257.105 363.742 257.105C365.14 257.105 366.27 258.399 366.27 260.131ZM364.619 262.311H365.348L364.281 260.396C364.854 260.325 365.288 259.998 365.288 259.204C365.288 258.318 364.809 257.952 363.89 257.952H362.439V262.311H363.064V260.427H363.646L364.619 262.311L364.619 262.311ZM363.064 259.814V258.562H363.785C364.158 258.562 364.61 258.643 364.61 259.153C364.61 259.764 364.202 259.816 363.732 259.816H363.064V259.814Z" fill="#E48E00"/>
</g>
<g id="php">
<path id="Vector_33" d="M186.717 185.398C204.733 185.398 219.338 171.37 219.338 154.067C219.338 136.764 204.733 122.736 186.717 122.736C168.701 122.736 154.096 136.764 154.096 154.067C154.096 171.37 168.701 185.398 186.717 185.398Z" fill="#8993BE"/>
<path id="Vector_34" fill-rule="evenodd" clip-rule="evenodd" d="M163.257 172.618L166.832 139.226H175.098C178.673 139.639 180.461 142.936 180.461 148.708C180.461 158.602 176.216 164.374 172.417 163.961H168.396L167.502 172.618H163.257ZM169.289 157.778L170.407 145.41H173.311C174.875 145.41 175.992 146.647 175.992 149.12C175.769 156.129 173.981 157.365 171.971 157.778H169.29H169.289ZM179.63 163.961L183.205 130.57H187.45L186.557 139.226H190.578C194.153 139.639 195.494 142.936 195.047 147.059L193.483 163.961H189.014L190.578 148.708C190.802 146.647 190.802 145.41 189.238 145.41H185.886L183.875 163.961H179.63V163.961ZM193.197 172.618L196.771 139.226H205.038C208.613 139.639 210.401 142.936 210.401 148.708C210.401 158.602 206.156 164.374 202.357 163.961H198.335L197.442 172.618H193.197V172.618ZM199.229 157.778L200.346 145.41H203.251C204.815 145.41 205.932 146.647 205.932 149.12C205.709 156.129 203.921 157.365 201.91 157.778H199.229H199.229Z" fill="#232531"/>
</g>
<path id="laravel" d="M246.8 61.3811C246.813 61.443 246.821 61.5069 246.821 61.571V71.5427C246.821 71.6706 246.793 71.7964 246.739 71.9071C246.685 72.0179 246.608 72.1097 246.516 72.1734L239.528 76.992V86.5428C239.528 86.8027 239.413 87.0426 239.225 87.1735L224.64 97.2306C224.606 97.2533 224.57 97.2678 224.533 97.2833C224.52 97.2887 224.507 97.2987 224.492 97.3033C224.39 97.3354 224.283 97.3354 224.181 97.3033C224.165 97.2978 224.149 97.2869 224.134 97.2796C224.1 97.2651 224.065 97.2524 224.033 97.2306L209.451 87.1735C209.358 87.1098 209.281 87.0179 209.228 86.9072C209.174 86.7964 209.146 86.6708 209.146 86.5428V56.628C209.146 56.5625 209.154 56.4989 209.167 56.4371C209.172 56.4162 209.182 56.3971 209.188 56.3762C209.2 56.338 209.21 56.299 209.227 56.2635C209.239 56.2399 209.255 56.2208 209.269 56.199C209.286 56.1699 209.302 56.1399 209.323 56.1145C209.34 56.0936 209.363 56.0781 209.383 56.0599C209.405 56.0381 209.424 56.0145 209.449 55.9972H209.45L216.742 50.9687C216.834 50.9051 216.939 50.8716 217.045 50.8716C217.152 50.8716 217.256 50.9051 217.349 50.9687L224.64 55.9972H224.642C224.666 56.0154 224.687 56.0381 224.709 56.059C224.728 56.0772 224.75 56.0936 224.768 56.1136C224.789 56.1399 224.804 56.1699 224.822 56.199C224.835 56.2208 224.853 56.2399 224.863 56.2635C224.881 56.2999 224.891 56.338 224.903 56.3762C224.909 56.3971 224.92 56.4162 224.924 56.438C224.938 56.4999 224.945 56.5638 224.945 56.628V75.3125L231.021 71.1219V61.5701C231.021 61.5065 231.029 61.442 231.043 61.3811C231.048 61.3593 231.058 61.3402 231.064 61.3193C231.076 61.2811 231.087 61.2421 231.103 61.2066C231.115 61.183 231.131 61.1639 231.144 61.1421C231.163 61.113 231.178 61.083 231.199 61.0576C231.216 61.0367 231.238 61.0212 231.258 61.003C231.281 60.9812 231.301 60.9576 231.325 60.9403H231.326L238.618 55.9118C238.71 55.8481 238.815 55.8145 238.921 55.8145C239.028 55.8145 239.133 55.8481 239.225 55.9118L246.517 60.9403C246.542 60.9585 246.562 60.9812 246.585 61.0021C246.604 61.0203 246.626 61.0367 246.643 61.0567C246.664 61.083 246.68 61.113 246.698 61.1421C246.712 61.1639 246.728 61.183 246.739 61.2066C246.756 61.2421 246.766 61.2811 246.778 61.3193C246.785 61.3402 246.795 61.3593 246.8 61.3811V61.3811ZM245.605 71.1219V62.8298L243.054 64.5892L239.528 67.0204V75.3125L245.606 71.1219H245.605ZM238.314 86.122V77.8244L234.846 80.1965L224.945 86.9654V95.3411L238.314 86.122ZM210.362 57.8867V86.122L223.729 95.3402V86.9663L216.746 82.2322L216.743 82.2304L216.74 82.2286C216.717 82.2122 216.697 82.1886 216.675 82.1686C216.656 82.1504 216.634 82.1359 216.617 82.1159L216.616 82.1132C216.596 82.0905 216.582 82.0623 216.566 82.0368C216.551 82.0123 216.532 81.9914 216.52 81.966L216.519 81.9632C216.506 81.936 216.497 81.9032 216.488 81.8723C216.478 81.8451 216.465 81.8196 216.459 81.7906V81.7896C216.451 81.7551 216.45 81.7188 216.447 81.6833C216.444 81.656 216.438 81.6288 216.438 81.6015V62.0773L212.913 59.6452L210.362 57.8876V57.8867ZM217.046 52.4392L210.971 56.628L217.045 60.8167L223.119 56.627L217.045 52.4392H217.046ZM220.205 78.5806L223.73 76.1504V57.8867L221.178 59.6462L217.653 62.0773V80.341L220.205 78.5806ZM238.921 57.3823L232.847 61.571L238.921 65.7598L244.995 61.5701L238.921 57.3823ZM238.314 67.0204L234.789 64.5892L232.237 62.8298V71.1219L235.761 73.5521L238.314 75.3125V67.0204ZM224.336 85.7067L233.246 79.6139L237.7 76.5694L231.63 72.3833L224.641 77.2028L218.271 81.5952L224.336 85.7067Z" fill="#FF2D20"/>
<path id="github" d="M314.109 50.8716C297.109 50.8716 283.326 67.3304 283.326 87.6306C283.326 104.855 293.258 119.268 306.649 123.256C306.505 122.76 306.413 122.184 306.413 121.47V115.188C305.164 115.188 303.07 115.188 302.545 115.188C300.438 115.188 298.566 114.106 297.658 112.097C296.65 109.864 296.475 106.448 293.977 104.359C293.235 103.664 293.8 102.87 294.654 102.977C296.231 103.511 297.54 104.803 298.771 106.721C299.997 108.641 300.574 109.076 302.865 109.076C303.976 109.076 305.638 109 307.203 108.706C308.044 106.154 309.499 103.805 311.277 102.696C301.026 101.437 296.134 95.3469 296.134 87.0792C296.134 83.5197 297.404 80.0766 299.561 77.1757C298.853 74.2963 297.963 68.424 299.833 66.1878C304.445 66.1878 307.234 69.7596 307.903 70.7245C310.202 69.7841 312.726 69.2511 315.379 69.2511C318.036 69.2511 320.571 69.7841 322.874 70.7306C323.536 69.7718 326.327 66.1878 330.95 66.1878C332.827 68.4271 331.927 74.3238 331.211 77.1972C333.356 80.0919 334.618 83.5258 334.618 87.0792C334.618 95.3408 329.734 101.427 319.498 102.693C322.315 104.448 324.37 109.38 324.37 113.095V121.47C324.37 121.789 324.311 122.019 324.28 122.291C336.275 117.271 344.892 103.67 344.892 87.6306C344.892 67.3304 331.109 50.8716 314.109 50.8716Z" fill="black"/>
<g id="rocket">
<path id="Vector_35" d="M95.6834 340.036L94.419 343.02L88.1016 334.945L90.4365 333.329L95.6834 340.036Z" fill="#F7CF52"/>
<path id="Vector_36" d="M102.38 328.943C102.244 328.969 102.104 328.982 101.962 328.982C100.373 328.982 99.0845 327.336 99.0845 325.305C99.0845 323.274 100.373 321.628 101.962 321.628C102.104 321.628 102.244 321.641 102.38 321.667C103.771 321.925 104.839 323.456 104.839 325.305C104.839 327.154 103.771 328.685 102.38 328.943Z" fill="#76CDCE"/>
<path id="Vector_37" d="M95.7566 322.834L88.991 331.482L84.8359 330.498L90.1025 323.766L95.7566 322.834Z" fill="#F7CF52"/>
<path id="Vector_38" d="M103.895 333.235L103.165 340.462L97.8984 347.195L97.1284 341.883L103.895 333.235Z" fill="#F7CF52"/>
<path id="Vector_39" d="M107.669 318.009C108.749 319.389 110.125 320.157 111.536 320.314C110.829 323.262 109.565 325.986 107.816 328.223L103.895 333.235L97.1282 341.883L95.6829 340.036L90.4361 333.329L88.9907 331.482L95.7563 322.834H95.7571L99.6782 317.822C101.429 315.584 103.56 313.969 105.867 313.066C105.989 314.87 106.589 316.629 107.669 318.009ZM103.995 327.905C105.119 326.469 105.119 324.141 103.995 322.705C102.872 321.269 101.05 321.269 99.9266 322.705C98.803 324.141 98.803 326.469 99.9266 327.905C101.05 329.341 102.872 329.341 103.995 327.905Z" fill="#008DB3"/>
<path id="Vector_40" d="M112.08 312.371C112.341 315.073 112.145 317.777 111.537 320.313C110.125 320.157 108.75 319.389 107.669 318.009C106.589 316.628 105.989 314.87 105.867 313.066C107.852 312.288 109.967 312.038 112.08 312.371Z" fill="#F7CF52"/>
<g id="flames">
<path id="Vector_41" d="M84.1398 347.194L84.9429 348.221L90.6176 340.968L89.8146 339.941L84.1398 347.194Z" fill="#F4581B"/>
<path id="Vector_42" d="M86.5573 348.073L87.3604 349.099L92.1699 342.952L91.3668 341.925L86.5573 348.073Z" fill="#F4581B"/>
<path id="Vector_43" d="M83.4523 344.104L84.2554 345.13L89.0649 338.983L88.2618 337.957L83.4523 344.104Z" fill="#F4581B"/>
</g>
<g id="Group_4">
<path id="Vector_44" d="M102.379 328.943V321.667C103.77 321.925 104.838 323.456 104.838 325.305C104.838 327.154 103.77 328.684 102.379 328.943Z" fill="#96E0DE"/>
</g>
</g>
<g id="docker">
<g id="Group_5">
<path id="Vector_45" fill-rule="evenodd" clip-rule="evenodd" d="M93.3314 58.9431V55.6344C93.3314 55.1996 93.5318 54.8504 93.8637 54.8504H93.9555C94.2872 54.8504 94.4867 55.2 94.4867 55.6344V62.6003C94.4867 64.299 93.868 65.6506 92.7898 66.5117C92.2958 66.9086 91.732 67.1171 91.1579 67.1153H90.9288C89.6761 67.1153 88.6809 66.2755 88.045 64.814C87.752 64.1442 87.5982 63.3792 87.6001 62.6003V62.2899C87.6001 60.5906 88.2192 59.2398 89.2965 58.3771C89.7903 57.9794 90.3544 57.7708 90.9288 57.7735H91.1579C92.0057 57.7735 92.7249 58.2192 93.3314 58.9431V58.9431ZM88.7553 62.4448C88.7553 63.6719 89.1938 64.5944 89.9865 65.1829C90.3071 65.4207 90.655 65.5485 91.0208 65.5485C91.9088 65.5485 92.5675 64.9802 93.0217 63.9596C93.233 63.4848 93.3314 62.9653 93.3314 62.413C93.3314 61.3494 92.9602 60.5193 92.3282 59.9027C91.945 59.529 91.5137 59.3415 91.0433 59.3415C90.0754 59.3415 89.3788 60.0048 88.9607 61.1829C88.8197 61.5813 88.7553 62.0042 88.7553 62.4448V62.4448ZM98.4947 57.7735H98.6548C99.9933 57.7735 101.011 58.6542 101.656 60.239C101.914 60.8729 102.052 61.5649 102.052 62.2899V62.6003C102.052 64.299 101.435 65.6524 100.355 66.5119C99.8551 66.9096 99.3029 67.1153 98.7235 67.1153H98.4947C97.242 67.1153 96.2465 66.2755 95.6109 64.814C95.3177 64.1442 95.1638 63.3792 95.1656 62.6003V62.2899C95.1656 60.5904 95.7871 59.244 96.8618 58.3775C97.3614 57.9749 97.9141 57.7735 98.4947 57.7735ZM96.3209 62.4448C96.3209 63.6359 96.7518 64.5121 97.4935 65.1283C97.8418 65.4174 98.2254 65.5485 98.6323 65.5485C99.5 65.5485 100.141 64.9517 100.588 63.9584C100.801 63.4848 100.897 62.9645 100.897 62.413C100.897 61.3055 100.504 60.4594 99.8313 59.8463C99.4629 59.51 99.0527 59.3415 98.609 59.3415C97.6411 59.3415 96.9445 60.0048 96.5266 61.1829C96.3853 61.5813 96.3209 62.0042 96.3209 62.4448V62.4448ZM106.855 59.4667C106.681 59.3559 106.354 59.3191 106.166 59.3094C105.201 59.26 104.502 59.9973 104.093 61.1522C103.951 61.5506 103.886 61.9722 103.886 62.413C103.886 63.7552 104.406 64.6949 105.289 65.2678C105.612 65.4769 106.028 65.5165 106.381 65.5165C106.691 65.5165 107.13 65.2589 107.405 65.0815L107.452 65.0508H107.666L107.69 65.0573C107.952 65.1315 108.151 65.3574 108.151 65.7408V65.8959C108.151 66.85 106.865 67.0684 106.375 67.1149C104.644 67.2773 103.349 65.9879 102.856 63.7485C102.77 63.3596 102.731 62.9734 102.731 62.5681V62.2581C102.731 60.5589 103.353 59.2129 104.428 58.3472C104.927 57.9448 105.48 57.7426 106.06 57.7426H106.289C106.905 57.7426 107.472 57.9798 107.98 58.4507L108.022 58.49L108.049 58.549C108.103 58.6724 108.151 58.8151 108.151 58.9619V59.1171C108.151 59.517 107.93 59.7322 107.664 59.8018L107.642 59.807H107.573C107.401 59.807 107.009 59.565 106.855 59.4667V59.4667ZM110.603 60.5277C111.051 59.9183 111.502 59.31 111.957 58.7106C112.084 58.5434 112.564 57.8356 112.754 57.8356H112.961L112.984 57.8423C113.248 57.9165 113.445 58.1428 113.445 58.527V58.6819C113.445 58.944 113.219 59.2485 113.094 59.4279C112.829 59.8095 112.549 60.1785 112.278 60.5522L110.882 62.4741C111.483 63.2911 112.083 64.1087 112.679 64.9319C112.845 65.1591 113.009 65.3881 113.171 65.6186C113.229 65.7005 113.313 65.8025 113.362 65.9159C113.413 66.0223 113.445 66.1422 113.445 66.2702V66.432L113.438 66.4694C113.374 66.8269 113.206 67.1153 112.914 67.1153H112.822C112.631 67.1153 112.415 66.8221 112.284 66.6544C112.014 66.3094 111.754 65.9466 111.489 65.5942L110.603 64.4132V66.3007C110.603 66.7355 110.402 67.0849 110.07 67.0849H109.979C109.648 67.0849 109.447 66.7355 109.447 66.3007V55.6647C109.447 55.23 109.648 54.8821 109.979 54.8821H110.07C110.402 54.8821 110.603 55.23 110.603 55.6647V60.5277V60.5277ZM125.002 57.8356H125.116C125.463 57.8356 125.694 58.1523 125.694 58.6196C125.694 59.2683 125.237 59.4343 124.841 59.4343C124.322 59.4343 123.827 59.8604 123.469 60.3383C123.023 60.9346 122.828 61.6984 122.828 62.538V66.3315C122.828 66.7662 122.628 67.1153 122.296 67.1153H122.205C121.873 67.1153 121.673 66.7664 121.673 66.3315V62.3202C121.673 60.7799 122.225 59.5225 123.147 58.6406C123.697 58.1138 124.328 57.8358 125.002 57.8358V57.8356ZM116.79 65.3533C117.211 65.5525 117.69 65.524 118.121 65.4221C118.342 65.2949 118.906 64.961 119.114 65.01L119.146 65.0174L119.176 65.0373C119.303 65.1206 119.424 65.2385 119.488 65.4134C119.64 65.8233 119.567 66.2354 119.27 66.4682L119.171 66.5456C118.075 67.4034 116.91 67.2845 115.817 66.4833C115.295 66.1003 114.895 65.5319 114.601 64.8389L114.532 64.6769C113.828 63.0244 113.923 61.2861 114.717 59.7146C114.99 59.1714 115.348 58.7518 115.767 58.4236L115.925 58.2997C116.957 57.4916 118.063 57.547 119.123 58.2562C119.693 58.6376 120.155 59.206 120.473 59.9536L120.531 60.0883C120.762 60.6315 120.462 61.1047 120.153 61.4282C119.794 61.8036 119.432 62.2553 119.088 62.6577C118.322 63.5554 117.556 64.4551 116.79 65.3533V65.3533ZM115.798 64.4082C116.655 63.4112 117.513 62.4132 118.368 61.4121C118.66 61.0703 118.981 60.7156 119.271 60.3563C119.038 59.9587 118.649 59.6721 118.319 59.5013C117.653 59.1569 116.996 59.2726 116.385 59.751C115.585 60.3775 115.244 61.375 115.274 62.6165C115.286 63.1054 115.383 63.5766 115.574 63.9926C115.641 64.1392 115.717 64.2769 115.798 64.4082ZM109.563 33.008H112.973V37.7349H114.696C115.492 37.7349 116.311 37.5426 117.065 37.1961C117.435 37.0257 117.851 36.7887 118.216 36.4904C117.735 35.6382 117.489 34.5622 117.417 33.5016C117.319 32.0587 117.534 30.1809 118.253 29.0517L118.612 28.4895L119.039 28.9553C120.114 30.1267 121.018 31.7639 121.178 33.6302C122.472 33.1137 123.992 33.2359 125.133 34.1291L125.601 34.4955L125.355 35.1479C124.39 37.7023 122.372 38.4938 120.4 38.3537C117.448 48.3249 111.022 53.0456 103.231 53.0456C99.2051 53.0456 95.5121 51.0046 93.4089 46.1606L93.3745 46.0817L93.0681 45.236C92.3572 43.1038 92.1211 40.768 92.2812 38.4339L92.3294 37.7349H95.2447V33.008H98.6537V28.384H105.472V23.76H109.563V33.008Z" fill="#364548"/>
<path id="Vector_46" fill-rule="evenodd" clip-rule="evenodd" d="M120.609 34.7568C120.837 32.3472 119.508 30.4546 118.683 29.5559C117.733 31.0459 117.586 34.9507 119.076 36.5948C118.244 37.597 116.491 38.5054 114.696 38.5054H92.8475C92.6731 41.0467 93.002 43.387 93.7533 45.39L94.0018 46.0068C94.1592 46.3688 94.3311 46.7187 94.5169 47.0551C95.4152 47.1333 96.2434 47.1602 97.0011 47.1376H97.0014C98.4904 47.0931 99.7054 46.8545 100.626 46.4217C100.691 46.3942 100.762 46.4022 100.823 46.4439C100.883 46.4856 100.93 46.5577 100.952 46.6451C100.975 46.7325 100.971 46.8282 100.942 46.912C100.913 46.9959 100.862 47.0612 100.798 47.0943C100.676 47.1521 100.548 47.2059 100.416 47.2571H100.416C99.6906 47.538 98.9131 47.7268 97.91 47.8108C97.9696 47.8122 97.848 47.8229 97.8477 47.8229C97.8135 47.8259 97.7706 47.8326 97.7363 47.835C97.3415 47.8652 96.9154 47.8714 96.4797 47.8714C96.0032 47.8714 95.534 47.8593 95.0094 47.8229L94.996 47.835C96.8164 50.6103 99.6629 52.2748 103.231 52.2748C110.782 52.2748 117.187 47.7345 120.024 37.5416C122.036 37.8217 123.97 37.1256 124.849 34.7965C123.448 33.6998 121.646 34.0495 120.609 34.7568" fill="#22A0C8"/>
<path id="Vector_47" fill-rule="evenodd" clip-rule="evenodd" d="M120.608 34.7568C120.837 32.3472 119.507 30.4546 118.683 29.5559C117.733 31.0459 117.585 34.9507 119.076 36.5948C118.244 37.597 116.491 38.5054 114.696 38.5054H94.1409C94.0518 42.3973 95.1166 45.3516 97.0005 47.1376H97.001C98.49 47.0931 99.7049 46.8545 100.626 46.4217C100.691 46.3942 100.761 46.4022 100.822 46.4439C100.883 46.4856 100.929 46.5577 100.952 46.6451C100.974 46.7325 100.971 46.8282 100.942 46.912C100.913 46.9959 100.861 47.0612 100.798 47.0943C100.675 47.1521 100.547 47.2059 100.416 47.2571H100.415C99.6902 47.538 98.8459 47.7511 97.8428 47.835C97.8425 47.835 97.8185 47.8037 97.8182 47.8037C100.388 49.5917 104.114 49.5852 108.387 47.3594C113.177 44.8632 117.635 40.1078 120.745 34.6687C120.698 34.6974 120.653 34.7267 120.608 34.7568" fill="#37B1D9"/>
<path id="Vector_48" fill-rule="evenodd" clip-rule="evenodd" d="M92.8882 41.593C93.0239 42.9544 93.3176 44.229 93.7529 45.3899L94.0015 46.0067C94.1588 46.3687 94.3308 46.7187 94.5166 47.055C95.415 47.1333 96.2432 47.1601 97.0011 47.1375C98.4901 47.093 99.705 46.8544 100.626 46.4216C100.691 46.3942 100.761 46.4021 100.822 46.4438C100.883 46.4855 100.93 46.5577 100.952 46.645C100.974 46.7324 100.971 46.8281 100.942 46.912C100.913 46.9958 100.861 47.0611 100.798 47.0942C100.675 47.1521 100.548 47.2059 100.416 47.257H100.415C99.6903 47.5379 98.8504 47.7389 97.8473 47.823C97.8129 47.8259 97.7528 47.8265 97.7181 47.8291C97.3236 47.859 96.9018 47.8774 96.466 47.8774C95.9896 47.8774 95.5024 47.8651 94.978 47.8289C96.7985 50.6042 99.6625 52.2747 103.231 52.2747C109.695 52.2747 115.32 48.9466 118.584 41.593H92.8882Z" fill="#1B81A5"/>
<path id="Vector_49" fill-rule="evenodd" clip-rule="evenodd" d="M94.3374 41.593C94.7239 43.9833 95.6526 45.8597 97.0008 47.1375C98.4898 47.093 99.7048 46.8544 100.626 46.4216C100.691 46.3942 100.761 46.4021 100.822 46.4438C100.883 46.4855 100.929 46.5577 100.952 46.645C100.974 46.7324 100.97 46.8281 100.942 46.912C100.913 46.9958 100.861 47.0611 100.797 47.0942C100.675 47.1521 100.547 47.2059 100.415 47.257H100.415C99.69 47.5379 98.8324 47.7389 97.8292 47.823C100.399 49.6107 104.114 49.585 108.386 47.3593C110.971 46.0125 113.458 44.0077 115.69 41.593H94.3374Z" fill="#1D91B4"/>
<path id="Vector_50" fill-rule="evenodd" clip-rule="evenodd" d="M95.8125 33.7785H98.7672V37.7861H95.8125V33.7785ZM96.0587 34.1126H96.2918V37.4523H96.0587V34.1126ZM96.497 34.1126H96.7396V37.4523H96.4971V34.1126H96.497ZM96.9446 34.1126H97.1871V37.4523H96.9446V34.1126ZM97.3924 34.1126H97.6349V37.4523H97.3924V34.1126ZM97.8402 34.1126H98.0826V37.4523H97.8402V34.1126ZM98.2877 34.1126H98.5211V37.4523H98.2877V34.1126ZM99.2217 29.1545H102.177V33.1619H99.2215V29.1545H99.2217ZM99.468 29.4886H99.701V32.8281H99.468V29.4886ZM99.9063 29.4886H100.149V32.8281H99.9065V29.4886H99.9063ZM100.354 29.4886H100.596V32.8281H100.354V29.4886ZM100.802 29.4886H101.044V32.8281H100.802V29.4886ZM101.249 29.4886H101.492V32.8281H101.249V29.4886ZM101.697 29.4886H101.93V32.8281H101.697V29.4886Z" fill="#23A3C2"/>
<path id="Vector_51" fill-rule="evenodd" clip-rule="evenodd" d="M99.2218 33.7786H102.177V37.7862H99.2217V33.7786H99.2218ZM99.4681 34.1126H99.7012V37.4523H99.4681V34.1126ZM99.9065 34.1126H100.149V37.4523H99.9066V34.1126H99.9065ZM100.354 34.1126H100.596V37.4523H100.354V34.1126ZM100.802 34.1126H101.044V37.4523H100.802V34.1126ZM101.249 34.1126H101.492V37.4523H101.249V34.1126ZM101.697 34.1126H101.931V37.4523H101.697V34.1126Z" fill="#34BBDE"/>
<path id="Vector_52" fill-rule="evenodd" clip-rule="evenodd" d="M102.631 33.7786H105.586V37.7862H102.631V33.7786ZM102.877 34.1126H103.11V37.4523H102.877V34.1126ZM103.315 34.1126H103.558V37.4523H103.315V34.1126ZM103.763 34.1126H104.005V37.4523H103.763V34.1126ZM104.211 34.1126H104.453V37.4523H104.211V34.1126ZM104.658 34.1126H104.901V37.4523H104.658V34.1126ZM105.106 34.1126H105.339V37.4523H105.106V34.1126V34.1126Z" fill="#23A3C2"/>
<path id="Vector_53" fill-rule="evenodd" clip-rule="evenodd" d="M102.631 29.1545H105.586V33.1619H102.631V29.1545ZM102.877 29.4886H103.11V32.8281H102.877V29.4886ZM103.315 29.4886H103.558V32.8281H103.315V29.4886ZM103.763 29.4886H104.005V32.8281H103.763V29.4886ZM104.211 29.4886H104.453V32.8281H104.211V29.4886ZM104.658 29.4886H104.901V32.8281H104.658V29.4886ZM105.106 29.4886H105.339V32.8281H105.106V29.4886V29.4886ZM106.04 33.7785H108.995V37.7861H106.04V33.7785ZM106.286 34.1126H106.519V37.4523H106.286V34.1126ZM106.725 34.1126H106.967V37.4523H106.725V34.1126ZM107.172 34.1126H107.415V37.4523H107.172V34.1126ZM107.62 34.1126H107.863V37.4523H107.62V34.1126ZM108.068 34.1126H108.31V37.4523H108.068V34.1126ZM108.515 34.1126H108.749V37.4523H108.515V34.1126Z" fill="#34BBDE"/>
<path id="Vector_54" fill-rule="evenodd" clip-rule="evenodd" d="M106.04 29.1545H108.995V33.1619H106.04V29.1545ZM106.286 29.4886H106.519V32.8281H106.286V29.4886ZM106.725 29.4886H106.967V32.8281H106.725V29.4886ZM107.172 29.4886H107.415V32.8281H107.172V29.4886ZM107.62 29.4886H107.863V32.8281H107.62V29.4886ZM108.068 29.4886H108.31V32.8281H108.068V29.4886ZM108.515 29.4886H108.749V32.8281H108.515V29.4886Z" fill="#23A3C2"/>
<path id="Vector_55" fill-rule="evenodd" clip-rule="evenodd" d="M106.04 24.5305H108.995V28.5385H106.04V24.5305ZM106.286 24.8644H106.519V28.2043H106.286V24.8642V24.8644ZM106.725 24.8644H106.967V28.2043H106.725V24.8642V24.8644ZM107.172 24.8644H107.415V28.2043H107.172V24.8642V24.8644ZM107.62 24.8644H107.863V28.2043H107.62V24.8642V24.8644ZM108.068 24.8644H108.31V28.2043H108.068V24.8642V24.8644ZM108.515 24.8644H108.749V28.2043H108.515V24.8642V24.8644Z" fill="#34BBDE"/>
<path id="Vector_56" fill-rule="evenodd" clip-rule="evenodd" d="M109.45 33.7786H112.404V37.7862H109.45V33.7786ZM109.696 34.1126H109.929V37.4523H109.696V34.1126H109.696ZM110.134 34.1126H110.377V37.4523H110.134V34.1126H110.134ZM110.582 34.1126H110.824V37.4523H110.582V34.1126ZM111.029 34.1126H111.272V37.4523H111.029V34.1126ZM111.477 34.1126H111.72V37.4523H111.477V34.1126ZM111.925 34.1126H112.158V37.4523H111.925V34.1126Z" fill="#23A3C2"/>
<path id="Vector_57" fill-rule="evenodd" clip-rule="evenodd" d="M101.991 44.2838C102.099 44.2818 102.207 44.309 102.307 44.3637C102.407 44.4184 102.498 44.4995 102.575 44.6024C102.652 44.7053 102.713 44.8279 102.754 44.963C102.796 45.0982 102.818 45.2432 102.817 45.3896C102.817 45.5361 102.796 45.6811 102.754 45.8162C102.713 45.9513 102.652 46.0739 102.575 46.1767C102.498 46.2796 102.407 46.3607 102.306 46.4153C102.206 46.47 102.099 46.4971 101.991 46.4951C101.777 46.4911 101.572 46.3728 101.422 46.1659C101.271 45.9589 101.187 45.6799 101.187 45.3892C101.187 45.0986 101.271 44.8196 101.422 44.6127C101.573 44.4058 101.777 44.2877 101.991 44.2838Z" fill="#D3ECEC"/>
<path id="Vector_58" fill-rule="evenodd" clip-rule="evenodd" d="M101.992 44.5974C102.066 44.5974 102.137 44.6164 102.203 44.651C102.158 44.6867 102.122 44.7415 102.102 44.8072C102.082 44.8728 102.079 44.9455 102.092 45.0141C102.106 45.0827 102.136 45.1433 102.177 45.1866C102.219 45.2299 102.27 45.2534 102.322 45.2536C102.412 45.2536 102.49 45.1859 102.531 45.0856C102.579 45.2425 102.588 45.4161 102.558 45.5809C102.528 45.7457 102.459 45.8929 102.362 46.0008C102.266 46.1086 102.146 46.1714 102.021 46.1798C101.896 46.1883 101.772 46.1419 101.668 46.0476C101.564 45.9533 101.485 45.8161 101.442 45.6562C101.4 45.4963 101.397 45.3222 101.433 45.1596C101.469 44.9971 101.543 44.8546 101.644 44.7534C101.745 44.6522 101.866 44.5975 101.992 44.5974V44.5974ZM87.5737 41.9926H125.492C124.667 41.7087 122.88 41.3249 123.175 39.8572C121.673 42.2135 118.053 41.5103 117.139 40.3486C116.122 42.3502 110.198 41.5892 109.785 40.0299C108.509 42.0604 104.557 42.0604 103.281 40.0299C102.868 41.5892 96.9444 42.3502 95.9268 40.3484C95.0132 41.5103 91.3929 42.2135 89.8915 39.8574C90.1861 41.3249 88.3996 41.7087 87.5737 41.9928" fill="#364548"/>
<path id="Vector_59" fill-rule="evenodd" clip-rule="evenodd" d="M104.158 52.251C102.139 50.9517 101.032 49.1853 100.415 47.2573C99.6651 47.5475 98.7639 47.7331 97.7165 47.8128C97.322 47.8428 96.9069 47.8581 96.4716 47.8581C95.9694 47.8581 95.4403 47.8379 94.8848 47.7981C96.7361 50.3076 99.0135 52.2396 103.23 52.2748C103.542 52.2748 103.851 52.2667 104.158 52.251" fill="#BDD9D7"/>
<path id="Vector_60" fill-rule="evenodd" clip-rule="evenodd" d="M101.165 49.0366C100.885 48.5224 100.615 47.8761 100.415 47.2571C99.6654 47.5477 98.7638 47.7333 97.7163 47.8132C98.4358 48.3428 99.4647 48.8336 101.165 49.0366" fill="#D3ECEC"/>
</g>
</g>
<path id="rocket-path" d="M117.193 305.111C115.305 293.549 118.087 282.621 118.087 271.131C118.087 260.524 114.51 250.45 114.51 239.833C114.51 233.61 114.856 227.268 114.51 221.055C114.313 217.499 110.516 205.469 106.264 204.959C102.193 204.47 100.059 201.05 96.6756 199.146C93.6518 197.445 91.3799 194.745 89.2735 192.638C88.05 191.415 84.0954 190.749 82.3681 189.31C79.9029 187.256 76.6805 185.009 73.7736 183.299C69.6305 180.862 62.5471 174.378 60.1616 170.084C56.8533 164.129 54.9762 158.243 52.1136 152.2C49.7217 147.15 50.419 141.662 50.1265 136.104C49.9232 132.243 47.4438 128.528 47.4438 124.429C47.4438 121.063 46.8869 117.054 47.6425 113.748C49.6467 104.98 49.7955 95.3683 59.9629 94.9696C67.1273 94.6886 74.1963 94.0754 81.4242 94.0754C84.2254 94.0754 87.9004 95.1126 88.6276 91.8398C89.0983 89.722 95.2405 85.5678 96.8247 84.0402C101.304 79.7206 108.39 78.8736 114.51 78.8736C120.171 78.8736 126.799 74.8116 132.196 72.8128C138.141 70.6111 143.833 66.5376 150.925 67.3481C160.083 68.3947 169.851 69.7948 178.696 72.4154C179.885 72.7679 181.366 72.26 182.471 72.8128C184.056 73.6051 184.84 75.4554 186.495 76.191C188.339 77.0103 191.559 80.6784 192.804 82.2518C194.613 84.5358 199.194 86.5445 200.356 89.1572C202.457 93.8864 207.842 96.8053 209.248 101.726C211.296 108.892 211.133 113.681 202.591 116.828C193.905 120.028 184.614 117.325 175.764 117.325C171.72 117.325 168.682 117.662 164.785 118.915C160.287 120.361 162.694 120.019 160.91 124.032C159.9 126.304 156.451 128.441 154.75 130.242C152.398 132.732 151.286 136.091 148.988 138.389C145.142 142.234 143.125 152.944 143.125 158.261C143.125 164.843 142.739 171.564 143.125 178.132C143.235 179.991 151.015 185.233 152.962 186.379C157.256 188.905 160.876 190.948 165.58 192.986C170.453 195.098 174.842 197.021 180.136 197.805C182.321 198.129 183.874 199.593 186.048 199.593C188.503 199.593 190.308 198.299 192.755 197.755C195.836 197.071 198.933 196.793 202.144 196.215C208.688 195.037 218.824 193.129 224.996 196.215C226.625 197.03 229.143 200.206 229.865 201.829C230.778 203.883 231.595 208.686 232.746 210.125C236.492 214.807 239.245 218.692 245.961 218.372C249.643 218.197 255.652 215.04 258.082 212.609C259.007 211.685 260.364 212.314 261.361 211.417C262.72 210.194 265.03 209.202 266.578 208.138C268.526 206.799 274.571 204.142 275.669 202.276C277.725 198.78 283.425 197.024 285.307 193.731C288.697 187.798 295.063 180.559 300.906 176.84C305.766 173.747 311.659 171.586 317.051 169.19C318.413 168.585 320.361 167.808 321.522 166.905C323.048 165.718 324.606 162.085 326.242 161.539C329.062 160.599 330.071 154.92 334.042 154.038C337.923 153.175 338.52 151.29 340.748 147.53C342.646 144.328 344.425 137.242 345.12 133.421C347.748 118.965 351.579 104.581 354.211 90.1011C355.295 84.1386 357.247 76.9753 355.453 70.8256C354.633 68.012 352.726 65.8546 352.423 62.8273C352.232 60.9163 352.657 58.8922 352.174 57.0149C351.86 55.7937 351.075 46.3517 350.088 45.7874C348.027 44.6096 346.819 41.5437 344.325 40.2234C341.373 38.6606 337.305 38.6337 333.992 38.6337C328.768 38.6337 323.468 38.1691 318.393 39.3292C315.019 40.1003 310.273 38.2759 307.215 39.975C304.569 41.4452 299.709 40.6034 297.329 42.608C295.369 44.2583 292.498 48.3542 290.225 49.3643C284.302 51.9965 277.798 62.4943 274.973 68.143C271.872 74.345 264.688 72.6141 259.821 72.6141C258.457 72.6141 255.028 66.938 254.208 65.4603C252.188 61.8247 249.766 58.7238 247.252 55.5245C244.692 52.2655 243.409 47.8545 239.701 45.5887C238.095 44.6072 237.198 42.0927 236.522 40.4221C233.56 33.1049 233.728 21.0328 234.833 13.2974C235.534 8.39077 235.76 4.10354 240.596 2.16935C243.611 0.963237 245.961 2.46839 247.054 4.65329C248.903 8.35236 259.305 8.06707 262.603 8.27985C268.332 8.64945 273.63 11.5061 279.047 11.8071C280.895 11.9097 283.309 13.5185 285.207 13.9929C289.549 15.0783 293.785 16.7994 298.223 17.2221C302.14 17.5951 305.65 20.5438 309.451 20.7493C314.198 21.0059 319.162 22.8042 323.559 24.5249C329.145 26.7104 335.092 27.2865 340.748 29.2444C344.445 30.524 348.297 31.3925 351.926 32.8709C354.892 34.0792 360.597 34.9834 362.905 37.044C365.268 39.1537 370.749 41.2029 371.947 44.4958C373.918 49.9173 373.834 55.5435 373.834 61.2873C373.834 69.2752 370.484 76.6679 368.419 84.2389C366.508 91.246 365.755 98.2141 364.495 105.402C363.374 111.799 361.909 118.504 360.222 124.777C359.525 127.37 357.738 130.23 357.738 132.974C357.738 135.717 360.286 137.481 361.117 139.879C361.857 142.018 362.935 143.927 363.998 145.94C365.515 148.815 366.043 151.071 367.177 153.988C368.359 157.027 369.426 159.484 371.499 162.036C374.419 165.63 374.469 172.232 376.02 176.542C377.891 181.738 379.2 187.363 379.2 192.887C379.2 195.203 378.506 198.882 379.647 200.935C381.119 203.584 380.094 209.15 380.094 212.113C380.094 217.583 380.988 222.82 380.988 228.308C380.988 241.554 380.094 254.72 380.094 268.001C380.094 276.557 380.48 286.168 372.046 291.152C360.412 298.026 344.835 298.369 331.707 297.908C313.608 297.273 295.999 294.381 277.855 294.381C265.491 294.381 251.465 295.256 239.254 292.543C228.897 290.241 217.509 290.121 206.516 290.854C193.017 291.754 178.027 289.838 165.084 293.536C159.659 295.086 154.583 296.169 148.491 296.169" stroke="black" stroke-width="3" stroke-linecap="round"/>
</g>
<defs>
<linearGradient id="paint0_linear_2_87" x1="251.449" y1="33.4135" x2="287.696" y2="45.2429" gradientUnits="userSpaceOnUse">
<stop stop-color="#2298BD"/>
<stop offset="1" stop-color="#0ED7B5"/>
</linearGradient>
</defs>
</svg>
