<svg width="622" height="517" viewBox="0 0 622 517" fill="none" xmlns="http://www.w3.org/2000/svg">
<g id="styling">
<path id="reverse-bootstrap-tailwind-path" d="M341.154 447C289.289 420.802 239.464 388.985 192.278 351.931C78.9685 263.213 1.70977 160.6 0.0292242 96.5881C-0.462241 77.8794 5.24715 63.0426 16.999 52.4924C36.009 35.4239 69.9002 31.3287 115.011 40.6402L113.897 48.6403C70.6124 39.7025 38.4739 43.2932 20.9557 59.0214C11.0737 67.8944 6.27457 80.4453 6.69118 96.3293C8.305 157.792 84.3361 257.768 195.884 345.107C242.727 381.894 292.192 413.482 343.68 439.491L341.154 447Z" fill="#33A9A2"/>
<path id="bootstrap-tailwind-path" d="M501.581 495.07C481.812 495.07 458.402 491.197 431.782 483.429L433.336 475.54C489.23 491.847 531.526 490.49 552.435 471.717C562.317 462.844 567.117 450.292 566.7 434.409C565.086 372.945 489.055 272.97 377.507 185.633C320.971 141.367 260.925 104.502 203.859 79.0233L206.155 71.4062C263.673 97.0863 324.172 134.225 381.113 178.808C494.422 267.525 571.681 370.139 573.362 434.15C573.853 452.859 568.144 467.696 556.392 478.246C543.911 489.451 525.387 495.07 501.581 495.07Z" fill="#BD48B8"/>
<path id="vuetify-path" d="M72.0033 494.984C48.1313 494.985 29.4354 489.411 16.999 478.246C5.24715 467.695 -0.462242 452.859 0.0292242 434.15C1.70977 370.138 78.969 267.525 192.278 178.808C318.916 79.6558 461.063 20.8936 530.272 39.0939L528.865 47.0254C461.219 29.2278 321.18 87.5304 195.884 185.633C84.3361 272.97 8.30553 372.945 6.69118 434.409C6.27403 450.291 11.0737 462.844 20.9557 471.717C71.0052 516.646 230.953 459.853 377.507 345.107C478.181 266.285 549.715 178.094 564.195 114.95L570.615 117.131C555.715 182.108 483.102 272.078 381.113 351.932C309.338 408.128 232.163 452.289 163.802 476.281C128.295 488.743 97.2537 494.983 72.0033 494.984Z" fill="#4D46A4"/>
<g id="css-icon">
<path id="Vector" d="M281.599 304.187L247.222 295.492L239.561 217.208H323.741L316.072 295.48L281.599 304.187V304.187Z" fill="#264DE4"/>
<path id="Vector_2" d="M309.506 290.496L316.06 223.608H281.651V297.532L309.506 290.496V290.496Z" fill="#2965F1"/>
<path id="Vector_3" d="M257.124 252.643L258.068 262.244H281.651V252.643H257.124ZM255.226 233.21L256.183 242.811H281.651V233.21H255.226V233.21ZM281.651 277.579L281.605 277.59L269.868 274.703L269.118 267.045H258.539L260.015 282.121L281.602 287.58L281.651 287.568V277.579Z" fill="#EBEBEB"/>
<path id="Vector_4" d="M259.373 195.933H272.136V200.796H264.71V205.659H272.137V210.522H259.373V195.933ZM274.689 195.933H287.453V200.162H280.027V201.007H287.453V210.734H274.689V206.293H282.115V205.447H274.689V195.933H274.689ZM290.006 195.933H302.769V200.162H295.343V201.007H302.769V210.734H290.006V206.293H297.432V205.447H290.006V195.933H290.006Z" fill="black"/>
<path id="Vector_5" d="M306.111 252.643L308.013 233.21H281.615V242.811H296.464L295.505 252.643H281.615V262.244H294.591L293.368 274.697L281.614 277.587V287.576L303.219 282.121L303.377 280.498L305.854 255.221L306.111 252.643V252.643Z" fill="white"/>
</g>
<g id="vuetify-icon">
<path id="Vector_6" d="M579.763 27.5713H559.965L579.763 70.2058" fill="#1697F6"/>
<path id="Vector_7" d="M579.764 27.5713H599.562L579.764 70.2058" fill="#1867C0"/>
<path id="Vector_8" d="M579.763 82.5097V115.494L537.527 40.3652H559.651" fill="#7BC6FF"/>
<path id="Vector_9" d="M579.764 82.5107V115.495L622 40.3662H599.876" fill="#AEDDFF"/>
</g>
<path id="tailwind-icon" d="M381.119 425.007C365.105 425.007 355.095 435.229 351.092 455.671C357.097 445.45 364.103 441.617 372.111 444.172C376.679 445.63 379.945 449.861 383.559 454.544C389.448 462.174 396.262 471.004 411.147 471.004C427.161 471.004 437.171 460.782 441.174 440.339C435.169 450.561 428.163 454.394 420.155 451.838C415.587 450.38 412.321 446.149 408.707 441.466C402.818 433.837 396.004 425.007 381.119 425.007ZM351.092 471.004C335.077 471.004 325.067 481.225 321.064 501.668C327.069 491.446 334.076 487.613 342.083 490.169C346.652 491.627 349.917 495.858 353.532 500.541C359.42 508.17 366.234 517 381.119 517C397.134 517 407.143 506.779 411.147 486.336C405.141 496.557 398.135 500.391 390.127 497.835C385.559 496.377 382.293 492.146 378.679 487.463C372.791 479.833 365.976 471.004 351.092 471.004Z" fill="url(#paint0_linear_2_88)"/>
<path id="bootstrap" fill-rule="evenodd" clip-rule="evenodd" d="M145.885 0C141.705 0 138.612 5.82093 138.75 12.1336C138.883 18.1983 138.711 26.053 137.468 32.4585C136.221 38.882 134.113 42.9526 130.669 43.475V49.3738C134.113 49.8974 136.221 53.9659 137.468 60.3903C138.711 66.7959 138.883 74.6506 138.75 80.7153C138.612 87.027 141.705 92.8489 145.885 92.8489H188.714C192.894 92.8489 195.986 87.028 195.848 80.7153C195.715 74.6506 195.887 66.7959 197.13 60.3903C198.377 53.9659 200.48 49.8958 203.924 49.3738V43.475C200.48 42.9515 198.377 38.883 197.13 32.4585C195.887 26.0539 195.715 18.1983 195.848 12.1336C195.986 5.82184 192.894 0 188.714 0H145.884H145.885ZM180.333 57.1546C180.333 65.8468 176.258 71.1184 169.496 71.1184H157.984C157.655 71.1184 157.339 70.9103 157.107 70.5398C156.874 70.1693 156.743 69.6668 156.743 69.1429V23.7062C156.743 23.1823 156.874 22.6798 157.107 22.3093C157.339 21.9388 157.655 21.7307 157.984 21.7307H169.43C175.069 21.7307 178.77 26.5905 178.77 34.0518C178.77 39.2889 176.28 43.9772 173.109 44.7986V45.0718C177.426 45.8253 180.333 50.5831 180.333 57.1546V57.1546ZM168.241 27.993H161.677V42.7445H167.205C171.479 42.7445 173.835 40.0064 173.835 35.1122C173.835 30.5256 171.809 27.993 168.241 27.993ZM161.677 48.5976V64.854H168.482C172.932 64.854 175.289 62.0132 175.289 56.6745C175.289 51.3357 172.866 48.5966 168.196 48.5966H161.677V48.5976Z" fill="#7952B3"/>
</g>
<defs>
<linearGradient id="paint0_linear_2_88" x1="317.727" y1="454.445" x2="432.527" y2="506.298" gradientUnits="userSpaceOnUse">
<stop stop-color="#2298BD"/>
<stop offset="1" stop-color="#0ED7B5"/>
</linearGradient>
</defs>
</svg>
